<?xml version="1.0" encoding="UTF-8"?>
<svg id="_图层_1" data-name="图层 1" xmlns="http://www.w3.org/2000/svg" viewBox="0 0 960 960">
  <defs>
    <style>
      .cls-1 {
        fill: #444794;
      }

      .cls-1, .cls-2, .cls-3, .cls-4, .cls-5, .cls-6, .cls-7, .cls-8, .cls-9, .cls-10, .cls-11, .cls-12 {
        stroke-width: 0px;
      }

      .cls-2 {
        fill: #444694;
      }

      .cls-3 {
        fill: #b5ccff;
      }

      .cls-4 {
        fill: #454896;
      }

      .cls-5 {
        fill: #030303;
      }

      .cls-6 {
        fill: #b4cbff;
      }

      .cls-7 {
        fill: #b4ccfd;
      }

      .cls-8 {
        fill: #b7ceff;
      }

      .cls-9 {
        fill: #b3cbfc;
      }

      .cls-10 {
        fill: #b6ceff;
      }

      .cls-11 {
        fill: #454795;
      }

      .cls-12 {
        fill: #5a7dff;
      }
    </style>
  </defs>
  <path class="cls-5" d="m278.26,748.52c-3.31.38-6.32.85-9.34,1.04-12.15.8-23.92-1.04-35.22-5.59-11.63-4.68-18.64-13.31-21.66-25.4-1.96-7.83-2.46-15.76-2.15-23.8.41-10.72,1.39-21.38,3.53-31.91.04-.22,0-.45,0-.86-1.28-.04-2.38.47-3.5.74-4.09.96-8.22,1.44-12.36.61-6.36-1.27-11.26-4.77-14.77-10.2-2.96-4.59-4.4-9.72-5.28-15.05-1.27-7.64-1.01-15.29-.26-22.96,1.92-19.54,7-38.32,13.42-56.8,3.83-11.03,7.94-21.94,13.01-32.47,1.19-2.48,1.14-2.52-1.13-4.08-3.16-2.18-5.54-5.04-7.35-8.4-3.9-7.23-4.98-14.98-3.97-23.02,1.55-12.26,4.84-24.11,8.55-35.86,4.98-15.75,11.82-30.7,19.17-45.45,2.57-5.15,5.18-10.27,7.75-15.35-8.03-6.87-13.35-15.81-18.86-24.6-2.34-3.74-4.07-7.78-5.46-11.97-3.59-10.79-2.2-20.98,3.69-30.6,3.95-6.44,8.9-12.1,14.09-17.55,3.53-3.71,7.22-7.25,11.03-10.68.97-.87,1.32-1.51.55-2.78-1.44-2.36-1.8-5.11-2.31-7.77-2.38-12.24-4.75-24.49-6.54-36.83-1.53-10.55-2.04-21.16-.76-31.8,1.04-8.65,4.89-15.62,12.29-20.45,4.87-3.18,10.34-4.06,16.01-4.21,6.36-.17,12.59.74,18.75,2.26,1.95.48,1.97.44,2.52-1.52,1.36-4.86,3.16-9.55,5.11-14.2,6.32-15.08,13.74-29.55,23.12-42.99,8.49-12.15,18.54-22.83,29.8-32.38,7.11-6.03,15.06-10.82,23.72-14.33,6.53-2.65,13.27-3.49,20.19-1.63,6.89,1.85,11.94,5.93,14.99,12.42,1.95,4.14,3.2,8.52,4.42,12.9.88.21,1.12-.54,1.53-.96,17.95-18.15,37.25-34.59,59.62-47.15,15.63-8.78,32.2-14.81,50.01-17.27,6.71-.93,13.4-.91,20.05.43,14.79,2.98,24.91,13.18,27.97,28.1,1.31,6.41,1.28,12.87.74,19.35-.39,4.7-.99,9.38-2.09,13.97.74.58,1.41.16,2.08,0,8.87-2.05,17.65-4.5,26.62-6.15,16.17-2.98,32.42-4.72,48.9-3.58,12.16.84,23.94,3.03,34.88,8.67,5.86,3.02,11.29,6.65,15.94,11.38,2.14,2.17,4.1,4.51,5.53,7.21,4.59,8.65,4.66,17.28-.34,25.81-3.38,5.77-8.34,10.06-13.53,14.1-.63.49-1.27.97-1.9,1.46-.05.04-.04.15-.06.23.04.27.26.37.48.42,11.91,2.25,23.31,6.19,34.63,10.37,15.61,5.76,30.83,12.44,45.62,20.06,8.32,4.29,16.37,9.05,24,14.49,6.73,4.81,12.94,10.19,18.13,16.67,5.54,6.91,9.47,14.59,10.91,23.43.93,5.73.42,11.31-1.8,16.71-.24.57-.6,1.13-.49,1.94,1.19.54,2.55.59,3.83.93,2.23.61,4.5,1.12,6.7,1.84,16.11,5.29,24.6,17.02,27.59,33.17,1.46,7.87.66,15.77-.65,23.62-2.03,12.12-6.05,23.67-10.07,35.22-3.48,9.98-7.84,19.58-12.52,29.05-4.74,9.6-8.77,19.54-13.68,29.07-.18.35-.39.7-.25,1.13.64.24,1.25-.08,1.87-.16,8.7-1.24,15.57,1.75,20.47,9.02,3.42,5.08,5.11,10.8,5.78,16.85.5,4.47.32,8.94.11,13.42-.63,13.58-1.75,27.13-3.59,40.6-1.72,12.54-4.66,24.81-7.78,37.06-1.83,7.2-3.69,14.4-5.52,21.61-.13.53-.41,1.05-.26,1.62.54.35,1.08.07,1.62-.01,5.57-.81,10.07,1.06,13.49,5.49,3.05,3.97,4.74,8.54,5.23,13.47,1.43,14.49.05,28.6-6.43,41.88-6.17,12.66-12.96,24.97-21.09,36.5-3.74,5.3-7.92,10.24-12.47,14.87-4.59,4.67-9.73,8.53-15.77,11.13-.44.19-.87.41-1.3.62q-1.87.92-1.19,2.83c1.4,3.91,2.89,7.8,4.17,11.75,3.49,10.77,5.48,21.85,6.49,33.11.66,7.41,0,14.74-2.41,21.79-4.95,14.41-14.78,24.07-29.16,28.98-9.06,3.09-18.47,4.55-28.03,4.81-17.93.49-35.61-1.44-53-5.81-20.23-5.08-40.21-11.07-60.16-17.17-2.29-.7-4.55-1.53-6.73-2.52-1.46-.66-2.59-.59-3.99.19-10.34,5.77-20.91,11.11-31.95,15.37-19.93,7.68-40.17,14.42-61.11,18.79-8.85,1.85-17.8,3.13-26.86,3.38-9.82.26-19.47-.87-28.82-4.03-3.42-1.15-6.66-2.72-9.71-4.66-4.73-3.01-9.17-6.42-13.45-10.02-1.53-1.29-2.96-2.71-4.02-4.42-.8-1.3-.94-1.5-2.69-.74-10.21,4.44-20.86,7.62-31.54,10.67-18.43,5.26-37.3,6.59-56.31,5.61-11.42-.59-22.45-3.32-32.54-9.02-4.9-2.76-9.38-6.1-13.32-10.13-7.23-7.37-10.77-16.3-11.16-26.54-.08-2.07-.01-4.14-.01-6.37Zm9.59-563.38c-.51-.17-.47.24-.55.53-2.96,5.22-5.23,10.74-7.1,16.42-1.84,5.61-3.49,11.28-5.23,16.93-.35,1.14-.7,2.3-1.42,3.28-.95,1.29-2.48,1.77-3.8,1.16-1.29-.6-1.84-1.74-1.97-3.08-.17-1.83-.1-3.67.16-5.5.37-2.61.77-5.21,1.15-7.82.27-1.86.26-1.86-1.54-2.03-1.75-.17-3.5-.31-5.24-.53-5.01-.64-10.01-.99-15.03-.17-7.64,1.25-12.6,6.29-13.69,13.93-.77,5.41-.53,10.84-.22,16.26.11,1.9.01,3.84.62,5.7-.27,3.03.33,6,.8,8.96,1.97,12.49,4.75,24.84,7.14,37.25.12.63.05,1.46.91,1.88,2.13-1.37,4.25-2.78,6.6-3.78,1.32-.57,2.64-1.15,4.14-.8,2.07,1.85,2.16,3.03.35,5-.48.53-1.03,1.01-1.57,1.48-9.07,7.99-17.45,16.66-25.48,25.68-.96,1.07-1.88,2.17-2.53,3.46-.26.17-.59.29-.77.53-2.73,3.44-5.35,6.96-7.53,10.79-4.48,7.89-5.04,15.96-1.45,24.35,1.39,3.24,2.9,6.41,4.83,9.35,4.19,6.41,8.49,12.75,12.75,19.11.05.08.27.05.6.09,2.03-3.24,4.1-6.54,6.17-9.85.83-1.17,1.64-2.35,2.51-3.49.73-.95,1.5-1.86,2.62-2.4,1.18-.57,2.33-.57,3.35.3,1.01.86,1.27,1.99.85,3.24-.18.53-.42,1.03-.66,1.53-2.58,5.39-5.14,10.78-7.9,16.08-.95,1.82-1.93,3.64-2.57,5.61-.83.49-1.02,1.41-1.39,2.18-3.47,7.28-6.94,14.55-10.34,21.86-2.76,5.93-5.62,11.83-7.95,17.94-4.94,12.99-9.14,26.21-11.92,39.84-1.31,6.41-2.49,12.84-2.21,19.44.1,2.42.5,4.77,1.21,7.05,1.33,4.25,3.58,7.83,7.73,9.91,2.23,1.12,4.16,2.61,5.74,4.55.82,2.3.82,4.63.31,6.98-.9,1.28-1.18,2.8-1.65,4.25-1.47,3.1-3.09,6.14-4.4,9.31-9.74,23.53-18.13,47.46-21.5,72.86-1.05,7.93-1.92,15.87-.8,23.86.6,4.29,1.44,8.54,4.05,12.15,2.3,3.18,5.5,4.5,9.4,4.04,3.83-.45,7.47-1.69,11.11-2.88,1.74-.57,3.49-1.19,5.28-1.55,4.83-.99,8.55,2.68,8.73,6.36.09,1.89-.34,3.65-.81,5.41-2.23,8.36-3.51,16.86-4.3,25.47-.29,3.19-.29,6.38-.55,9.57-.69,8.11-.15,16.12,2.18,23.95,1.89,6.37,5.6,11.19,11.78,14.04,4.83,2.23,9.86,3.69,15.07,4.6,7.21,1.25,14.43,1.63,21.68.3,2.83-.52,5.67-.94,8.5-1.42,3.48-.59,8.33.99,9.25,6.26.28,1.6.38,3.2.16,4.77-.37,2.63-.35,5.26-.36,7.9-.05,9.02,3.78,16.1,10.67,21.79,9.86,8.14,21.52,11.36,33.9,12.33,7.8.61,15.65.23,23.48-.29,4.07-.27,8.13-.55,12.15-1.2,14.02-2.27,27.47-6.6,40.78-11.4,4.58-1.65,9.05-3.62,13.53-5.54,3.85-1.64,8.91.18,9.9,5.64.35,1.92,1.23,3.42,2.65,4.69,2.38,2.14,4.98,4.01,7.52,5.93,4.76,3.6,9.9,6.48,15.8,7.74,7.68,1.65,15.4,2.54,23.3,1.85,8.61-.75,17.13-1.96,25.54-3.89,13.1-3,25.84-7.18,38.6-11.36,17.09-5.59,33.32-13.03,48.94-21.87,9.67-5.47,18.85-11.75,28.26-17.64,3.39-2.12,6.84-3.29,10.83-3.06,3.31.19,4.69,2.29,3.51,5.35-1.47,3.82-4.02,6.6-7.5,8.72-5.46,3.32-10.83,6.79-16.23,10.22-.43.27-1.09.39-1.02,1.13.32.46.83.46,1.29.56,5.78,1.23,11.59,2.32,17.32,3.74,9.69,2.4,19.34,4.94,28.98,7.53,15.45,4.16,31.05,7.5,47.08,8.3,11.36.57,22.69.4,33.82-2.42,4.58-1.16,9.11-2.54,13.09-5.18,9.55-6.33,14.31-15.43,15.1-26.71.35-5.04-.13-10.05-.92-15.04-1.41-8.85-3.14-17.61-6.23-26.05-1.34-3.68-2.69-7.35-3.97-11.05-.66-1.9-1.03-3.84-.64-5.88.71-3.68,3.02-6.1,6.16-7.81,2.17-1.19,4.41-2.27,6.65-3.33,3.36-1.6,6.26-3.8,8.94-6.36,5.82-5.55,10.73-11.83,15.17-18.5,6.61-9.93,12.27-20.4,17.45-31.14,1.46-3.02,2.65-6.16,3.49-9.43,1.93-7.51,2.18-15.16,1.8-22.85-.11-2.29-.51-4.6-1.51-6.74-1.55-3.29-2.29-3.65-5.5-1.99-4.19,2.17-8.16,4.71-11.71,7.86-1.31,1.17-2.58,2.4-4.2,3.16-2.56,1.2-5.46.68-7.28-1.27-1.87-2-2.18-5.11-.66-7.55.59-.94,1.3-1.83,2.06-2.64,2.63-2.76,4.48-6,5.94-9.49,2.01-4.81,3.2-9.87,4.49-14.9,4.74-18.56,9.89-37.03,12.02-56.15.87-7.77,1.88-15.53,2.18-23.36.14-3.51.29-7.03.6-10.52.39-4.4.44-8.78-.21-13.14-.54-3.67-1.62-7.19-3.85-10.22-1.8-2.44-4.18-3.53-7.3-2.98-3.13.55-5.94,1.84-8.64,3.42-4.36,2.54-8.45,5.48-12.43,8.55-3.4,2.62-7.14,4.52-11.17,5.91-1.49.52-2.98.64-4.44-.03-1.72-.79-2.75-2.14-3.01-4.04-.24-1.76.33-3.13,1.93-4.03,1.14-.64,1.91-1.69,2.72-2.67,1.02-1.24,2.12-2.38,3.42-3.33,2.84-2.07,5.64-4.2,8.49-6.25.76-.55,1.29-1.08,1.29-2.11,0-1.97.7-3.76,1.7-5.42,2.05-3.44,3.73-7.07,5.5-10.65,6.02-12.18,11.27-24.73,17.42-36.84.76-1.49,1.41-3.04,2.07-4.59,4.83-11.34,8.88-22.95,12.21-34.8,2.62-9.33,4.43-18.79,3.78-28.58-.57-8.46-3.92-15.58-10.1-21.33-1.61-1.5-3.39-2.94-5.71-3.33-.73-.82-1.76-1.07-2.73-1.43-6.11-2.23-12.46-3.44-18.84-4.51-13.09-2.18-26.08-2.25-38.9,1.65-1.22.37-2.47.66-3.72.9-1.05.2-2.13.17-2.78-.88-.66-1.07-.06-2.01.54-2.86.99-1.41,2.41-2.33,3.86-3.17,4.04-2.34,8.41-3.85,12.92-4.96,5.21-1.28,10.53-1.85,15.83-2.56,3.02-.06,6.04-.14,9.07-.19.7-.01,1.22-.23,1.55-.89,2.38-4.74,3.78-9.64,2.71-15-1.14-5.67-3.69-10.68-7.1-15.28-5.61-7.53-12.9-13.21-20.62-18.37-10.58-7.06-21.85-12.86-33.38-18.18-.49-.23-.96-.61-1.57-.42-2.71-1.48-5.58-2.66-8.39-3.9-16.09-7.14-32.7-12.89-49.47-18.23-15.31-4.88-30.9-7.38-46.98-6.79-3.43.13-6.87.03-10.31,0-.71,0-1.43-.13-2.13-.28-.85-.18-1.47-.68-1.56-1.59-.08-.91.46-1.51,1.2-1.91.92-.5,1.94-.73,2.95-.95,6.64-1.46,13.35-2.45,20.12-3.06.96.19,1.91.07,2.86,0,3.59-.29,7.2-.42,10.76.04,3,.39,5.34-.65,7.3-2.71,1.34-1.41,2.84-2.55,4.5-3.53,4.71-2.78,8.95-6.17,12.66-10.17,6.23-6.72,6.17-13.98-.15-20.65-3.05-3.22-6.63-5.76-10.48-7.92-2.43-1.36-4.75-2.96-7.58-3.45-.77-.77-1.81-1-2.78-1.33-5.86-1.99-11.89-3.22-18.04-3.68-9.41-.71-18.83-1.15-28.26-.27-12.1,1.12-24.15,2.61-36.16,4.45-14.29,2.19-28.64,4-42.6,7.91-.68.19-1.42.23-2.13.24-.85.02-1.59-.31-1.98-1.1-.43-.89-.21-1.72.47-2.41.28-.28.61-.52.91-.78,1.56-.8,3.08-1.67,4.68-2.37,2.99-1.3,6.03-2.52,9.06-3.74,2-.81,2.02-.79,2-2.82-.02-1.6.14-3.17.52-4.74,1.93-7.96,2.43-16.06,1.97-24.21-.2-3.52-.89-7-2.46-10.16-4.41-8.91-12.12-12.38-21.61-12.75-.79-.07-1.58-.18-2.38-.19-5.55-.13-10.99.78-16.38,1.95-6.72,1.45-13.33,3.27-19.62,6.09-4.74,1.71-9.29,3.84-13.72,6.21-19.44,10.39-36.53,23.95-52.56,38.94-1.73,1.16-3.22,2.61-4.71,4.04-7.13,6.88-14.75,13.25-21.44,20.59-1.4,1.53-2.89,3.01-4.86,3.83-2.23.93-3.95,0-4.49-2.34-.07-.31-.1-.63-.14-.95.42-1.12.92-2.19,1.56-3.22,1.59-2.58,3.09-5.22,4.69-7.79.64-1.02.94-1.93.28-3.09-.59-1.04-.77-2.25-.96-3.44-.81-5.06-2.21-9.95-4.21-14.68-1.81-4.27-5.23-6.02-9.6-6.36-3.57-.28-6.94.51-10.2,1.91-9.73,4.32-18.44,10.13-25.91,17.74-.08.03-.17.03-.22.08-10.84,10.25-20.01,21.84-27.85,34.52-5.62,9.1-10.33,18.69-15.48,28.05-.18.33-.17.76-.25,1.14l.16.04Z"/>
  <path class="cls-12" d="m477.77,69.89c6.3-2.82,12.9-4.64,19.62-6.09,5.4-1.17,10.83-2.08,16.38-1.95.79.02,1.59.13,2.38.19.34.72.66,1.45,1.04,2.15,4.1,7.49,6.11,15.61,6.62,24.03.56,9.19.07,18.34-3.36,27.09-.85,2.17-.8,4.4,1,6.25.35.36.58.76.56,1.28-.3.26-.63.49-.91.78-.68.69-.91,1.52-.47,2.41.39.79,1.14,1.12,1.98,1.1.71-.01,1.45-.05,2.13-.24,13.97-3.9,28.32-5.72,42.6-7.91,12.01-1.84,24.06-3.33,36.16-4.45,9.43-.87,18.85-.44,28.26.27,6.15.47,12.18,1.7,18.04,3.68.98.33,2.01.55,2.78,1.33-.2.72,0,1.4.16,2.11,1.51,6.19,1.71,12.43.42,18.67-1.47,7.16-5.37,13.01-10.2,18.32-2.27,2.49-5.03,4.38-7.78,6.28-1.12.77-2.3,1.48-2.49,3.01-6.77.61-13.48,1.59-20.12,3.06-1.02.22-2.03.46-2.95.95-.74.4-1.28,1-1.2,1.91.09.91.71,1.41,1.56,1.59.7.15,1.42.28,2.13.28,3.44.03,6.88.13,10.31,0,16.08-.59,31.67,1.91,46.98,6.79,16.77,5.34,33.38,11.09,49.47,18.23,2.81,1.25,5.68,2.42,8.39,3.9.1.79.8.94,1.34,1.24,4.32,2.46,8.29,5.41,12.13,8.53,6.02,4.88,11.65,10.19,17.34,15.44,6.18,5.71,11.49,12.19,16.37,19.02,1.11,1.55,2.12,3.18,2.83,4.98,1.51,3.79,1.05,7.69.69,11.59-.23,2.54-1.2,4.96-1.35,7.52-5.3.71-10.62,1.28-15.83,2.56-4.52,1.11-8.88,2.62-12.92,4.96-1.45.84-2.87,1.76-3.86,3.17-.6.86-1.2,1.79-.54,2.86.65,1.05,1.73,1.08,2.78.88,1.25-.24,2.5-.53,3.72-.9,12.83-3.91,25.82-3.84,38.9-1.65,6.39,1.07,12.74,2.29,18.84,4.51.97.35,2,.6,2.73,1.43-.05.47-.15.95-.14,1.42.26,6.56,0,13.05-1.35,19.53-1.9,9.14-3.86,18.25-6.57,27.19-3.58,11.81-8.51,23.07-13.99,34.09-3.91,7.87-8.05,15.62-12.12,23.41-3.62,6.94-7.55,13.71-11.55,20.44-5.14,8.65-10.45,17.2-14.93,26.22-1.24,2.5-2.58,4.96-3.96,7.39-5.79,10.12-11.81,20.1-18.14,29.89-1.35,2.09-2.28,4.38-3.03,6.76-1.19,3.8-.64,7.32,1.82,10.38,1.65,2.04,3.52,3.94,5.67,5.49,5.93,4.26,11.4,9.01,15.94,14.76,2.53,3.2,4.88,6.52,6.53,10.28,3.57,8.13,3.46,16.6,2.25,25.16-.74,5.22-2.43,10.23-3.55,15.36-1.18,5.4-3.66,10.37-5.83,15.43-2.33,5.44-5.5,10.45-8.17,15.73-1.44,2.84-3.12,5.57-4.89,8.23-3.98,5.99-8.45,11.61-12.69,17.41-3.26,4.46-6.9,8.58-10.89,12.41-1.73,1.66-3.42,3.36-5.09,5.08-2.12,2.19-4.33,4.26-6.97,5.81-.91.54-1.58,1.31-2.25,2.12-1.97,2.37-1.65,5.16-1.25,7.8.8,5.43,1.6,10.87,2.41,16.3,1.01,6.8,1.4,13.64,1.66,20.48.31,8.38.12,16.79.07,25.18-.01,2.06-.38,4.12-.82,6.15-.38,1.74-1.39,2.84-3.07,3.31-4.29,1.19-8.49,1.16-12.58-.87-4.84-2.4-8.46-6.18-11.82-10.27-2.66-3.24-4.49-6.97-6.31-10.71-1.15-2.37-2.16-4.82-3.73-6.96-3-4.09-6.78-6.61-12.14-6.41-4.06.16-7.85,1.37-11.68,2.43-10.76,2.96-21.45,6.23-32.49,8.02-6.04.98-12.1,2.08-18.28,1.2-5.15-.74-9.7-2.51-12.89-6.93-1.31-1.81-2.92-3.41-4.65-4.82-2.13-1.73-4.58-2.47-7.37-1.78-2.11.52-4.07,1.39-6.07,2.19-14.97,5.98-29.9,12.07-44.78,18.28-18.2,7.59-36.65,14.53-55.41,20.64-15.85,5.16-31.52,10.9-48.1,13.47-6.62,1.03-13.24,2-19.95,2.09-3.28.05-6.56.01-9.83,0-5.05-.02-10.02-.6-14.9-1.93-3.73-1.02-7.15-2.6-10.19-5.1-2.75-2.26-5-4.93-7.09-7.74-4.63-6.2-9.38-12.3-12.92-19.26-1.65-3.25-3.24-6.57-5.54-9.5-2.93-3.74-6.68-5.13-11.2-4.27-6.42,1.21-12.78,2.73-19.2,3.94-6.4,1.21-12.79,2.45-19.42,1.78-7.17-.72-12.67-4.04-16.94-9.64-3.98-5.22-6.59-11.12-8.19-17.45-3.08-12.22-6.07-24.45-9.1-36.68-.52-2.1-1.18-4.15-2.26-6.04-1.25-2.18-3.02-3.78-5.57-4.13-1.97-.27-3.95-.47-5.95-.59-2.78-.16-5.55-.56-8.3-1-5.52-.89-9-4.16-10.64-9.46-.24-.76-.55-1.5-.75-2.28-1.4-5.58-2.08-11.28-2.48-17.01-.4-5.67.15-11.33.52-16.99.12-1.82.27-3.66.51-5.47.69-5.29,1.61-10.55,2.74-15.77,1.84-8.49,3.27-17.06,5.46-25.48.94-3.62,1.86-7.27,1.84-11.06.53-1.78.66-3.17.41-4.34.51-2.36.51-4.69-.31-6.98.41-1.11-.26-2-.64-2.93-.42-1.03-.99-2-1.42-3.03-3.89-9.3-4.31-19-3.29-28.86.3-2.85.49-5.71.95-8.53,1.17-7.23,2.57-14.4,4.6-21.46,1.8-6.27,3.21-12.66,5.11-18.91,3.43-11.3,7.87-22.23,12.23-33.19.75-1.87,1.81-3.71,1.59-5.87.64-1.97,1.62-3.79,2.57-5.61,2.76-5.3,5.32-10.69,7.9-16.08.24-.5.48-1.01.66-1.53.43-1.26.17-2.39-.85-3.24-1.02-.86-2.17-.87-3.35-.3-1.11.54-1.89,1.45-2.62,2.4-.87,1.14-1.68,2.32-2.51,3.49-1.6-.96-2.67-2.5-3.97-3.77-6-5.87-10.81-12.51-13.79-20.46-1.59-4.24-2.15-8.38-1.25-12.84,1.06-5.25,2.35-10.41,4.1-15.47.2-.58.6-1.16.32-1.84.65-1.3,1.57-2.39,2.53-3.46,8.03-9.02,16.41-17.69,25.48-25.68.54-.47,1.08-.95,1.57-1.48,1.81-1.97,1.72-3.15-.35-5,1.91-5.21,1.82-10.28-.8-15.28-1.48-2.84-3.06-5.61-4.84-8.26-4.31-6.43-8.7-12.81-13.08-19.19-.21-.31-.58-.52-.88-.78-.61-1.85-.51-3.79-.62-5.7-.31-5.42-.55-10.85.22-16.26,1.09-7.65,6.06-12.69,13.69-13.93,5.02-.82,10.03-.47,15.03.17,1.74.22,3.49.36,5.24.53,1.8.17,1.81.17,1.54,2.03-.38,2.61-.78,5.21-1.15,7.82-.26,1.82-.33,3.66-.16,5.5.13,1.33.68,2.48,1.97,3.08,1.32.61,2.86.13,3.8-1.16.72-.98,1.07-2.14,1.42-3.28,1.74-5.64,3.39-11.31,5.23-16.93,1.86-5.68,4.14-11.2,7.1-16.42.18-.18.37-.35.55-.53,0,0-.16-.04-.16-.04.63.16,1.06-.2,1.49-.57,4.06-3.59,8.42-6.81,12.49-10.38,6.08-5.33,11.51-11.23,16.55-17.53,3.84-4.8,7.09-10.01,10.21-15.29,2.23-3.78,4.46-7.59,5.25-11.98.53-2.96.64-5.93-2.19-8.03,7.47-7.62,16.18-13.42,25.91-17.74,1.35.15,2.02,1.24,2.76,2.14,2.22,2.72,4.18,5.62,5.66,8.83.64,1.4,1.02,2.85,1.18,4.35.59,5.55,1.68,11,3,16.41.81,3.32,2.41,4.59,5.84,4.94.05.32.07.64.14.95.54,2.35,2.26,3.27,4.49,2.34,1.97-.82,3.46-2.3,4.86-3.83,6.69-7.34,14.3-13.72,21.44-20.59,1.49-1.43,2.98-2.88,4.71-4.04.16.87.77,1.35,1.48,1.77,2.2,1.32,4.59,1.9,7.11,1.54,2.12-.3,4.23-.78,6.28-1.47,6.54-2.2,12.7-5.21,18.67-8.62,9.49-5.4,18.3-11.66,25.41-20.07,3.59-4.25,6.53-8.87,7.65-14.44.26-1.3.69-2.66-.32-3.88Zm-13.37,504.47c2.58-.14,4.8-.14,7.03-.46,8.59-1.21,16.21-4.59,23.11-9.76,3.32-2.49,6.53-5.11,9.68-7.81,1.84-1.57,2.1-1.56,4.17-.42,2.38,1.31,4.75,2.65,7.32,3.56,8.56,3.02,17.33,3.3,26.17,1.67,13.97-2.57,25.94-9.21,36.44-18.58,7.95-7.09,14.14-15.61,19.19-24.94,5.26-9.73,9.26-19.98,12.05-30.7,2.59-9.98,4.68-20.01,3.62-30.44-.87-8.55-3.84-16.08-10.12-22.14-6.37-6.15-14.07-7.93-22.55-6.61-7.08,1.11-13.31,4.44-19.08,8.54-6.71,4.77-12.85,10.19-18.42,16.3-4.75,5.2-8.99,10.78-13.22,16.38-2.69,3.56-5.29,7.2-7.97,10.77-1.02,1.36-1.18,1.32-2.25-.01-5.25-6.52-12.23-10-20.37-10.9-8.04-.88-15.91.35-23.48,3.33-7.68,3.02-14.26,7.8-20.64,12.89-3.12,2.48-6.14,5.09-9.12,7.74-.9.8-1.6.82-2.53.24-1.28-.81-2.59-1.58-3.89-2.35-8.68-5.14-17.84-7.03-27.79-4.33-5.81,1.57-11.36,3.76-16.77,6.35-1.36.65-2.43.7-3.7-.37-5.57-4.68-11.85-8.08-18.82-10.19-3.66-1.11-7.36-1.36-11.1-.4-3.2.82-6.14,2.25-8.96,3.94-5.54,3.31-9.25,8.01-10.63,14.39-.27,1.27-.76,2.43-1.34,3.57-2.83,5.56-3.47,11.39-1.97,17.44.44,1.78,1.06,3.52,1.45,5.31,1.7,7.86,5.17,14.89,9.78,21.42,2.73,3.87,5.82,7.4,9.68,10.18,7.26,5.23,15.13,9.19,23.75,11.66,4,1.14,8.04,2.05,12.2,2.22,8.49.35,16.43-1.83,24-5.51,3.68-1.79,7.02-4.12,10.41-6.37,1.94-1.29,1.96-1.28,3.56.32,1.7,1.69,3.42,3.34,5.33,4.81,7.72,5.88,16.26,9.39,25.75,9.27Zm-58.2,14.29c-2.15.03-4.29.1-6.44.45-6.4,1.04-12.09,3.47-16.69,8.15-1.46,1.48-2.94,2.94-4.36,4.46-4.66,4.99-6.26,11.06-5.76,17.67.35,4.77,1.7,9.4,2.75,14.06,2.03,9.05,6.2,16.9,13.3,23.03,3.03,2.61,6.23,4.97,9.94,6.58,7.61,3.3,15.5,4,23.67,2.94,7.12-.92,13.85-3.02,20.29-6.12,8.79-4.24,17.01-9.48,25.23-14.69,1.6-1.02,1.69-1.07,2.97.38,3.24,3.68,7.21,6.27,11.66,8.2,4.7,2.04,9.6,2.98,14.71,2.45,6.9-.73,13.01-3.65,18.92-7.06,5.2-3,10.1-6.45,14.6-10.4,3.73-3.26,7.28-6.74,10.48-10.53,4.6-5.44,8.49-11.38,11.93-17.61,2.99-5.43,5.25-11,5.16-17.45-.14-9.71-8.95-16.89-17.13-17-4.18-.05-8.04,1.04-11.8,2.69-5.44,2.38-10.36,5.68-15.31,8.89-1.06.69-1.94.96-3.04.19-.52-.36-1.13-.6-1.71-.87-8.01-3.78-16.33-5.69-25.27-4.72-6.24.68-11.95,2.72-17.31,5.86-6.14,3.6-11.76,7.96-17.49,12.15-2.33,1.71-2.42,1.75-4.81.09-2.36-1.64-4.71-3.29-7.27-4.62-4.28-2.23-8.88-3.51-13.55-4.62-5.83-1.39-11.67-2.57-17.7-2.56Zm72.74,124.78c3.38.18,6.7-.66,9.9-1.95,5.02-2.03,9.36-5.16,13.31-8.8,5.25-4.84,9.84-10.26,13.55-16.37,1.87-3.07,3.5-6.24,4.16-9.87.83-4.61-1.7-11.18-8.5-12.49-2.26-.44-4.44-.14-6.61.28-3.69.72-7.25,1.96-10.74,3.31-2.42.94-4.68,1.11-7.19.51-6.46-1.54-12.93-1.75-19.38.2-3.92,1.19-7.24,3.19-9.78,6.49-2.54,3.31-3.53,7.11-3.8,11.15-.16,2.38-.31,4.82.83,7.06.73,1.43,1.23,2.94,1.73,4.46,2.81,8.64,12.3,16.65,22.53,16.01Zm275.18-317.28c0-.32.06-1.21,0-2.08-.4-5.16-5.16-7.56-9.52-4.79-.74.47-1.42,1.03-2.06,1.62-5.32,4.94-9.44,10.81-12.9,17.14-4.1,7.5-7.52,15.33-11.07,23.09-1.55,3.39-1.92,7.05-2.73,10.61-.19.84-.1,1.76-.03,2.63.32,3.96,4.1,6.61,8.02,5.81,2.57-.52,4.51-2,6.28-3.73,4.33-4.22,7.61-9.24,10.51-14.48,5.08-9.17,8.76-18.98,12.59-28.7.82-2.09,1.27-4.29.93-7.12Zm-101.02,173.87c1.98-.16,3.96.08,5.95-.4,4-.97,7.62-2.72,11.23-4.67,5.49-2.96,9.89-6.95,13.08-12.3.7-1.17,1.35-2.34,1.23-3.8-.18-2.04-2.35-3.98-4.42-2.92-4.1,2.11-8.48,3.64-12.32,6.34-3.77,2.66-7.59,5.43-12.26,6.3-5.38,1.01-10.76,1.02-16.02-.8-3.19-1.1-5.25.54-4.85,3.89.08.65.32,1.23.61,1.81,1.34,2.7,3.67,4.18,6.44,4.98,3.69,1.06,7.46,1.74,11.34,1.56Zm-107.17-395.37c-.72,0-1.44-.07-2.15.01-2.56.28-5.05.83-7.11,2.51-2.13,1.75-1.64,4.69.89,5.75.84.35,1.71.36,2.58.37,2,.03,3.97.33,5.91.74,4.57.96,8.77,2.88,12.7,5.37,4.71,2.98,9.29,6.17,14.12,8.95,1.03.59,2.01,1.31,3.29,1.3,1.91-.02,3.03-1.53,2.53-3.37-.24-.89-.8-1.56-1.31-2.26-.94-1.28-2.03-2.46-2.96-3.75-2.16-2.99-4.61-5.68-7.57-7.91-6.21-4.68-13.15-7.33-20.93-7.71Zm-261.47,237.3c0-2.03-.78-3.24-2.15-3.81-1.47-.61-2.42.25-3.37,1.14-.29.27-.56.57-.8.89-3.95,5.12-6.87,10.7-8.22,17.1-1.03,4.88-1.44,9.72-.42,14.66.34,1.65.59,3.29,1.36,4.8.75,1.48,1.86,2.43,3.58,2.3,1.79-.13,2.63-1.34,2.97-2.97.5-2.34.68-4.73.78-7.11.1-2.32.41-4.6.96-6.85.89-3.65,2.09-7.2,3.31-10.74,1.09-3.18,1.27-6.56,2-9.43Zm13.48-168.74c0,.8-.08,1.61.02,2.39.23,1.79,1.81,3.63,3.29,3.7,1.73.09,2.83-1.02,3.49-2.47,2.58-5.64,6.38-10.49,10.01-15.44,2.92-3.98,4.65-8.53,6.41-13.06.51-1.32.03-2.74-.99-3.41-1.11-.74-2.32-.72-3.35.1-2.55,2.04-5.32,3.9-7.5,6.29-4,4.37-7.19,9.36-9.69,14.76-1.04,2.26-1.92,4.57-1.69,7.14Zm-24.04,325.41c.29,5.13,2.05,9.8,4.65,14.16,1.26,2.11,2.78,4.11,4.71,5.68,1.51,1.23,2.74,1.29,3.94.49,1.27-.84,1.65-2.13,1.26-3.99-.62-2.98-1.5-5.87-2.76-8.63-1.4-3.06-2.45-6.22-3.29-9.47-.26-1-.54-2-1.2-2.85-1.91-2.46-4.88-2.24-6.46.45-.77,1.31-.92,2.7-.85,4.17Zm294.6-393.03c-.28,2.29,1.7,4.74,4.72,5.56,1.67.46,3.42.74,5.13,1.04,2.56.45,4.33-1.9,3.24-4.27-.9-1.96-2.24-3.68-3.8-5.17-1.11-1.07-2.6-1.6-4.11-1.8-2.8-.38-5.17,1.79-5.18,4.64Zm-238.52,58.54c1.37.11,2.46-.59,3.52-1.31,2.81-1.91,4.97-4.47,7.17-7.01.77-.89,1.09-1.73.41-2.79-.67-1.05-1.73-1.45-3.11-.98-2.49.85-4.96,1.81-7.22,3.18-1.3.79-2.57,1.67-3.46,2.92-.85,1.2-1.39,2.54-.57,4.02.71,1.28,1.68,2.13,3.27,1.98Zm371.4,200.41c-.07,1.78.52,3.16,2.09,4.05,1.62.91,3.23.83,4.75-.14,1.89-1.21,3.16-2.92,3.62-5.15.49-2.41-1.16-4.91-3.48-5.87-1.82-.75-4.96.46-5.8,2.56-.59,1.49-1.26,2.94-1.18,4.55Zm-404.92,128.19c-2.18.01-3.39.92-4.06,3.02-.54,1.69.17,3.79,1.77,4.84,1.41.93,3.04,1.46,4.69,1.7,2.21.32,3.61-1.45,2.99-3.61-.33-1.15-.74-2.28-1.21-3.37-.78-1.81-2.2-2.67-4.18-2.58Zm.5-138.5c-.03-2.53-.99-3.94-2.71-4.58-1.47-.54-2.48.22-3.36,1.18-2.24,2.46-.58,9.01,2.53,10.14,1.02.37,2.42-.14,2.48-1.14.13-2.08.97-4.02,1.05-5.6Zm61.06-212.63c-1.57-.09-2.94.12-4.05,1.24-.82.82-1.12,1.78-.64,2.82.45.97,1.21,1.65,2.4,1.69.83.03,1.6-.15,2.27-.6.81-.55,1.65-.81,2.65-.89,1.62-.13,2.04-1.36,1.03-2.7-.94-1.25-2.18-1.82-3.65-1.56Z"/>
  <path class="cls-11" d="m217.9,528.72c.03,3.79-.89,7.44-1.84,11.06-2.19,8.42-3.62,16.99-5.46,25.48-1.13,5.22-2.05,10.47-2.74,15.77-.24,1.82-.39,3.65-.51,5.47-.37,5.65-.92,11.32-.52,16.99.4,5.72,1.08,11.42,2.48,17.01.19.77.51,1.51.75,2.28,1.64,5.3,5.11,8.57,10.64,9.46,2.75.44,5.52.84,8.3,1,2,.12,3.98.32,5.95.59,2.55.35,4.32,1.96,5.57,4.13,1.08,1.88,1.74,3.94,2.26,6.04,3.03,12.23,6.02,24.47,9.1,36.68,1.6,6.33,4.21,12.23,8.19,17.45,4.27,5.6,9.77,8.92,16.94,9.64,6.64.67,13.02-.57,19.42-1.78,6.42-1.21,12.78-2.73,19.2-3.94,4.52-.85,8.27.53,11.2,4.27,2.3,2.93,3.89,6.25,5.54,9.5,3.54,6.96,8.29,13.07,12.92,19.26,2.1,2.81,4.34,5.47,7.09,7.74,3.04,2.5,6.46,4.09,10.19,5.1,4.87,1.33,9.85,1.91,14.9,1.93,3.28.01,6.56.05,9.83,0,6.71-.09,13.33-1.06,19.95-2.09,16.58-2.57,32.25-8.32,48.1-13.47,18.77-6.1,37.21-13.05,55.41-20.64,14.88-6.21,29.81-12.3,44.78-18.28,2-.8,3.96-1.67,6.07-2.19,2.79-.69,5.24.04,7.37,1.78,1.73,1.41,3.34,3.01,4.65,4.82,3.19,4.42,7.74,6.19,12.89,6.93,6.18.88,12.24-.22,18.28-1.2,11.04-1.78,21.73-5.05,32.49-8.02,3.83-1.06,7.62-2.27,11.68-2.43,5.36-.21,9.14,2.31,12.14,6.41,1.57,2.14,2.58,4.6,3.73,6.96,1.82,3.74,3.65,7.47,6.31,10.71,3.36,4.1,6.98,7.87,11.82,10.27,4.08,2.03,8.29,2.06,12.58.87,1.68-.47,2.69-1.56,3.07-3.31.44-2.03.81-4.08.82-6.15.05-8.39.24-16.8-.07-25.18-.26-6.83-.65-13.68-1.66-20.48-.81-5.43-1.6-10.87-2.41-16.3-.39-2.64-.72-5.43,1.25-7.8.67-.81,1.34-1.58,2.25-2.12,2.64-1.55,4.85-3.63,6.97-5.81,1.67-1.72,3.36-3.42,5.09-5.08,3.99-3.82,7.63-7.95,10.89-12.41,4.24-5.79,8.71-11.42,12.69-17.41,1.77-2.66,3.45-5.39,4.89-8.23,2.67-5.27,5.84-10.29,8.17-15.73,2.17-5.05,4.65-10.03,5.83-15.43,1.12-5.14,2.81-10.14,3.55-15.36,1.22-8.56,1.33-17.03-2.25-25.16-1.65-3.76-4-7.08-6.53-10.28-4.54-5.75-10.01-10.5-15.94-14.76-2.15-1.55-4.03-3.44-5.67-5.49-2.47-3.06-3.01-6.59-1.82-10.38.74-2.38,1.68-4.67,3.03-6.76,6.33-9.79,12.36-19.77,18.14-29.89,1.39-2.43,2.72-4.89,3.96-7.39,4.48-9.03,9.79-17.57,14.93-26.22,4-6.73,7.92-13.5,11.55-20.44,4.07-7.79,8.21-15.54,12.12-23.41,5.48-11.02,10.41-22.28,13.99-34.09,2.71-8.94,4.66-18.05,6.57-27.19,1.35-6.47,1.61-12.97,1.35-19.53-.02-.47.09-.95.14-1.42,2.32.39,4.1,1.83,5.71,3.33,6.18,5.75,9.53,12.87,10.1,21.33.66,9.79-1.16,19.24-3.78,28.58-3.33,11.86-7.38,23.47-12.21,34.8-.66,1.54-1.31,3.09-2.07,4.59-6.15,12.12-11.41,24.66-17.42,36.84-1.77,3.58-3.44,7.21-5.5,10.65-1,1.67-1.7,3.46-1.7,5.42,0,1.03-.52,1.56-1.29,2.11-2.85,2.05-5.65,4.18-8.49,6.25-1.3.95-2.41,2.09-3.42,3.33-.81.98-1.58,2.03-2.72,2.67-1.6.9-2.17,2.27-1.93,4.03.26,1.89,1.28,3.25,3.01,4.04,1.46.67,2.95.54,4.44.03,4.03-1.4,7.77-3.29,11.17-5.91,3.98-3.07,8.08-6.02,12.43-8.55,2.7-1.57,5.51-2.87,8.64-3.42,3.12-.55,5.5.54,7.3,2.98,2.23,3.03,3.31,6.54,3.85,10.22.64,4.37.6,8.75.21,13.14-.31,3.5-.46,7.01-.6,10.52-.31,7.83-1.31,15.59-2.18,23.36-2.14,19.12-7.29,37.59-12.02,56.15-1.28,5.03-2.48,10.09-4.49,14.9-1.46,3.5-3.31,6.73-5.94,9.49-.77.81-1.48,1.69-2.06,2.64-1.51,2.44-1.2,5.55.66,7.55,1.82,1.95,4.72,2.47,7.28,1.27,1.62-.76,2.88-1.99,4.2-3.16,3.55-3.15,7.52-5.69,11.71-7.86,3.21-1.66,3.95-1.3,5.5,1.99,1.01,2.14,1.4,4.45,1.51,6.74.38,7.68.13,15.33-1.8,22.85-.84,3.26-2.04,6.41-3.49,9.43-5.18,10.73-10.85,21.2-17.45,31.14-4.44,6.67-9.35,12.95-15.17,18.5-2.68,2.56-5.58,4.77-8.94,6.36-2.24,1.06-4.47,2.14-6.65,3.33-3.14,1.72-5.45,4.13-6.16,7.81-.39,2.04-.02,3.99.64,5.88,1.28,3.7,2.63,7.37,3.97,11.05,3.09,8.44,4.82,17.2,6.23,26.05.79,4.99,1.27,10,.92,15.04-.79,11.28-5.54,20.38-15.1,26.71-3.98,2.64-8.51,4.02-13.09,5.18-11.13,2.82-22.46,2.99-33.82,2.42-16.03-.8-31.63-4.14-47.08-8.3-9.64-2.6-19.29-5.14-28.98-7.53-5.73-1.42-11.54-2.51-17.32-3.74-.46-.1-.96-.1-1.29-.56-.07-.74.59-.86,1.02-1.13,5.4-3.42,10.77-6.9,16.23-10.22,3.48-2.12,6.03-4.89,7.5-8.72,1.18-3.07-.2-5.16-3.51-5.35-3.99-.23-7.44.94-10.83,3.06-9.41,5.89-18.59,12.17-28.26,17.64-15.62,8.84-31.85,16.29-48.94,21.87-12.76,4.17-25.51,8.35-38.6,11.36-8.41,1.93-16.93,3.14-25.54,3.89-7.9.69-15.62-.21-23.3-1.85-5.9-1.26-11.04-4.14-15.8-7.74-2.55-1.93-5.14-3.79-7.52-5.93-1.42-1.27-2.3-2.78-2.65-4.69-.99-5.45-6.06-7.28-9.9-5.64-4.48,1.91-8.95,3.89-13.53,5.54-13.31,4.8-26.76,9.13-40.78,11.4-4.02.65-8.08.93-12.15,1.2-7.83.52-15.68.9-23.48.29-12.37-.97-24.03-4.19-33.9-12.33-6.89-5.69-10.72-12.76-10.67-21.79.01-2.64,0-5.27.36-7.9.22-1.57.12-3.16-.16-4.77-.92-5.27-5.77-6.85-9.25-6.26-2.83.48-5.68.9-8.5,1.42-7.25,1.33-14.47.95-21.68-.3-5.22-.91-10.25-2.36-15.07-4.6-6.17-2.85-9.88-7.68-11.78-14.04-2.33-7.83-2.87-15.84-2.18-23.95.27-3.18.26-6.38.55-9.57.8-8.6,2.07-17.11,4.3-25.47.47-1.75.9-3.51.81-5.41-.18-3.68-3.9-7.35-8.73-6.36-1.79.37-3.54.98-5.28,1.55-3.64,1.2-7.28,2.43-11.11,2.88-3.9.46-7.1-.85-9.4-4.04-2.61-3.61-3.45-7.86-4.05-12.15-1.12-8-.25-15.93.8-23.86,3.37-25.41,11.76-49.34,21.5-72.86,1.31-3.17,2.92-6.21,4.4-9.31.41.03.82.06,1.23.09Z"/>
  <path class="cls-7" d="m477.77,69.89c1.01,1.22.58,2.58.32,3.88-1.11,5.57-4.06,10.19-7.65,14.44-7.1,8.41-15.92,14.67-25.41,20.07-5.98,3.41-12.13,6.42-18.67,8.62-2.05.69-4.16,1.17-6.28,1.47-2.52.36-4.91-.22-7.11-1.54-.71-.43-1.32-.9-1.48-1.77,16.02-15,33.12-28.55,52.56-38.94,4.44-2.37,8.99-4.5,13.72-6.21Z"/>
  <path class="cls-1" d="m522.01,122.86c.02-.52-.21-.92-.56-1.28-1.8-1.85-1.85-4.09-1-6.25,3.43-8.76,3.92-17.9,3.36-27.09-.52-8.42-2.52-16.54-6.62-24.03-.38-.7-.69-1.43-1.04-2.15,9.49.37,17.2,3.84,21.61,12.75,1.57,3.17,2.26,6.64,2.46,10.16.46,8.16-.04,16.25-1.97,24.21-.38,1.57-.54,3.14-.52,4.74.02,2.03,0,2.01-2,2.82-3.03,1.22-6.06,2.44-9.06,3.74-1.6.7-3.12,1.57-4.68,2.37Z"/>
  <path class="cls-2" d="m632.7,168.22c.19-1.53,1.37-2.24,2.49-3.01,2.75-1.9,5.51-3.79,7.78-6.28,4.83-5.31,8.73-11.16,10.2-18.32,1.28-6.24,1.09-12.48-.42-18.67-.17-.7-.36-1.39-.16-2.11,2.83.49,5.15,2.09,7.58,3.45,3.85,2.16,7.43,4.7,10.48,7.92,6.32,6.67,6.38,13.92.15,20.65-3.72,4.01-7.95,7.39-12.66,10.17-1.66.98-3.16,2.12-4.5,3.53-1.96,2.06-4.3,3.1-7.3,2.71-3.57-.47-7.18-.33-10.76-.04-.96.08-1.91.2-2.86,0Z"/>
  <path class="cls-2" d="m776.62,273.27c.16-2.56,1.12-4.98,1.35-7.52.36-3.89.81-7.79-.69-11.59-.72-1.8-1.72-3.43-2.83-4.98-4.89-6.83-10.2-13.31-16.37-19.02-5.68-5.25-11.32-10.57-17.34-15.44-3.84-3.12-7.82-6.07-12.13-8.53-.53-.3-1.24-.45-1.34-1.24.61-.18,1.08.2,1.57.42,11.53,5.32,22.81,11.12,33.38,18.18,7.72,5.15,15.01,10.83,20.62,18.37,3.42,4.59,5.97,9.61,7.1,15.28,1.08,5.37-.32,10.27-2.71,15-.33.66-.85.88-1.55.89-3.02.05-6.04.12-9.07.19Z"/>
  <path class="cls-9" d="m331.49,121.31c2.83,2.1,2.72,5.06,2.19,8.03-.79,4.39-3.02,8.21-5.25,11.98-3.12,5.28-6.37,10.49-10.21,15.29-5.04,6.29-10.48,12.2-16.55,17.53-4.08,3.57-8.43,6.8-12.49,10.38-.43.38-.85.74-1.49.57.08-.38.07-.81.25-1.14,5.15-9.36,9.85-18.95,15.48-28.05,7.84-12.68,17.01-24.27,27.85-34.52.05-.05.15-.05.22-.08Z"/>
  <path class="cls-2" d="m237.13,394.62c.22,2.16-.84,4-1.59,5.87-4.36,10.96-8.8,21.88-12.23,33.19-1.9,6.25-3.3,12.63-5.11,18.91-2.03,7.05-3.43,14.23-4.6,21.46-.46,2.82-.66,5.69-.95,8.53-1.02,9.86-.6,19.56,3.29,28.86.43,1.03,1,2,1.42,3.03.38.93,1.05,1.82.64,2.93-1.58-1.94-3.51-3.44-5.74-4.55-4.15-2.08-6.39-5.66-7.73-9.91-.72-2.28-1.11-4.63-1.21-7.05-.28-6.61.9-13.03,2.21-19.44,2.78-13.63,6.98-26.86,11.92-39.84,2.33-6.12,5.19-12.01,7.95-17.94,3.4-7.31,6.87-14.58,10.34-21.86.37-.77.56-1.69,1.39-2.18Z"/>
  <path class="cls-1" d="m375.84,140.22c-3.43-.34-5.03-1.61-5.84-4.94-1.32-5.41-2.41-10.86-3-16.41-.16-1.51-.54-2.96-1.18-4.35-1.47-3.21-3.43-6.11-5.66-8.83-.73-.9-1.4-1.99-2.76-2.14,3.26-1.4,6.64-2.19,10.2-1.91,4.37.34,7.79,2.09,9.6,6.36,2,4.73,3.4,9.62,4.21,14.68.19,1.19.36,2.4.96,3.44.66,1.16.36,2.07-.28,3.09-1.6,2.57-3.09,5.21-4.69,7.79-.63,1.03-1.14,2.1-1.56,3.22Z"/>
  <path class="cls-2" d="m224.34,319.36c.28.68-.12,1.25-.32,1.84-1.75,5.06-3.04,10.22-4.1,15.47-.9,4.47-.34,8.6,1.25,12.84,2.98,7.96,7.79,14.6,13.79,20.46,1.3,1.27,2.37,2.81,3.97,3.77-2.07,3.3-4.14,6.61-6.17,9.85-.32-.05-.54-.01-.6-.09-4.27-6.36-8.56-12.7-12.75-19.11-1.92-2.94-3.44-6.11-4.83-9.35-3.58-8.39-3.02-16.46,1.45-24.35,2.18-3.83,4.8-7.35,7.53-10.79.19-.23.51-.35.77-.53Z"/>
  <path class="cls-2" d="m233.98,240.22c.3.26.66.47.88.78,4.37,6.39,8.76,12.77,13.08,19.19,1.78,2.65,3.36,5.42,4.84,8.26,2.61,5,2.7,10.07.8,15.28-1.5-.35-2.82.23-4.14.8-2.34,1-4.47,2.41-6.6,3.78-.85-.43-.78-1.25-.91-1.88-2.39-12.42-5.17-24.76-7.14-37.25-.47-2.96-1.07-5.93-.8-8.96Z"/>
  <path class="cls-2" d="m217.9,528.72c-.41-.03-.82-.06-1.23-.09.46-1.45.75-2.97,1.65-4.25.25,1.17.12,2.56-.41,4.34Z"/>
  <path class="cls-9" d="m287.85,185.13c-.18.18-.37.35-.55.53.08-.28.04-.7.55-.53Z"/>
  <path class="cls-8" d="m464.4,574.36c-9.49.12-18.03-3.38-25.75-9.27-1.92-1.46-3.63-3.12-5.33-4.81-1.6-1.59-1.62-1.6-3.56-.32-3.4,2.25-6.74,4.58-10.41,6.37-7.58,3.68-15.51,5.87-24,5.51-4.16-.17-8.21-1.08-12.2-2.22-8.61-2.47-16.49-6.43-23.75-11.66-3.86-2.78-6.95-6.31-9.68-10.18-4.6-6.53-8.07-13.56-9.78-21.42-.39-1.79-1.01-3.53-1.45-5.31-1.5-6.05-.86-11.87,1.97-17.44.58-1.14,1.07-2.3,1.34-3.57,1.38-6.39,5.09-11.08,10.63-14.39,2.82-1.68,5.76-3.11,8.96-3.94,3.73-.96,7.43-.71,11.1.4,6.97,2.11,13.26,5.52,18.82,10.19,1.27,1.07,2.34,1.01,3.7.37,5.41-2.58,10.96-4.77,16.77-6.35,9.94-2.7,19.1-.81,27.79,4.33,1.3.77,2.61,1.55,3.89,2.35.93.59,1.63.56,2.53-.24,2.98-2.65,6-5.26,9.12-7.74,6.38-5.08,12.95-9.86,20.64-12.89,7.57-2.98,15.44-4.21,23.48-3.33,8.14.89,15.12,4.38,20.37,10.9,1.08,1.34,1.23,1.38,2.25.01,2.68-3.57,5.28-7.21,7.97-10.77,4.23-5.6,8.48-11.17,13.22-16.38,5.57-6.11,11.71-11.54,18.42-16.3,5.77-4.1,11.99-7.43,19.08-8.54,8.48-1.33,16.18.46,22.55,6.61,6.28,6.06,9.25,13.59,10.12,22.14,1.06,10.43-1.03,20.46-3.62,30.44-2.78,10.71-6.78,20.97-12.05,30.7-5.05,9.33-11.24,17.85-19.19,24.94-10.5,9.37-22.47,16.01-36.44,18.58-8.84,1.63-17.6,1.34-26.17-1.67-2.57-.91-4.94-2.25-7.32-3.56-2.08-1.14-2.34-1.16-4.17.42-3.15,2.7-6.36,5.32-9.68,7.81-6.91,5.18-14.52,8.55-23.11,9.76-2.24.32-4.45.32-7.03.46Z"/>
  <path class="cls-8" d="m406.2,588.65c6.02-.01,11.87,1.17,17.7,2.56,4.67,1.11,9.27,2.39,13.55,4.62,2.56,1.33,4.91,2.98,7.27,4.62,2.39,1.66,2.47,1.62,4.81-.09,5.73-4.19,11.35-8.54,17.49-12.15,5.36-3.15,11.06-5.19,17.31-5.86,8.94-.97,17.26.93,25.27,4.72.58.27,1.19.51,1.71.87,1.09.77,1.98.49,3.04-.19,4.95-3.22,9.87-6.52,15.31-8.89,3.76-1.64,7.62-2.74,11.8-2.69,8.18.11,16.99,7.29,17.13,17,.09,6.45-2.16,12.02-5.16,17.45-3.44,6.23-7.33,12.17-11.93,17.61-3.2,3.78-6.75,7.27-10.48,10.53-4.51,3.95-9.41,7.4-14.6,10.4-5.91,3.41-12.02,6.33-18.92,7.06-5.12.54-10.01-.4-14.71-2.45-4.45-1.93-8.42-4.52-11.66-8.2-1.27-1.45-1.36-1.4-2.97-.38-8.23,5.21-16.44,10.45-25.23,14.69-6.44,3.11-13.17,5.2-20.29,6.12-8.17,1.06-16.06.36-23.67-2.94-3.71-1.61-6.91-3.96-9.94-6.58-7.1-6.13-11.27-13.98-13.3-23.03-1.05-4.66-2.39-9.29-2.75-14.06-.49-6.6,1.11-12.68,5.76-17.67,1.42-1.52,2.9-2.98,4.36-4.46,4.61-4.68,10.29-7.11,16.69-8.15,2.15-.35,4.28-.42,6.44-.45Z"/>
  <path class="cls-10" d="m478.94,713.43c-10.22.64-19.72-7.37-22.53-16.01-.49-1.52-1-3.03-1.73-4.46-1.15-2.24-.99-4.67-.83-7.06.26-4.04,1.25-7.83,3.8-11.15,2.54-3.31,5.86-5.3,9.78-6.49,6.45-1.96,12.92-1.74,19.38-.2,2.51.6,4.78.43,7.19-.51,3.49-1.35,7.05-2.6,10.74-3.31,2.18-.42,4.36-.72,6.61-.28,6.8,1.31,9.34,7.88,8.5,12.49-.65,3.63-2.29,6.8-4.16,9.87-3.71,6.11-8.3,11.53-13.55,16.37-3.95,3.64-8.28,6.77-13.31,8.8-3.2,1.29-6.52,2.14-9.9,1.95Z"/>
  <path class="cls-4" d="m754.12,396.15c.33,2.84-.11,5.03-.93,7.12-3.83,9.73-7.51,19.53-12.59,28.7-2.9,5.24-6.19,10.26-10.51,14.48-1.77,1.73-3.72,3.21-6.28,3.73-3.92.8-7.7-1.85-8.02-5.81-.07-.87-.16-1.79.03-2.63.8-3.56,1.18-7.22,2.73-10.61,3.55-7.77,6.97-15.6,11.07-23.09,3.47-6.34,7.58-12.2,12.9-17.14.64-.59,1.33-1.16,2.06-1.62,4.37-2.76,9.12-.37,9.52,4.79.07.87,0,1.76,0,2.08Z"/>
  <path class="cls-3" d="m653.1,570.02c-3.88.18-7.64-.5-11.34-1.56-2.77-.8-5.1-2.29-6.44-4.98-.28-.57-.53-1.15-.61-1.81-.39-3.35,1.66-4.99,4.85-3.89,5.26,1.82,10.64,1.8,16.02.8,4.68-.88,8.49-3.64,12.26-6.3,3.83-2.7,8.21-4.23,12.32-6.34,2.07-1.07,4.24.88,4.42,2.92.13,1.46-.53,2.63-1.23,3.8-3.18,5.35-7.59,9.34-13.08,12.3-3.61,1.95-7.23,3.7-11.23,4.67-1.99.48-3.98.24-5.95.4Z"/>
  <path class="cls-3" d="m545.93,174.65c7.78.38,14.73,3.03,20.93,7.71,2.96,2.23,5.41,4.92,7.57,7.91.93,1.29,2.02,2.47,2.96,3.75.51.7,1.06,1.37,1.31,2.26.5,1.83-.62,3.35-2.53,3.37-1.28.01-2.26-.71-3.29-1.3-4.83-2.78-9.41-5.97-14.12-8.95-3.94-2.49-8.13-4.41-12.7-5.37-1.94-.41-3.91-.7-5.91-.74-.87-.01-1.74-.02-2.58-.37-2.53-1.06-3.02-4-.89-5.75,2.05-1.68,4.55-2.23,7.11-2.51.71-.08,1.43-.01,2.15-.01Z"/>
  <path class="cls-3" d="m284.46,411.95c-.72,2.87-.9,6.24-2,9.43-1.22,3.55-2.42,7.1-3.31,10.74-.55,2.25-.86,4.52-.96,6.85-.1,2.38-.28,4.77-.78,7.11-.35,1.62-1.19,2.83-2.97,2.97-1.72.13-2.83-.83-3.58-2.3-.77-1.52-1.02-3.15-1.36-4.8-1.02-4.94-.61-9.78.42-14.66,1.35-6.39,4.27-11.98,8.22-17.1.24-.32.51-.61.8-.89.94-.89,1.9-1.76,3.37-1.14,1.37.57,2.14,1.77,2.15,3.81Z"/>
  <path class="cls-3" d="m297.94,243.21c-.23-2.56.64-4.88,1.69-7.14,2.5-5.4,5.69-10.39,9.69-14.76,2.18-2.39,4.95-4.25,7.5-6.29,1.03-.83,2.24-.84,3.35-.1,1.02.67,1.5,2.1.99,3.41-1.76,4.54-3.5,9.09-6.41,13.06-3.63,4.95-7.43,9.8-10.01,15.44-.66,1.45-1.76,2.55-3.49,2.47-1.48-.07-3.05-1.92-3.29-3.7-.1-.79-.02-1.6-.02-2.39Z"/>
  <path class="cls-3" d="m273.9,568.62c-.07-1.47.08-2.86.85-4.17,1.58-2.69,4.55-2.91,6.46-.45.66.85.94,1.85,1.2,2.85.84,3.25,1.89,6.41,3.29,9.47,1.27,2.76,2.14,5.66,2.76,8.63.39,1.86.01,3.15-1.26,3.99-1.2.8-2.43.73-3.94-.49-1.94-1.57-3.45-3.57-4.71-5.68-2.6-4.36-4.37-9.03-4.65-14.16Z"/>
  <path class="cls-6" d="m568.49,175.58c.02-2.84,2.38-5.02,5.18-4.64,1.51.21,2.99.74,4.11,1.8,1.56,1.49,2.9,3.2,3.8,5.17,1.09,2.37-.68,4.72-3.24,4.27-1.72-.3-3.46-.58-5.13-1.04-3.02-.83-5-3.28-4.72-5.56Z"/>
  <path class="cls-6" d="m329.97,234.12c-1.59.15-2.56-.7-3.27-1.98-.82-1.48-.29-2.82.57-4.02.89-1.25,2.16-2.14,3.46-2.92,2.27-1.37,4.73-2.32,7.22-3.18,1.38-.47,2.44-.07,3.11.98.68,1.06.36,1.9-.41,2.79-2.2,2.54-4.36,5.11-7.17,7.01-1.06.72-2.15,1.42-3.52,1.31Z"/>
  <path class="cls-4" d="m701.37,434.53c-.08-1.61.58-3.06,1.18-4.55.84-2.11,3.97-3.32,5.8-2.56,2.33.96,3.97,3.46,3.48,5.87-.45,2.23-1.72,3.94-3.62,5.15-1.52.97-3.13,1.05-4.75.14-1.57-.89-2.16-2.27-2.09-4.05Z"/>
  <path class="cls-6" d="m296.45,562.72c1.98-.09,3.4.77,4.18,2.58.47,1.09.88,2.23,1.21,3.37.62,2.16-.78,3.93-2.99,3.61-1.65-.24-3.27-.77-4.69-1.7-1.6-1.05-2.31-3.15-1.77-4.84.67-2.1,1.88-3,4.06-3.02Z"/>
  <path class="cls-6" d="m296.95,424.22c-.09,1.58-.92,3.52-1.05,5.6-.06,1-1.46,1.5-2.48,1.14-3.11-1.13-4.77-7.67-2.53-10.14.88-.96,1.89-1.72,3.36-1.18,1.72.64,2.69,2.05,2.71,4.58Z"/>
  <path class="cls-6" d="m358.01,211.59c1.47-.25,2.71.31,3.65,1.56,1,1.34.58,2.57-1.03,2.7-1,.08-1.84.34-2.65.89-.67.45-1.44.63-2.27.6-1.18-.04-1.95-.72-2.4-1.69-.48-1.04-.17-1.99.64-2.82,1.11-1.12,2.48-1.34,4.05-1.24Z"/>
</svg>