<?xml version="1.0" encoding="UTF-8"?>
<svg id="_图层_1" data-name="图层 1" xmlns="http://www.w3.org/2000/svg" viewBox="0 0 960 960">
  <defs>
    <style>
      .cls-1 {
        fill: #444794;
      }

      .cls-1, .cls-2, .cls-3, .cls-4, .cls-5, .cls-6, .cls-7, .cls-8, .cls-9, .cls-10, .cls-11, .cls-12 {
        stroke-width: 0px;
      }

      .cls-2 {
        fill: #b5ccff;
      }

      .cls-3 {
        fill: #454897;
      }

      .cls-4 {
        fill: #b4ccff;
      }

      .cls-5 {
        fill: #030304;
      }

      .cls-6 {
        fill: #434692;
      }

      .cls-7 {
        fill: #b7ceff;
      }

      .cls-8 {
        fill: #b1c9fa;
      }

      .cls-9 {
        fill: #454795;
      }

      .cls-10 {
        fill: #b6cdff;
      }

      .cls-11 {
        fill: #434794;
      }

      .cls-12 {
        fill: #5a7dff;
      }
    </style>
  </defs>
  <path class="cls-5" d="m794.15,480.38c.35,1.22,1.06,2.2,1.65,3.23,8.97,15.78,17.26,31.9,23.88,48.83,4.72,12.06,9.12,24.23,11.97,36.9,1.55,6.88,2.66,13.82,2.59,20.9-.03,2.97-.35,5.9-1.14,8.77-3.09,11.17-11.73,16.41-23.05,13.98-2.11-.45-4.16-1.12-6.18-1.9-.49-.19-.94-.56-1.64-.33,0,.82.46,1.49.74,2.2,3.86,9.59,7.07,19.36,8.57,29.63,1.13,7.74,1.35,15.45-.73,23.08-.82,3.03-1.99,5.9-3.75,8.52-3.58,5.35-8.52,8.29-15.02,8.44-.32,0-.63.05-.89.06-.41.43-.15.79.01,1.13,5.01,10.14,7.65,20.99,9.56,32.05.83,4.81,1.52,9.64,1.43,14.54-.28,15.67-6.2,28.89-17.4,39.75-10.76,10.43-23.77,15.59-38.65,16.33-11.15.55-22.23-.22-33.18-2.31-3.89-.75-7.36-.31-10.84,1.52-12.66,6.64-26.09,11.32-39.8,15.18-10.33,2.91-20.94,4.51-31.62,5.47-8.85.8-17.54-.62-26.17-2.44-6.28-1.32-12.37-3.23-18.19-5.94-1.44-.67-2.39-.57-3.59.53-4.51,4.08-9.32,7.81-14.42,11.12-9.31,6.06-19.54,9.61-30.67,9.71-9.61.08-18.11-3.48-25.5-9.6-2.68-2.22-4.66-5.04-6.35-8.05-1.09-1.93-2.14-3.88-3.18-5.77-.72-.02-.94.47-1.24.81-4.69,5.39-10.42,9.4-16.7,12.71-9.44,4.97-19.51,7.99-30.02,9.49-27.86,3.99-54.05-1.33-78.81-14.36-1.2-.63-2.37-1.33-3.51-2.07-.76-.5-1.4-.62-2.15.02-.41.36-.95.61-1.46.81-8.87,3.42-17.72,7-27.06,8.92-13.8,2.83-27.49,2.33-40.96-2.09-7.45-2.44-14.88-4.92-21.72-8.83-1.03-.59-1.77-.29-2.65.19-3.82,2.07-7.83,3.54-12.17,4.19-7.77,1.17-14.75-.61-21.04-5.25-6.27-4.62-11.21-10.43-15.3-17.02-2.5-4.02-4.42-8.32-6.14-12.72-1.97-5.06-3.81-10.18-5.51-15.34-.61-1.83-.49-1.86-2.23-1.04-13.51,6.43-25.92,4.35-37.33-4.97-5.01-4.09-8.88-9.18-12.15-14.72-5.96-10.1-9.58-21.06-11.85-32.5-2.4-12.13-3.32-24.38-2.66-36.74.1-1.87.09-1.85-1.81-2.33-1.31-.34-2.63-.68-3.91-1.14-5.79-2.09-9.97-5.91-12.34-11.65-2.63-6.37-3.71-13.05-3.85-19.89-.26-12.86,1.41-25.49,4.04-38.06,3.6-17.24,10.02-33.5,16.35-49.81,3.15-8.13,6.91-15.99,10.7-23.83.37-.77.95-1.49.92-2.42-.56-.48-1.23-.32-1.85-.36-10.84-.79-18.06-7.23-20.09-17.93-1.24-6.56-.61-13.06.8-19.52,2.57-11.82,7.23-22.84,13-33.4,11.75-21.53,26.33-40.99,43.44-58.56.61-.62,1.38-1.08,1.86-1.45-.31-1.27-.99-1.09-1.48-1.22-2.09-.54-4.18-1.07-6.19-1.86-8.66-3.4-13.3-9.92-14.45-18.98-.7-5.5.45-10.84,2.19-16.03,3.49-10.42,8.95-19.76,15.79-28.33,8.37-10.49,17.95-19.78,28.38-28.16,10.09-8.11,20.26-16.13,31.21-23.1,4.18-2.66,8.38-5.29,12.84-7.45,1.06-.51,1.45-1.04,1.03-2.21-.27-.73-.28-1.57-.34-2.36-.56-7.33-1.21-14.66-1.63-22-.42-7.28-.16-14.55,1.18-21.74.41-2.21,1.06-4.34,1.79-6.46,2.04-5.93,6.01-9.86,11.96-11.86,4.11-1.38,8.33-2.25,12.63-2.71,4.46-.48,8.93-.53,13.41-.35,8.87.36,17.74.56,26.61.86.88.03,1.45-.14,2-.91,5.62-7.97,12.51-14.78,20.01-20.9,10.46-8.54,21.21-16.74,32.46-24.25,12.86-8.58,26.73-15.02,41.7-19,3.87-1.03,7.8-1.73,11.83-1.76,11.52-.11,19.22,6.49,20.92,17.9.69,4.65.54,9.24-.61,13.8-.11.45-.41.88-.13,1.5.87-.1,1.51-.72,2.22-1.14,20.69-12.52,42.16-23.48,64.9-31.81,11.57-4.24,23.35-7.79,35.59-9.56,9.63-1.39,19.25-1.88,28.86.23,2.58.57,5.09,1.37,7.5,2.46,10.78,4.87,16.3,14.61,15,26.37-.54,4.89-1.93,9.54-3.83,14.06-.3.73-.79,1.4-.8,2.34,1.02.39,1.99-.12,2.95-.29,19.31-3.45,38.75-5.79,58.37-6.06,14.4-.2,28.77.54,43.02,2.85,8.43,1.37,16.46,3.93,24.09,7.76,6.92,3.47,12.88,8.05,16.92,14.79,6.76,11.27,7.39,23.08,2.8,35.24-1.46,3.87-4,7.08-6.79,10.09-.86.93-1.73,1.85-2.58,2.76.42.84,1.2.93,1.81,1.23,2.29,1.13,4.6,2.24,6.93,3.29,12.98,5.85,23.74,14.68,33.4,24.96,8.34,8.89,13.48,19.35,15.09,31.47.47,3.58.57,7.16-.1,10.75-.92,4.86-3.38,8.75-7.27,11.75-4.27,3.3-9.21,5.09-14.42,6.17-2.25.47-4.53.79-6.96,1.21.2.98.91,1.53,1.43,2.18,9.3,11.68,17.49,24.08,23.35,37.84,5.41,12.71,10.5,25.57,15.39,38.5,4.36,11.54,6.33,23.61,6.22,35.96-.07,7.37-.84,14.69-3.46,21.68-3.7,9.91-10.05,17.53-19.42,22.56-2.11,1.13-4.23,2.23-6.36,3.35Zm-210.83-353.58c-4.62-.66-9.25-.37-13.85.07-10.68,1.03-21.1,3.4-31.38,6.41-5.43,1.59-10.88,3.12-16.03,5.52-.41-.13-.78.02-1.15.16-10.18,3.78-20.14,8.06-29.89,12.83-10.69,5.23-21,11.14-31.26,17.14-5.92,3.47-11.78,7.03-17.83,10.27-1.66.89-3.34,1.51-5.26,1.1-1.48-1.89-1.54-2.98-.16-4.75.57-.73,1.28-1.35,1.92-2.03.26-.02.4-.16.44-.41.18-.17.36-.34.53-.5.28-.02.43-.17.46-.44.32-.33.65-.66.97-.98,1.96-.93,3.4-2.57,5.16-3.79.39-.27.69-.66.73-1.18.15-2.05.74-4.04.66-6.11,1.62-6.17,2.22-12.36.2-18.57-.85-2.81-2.55-4.22-5.5-4.41-3.05-.2-6.06.1-9.03.83-13.87,3.42-26.71,9.27-38.56,17.14-12.91,8.57-25.27,17.92-37.02,28.03-1.91,1.64-3.94,3.23-5.28,5.45-1.8,1.21-3.28,2.77-4.81,4.27-2.28,2.24-4.49,4.56-6.75,6.81-1.58,1.57-3.42,2.55-5.74,2.57-10.31.07-20.62.17-30.93.28-1.83.02-3.67-.11-5.47.36-4.66.1-9.2.9-13.7,2.06-3.01.78-4.77,2.58-5.6,5.58-1.7,6.15-2.1,12.41-1.81,18.74-.25,1.92-.02,3.83.11,5.74.42,6.3,1.05,12.59,1.2,18.91.03,1.44-.04,2.87-.38,4.28-.46,1.94-1.59,3.42-3.38,4.09-3.58,1.34-6.58,3.6-9.66,5.73-11.69,8.13-23.02,16.73-33.86,25.97-10.63,9.06-20.39,18.93-28.4,30.42-5.65,8.1-10.41,16.67-13.57,26.08-.97,2.89-1.64,5.86-1.76,8.91-.21,5.5,2.36,9.22,7.5,10.91,1.36.45,2.78.74,4.17,1.11,2.47.66,5.1.82,7.4,1.96,1.52.75,2.44.38,3.58-.59,2.94-2.47,6.02-4.76,9.22-6.88,1.13-.75,2.29-1.45,3.59-1.91.86-.31,1.76-.56,2.46.19.74.79.28,1.67-.14,2.44-.94,1.7-2.29,3.07-3.59,4.48-6.14,6.63-12.2,13.33-18.1,20.18-17.4,20.19-32.95,41.6-44.07,65.99-.53,1.17-.91,2.34-1.17,3.58-.6.23-.75.81-.96,1.31-2.56,6.21-4.87,12.51-6.18,19.12-.89,4.46-1.59,8.97-.75,13.54.97,5.29,3.14,7.73,7.9,8.14,3.11.27,6.18-.35,9.27-.45.11,0,.22-.21.33-.32.59-.28.99-.78,1.43-1.25,1.04-1.12,2.14-2.15,3.61-2.68,1.44-.52,2.83-.48,4.03.58,1.2,1.06,1.48,2.45,1.04,3.92-.32,1.06-.84,2.06-1.27,3.08-.65,1.53-1.67,2.91-1.88,4.62-.4.18-.53.58-.69.94-3.21,7.4-6.45,14.8-10.02,22.04-1.31,2.65-2.52,5.36-3.55,8.12-6.55,17.61-12.24,35.48-16.27,53.85-2.56,11.68-3.92,23.46-3.6,35.42.11,4.26.82,8.42,2.06,12.49,1.04,3.43,3,5.95,6.69,6.82,1.93.45,1.96.51,2.4-1.44,1.05-4.69,2.52-9.24,4.32-13.7.36-.89.75-1.77,1.42-2.48.84-.91,1.74-1.62,3.13-1.28,1.37.33,1.89,1.34,2.29,2.52.23.7.25,1.42.22,2.13-.09,1.83-.27,3.67-.29,5.5-.08,8.23-.64,16.45-.69,24.68-.07,9.93.33,19.8,2.02,29.6,1.84,10.69,4.78,21.03,10.01,30.61,2.86,5.23,6.33,9.98,11.03,13.73,4.13,3.3,8.75,5.28,14.12,5.05,3.75-.16,7.21-1.4,10.4-3.31,1.8-1.07,3.73-1.8,5.66-2.55,1.87-.72,3.42-.27,4.81,1.09.82.81,1.35,1.78,1.78,2.82,1.49,3.62,3.01,7.23,4.39,10.89,2.45,6.51,4.92,13,8.18,19.17,3.51,6.63,8.42,11.96,14.47,16.37,6.19,4.52,12.57,4.44,19.23,1.39,1.38-.63,2.69-1.43,4.08-2.03,2.69-1.16,5.29-1.04,7.66.86.5.4.97.8,1.61.99,6.96,2.1,13.69,4.9,20.7,6.86,8.03,2.25,16.11,4.09,24.53,3.55,1.35-.09,2.7-.29,4.06-.34,6.19-.22,12.16-1.57,18.09-3.32,5.29-1.57,10.47-3.44,15.74-5.04,2.01-.61,3.9-.58,5.82.32,3.11,1.46,6.24,2.87,9.37,4.28,9.92,4.48,20.05,8.34,30.74,10.61,11.86,2.53,23.79,3.8,35.92,2.72,6.97-.62,13.72-2.06,20.29-4.45,10.12-3.68,18.34-9.92,25.03-18.29,1.76-2.19,3.07-4.67,4.74-6.91,1.58-2.12,3.7-3.34,6.42-2.88,3.18.54,5.1,3,5.09,6.29,0,1.34-.4,2.72.28,4.01,2.16,4.1,4.38,8.18,7.58,11.6,3.28,3.52,7.58,5.24,12.03,6.65,2.98.95,6.05,1.66,9.19,1.34,7.97-.82,15.51-3.22,22.43-7.19,6.86-3.94,13.31-8.54,19.08-14.02,2.01-1.91,4.4-2.53,7.08-1.91,1.09.25,2.17.56,3.21.95,2.78,1.02,5.5,2.18,8.3,3.11,8.07,2.69,16.37,4.27,24.85,4.82,8.62.56,17.01-1.26,25.44-2.61,11.58-1.86,22.51-6.03,33.47-9.97,5.87-2.11,11.38-5.09,17.02-7.74,4.52-2.13,9.16-3.09,14.18-2.14,7.14,1.34,14.34,2.18,21.63,2.53,5.86.28,11.66.16,17.43-.69,11.74-1.72,21.11-7.68,28.37-16.83,7.38-9.31,10.31-19.98,8.79-31.89-1.16-9.15-3.05-18.1-5.99-26.83-3.4-10.12-9.31-18.51-17.66-25.15-3.19-2.54-6.48-4.94-9.72-7.41-1.5-1.14-2.65-2.53-3.21-4.37-1.04-3.39,1.26-6.73,4.79-7.05,2.14-.19,3.91.65,5.6,1.76,2.87,1.89,5.75,3.77,8.56,5.74,3.53,2.48,7.08,5.04,9.78,8.42,1.9,2.38,4.16,3.44,7.04,3.98,3.87.73,7.69-1.15,9.56-4.41,1.65-2.88,2.68-5.98,3.12-9.25.9-6.61.84-13.22.08-19.84-1.2-10.48-3.88-20.54-8.24-30.15-1.22-2.69-2.59-5.32-3.79-8.02-1.18-2.64-.36-5.28,1.96-6.38,1.6-.76,3.29-.61,4.88.08,1.47.63,2.88,1.4,4.33,2.07,3.7,1.72,7.42,3.33,11.51,3.98,4.89.78,8.04-1.13,9.42-5.9.92-3.16,1.33-6.41,1.4-9.69.11-5.46-.62-10.84-1.61-16.18-2.27-12.22-6.02-24-10.5-35.57-3.81-9.84-7.86-19.57-12.27-29.16-4.14-9-8.04-18.12-13.18-26.63-.58-.96-.94-2.06-.5-3.21.98-2.58,2.25-4.98,4.75-6.42,1.73-1,3.5-1.92,5.26-2.87,5.43-2.94,9.54-7.1,12.27-12.71,2.55-5.22,3.43-10.79,3.8-16.46.31-4.78.25-9.58-.39-14.36-.84-6.26-1.72-12.52-3.73-18.52-3.61-10.76-7.49-21.42-11-32.21-3.4-10.45-7.43-20.58-13.15-30-4.4-7.25-9-14.35-14.35-20.94-1.47-1.81-3.16-3.39-4.75-5.08-.84-.88-1.6-1.84-1.41-3.17.54-3.79,3.71-6.67,7.58-6.77,2.48-.06,4.95-.14,7.42-.38,4.49-.43,8.84-1.38,12.8-3.67,2.04-1.18,3.49-2.84,3.74-5.26.24-2.39.24-4.81-.16-7.18-1.18-7.05-3.82-13.52-8.13-19.24-2.25-2.99-4.64-5.88-7.71-8.12-.29-.87-.95-1.46-1.59-2.05-1.81-1.68-3.63-3.35-5.46-5.02-5.31-4.83-11.12-8.97-17.54-12.21-.5-.89-1.44-1.23-2.26-1.68-6.14-3.42-12.25-6.88-18.73-9.65-2.86-1.22-5.67-2.57-8.36-4.15-3.36-1.98-6.63-4.19-10.54-5.02-.23-.05-.44-.18-.65-.3-1.77-1.03-1.92-2.83-.33-4.11,1.03-.83,2.27-1.11,3.57-1.2,3.38-.25,6.43.93,9.49,2.13,2.97,1.16,5.96,2.29,8.93,3.45,1.16.46,2.09.36,2.98-.66,1.15-1.32,2.49-2.48,3.7-3.75,3.11-3.26,5.84-6.69,6.88-11.28,1.68-7.39.84-14.32-3.4-20.63-4.65-6.93-11.79-10.24-19.39-12.76-1.15-.52-2.27-1.1-3.51-1.43-3.09-.83-6.21-1.51-9.36-2.03-11.54-1.92-23.19-2.52-34.86-2.64-17.84-.19-35.61,1.1-53.31,3.28-3.88.48-7.8.72-11.56,1.93-.45-.23-.93-.19-1.41-.11-5.68.93-11.24,2.34-16.64,4.33-2.92,1.07-5.81,2.24-8.7,3.38-2.53,1-5.16,1.65-7.83,2.15-1.34.25-2.56,0-3.36-1.25-.66-1.03-.5-2.29.58-3.5.68-.77,1.51-1.43,2.35-2.02,3.53-2.48,7.1-4.93,11.03-6.72,2.66-1.21,4.84-2.66,5.76-5.56.09-.29.34-.54.5-.81,3.43-5.72,6.24-11.67,7.35-18.33,1.07-6.42-1.39-11.32-7.24-14.11-3.43-1.63-7.08-2.37-10.86-2.57Z"/>
  <path class="cls-12" d="m158.53,460.85c.25-1.24.63-2.4,1.17-3.58,11.12-24.39,26.67-45.8,44.07-65.99,5.9-6.84,11.96-13.55,18.1-20.18,1.3-1.41,2.66-2.78,3.59-4.48.43-.77.88-1.65.14-2.44-.7-.75-1.6-.5-2.46-.19-1.29.46-2.45,1.16-3.59,1.91-3.2,2.12-6.28,4.41-9.22,6.88-1.14.96-2.06,1.34-3.58.59-2.29-1.13-4.93-1.3-7.4-1.96-1.39-.37-2.8-.66-4.17-1.11-5.14-1.69-7.71-5.41-7.5-10.91.12-3.05.79-6.02,1.76-8.91,3.16-9.4,7.92-17.98,13.57-26.08,8.02-11.49,17.78-21.36,28.4-30.42,10.84-9.24,22.17-17.84,33.86-25.97,3.07-2.14,6.07-4.4,9.66-5.73,1.79-.67,2.92-2.15,3.38-4.09.34-1.42.42-2.84.38-4.28-.15-6.32-.78-12.61-1.2-18.91-.13-1.91-.36-3.82-.11-5.74.18-.16.39-.29.53-.48,5.63-7.71,11.75-15.04,17.96-22.29.95-1.11,2.31-2.01,2.62-3.61,1.8-.48,3.65-.34,5.47-.36,10.31-.11,20.62-.21,30.93-.28,2.32-.02,4.16-1,5.74-2.57,2.27-2.25,4.48-4.57,6.75-6.81,1.53-1.51,3.02-3.07,4.81-4.28.5.07.95-.09,1.36-.36,3.18-2.15,6.51-4.05,9.84-5.94,8.2-4.64,16.33-9.42,24.66-13.82,9.96-5.27,20.52-9.25,30.95-13.48,6.74-2.73,13.5-5.38,19.97-8.71,2.91-1.5,5.6-3.4,8.6-4.74,2.01,6.21,1.41,12.4-.2,18.57-1.93,2.02-2.81,4.69-4.29,6.99-.83,1.3-2.08,2.41-2.26,4.08-.32.33-.65.66-.97.98-.27.03-.42.18-.46.44-.18.17-.36.34-.53.5-.26.02-.4.15-.44.41-.64.67-1.35,1.3-1.92,2.03-1.38,1.77-1.32,2.87.16,4.75.82,2.91,3.32,4.41,6.18,3.63,3.25-.89,6.2-2.53,9.19-4,4.15-2.04,8.04-4.56,11.95-7.03,6.95-4.39,14.24-8.18,21.39-12.22,10.62-6,21.11-12.23,31.61-18.44,1.75-1.03,3.75-1.75,5.07-3.44,5.15-2.4,10.6-3.93,16.03-5.52,10.28-3.01,20.7-5.38,31.38-6.41,4.61-.44,9.23-.73,13.85-.07.05.56.08,1.12.17,1.67,1.1,6.97.28,13.62-2.79,20.05-3.45,7.23-8.3,13.43-13.74,19.19-4.55,4.82-9.33,9.43-13.98,14.16-2.53,2.57-5.31,4.83-8.41,6.69-2.78,1.67-2.9,4.28-2.2,6.2.83,2.28,3.16,3.24,5.96,2.51,6.95-1.79,13.8-3.93,20.64-6.12,14.5-4.64,28.25-10.99,41.65-18.14.48-.25,1.08-.41,1.16-1.09,3.76-1.21,7.69-1.45,11.56-1.93,17.7-2.18,35.47-3.47,53.31-3.28,11.67.12,23.32.72,34.86,2.64,3.15.53,6.27,1.2,9.36,2.03,1.24.33,2.36.91,3.51,1.43-.51,3.17-1.42,6.21-2.99,9.03-3.58,6.47-8.86,11.27-15.1,15.04-8.17,4.94-16.93,8.66-25.95,11.67-11.96,3.99-24.24,6.86-36.5,9.77-2.09.5-4.26.88-6.21,1.72-2.69,1.16-3.69,2.82-3.44,5.39.22,2.23,1.54,3.75,4.07,4.38,1.47.36,2.95.73,4.45.87,6.34.59,12.68,1.3,19.02,1.86,6.75.59,13.52,1.12,20.31,1.06,7.99-.08,15.96.68,23.95.56.24,0,.48,0,.72.02,5.64.46,11.28.87,16.91,1.4,3.17.3,6.34.68,9.48,1.21,6.01,1,11.72,3.03,17.36,5.28.64.25,1.24.82,2.01.38,6.42,3.24,12.22,7.38,17.54,12.21,1.83,1.66,3.65,3.34,5.46,5.02.64.59,1.31,1.18,1.59,2.05-.45.38-.64.89-.82,1.43-3.08,8.94-8.62,15.92-16.58,21.03-5.45,3.51-11.19,6.5-16.97,9.39-1.36.68-2.72,1.38-3.91,2.32-3.19,2.53-3.13,6.52.13,8.94,1.48,1.1,3.13,1.92,4.83,2.63,2.65,1.1,5.29,2.24,7.94,3.36,4.1,1.73,7.73,4.1,10.74,7.44,1.6,1.78,3.22,3.55,4.75,5.39,3.08,3.7,5.7,7.7,7.76,12.05,4.47,9.47,6.68,19.6,8.49,29.83.94,5.34,1.36,10.75,2.05,16.12.74,5.7,1.31,11.4,1.33,17.15,0,1.76-.09,3.53.1,5.27.83,7.77.37,15.44-1.46,23.04-1.65,6.85-4.11,13.43-6.79,19.92-2.86,6.94-7.48,12.39-14.11,16.07-1.18.66-2.33,1.42-3.37,2.28-3.12,2.61-2.95,6.87.41,9.18,2.3,1.59,4.7,3.02,7.08,4.49,4,2.47,8.28,4.52,11.98,7.47,3,2.39,6.06,4.73,7.57,8.47,2.18,5.41,4.06,10.93,5.29,16.63,1.28,5.92,2.11,11.9,2.54,17.97.49,7.04.69,14.03-.62,20.98-1,5.33-2.05,10.66-4.13,15.71-2.34,5.71-6.45,8.42-12.63,8.42-1.44,0-2.88-.05-4.32.04-3.29.22-6.12,2.71-6.67,5.9-.27,1.57-.4,3.17-.47,4.76-.17,3.99-.06,7.97-.45,11.96-.48,4.88-1.32,9.65-3.06,14.22-1.38,3.62-3.11,7.07-6.95,8.76-1.53.68-3.08,1.32-4.67,1.85-4.39,1.46-8.85,2.74-13.2,4.31-4.23,1.52-8.13,3.68-11.47,6.79-2.46,2.29-4.66,4.8-6.8,7.38-4.6,5.54-8.85,11.32-12.5,17.53-5.51,9.36-11.25,18.57-17.49,27.47-3.51,5.01-7.61,9.44-12.41,13.22-4.28,3.37-9,5.39-14.61,4.93-2.78-.23-5.57-.15-8.36-.39-10.16-.85-20.04.48-29.66,3.97-7.87,2.85-15.06,6.94-22.06,11.45-7.22,4.65-13.57,10.36-19.83,16.16-6.45,5.97-13.27,11.49-20.06,17.05-6.21,5.08-12.96,9.31-20.31,12.55-2.72,1.2-5.52,2.2-8.55,1.85-3.99-.46-7.77-1.75-11.49-3.23-6.98-2.77-14.06-5.21-21.4-6.89-4.41-1.01-8.84-1.17-13.3-.31-3.79.73-7.37,2.09-10.84,3.73-4.92,2.32-9.48,5.28-14.02,8.27-5.13,3.37-10.03,7.1-15.76,9.52-7.62,3.22-15.49,4.03-23.44,2.17-8.83-2.06-16.58-6.6-23.88-11.86-3.18-2.28-5.93-5.09-8.85-7.69-4.11-3.66-8.32-7.21-12.54-10.74-2.33-1.94-4.49-4.08-7.06-5.72-3.62-2.3-7.47-3.16-11.65-1.86-4.19,1.31-8.33,2.78-12.39,4.46-4.72,1.95-9.39,4.01-14.31,5.45-4.98,1.45-9.99,2.81-14.85,4.63-7.62,2.85-15.15,5.95-23.07,7.96-4.96,1.26-9.89,2.47-15.07,2.31-7.59-.23-14.12-2.83-19.65-8.1-6.32-6.03-11.13-13.11-15.14-20.82-3.94-7.58-7.98-15.12-12.44-22.41-2.17-3.54-4.51-6.96-7.59-9.83-5.09-4.73-12.74-5.5-18.6-1.82-2.38,1.5-4.46,3.36-6.48,5.29-1.33,1.28-2.74,2.46-4.29,3.44-1.97,1.24-2.2,1.13-3.3-.84-2.12-3.81-3.26-7.98-4.32-12.15-1.6-6.26-2.62-12.62-3.47-19.03-.81-6.08-1.52-12.17-2.19-18.26-.66-6.02-1.14-12.06-1.46-18.11-.41-7.73-.96-15.43-2.02-23.1-.47-3.4-.94-6.8-2.7-9.86-2-3.45-5.59-4.96-9.4-3.86-1.15.33-2.27.78-3.42,1.11-.49.14-1,.6-1.57.13-.52-1.43-.64-2.93-.69-4.45-.24-7.36.43-14.65,1.4-21.94,1.05-7.91,2.44-15.75,4.17-23.53,2.51-11.28,5.25-22.51,7.24-33.9.74-4.26.86-8.57.67-12.89-.02-.48-.04-.97-.5-1.28.21-1.71,1.24-3.09,1.88-4.62.43-1.02.96-2.02,1.27-3.08.44-1.47.16-2.86-1.04-3.92-1.2-1.06-2.59-1.1-4.03-.58-1.47.53-2.57,1.56-3.61,2.68-.43.47-.83.97-1.43,1.25-.22-.09-.45-.28-.66-.25-1.92.23-2.98-.82-4.1-2.24-4.52-5.72-6-12.43-6.44-19.43-.37-5.83.83-11.57,1.63-17.33.1-.72.32-1.4-.03-2.1Zm306.67,52.48c-2.39-4.96-5.99-8.61-10.33-11.38-9.32-5.95-19.5-7.53-30.28-5.15-4.78,1.05-9.37,2.64-13.7,4.95-1.55.83-1.57.77-2.59-.75-.89-1.32-1.81-2.62-2.96-3.75-4.96-4.88-11.08-7.39-17.75-8.84-2.45-.53-4.93-.71-7.38-.37-8.57,1.17-16.01,4.68-22.11,10.92-3.14,3.21-5.9,6.7-8.2,10.56-7.19,12.06-11.15,24.95-10.29,39.15.35,5.77,1.76,11.19,4.72,16.15,2.53,4.24,6.13,7.28,10.77,9.1,5.78,2.27,11.69,2.28,17.65,1.07,6.32-1.29,12.12-3.95,17.73-7.05,1.54-.85,3.13-1.61,4.68-2.42.65-.34,1.07-.15,1.29.52.15.45.25.92.37,1.38,2.13,7.62,6.59,13.67,12.94,18.19,9.32,6.62,19.76,8.07,30.81,5.81,14.83-3.04,27.73-9.86,38.95-19.95,1.28-1.15,2.66-2.21,3.94-3.26.76.39.74,1.03.9,1.52,1.17,3.43,2.89,6.55,5.01,9.48,3.35,4.63,7.58,8.27,12.69,10.7,8.23,3.91,16.97,4.81,25.93,3.49,9.55-1.41,18.25-5.21,26.46-10.11,9.99-5.96,18.19-14.04,25.61-22.87,7.16-8.51,13.31-17.73,17.8-27.99,2.79-6.38,5.3-12.84,6.86-19.63,1.25-5.48,1.8-11.02.7-16.61-1.09-5.54-4.13-9.83-8.68-13.02-5.63-3.95-12.07-4.53-18.6-3.69-7.31.94-13.96,3.9-20.16,7.82-6.34,4.01-11.62,9.2-16.51,14.83-.51.59-.92,1.31-1.97,1.55-1.84-3.46-4.35-6.43-7.26-9.06-3.11-2.81-6.58-5.01-10.62-6.29-5.19-1.65-10.37-1.38-15.56-.12-8.4,2.04-16.05,5.77-23.28,10.4-5.47,3.5-10.3,7.8-14.86,12.4-.77.78-1.46,1.68-2.71,2.34Zm25.58,166.54c5.67.24,11.21-1.22,16.56-3.44,5.63-2.33,11.06-5.06,15.55-9.29,5.3-4.99,10.37-10.19,14.67-16.09,4.78-6.57,8.75-13.56,10.55-21.58,1.53-6.81.8-13.35-2.95-19.35-2.49-3.98-6.3-6.11-10.9-6.56-5.06-.49-10.03.2-14.86,1.86-2.88.99-5.66,2.18-8.27,3.76-1.03.63-1.85.62-2.74-.33-1.61-1.72-3.69-2.78-5.82-3.72-7.9-3.49-15.84-3.01-23.77-.15-5,1.81-9.54,4.46-13.56,7.96-1.12.98-1.35.93-2.27-.29-2-2.67-4.53-4.66-7.49-6.21-5.78-3.04-11.9-4.97-18.28-6.27-7.42-1.5-14.72-1.21-22.02.78-4.7,1.28-9.31,2.83-13.94,4.34-2.05.67-1.75.96-3.02-1.03-3.81-5.94-9.63-7.92-16.26-7.81-4.55.07-8.45,2.11-11.82,5.17-5.46,4.96-9.59,10.92-12.77,17.51-3.89,8.07-5.67,16.54-4.33,25.56,1.15,7.73,3.79,14.67,9.69,20.05,6.56,5.99,14.42,8.43,23.16,7.75,6.9-.54,13.4-2.8,19.74-5.5,3.52-1.5,7.07-2.95,10.7-4.21,1.26-.43,2.2-.35,3.25.63,8,7.46,17.52,9.63,28.13,7.96,5.18-.81,9.98-2.76,14.76-4.79,2.43-1.03,2.44-1.02,3.59,1.21,1.66,3.21,4.13,5.68,7.17,7.54,5.32,3.23,11.12,4.73,17.55,4.53Zm-61.14.86c-3.58-.21-7.91.45-11.8,2.73-6.82,3.98-9.99,9.35-8.23,17.35.56,2.56,1.27,5.12,1.52,7.72.73,7.39,3.79,13.58,9.73,17.98,8.28,6.13,17.74,8.49,27.84,6.33,11.82-2.52,21.46-8.95,28.77-18.53,4.21-5.51,5.41-11.79,2.76-18.52-1.83-4.64-6.91-9.7-13.44-9.38-3.39.17-6.65.74-9.85,1.74-2.03.63-3.73.42-5.27-1.13-1.02-1.02-2.28-1.74-3.56-2.39-5.53-2.8-11.42-3.94-18.47-3.9Zm58.66-482.05c2.06.17,3.43-1.24,4.84-2.32,5.14-3.94,10.64-7.32,16.3-10.42,1.37-.75,2.52-1.75,3.4-2.97,2.67-3.73,1.48-8.1-2.91-9.3-1.83-.5-3.48-.27-5.1.45-1.31.58-2.58,1.27-3.78,2.05-6.11,3.96-10.2,9.75-14.07,15.72-.56.86-1.03,1.82-1.33,2.8-.56,1.81.21,4.22,2.65,3.98Zm-244.09,236.64c.02-1.6-.72-2.45-2.23-2.62-1.17-.14-2.23.18-3.17.85-1.81,1.3-3.77,2.46-5.36,4-5.45,5.28-10.78,10.69-16.11,16.09-1.3,1.32-2.24,2.9-2.71,4.73-.34,1.32.14,2.37,1.09,3.21,1,.89,2.13,1.02,3.3.31.82-.5,1.67-.94,2.43-1.52,5.2-3.98,10.26-8.09,14.92-12.72,3.07-3.05,5.23-6.61,7.23-10.34.34-.63.66-1.29.6-1.98Zm501.31-34.32c-.27-1.56-1.08-2.63-2.53-3.25-2.12-.92-4.13-.22-6.02.57-3.68,1.53-7.25,3.33-11.09,4.46-.23.07-.44.18-.65.31-2.38,1.41-2.43,4.41-.04,5.81,1.61.94,3.33,1.28,5.26,1.02,3.45-.46,6.61-1.74,9.83-2.91,1.62-.59,2.88-1.68,4-2.96.77-.88,1.03-1.95,1.23-3.04Zm-199.54,296.54c-1.34.06-2.32.57-3.01,1.71-.84,1.38-1.05,2.88-.71,4.37.81,3.64,1.63,7.29,2.88,10.82.52,1.49,1.56,2.61,2.81,3.48,2.19,1.53,4.87.49,5.71-2.05.53-1.59.3-3.12,0-4.69-.74-3.85-1.95-7.53-3.79-11-.83-1.57-2.05-2.62-3.89-2.64Zm-313.81-231.78c-.4,2.71,3.11,4.72,5.09,3.56.68-.4,1.42-.73,2.06-1.19,2.91-2.13,5.36-4.76,7.76-7.43,1.17-1.3,1.76-3.02,2.25-4.71.2-.7.18-1.41-.08-2.11-.77-2.07-2.75-2.79-4.86-1.68-4.7,2.47-8.12,6.34-11.27,10.48-.68.89-1.08,1.96-.94,3.09Zm142.98,260.59c0,3,2.43,5.06,5.37,4.54,4.07-.71,6.91-3.29,8.98-6.56,1.51-2.39,1.18-4.27-.49-6.41-1.59-2.03-3.77-2.52-6.22-1.83-3.86,1.07-7.55,5.65-7.64,10.26Zm-128.5-403.86c-.04-.98.06-1.95-.3-2.87-1.16-2.96-2.21-5.97-4.01-8.64-.72-1.07-1.57-2.02-2.62-2.75-1.12-.77-2.36-.94-3.61-.26-1.28.69-2.11,1.66-2.04,3.22.04.79-.05,1.61.26,2.36,1.42,3.37,2.68,6.82,4.47,10.03.89,1.59,2.24,2.69,3.92,3.35,1.69.67,2.95.06,3.63-1.64.37-.92.22-1.89.29-2.8Zm-14.27,11.42c2.06,0,2.99-1.03,2.65-3.41-.28-1.96-1.21-3.62-2.51-5.06-1.6-1.77-3.36-3.4-4.81-5.3-.52-.69-1.18-1.28-2-1.67-2.43-1.14-5.07.27-5.33,2.91-.11,1.07.31,2.06.84,2.94,1.64,2.74,3.53,5.31,5.87,7.5,1.36,1.28,2.97,2.14,5.3,2.1Zm354.2-115.15c4.01.13,7.24-1.66,9.97-4.38,1.04-1.03,1.57-2.42.9-3.94-.68-1.53-1.8-2.38-3.55-2.28-1.03.06-2.08-.01-3.11.08-2.74.25-5.31,1.09-7.63,2.54-1.76,1.1-2.5,2.99-2.04,4.72.46,1.7,2.13,3.06,4.03,3.25.47.05.96,0,1.43,0Zm-326.54,251.97c.01-2.23-.91-3.67-2.63-4.21-1.61-.51-3.7.4-4.69,2.04-.54.9-.97,1.87-1.13,2.88-.44,2.74-.83,5.5-1.12,8.26-.16,1.56.66,2.34,2.2,2.52,2.01.23,3.15-.97,3.95-2.51,1.02-1.98,1.92-4.03,2.79-6.08.4-.95.73-1.95.63-2.9Zm304.12,223.96c-.19,3.26,1.48,5.83,2.99,8.44.35.61.97,1.03,1.66,1.31,1.71.7,3.25-.06,3.59-1.87.32-1.71.75-3.45.76-5.17.01-2.06-.41-4.12-1.79-5.8-1.42-1.72-3.39-2.02-5.34-.94-1.66.91-1.92,2.41-1.86,4.03Zm-163.56-499.57c0-.79.01-1.19,0-1.59-.04-.98-.54-1.69-1.46-1.97-.94-.29-1.79.06-2.3.86-1.61,2.55-3.5,4.96-4.59,7.8-.49,1.28-.57,2.7,0,3.97.51,1.14,1.54,1.95,2.81,1.96,1.3,0,2.41-.59,3.18-1.79,1.88-2.96,1.8-6.37,2.38-9.24Zm334.3,187.25c-1.03.04-2.06-.05-3.06.4-1.5.68-2.53,1.68-2.56,3.41-.02,1.73.99,2.78,2.48,3.47.59.27,1.2.39,1.85.42,2.82.12,5.12-1.18,7.17-2.86,1.44-1.18,1.01-3.14-.76-3.82-1.63-.63-3.33-1.12-5.12-1.02Zm-138.06-155.73c-.01-2.05-1.25-3.11-3.64-3.12-2.25,0-3.94,1.47-4,3.51-.06,1.9,1.68,3.59,3.7,3.66,1.44.05,4.26-1.99,3.94-4.05Z"/>
  <path class="cls-9" d="m175.09,510.46c.46.31.48.79.5,1.28.19,4.32.07,8.63-.67,12.89-1.99,11.39-4.73,22.62-7.24,33.9-1.73,7.78-3.11,15.62-4.17,23.53-.97,7.29-1.64,14.58-1.4,21.94.05,1.52.18,3.02.69,4.45.57.48,1.08.01,1.57-.13,1.15-.33,2.27-.78,3.42-1.11,3.82-1.1,7.41.41,9.4,3.86,1.76,3.05,2.23,6.46,2.7,9.86,1.06,7.66,1.61,15.37,2.02,23.1.32,6.05.8,12.09,1.46,18.11.67,6.09,1.38,12.18,2.19,18.26.85,6.41,1.87,12.77,3.47,19.03,1.07,4.18,2.2,8.34,4.32,12.15,1.1,1.97,1.33,2.08,3.3.84,1.55-.98,2.96-2.16,4.29-3.44,2.02-1.93,4.1-3.79,6.48-5.29,5.86-3.68,13.52-2.9,18.6,1.82,3.08,2.86,5.43,6.28,7.59,9.83,4.46,7.29,8.5,14.83,12.44,22.41,4.01,7.71,8.82,14.79,15.14,20.82,5.53,5.27,12.06,7.87,19.65,8.1,5.18.16,10.12-1.05,15.07-2.31,7.92-2.01,15.45-5.11,23.07-7.96,4.86-1.82,9.88-3.18,14.85-4.63,4.92-1.43,9.59-3.5,14.31-5.45,4.06-1.68,8.2-3.15,12.39-4.46,4.18-1.3,8.02-.44,11.65,1.86,2.58,1.64,4.74,3.78,7.06,5.72,4.23,3.52,8.43,7.08,12.54,10.74,2.92,2.6,5.67,5.41,8.85,7.69,7.31,5.25,15.06,9.79,23.88,11.86,7.95,1.86,15.82,1.05,23.44-2.17,5.73-2.42,10.63-6.15,15.76-9.52,4.54-2.98,9.1-5.94,14.02-8.27,3.47-1.64,7.05-2.99,10.84-3.73,4.45-.86,8.88-.7,13.3.31,7.33,1.68,14.42,4.12,21.4,6.89,3.72,1.48,7.5,2.77,11.49,3.23,3.03.35,5.84-.65,8.55-1.85,7.34-3.25,14.1-7.48,20.31-12.55,6.79-5.55,13.61-11.08,20.06-17.05,6.26-5.8,12.62-11.51,19.83-16.16,7-4.51,14.18-8.6,22.06-11.45,9.62-3.49,19.51-4.82,29.66-3.97,2.79.23,5.59.16,8.36.39,5.61.47,10.32-1.55,14.61-4.93,4.8-3.78,8.89-8.21,12.41-13.22,6.24-8.9,11.98-18.11,17.49-27.47,3.65-6.2,7.9-11.99,12.5-17.53,2.14-2.58,4.34-5.08,6.8-7.38,3.34-3.12,7.23-5.27,11.47-6.79,4.35-1.57,8.81-2.84,13.2-4.31,1.59-.53,3.14-1.18,4.67-1.85,3.84-1.7,5.58-5.14,6.95-8.76,1.74-4.57,2.58-9.34,3.06-14.22.39-3.99.28-7.98.45-11.96.07-1.59.2-3.19.47-4.76.55-3.19,3.38-5.68,6.67-5.9,1.43-.1,2.88-.04,4.32-.04,6.18,0,10.29-2.72,12.63-8.42,2.07-5.05,3.12-10.38,4.13-15.71,1.31-6.95,1.12-13.95.62-20.98-.42-6.07-1.25-12.05-2.54-17.97-1.24-5.71-3.11-11.22-5.29-16.63-1.51-3.75-4.57-6.08-7.57-8.47-3.7-2.95-7.98-4.99-11.98-7.47-2.38-1.47-4.78-2.9-7.08-4.49-3.35-2.31-3.53-6.57-.41-9.18,1.04-.87,2.18-1.63,3.37-2.28,6.62-3.68,11.25-9.13,14.11-16.07,2.68-6.49,5.14-13.07,6.79-19.92,1.83-7.6,2.3-15.27,1.46-23.04-.19-1.74-.09-3.51-.1-5.27-.02-5.75-.59-11.45-1.33-17.15-.7-5.37-1.11-10.78-2.05-16.12-1.81-10.23-4.02-20.36-8.49-29.83-2.06-4.35-4.68-8.36-7.76-12.05-1.53-1.84-3.15-3.61-4.75-5.39-3.01-3.34-6.64-5.71-10.74-7.44-2.65-1.12-5.29-2.26-7.94-3.36-1.7-.71-3.35-1.53-4.83-2.63-3.27-2.42-3.33-6.41-.13-8.94,1.19-.94,2.55-1.64,3.91-2.32,5.79-2.9,11.52-5.89,16.97-9.39,7.95-5.11,13.5-12.09,16.58-21.03.19-.54.37-1.06.82-1.43,3.07,2.23,5.45,5.12,7.71,8.12,4.31,5.73,6.95,12.19,8.13,19.24.4,2.37.4,4.79.16,7.18-.25,2.42-1.69,4.07-3.74,5.26-3.96,2.29-8.31,3.24-12.8,3.67-2.46.24-4.94.32-7.42.38-3.88.09-7.04,2.98-7.58,6.77-.19,1.33.57,2.28,1.41,3.17,1.59,1.68,3.28,3.27,4.75,5.08,5.35,6.59,9.95,13.69,14.35,20.94,5.72,9.42,9.76,19.55,13.15,30,3.51,10.79,7.4,21.45,11,32.21,2.01,6,2.89,12.26,3.73,18.52.64,4.78.7,9.57.39,14.36-.37,5.67-1.25,11.24-3.8,16.46-2.73,5.6-6.84,9.77-12.27,12.71-1.76.95-3.53,1.87-5.26,2.87-2.5,1.45-3.77,3.84-4.75,6.42-.44,1.15-.08,2.24.5,3.21,5.14,8.51,9.04,17.63,13.18,26.63,4.4,9.58,8.46,19.32,12.27,29.16,4.48,11.57,8.23,23.35,10.5,35.57.99,5.34,1.72,10.73,1.61,16.18-.06,3.28-.47,6.53-1.4,9.69-1.39,4.77-4.53,6.68-9.42,5.9-4.08-.65-7.81-2.26-11.51-3.98-1.45-.67-2.86-1.44-4.33-2.07-1.6-.69-3.29-.84-4.88-.08-2.33,1.1-3.14,3.74-1.96,6.38,1.2,2.7,2.57,5.33,3.79,8.02,4.36,9.61,7.04,19.67,8.24,30.15.76,6.62.81,13.23-.08,19.84-.45,3.28-1.47,6.37-3.12,9.25-1.86,3.26-5.68,5.14-9.56,4.41-2.88-.55-5.14-1.6-7.04-3.98-2.7-3.38-6.25-5.94-9.78-8.42-2.81-1.98-5.69-3.86-8.56-5.74-1.69-1.11-3.47-1.95-5.6-1.76-3.54.32-5.83,3.66-4.79,7.05.56,1.83,1.71,3.23,3.21,4.37,3.24,2.47,6.53,4.87,9.72,7.41,8.35,6.64,14.26,15.03,17.66,25.15,2.94,8.73,4.83,17.68,5.99,26.83,1.51,11.91-1.41,22.59-8.79,31.89-7.26,9.15-16.62,15.11-28.37,16.83-5.78.85-11.58.97-17.43.69-7.28-.35-14.48-1.18-21.63-2.53-5.02-.94-9.66.02-14.18,2.14-5.64,2.65-11.14,5.63-17.02,7.74-10.97,3.94-21.89,8.11-33.47,9.97-8.43,1.35-16.82,3.18-25.44,2.61-8.48-.56-16.78-2.13-24.85-4.82-2.8-.93-5.53-2.1-8.3-3.11-1.05-.38-2.13-.7-3.21-.95-2.69-.61-5.07,0-7.08,1.91-5.77,5.47-12.22,10.07-19.08,14.02-6.92,3.98-14.46,6.38-22.43,7.19-3.14.32-6.2-.39-9.19-1.34-4.45-1.41-8.75-3.13-12.03-6.65-3.19-3.42-5.42-7.5-7.58-11.6-.68-1.29-.28-2.67-.28-4.01,0-3.29-1.91-5.75-5.09-6.29-2.72-.46-4.83.76-6.42,2.88-1.67,2.24-2.99,4.72-4.74,6.91-6.7,8.36-14.92,14.61-25.03,18.29-6.57,2.39-13.32,3.83-20.29,4.45-12.14,1.08-24.07-.19-35.92-2.72-10.69-2.28-20.82-6.13-30.74-10.61-3.13-1.42-6.26-2.82-9.37-4.28-1.92-.9-3.81-.93-5.82-.32-5.27,1.6-10.46,3.47-15.74,5.04-5.92,1.76-11.89,3.1-18.09,3.32-1.35.05-2.7.25-4.06.34-8.43.54-16.5-1.3-24.53-3.55-7.01-1.97-13.73-4.77-20.7-6.86-.64-.19-1.11-.59-1.61-.99-2.36-1.9-4.96-2.02-7.66-.86-1.39.6-2.7,1.4-4.08,2.03-6.66,3.05-13.04,3.13-19.23-1.39-6.05-4.41-10.96-9.74-14.47-16.37-3.26-6.16-5.73-12.66-8.18-19.17-1.38-3.66-2.91-7.27-4.39-10.89-.43-1.04-.96-2.01-1.78-2.82-1.39-1.37-2.94-1.82-4.81-1.09-1.93.75-3.86,1.48-5.66,2.55-3.2,1.9-6.65,3.15-10.4,3.31-5.37.22-9.99-1.76-14.12-5.05-4.7-3.75-8.18-8.5-11.03-13.73-5.23-9.58-8.17-19.91-10.01-30.61-1.69-9.8-2.09-19.67-2.02-29.6.05-8.24.61-16.45.69-24.68.02-1.83.2-3.67.29-5.5.03-.72.02-1.43-.22-2.13-.4-1.18-.92-2.19-2.29-2.52-1.39-.33-2.29.37-3.13,1.28-.67.72-1.06,1.59-1.42,2.48-1.8,4.45-3.26,9.01-4.32,13.7-.44,1.94-.47,1.89-2.4,1.44-3.69-.86-5.65-3.39-6.69-6.82-1.24-4.07-1.95-8.22-2.06-12.49-.32-11.96,1.04-23.74,3.6-35.42,4.03-18.38,9.72-36.25,16.27-53.85,1.03-2.77,2.24-5.48,3.55-8.12,3.58-7.24,6.81-14.63,10.02-22.04.16-.36.28-.75.69-.94Z"/>
  <path class="cls-9" d="m752.48,242.46c-.78.44-1.38-.12-2.01-.38-5.64-2.25-11.35-4.29-17.36-5.28-3.14-.52-6.31-.91-9.48-1.21-5.63-.53-11.27-.94-16.91-1.4-.24-.02-.48-.03-.72-.02-7.99.12-15.96-.63-23.95-.56-6.79.07-13.56-.46-20.31-1.06-6.34-.56-12.68-1.27-19.02-1.86-1.5-.14-2.98-.51-4.45-.87-2.54-.63-3.85-2.15-4.07-4.38-.25-2.58.75-4.24,3.44-5.39,1.96-.84,4.12-1.23,6.21-1.72,12.26-2.91,24.54-5.78,36.5-9.77,9.02-3.01,17.78-6.74,25.95-11.67,6.24-3.77,11.51-8.57,15.1-15.04,1.57-2.83,2.48-5.86,2.99-9.03,7.6,2.52,14.74,5.82,19.39,12.76,4.23,6.32,5.07,13.25,3.4,20.63-1.04,4.59-3.78,8.02-6.88,11.28-1.21,1.27-2.55,2.43-3.7,3.75-.89,1.03-1.82,1.12-2.98.66-2.97-1.16-5.96-2.29-8.93-3.45-3.06-1.2-6.11-2.38-9.49-2.13-1.3.1-2.54.38-3.57,1.2-1.6,1.29-1.44,3.08.33,4.11.21.12.42.25.65.3,3.92.83,7.18,3.04,10.54,5.02,2.69,1.59,5.5,2.93,8.36,4.15,6.48,2.77,12.59,6.24,18.73,9.65.82.45,1.76.79,2.26,1.68Z"/>
  <path class="cls-9" d="m611.78,171.92c-.08.69-.68.84-1.16,1.09-13.41,7.14-27.16,13.5-41.65,18.14-6.84,2.19-13.69,4.32-20.64,6.12-2.8.72-5.13-.23-5.96-2.51-.7-1.92-.58-4.53,2.2-6.2,3.1-1.86,5.87-4.12,8.41-6.69,4.66-4.72,9.43-9.34,13.98-14.16,5.44-5.76,10.29-11.96,13.74-19.19,3.06-6.43,3.89-13.08,2.79-20.05-.09-.55-.11-1.11-.17-1.67,3.77.2,7.43.94,10.86,2.57,5.86,2.79,8.32,7.7,7.24,14.11-1.11,6.65-3.93,12.61-7.35,18.33-.16.27-.41.52-.5.81-.92,2.9-3.1,4.35-5.76,5.56-3.93,1.79-7.5,4.24-11.03,6.72-.84.59-1.67,1.25-2.35,2.02-1.08,1.22-1.24,2.48-.58,3.5.8,1.25,2.02,1.5,3.36,1.25,2.67-.5,5.3-1.15,7.83-2.15,2.89-1.14,5.78-2.31,8.7-3.38,5.4-1.98,10.96-3.4,16.64-4.33.47-.08.95-.12,1.41.11Z"/>
  <path class="cls-1" d="m447.58,141.55c-3,1.33-5.69,3.24-8.6,4.74-6.47,3.33-13.23,5.98-19.97,8.71-10.43,4.23-20.99,8.21-30.95,13.48-8.33,4.4-16.46,9.18-24.66,13.82-3.34,1.89-6.66,3.79-9.84,5.94-.41.28-.85.43-1.36.36,1.34-2.22,3.37-3.81,5.28-5.45,11.75-10.11,24.11-19.46,37.02-28.03,11.85-7.87,24.68-13.72,38.56-17.14,2.97-.73,5.98-1.03,9.03-.83,2.95.19,4.65,1.59,5.5,4.41Z"/>
  <path class="cls-11" d="m522.06,138.8c-1.32,1.68-3.32,2.4-5.07,3.44-10.5,6.21-20.99,12.44-31.61,18.44-7.15,4.04-14.44,7.83-21.39,12.22-3.91,2.47-7.8,4.99-11.95,7.03-3,1.47-5.94,3.11-9.19,4-2.86.78-5.36-.72-6.18-3.63,1.92.41,3.6-.21,5.26-1.1,6.05-3.25,11.91-6.81,17.83-10.27,10.26-6.01,20.57-11.92,31.26-17.14,9.75-4.77,19.71-9.06,29.89-12.83.38-.14.74-.29,1.15-.16Z"/>
  <path class="cls-6" d="m158.53,460.85c.36.69.13,1.38.03,2.1-.8,5.75-2,11.5-1.63,17.33.44,6.99,1.92,13.71,6.44,19.43,1.12,1.42,2.18,2.47,4.1,2.24.21-.03.44.16.66.25-.11.11-.22.32-.33.33-3.09.1-6.16.72-9.27.45-4.76-.42-6.92-2.85-7.9-8.14-.84-4.58-.13-9.08.75-13.54,1.31-6.61,3.62-12.91,6.18-19.12.21-.5.35-1.08.96-1.31Z"/>
  <path class="cls-8" d="m298.49,202.89c-.31,1.61-1.67,2.5-2.62,3.61-6.21,7.25-12.32,14.57-17.96,22.29-.14.19-.35.32-.53.48-.29-6.33.11-12.59,1.81-18.74.83-3,2.59-4.8,5.6-5.58,4.5-1.16,9.04-1.97,13.7-2.06Z"/>
  <path class="cls-6" d="m440.83,171.2c.18-1.67,1.43-2.78,2.26-4.08,1.48-2.3,2.36-4.97,4.29-6.99.08,2.07-.51,4.07-.66,6.11-.04.52-.34.9-.73,1.18-1.75,1.22-3.19,2.86-5.16,3.79Z"/>
  <path class="cls-6" d="m439.4,172.62c.04-.27.19-.41.46-.44-.03.28-.18.42-.46.44Z"/>
  <path class="cls-6" d="m438.43,173.54c.04-.26.19-.39.44-.41-.04.25-.18.39-.44.41Z"/>
  <path class="cls-7" d="m465.2,513.33c1.25-.67,1.94-1.57,2.71-2.34,4.57-4.6,9.39-8.91,14.86-12.4,7.23-4.62,14.89-8.36,23.28-10.4,5.19-1.26,10.36-1.53,15.56.12,4.04,1.28,7.51,3.48,10.62,6.29,2.91,2.63,5.42,5.6,7.26,9.06,1.05-.24,1.46-.96,1.97-1.55,4.89-5.63,10.17-10.82,16.51-14.83,6.21-3.92,12.86-6.88,20.16-7.82,6.53-.84,12.98-.26,18.6,3.69,4.55,3.19,7.6,7.49,8.68,13.02,1.1,5.59.55,11.13-.7,16.61-1.55,6.79-4.07,13.26-6.86,19.63-4.49,10.26-10.64,19.47-17.8,27.99-7.42,8.83-15.62,16.91-25.61,22.87-8.21,4.9-16.91,8.7-26.46,10.11-8.96,1.32-17.71.42-25.93-3.49-5.11-2.43-9.33-6.07-12.69-10.7-2.13-2.93-3.85-6.05-5.01-9.48-.17-.49-.15-1.13-.9-1.52-1.28,1.05-2.66,2.11-3.94,3.26-11.22,10.1-24.12,16.91-38.95,19.95-11.05,2.26-21.49.82-30.81-5.81-6.36-4.52-10.82-10.57-12.94-18.19-.13-.46-.22-.93-.37-1.38-.22-.66-.64-.86-1.29-.52-1.56.81-3.14,1.57-4.68,2.42-5.62,3.09-11.41,5.76-17.73,7.05-5.96,1.21-11.87,1.2-17.65-1.07-4.64-1.82-8.24-4.86-10.77-9.1-2.96-4.96-4.37-10.37-4.72-16.15-.86-14.2,3.1-27.08,10.29-39.15,2.3-3.86,5.06-7.35,8.2-10.56,6.1-6.24,13.54-9.75,22.11-10.92,2.45-.33,4.93-.16,7.38.37,6.67,1.45,12.79,3.97,17.75,8.84,1.15,1.13,2.07,2.43,2.96,3.75,1.02,1.52,1.03,1.58,2.59.75,4.33-2.31,8.92-3.9,13.7-4.95,10.78-2.37,20.96-.79,30.28,5.15,4.34,2.77,7.94,6.42,10.33,11.38Z"/>
  <path class="cls-7" d="m490.78,679.87c-6.42.2-12.23-1.3-17.55-4.53-3.04-1.85-5.51-4.33-7.17-7.54-1.15-2.23-1.16-2.24-3.59-1.21-4.78,2.03-9.58,3.98-14.76,4.79-10.61,1.67-20.13-.5-28.13-7.96-1.05-.98-1.99-1.06-3.25-.63-3.63,1.25-7.17,2.71-10.7,4.21-6.35,2.7-12.85,4.96-19.74,5.5-8.73.68-16.59-1.75-23.16-7.75-5.89-5.38-8.54-12.33-9.69-20.05-1.34-9.02.44-17.49,4.33-25.56,3.18-6.59,7.31-12.55,12.77-17.51,3.36-3.06,7.26-5.1,11.82-5.17,6.63-.1,12.45,1.87,16.26,7.81,1.28,1.99.98,1.7,3.02,1.03,4.63-1.51,9.24-3.06,13.94-4.34,7.3-1.98,14.6-2.28,22.02-.78,6.38,1.29,12.5,3.23,18.28,6.27,2.96,1.55,5.48,3.54,7.49,6.21.92,1.22,1.14,1.27,2.27.29,4.02-3.51,8.56-6.16,13.56-7.96,7.92-2.87,15.87-3.34,23.77.15,2.13.94,4.21,2,5.82,3.72.89.94,1.7.95,2.74.33,2.6-1.58,5.39-2.77,8.27-3.76,4.83-1.66,9.8-2.35,14.86-1.86,4.6.45,8.41,2.57,10.9,6.56,3.75,5.99,4.49,12.54,2.95,19.35-1.81,8.01-5.77,15-10.55,21.58-4.29,5.9-9.37,11.11-14.67,16.09-4.49,4.23-9.92,6.96-15.55,9.29-5.35,2.22-10.88,3.68-16.56,3.44Z"/>
  <path class="cls-10" d="m429.63,680.73c7.06-.04,12.95,1.1,18.47,3.9,1.29.65,2.55,1.37,3.56,2.39,1.54,1.54,3.24,1.76,5.27,1.13,3.2-1,6.46-1.57,9.85-1.74,6.53-.33,11.61,4.73,13.44,9.38,2.65,6.73,1.45,13.01-2.76,18.52-7.32,9.58-16.95,16.01-28.77,18.53-10.11,2.15-19.56-.21-27.84-6.33-5.94-4.4-9-10.58-9.73-17.98-.26-2.6-.96-5.15-1.52-7.72-1.76-8,1.41-13.36,8.23-17.35,3.9-2.28,8.23-2.94,11.8-2.73Z"/>
  <path class="cls-2" d="m488.3,198.68c-2.44.24-3.21-2.17-2.65-3.98.3-.98.77-1.94,1.33-2.8,3.87-5.97,7.96-11.76,14.07-15.72,1.2-.78,2.47-1.47,3.78-2.05,1.62-.72,3.27-.95,5.1-.45,4.39,1.2,5.58,5.57,2.91,9.3-.88,1.22-2.03,2.22-3.4,2.97-5.67,3.11-11.16,6.48-16.3,10.42-1.41,1.08-2.78,2.48-4.84,2.32Z"/>
  <path class="cls-4" d="m244.2,435.32c.05.7-.27,1.35-.6,1.98-2,3.73-4.17,7.29-7.23,10.34-4.66,4.63-9.72,8.75-14.92,12.72-.76.58-1.61,1.03-2.43,1.52-1.17.71-2.31.58-3.3-.31-.95-.84-1.43-1.9-1.09-3.21.47-1.83,1.41-3.41,2.71-4.73,5.33-5.4,10.66-10.8,16.11-16.09,1.59-1.54,3.54-2.7,5.36-4,.93-.67,1.99-.99,3.17-.85,1.51.17,2.26,1.02,2.23,2.62Z"/>
  <path class="cls-4" d="m745.52,401c-.19,1.09-.46,2.16-1.23,3.04-1.12,1.28-2.38,2.37-4,2.96-3.22,1.16-6.38,2.45-9.83,2.91-1.93.26-3.65-.08-5.26-1.02-2.39-1.4-2.35-4.4.04-5.81.21-.12.42-.24.65-.31,3.84-1.13,7.41-2.93,11.09-4.46,1.89-.79,3.9-1.49,6.02-.57,1.44.63,2.26,1.7,2.53,3.25Z"/>
  <path class="cls-4" d="m545.98,697.54c1.84.01,3.06,1.07,3.89,2.64,1.84,3.46,3.05,7.15,3.79,11,.3,1.57.53,3.1,0,4.69-.85,2.54-3.53,3.58-5.71,2.05-1.25-.87-2.28-1.99-2.81-3.48-1.24-3.53-2.06-7.18-2.88-10.82-.33-1.49-.13-2.99.71-4.37.69-1.14,1.67-1.64,3.01-1.71Z"/>
  <path class="cls-4" d="m232.17,465.75c-.14-1.13.26-2.19.94-3.09,3.15-4.14,6.57-8.01,11.27-10.48,2.11-1.11,4.09-.39,4.86,1.68.26.7.29,1.41.08,2.11-.49,1.7-1.08,3.41-2.25,4.71-2.39,2.66-4.84,5.3-7.76,7.43-.64.47-1.37.79-2.06,1.19-1.98,1.16-5.48-.85-5.09-3.56Z"/>
  <path class="cls-3" d="m375.15,726.34c.09-4.61,3.78-9.19,7.64-10.26,2.45-.68,4.63-.2,6.22,1.83,1.67,2.14,2.01,4.02.49,6.41-2.07,3.27-4.91,5.85-8.98,6.56-2.94.51-5.37-1.54-5.37-4.54Z"/>
  <path class="cls-4" d="m246.65,322.48c-.07.92.08,1.88-.29,2.8-.69,1.69-1.94,2.3-3.63,1.64-1.68-.66-3.03-1.75-3.92-3.35-1.79-3.21-3.05-6.65-4.47-10.03-.32-.75-.23-1.57-.26-2.36-.08-1.56.75-2.53,2.04-3.22,1.26-.67,2.49-.51,3.61.26,1.05.73,1.9,1.67,2.62,2.75,1.8,2.67,2.85,5.68,4.01,8.64.36.92.26,1.88.3,2.87Z"/>
  <path class="cls-4" d="m232.38,333.9c-2.33.04-3.94-.82-5.3-2.1-2.34-2.19-4.22-4.76-5.87-7.5-.53-.88-.94-1.88-.84-2.94.26-2.64,2.91-4.05,5.33-2.91.82.39,1.48.98,2,1.67,1.46,1.91,3.21,3.54,4.81,5.3,1.3,1.44,2.23,3.11,2.51,5.06.34,2.38-.59,3.41-2.65,3.41Z"/>
  <path class="cls-4" d="m586.57,218.75c-.48,0-.96.04-1.43,0-1.9-.19-3.57-1.54-4.03-3.25-.47-1.73.28-3.62,2.04-4.72,2.33-1.46,4.9-2.3,7.63-2.54,1.03-.09,2.07-.02,3.11-.08,1.75-.1,2.88.75,3.55,2.28.68,1.52.14,2.91-.9,3.94-2.74,2.72-5.96,4.5-9.97,4.38Z"/>
  <path class="cls-4" d="m260.03,470.72c.11.95-.23,1.96-.63,2.9-.87,2.05-1.76,4.1-2.79,6.08-.8,1.54-1.93,2.74-3.95,2.51-1.54-.17-2.37-.96-2.2-2.52.29-2.76.68-5.52,1.12-8.26.16-1.01.59-1.98,1.13-2.88.99-1.64,3.08-2.55,4.69-2.04,1.72.54,2.64,1.98,2.63,4.21Z"/>
  <path class="cls-4" d="m564.15,694.68c-.06-1.62.2-3.11,1.86-4.03,1.95-1.07,3.92-.78,5.34.94,1.39,1.68,1.8,3.74,1.79,5.8-.01,1.73-.44,3.46-.76,5.17-.34,1.81-1.87,2.56-3.59,1.87-.69-.28-1.31-.7-1.66-1.31-1.51-2.61-3.17-5.18-2.99-8.44Z"/>
  <path class="cls-4" d="m400.59,195.11c-.58,2.87-.49,6.29-2.38,9.24-.76,1.2-1.88,1.79-3.18,1.79-1.27,0-2.3-.82-2.81-1.96-.56-1.27-.48-2.69,0-3.97,1.09-2.85,2.98-5.25,4.59-7.8.51-.8,1.36-1.15,2.3-.86.92.28,1.42.99,1.46,1.97.02.4,0,.8,0,1.59Z"/>
  <path class="cls-4" d="m734.89,382.36c1.79-.1,3.49.39,5.12,1.02,1.77.68,2.2,2.64.76,3.82-2.05,1.68-4.35,2.98-7.17,2.86-.65-.03-1.26-.15-1.85-.42-1.49-.69-2.5-1.74-2.48-3.47.02-1.73,1.06-2.73,2.56-3.41.99-.45,2.03-.36,3.06-.4Z"/>
  <path class="cls-4" d="m596.83,226.63c.32,2.06-2.5,4.11-3.94,4.05-2.02-.08-3.75-1.77-3.7-3.66.06-2.04,1.74-3.52,4-3.51,2.39,0,3.63,1.07,3.64,3.12Z"/>
</svg>