<?xml version="1.0" encoding="UTF-8"?>
<svg id="_图层_1" data-name="图层 1" xmlns="http://www.w3.org/2000/svg" viewBox="0 0 960 960">
  <defs>
    <style>
      .cls-1 {
        fill: #444794;
      }

      .cls-1, .cls-2, .cls-3, .cls-4, .cls-5, .cls-6, .cls-7, .cls-8, .cls-9, .cls-10, .cls-11, .cls-12, .cls-13 {
        stroke-width: 0px;
      }

      .cls-2 {
        fill: #b5ccff;
      }

      .cls-3 {
        fill: #b4ccff;
      }

      .cls-4 {
        fill: #444693;
      }

      .cls-5 {
        fill: #030304;
      }

      .cls-6 {
        fill: #b3c9fb;
      }

      .cls-7 {
        fill: #434592;
      }

      .cls-8 {
        fill: #b7ceff;
      }

      .cls-9 {
        fill: #b1c7f9;
      }

      .cls-10 {
        fill: #b3caff;
      }

      .cls-11 {
        fill: #454795;
      }

      .cls-12 {
        fill: #b6cdff;
      }

      .cls-13 {
        fill: #5a7dff;
      }
    </style>
  </defs>
  <path class="cls-5" d="m183.73,628.47c-.8-.39-1.57,0-2.32.13-5.67,1.02-11.39,1.7-17.15,1.9-4.02.14-7.99-.13-11.86-1.32-10.97-3.38-18.36-12.68-19.53-24.58-.83-8.49.51-16.76,2.7-24.91,3.4-12.67,8.81-24.51,14.88-36.08,6.48-12.34,14.21-23.92,21.93-35.5,5.86-8.79,12.21-17.22,18.45-25.74.5-.69,1.23-1.27,1.31-2.32-.81-.59-1.8-.45-2.71-.58-10.52-1.48-17.85-6.99-21.46-17.1-1.95-5.46-1.66-11.01-.29-16.56,1.43-5.81,4-11.12,7.14-16.18,3.08-4.97,6.53-9.68,10.15-14.27,6.13-7.79,12.36-15.52,18.13-23.59.92-1.29,1.87-2.57,2.55-4-.41-.76-1.09-.76-1.68-.89-2.88-.65-5.78-1.25-8.66-1.93-2.74-.65-5.34-1.69-7.79-3.06-9.27-5.18-13.35-13.18-12.7-23.68.3-4.76,1.61-9.28,3.35-13.7,2.3-5.83,5.3-11.29,8.71-16.52,7.54-11.57,16.11-22.3,26.12-31.83,17.33-16.49,36.11-31.08,56.88-43.02,5.2-2.99,10.6-5.61,16.12-7.97,1.09-.47,1.82-.99,2.05-2.32,1.11-6.36,3.4-12.33,6.39-18.02,7.38-14.03,16.23-26.99,27.71-38.04,9.13-8.79,19.55-15.71,30.92-21.23,3.25-1.58,6.67-2.71,10.31-3,7.49-.6,13.02,2.48,16.64,9.01,1.85,3.33,2.68,7,3.3,10.73.14.86.28,1.73.41,2.51.7.4,1-.09,1.31-.41,10.12-10.5,21.93-18.86,34.1-26.73,20.92-13.51,42.65-25.57,65.49-35.54,14.15-6.17,28.5-11.84,43.46-15.79,8.6-2.27,17.29-4.01,26.21-4.35,4.89-.19,9.75-.02,14.54,1.11,2.11.5,4.16,1.19,6.02,2.32,5.55,3.37,7.96,8.34,7.32,14.77-.37,3.71-1.74,7.13-3.39,10.44-2.57,5.18-5.93,9.86-9.43,14.44-1.49,1.96-3,3.9-4.59,5.96.88.57,1.51.07,2.11-.12,14.68-4.8,29.56-8.84,44.79-11.5,17.44-3.05,34.97-5.01,52.73-4.14,24.94,1.22,48.35,7.82,70.27,19.74,8.16,4.44,15.34,10.1,21.34,17.23,2.27,2.7,4.31,5.56,5.92,8.71,4.15,8.1,3.3,15.75-2.22,22.91-2.62,3.4-5.95,6.02-9.54,8.31-7.22,4.61-14.87,8.45-22.44,12.43-1.54.81-3.19,1.45-4.55,2.59.34.85,1.13.93,1.76,1.2,6.93,3.03,13.3,6.96,19.21,11.67,6.88,5.49,13.52,11.26,19.89,17.33,11.45,10.9,20.88,23.35,28.39,37.25,6.03,11.16,9.76,23.1,11.42,35.68.62,4.7.63,9.41-.2,14.1-1.49,8.43-5.82,14.94-13.01,19.57-5.74,3.7-12.14,5.64-18.74,7.09-.98.22-2.07.15-2.91.86.13,1.02.92,1.53,1.45,2.21,8.8,11.2,17.47,22.49,23.97,35.25,6.59,12.94,11.75,26.45,15.69,40.42,6.56,23.25,9.66,46.97,9.45,71.12-.05,5.37-.52,10.71-1.98,15.91-.89,3.17-2.11,6.2-3.81,9.03-4.6,7.63-11.37,11.7-20.23,12.31-1.26.09-2.54.01-3.61.01-.43.5-.4.81-.23,1.1,6.37,11.18,9.9,23.37,12.76,35.8,2.77,12.02,5.1,24.11,6.16,36.4.97,11.23-.09,22.21-4.59,32.69-2.73,6.36-6.59,11.86-12.03,16.2-3.35,2.68-6.99,4.77-11.19,5.8-1.74.43-1.73.48-1.21,2.21,3.15,10.43,3.34,20.97.98,31.54-1.69,7.59-5.61,13.89-11.64,18.83-2.04,1.67-4.13,3.28-6.24,4.87-1.74,1.31-2.88,2.94-3.32,5.09-.27,1.33-.68,2.63-1.04,3.94-3.02,11.05-9.41,19.87-18.1,27.1-20.48,17.05-44.06,26.59-70.6,28.72-11.3.91-22.31-1.01-33.2-3.86-5.64-1.48-11.11-3.58-16.77-5.01-1.96-.49-3.79-.47-5.6.4-12.38,6-25.7,8.63-39.12,10.97-17.25,3.01-34.47,6.14-51.81,8.6-11.8,1.67-23.65,2.93-35.56,3.36-10.27.37-20.44-.41-30.52-2.52-16.41-3.43-30.3-11.26-41.71-23.54-.33-.35-.67-.69-.98-1.06-.49-.59-1.03-.67-1.68-.26-.54.34-1.1.65-1.66.97-10.43,6.03-21.76,8.67-33.7,8.97-2.24.06-4.47-.17-6.68-.56-7.86-1.42-13.62-5.64-17.16-12.84-.14-.29-.31-.57-.41-.87-.36-1.14-.97-1.2-1.98-.67-4,2.12-8.3,3.29-12.74,4.05-8.3,1.44-16.41.73-24.32-2.15-6.1-2.22-11.13-5.89-15.04-11.08-1.78-2.37-3.35-4.88-4.88-7.41-1.08-1.78-2.22-3.51-3.48-5.17-1.12-1.47-2.52-2.1-4.36-1.96-2,.16-3.96.52-5.93.89-7.3,1.37-14.56,3.05-21.97,3.81-10.83,1.1-21.68,1.73-32.56.9-10.08-.77-19.66-3.45-28.8-7.72-6.31-2.95-12.4-6.29-18.25-10.07-14.37-9.27-21.37-22.89-23.39-39.46-1.14-9.37.32-18.51,2.65-27.55,3.91-15.11,9.91-29.37,17.31-43.08,2.51-4.64,5-9.29,7.48-13.95.37-.69.93-1.32.89-2.2Zm33.07-316.98c-.29.04-.44.2-.45.49-2.7,2.92-5.31,5.92-7.75,9.06-.55.14-.83.48-.84,1.05-1.74,2.3-3.48,4.6-5.22,6.91-.28,0-.37.11-.25.37-1.84,2.75-3.68,5.5-5.51,8.25-.27.02-.36.13-.21.38-.33.57-.67,1.14-1,1.71-.51.21-.76.59-.68,1.15-1.22,2.1-2.31,4.25-3.26,6.49-.45.29-.68.67-.53,1.21-.15.39-.31.78-.46,1.17-.43.31-.65.69-.47,1.23-.2.61-.41,1.23-.61,1.84-.62.73-.89,1.56-.67,2.52l-.28,1.32c-.49.47-.5.99-.2,1.56-.27,1.36-.3,2.71-.03,4.07-.25,1.62.21,2.99,1.46,4.08.17.25.35.5.52.75-.13.25-.04.34.22.29.71.84,1.54,1.52,2.47,2.1.01.27.13.36.38.21l2.14,1.12c.3.44.68.67,1.23.5.61.19,1.23.38,1.84.57.29.39.64.48,1.07.26.28.07.56.15.85.22.43.5.95.55,1.54.33l.86.17c.44.5.96.53,1.54.31.29.06.57.12.86.18.3.39.66.45,1.08.22.28.07.56.14.84.22,1.38.75,2.86,1.17,4.41,1.32,2.45.98,4.6,2.37,6.2,4.52-.03.56.22.93.74,1.12.12.25.23.49.35.74.04,1.06.24,2.07.86,2.96,0,1.13,0,2.26,0,3.39-.5.44-.53.97-.28,1.55-.08.28-.16.56-.24.84-.38.26-.52.6-.36,1.04-1.72,4.33-4.6,7.93-7.27,11.66-.27-.02-.37.09-.24.35-.31.42-.61.84-.92,1.25-.54.15-.82.5-.82,1.07-.21.28-.41.57-.62.85-.54.15-.82.5-.82,1.07-.3.39-.6.78-.9,1.17-.27-.02-.37.08-.25.34l-5.25,7c-1.15.72-2.02,1.64-2.15,3.08l-.03.04c-.98.1-1,.12-.57.84-.09.09-.16.2-.19.32-.79.27-1.34.85-1.83,1.48-3.9,4.97-7.8,9.94-11.04,15.37-2.83,4.74-5.26,9.65-5.88,15.32-.62,5.71,2.59,11.2,8.01,12.9,1.28.4,2.65.55,3.99.76,3.46.54,6.99.71,10.35,1.84,6.19,2.08,8.32,8.29,5.43,13.5-1.09,1.97-2.45,3.75-3.78,5.54-9.87,13.27-19.58,26.66-28.48,40.61-6.63,10.39-12.96,20.93-18.16,32.12-5.13,11.05-9.64,22.31-11.03,34.55-.44,3.9-.54,7.82.32,11.69,1.33,6.01,6.79,10.55,13.05,10.87,7.48.38,14.81-.71,22.11-2.18,3.6-.73,7.19-1.49,10.91-1.22,4.55.32,8,3.94,8.12,8.49.06,2.25-.56,4.26-1.58,6.19-3.87,7.36-7.68,14.75-11.66,22.05-7.92,14.53-14.22,29.69-17.76,45.9-1.83,8.38-1.96,16.77.29,25.15,2.24,8.32,6.52,15.19,13.5,20.37,3.8,2.82,7.88,5.16,12,7.45,12.02,6.7,24.81,10.48,38.66,10.4,4.4-.03,8.78-.27,13.17-.48,6.31-.3,12.55-1.11,18.76-2.23,6.04-1.09,12.01-2.55,18.13-3.28,6.99-.83,12.51,1.51,16.81,7,2.27,2.91,4.21,6.03,6.04,9.22,3.5,6.11,8.59,9.93,15.54,11.35,4.28.88,8.54,1.05,12.84.37,5.31-.85,10.18-2.67,14.32-6.22.6-.52,1.26-1,1.94-1.4,2.79-1.64,5.6-1.73,8.35.08,1.95,1.28,2.71,3.31,3.23,5.43.53,2.17,1.04,4.35,1.89,6.43,1.4,3.42,3.98,5.22,7.56,5.91,3.28.63,6.5.37,9.77,0,8.14-.91,15.77-3.25,22.79-7.52,1.84-1.12,3.72-2.21,5.68-3.1,3.43-1.57,6.78-.9,9.48,1.72.57.56,1.14,1.12,1.66,1.73,2.82,3.39,5.96,6.44,9.32,9.3,6.87,5.85,14.7,9.83,23.36,12.28,5.79,1.63,11.67,2.67,17.64,3.18,3.8.33,7.65.58,11.45.39,4.46-.22,8.94-.18,13.39-.73,5.3-.65,10.65-.98,15.95-1.65,6.17-.78,12.31-1.78,18.47-2.67,7.66-1.11,15.29-2.36,22.91-3.7,7.62-1.35,15.25-2.64,22.86-4.04,8.56-1.57,17.13-3.13,25.16-6.69,2.34-1.03,4.71-1.99,7.07-2.96,2.32-.94,4.71-1.41,7.23-1.43,2.53-.03,4.9.63,7.3,1.22,6.2,1.55,12.17,3.88,18.39,5.38,7.01,1.69,14.1,2.86,21.31,2.85,4.45,0,8.91-.39,13.34-1.16,10.21-1.77,20.07-4.63,29.51-8.9,8.5-3.84,16.15-9.09,23.46-14.8,6.14-4.8,11.07-10.6,13.81-18.04.94-2.55,1.57-5.2,2.27-7.82.73-2.73,1.91-5.23,3.67-7.48,2.06-2.63,4.76-4.49,7.4-6.41,4.67-3.39,8.28-7.51,9.69-13.25,1.29-5.25,1.64-10.58,1.14-15.94-.46-4.96-1.58-9.78-4.14-14.15-.48-.82-.82-1.74-1.11-2.65-1.15-3.63.08-7.86,3.91-9.45,1.66-.69,3.38-.94,5.11-1.16,3.67-.46,7.3-1.01,10.32-3.41,2.2-1.74,4.26-3.64,5.85-5.97,4.67-6.8,6.47-14.52,6.96-22.61.26-4.39.16-8.8-.52-13.16-.58-3.7-.85-7.46-1.78-11.1-.08-.35-.15-.7-.23-1.05.14-.74.05-1.47-.17-2.18.26-.41.22-.77-.17-1.08-.08-.44-.17-.88-.25-1.33.26-.58.23-1.1-.27-1.55-.06-.29-.11-.57-.17-.86.24-.58.21-1.1-.29-1.54-.09-.44-.19-.88-.28-1.32.25-.42.2-.78-.2-1.08-.06-.29-.12-.57-.18-.86.22-.58.18-1.11-.33-1.54l-.21-.85c.24-.42.15-.78-.23-1.07-.1-.44-.21-.88-.31-1.32.24-.42.18-.78-.22-1.08-.07-.28-.14-.57-.21-.85.23-.43.16-.78-.23-1.07-.07-.28-.14-.57-.2-.85.21-.43.15-.79-.25-1.07-.07-.29-.14-.57-.2-.86.03-1.75-.37-3.38-1.24-4.9-.08-.28-.15-.57-.23-.85.14-.95-.11-1.78-.72-2.51-.09-.28-.17-.56-.26-.85-.32-2.49-1.02-4.86-2.36-7-.31-.71-.62-1.42-.93-2.12.16-1.4-.83-2.38-1.35-3.51-2.63-5.75-5.76-11.22-9.89-16.07-.41-.49-.74-1.06-1.19-1.5-3.23-3.13-3.85-6.64-1.62-10.6,2.64-2.33,5.64-2.78,8.95-1.73.99.31,2.02.49,3.03.73,3.35.78,6.72,1.41,10.18,1.4,6.44-.01,10.13-2.45,12.6-8.39.49-1.18.87-2.4,1.21-3.63.95-3.49,1.28-7.07,1.4-10.67.23-7.03.05-14.06-.6-21.07-.4-4.29-.43-8.63-1.6-12.82.27-.44.25-.91.18-1.39-1.51-10.43-3.29-20.81-6.14-30.98-3.44-12.26-7.75-24.19-13.15-35.72-4.01-8.57-8.92-16.61-14.58-24.19-4.63-6.2-9.14-12.51-14.48-18.16-2.39-2.53-4.8-5.15-5.67-8.71,0-5.59,2.14-8.16,7.66-9.18,2.67-.49,5.36-.87,8.02-1.36,5.58-1.03,11.1-2.27,16.17-4.98,5.65-3.02,8.51-7.75,8.85-14.08.06-1.04.08-2.07.08-3.11-.04-4.75-.95-9.37-2.11-13.94-1.77-6.98-3.86-13.85-7.72-20.02.18-.61-.18-1.09-.44-1.56-6.16-11.07-13.49-21.28-22.37-30.33-7.05-7.18-14.62-13.79-22.49-20.04-5.08-4.04-10.54-7.47-16.57-9.91-3.77-1.53-7.55-3.03-11.32-4.54-2.55-1.02-4.95-2.24-6.44-4.71-.22-1.64-.45-3.28-.67-4.92.29-.73.57-1.46.86-2.2.54-.16.8-.52.8-1.08.33-.32.67-.65,1-.97.56,0,.92-.26,1.1-.78,4.74-2.41,9.47-4.82,14.21-7.24.25.17.36.08.4-.19l.07-.04c.9-.02,1.62-.37,2.13-1.14,4.73-2.5,9.46-5,14.19-7.5.57.09.94-.15,1.16-.66.89-.51,1.78-1.01,2.68-1.52.24.17.35.08.35-.19,1.16-.73,2.32-1.45,3.47-2.18.25.15.36.05.36-.22,2.37-1.67,4.83-3.26,6.22-5.96,1.79-2.2,1.62-4.56.48-6.94-2.79-5.86-7.37-10.23-12.24-14.27-6.32-5.25-13.68-8.79-21.13-12.13-19.24-8.64-39.48-12.49-60.47-12.82-3.67-.06-7.35.14-11.01.41-5.96.44-11.92,1.03-17.87,1.58-.29.03-.56.25-.84.38-.76.09-1.52.19-2.28.28-.56-.29-1.09-.3-1.56.19-.6.1-1.2.2-1.8.3-.4-.25-.77-.22-1.08.15-.6.1-1.2.21-1.8.31-.41-.25-.77-.21-1.08.16-.44.08-.89.15-1.33.23-.57-.24-1.1-.22-1.54.27-.44.08-.88.17-1.33.25-.58-.26-1.1-.23-1.55.27-.44.09-.88.18-1.33.27-.41-.25-.78-.2-1.08.19-.44.1-.88.19-1.32.29-.42-.25-.78-.19-1.08.2-.29.06-.57.12-.86.19-.58-.23-1.11-.18-1.54.32-.28.07-.57.14-.85.2-.42-.23-.78-.16-1.07.23-1.08.26-2.16.51-3.24.77-.43-.23-.79-.17-1.07.24-.28.08-.56.15-.85.23-.43-.23-.79-.16-1.07.25-.28.08-.57.16-.85.24-.52-.28-.92-.1-1.27.31-.7.19-1.4.38-2.11.57-.43-.21-.78-.11-1.06.28-.28.08-.57.16-.85.24-.51-.25-.91-.06-1.26.33-.7.19-1.4.39-2.11.58-.43-.2-.79-.1-1.06.29-.28.09-.56.17-.85.26-.95-.16-1.78.08-2.51.7l-.85.25c-1.02-.15-1.93.13-2.71.79-1.18.37-2.35.74-3.53,1.1-1.52.04-2.89.49-4.13,1.37-1.52.54-3.04,1.08-4.56,1.62-.23-.19-.37-.11-.45.15-.15.06-.3.11-.46.17-.54-.2-.93.02-1.24.46-1.67.64-3.34,1.28-5,1.93-.55-.18-.93.04-1.23.49-.39.15-.78.31-1.17.46-.55-.17-.94.05-1.22.51-.72.29-1.43.59-2.15.88-.55-.15-.93.08-1.22.53-1.67.78-3.35,1.57-5.02,2.35-.55-.14-.93.1-1.21.55-.55.17-1.09.34-1.64.51-2.01-.17-4.03-.27-5.89-1.19-.95-.75-1.64-1.71-2.16-2.8.19-.45.1-.81-.32-1.06,0-.97-.02-1.94-.03-2.91.64-.69.86-1.55.97-2.45.65-.86,1.29-1.72,1.94-2.58.28.04.37-.07.26-.33.71-.86,1.42-1.72,2.13-2.58.27.05.36-.04.23-.3,1.36-1.65,2.73-3.31,4.09-4.96.28.04.37-.06.26-.32.71-.86,1.42-1.72,2.14-2.58.28.06.36-.04.24-.3,3.5-4.32,7.29-8.41,10.25-13.16.26-.18.58-.31.76-.55,3.34-4.39,6.51-8.89,8.7-13.99.34-.8.62-1.65.78-2.51.38-2.06-.03-2.79-2-3.41-1.21-.38-2.47-.67-3.73-.83-5.58-.71-11.14-.29-16.66.55-10.52,1.6-20.7,4.54-30.71,8.09-.58.21-1.26.29-1.6.94-3.65.8-7.06,2.3-10.51,3.68-24.83,9.97-48.53,22.16-71.19,36.41-16.72,10.51-32.64,21.93-45.58,37.07-.72.84-1.55,1.63-2.44,2.29-3.87,2.91-8.79,1.67-10.86-2.7-.45-.94-.74-1.94-.94-2.96-.78-3.92-1.4-7.87-1.92-11.83-.31-2.36-.38-4.79-1.54-6.96-.8-3.8-2.41-4.86-6.07-3.95-1.79.44-3.46,1.19-5.1,2.01-7,3.51-13.62,7.64-19.74,12.53-4.24,3.38-8.23,7.03-11.67,11.25h-.01c-.18.05-.31.13-.3.35-1.1.82-1.88,1.95-2.73,2.99-4.72,5.73-9.26,11.6-13.51,17.7-3.01,4.33-5.86,8.76-8.27,13.45-.38.73-.91,1.44-.84,2.31.83.35,1.39-.07,1.97-.27,3.77-1.3,7.58-2.5,11.28-3.98,5.23-2.1,10.64-3.29,16.24-3.69.82-.06,1.58.04,2.33.37,3.61,1.59,4.38,5.71,1.36,8.39-2.63,2.33-5.59,4.24-8.95,5.44-1.04.37-2.18.51-3.09,1.22-.74-.02-1.4.29-2.08.52-3.62,1.25-7.24,2.49-10.85,3.77-11.22,3.98-22.25,8.41-32.59,14.38-20.37,11.76-38.72,26.17-55.57,42.53-.43.42-1.09.72-1.07,1.49h.12c-.48-.13-.63.08-.55.53l.07-.08c-.57-.17-.73.25-.93.64-.5.09-.73.53-1.04.85-.28.04-.43.2-.45.48l-.02.02Z"/>
  <path class="cls-13" d="m739.25,203.11c-.89.51-1.78,1.01-2.68,1.52-.59-.14-.98.08-1.16.66-4.73,2.5-9.46,5-14.19,7.5-.94-.06-1.69.26-2.13,1.14,0,0-.07.04-.07.04-.13.06-.27.13-.4.19-4.74,2.41-9.47,4.82-14.21,7.24-.63-.11-1,.15-1.1.78-.33.32-.67.65-1,.97-.62.1-.89.45-.8,1.08-.29.73-.57,1.46-.85,2.2-.94.73-.62,1.72-.46,2.61.14.77.39,1.52.3,2.32-1.63.34-2.87,1.33-4.08,2.38-3.02,2.62-2.98,7.86-.09,10.49.96.87,2.02,1.55,3.12,2.2,4.06,2.4,8.27,4.5,12.4,6.75,6.73,3.66,13.31,7.58,20.11,11.12,8.87,4.61,17.33,9.87,25.56,15.52,3.69,2.53,7.16,5.38,10.21,8.64,3.92,4.19,7.98,8.26,11.57,12.76.43.54.86,1.18,1.69,1.23,3.87,6.17,5.95,13.04,7.72,20.02,1.16,4.57,2.07,9.19,2.11,13.94,0,1.04-.02,2.08-.08,3.11-.34,6.33-3.19,11.07-8.85,14.08-5.08,2.71-10.59,3.96-16.17,4.98-2.67.49-5.36.87-8.02,1.36-5.52,1.01-7.66,3.59-7.66,9.18-1.62.52-3.3.44-4.97.54-4.22.23-6.99,2.28-7.88,5.76-.64,2.49.42,4.55,1.74,6.49,4.48,6.6,9.23,13,14.09,19.32,5.16,6.7,10.43,13.3,15.05,20.39,4.48,6.88,8.84,13.85,13.02,20.92,4.11,6.95,7.53,14.25,10.94,21.56,3.58,7.67,7.05,15.38,10.82,22.96.24.48.39,1.08,1.04,1.22,1.17,4.19,1.21,8.53,1.6,12.82.65,7,.83,14.03.6,21.07-.12,3.6-.45,7.18-1.4,10.67-.34,1.23-.72,2.46-1.21,3.63-2.48,5.94-6.16,8.37-12.6,8.39-3.46,0-6.83-.62-10.18-1.4-1.01-.24-2.04-.42-3.03-.73-3.31-1.04-6.3-.59-8.95,1.73-3.54.78-5.36,3.03-5.38,6.49,0,2.53,1.35,4.38,2.96,6.05,4.03,4.18,7.82,8.58,11.53,13.05,1.67,2.01,3.29,4.05,4.93,6.08.31.71.62,1.42.93,2.13.38,2.47,1.09,4.83,2.36,7,.09.28.17.56.26.85-.42,1.03-.01,1.82.72,2.51.08.28.15.57.23.85-.19,1.79.33,3.39,1.24,4.9.07.29.14.57.2.86-.53.5-.21.8.25,1.07.07.28.14.57.2.85-.51.49-.19.79.23,1.07.07.28.14.57.21.85-.5.48-.17.78.22,1.08.1.44.21.88.31,1.32-.52.48-.21.79.23,1.07.07.28.14.57.21.85-.5.64-.29,1.13.33,1.54.06.29.12.57.18.86-.52.47-.2.78.2,1.08.09.44.19.88.28,1.32-.52.63-.32,1.12.29,1.54.06.29.11.57.17.86-.51.62-.3,1.12.27,1.55.08.44.17.88.25,1.33-.52.45-.22.77.17,1.08.23.71.31,1.44.17,2.18-.54.14-.73.55-.8,1.05-.19.14-.44.24-.57.42-3.85,5.02-8.9,8.66-14.02,12.22-6.4,4.45-13.34,7.86-20.54,10.76-8.9,3.59-17.92,6.73-27.4,8.46-3.21.59-6.44,1.16-9.54,2.22-6.09,2.08-9.83,6.16-10.28,12.73-.22,3.27.54,6.51,1.07,9.72.88,5.35,1.67,10.72,2.06,16.12.34,4.76.54,9.55.08,14.33-.48,4.99-1.72,9.75-4.58,13.96-4.59,6.75-10.68,11.59-18.39,14.31-6.34,2.24-12.85,3.69-19.55,4.41-6.23.66-12.4.57-18.6-.37-4.81-.73-9.48-2.14-14.3-2.81-4.51-.63-8.41.47-11.82,3.29-5.41,4.48-10.87,8.89-16.5,13.09-6.48,4.84-13.26,9.22-20.73,12.39-11.12,4.71-22.51,8.57-34.47,10.6-6.61,1.12-13.26,1.79-19.96,2.03-3.11.11-6.21-.15-9.32-.32-6.47-.35-12.84-1.23-19.13-2.76-6.53-1.59-12.77-4.07-19.12-6.21-5.94-2-12.03-3.11-18.31-3.09-4.96.01-9.85.77-14.71,1.66-9.48,1.72-18.77,4.46-28.35,5.71-5.9.77-11.77.65-17.44-1.67-4.82-1.98-9.38-4.45-13.86-7.07-7.95-4.65-16.43-7.4-25.7-7.32-6.95.06-13.89-.16-20.84.38-5.42.42-10.87.12-16.21-.91-5.9-1.14-11.29-3.43-15.49-7.97-2.94-3.17-4.66-7.06-6.39-10.92-1.06-2.36-2.31-4.58-3.97-6.51-2.3-2.68-5.24-4.48-8.84-4.77-3.27-.27-6.51-.01-9.74.78-8.98,2.19-17.9,4.67-27.03,6.2-6.73,1.13-13.44,1.68-20.19.2-12.04-2.65-21.35-8.81-26.98-20.18-3.94-7.94-5.1-16.39-5.59-25.03-.17-3.02.13-6.06.29-9.09.34-6.39,1.24-12.7,2.17-19,1.39-9.46,3.5-18.8,4.87-28.27.59-4.04,1.09-8.06.26-12.13-1.24-6.1-4.02-9.59-9.68-10.86-1.85-.42-3.76-.72-5.69-.68-3.27.07-6.53-.01-9.81.29-4.37.41-8.79.14-13.14-.42-4.76-.61-8.75-2.58-10.48-7.52-.61-1.73-.97-3.54-1.06-5.38-.25-5.78.43-11.47,1.76-17.09,2.72-11.49,7.03-22.4,12.46-32.85,2.51-4.82,4.98-9.66,7.39-14.54,4.25-8.6,8.85-17.02,14.08-25.07,5.05-7.77,9.94-15.64,14.58-23.66,1.44-2.48,2.98-4.92,3.86-7.7,1.39-4.41-.54-8.54-4.97-9.92-3.8-1.18-7.61-2.39-11.55-3.09-3.11-.56-6.01-1.62-8.58-3.49-2.39-1.74-3.82-3.97-3.68-7.11.09-2.09.38-4.12.93-6.13,1.8-6.66,4.34-13.03,7.45-19.18.41-.82,1.17-1.6.63-2.66.03-.13.1-.23.19-.32.5-.07.62-.4.57-.84,0,0,.03-.04.03-.04,1.34-.59,1.89-1.73,2.15-3.08,1.75-2.33,3.5-4.67,5.25-7,.18-.05.26-.16.25-.34.3-.39.6-.78.9-1.17.61-.1.88-.46.82-1.07.21-.28.41-.57.62-.85.61-.1.88-.45.82-1.07.31-.42.61-.84.92-1.25.08-.12.16-.23.24-.35,2.68-3.73,5.55-7.33,7.27-11.66.5-.22.86-.48.36-1.04.08-.28.16-.56.24-.84.58-.43.8-.92.28-1.55,0-1.13,0-2.26,0-3.39.5-1.22.02-2.15-.86-2.96-.12-.25-.23-.49-.35-.74.13-.62-.12-1-.74-1.12-1.6-2.14-3.75-3.54-6.2-4.52-1.3-1.01-2.72-1.64-4.41-1.32-.28-.07-.56-.14-.84-.22-.29-.41-.6-.72-1.08-.22-.29-.06-.57-.12-.86-.18-.41-.62-.91-.82-1.54-.31-.29-.06-.57-.12-.86-.17-.41-.61-.9-.82-1.54-.33-.28-.07-.56-.15-.85-.22-.28-.41-.58-.74-1.07-.26-.61-.19-1.23-.38-1.84-.57-.25-.55-.65-.75-1.23-.5-.71-.37-1.43-.74-2.14-1.12-.13-.07-.25-.14-.38-.21-.93-.57-1.77-1.26-2.47-2.1.01-.16-.06-.26-.22-.29-.17-.25-.35-.5-.52-.75-.29-1.43-.74-2.8-1.46-4.08-.27-1.36-.24-2.72.03-4.07.52-.46.73-.96.2-1.56.09-.44.19-.88.28-1.32.64-.73,1.02-1.53.67-2.52.2-.61.41-1.23.61-1.84.56-.26.75-.66.47-1.23.15-.39.31-.78.46-1.17.57-.23.78-.63.53-1.22.94-2.23,2.04-4.39,3.26-6.49.59-.17.82-.55.68-1.15.33-.57.67-1.14,1-1.71.07-.13.14-.26.21-.38,1.84-2.75,3.68-5.5,5.51-8.25.19-.05.27-.17.25-.37,1.74-2.3,3.48-4.6,5.22-6.91.61-.09.88-.44.84-1.05,2.44-3.14,5.05-6.14,7.75-9.06.29-.04.44-.2.45-.49,0,0,.02-.02.02-.02.28-.04.43-.2.45-.48.32-.32.54-.76,1.04-.85.34-.17.74-.24.93-.64,0,0-.07.08-.07.08.18-.17.37-.35.55-.52,0,0-.12-.01-.12-.01.73.11,1.17-.39,1.68-.77,5.7-4.24,11.6-8.2,17.66-11.9,8.78-5.38,17.68-10.55,26.87-15.22,7.05-3.58,14.16-7.01,21.65-9.57,7.63-2.61,15.31-5.05,22.78-8.1,3.89-1.59,7.41-3.74,10.23-6.92,1.71-1.93,2.65-4.14,2.39-6.79-.12-1.23-.94-2.2-1.11-3.4.91-.72,2.05-.85,3.09-1.22,3.36-1.2,6.32-3.11,8.95-5.44,3.01-2.68,2.25-6.79-1.36-8.39-.75-.33-1.52-.43-2.33-.37-5.6.4-11.01,1.59-16.24,3.69-3.7,1.48-7.51,2.68-11.28,3.98-.58.2-1.14.62-1.97.27-.07-.87.47-1.58.84-2.31,2.42-4.69,5.26-9.12,8.27-13.45,4.24-6.1,8.78-11.97,13.51-17.7.86-1.04,1.64-2.16,2.73-2.99.05-.16.15-.27.3-.34,0,0,.01,0,.01,0,.99-.04,1.79-.55,2.63-1.02,7.01-3.93,14.05-7.82,21.34-11.2,5.56-2.58,10.98-5.41,16.22-8.59.75-.46,1.51-.89,2.39-1.03,1.16,2.18,1.23,4.61,1.54,6.96.52,3.97,1.13,7.91,1.92,11.83.21,1.02.5,2.02.94,2.96,2.07,4.36,6.99,5.6,10.86,2.7.89-.67,1.72-1.45,2.44-2.29,12.94-15.14,28.86-26.56,45.58-37.07,22.66-14.25,46.36-26.44,71.19-36.41,3.45-1.38,6.86-2.88,10.51-3.68.9.8,2.02.49,2.97.35,3.74-.56,7.5-.29,11.24-.37,6.27-.14,12.4.88,18.43,2.49,5.04,1.35,9.38,3.69,11.5,8.86.06.14.2.24.31.36-2.96,4.74-6.75,8.84-10.25,13.16-.17.03-.25.13-.24.3-.71.86-1.42,1.72-2.14,2.58-.18.04-.26.14-.26.32-1.36,1.65-2.73,3.31-4.09,4.96-.16.03-.24.13-.23.3-.71.86-1.42,1.72-2.13,2.58-.18.04-.27.15-.26.33-.65.86-1.29,1.72-1.94,2.58-.98.56-1.31,1.37-.97,2.45,0,.97.02,1.94.03,2.91-.52.55-.16.82.32,1.06.52,1.09,1.21,2.04,2.16,2.8,1.58,1.83,3.77,2.28,5.89,1.19.55-.17,1.09-.34,1.64-.51.6.24.99.02,1.21-.55,1.67-.78,3.35-1.57,5.02-2.35.59.25.98.04,1.22-.53.72-.29,1.43-.59,2.15-.88.58.23.97.03,1.22-.51.39-.15.78-.31,1.17-.46.57.24.97.05,1.23-.49,1.67-.64,3.34-1.28,5-1.93.57.26.96.07,1.24-.46.15-.06.3-.11.46-.17.19.08.34.03.45-.15,1.52-.54,3.04-1.08,4.56-1.62,1.53,0,2.91-.44,4.13-1.37,1.18-.37,2.35-.74,3.53-1.1,1.06.26,1.96-.01,2.71-.79.28-.08.56-.17.85-.25,1,.35,1.8-.01,2.51-.7.28-.09.56-.17.85-.26.52.5.81.17,1.06-.29.7-.19,1.4-.39,2.11-.58.54.33.94.16,1.26-.33.28-.08.57-.16.85-.24.51.51.8.18,1.06-.28.7-.19,1.4-.38,2.11-.57.53.32.93.15,1.27-.31.28-.08.57-.16.85-.24.49.49.79.15,1.07-.25.28-.08.56-.15.85-.23.48.49.79.16,1.07-.24,1.08-.26,2.16-.51,3.24-.77.48.52.79.2,1.07-.23.28-.07.57-.14.85-.2.64.5,1.13.28,1.54-.32.29-.06.57-.12.86-.19.47.51.78.19,1.08-.2.44-.1.88-.19,1.32-.29.46.51.78.2,1.08-.19.44-.09.88-.18,1.32-.27.62.52,1.12.3,1.55-.27.44-.08.88-.17,1.33-.25.62.54,1.12.34,1.54-.27.44-.08.89-.15,1.33-.23.45.53.77.25,1.08-.16.6-.1,1.2-.21,1.8-.31.44.53.77.25,1.08-.15.6-.1,1.2-.2,1.8-.3.59.54,1.1.33,1.56-.19.76-.09,1.52-.19,2.28-.28.62.57,1.37.31,2.06.31,7.35.04,14.7-.05,22.05.14,4.13.11,8.27.51,12.37,1.04,6.07.78,12.13,1.74,18.17,2.73,6.61,1.09,13.14,2.54,19.55,4.5,9.52,2.92,18.35,7.35,26.86,12.46,6.96,4.18,13.31,9.06,18.43,15.44,1.72,2.14,3.18,4.39,3.59,7.18-1.39,2.7-3.84,4.29-6.22,5.96-.18-.03-.3.05-.36.22-1.16.73-2.32,1.45-3.47,2.18-.17-.04-.29.03-.35.19Zm-104.52,297.87c0-1.76-.13-3.5-.42-5.25-1.72-10.4-7.68-17.35-17.3-21.21-7.42-2.98-15.17-2.71-22.89-1.52-7.59,1.17-14.96,3.19-22.15,5.92-8.53,3.24-16.75,7.15-24.82,11.37-6.87,3.58-13.6,7.42-20.44,11.07-2.82,1.51-2.52,1.67-3.67-1.51-1.84-5.07-4.23-9.86-7.87-13.88-7.85-8.64-17.86-12.57-29.34-13.16-7.68-.4-15.09,1.01-22.34,3.41-2.58.85-5.17,1.67-7.73,2.57-1.05.37-1.86.2-2.56-.65-.4-.49-.85-.96-1.24-1.46-1.64-2.08-3.48-3.99-5.54-5.63-8.34-6.59-17.84-8.54-28.19-6.78-8.6,1.46-16.24,5.1-23.13,10.39-1.27.97-2.56,1.91-3.8,2.91-.63.5-1.12.47-1.65-.1-.77-.82-1.56-1.6-2.35-2.4-8.03-8.23-21.07-9.59-30.74-3.03-2.72,1.84-5.13,4-7.23,6.57-3.62,4.41-6.71,9.12-8.99,14.36-1.18,2.72-1.95,5.58-2.73,8.42-1.61,5.9-3.33,11.69-2.87,18.03.78,10.78,5.78,18.8,14.71,24.41,6.76,4.25,14.3,6.19,22.32,6.26,3.92.03,7.8-.26,11.68-.85,2.04-.31,4.13-.37,6.18-.62,1.23-.14,1.91.35,2.39,1.47.59,1.4,1.31,2.74,2.02,4.08,3.87,7.22,9.7,12.19,17.38,14.96,8.75,3.15,17.68,2.87,26.67,1.32,5.03-.86,9.95-2.23,14.96-3.24,2-.4,4.14-1.77,5.98-.87,1.77.87,3.1,2.72,4.46,4.28,2.92,3.36,6.29,6.11,10.25,8.11,7.32,3.69,15.26,4.98,23.29,5.89,4.7.54,9.41.39,14.11.55,2.38.08,4.76.4,7.13.7,4.45.56,8.69,2.02,13,3.18,7.11,1.91,14.24,3.31,21.71,2.4,4.39-.53,8.66-1.44,12.8-2.88,11.04-3.85,20.5-10.34,29.08-18.13,6.69-6.07,12.81-12.7,18.19-20.01,6.65-9.04,12.58-18.48,16.97-28.84,2.79-6.6,4.55-13.44,4.73-20.63Zm-260.53,122.89c.05,2.9.09,5.44.38,8,.66,5.81,2.31,11.25,5.23,16.3,3.18,5.51,7.54,9.85,13.05,13.05,7.98,4.63,16.53,4.94,25.31,3.38,4.01-.71,7.91-1.89,11.83-2.97,1.73-.48,3.23-.2,4.69.99,2.71,2.22,5.28,4.64,8.3,6.47,3.73,2.26,7.59,3.95,12.12,3.98,4.06.03,7.96-.62,11.77-1.84,8.85-2.84,17.9-4.52,27.12-5.56,5.99-.67,11.63-2.72,16.77-6.01,6.13-3.93,10.78-9.25,14.45-15.42,3.52-5.92,5.9-12.24,5.38-19.32-.43-5.94-2.9-10.97-7.24-14.94-4.59-4.2-10.28-6.12-16.39-6.54-8.25-.58-16.41.3-24.47,2.12-7.62,1.72-15.14,3.9-22.85,5.2-2.48.42-4.97,1.02-7.57.39-2.21-.54-4.24-1.35-6.17-2.5-3.36-2.01-6.65-4.14-10.25-5.73-4.89-2.16-9.81-4.28-14.73-6.37-5.96-2.53-11.98-4.88-18.31-6.33-4.5-1.03-9-1.22-13.51-.08-11.53,2.92-17.35,13.52-15.69,24.81.46,3.1.95,6.14.77,8.92Zm42.45,61.03c-5.29-.13-10.83.79-15.93,3.61-6.08,3.37-9.04,9.49-6.45,16.66.82,2.25,1.58,4.52,2.44,6.75,1.67,4.32,4.13,8.16,7.71,11.1,8.76,7.19,18.87,8.95,29.73,6.78,7.8-1.56,14.59-5.5,21.1-9.93,2.77-1.89,5.06-4.23,6.18-7.43,1.88-5.33,1.78-10.46-1.77-15.22-2.11-2.83-5.01-4.4-8.19-5.56-4.73-1.72-9.57-3.07-14.5-4.05-6.56-1.31-13.11-2.75-20.33-2.7Zm-150.42-35.51c.03,2.35,2.7,4.47,5.86,3.75,1.48-.34,2.83-1.01,4.1-1.89,5.15-3.58,9.1-8.44,13.65-12.68,1.36-1.27,1.19-2.99.71-4.48-.5-1.54-1.87-2.31-3.53-2.42-1.47-.11-2.85.2-4.13.95-3.44,2.02-6.7,4.3-9.98,6.56-1.46,1-2.77,2.17-3.91,3.5-1.44,1.7-2.87,3.46-2.77,6.71Zm323.86-417.23c0,2.26,2.76,4.51,5.81,3.86,1.41-.3,2.73-.89,3.91-1.72,2.73-1.93,5.47-3.84,8.16-5.82.76-.56,1.47-1.25,2.03-2.01.86-1.16,1.11-2.48.35-3.81-.76-1.32-2.34-1.94-3.9-1.63-1.65.32-3.17,1.03-4.73,1.62-2.68,1.01-5.43,1.86-7.92,3.3-2.05,1.19-3.79,2.69-3.71,6.21Zm95.52,121.75c-.39-2.69-.61-5.95-1.78-9.04-.61-1.61-1.51-3-2.82-4.08-2.35-1.93-5.73-1.23-7.15,1.44-1.26,2.38-1,4.82,0,7.16,1.25,2.95,3.14,5.55,4.93,8.18,1.08,1.58,2.88,2.04,4.4,1.55,1.7-.55,2.31-1.83,2.42-3.46.03-.4,0-.8,0-1.75Zm-26.13,282.12c1.44.11,2.8-.35,4.09-1,2.5-1.26,4.78-2.87,7.04-4.5,1.02-.74,1.87-1.68,2.23-3.02.34-1.26-.06-2.21-.91-3.02-.8-.76-1.76-.65-2.68-.2-1.76.86-3.63,1.09-5.55,1.23-2.23.16-4.43.56-6.43,1.65-2.32,1.26-3.36,3.3-2.77,5.52.44,1.64,2.19,3.59,4.98,3.34Zm5.2,16.36c2.41,0,7.2-1.96,8.9-3.66.11-.11.24-.21.34-.33,1.33-1.56.85-3.24-1.07-3.91-.7-.24-1.4-.27-2.12-.27-1.5,0-2.97.07-4.48-.4-1.76-.56-5.23,1.56-5.86,3.31-.95,2.6,1.02,5.54,4.29,5.26Zm-356.63-279.33c.1.38.23.92.39,1.45,1.36,4.34,3.86,8.02,6.69,11.51.5.62,1.11,1.13,1.85,1.5.87.44,1.67.51,2.4-.25.84-.88.33-1.66-.26-2.32-2.53-2.8-3.75-6.26-5.03-9.69-.35-.95-.39-1.73.23-2.68.89-1.37.52-2.11-.83-2.9-2.16-1.25-5.12-.25-5.43,3.39Zm-6.73,9.24c0-.42.01-.82,0-1.22-.09-2.39-1.58-3.25-3.69-2.13-1.92,1.02-3.16,3.41-2.46,5.48.91,2.74,2.28,5.28,4.5,7.24,1.02.91,2.24,1.21,3.57.99,1.04-.17,1.75-.78,1.9-1.86.14-.99-.19-1.75-1.26-1.98-.82-.18-1.13-.83-1.45-1.47-.81-1.59-1.36-3.24-1.11-5.04Zm188.08-184.34c-.15,1.29.24,2.52.56,3.74.29,1.12,1,1.97,2.11,2.44,1.6.68,3.05-.06,3.02-1.77-.03-1.73.4-3.27,1.04-4.84.81-1.95.13-3.66-1.59-4.36-1.99-.81-3.89-.02-4.7,1.97-.36.9-.54,1.83-.44,2.82Zm223.09,126.53c.06-1.02-.19-1.89-.97-2.6-1-.91-2.14-1.46-3.49-1.07-1.65.48-2.8,1.62-3.14,3.3-.45,2.23.15,4.3,1.63,6.02,1.16,1.35,3.41,1.4,4.13-.05.88-1.75,1.71-3.59,1.84-5.61Z"/>
  <path class="cls-11" d="m198.9,420.33c.54,1.06-.22,1.84-.63,2.66-3.11,6.15-5.64,12.52-7.45,19.18-.55,2.01-.83,4.04-.93,6.13-.14,3.14,1.29,5.36,3.68,7.11,2.56,1.87,5.47,2.94,8.58,3.49,3.94.7,7.75,1.91,11.55,3.09,4.43,1.38,6.37,5.51,4.97,9.92-.88,2.78-2.42,5.22-3.86,7.7-4.64,8.02-9.53,15.88-14.58,23.66-5.22,8.05-9.82,16.46-14.08,25.07-2.41,4.87-4.88,9.71-7.39,14.54-5.43,10.45-9.74,21.36-12.46,32.85-1.33,5.62-2.01,11.31-1.76,17.09.08,1.85.44,3.65,1.06,5.38,1.74,4.93,5.72,6.91,10.48,7.52,4.35.56,8.77.83,13.14.42,3.28-.31,6.54-.23,9.81-.29,1.92-.04,3.83.26,5.69.68,5.67,1.27,8.44,4.76,9.68,10.86.83,4.07.33,8.09-.26,12.13-1.37,9.47-3.48,18.81-4.87,28.27-.93,6.3-1.83,12.61-2.17,19-.16,3.03-.46,6.06-.29,9.09.49,8.64,1.66,17.08,5.59,25.03,5.63,11.37,14.94,17.53,26.98,20.18,6.75,1.48,13.45.93,20.19-.2,9.14-1.54,18.05-4.01,27.03-6.2,3.23-.79,6.47-1.05,9.74-.78,3.6.3,6.53,2.09,8.84,4.77,1.66,1.93,2.92,4.15,3.97,6.51,1.73,3.86,3.45,7.75,6.39,10.92,4.2,4.53,9.59,6.83,15.49,7.97,5.34,1.03,10.8,1.34,16.21.91,6.95-.54,13.89-.32,20.84-.38,9.27-.08,17.75,2.67,25.7,7.32,4.48,2.62,9.04,5.1,13.86,7.07,5.66,2.32,11.53,2.44,17.44,1.67,9.57-1.25,18.86-3.99,28.35-5.71,4.86-.88,9.75-1.64,14.71-1.66,6.28-.02,12.38,1.09,18.31,3.09,6.35,2.14,12.59,4.62,19.12,6.21,6.29,1.53,12.66,2.41,19.13,2.76,3.11.17,6.21.43,9.32.32,6.69-.24,13.35-.91,19.96-2.03,11.95-2.03,23.35-5.88,34.47-10.6,7.47-3.17,14.24-7.55,20.73-12.39,5.63-4.2,11.08-8.62,16.5-13.09,3.41-2.82,7.32-3.92,11.82-3.29,4.83.68,9.49,2.08,14.3,2.81,6.2.94,12.37,1.03,18.6.37,6.7-.71,13.21-2.17,19.55-4.41,7.71-2.72,13.8-7.56,18.39-14.31,2.86-4.21,4.1-8.97,4.58-13.96.46-4.78.26-9.57-.08-14.33-.39-5.4-1.18-10.77-2.06-16.12-.53-3.22-1.29-6.46-1.07-9.72.45-6.57,4.19-10.65,10.28-12.73,3.1-1.06,6.33-1.64,9.54-2.22,9.47-1.73,18.5-4.87,27.4-8.46,7.21-2.9,14.15-6.31,20.54-10.76,5.12-3.56,10.17-7.2,14.02-12.22.14-.18.38-.28.57-.42.34,0,.68,0,1.02,0,.93,3.65,1.2,7.4,1.78,11.1.68,4.35.78,8.77.52,13.16-.49,8.08-2.28,15.8-6.96,22.61-1.6,2.32-3.65,4.22-5.85,5.97-3.02,2.4-6.65,2.95-10.32,3.41-1.74.22-3.46.47-5.11,1.16-3.83,1.59-5.05,5.82-3.91,9.45.29.91.63,1.83,1.11,2.65,2.56,4.38,3.68,9.19,4.14,14.15.5,5.36.15,10.7-1.14,15.94-1.42,5.74-5.02,9.86-9.69,13.25-2.64,1.92-5.35,3.78-7.4,6.41-1.76,2.25-2.94,4.75-3.67,7.48-.7,2.62-1.33,5.27-2.27,7.82-2.74,7.44-7.67,13.25-13.81,18.04-7.32,5.72-14.97,10.96-23.46,14.8-9.43,4.27-19.3,7.13-29.51,8.9-4.43.77-8.89,1.15-13.34,1.16-7.2,0-14.3-1.16-21.31-2.85-6.22-1.5-12.19-3.83-18.39-5.38-2.4-.6-4.77-1.25-7.3-1.22-2.52.03-4.92.49-7.23,1.43-2.37.97-4.74,1.93-7.07,2.96-8.04,3.56-16.61,5.11-25.16,6.69-7.61,1.4-15.24,2.7-22.86,4.04-7.62,1.35-15.25,2.6-22.91,3.7-6.16.89-12.3,1.89-18.47,2.67-5.3.67-10.65.99-15.95,1.65-4.45.55-8.93.5-13.39.73-3.8.19-7.65-.06-11.45-.39-5.97-.52-11.86-1.55-17.64-3.18-8.66-2.44-16.49-6.42-23.36-12.28-3.36-2.86-6.49-5.92-9.32-9.3-.51-.61-1.08-1.18-1.66-1.73-2.7-2.62-6.05-3.29-9.48-1.72-1.96.9-3.84,1.98-5.68,3.1-7.02,4.28-14.65,6.61-22.79,7.52-3.27.37-6.49.63-9.77,0-3.58-.69-6.16-2.48-7.56-5.91-.85-2.08-1.36-4.25-1.89-6.43-.52-2.12-1.28-4.16-3.23-5.43-2.76-1.81-5.56-1.72-8.35-.08-.68.4-1.34.88-1.94,1.4-4.14,3.55-9.01,5.38-14.32,6.22-4.31.69-8.56.51-12.84-.37-6.95-1.42-12.04-5.25-15.54-11.35-1.83-3.19-3.77-6.31-6.04-9.22-4.29-5.5-9.82-7.83-16.81-7-6.12.73-12.09,2.19-18.13,3.28-6.21,1.12-12.45,1.93-18.76,2.23-4.39.21-8.77.45-13.17.48-13.85.08-26.64-3.7-38.66-10.4-4.12-2.29-8.2-4.63-12-7.45-6.98-5.17-11.26-12.05-13.5-20.37-2.25-8.38-2.12-16.77-.29-25.15,3.54-16.21,9.83-31.37,17.76-45.9,3.98-7.3,7.79-14.69,11.66-22.05,1.02-1.93,1.64-3.95,1.58-6.19-.13-4.54-3.57-8.17-8.12-8.49-3.72-.26-7.31.5-10.91,1.22-7.3,1.47-14.63,2.57-22.11,2.18-6.26-.32-11.72-4.87-13.05-10.87-.86-3.87-.76-7.79-.32-11.69,1.4-12.24,5.91-23.5,11.03-34.55,5.19-11.19,11.53-21.73,18.16-32.12,8.9-13.96,18.61-27.34,28.48-40.61,1.33-1.79,2.69-3.57,3.78-5.54,2.89-5.21.76-11.42-5.43-13.5-3.36-1.13-6.89-1.29-10.35-1.84-1.34-.21-2.71-.35-3.99-.76-5.42-1.7-8.63-7.2-8.01-12.9.62-5.67,3.05-10.58,5.88-15.32,3.24-5.43,7.14-10.4,11.04-15.37.49-.63,1.04-1.21,1.83-1.48Z"/>
  <path class="cls-1" d="m803.87,488.27c-.65-.15-.8-.74-1.04-1.22-3.77-7.58-7.24-15.29-10.82-22.96-3.41-7.3-6.82-14.61-10.94-21.56-4.18-7.07-8.54-14.04-13.02-20.92-4.62-7.09-9.89-13.7-15.05-20.39-4.86-6.32-9.62-12.72-14.09-19.32-1.32-1.94-2.38-4-1.74-6.49.89-3.47,3.66-5.53,7.88-5.76,1.67-.09,3.35-.02,4.97-.54.87,3.57,3.28,6.19,5.67,8.71,5.35,5.65,9.85,11.96,14.48,18.16,5.66,7.57,10.56,15.62,14.58,24.19,5.4,11.53,9.71,23.46,13.15,35.72,2.85,10.17,4.63,20.54,6.14,30.98.07.48.09.96-.18,1.39Z"/>
  <path class="cls-1" d="m780.98,302.45c-.82-.05-1.25-.69-1.69-1.23-3.59-4.5-7.65-8.57-11.57-12.76-3.04-3.26-6.52-6.11-10.21-8.64-8.23-5.65-16.69-10.9-25.56-15.52-6.79-3.53-13.38-7.46-20.11-11.12-4.14-2.25-8.35-4.36-12.4-6.75-1.1-.65-2.17-1.33-3.12-2.2-2.89-2.63-2.92-7.87.09-10.49,1.21-1.05,2.45-2.04,4.08-2.38.28,0,.55,0,.83,0,1.49,2.47,3.89,3.69,6.44,4.71,3.78,1.51,7.56,3.01,11.32,4.54,6.04,2.45,11.49,5.87,16.57,9.91,7.87,6.26,15.44,12.86,22.49,20.04,8.89,9.05,16.21,19.26,22.37,30.33.26.48.62.95.44,1.56Z"/>
  <path class="cls-6" d="m321.75,246.37c.16,1.2.99,2.17,1.11,3.4.26,2.65-.68,4.87-2.39,6.79-2.82,3.17-6.34,5.33-10.23,6.92-7.47,3.06-15.15,5.5-22.78,8.1-7.49,2.56-14.6,5.99-21.65,9.57-9.19,4.67-18.09,9.84-26.87,15.22-6.06,3.71-11.96,7.66-17.66,11.9-.51.38-.95.88-1.68.77-.02-.76.64-1.07,1.07-1.49,16.85-16.36,35.2-30.77,55.57-42.53,10.34-5.97,21.37-10.4,32.59-14.38,3.61-1.28,7.23-2.52,10.85-3.77.67-.23,1.33-.54,2.08-.52Z"/>
  <path class="cls-4" d="m558.27,136.97c-.1-.12-.25-.22-.31-.36-2.13-5.18-6.46-7.52-11.5-8.86-6.03-1.61-12.15-2.64-18.43-2.49-3.75.09-7.5-.18-11.24.37-.95.14-2.07.45-2.97-.35.33-.65,1.01-.73,1.6-.94,10.01-3.55,20.19-6.49,30.71-8.09,5.52-.84,11.08-1.26,16.66-.55,1.26.16,2.52.45,3.73.83,1.97.62,2.39,1.35,2,3.41-.16.86-.44,1.71-.78,2.51-2.19,5.1-5.36,9.6-8.7,13.99-.18.24-.5.37-.76.55Z"/>
  <path class="cls-7" d="m749.66,194.57c-.41-2.79-1.87-5.03-3.59-7.18-5.12-6.38-11.46-11.26-18.43-15.44-8.52-5.11-17.34-9.54-26.86-12.46-6.41-1.96-12.94-3.41-19.55-4.5-6.04-1-12.1-1.95-18.17-2.73-4.1-.53-8.24-.94-12.37-1.04-7.35-.19-14.7-.1-22.05-.14-.69,0-1.45.26-2.06-.31.28-.13.55-.35.84-.38,5.96-.55,11.91-1.14,17.87-1.58,3.66-.27,7.34-.47,11.01-.41,20.98.33,41.23,4.19,60.47,12.82,7.46,3.35,14.81,6.88,21.13,12.13,4.86,4.04,9.45,8.41,12.24,14.27,1.14,2.38,1.31,4.74-.48,6.94Z"/>
  <path class="cls-9" d="m368.84,180.26c-.89.14-1.64.57-2.39,1.03-5.24,3.19-10.65,6.01-16.22,8.59-7.29,3.38-14.33,7.27-21.34,11.2-.84.47-1.64.98-2.63,1.02,3.44-4.22,7.43-7.86,11.67-11.25,6.12-4.89,12.74-9.02,19.74-12.53,1.64-.82,3.32-1.57,5.1-2.01,3.66-.91,5.27.15,6.07,3.95Z"/>
  <path class="cls-7" d="m782.76,576.12c-1.64-2.03-3.26-4.07-4.93-6.08-3.71-4.47-7.5-8.86-11.53-13.05-1.61-1.67-2.97-3.52-2.96-6.05.01-3.46,1.83-5.71,5.38-6.49-2.22,3.96-1.61,7.47,1.62,10.6.45.44.78,1.01,1.19,1.5,4.13,4.84,7.25,10.31,9.89,16.07.51,1.12,1.51,2.11,1.35,3.51Z"/>
  <path class="cls-7" d="m786.05,585.25c-1.27-2.17-1.98-4.53-2.36-7,1.34,2.15,2.04,4.51,2.36,7Z"/>
  <path class="cls-7" d="m544.17,174.49c-2.12,1.09-4.31.64-5.89-1.19,1.86.92,3.88,1.03,5.89,1.19Z"/>
  <path class="cls-7" d="m701.33,231.35c-.28,0-.55,0-.83,0,.09-.8-.16-1.55-.3-2.32-.16-.89-.49-1.88.46-2.61.22,1.64.45,3.28.67,4.92Z"/>
  <path class="cls-7" d="m788.51,594.35c-.91-1.51-1.43-3.11-1.24-4.9.87,1.52,1.27,3.15,1.24,4.9Z"/>
  <path class="cls-7" d="m207.25,373.8c1.7-.33,3.11.31,4.41,1.32-1.56-.15-3.03-.57-4.41-1.32Z"/>
  <path class="cls-7" d="m188.36,362.27c.71,1.28,1.17,2.65,1.46,4.08-1.24-1.09-1.71-2.46-1.46-4.08Z"/>
  <path class="cls-7" d="m201.85,416.05c-.26,1.35-.82,2.48-2.15,3.08.13-1.44,1-2.35,2.15-3.08Z"/>
  <path class="cls-7" d="m574.87,162.5c-1.22.93-2.6,1.37-4.13,1.37,1.24-.88,2.62-1.33,4.13-1.37Z"/>
  <path class="cls-7" d="m218.95,381.5c.89.81,1.36,1.75.86,2.96-.62-.89-.82-1.9-.86-2.96Z"/>
  <path class="cls-7" d="m581.12,160.61c-.75.78-1.66,1.05-2.71.79.79-.67,1.69-.94,2.71-.79Z"/>
  <path class="cls-7" d="m535.77,166.53c-.34-1.08,0-1.89.97-2.45-.1.9-.33,1.76-.97,2.45Z"/>
  <path class="cls-7" d="m584.48,159.65c-.71.69-1.51,1.05-2.51.7.73-.62,1.57-.86,2.51-.7Z"/>
  <path class="cls-7" d="m787.03,588.6c-.73-.69-1.14-1.48-.72-2.51.62.73.86,1.56.72,2.51Z"/>
  <path class="cls-7" d="m189.54,352.8c.34.99-.03,1.79-.67,2.52-.21-.96.05-1.79.67-2.52Z"/>
  <path class="cls-7" d="m719.1,213.93c.44-.88,1.19-1.19,2.13-1.14-.51.76-1.23,1.12-2.13,1.14Z"/>
  <path class="cls-7" d="m624.3,151.05c-.46.52-.96.73-1.56.19.47-.49,1-.48,1.56-.19Z"/>
  <path class="cls-7" d="m615.65,152.4c-.42.61-.92.81-1.54.27.44-.49.97-.51,1.54-.27Z"/>
  <path class="cls-7" d="m612.78,152.92c-.43.57-.93.79-1.55.27.44-.5.97-.53,1.55-.27Z"/>
  <path class="cls-7" d="m200.54,372.38c.64-.49,1.13-.28,1.54.33-.58.22-1.11.17-1.54-.33Z"/>
  <path class="cls-7" d="m605.58,154.32c-.41.6-.9.82-1.54.32.43-.51.96-.55,1.54-.32Z"/>
  <path class="cls-7" d="m791.84,609.72c-.61-.42-.81-.91-.29-1.54.5.44.53.97.29,1.54Z"/>
  <path class="cls-7" d="m792.28,612.13c-.57-.43-.78-.93-.27-1.55.5.44.53.97.27,1.55Z"/>
  <path class="cls-7" d="m202.93,372.88c.64-.51,1.13-.31,1.54.31-.58.22-1.11.19-1.54-.31Z"/>
  <path class="cls-7" d="m790.9,604.92c-.62-.4-.83-.89-.33-1.54.51.43.55.95.33,1.54Z"/>
  <path class="cls-7" d="m188.59,356.64c.53.6.32,1.1-.2,1.56-.3-.57-.3-1.09.2-1.56Z"/>
  <path class="cls-7" d="m219.81,387.85c.52.63.3,1.12-.28,1.55-.25-.58-.22-1.11.28-1.55Z"/>
  <path class="cls-7" d="m195.55,370.83c.58-.25.97-.05,1.23.5-.55.18-.93-.05-1.23-.5Z"/>
  <path class="cls-7" d="m703.32,222.18c.1-.63.47-.89,1.1-.78-.18.52-.54.79-1.1.78Z"/>
  <path class="cls-7" d="m701.52,224.23c-.09-.63.18-.98.8-1.08,0,.56-.26.92-.8,1.08Z"/>
  <path class="cls-7" d="m208.6,321.04c.04.61-.24.96-.84,1.05,0-.57.3-.91.84-1.05Z"/>
  <path class="cls-7" d="m603.19,154.85c-.28.42-.59.74-1.07.23.29-.38.65-.45,1.07-.23Z"/>
  <path class="cls-7" d="m195.56,339.7c.13.6-.09.98-.68,1.15-.07-.56.17-.94.68-1.15Z"/>
  <path class="cls-7" d="m191.62,347.34c.24.59.04.98-.53,1.22-.15-.55.09-.93.53-1.22Z"/>
  <path class="cls-7" d="m190.62,349.73c.28.58.09.97-.47,1.23-.18-.54.04-.93.47-1.23Z"/>
  <path class="cls-7" d="m198.62,371.9c.49-.48.79-.15,1.07.26-.43.23-.79.13-1.07-.26Z"/>
  <path class="cls-7" d="m205.33,373.36c.48-.51.79-.19,1.08.22-.42.23-.78.17-1.08-.22Z"/>
  <path class="cls-7" d="m217.87,379.63c.62.13.87.5.74,1.12-.52-.2-.77-.57-.74-1.12Z"/>
  <path class="cls-7" d="m219.29,390.24c.5.56.14.82-.36,1.04-.16-.44-.02-.78.36-1.04Z"/>
  <path class="cls-7" d="m210.49,404.54c.07.62-.2.97-.82,1.07,0-.57.28-.92.82-1.07Z"/>
  <path class="cls-7" d="m209.06,406.47c.06.61-.21.97-.82,1.07,0-.57.28-.92.82-1.07Z"/>
  <path class="cls-7" d="m620.94,151.54c-.31.4-.64.68-1.08.15.31-.38.68-.41,1.08-.15Z"/>
  <path class="cls-7" d="m618.06,152c-.31.41-.63.7-1.08.16.31-.38.67-.42,1.08-.16Z"/>
  <path class="cls-7" d="m199.66,419.17c.05.44-.07.77-.57.84-.43-.71-.41-.74.57-.84Z"/>
  <path class="cls-7" d="m609.91,153.46c-.3.39-.62.7-1.08.19.3-.39.66-.44,1.08-.19Z"/>
  <path class="cls-7" d="m607.51,153.94c-.3.39-.61.71-1.08.2.3-.39.66-.45,1.08-.2Z"/>
  <path class="cls-7" d="m598.87,155.84c-.29.39-.59.73-1.07.24.29-.4.65-.47,1.07-.24Z"/>
  <path class="cls-7" d="m596.95,156.31c-.28.4-.58.74-1.07.25.28-.4.64-.48,1.07-.25Z"/>
  <path class="cls-7" d="m595.03,156.8c-.33.46-.74.64-1.27.31.35-.41.75-.59,1.27-.31Z"/>
  <path class="cls-7" d="m788.96,596.28c-.46-.27-.77-.57-.25-1.07.39.28.46.64.25,1.07Z"/>
  <path class="cls-7" d="m789.39,598.21c-.42-.28-.74-.59-.23-1.07.39.29.47.65.23,1.07Z"/>
  <path class="cls-7" d="m789.83,600.13c-.39-.29-.72-.6-.22-1.08.4.29.46.65.22,1.08Z"/>
  <path class="cls-7" d="m790.37,602.53c-.43-.28-.75-.59-.23-1.07.38.29.46.65.23,1.07Z"/>
  <path class="cls-7" d="m591.66,157.68c-.26.46-.55.78-1.06.28.28-.39.63-.49,1.06-.28Z"/>
  <path class="cls-7" d="m791.28,606.85c-.4-.3-.71-.61-.2-1.08.39.3.44.66.2,1.08Z"/>
  <path class="cls-7" d="m589.75,158.19c-.32.49-.73.66-1.26.33.35-.39.75-.58,1.26-.33Z"/>
  <path class="cls-7" d="m586.38,159.11c-.25.46-.54.79-1.06.29.27-.39.62-.49,1.06-.29Z"/>
  <path class="cls-7" d="m792.7,614.53c-.39-.31-.69-.63-.17-1.08.39.31.43.67.17,1.08Z"/>
  <path class="cls-7" d="m793.11,617.77c-.34,0-.68,0-1.02,0,.07-.5.26-.91.8-1.05.08.35.15.7.23,1.05Z"/>
  <path class="cls-7" d="m565.27,165.81c-.27.53-.67.73-1.24.46.31-.44.69-.66,1.24-.46Z"/>
  <path class="cls-7" d="m559.03,168.2c-.26.54-.66.74-1.23.49.3-.45.68-.68,1.23-.49Z"/>
  <path class="cls-7" d="m556.63,169.16c-.25.54-.65.74-1.22.51.29-.46.67-.68,1.22-.51Z"/>
  <path class="cls-7" d="m536.12,170.5c-.48-.24-.85-.52-.32-1.06.42.26.52.62.32,1.06Z"/>
  <path class="cls-7" d="m553.25,170.55c-.23.57-.62.78-1.22.53.29-.45.67-.68,1.22-.53Z"/>
  <path class="cls-7" d="m547.01,173.43c-.23.58-.62.79-1.21.55.28-.46.66-.69,1.21-.55Z"/>
  <path class="cls-7" d="m735.42,205.29c.18-.58.57-.81,1.16-.66-.22.51-.59.76-1.16.66Z"/>
  <path class="cls-6" d="m219.24,309.5c-.18.39-.59.46-.93.64.19-.38.36-.8.93-.64Z"/>
  <path class="cls-7" d="m538.67,161.5c0-.18.08-.29.26-.33.11.26.01.37-.26.33Z"/>
  <path class="cls-7" d="m541.06,158.59c0-.17.07-.27.23-.3.12.26.04.35-.23.3Z"/>
  <path class="cls-7" d="m217.27,310.99c-.02.29-.17.45-.45.48.02-.29.17-.45.45-.48Z"/>
  <path class="cls-7" d="m545.39,153.33c0-.18.08-.29.26-.32.11.26.02.37-.26.32Z"/>
  <path class="cls-7" d="m547.78,150.42c0-.17.07-.27.24-.3.12.26.04.36-.24.3Z"/>
  <path class="cls-7" d="m718.63,214.16c.13-.06.27-.13.4-.19-.03.27-.15.36-.4.19Z"/>
  <path class="cls-7" d="m211.66,402.94c-.08.12-.16.23-.24.35-.12-.26-.03-.37.24-.35Z"/>
  <path class="cls-6" d="m219.71,309.06c-.18.17-.37.35-.55.52-.08-.45.07-.66.55-.52Z"/>
  <path class="cls-7" d="m190.34,367.11c.16.03.23.13.22.29-.26.04-.35-.04-.22-.29Z"/>
  <path class="cls-7" d="m739.25,203.11c.06-.16.18-.23.35-.19,0,.27-.11.36-.35.19Z"/>
  <path class="cls-9" d="m326.25,202.11c-.15.07-.25.18-.3.34-.01-.22.12-.29.3-.34Z"/>
  <path class="cls-7" d="m193.03,369.5c.13.07.25.14.38.21-.25.15-.37.06-.38-.21Z"/>
  <path class="cls-7" d="m202.54,329c.02.19-.06.32-.25.37-.12-.26-.03-.38.25-.37Z"/>
  <path class="cls-7" d="m196.78,337.61c-.07.13-.14.26-.21.38-.15-.25-.06-.37.21-.38Z"/>
  <path class="cls-7" d="m743.08,200.74c.06-.17.18-.25.36-.22,0,.27-.11.37-.36.22Z"/>
  <path class="cls-7" d="m566.18,165.49c-.11.17-.26.22-.45.15.08-.26.22-.34.45-.15Z"/>
  <path class="cls-7" d="m216.8,311.49c-.01.29-.17.45-.45.49.02-.29.17-.45.45-.49Z"/>
  <path class="cls-7" d="m207.34,408.71c.01.18-.07.3-.25.34-.12-.26-.03-.37.25-.34Z"/>
  <path class="cls-8" d="m634.73,500.98c-.18,7.2-1.94,14.04-4.73,20.63-4.39,10.36-10.31,19.81-16.97,28.84-5.38,7.31-11.5,13.93-18.19,20.01-8.58,7.79-18.04,14.28-29.08,18.13-4.14,1.44-8.4,2.35-12.8,2.88-7.47.9-14.6-.5-21.71-2.4-4.31-1.16-8.55-2.61-13-3.18-2.37-.3-4.75-.62-7.13-.7-4.71-.16-9.42-.01-14.11-.55-8.03-.92-15.97-2.2-23.29-5.89-3.97-2-7.34-4.76-10.25-8.11-1.36-1.56-2.7-3.41-4.46-4.28-1.84-.91-3.98.47-5.98.87-5,1-9.92,2.37-14.96,3.24-9,1.55-17.93,1.83-26.67-1.32-7.68-2.77-13.51-7.74-17.38-14.96-.72-1.34-1.43-2.69-2.02-4.08-.47-1.12-1.16-1.61-2.39-1.47-2.06.24-4.14.3-6.18.62-3.87.59-7.76.88-11.68.85-8.01-.07-15.56-2.01-22.32-6.26-8.92-5.61-13.93-13.63-14.71-24.41-.46-6.34,1.26-12.13,2.87-18.03.78-2.85,1.55-5.7,2.73-8.42,2.28-5.24,5.38-9.94,8.99-14.36,2.11-2.57,4.52-4.73,7.23-6.57,9.67-6.56,22.71-5.2,30.74,3.03.78.8,1.58,1.59,2.35,2.4.54.57,1.03.6,1.65.1,1.24-1,2.53-1.94,3.8-2.91,6.89-5.29,14.53-8.93,23.13-10.39,10.35-1.76,19.86.19,28.19,6.78,2.06,1.63,3.9,3.55,5.54,5.63.4.5.84.96,1.24,1.46.7.85,1.5,1.02,2.56.65,2.56-.9,5.15-1.72,7.73-2.57,7.26-2.4,14.66-3.81,22.34-3.41,11.48.6,21.49,4.53,29.34,13.16,3.64,4.01,6.03,8.8,7.87,13.88,1.15,3.18.85,3.02,3.67,1.51,6.83-3.65,13.57-7.49,20.44-11.07,8.08-4.21,16.29-8.13,24.82-11.37,7.19-2.73,14.56-4.75,22.15-5.92,7.72-1.19,15.47-1.46,22.89,1.52,9.61,3.86,15.58,10.81,17.3,21.21.29,1.75.42,3.48.42,5.25Z"/>
  <path class="cls-8" d="m374.21,623.87c.18-2.78-.32-5.82-.77-8.92-1.66-11.3,4.16-21.89,15.69-24.81,4.51-1.14,9.01-.95,13.51.08,6.33,1.45,12.35,3.8,18.31,6.33,4.93,2.09,9.84,4.21,14.73,6.37,3.59,1.58,6.89,3.72,10.25,5.73,1.93,1.15,3.97,1.97,6.17,2.5,2.61.63,5.09.03,7.57-.39,7.71-1.3,15.23-3.48,22.85-5.2,8.07-1.82,16.23-2.7,24.47-2.12,6.11.43,11.79,2.34,16.39,6.54,4.34,3.97,6.81,9,7.24,14.94.51,7.08-1.87,13.4-5.38,19.32-3.67,6.17-8.32,11.5-14.45,15.42-5.14,3.29-10.78,5.34-16.77,6.01-9.22,1.04-18.27,2.72-27.12,5.56-3.81,1.22-7.71,1.87-11.77,1.84-4.52-.03-8.39-1.72-12.12-3.98-3.02-1.83-5.59-4.24-8.3-6.47-1.45-1.19-2.96-1.47-4.69-.99-3.92,1.08-7.82,2.26-11.83,2.97-8.79,1.56-17.34,1.24-25.31-3.38-5.51-3.2-9.87-7.54-13.05-13.05-2.91-5.05-4.57-10.49-5.23-16.3-.29-2.56-.33-5.09-.38-8Z"/>
  <path class="cls-12" d="m416.66,684.9c7.22-.05,13.77,1.4,20.33,2.7,4.94.98,9.78,2.32,14.5,4.05,3.18,1.16,6.08,2.73,8.19,5.56,3.56,4.76,3.65,9.9,1.77,15.22-1.13,3.2-3.41,5.54-6.18,7.43-6.51,4.43-13.3,8.37-21.1,9.93-10.86,2.17-20.98.42-29.73-6.78-3.58-2.94-6.04-6.78-7.71-11.1-.86-2.23-1.63-4.5-2.44-6.75-2.6-7.17.36-13.29,6.45-16.66,5.09-2.82,10.64-3.74,15.93-3.61Z"/>
  <path class="cls-2" d="m266.23,649.39c-.1-3.25,1.33-5.01,2.77-6.71,1.13-1.33,2.45-2.5,3.91-3.5,3.28-2.26,6.54-4.54,9.98-6.56,1.27-.75,2.65-1.05,4.13-.95,1.66.12,3.03.89,3.53,2.42.49,1.49.65,3.21-.71,4.48-4.54,4.23-8.49,9.1-13.65,12.68-1.27.88-2.62,1.55-4.1,1.89-3.16.72-5.83-1.39-5.86-3.75Z"/>
  <path class="cls-3" d="m590.09,232.16c-.08-3.52,1.66-5.02,3.71-6.21,2.49-1.44,5.24-2.29,7.92-3.3,1.56-.59,3.08-1.3,4.73-1.62,1.56-.31,3.14.31,3.9,1.63.76,1.32.51,2.65-.35,3.81-.56.76-1.27,1.45-2.03,2.01-2.69,1.98-5.43,3.89-8.16,5.82-1.18.84-2.51,1.42-3.91,1.72-3.05.65-5.8-1.6-5.81-3.86Z"/>
  <path class="cls-2" d="m685.61,353.9c0,.95.02,1.35,0,1.75-.11,1.64-.72,2.91-2.42,3.46-1.52.49-3.32.04-4.4-1.55-1.79-2.63-3.68-5.23-4.93-8.18-.99-2.35-1.26-4.79,0-7.16,1.42-2.68,4.79-3.37,7.15-1.44,1.32,1.08,2.21,2.47,2.82,4.08,1.17,3.1,1.39,6.36,1.78,9.04Z"/>
  <path class="cls-3" d="m659.48,636.02c-2.79.25-4.54-1.69-4.98-3.34-.6-2.22.45-4.26,2.77-5.52,2.01-1.09,4.2-1.49,6.43-1.65,1.93-.14,3.8-.36,5.55-1.23.92-.45,1.88-.56,2.68.2.85.81,1.25,1.75.91,3.02-.36,1.34-1.21,2.28-2.23,3.02-2.26,1.63-4.54,3.24-7.04,4.5-1.29.65-2.65,1.11-4.09,1Z"/>
  <path class="cls-3" d="m664.68,652.38c-3.27.27-5.24-2.67-4.29-5.26.64-1.75,4.1-3.86,5.86-3.31,1.51.47,2.98.41,4.48.4.72,0,1.42.03,2.12.27,1.92.67,2.39,2.34,1.07,3.91-.1.12-.23.22-.34.33-1.69,1.7-6.48,3.67-8.9,3.66Z"/>
  <path class="cls-10" d="m308.05,373.05c.31-3.64,3.27-4.63,5.43-3.39,1.36.79,1.72,1.53.83,2.9-.62.95-.59,1.72-.23,2.68,1.28,3.44,2.5,6.9,5.03,9.69.59.66,1.1,1.44.26,2.32-.73.76-1.53.69-2.4.25-.73-.37-1.35-.88-1.85-1.5-2.83-3.48-5.32-7.17-6.69-11.51-.17-.53-.29-1.07-.39-1.45Z"/>
  <path class="cls-10" d="m301.33,382.29c-.25,1.8.3,3.45,1.11,5.04.33.64.64,1.29,1.45,1.47,1.06.24,1.4,1,1.26,1.98-.15,1.08-.86,1.69-1.9,1.86-1.33.22-2.55-.08-3.57-.99-2.22-1.96-3.59-4.51-4.5-7.24-.69-2.07.54-4.46,2.46-5.48,2.11-1.12,3.6-.26,3.69,2.13.02.4,0,.8,0,1.22Z"/>
  <path class="cls-10" d="m489.41,197.94c-.1-.99.07-1.92.44-2.82.81-1.99,2.71-2.79,4.7-1.97,1.73.71,2.4,2.41,1.59,4.36-.65,1.56-1.07,3.1-1.04,4.84.03,1.72-1.42,2.45-3.02,1.77-1.11-.47-1.82-1.33-2.11-2.44-.31-1.22-.71-2.46-.56-3.74Z"/>
  <path class="cls-10" d="m712.51,324.47c-.13,2.02-.96,3.86-1.84,5.61-.72,1.45-2.97,1.4-4.13.05-1.48-1.73-2.08-3.79-1.63-6.02.34-1.68,1.49-2.82,3.14-3.3,1.35-.4,2.48.15,3.49,1.07.78.71,1.03,1.58.97,2.6Z"/>
</svg>