<?xml version="1.0" encoding="UTF-8"?>
<svg id="_图层_1" data-name="图层 1" xmlns="http://www.w3.org/2000/svg" viewBox="0 0 960 960">
  <defs>
    <style>
      .cls-1 {
        fill: #00ef26;
      }

      .cls-1, .cls-2, .cls-3, .cls-4, .cls-5, .cls-6, .cls-7, .cls-8, .cls-9, .cls-10, .cls-11, .cls-12, .cls-13, .cls-14, .cls-15, .cls-16, .cls-17, .cls-18, .cls-19, .cls-20, .cls-21, .cls-22, .cls-23, .cls-24, .cls-25, .cls-26, .cls-27, .cls-28, .cls-29, .cls-30, .cls-31, .cls-32, .cls-33, .cls-34, .cls-35, .cls-36, .cls-37, .cls-38, .cls-39, .cls-40, .cls-41, .cls-42, .cls-43, .cls-44, .cls-45, .cls-46, .cls-47 {
        stroke-width: 0px;
      }

      .cls-2 {
        fill: #051305;
      }

      .cls-3 {
        fill: #082609;
      }

      .cls-4 {
        fill: #067a17;
      }

      .cls-5 {
        fill: #00af1e;
      }

      .cls-6 {
        fill: #f7b9a0;
      }

      .cls-7 {
        fill: #085711;
      }

      .cls-8 {
        fill: #010101;
      }

      .cls-9 {
        fill: #095111;
      }

      .cls-11 {
        fill: #086213;
      }

      .cls-12 {
        fill: #072809;
      }

      .cls-13 {
        fill: #072509;
      }

      .cls-14 {
        fill: #086d15;
      }

      .cls-15 {
        fill: #00a61d;
      }

      .cls-16 {
        fill: #ccc7c7;
      }

      .cls-17 {
        fill: #062108;
      }

      .cls-18 {
        fill: #09400e;
      }

      .cls-19 {
        fill: #00c220;
      }

      .cls-20 {
        fill: #030e04;
      }

      .cls-21 {
        fill: #b16b1f;
      }

      .cls-22 {
        fill: #093e0d;
      }

      .cls-23 {
        fill: #fff;
      }

      .cls-24 {
        fill: #fffefd;
      }

      .cls-25 {
        fill: #b7ceff;
      }

      .cls-26 {
        fill: #feffff;
      }

      .cls-27 {
        fill: #076e15;
      }

      .cls-28 {
        fill: #1d1a1a;
      }

      .cls-29 {
        fill: #767e7e;
      }

      .cls-30 {
        fill: #028a19;
      }

      .cls-31 {
        fill: #00f627;
      }

      .cls-32 {
        fill: #095711;
      }

      .cls-33 {
        fill: #00dc24;
      }

      .cls-34 {
        fill: #00da23;
      }

      .cls-35 {
        fill: #e3dbda;
      }

      .cls-36 {
        fill: #09320b;
      }

      .cls-37 {
        fill: #02901a;
      }

      .cls-38 {
        fill: #00be20;
      }

      .cls-39 {
        fill: #454795;
      }

      .cls-40 {
        fill: #028919;
      }

      .cls-41 {
        fill: #938f8f;
      }

      .cls-42 {
        fill: #00f427;
      }

      .cls-43 {
        fill: #ffd741;
      }

      .cls-44 {
        fill: #a96861;
      }

      .cls-45 {
        fill: #051405;
      }

      .cls-46 {
        fill: #09450f;
      }

      .cls-47 {
        fill: #5a7dff;
      }
    </style>
  </defs>
  <path class="cls-10" d="m712.8,319.82c-1.58-11.03-4.92-21.45-10.9-30.94-2.45-3.9-5.34-7.39-9.11-10.06-1-.71-1.3-1.32-.82-2.51,1.5-3.71,1.71-7.61,1.29-11.55-.69-6.46-3.62-11.42-9.38-14.73-3.86-2.22-7.96-3.23-12.33-3.39-6.16-.22-12.1,1.03-17.82,3.17-8.07,3.02-16.07,6.25-24.07,9.45-7.49,2.99-14.93,6.09-22.87,7.75-6.1,1.28-12.13,2.85-18.47,2.35-1.36-.11-2.16-.51-2.87-1.63-2.54-3.97-5.24-7.84-8.11-11.58-6.63-8.65-13.62-16.94-22.7-23.2.41-.68,1.14-.87,1.74-1.23,3-1.84,6-3.68,8.71-5.92,2.61-2.16,2.15-4.44-1.06-5.71-1.03-.57-2.04-.29-3,.13-3.29,1.46-6.69,2.64-9.96,4.14-6.61,3.03-13.25,5.99-20.11,8.44-1.31.47-2.6.72-3.99.44-4.31-.89-8.7-1.36-13.08-1.46-3.83-.1-7.69.21-11.25,1.87-2.74,1.28-4.94,3.23-5.16,6.4-.15,2.22-1.21,2.76-3.1,3.08-5.36.9-10.73,1.74-16.14,2.2-6.28.53-12.58,1.01-18.89.4-5.45-.39-10.75-1.37-15.78-3.6-6.54-2.9-8.27-7.89-4.89-14.21.34-.63.73-1.23,1.12-1.84,1.42-2.23,3.08-4.26,4.79-6.27,1.86-2.51,4.31-4.45,6.39-6.74.82-.91,1.98-1.71,1.51-3.23-.47-.92-1.17-1.28-2.17-.84-.66.29-1.34.54-1.95.9-6.48,3.77-12.33,8.3-16.77,14.43-.71.98-1.48,1.54-2.72,1.66-1.34.13-2.67.47-3.98.8-7.59,1.93-14.48,5.42-20.99,9.69-1.09.71-2.18,1.3-3.51,1.37-4.47.24-8.9.94-13.32,1.58-4.03.58-8.05,1.27-11.85,2.86-3.56,1.49-6.52,3.75-8.43,7.16-2.15,3.85-.57,8.01,3.53,9.61,1.43.56,2.96.65,4.46.85.73.1,1.54-.13,2.34.39-.45.58-.78,1.02-1.13,1.44-3.55,4.22-6.98,8.54-10.05,13.12-.9,1.34-1.84,1.69-3.36,1.56-8.02-.73-15.76-2.51-23.04-6.02-3.67-1.77-7.39-3.41-11.2-4.85-2.09-.79-4.22-1.45-6.44-1.8-4.95-.77-8.91.91-11.52,5.1-3.6,5.8-4.29,11.97-1.16,18.24,1.91,3.82,4.48,7.2,7.84,9.87,7.24,5.75,15.28,9.81,24.42,11.58,1.59.31,3.24.43,4.8,1.19-3.84,8.96-6.83,18.06-9.61,27.23-.35,1.14-1.01,1.84-2.01,2.5-10.63,7.06-19.38,15.89-25.23,27.35-4.09,8.01-5.93,16.49-4.93,25.51,1.09,9.82,5.13,18.39,11,26.19,3.92,5.2,8.59,9.67,13.59,13.81,1.48,1.22,2.94,2.46,4.4,3.7,4.45,4.51,10.01,7.39,15.52,10.28,15.66,8.22,32.26,13.86,49.47,17.82,23.29,5.36,46.9,7.81,70.77,8.17,3.92.06,7.82-.39,11.72-.41,6.64-.03,13.24-.57,19.83-1.16,12.5-1.13,24.9-2.96,37.18-5.6,23.64-5.08,46.43-12.48,67.47-24.67,2.21-1.28,4.49-2.46,6.22-4.4.89-.67,1.77-1.36,2.67-2.01,8.89-6.38,16.79-13.71,22.48-23.2,5.99-9.98,8.71-20.65,6.97-32.28-.16-.54-.67-1.18.41-1.35,1.01,2.06,2.1,4.08,3.4,5.97,1.24,1.83,2.54,3.62,3.81,5.43,5.92,7.74,13.57,12.36,23.48,12.05,7.64-.24,14.12-3.7,19.62-8.9,2.99-2.83,5.98-5.74,7.35-9.82,2.4-4.06,4.59-8.25,6.09-12.73,5.39-16.09,7.26-32.54,4.84-49.39Zm-75.76,40.54c-1.31-1.79-2.62-3.59-3.95-5.38-5.16-6.95-11.99-12.02-19.01-16.87-.33-.23-.63-.5-.98-.67-1.38-.69-1.75-1.67-1.61-3.27.31-3.5-.37-6.97-.85-10.44-.41-2.36,1.12-1.64,2.18-1.27,3.94,1.39,8.01,2.14,12.12,2.75,2.79.41,5.56.51,8.34.01.78-.14,1.58-.29,2.33.17-.3,4.62-.55,9.25-.45,13.89.13,6.1.94,12.1,2.21,18.05.13.62.21,1.26.31,1.89.15.59.31,1.19-.65,1.13Zm56.87-16.43c-.26,3.19-.38,6.38-1.03,9.52-.26,1.26-.67,2.47-1.19,3.63-1.34,2.97-4.07,4.56-7.33,4.27-2.38-.22-4.44-1.19-6.26-2.74-3.77-3.22-6-7.43-7.7-11.96-5.69-15.09-5.67-30.3-.88-45.59.1-.3.23-.6.28-.91.35-2.02,1.31-3.41,3.44-4.02,1.19-.34,2.24-1.21,3.57-1.96,1.65,1.63,2.95,3.46,3.98,5.43,3.96,7.57,8.04,15.08,10.62,23.28,2.16,6.87,3.09,13.85,2.51,21.04Z"/>
  <path class="cls-47" d="m444.39,219.2c1.78-2.31,3.95-4.25,5.97-6.34.87-.9,1.83-1.74,2.13-3.04,2.49.79,4.91-.2,7.35-.33,5.1-.27,10.18-.83,15.28-1.21,8.05-.59,16.13-.62,24.19-.49,13.42.21,26.82.84,40.15,2.42,5.31.63,10.59,1.47,15.79,2.76,1.16.29,2.31.64,3.45,1.01,2.98.97,4.96,2.82,5.32,6.09-1.46.13-2.76.73-4.08,1.29-7.47,3.2-14.94,6.43-22.42,9.61-2.2.93-4.47,1.7-6.68,2.61-1.38.57-2.73.6-4.2.33-5.81-1.07-11.66-1.88-17.6-1.25-2.64.28-5.2.86-7.5,2.25-2.46,1.49-3.86,3.65-3.42,6.58.2,1.33-.18,1.63-1.36,1.85-6.51,1.25-13.06,2.18-19.65,2.75-5.33.46-10.67.62-16.02.35-.63-.03-1.28.08-1.88-.25-1.43-1.38-2.93-2.68-4.52-3.86-6.28-4.65-9.05-11.12-9.57-18.7-.1-1.52-.14-3.02-.73-4.44Z"/>
  <path class="cls-39" d="m333.51,436.01c3,1.95,5.97,3.97,9.02,5.84,8.61,5.28,17.79,9.41,27.22,12.98,14.99,5.67,30.49,9.37,46.26,12.08,9.53,1.64,19.11,2.72,28.72,3.64,2.46.23,4.94.37,7.41.47,6.63.25,13.25.71,19.89.52,10.3-.29,20.58-.71,30.84-1.73,14-1.39,27.85-3.62,41.54-6.82,17.16-4.01,33.82-9.49,49.7-17.21,5.54-2.69,10.9-5.71,16.11-8.99.46-.29.84-.76,1.46-.75-.62,2.1-2.37,3.13-4.06,4.18-6.98,4.37-14.15,8.42-21.52,12.11-26.72,13.37-54.83,22.39-84.34,27.06-16.39,2.59-32.87,3.75-49.45,3.2-26.6-.88-52.36-5.74-76.95-16.24-14.14-6.03-26.78-14.25-37.58-25.23-1.56-1.59-3.16-3.16-4.27-5.13Z"/>
  <path class="cls-39" d="m651.43,388.6c1.07.47,1.66,1.47,2.44,2.24,3.92,3.88,8.3,6.94,13.72,8.39,7.42,1.98,14.24.4,20.64-3.44,5.51-3.3,9.76-7.92,13.17-13.34.12-.2.31-.35.47-.52.14,1.21.03,2.41-.45,3.53-1.51,3.52-2.86,7.11-4.83,10.42-3.89,6.58-9.74,10.26-17.23,11.2-5.42.68-10.43-.96-15.15-3.53-5.92-3.23-9.79-8.33-12.71-14.24-.1-.2-.05-.46-.08-.7Z"/>
  <path class="cls-29" d="m643.81,378.55c-.57-.76-.55-1.62-.46-2.55.71.17.84.65.87,1.2-.43.36-.15.94-.41,1.35Z"/>
  <path class="cls-6" d="m555.62,244.08c2.99,3.13,5.56,6.6,8.09,10.09,10.64,14.7,19,30.69,26.38,47.21,3.68,8.25,6.99,16.64,9.8,25.24.9,2.74,1.63,5.52,2.15,8.35.42,2.28,1.54,3.97,3.55,5.12,8,4.62,13.84,11.5,19.4,18.66,2.11,2.72,3.7,5.78,5.14,8.91,4.92,10.72,4.66,21.36-.45,31.93-2.17,4.5-5.09,8.49-8.35,12.25-7.36,8.49-16.19,15.15-25.81,20.85-14.97,8.87-31.09,14.88-47.87,19.24-16.99,4.41-34.27,6.97-51.76,8.24-16.54,1.21-33.07,1.09-49.59-.12-25.65-1.89-50.65-6.82-74.64-16.31-11.57-4.57-22.49-10.36-32.53-17.74-6.5-4.78-12.09-10.45-16.45-17.26-8.13-12.71-8.55-25.8-1.65-39.14,3.49-6.75,8.4-12.43,13.96-17.56,1.82-1.68,3.67-3.33,5.53-4.97,2.1-1.86,3.49-4.18,4.16-6.87,2.81-11.31,7.37-21.94,12.34-32.42,7.19-15.16,16.07-29.26,26.92-42.09.57-.67,1.19-1.29,1.78-1.93,1.05-.51,2.13-.52,3.27-.38,6.53.81,12.92-.06,19.17-1.95,5.87-1.78,9.5-5.39,9.25-11.96v-.02c.31-.25.21-.68.44-.96,1.33-4.18.96-5.73-2.46-9.99,3.6-2.23,7.38-3.97,11.64-5.48-.05,2.12-.34,3.98-.09,5.85.25,1.85,1.09,3.49,1.6,5.25.1.3.03-.09.09.22,1.98,10.8,9.86,16.19,18.96,20.21,5.36,2.37,11.19,3.05,17.05,3.51,4.47.35,8.93.46,13.4.4,15.59-.23,30.68-2.86,44.78-9.85,2.13-1.05,4.19-1.23,6.49-.77,4.3.86,8.61,1.68,13.06,1.54,7.32-.23,12.56-5.99,11.95-13.28-.08-.95-.64-2.12.88-2.54l.08.08c-.04.31.17.37.4.43Z"/>
  <path class="cls-43" d="m664.6,285.41c1.16,2.09.89,4.32.58,6.53-.64,4.43-2.18,8.67-2.89,13.09-2.46,15.24-1.9,30.24,3.73,44.81,1.99,5.14,4.76,9.74,9.25,13.15,2.62,1.99,5.58,3.11,8.8,3.47,6.14.67,11.48-2.82,13.52-8.79,1.44-4.21,1.58-8.62,1.83-13,.44-7.89-.43-15.63-2.89-23.16-.32-.75,0-1.42.37-2.01,2.06-3.21,3.5-6.75,5.33-10.08.41-.75.66-1.92,2.01-1.42,1.72,5.6,2.7,11.34,3.14,17.17.95,12.47.12,24.76-4.04,36.67-2.36,6.75-5.44,13.13-9.8,18.85-2.44,3.2-5.22,6.04-8.58,8.3-7.4,4.97-14.93,5.01-22.58.65-2.81-1.6-5.18-3.75-7.23-6.23-3.79-4.59-6.86-9.6-8.7-15.31,1.17.06,1.42,1.16,2.06,1.81.45.47.91.96,1.63.76.76-.22.89-.92.8-1.55-.63-4.48-.8-9.03-2.23-13.38-.05-.15-.11-.3-.19-.44-.73-1.2-1.27-2.9-2.99-2.64-1.54.24-1.43,1.88-1.63,3.12-.08.47-.16.95-.6,1.25-1.37-5.09-1.84-10.28-1.82-15.54,2.23-.48,2.94-1.91,3.45-4.13,1.74-7.56,2.12-15.39,4.52-22.79,3.32-10.26,8.32-19.7,14.38-28.6.18-.27.44-.46.75-.56Z"/>
  <path class="cls-44" d="m683.11,280.13c-1.18,2.02-2.81,3.64-4.49,5.23-1.63,1.54-3.25,3.07-4.91,4.58-.5.45-.91,1.12-1.95,1.09-.08-1.74-.03-3.48-.54-5.16-.47-1.54-1.05-3-2.06-4.28-2.96-3.8-7.51-4.43-11.45-1.66-5.55,3.9-9.67,9.01-12.82,14.95-1.54,2.89-2.98,5.84-4,8.96-.44,1.36-1.25,2.02-2.59,2.47-8.85,2.98-17.91,3.83-27.17,2.83-.16-.02-.32-.07-.48-.05-3.19.46-4.62-1.16-5.53-4.08-1.26-4.03-3.14-7.85-4.99-11.66-.24-.5-.44-1.03-.7-1.53-.42-.83-.29-1.36.72-1.51,4.93-.76,9.5-2.71,14.16-4.36,9.76-3.47,18.92-8.11,27.36-14.14,1.29-.92,2.6-1.85,3.58-3.14.65-.78,1.55-1.08,2.49-1.29,7.57-1.68,15.14-1.95,22.64.32,3.21.97,6.19,2.4,8.7,4.77,2.24,2.13,3.45,4.71,4.03,7.66Z"/>
  <path class="cls-44" d="m555.14,243.57c-.72.55-.44,1.26-.34,1.97,1.13,8.08-4.71,14.11-11.96,14.51-5,.27-9.83-.73-14.66-1.74-1.56-.33-2.93-.21-4.38.51-9.13,4.55-18.72,7.55-28.85,8.98-8.8,1.24-17.62,1.67-26.47,1.25-7.08-.33-14.15-1.04-20.85-3.65-6.79-2.64-12.42-6.85-16.7-12.73-1.81-2.48-2.83-5.35-2.43-8.54,4.98,7.29,12.56,9.72,20.71,10.98,6.81,1.06,13.67,1.39,20.54.96,10.14-.63,20.21-1.92,30.04-4.45,5.02-1.29,9.66-1.36,14.68.23,7.46,2.37,15.22,3.62,23.05,4.14,3.69.25,7.37.07,10.7-1.86,3.13-1.81,4.68-5.18,3.86-8.54-.57-2.36-1.99-4.14-4.05-5.43-1.29-.81-2.72-1.33-4.32-1.93,1.07-1.14,2.42-1.47,3.7-1.91.42-.14.74.21,1.04.47,2.37,2.12,4.67,4.32,6.69,6.78Z"/>
  <path class="cls-6" d="m683.11,280.13c-.31-.07-.69-.09-.76-.46-1.31-6.54-6.15-9.45-11.85-11.25-5.46-1.72-11.07-2.1-16.79-1.34-2.86.38-5.65.94-8.45,1.58-.23-1.19-.83-1.7-2.03-1.11-1.51.74-3.04,1.42-4.51,2.22-11.45,6.18-23.51,10.75-36.1,13.97-1.78.46-3.59.79-5.43.92-.85.06-1.52-.05-2-.92-1.29-2.38-2.65-4.71-4.17-7.38,2.18.02,4.04.4,5.92.21,11.85-1.21,23.25-4.16,34.26-8.69,7.76-3.19,15.54-6.33,23.3-9.49,4.78-1.95,9.76-3.08,14.89-3.42,3.62-.24,7.15.19,10.54,1.68,4.98,2.18,7.24,6.04,7.43,11.3.11,3.02-.49,5.89-1.97,8.53-.7,1.25-1.52,2.44-2.29,3.66Z"/>
  <path class="cls-6" d="m316.63,289.29c-3.72-4.15-4.94-8.81-2.9-14.15.43-1.13,1-2.18,1.79-3.08,1.25-1.42,2.81-2.03,4.71-1.69,1.81.32,3.56.84,5.28,1.5,3.8,1.45,7.55,3.02,11.24,4.73,7.22,3.36,14.76,5.57,22.75,6.07.22.01.43.11.9.23-2.46,4.29-4.86,8.47-7.26,12.66-.41.59-1.01.7-1.68.7-8.22.06-16.42.07-24.41-2.31-3.69-1.1-7.23-2.48-10.43-4.65Z"/>
  <path class="cls-21" d="m704.24,307.98c-.91.07-1.07.87-1.39,1.48-1.23,2.42-2.54,4.81-3.62,7.29-.73,1.7-2.25,2.91-2.71,4.74-2.67-7.61-6.18-14.83-10.05-21.89-1.43-2.6-3.16-4.98-5.11-7.2-.43-.49-.94-.97-.16-1.58,3.07-2.44,5.68-5.31,8.01-8.66,7.68,7.21,12.34,15.94,15.03,25.81Z"/>
  <path class="cls-23" d="m664.6,285.41c-.42,1.13-1.05,2.14-1.71,3.14-4.99,7.54-8.99,15.59-12.14,24.06-1.56,4.2-2.24,8.62-3.04,13.01-.73,3.99-1.01,8.06-2.26,11.95-.1.3-.14.62-.18.94-.4,3.07-.66,3.28-3.78,2.98-.52-5.27-.14-10.52.43-15.76,1.05-9.74,3.39-19.14,7.65-28.01,1.84-3.82,4.08-7.4,6.51-10.86,1.15-1.64,2.79-2.61,4.59-3.3,1.92-.73,2.89-.21,3.92,1.85Z"/>
  <path class="cls-39" d="m635.61,325.39c-5.2,1.5-10.37.73-15.53-.26-2.81-.53-5.58-1.21-8.21-2.36-1.18-.52-1.1.29-1.23.95-.64-2.99-1.29-5.97-2-9.29,5.03.73,9.78,1.5,14.65,1.04,4.81-.45,9.54-1.36,14.59-2.24-.98,4.2-1.59,8.19-2.26,12.16Z"/>
  <path class="cls-25" d="m444.39,219.2c1.41.47,1.3,1.69,1.27,2.78-.06,2.09.26,4.13.69,6.15,1.3,6.23,4.7,11.03,9.89,14.67,1.23.86,2.74,1.61,2.98,3.4-5.41-.09-10.6-1.18-15.54-3.38-1.76-.78-3.39-1.78-4.82-3.07-1.92-1.73-2.68-3.9-2.47-6.44.19-2.28,1-4.34,2.14-6.28,1.66-2.83,3.59-5.46,5.87-7.82Z"/>
  <path class="cls-44" d="m316.63,289.29c1.12-.13,1.99.53,2.9.99,5.48,2.77,11.34,4.1,17.4,4.85,3.83.48,7.64.37,11.47.42,1.58.02,3.17,0,4.75,0-1.38,2.77-2.79,5.52-4.13,8.31-.42.88-.95,1.05-1.88.92-10.42-1.46-19.74-5.42-27.79-12.23-1.08-.91-2.18-1.87-2.71-3.27Z"/>
  <path class="cls-44" d="m417.38,249.48c1.05,4.05-.24,7.55-3.69,10.01-3.06,2.18-6.59,3.17-10.2,3.86-4.07.78-8.2,1.16-12.35.95-1.82-.09-3.64-.35-5.46-.53.13-.19.26-.39.39-.58,2.12-3.3,5.25-4.42,9.06-4.74,3.96-.33,7.87-1.28,11.71-2.37,4.14-1.18,7.88-3.04,10.54-6.6Z"/>
  <path class="cls-24" d="m643.32,357.03c.07-1.03.02-2.08.23-3.07.22-1.03.8-1.95,1.94-2.21,1.1-.25,1.79.49,2.42,1.22,1.64,1.89,2.08,4.26,2.46,6.61.49,3.06.85,6.13,1.26,9.2.02.16.07.31.08.47.07.92-.06,1.77-1.02,2.2-1.07.49-1.82-.12-2.52-.81-.74-.73-.79-1.93-1.71-2.55-1.36-3.6-2.54-7.25-3.15-11.07Z"/>
  <path class="cls-41" d="m638.16,360.69c.61.88.53,1.94.76,2.92-.17.24-.27.23-.29-.08-.27-.64-.85-1.11-.95-1.84.15-.34,0-.82.48-1.01Z"/>
  <path class="cls-16" d="m638.16,360.69c-.13.35-.09.78-.48,1.01-.24-.43-.67-.78-.65-1.34.51-.21.47-.74.65-1.13.46.39.4.95.47,1.47Z"/>
  <path class="cls-28" d="m638.63,363.53c.11-.01.2.01.29.08.39.19.62.48.51.93-.02.09-.25.21-.32.18-.52-.24-.54-.7-.47-1.19Z"/>
  <path class="cls-44" d="m417.82,248.5c.12.44-.02.76-.43.96-.1-.43.03-.76.43-.96Z"/>
  <path class="cls-44" d="m555.62,244.08c-.28,0-.43-.14-.4-.43.29,0,.41.16.4.43Z"/>
  <path class="cls-23" d="m425.03,314.75c1.15-2.45,2.27-4.9,3.45-7.33,3.82-7.85,8.92-14.76,15.52-20.48,3.77-3.26,7.94-5.8,12.96-6.87,5.08-1.08,9.51.31,13.56,3.16,5.8,4.08,9.53,9.75,12.12,16.28,1.51,3.8,2.46,7.75,3.67,11.63.37,1.17.12,2.38.23,3.57.62.74.3,1.53.06,2.28-2.91,9.43-3.96,19.13-3.27,28.92,1.06,15.09,5.69,28.81,16.71,39.77,6.14,6.1,13.72,9.26,22.23,9.35,7.94.08,15.23-2.59,21.57-7.53,5.9-4.6,10.51-10.24,13.82-16.94.18-.36.37-.71.51-1.08.42-1.13,1.06-2.47-.3-3.22-1.4-.77-2.19.54-2.82,1.53-4.27,6.77-9.34,12.78-16.13,17.16-13.89,8.97-28.13,5.77-38.64-6.17-7.58-8.61-10.78-19.05-12.07-30.24-1.33-11.58-.03-22.83,4.08-33.71,4.35-11.53,11.25-21.15,21.93-27.66,12.2-7.43,28.41-4.59,37.55,6.48,2.07,2.51,4.4,4.85,5.85,7.83.85.35,1.31.94,1.59,1.86,1.49,4.89,2.63,9.85,3.57,14.87.8,4.31,1.42,8.66,1.75,13.01.51,6.59,1.16,13.2.24,19.83-.24,1.73-.04,3.5-.46,5.24-.23.96.21,1.24,1.28.91,2.21-.69,4.4-1.35,6.69-1.77,3.29-.6,6.53-.51,9.74.17,2.12.45,4.27.44,6.4.81,8.94,1.55,16.8,5.07,22.65,12.24,2.15,2.64,3.16,5.82,3.56,9.25,1,8.6-2.53,15.46-7.89,21.76-6.95,8.16-15.75,13.9-24.74,19.42-9.72,5.96-20.14,10.35-30.85,14.17-11.22,4-22.79,6.64-34.4,9.15-5.99,1.3-11.99,2.6-18.06,3.48-3.62.53-7.25.99-10.9,1.35-10.12.99-20.25,1.07-30.39.83-5.25-.13-10.48-.69-15.72-1.24-7.29-.77-14.5-2.05-21.76-3.05-13.49-1.85-26.6-5.21-39.24-10.27-6.9-2.76-13.48-6.2-19.77-10.21-4.65-2.97-9.27-5.98-13.46-9.55-5.99-5.11-11.14-10.97-15.01-17.9-2.12-3.8-3.59-7.78-4.43-12.06-1.56-7.93,2.38-14.86,9.95-17.71,5.96-2.25,11.94-2.69,18-.44.35.13.7.4,1.27.08-.44-2.5-1.13-5.02-1.42-7.6-.67-5.87-1.01-11.72-.46-17.65.5-5.33,1.17-10.6,2.5-15.79,1.61-6.28,3.69-12.38,6.94-18.03.35-.61.82-1.2.76-1.98,4.86-5.65,10.08-10.87,16.7-14.52,11.03-6.08,23.36-2.6,30.48,8.69,4.64,7.36,6.5,15.56,7.19,24.1.07.87-.02,1.76.13,2.63.32,1.85-.63,2.75-2.3,2.94-1.98.23-1.88-1.31-1.93-2.57-.17-5.38-.87-10.68-2.56-15.8-1.56-4.75-3.82-9.12-7.53-12.64-5.17-4.89-11.99-6-18.41-3.02-5.44,2.52-9.25,6.71-12.43,11.62-5.22,8.07-8.23,16.98-9.44,26.43-1.45,11.27-1.59,22.5,3.14,33.22,1.77,4.01,4.24,7.54,7.74,10.21,6.79,5.17,15.79,4.16,22.9-2.48,1.58-1.47,3.05-3.04,4.49-4.66,1.18-1.33,1.87-1.16,2.63.46.84,1.78.92,3.47-.35,5.17-3.53,4.73-7.55,8.89-12.76,11.77-8.57,4.74-19.54,3.02-27.26-4.23-2.77-2.61-4.84-5.72-6.71-9-.32-.56-.58-1.14-.96-1.66-.24-.33-.56-.7-.96-.58-.57.16-.55.72-.47,1.2.19,1.19.58,2.34,1.05,3.43,3.99,9.22,10.43,15.77,20.6,17.55,9.23,1.62,17.38-1.2,24.4-7.32,1.56-1.36,2.97-2.9,4.39-4.43,1.62-1.74,2.24-1.68,3.16.57,1.56,3.77,3.13,7.54,5.38,10.96.66,1,1.13,2.81,2.66,2.18,1.62-.66.95-2.39.53-3.62-2.86-8.4-5.93-16.72-8.62-25.18-.97-3.05-1.9-6.11-2.49-9.26-.18-.95-.31-1.89-.31-2.86.08-.87-.09-1.82.81-2.41.73-.08,1.2.39,1.64.83,5.16,5.16,14.54,2.83,18.56-1.69,2.29-2.57,4.12-5.49,5.15-8.82.31-1.01.3-2.05.04-3.08-.06-.37-.06-.74,0-1.11.15-.63.18-1.27.14-1.91-.03-.72-.08-1.44-.18-2.15-.33-2.46-.13-2.61,2.42-2.82,10.32-.84,20.53.38,30.74,1.62,1.29.16,2.55.17,3.77-.3.6-.23,1.23-.5,1.35-1.22.14-.86-.51-1.28-1.11-1.68-.81-.54-1.75-.77-2.71-.9-5.85-.8-11.73-1.31-17.6-1.91-7.59-.77-15.14-.32-22.7.18-1.09.07-2.27.07-2.43-1.29-.37-3.16-.96-6.31-1.02-9.51,0-.4.19-.77.5-1.05Z"/>
  <path class="cls-10" d="m425.03,314.75c.24,3.5,1.07,6.95,1.03,10.48-.01.97.59.92,1.3.83,3.89-.47,7.8-.59,11.72-.68,8.09-.19,16.12.66,24.14,1.58,1.83.21,3.65.46,5.47.68,1.38.17,2.65.66,3.74,1.48,1.41,1.05,1.23,2.69-.38,3.41-1.55.69-3.19.89-4.92.65-7.2-1-14.44-1.69-21.71-1.9-3.75-.11-7.49.09-11.59.17.68,1.71,1.07,3.3.77,4.96-.35.36-.05.9-.33,1.28-.04.33-.07.67-.11,1-.37,2.56-2.22,4.26-3.9,5.84-3.52,3.29-7.61,5.83-12.39,6.91-3.45.78-6.84.74-9.56-2.06-.05-.03-.11-.08-.17-.12.03,1.65-.28,3.31.07,4.95.37,3.92,1.58,7.65,2.72,11.39,2.31,7.56,5,14.99,7.73,22.41.55,1.5,1.1,3,1.36,4.59.12.72.17,1.43-.09,2.13-.53,1.45-1.9,1.82-3.02.75-.45-.43-.76-1.02-1.1-1.56-2.38-3.8-4.35-7.81-5.94-12-.23-.59-.35-1.24-.82-1.74-.8.44-1.15,1.28-1.71,1.93-6.42,7.47-14.37,11.79-24.37,11.91-4.67.05-9.02-1.14-13.02-3.52-6.92-4.11-11.32-10.19-13.59-17.86-.32-1.06-.86-2.4.5-2.96,1.42-.58,1.86.88,2.36,1.81,1.48,2.75,3.03,5.45,5.11,7.8,5.38,6.08,11.95,9.52,20.27,8.87,4.51-.35,8.48-2.16,12.07-4.83,3.49-2.6,6.34-5.83,8.92-9.32.84-1.14,1.17-2.21.56-3.51-.36-.77-.28-1.72-.97-2.38-.78.5-1.18,1.31-1.74,1.97-2.88,3.38-6.07,6.37-10.21,8.16-6.95,3.01-13.29,1.97-18.85-3.15-4.76-4.38-7.23-10.07-8.78-16.2-2.25-8.9-2.06-17.9-.74-26.9,1.02-6.91,2.94-13.57,5.95-19.9,2.03-4.28,4.52-8.28,7.7-11.81,3.38-3.76,7.36-6.59,12.4-7.74,4.09-.93,7.94-.32,11.56,1.74,3.26,1.86,5.81,4.46,7.78,7.65,3.36,5.41,4.94,11.39,5.71,17.63.35,2.85.52,5.71.34,8.6.44,0,.69.05.91,0,2.42-.63,2.37-.63,2.24-3.2-.3-6.26-1.33-12.38-3.48-18.29-1.63-4.48-3.97-8.54-7.27-12.02-6.87-7.26-15.93-8.93-24.94-4.57-5.78,2.8-10.5,6.95-14.74,11.69-1,1.12-1.89,2.4-3.46,2.86-1.17-.73-1.32-1.7-.7-2.87.08-.14.15-.28.24-.42,5.73-8.62,12.95-15.44,23.15-18.38,9.01-2.59,17.07-.67,23.98,5.73,3.76,3.48,6.37,7.77,8.43,12.41,1.76,3.95,3.07,8.06,3.94,12.3.09.46.08.96.44,1.34Z"/>
  <path class="cls-10" d="m557.62,301.47c-1.08-.5-1.63-1.51-2.29-2.4-1.92-2.56-3.91-5.06-6.25-7.25-10.4-9.78-24.69-10.99-36.5-2.92-7.76,5.31-13.44,12.47-17.49,20.91-5.73,11.98-7.65,24.63-6.37,37.8.69,7.13,2.35,14.01,5.39,20.52,2.89,6.19,6.86,11.54,12.41,15.59,9.35,6.82,19.21,7.61,29.49,2.17,7.48-3.97,12.97-10.02,17.57-16.98.62-.93,1.18-1.91,1.89-2.77.88-1.08,2.02-1.33,2.96-.81.95.53,1.32,1.56.95,2.94-.16.61-.43,1.2-.71,1.77-3.29,6.69-7.75,12.48-13.53,17.2-6.25,5.12-13.41,8.04-21.51,8.34-7.79.29-14.79-2.12-20.99-6.83-5.32-4.05-9.24-9.25-12.35-15.1-5.36-10.09-7.72-20.91-7.81-32.28-.07-8.62,1.22-17.03,3.7-25.28.14-.46.23-.93.35-1.39,1.26-3.09,2.35-6.25,3.82-9.26,2.97-6.07,6.51-11.74,11.41-16.45,5.71-5.48,12.28-9.39,20.16-10.87,6.93-1.3,13.53-.34,19.73,3.02,6.69,3.63,11.92,8.8,15.7,15.41.55.97,1.01,2,1.41,3.04.39,1.02,0,1.71-1.13,1.87Z"/>
  <path class="cls-10" d="m551.74,329.34c-.1,10.34-1.94,20.32-6.24,29.79-2.1,4.62-4.81,8.83-8.52,12.35-2.34,2.22-4.94,4.03-7.95,5.23-5.52,2.21-10.78,1.68-15.82-1.39-3.85-2.35-6.68-5.67-8.89-9.54-3.37-5.92-5.19-12.34-6.08-19.05-1.59-11.93-.55-23.58,3.53-34.94,2.45-6.81,6.42-12.65,11.35-17.87,1.71-1.81,3.7-3.3,5.94-4.41,6.47-3.2,12.66-2.73,18.49,1.55,3.48,2.56,5.99,5.95,7.97,9.75,3.22,6.18,4.91,12.79,5.72,19.67.34,2.94.6,5.88.51,8.85Z"/>
  <path class="cls-8" d="m460.02,413.08c3.08.31,6.37.24,9.59.94,1.88.41,3.71,1,5.29,2.13,2.47,1.77,2.6,4.18.36,6.24-1.37,1.27-3.06,2.01-4.79,2.64-3.16,1.17-6.45,1.82-9.78,2.2-6.61.76-13.22.89-19.75-.73-1.48-.37-2.9-.9-4.16-1.78-2.82-1.97-2.93-4.75-.27-6.96,1.37-1.13,2.98-1.83,4.65-2.4,6.07-2.04,12.34-2.39,18.85-2.31Z"/>
  <path class="cls-44" d="m408.4,348.75c2.66,2.62,5.86,3.07,9.29,2.1,6.58-1.86,12.02-5.38,15.74-11.27.21-.33.31-.74.73-.9.81,1.18.56,2.44.14,3.63-1.41,4.05-3.61,7.64-6.94,10.36-3.59,2.93-7.84,3.68-12.35,2.94-2.62-.43-4.78-1.66-6.27-3.93-.61-.92-1.46-1.82-.33-2.94Z"/>
  <path class="cls-35" d="m408.4,348.75c-.36,1.03.22,1.96.33,2.94-.83.7-.16,1.72-.52,2.52-.69-2.05-.77-4.16-.78-6.29.78-.14.8.43.97.84Z"/>
  <path class="cls-44" d="m434.27,337.68c-.18-.5-.07-.93.33-1.28.2.51.1.94-.33,1.28Z"/>
  <path class="cls-31" d="m393.91,349.22c-.5-3.3-1.01-6.61-1.5-9.86-.95-.24-1.27.45-1.75.82-4.55,3.54-8.68,2.34-10.68-3.1-1-2.72-1.44-5.56-1.84-8.41-.05-.39-.02-.8-.38-1.21-1.54.45-3.1,1.11-4.82.82-1.56-.26-1.83-.54-1.42-2.02,2.04-7.3,4.92-14.19,9.83-20.08,1.28-1.54,2.75-2.89,4.28-4.19.77-.65,1.44-.81,2.35-.23,2.7,1.74,5.29,3.64,7.51,5.93,3.6,3.72,2.87,8.93-1.58,11.62-1.56.95-3.27,1.69-4.98,2.35-1.35.52-1.8,1.34-1.66,2.74.2,2.07.28,4.15.4,6.22.05.91.43,1.27,1.39,1.04.85-.2,1.74-.24,2.61-.32,3.13-.3,4.72.85,5.17,3.92.51,3.48.9,6.97,1.37,10.45.12.87.34,1.72.51,2.58.4.74.77,1.48.91,2.32.15,1.25.48,2.47.82,3.67.18,1.65,1.94,2.26,2.46,3.68.53,1.83.36,3.48-1.19,4.79-.53.29-1.08.54-1.71.49-.97-.04-1.82-.39-2.61-.93-.19-.13-.36-.28-.53-.43-.17-.15-.32-.32-.46-.5-.41-.54-.76-1.11-.99-1.75-.2-.65-.33-1.31-.53-1.96-.21-.91-.16-1.86-.48-2.75-.22-.94-.17-1.92-.46-2.85-.26-.96.59-1.93-.04-2.88Z"/>
  <path class="cls-42" d="m398.78,366.69c-2.23,3.02-5.12,5.21-8.59,6.57-4.78,1.87-9.13.68-12.66-3.3.23-1.56,1.5-1.13,2.41-1.17,2.85-.11,5.71.09,8.54-.52,2.49-.53,4.97-.98,7.29-2.13.97-.48,2.36-1.52,3,.54Z"/>
  <path class="cls-45" d="m370.85,355.98c-.96-.99-.3-2.29-.62-3.42-.22-.76.72-1.11,1.26-1.15,1.86-.15,3.64-.55,5.59-.45,3.6.17,7.17,1.22,10.88.36,1.87-.43,3.92-.43,5.88-.65.54,1.79-.85,1.98-1.96,2.19-3.52.67-7.06,1.31-10.48,2.37-1.97.61-3.83,1.54-5.96,1.61-1.61.05-3.19.09-4.59-.87Z"/>
  <path class="cls-13" d="m370.85,355.98c1.57-.36,3.1.27,4.69.23,2.43-.06,4.35-1.35,6.55-1.9,3.32-.82,6.66-1.51,10.01-2.14.96-.18,1.74-.32,1.74-1.5.02-.49.04-.97.06-1.46.59.87.45,1.87.5,2.83.25.5.21,1.01.08,1.52-.34.49-.88.67-1.4.86-2.38.9-4.66,1.96-6.92,3.18-3.03,1.64-6.51,2.09-10.01,1.65-1.26-.16-2.51-.54-3.72.18-.18.17-.39.29-.63.37-.55-.35-.46-.91-.48-1.44-.42-.4-.02-1.06-.47-1.45,0-.32,0-.64,0-.96Z"/>
  <path class="cls-38" d="m397.26,361.73c.79.32,1.47.93,2.37.98.58,1.7-.8,2.09-1.84,2.45-5.86,2.02-11.71,4.16-18.08,3.78-1.03-.06-2.07.02-3.11,0-.75-.44-1.06-1.21-1.42-1.94-.49-1.82,1.01-1.49,1.85-1.55,1.98-.13,3.96-.39,5.92-.43,5.02-.1,9.7-1.47,14.29-3.29Z"/>
  <path class="cls-30" d="m397.26,361.73c-.13,1.12-1.07,1.24-1.88,1.5-3.91,1.24-7.79,2.36-11.98,2.46-2.34.05-4.71.33-7.07.37-.66.01-1.04.28-1.13.94-.83-.78-1.25-1.78-1.53-2.85,1.06-.99,2.4-.73,3.62-.67,4.96.23,9.78-.47,14.54-1.8,1.47-.41,2.83-.96,4.02-1.92l.95,1.48c.14.18.27.37.46.49h0Z"/>
  <path class="cls-9" d="m394.9,354.91c.59.91.4,1.94.45,2.93.69,1.82-.27,2.68-1.84,3.2-5.44,1.79-11,2.73-16.74,2.2-1.2-.11-2.38-.17-3.58,0-.55-.55-.81-1.23-.91-1.98-.18-.27-.15-.5.11-.7.73-.45,1.52-.43,2.32-.3,5.06.83,9.98.13,14.87-1.23,2.36-.66,4.52-1.49,5.32-4.12Z"/>
  <path class="cls-18" d="m394.9,354.91c-.02.4-.1.8-.05,1.19.17,1.25-.46,1.9-1.55,2.33-2.59,1.04-5.24,1.82-7.98,2.32-2.74.5-5.52.57-8.3.52-1.59-.03-3.1-.76-4.72-.48-.3-.02-.3-.34-.47-.49-.01-.16-.03-.32-.03-.47.01-.16.02-.32.02-.48.76-.7,1.64-.4,2.49-.28,5.49.79,10.76-.17,15.91-2.03,1.81-.65,3.08-1.92,4.12-3.47.02-.51.04-1.02.07-1.52.6.88.43,1.89.49,2.87Z"/>
  <path class="cls-33" d="m376.61,368.94c.62-.74,1.47-.5,2.23-.47,4.42.18,8.61-.63,12.79-2.11,1.97-.7,4.13-1,6.1-1.81.86-.36,1.88-.6,1.9-1.84.7.02,1.4.04,2.1.07-.77,1.47-1.69,2.81-2.95,3.91-.8-1.09-1.73-.59-2.54-.1-3.45,2.12-7.37,2.37-11.22,2.8-1.82.2-3.67.02-5.51.04-.7,0-1.46-.18-1.98.53-.26-.05-.41-.21-.48-.45-.11-.22-.24-.42-.45-.57h0Z"/>
  <path class="cls-27" d="m373.2,363.24c.22-1.29,1.24-1.13,2.05-.98,6.26,1.14,12.26-.03,18.22-1.89,1.36-.43,2.06-1.08,1.88-2.53.52.55.41,1.25.49,1.91-.02.76-.2,1.25-1.05,1.62-2.8,1.22-5.8,1.6-8.74,2.28-4.1.94-8.26.29-12.39.49-.35-.2-.41-.55-.46-.9Z"/>
  <path class="cls-17" d="m399.17,350.71c-.35-.76-.56-1.55-.44-2.4.44.15.87.41,1.31.45,1.96.14,1.96.12,2,1.99,0,.47,0,.94,0,1.41-1.46.51-2.61.42-2.87-1.44Z"/>
  <path class="cls-18" d="m399.17,350.71c.45.63.77,1.41,1.84,1.05.27-.09.68.25,1.03.4-.06,1.15.7,2.18.45,3.36-.95.06-1.77-.19-2.39-.95-.59-1.21-.98-2.48-.93-3.85Z"/>
  <path class="cls-7" d="m400.09,354.55c.79.33,1.9-.13,2.39.95.14.83.29,1.65.43,2.48-1.07-1.04-2.96-1.4-2.82-3.43Z"/>
  <path class="cls-45" d="m370.86,356.94c.56.35.46.92.47,1.45-.55-.35-.46-.92-.47-1.45Z"/>
  <path class="cls-36" d="m371.84,360.3c.16.16.31.33.47.49,0,.16-.01.32-.02.47-.37-.22-.46-.57-.45-.97Z"/>
  <path class="cls-38" d="m376.6,368.94c.26.1.41.29.45.57-.26-.1-.41-.29-.45-.57Z"/>
  <path class="cls-31" d="m539.27,358.4c-.67,1.36-1.39,2.69-2.44,3.8-1.56.96-2.52-.39-3.68-.96-.35-.24-.67-.52-.98-.82-.15-.13-.29-.28-.43-.42-.14-.13-.27-.28-.4-.42-.32-.35-.7-.64-1.08-.93-.38-.31-.65-.71-.95-1.1-.36-.48-.66-1-1.02-1.49-.37-.52-.7-1.07-.95-1.67-.34-.96-.66-1.92-.99-2.88-.17-.71-.4-1.41-.37-2.15.06-1.67.28-3.34-.13-5,.04-.68-.26-.86-.86-.6-.95.42-1.93.75-2.98.82-2.89.21-4.94-.92-6.23-3.52-.79-1.59-1.15-3.32-1.45-5.05-.46-2.59-.95-5.18-1.11-7.82-.04-.62-.05-1.28-.55-1.78-.83.08-1.47.61-2.19.93-1.17.52-2.36,1-3.63,1.18-3.02.43-3.68-.28-3.22-3.24,1.25-8.05,3.77-15.66,7.87-22.72,1.43-2.45,3.31-4.48,5.51-6.26.96-.77,1.75-.93,2.78-.24,3.96,2.68,7.36,5.92,9.72,10.1,2.09,3.71,1.47,7.48-1.51,10.54-1.52,1.56-3.3,2.8-5.2,3.82-1.19.64-1.73,1.42-1.76,2.81-.08,3.99-.68,7.97-.04,11.96.09.55.1,1.12.22,1.66.33,1.39.64,1.54,2.01.99.74-.3,1.43-.7,2.16-1.03,3.17-1.4,5.67-.25,6.74,3.06.3.92.42,1.87.48,2.83.07,1.03.05,2.08.39,3.08.24.26.35.6.48.92.18.76.14,1.56.37,2.32.21.92.38,1.85.84,2.7.25.55.57,1.05.92,1.55.21.33.4.68.65.99.34.39.73.71,1.16,1,.94.82,2.7,1.14,1.86,3.04Z"/>
  <path class="cls-2" d="m525.86,344.37c.57,1.71.41,3.49.5,5.24.45,1.36-.43,1.91-1.46,2.28-2.25.81-4.41,1.82-6.4,3.16-3.61,2.44-7.78,2.5-11.89,2.85-.81-1.03-.95-2.28-1.26-3.43.23-.18.36-.35.48-.35,2.84.2,5.38-.84,8.04-1.64,3.08-.92,6.29-1.48,9.43-2.26,2.32-.58,2.49-.8,2.5-3.24,0-.87.03-1.75.05-2.62Z"/>
  <path class="cls-3" d="m506.61,357.91c.07-.41.22-.8.66-.9.38-.08.8-.11,1.19-.06,4.56.52,8.28-1.44,11.92-3.83,1.21-.8,2.71-1.22,4.12-1.66,1.01-.31,1.76-.7,1.86-1.85.46.6.42,1.3.45,2,.7,1.77-.08,2.91-1.61,3.7-3.91,2.03-7.91,3.83-12.32,4.44-1.99.28-3.96.08-5.79-.89-.38-.21-.45-.57-.47-.95Z"/>
  <path class="cls-1" d="m534.5,365.22c-2.87,3.59-6.35,6.18-11.03,6.85-1.86.27-3.63.08-5.32-.75-1.07-1.02-.07-1.17.61-1.54,2.79-1.56,5.81-2.57,8.81-3.6,2.12-.73,4.09-1.78,6.11-2.71.54-.25,1.85-1.35,1.73.66h0c-.15.19-.33.33-.44.54l.02-.02c-.23.14-.39.33-.47.58Z"/>
  <path class="cls-34" d="m535.4,364.12c-.05-.45-.17-.75-.73-.55-1.21.42-2.19,1.23-3.37,1.74-2.92,1.26-5.89,2.34-8.92,3.25-.45.14-.93.33-1.27.64-.79.7-1.55,1.29-2.73,1.23-.61-.03-.32.54-.24.9-.97-.15-1.78-.6-2.47-1.27-.59-1.46.4-2.19,1.47-2.48,5.64-1.48,10.85-3.95,15.89-6.8,1.37.21,2.25,1.7,3.79,1.44-.31.76-.76,1.42-1.43,1.91Z"/>
  <path class="cls-19" d="m533.03,360.77c-1.77,2.3-4.43,3.24-6.94,4.26-2.83,1.15-5.6,2.57-8.7,3-1.06.15-1.57.97-1.72,2.01-1.23-.49-2.09-1.43-2.9-2.42-.19-1.21.74-1.51,1.56-1.7,6.11-1.45,11.89-3.83,17.71-6.09.47.16.78.5.99.93Z"/>
  <path class="cls-22" d="m507.09,358.86c1.26.05,2.5-.03,3.77.33,1.56.44,3.2-.12,4.64-.58,3.21-1.03,6.4-2.2,9.4-3.82,1.36-.73,2.08-1.65,1.91-3.19.57.86.81,1.83.99,2.82.57,1.34-.14,2.15-1.21,2.7-5.81,2.94-11.86,4.9-18.51,4.12-.65-.66-.78-1.54-.99-2.39Z"/>
  <path class="cls-15" d="m532.04,359.83c-.99,1.59-2.86,1.57-4.31,2.3-4.21,2.1-8.79,3.11-13.29,4.36-.74.21-1.35.41-1.68,1.13-.77-.54-1.38-1.22-1.82-2.05.38-1.55,1.79-1.26,2.83-1.51,4.71-1.11,9.5-1.9,13.95-3.94,1.02-.47,1.97-1.01,2.86-1.69.47.15.77.48.98.92.18.14.3.33.47.48h0Z"/>
  <path class="cls-40" d="m530.6,358.43c.11.84-.25,1.36-1.03,1.66-3.1,1.22-6.2,2.38-9.46,3.19-3.05.76-6.24,1-9.16,2.29-.55-.31-.73-.87-1-1.38-.49-1.54.73-1.43,1.59-1.63,2.78-.63,5.65-.48,8.44-1.19,3.42-.87,6.53-2.39,9.66-3.93.32.33.63.66.95.98Z"/>
  <path class="cls-32" d="m508.08,361.25c.63-.73,1.48-.47,2.25-.46,2.72.04,5.4-.37,8.01-1.03,2.76-.7,5.36-1.94,7.94-3.14.84-.39,1.68-1,1.52-2.19.48.43.66,1.02.88,1.59.69,1.16.01,1.82-.94,2.23-4.22,1.83-8.43,3.61-13.13,4.06-1.87.18-3.77.04-5.62.44-.5-.38-.67-.97-.92-1.5Z"/>
  <path class="cls-14" d="m509,362.75c.09-.81.6-1.13,1.34-.94,2.9.74,5.64-.14,8.38-.85,3-.78,5.87-1.99,8.74-3.17.82-.34,1.38-.79,1.24-1.77.52.34.71.91.97,1.43,0,.68-.5.94-1,1.2-4.33,2.29-8.83,3.98-13.82,4.06-1.35.02-2.63.61-4.01.52-.59-.04-.76.47-.87.96-.56-.32-.87-.81-.95-1.44Z"/>
  <path class="cls-46" d="m534.36,352.19c-.71-.84-.99-1.82-.96-2.9,2.22-1.36,4.65-2.29,7.08-3.15,1.18-.42,2.44-.7,3.57.25-.07,1.2-.38,2.33-.96,3.39-2.25-1.18-3.66.68-5.35,1.49-1.08.52-1.94,1.81-3.4.93Z"/>
  <path class="cls-12" d="m544.06,346.39c-3.17-.37-5.78,1.24-8.47,2.49-.73.34-1.35.83-2.19.41-.48-.75-.42-1.59-.36-2.42,2.5-1,5.15-1.62,7.52-2.97.85-.48,1.82-.59,2.8-.44,1.17.18,1.76.74,1.16,1.97-.02.39-.09.75-.47.96Z"/>
  <path class="cls-20" d="m544.53,345.43c0-.78-.12-1.41-1.14-1.44-1.06-.03-2.02.15-3,.6-1.81.82-3.67,1.52-5.52,2.22-.58.22-1.2.48-1.83.06-.02-.32-.03-.64-.05-.96.44.17.86.32,1.35.06,1.33-.71,2.7-1.32,4.21-1.53.6-.08.99-.49,1.36-.89.55-.61,1.24-.92,2.02-1.17.93-.3,2.05-.69,2.68.02.75.83.63,2.04-.09,3.04Z"/>
  <path class="cls-11" d="m534.36,352.19c1.04.13,1.85-.45,2.52-1.06,1.31-1.2,2.98-1.68,4.51-2.43,1.25-.61,1.29-.54,1.72,1.07-.02.39-.1.75-.45.99-1.65.34-2.91,1.44-4.35,2.19-.93.48-1.8,1.35-3,.7-.52-.35-.87-.81-.94-1.45Z"/>
  <path class="cls-4" d="m535.31,353.64c2.12-.45,3.72-1.91,5.55-2.91.66-.36,1.2-.78,1.8.02,0,.15-.03.29-.07.43-.29.28-.2.72-.42,1.02-.02.39-.12.75-.46,1-1.2-.17-2.05.61-2.99,1.11-.91.48-1.79,1.02-2.79.21-.36-.18-.54-.5-.63-.88Z"/>
  <path class="cls-37" d="m535.93,354.52c.88.08,1.64-.09,2.41-.64.81-.58,1.77-.99,2.71-1.37.57-.23.54.36.66.69-.05.5-.07,1.01-.56,1.32-1.36.64-2.55,2-4.28.96-.44-.2-.79-.48-.94-.96Z"/>
  <path class="cls-5" d="m536.88,355.49c1.17.14,2.19-.2,3.09-.94.4-.33.79-.55,1.19-.02,0,0,0,0,0,0-.3.27-.19.72-.44,1.01-.29,1.05-.71,2.03-1.45,2.85-.01-.64-.06-1.22-.74-1.61-.6-.35-1.11-.86-1.65-1.31Z"/>
  <path class="cls-11" d="m542.17,352.2c-.04-.41.03-.78.42-1.02.03.41-.08.76-.42,1.02Z"/>
  <path class="cls-37" d="m540.72,355.55c-.04-.42.04-.78.44-1.01.03.41-.09.76-.44,1.01Z"/>
  <path class="cls-34" d="m534.5,365.22c.04-.29.2-.48.47-.58-.04.29-.21.48-.47.58Z"/>
  <path class="cls-34" d="m534.95,364.66c.15-.18.29-.35.44-.53-.03.28-.18.45-.44.53Z"/>
  <path class="cls-26" d="m453.1,424.52c-3.83-.09-7.66-.28-11.37-1.37-1.2-.35-3.08-.55-3.15-1.74-.08-1.42,1.82-1.75,3.03-2.25,3.19-1.32,6.55-2.01,9.95-2.49,6.21-.89,12.4-1.07,18.51.76,1.07.32,2.14.64,3.05,1.34.57.44.57.94.06,1.4-.77.71-1.72,1.15-2.68,1.54-3.13,1.26-6.43,1.9-9.75,2.29-2.53.29-5.08.62-7.64.52Z"/>
  <path class="cls-38" d="m397.25,361.73c-.25-.07-.41-.24-.46-.49.15.16.31.33.46.49Z"/>
  <path class="cls-36" d="m394.35,353.57c.2,1.25-.35,1.96-1.37,2.74-2.24,1.7-4.91,2.12-7.46,2.82-4.03,1.11-8.15.96-12.26.3-.47-.08-.95-.06-1.43-.08.07-.52.29-.92.87-.94.8-.02,1.66-.21,2.38.02,2.98.96,5.8.02,8.66-.52,1.35-.25,2.44-.9,3.57-1.72,2.05-1.5,4.55-2.12,7.04-2.62Z"/>
  <path class="cls-19" d="m532.04,359.83c-.16-.16-.31-.32-.47-.48.16.16.31.32.47.48Z"/>
</svg>