<?xml version="1.0" encoding="UTF-8"?>
<svg id="_图层_1" data-name="图层 1" xmlns="http://www.w3.org/2000/svg" viewBox="0 0 960 960">
  <defs>
    <style>
      .cls-1 {
        fill: #fbfbfa;
      }

      .cls-1, .cls-2, .cls-3, .cls-4, .cls-5, .cls-6, .cls-7, .cls-8, .cls-9, .cls-10, .cls-11, .cls-12 {
        stroke-width: 0px;
      }

      .cls-2 {
        fill: #a7665f;
      }

      .cls-3 {
        fill: #fcd441;
      }

      .cls-4 {
        fill: #060404;
      }

      .cls-5 {
        fill: #a66861;
      }

      .cls-6 {
        fill: #f3b79e;
      }

      .cls-7 {
        fill: #af6a1f;
      }

      .cls-8 {
        fill: #5a7dfe;
      }

      .cls-9 {
        fill: #444795;
      }

      .cls-10 {
        fill: #f5b79f;
      }

      .cls-11 {
        fill: #f5b89f;
      }

      .cls-12 {
        fill: #f4cd3e;
      }
    </style>
  </defs>
  <path class="cls-4" d="m617.38,500.85c-2.35.84-3.48.63-4.42-1.31-4.06-8.39-5.97-17.11-2.75-26.2,3.69-10.44,11.42-16.03,22.24-17.56,3.52-.5,7.02-.27,10.49.45.98.2,1.56.19,1.77-1.12,1.53-9.63,3.14-19.25,4.14-28.95.46-4.45.72-8.92.95-13.39.05-.99-.26-1.63-1.04-2.23-2.35-1.8-4.6-3.73-6.62-5.89-4.27-4.57-7.54-9.71-8.92-15.9-2.52-11.29,3.44-18.68,11.05-22.97,1.03-.58,2.12-1.05,3.29-1.63-.74-1.29-1.45-2.43-2.08-3.61-3.61-6.81-6.25-14.01-8.03-21.49-1.69-7.08.54-12.23,6.69-16.21,2.84-1.84,5.93-3.12,9.13-4.15.68-.22,1.36-.43,2.22-.7-.45-2.85-.94-5.65-1.34-8.47-.3-2.14-.56-4.28-.68-6.43-.21-3.74,1.36-6.64,4.4-8.79,3.26-2.32,6.99-3.5,10.83-4.33,11.01-2.36,22.13-3.37,33.36-2.08,4.73.54,9.23,1.91,13.11,4.82.46.34.9.67,1.48.73,3.14.33,6.04,1.5,8.95,2.58,5.69,2.1,11.36,4.26,16.93,6.68,1.61.7,3.17,1.51,4.76,2.26,6.37,3,9.31,8.2,9.74,15.06.29,4.51-.07,8.94-1.29,13.3-1.75,6.27-4.15,12.24-7.66,17.75-1.94,3.05-4,5.99-6.99,8.12-.58.41-.77.79-.64,1.57,1.25,7.54-1.72,16.86-9.67,21-.7.37-1.38.78-2.06,1.17.11.63.61.76.98.99,9.51,5.91,12.29,14.81,11.26,25.39-.42,4.3-1.8,8.22-4.45,11.72-3.34,4.4-7.67,7.17-13.02,8.35-2.34.52-4.7.97-7.07,1.26-1.31.16-1.86.58-2.16,1.96-1.52,6.86-3.06,13.72-5.18,20.43-2.19,6.94-4.95,13.66-7.89,20.31-.19.43-.39.86-.63,1.4.93.43,1.78.81,2.62,1.22,5.64,2.73,10.16,6.63,12.75,12.47,2.49,5.62,2.48,11.32.32,17.03-.31.81-.73,1.61-1.23,2.33-1.42,2.05-2.78,2.12-4.65.31-.45-1.29-.02-2.5.32-3.72.69-2.53,1.5-5.04,1.17-7.72.16-1.22-.1-2.37-.45-3.53-1.77-6.06-5.86-9.99-11.55-12.29-7.55-3.04-15.25-2.82-23-.72-1.01.27-1.48.72-1.38,1.83.1,1.14-.44,2.03-1.51,2.48-1.16.48-2.21.17-3.05-.73-.93-.99-1.82-2.02-2.71-3.04-3.79-4.35-7.76-8.5-12.79-11.46-.94-.55-1.78-1.39-3-1.3-2.12-1.03-4.1-2.31-6.38-3.03-2.91-.92-5.88-1.52-8.91-1.71-5.14-.32-10.05.51-14.37,3.53-5.35,3.75-7.41,9.22-7.72,15.48-.25,4.93.63,9.71,2.6,14.25.69,1.59.83,3.05-.26,4.49Zm111.5-144.45c1.21.76,2.44.59,3.68.09,3.55-.52,6.09-2.58,8.19-5.35,4.9-6.48,7.91-13.8,9.65-21.69.82-3.7.94-7.42.43-11.19-.44-3.23-1.91-5.72-4.83-7.25-1.62-.85-3.24-1.74-4.91-2.48-6.71-2.97-13.44-5.88-20.17-8.82-.28-.12-.55-.32-.88-.15-.16.11-.16.24-.11.42,2.35,8.08,2.77,16.32,2.26,24.67-.27,4.39-.93,8.73-1.31,13.1-.5.66-.57,1.47-.75,2.23-.54,2.18-1.49,4.17-2.48,6.17-.51,1.04-2,1.84-1.6,2.98.35,1.01,1.53,1.77,2.41,2.56.82.74,1.69,1.45,2.6,2.07,2.33,1.58,4.84,2.69,7.74,2.6l.07.03Zm-79.6,26c-.23-.68-.56-1.34-.65-2.03-.19-1.35.51-2.66,1.79-2.65,1.96.02,1.7-1.1,1.68-2.3-.03-1.59,0-3.19-.06-4.78-.04-1.06-.56-1.41-1.53-1.14-.3.08-.58.26-.86.41-2.75,1.53-5.18,3.44-7.08,5.97-1.83,2.44-2.82,5.16-2.63,8.25.37,6.22,3.25,11.21,7.6,15.48,3.14,3.65,6.81,6.69,10.97,9.07,7.61,4.37,15.67,7.76,24.09,10.25,4.77,1.78,9.69,3.02,14.67,4.02,8.32,1.67,16.62,1.63,24.81-.75,6.52-1.9,10.28-6.32,11.38-13.01.09-.55.19-1.1.26-1.65,1.14-8.72-1.72-15.58-9.55-20.26-.79,2.16-1.47,4.32-1.96,6.55-.2.73-.78,1.39-.4,2.34.39.04.78.07,1.17.11.69.07,1.23.36,1.41,1.08.2.81-.19,1.41-.82,1.84-.46.31-.96.59-1.47.8-2.15.86-4.32,1.67-6.61,2.11-9.15,1.76-18.28,1.41-27.39-.29-3.37-.63-6.69-1.49-10.03-2.25-.97-.76-2.18-.93-3.3-1.32-9.67-3.4-18.55-8.05-25.5-15.83Zm63.19-38.38c1.41-2.02,1.93-4.36,2.35-6.71,1.35-7.5,1.79-15.07,1.36-22.67-.24-4.38-.76-8.74-2.16-12.96-.87-2.63-2.55-4.33-5.15-5.25-2.88-1.02-5.84-1.64-8.89-1.77-10.35-.44-20.57.69-30.74,2.44-2.59.45-5.15,1.12-7.45,2.5-1.33.8-2.16,1.85-2.09,3.49.19,4.47.73,8.89,1.49,13.38.6-.11,1.07-.16,1.52-.27,7.44-1.88,15.04-2.95,22.61-4.07,3.94-.58,7.91-1.05,11.92-.3,4.2.79,7.16,2.99,8.55,7.1.33.98.64,1.97.89,2.98.98,3.95.57,7.94.2,11.91-1.66,4.31-3.23,8.66-6.56,12.07-.56.57-.28,1.01.28,1.33,3.06,1.78,6.57,2.58,9.86-.57.8-.77,1.59-1.56,1.98-2.64Zm-56.49,78.25c-.09,5.91-.61,11.8-1.2,17.68-.6,6.04-1.25,12.08-2.97,17.93-.29.99.13,1.27.83,1.6,7.13,3.34,13.15,8.13,18.2,14.14.67.79,1.27.98,2.26.68,6.36-1.87,12.84-2.47,19.42-1.52.83.12,1.29.04,1.65-.83,2.43-5.82,5.01-11.57,7.36-17.42,2.08-5.18,3.66-10.54,4.81-16.01.91-1.8,1.14-3.8,1.72-5.7.4-1.33.23-1.45-1.2-1.58-2.55-.22-5.12-.27-7.63-.69-13.65-2.27-26.67-6.51-38.97-12.89-.99-.52-1.99-1.03-2.99-1.53-.95-.48-1.33-.09-1.32.88,0,1.76.02,3.51.02,5.27Zm76.09-59.93c-.08-.02-.16-.06-.23-.06-8.19.22-14.9-2.9-20.26-9.02-.51-.59-.89-.44-1.43-.23-5.18,2.01-9.88.86-14.23-2.26-.84-.6-1.5-.68-2.39-.24-1.66.82-3.44,1.31-5.26,1.56-4.64.63-9.28.44-13.8-.65-3.45-.84-7-1.73-9.55-4.56.05-3.08.52-3.6,3.47-3.35,2.7.22,5.38.62,8.08.94.92.5,1.9.6,2.92.43.3,0,.6.02.9.02,10.78,1.85,18.66-3.03,20.68-14.82.69-3.05.3-6.03-.56-8.98-.55-1.87-1.71-2.9-3.72-3.21-2.68-.41-5.28-.03-7.86.45-7.54,1.4-15.04,2.96-22.48,4.83-4.34,1.09-8.71,2.02-12.94,3.52-2.27.81-4.43,1.84-6.32,3.36-1.91,1.54-2.75,3.44-2.1,5.92.47,1.78.92,3.55,1.53,5.29,2.18,6.26,4.59,12.44,7.02,18.6.5,1.26.7,2.73,1.49,3.76,1.19,1.53,1.37,3.14,1.35,4.93-.05,3.67.01,7.35,0,11.03,0,1.39.54,2.37,1.7,3.19,2.22,1.57,4.46,3.1,6.87,4.37,15.65,8.25,32.38,10.95,49.89,9.69,1.49-.11,1.68-.87,1.63-2.02.9-2.05,1.19-4.27,1.85-6.39.71-2.29.62-2.31-1.67-2.02-4.28.54-8.55.59-12.84-.06-4.42-.67-8.62-2.19-12.97-3.16-1.67-.37-3.14-1.05-4.36-2.25-.21-1.38-.33-2.75,1.02-3.69,1.44-1,2.88-.66,4.3.09.35.19.69.4,1.05.58,3.44,1.79,7.07,2.94,10.96,3.18,7.72.47,14.85-1.63,21.7-4.97,4.63-2.26,7.87-5.67,9-10.83.23-1.04.8-2.04.52-3.27-1.08.11-2.03.2-2.97.3Z"/>
  <path class="cls-8" d="m617.38,500.85c1.09-1.44.95-2.9.26-4.49-1.96-4.54-2.85-9.31-2.6-14.25.31-6.26,2.37-11.74,7.72-15.48,4.31-3.02,9.23-3.85,14.37-3.53,3.03.19,6,.79,8.91,1.71,2.28.72,4.27,2,6.38,3.03,0,.66.48.97.93,1.3,1.35,1.01,2.46,2.25,3.54,3.54,4.44,5.29,7.96,11.16,11.01,17.34.92,1.86,1.8,3.75,2.82,5.55,1.04,1.83,2.53,3.01,4.83,2.95,2.29-.06,3.71-1.26,4.63-3.2.31-.64.62-1.32.76-2.01.29-1.45,1.22-2.13,2.53-2.57,3.61-1.21,7.24-1.69,11.05-.97,4.73.89,9.38,1.79,13.24,5.03,1.12.94,2.47,1.8,4.09,1.81.34,2.68-.47,5.19-1.17,7.72-.34,1.22-.77,2.44-.32,3.72-9.21,4.62-19.19,5.73-29.26,6.27-8.41.45-16.74-.68-25.06-1.77-8.16-1.07-16.28-2.37-24.22-4.55-5.26-1.44-10.39-3.25-14.45-7.15Z"/>
  <path class="cls-10" d="m676.46,344.46c-2.69-.32-5.38-.72-8.08-.94-2.95-.25-3.42.28-3.47,3.35-.97,1.42-.34,2.73.34,4,1.68,3.11,4.28,5.33,7.23,7.15,3.8,2.34,7.88,3.91,12.42,3.64,3.1-.19,6.19-.74,9.06-1.97,1.82-.78,3.47-.98,5.16.2.37.26.9.29,1.35.45,2.83.95,5.54.11,8.2-.67,1.37-.4,2.2-.15,3.16.81,3.8,3.81,8.46,5.22,13.77,4.62,1.28-.15,2.59-.43,3.56-1.26.88-.75,1.91-1.07,2.9-1.51.94-.09,1.88-.19,2.97-.3.28,1.23-.29,2.22-.52,3.27-1.13,5.17-4.37,8.57-9,10.83-6.85,3.34-13.98,5.44-21.7,4.97-3.89-.24-7.52-1.39-10.96-3.18-.35-.18-.7-.39-1.05-.58-1.42-.75-2.86-1.09-4.3-.09-1.34.93-1.22,2.31-1.02,3.69-.59,1.69.78,2.39,1.73,3.17,4.74,3.88,10.35,6.21,15.94,8.47,3.91,1.58,7.99,2.69,12.31,2.24.05,1.15-.15,1.92-1.63,2.02-17.51,1.26-34.24-1.45-49.89-9.69-2.41-1.27-4.65-2.8-6.87-4.37-1.16-.82-1.7-1.8-1.7-3.19.01-3.68-.05-7.35,0-11.03.02-1.8-.16-3.4-1.35-4.93-.79-1.02-1-2.5-1.49-3.76-2.43-6.17-4.83-12.34-7.02-18.6-.61-1.74-1.06-3.51-1.53-5.29-.65-2.48.19-4.39,2.1-5.92,1.89-1.52,4.05-2.55,6.32-3.36,4.22-1.5,8.6-2.44,12.94-3.52,7.44-1.87,14.94-3.43,22.48-4.83,2.57-.48,5.18-.86,7.86-.45,2.01.31,3.17,1.34,3.72,3.21.87,2.95,1.25,5.93.56,8.98-.87.07-1.38.71-1.96,1.25-1.42,1.29-2.58,2.8-3.82,4.24-4.01,4.61-9.06,7.62-14.9,9.34-.3,0-.6-.02-.9-.02-.9-.63-1.91-.51-2.92-.43Z"/>
  <path class="cls-11" d="m706.36,438.49c-1.15,5.47-2.73,10.83-4.81,16.01-2.35,5.85-4.93,11.6-7.36,17.42-.36.87-.82.95-1.65.83-6.58-.95-13.06-.35-19.42,1.52-.99.29-1.6.11-2.26-.68-5.05-6.01-11.07-10.8-18.2-14.14-.7-.33-1.12-.61-.83-1.6,1.72-5.85,2.36-11.89,2.97-17.93.59-5.88,1.11-11.76,1.2-17.68.81-.19,1.34.34,1.93.74,1.92,1.3,3.91,2.46,5.98,3.5,8.52,4.27,17.46,7.37,26.7,9.64,5.18,1.27,10.36,2.56,15.77,2.36Z"/>
  <path class="cls-10" d="m720.88,337.74c.38-4.37,1.04-8.71,1.31-13.1.51-8.35.09-16.59-2.26-24.67-.05-.18-.06-.31.1-.42.33-.17.6.02.88.15,6.72,2.94,13.46,5.85,20.17,8.82,1.68.74,3.29,1.63,4.91,2.48,2.92,1.54,4.39,4.02,4.83,7.25.51,3.76.39,7.48-.43,11.19-1.74,7.89-4.75,15.21-9.65,21.69-2.1,2.77-4.64,4.82-8.19,5.35-1.22-.03-2.45-.06-3.68-.09,0,0-.07-.03-.07-.03-.51-1.6-2.05-2.38-2.96-3.68-2.78-3.92-3.54-8.47-4.31-13.04-.11-.67.17-1.48-.66-1.9Z"/>
  <path class="cls-6" d="m706.91,333.82c.37-3.98.78-7.96-.2-11.91-.25-1-.55-2-.89-2.98-1.4-4.11-4.35-6.31-8.55-7.1-4.01-.75-7.98-.28-11.92.3-7.58,1.11-15.17,2.18-22.61,4.07-.45.11-.92.17-1.52.27-.76-4.49-1.3-8.91-1.49-13.38-.07-1.64.75-2.69,2.09-3.49,2.3-1.38,4.86-2.06,7.45-2.5,10.17-1.75,20.4-2.88,30.74-2.44,3.05.13,6,.75,8.89,1.77,2.59.92,4.27,2.61,5.15,5.25,1.4,4.21,1.91,8.57,2.16,12.96.42,7.6-.02,15.17-1.36,22.67-.42,2.35-.95,4.69-2.35,6.71-1.9-1.27-2.57-3.33-3.47-5.27-.75-1.62-.83-3.52-2.09-4.92Z"/>
  <path class="cls-7" d="m733.45,409.17c-1.1,6.69-4.86,11.11-11.38,13.01-8.19,2.39-16.49,2.42-24.81.75-4.98-1-9.9-2.24-14.67-4.02.85-.43.54-1.01.19-1.57-1.41-2.22-2.29-4.7-3.16-7.15-1.21-3.43-2.24-6.93-1.53-10.66,3.34.76,6.67,1.63,10.03,2.25,9.1,1.7,18.24,2.05,27.39.29,2.29-.44,4.46-1.25,6.61-2.11.52-.2,1.01-.49,1.47-.8.64-.43,1.02-1.02.82-1.84-.18-.72-.72-1.01-1.41-1.08-.39-.04-.78-.07-1.17-.11-.39-.94.2-1.61.4-2.34,3.37.01,5.73,1.58,7.11,4.63,1.34,2.95,2.76,5.88,3.29,9.13.11.66.22,1.25.84,1.61Z"/>
  <path class="cls-3" d="m678.08,399.54c-.71,3.73.32,7.23,1.53,10.66.87,2.45,1.75,4.93,3.16,7.15.36.56.67,1.14-.19,1.57-8.42-2.49-16.47-5.88-24.09-10.25-4.16-2.38-7.83-5.43-10.97-9.07.08-.56.05-1.11-.11-1.66-1.51-5.44-.62-10.59,1.86-15.55,6.94,7.78,15.82,12.44,25.5,15.83,1.11.39,2.33.55,3.3,1.32Z"/>
  <path class="cls-9" d="m711.86,496.61c-1.62-.01-2.98-.87-4.09-1.81-3.86-3.24-8.51-4.14-13.24-5.03-3.81-.72-7.44-.24-11.05.97-1.31.44-2.24,1.12-2.53,2.57-.14.69-.45,1.36-.76,2.01-.93,1.94-2.34,3.14-4.63,3.2-2.3.06-3.79-1.12-4.83-2.95-1.03-1.8-1.9-3.69-2.82-5.55-3.05-6.17-6.57-12.04-11.01-17.34-1.08-1.29-2.19-2.54-3.54-3.54-.45-.34-.93-.65-.93-1.3,1.22-.08,2.07.75,3,1.3,5.03,2.96,9,7.11,12.79,11.46.89,1.02,1.78,2.05,2.71,3.04.84.89,1.89,1.21,3.05.73,1.08-.45,1.62-1.34,1.51-2.48-.1-1.1.36-1.55,1.38-1.83,7.75-2.1,15.46-2.32,23,.72,5.69,2.29,9.78,6.23,11.55,12.29.34,1.16.6,2.32.45,3.53Z"/>
  <path class="cls-5" d="m732.08,362.32c-1,.45-2.02.76-2.9,1.51-.97.83-2.28,1.11-3.56,1.26-5.3.6-9.96-.8-13.77-4.62-.96-.96-1.78-1.21-3.16-.81-2.66.78-5.37,1.62-8.2.67-.45-.15-.98-.19-1.35-.45-1.7-1.18-3.35-.98-5.16-.2-2.88,1.23-5.96,1.79-9.06,1.97-4.54.27-8.62-1.3-12.42-3.64-2.95-1.82-5.55-4.04-7.23-7.15-.69-1.27-1.31-2.57-.34-4,2.56,2.83,6.1,3.73,9.55,4.56,4.52,1.09,9.17,1.28,13.8.65,1.83-.25,3.61-.74,5.26-1.56.89-.44,1.55-.37,2.39.24,4.35,3.11,9.05,4.27,14.23,2.26.55-.21.92-.36,1.43.23,5.35,6.12,12.06,9.25,20.26,9.02.08,0,.15.04.23.06Z"/>
  <path class="cls-5" d="m706.36,438.49c-5.4.2-10.59-1.09-15.77-2.36-9.24-2.27-18.18-5.37-26.7-9.64-2.07-1.04-4.06-2.2-5.98-3.5-.59-.4-1.12-.93-1.93-.74,0-1.76-.01-3.51-.02-5.27,0-.97.37-1.36,1.32-.88,1,.51,1.99,1.02,2.99,1.53,12.3,6.38,25.32,10.62,38.97,12.89,2.51.42,5.09.47,7.63.69,1.44.12,1.61.25,1.2,1.58-.58,1.9-.81,3.9-1.72,5.7Z"/>
  <path class="cls-1" d="m649.29,382.39c-2.48,4.96-3.37,10.11-1.86,15.55.15.55.18,1.1.11,1.66-4.34-4.27-7.23-9.26-7.6-15.48-.18-3.09.8-5.81,2.63-8.25,1.9-2.53,4.33-4.44,7.08-5.97.28-.15.56-.33.86-.41.97-.27,1.48.09,1.53,1.14.07,1.59.03,3.19.06,4.78.03,1.2.29,2.32-1.68,2.3-1.28-.01-1.98,1.3-1.79,2.65.1.69.43,1.35.65,2.03Z"/>
  <path class="cls-5" d="m716.48,394.82c-4.32.44-8.4-.66-12.31-2.24-5.6-2.26-11.2-4.6-15.94-8.47-.95-.78-2.32-1.48-1.73-3.17,1.22,1.21,2.69,1.88,4.36,2.25,4.34.97,8.54,2.49,12.97,3.16,4.29.65,8.56.6,12.84.06,2.29-.29,2.38-.26,1.67,2.02-.66,2.12-.95,4.34-1.85,6.39Z"/>
  <path class="cls-2" d="m706.91,333.82c1.27,1.4,1.34,3.3,2.09,4.92.9,1.94,1.58,4,3.47,5.27-.4,1.08-1.18,1.87-1.98,2.64-3.29,3.15-6.8,2.35-9.86.57-.56-.33-.84-.76-.28-1.33,3.32-3.4,4.9-7.76,6.56-12.07Z"/>
  <path class="cls-2" d="m720.88,337.74c.83.42.55,1.23.66,1.9.77,4.56,1.53,9.11,4.31,13.04.92,1.3,2.45,2.07,2.96,3.68-2.9.09-5.41-1.02-7.74-2.6-.92-.62-1.78-1.33-2.6-2.07-.88-.8-2.06-1.55-2.41-2.56-.4-1.14,1.08-1.94,1.6-2.98.98-2,1.94-4,2.48-6.17.19-.76.25-1.57.75-2.23Z"/>
  <path class="cls-12" d="m733.45,409.17c-.62-.36-.73-.95-.84-1.61-.53-3.24-1.95-6.17-3.29-9.13-1.38-3.05-3.75-4.62-7.11-4.63.49-2.23,1.17-4.39,1.96-6.55,7.82,4.69,10.68,11.55,9.55,20.26-.07.55-.18,1.1-.26,1.65Z"/>
  <path class="cls-2" d="m680.28,344.91c5.84-1.72,10.89-4.72,14.9-9.34,1.25-1.44,2.41-2.95,3.82-4.24.59-.53,1.09-1.18,1.96-1.25-2.02,11.79-9.91,16.67-20.68,14.82Z"/>
  <path class="cls-7" d="m728.88,356.39c1.23.03,2.45.06,3.68.09-1.24.5-2.47.67-3.68-.09Z"/>
  <path class="cls-2" d="m676.46,344.46c1.01-.08,2.02-.2,2.92.43-1.02.16-2,.07-2.92-.43Z"/>
</svg>