<?xml version="1.0" encoding="UTF-8"?>
<svg id="_图层_1" data-name="图层 1" xmlns="http://www.w3.org/2000/svg" viewBox="0 0 960 960">
  <defs>
    <style>
      .cls-1 {
        fill: #f7b9a0;
      }

      .cls-1, .cls-2, .cls-3, .cls-4, .cls-5, .cls-6, .cls-7, .cls-8, .cls-9, .cls-10, .cls-11, .cls-12, .cls-13, .cls-14 {
        stroke-width: 0px;
      }

      .cls-2 {
        fill: #838989;
      }

      .cls-4 {
        fill: #466af6;
      }

      .cls-5 {
        fill: #b16b1f;
      }

      .cls-6 {
        fill: #fff;
      }

      .cls-7 {
        fill: #466af5;
      }

      .cls-8 {
        fill: #939090;
      }

      .cls-9 {
        fill: #b7ceff;
      }

      .cls-10 {
        fill: #cacfcf;
      }

      .cls-11 {
        fill: #454795;
      }

      .cls-12 {
        fill: #ffd741;
      }

      .cls-13 {
        fill: #a96861;
      }

      .cls-14 {
        fill: #5a7dff;
      }
    </style>
  </defs>
  <path class="cls-3" d="m712.82,320.19c-1.55-10.87-4.8-21.16-10.6-30.57-2.55-4.13-5.54-7.83-9.53-10.65-.92-.65-1.23-1.2-.76-2.33,1.56-3.79,1.77-7.76,1.32-11.79-.71-6.36-3.62-11.22-9.27-14.55-4.92-2.89-10.17-3.67-15.68-3.39-6.04.31-11.81,1.92-17.41,4.14-10.62,4.2-21.15,8.63-31.88,12.53-9.62,3.5-19.49,6.15-29.9,6.05-1.92-.02-2.99-.62-4.02-2.19-5.87-8.99-12.28-17.55-19.83-25.23-3.09-3.14-6.3-6.14-10.02-8.53-.28-.18-.5-.38-.5-.8.66-.39,1.35-.78,2.03-1.2,2.86-1.76,5.72-3.53,8.31-5.67,2.53-2.1,2.17-4.31-.83-5.63l-.2-.03c-.19-.03-.38-.07-.58-.1-2.39-.37-4.31.98-6.33,1.83-12.45,5.2-24.7,10.86-37.65,14.87-18.67,5.78-37.6,9.61-57.25,8.99-2.73.24-5.42-.13-8.1-.53-5.01-.74-9.84-2.06-13.98-5.2-2.6-1.97-3.64-4.53-2.97-7.77.51-2.47,1.65-4.66,3.01-6.73,3.27-4.95,7.47-9.11,11.55-13.36.6-.8,1.47-1.53.67-2.67l-.15-.15-.08-.07c-1.44-.92-2.63-.02-3.77.64-6.5,3.73-12.36,8.23-16.8,14.38-.63.88-1.27,1.45-2.44,1.64-7.11,1.11-13.65,3.81-19.9,7.3-7.36,4.11-14.02,9.2-20.23,14.87-1.23,1.12-2.52,1.84-4.15,2.19-3.92.83-7.71,2.09-11.28,3.92-2,1.02-3.89,2.21-5.4,3.92-2.74,3.09-3.51,7.49-1.23,10.62,1.52,2.09,1.24,3.41-.3,5.02-.44.46-.8,1-1.1,1.56-.58,1.08-1.43,1.28-2.59,1.18-3.51-.31-6.97-.9-10.41-1.61-5.19-1.07-10.06-3.05-14.83-5.32-4.83-2.29-9.7-4.53-14.97-5.66-5.49-1.18-10.12.7-12.82,5.61-3.18,5.78-3.79,11.81-.6,17.86,2.07,3.93,4.77,7.39,8.32,10.1,6.87,5.25,14.4,9.12,22.94,10.89,1.84.38,3.75.55,5.63,1.32-1.1,2.78-2.19,5.42-3.19,8.09-2.34,6.29-4.42,12.66-6.38,19.08-.27.9-.55,1.74-1.51,2.31-5.75,3.42-10.64,7.9-15.21,12.72-4.88,5.15-8.84,10.93-11.71,17.42-4.87,11.03-5.35,22.24-1.3,33.62,2.66,7.48,6.84,14.05,12.15,19.92,5.01,5.54,10.7,10.3,16.72,14.69.77.56,1.52,1.16,2.28,1.74,3.23,3.22,7.31,5.13,11.26,7.2,15.23,8.01,31.41,13.43,48.11,17.39,19.57,4.64,39.44,7.27,59.5,8.07,9.8.39,19.63.26,29.46-.24,10.62-.54,21.19-1.56,31.69-3.07,26.56-3.82,52.28-10.68,76.56-22.34,3.59-1.72,7.23-3.43,10.23-6.16,1.28-.81,2.56-1.62,3.86-2.42,6.9-4.26,13.26-9.19,18.92-15.01,4.32-4.44,7.92-9.4,10.84-14.86,4.38-8.17,6.26-16.87,5.74-26.11-.42-.99-.11-2.02-.2-3.03.1-.35-.23-.65-.11-1.02.19.27.47.47.74.67,2.1,3.75,4.38,7.37,7.27,10.57.45.92.78,1.87,1.56,2.62,10.11,9.78,22.35,12.11,34.7,4.96,4.41-2.56,8.25-5.9,10.81-10.48,3.93-5.4,7.07-11.22,9.15-17.57,5.2-15.81,6.96-31.96,4.61-48.49Zm-75.18,41.52c-4.9-7.77-10.87-14.52-18.51-19.72-2.17-1.48-4.25-3.09-6.42-4.57-.94-.64-1.38-1.26-1.25-2.53.37-3.59-.31-7.14-.79-10.69-.59-1.97.41-2.48,2.1-2.21,2.9.45,5.81.82,8.71,1.24,4,.58,7.9.25,11.83-.42,2.54-.43,2.67-.26,2.47,2.37-1.35,11.83-.68,23.53,2.21,35.09.08.31.11.63.16.94.14.5-.07.62-.52.5Zm56.43-19.61c-.37,4.11-.41,7.88-1.19,11.57-.25,1.18-.62,2.32-1.09,3.41-1.58,3.63-4.92,5.21-8.8,4.28-1.91-.46-3.56-1.35-5.04-2.63-3.67-3.19-5.87-7.33-7.54-11.78-5.72-15.17-5.71-30.44-.83-45.81.29-.91.59-1.82.88-2.74.17-.54.33-1.06.98-1.24,1.64-.46,3.07-1.34,4.46-2.27.84-.56,1.27-.23,1.77.41,1.13,1.45,2.27,2.91,3.12,4.54,4.01,7.72,8.17,15.36,10.76,23.74,1.91,6.17,2.74,12.46,2.53,18.53Z"/>
  <path class="cls-14" d="m451.5,212.05c.38-.76,1.03-1.41.93-2.35,6.39-2.63,13.03-4.27,19.84-5.31,15.15-2.31,30.4-2.35,45.67-1.82,10.15.35,20.22,1.49,30.05,4.23,4.16,1.16,8.28,2.44,11.78,5.15,2.73,2.11,4.12,4.81,3.71,8.32-5.96,2.27-11.81,4.79-17.63,7.39-17.4,7.78-35.44,13.57-54.24,16.85-8.98,1.57-18.03,2.45-27.16,2.22-.79-.02-1.59-.11-2.38-.17-4.16-3.31-8.52-6.41-9.85-12.09-.96-4.08-1.15-8.16-.71-12.3.36-3.37,1.2-6.75,0-10.12Z"/>
  <path class="cls-11" d="m338.11,439.5c2.68,1.57,5.34,3.17,8.05,4.69,11.74,6.62,24.21,11.49,37.08,15.42,12.62,3.85,25.52,6.44,38.52,8.49,5.91.93,11.86,1.56,17.81,2.16,12.82,1.3,25.66,1.54,38.52,1.34,8.31-.13,16.59-.67,24.85-1.53,23.88-2.5,47.32-7.07,69.98-15.2,10.92-3.92,21.53-8.52,31.53-14.43.13-.07.31-.06.46-.08-4.68,5.41-10.02,10.08-16.06,13.9-13.31,8.44-27.71,14.51-42.7,19.26-16.73,5.3-33.84,8.77-51.29,10.67-11.45,1.24-22.93,1.91-34.45,1.75-22.71-.33-45.1-2.96-66.93-9.47-11-3.28-21.57-7.5-31.27-13.74-7.99-5.14-15.15-11.21-21.09-18.66-1.14-1.43-2.3-2.85-3.03-4.56Z"/>
  <path class="cls-11" d="m651.98,389.15c3.67,4.06,7.79,7.58,12.99,9.48,9.13,3.33,17.55,1.51,25.34-3.94,3.35-2.35,6.03-5.41,8.75-8.43.67,7.35-2.43,12.99-7.97,17.51-11.49,9.38-24.56,5.05-32.28-1.43-1.41-1.18-2.66-2.53-3.72-4.05-1.91-2.75-3.16-5.72-3.11-9.14Z"/>
  <path class="cls-10" d="m644.28,381.95c-.5-1.06-.38-2.22-.53-3.34-.13-.52-.36-1.09.56-1.04.14.33.47.58.4,1-.83,1.04.04,2.3-.43,3.38Z"/>
  <polygon class="cls-14" points="564.25 220.4 564.13 220.52 564.05 220.37 564.18 220.25 564.25 220.4"/>
  <polygon class="cls-14" points="452.28 209.55 452.15 209.59 452.2 209.48 452.32 209.42 452.28 209.55"/>
  <path class="cls-1" d="m418.39,260.6c.23-.42.47-.83.68-1.26,2.13-4.27.73-8.96-3.39-11.39-2.36-1.39-4.95-1.7-7.62-1.57-1.24.06-2.48.18-3.8.05,6.82-5.59,14.21-10.1,22.93-13.27-1.04,4.97-.03,9.19,2.63,13.03.61,1.29,1.12,2.62,1.57,3.99,2.19,6.64,7.28,10.44,13.41,12.82,8.55,3.32,17.5,3.97,26.64,3.29,11.05-.82,21.83-2.95,32.48-5.9,1.26-.35,2.39-.35,3.04,1.06.61,1.12,1.25,2.22,1.7,3.42.19.61.39,1.22.36,1.87-.19,4.88,2.66,7.65,6.69,9.52,4.4,2.04,9.13,2.95,13.88,3.51,6.48.77,12.97,1.84,19.53.71,2.22-.38,4.35-1.04,6.35-2.05,4.02-2.03,5.46-5.58,5.7-9.82,1.23-6.03-.29-9.33-5.72-12.24-4.95-2.65-10.39-3.6-15.87-4.31-1.51-.19-3.01-.39-4.48-.76-2.01-.98-1.05-1.64.25-2.27,4.71-2.27,9.51-4.35,14.11-6.84,1-.55,1.89-1.56,3.25-.98,4.1,3.95,7.59,8.43,10.9,13.04,14.12,19.69,24.59,41.29,33.21,63.84,2.17,5.67,4.21,11.4,5.29,17.4.38,2.1,1.48,3.67,3.34,4.72,7.67,4.37,13.39,10.85,18.71,17.67,4.83,6.2,8.08,13.18,9.21,21.07.99,6.96-.43,13.51-3.23,19.84-1.95,4.42-4.69,8.35-7.78,12.05-7.85,9.37-17.36,16.74-27.88,22.81-14.92,8.61-30.96,14.43-47.59,18.7-17.86,4.59-36.03,7.14-54.43,8.26-16.39,1-32.76.78-49.11-.58-26.04-2.16-51.36-7.49-75.54-17.66-10.2-4.29-19.84-9.63-28.76-16.2-6.43-4.74-11.96-10.35-16.3-17.08-8.06-12.51-8.64-25.44-2.03-38.71,2.92-5.85,6.94-10.92,11.57-15.5,2.61-2.58,5.37-5.02,8.1-7.48,2.08-1.87,3.55-4.14,4.22-6.83,2.82-11.3,7.38-21.94,12.33-32.43,5.47-11.6,11.99-22.57,19.64-32.87.44-.52.97-.64,1.43-.13,3.39,3.7,7.88,3.24,12.11,2.81,6.21-.64,12.23-2.29,17.96-4.88,5.5-2.48,9.3-6.34,10.32-12.5Z"/>
  <path class="cls-12" d="m706.15,316.14c2.7,16.01,2.31,31.81-3.27,47.23-2.4,6.65-5.59,12.88-10.02,18.43-2.2,2.77-4.69,5.23-7.62,7.23-7.72,5.27-16.18,5.31-23.98.12-3.1-2.06-5.61-4.72-7.82-7.69-4.69-6.31-7.71-13.39-9.54-21-.91-3.8-1.81-7.6-1.91-11.54,1.26,0,1.07,1.18,1.45,1.86.66,1.18,1.11,2.49,2.2,3.38.53.43,1.16.58,1.79.27.6-.29.72-.85.5-1.43-1.79-4.82-.88-9.82-.76-14.72.1-4.2.75-8.42,1.18-12.63,1.08-10.64,4.15-20.65,9.13-30.09.37-.71.72-1.43,1.07-2.14,1.43-2.86,3.04-5.69.98-8.94,2.7-1.58,4.59-.91,5.48,1.96.59,1.88.45,3.79.18,5.7-.62,4.28-2.08,8.37-2.8,12.63-2.59,15.32-2.06,30.4,3.56,45.08,2,5.23,4.78,9.93,9.36,13.36,2.77,2.07,5.85,3.26,9.3,3.43,6.28.31,10.99-2.89,13.01-8.84,1.43-4.22,1.56-8.63,1.81-13.02.38-6.75-.24-13.41-1.93-19.96-.32-.56-.13-1.17.14-1.58,1.99-2.95,4.68-5.28,7.08-7.86.75-.81,1.19.01,1.43.74Z"/>
  <path class="cls-13" d="m681.77,282.1c-2.7,3.37-5.95,6.19-9.18,9.02-.17.15-.39.28-.85.04,0-1.76,0-3.67-.61-5.48-1.12-3.34-2.94-6.01-6.58-6.99-2.61-.7-4.88.06-6.98,1.58-4.73,3.42-8.54,7.65-11.47,12.7-2.01,3.46-3.79,7.03-5.1,10.81-.52,1.5-1.33,2.34-2.86,2.82-8,2.55-16.15,3.71-24.54,2.97-1.91-.17-3.81-.38-5.72-.49-.93-.06-1.44-.46-1.75-1.32-1.92-5.42-4.26-10.67-6.76-15.85-.13-.27-.12-.6-.19-.98.44-.14.8-.3,1.18-.38,8.21-1.85,16.01-4.92,23.66-8.34,6.57-2.94,12.8-6.52,18.58-10.84,1.02-.76,2.07-1.52,2.67-2.7.28-.42.7-.64,1.16-.8,10.89-3.77,21.2-3.04,30.46,4.32,3.09,2.45,5,5.75,4.88,9.91Z"/>
  <path class="cls-13" d="m506.61,261.93c-.49-1.07-1.2-1.33-2.39-.97-4.8,1.46-9.69,2.59-14.62,3.53-5.63,1.07-11.27,1.98-17.01,2.36-3.03.2-6.05.43-9.07.32-6.32-.22-12.55-1.04-18.49-3.33-4.22-1.62-7.98-3.95-10.96-7.45-2.51-2.95-3.81-6.4-4.24-10.21,4.17,4.97,9.81,7.25,15.94,8.52,9.7,2,19.49,2.03,29.32,1.16,13.81-1.22,27.28-4.18,40.61-7.85,9.87-2.72,19.44-6.28,28.84-10.32.44-.19.9-.36,1.31-.59,1.28-.74,2.35-.61,3.37.55,1.1,1.25,2.32,2.39,3.49,3.58-1.52.32-2.66,1.38-4,2.07-4.52,2.31-9.12,4.46-13.76,6.53-1.22.54-.05.71,0,1.06-.95.94-2.07.48-3.16.44-5.56-.25-11.13-.69-16.65.46-1.81.38-3.52,1.02-4.99,2.19-1.83,1.46-2.93,3.33-3.03,5.72-.03.78.15,1.61-.53,2.24Z"/>
  <path class="cls-1" d="m681.77,282.1c-.26-.2-.41-.46-.46-.8-.65-4.46-3.01-7.76-6.81-10.11-5.17-3.19-10.66-5.36-16.87-4.88-3.48.27-6.92.87-10.28,1.88-.68.21-1.34.51-2.08.48h0c-.25-.27-.17-.73-.52-.95-.74-.27-1.4-.04-2.06.3-1.35.69-2.73,1.33-4.06,2.04-11.73,6.31-24.07,10.99-37.01,14.12-1.47.36-2.98.52-4.48.75-.87.13-1.5-.12-1.96-.97-1.14-2.11-2.37-4.16-3.55-6.25-.15-.27-.27-.55-.4-.82.55-.6,1.1-.18,1.59-.13,4.03.41,7.96-.42,11.9-1.03,9.76-1.52,19.07-4.53,28.17-8.31,7.44-3.09,14.9-6.15,22.4-9.09,5.78-2.26,11.78-3.47,18.03-3.09,2.34.14,4.54.74,6.69,1.67,4.78,2.07,7.06,5.78,7.34,10.85.16,2.92-.29,5.74-1.66,8.35-1.11,2.12-2.29,4.2-3.92,5.98Z"/>
  <path class="cls-1" d="m322.9,295.5c-3.81-2.38-6.68-5.62-8.76-9.59-2.15-4.12-1.73-8.18.36-12.13,1.54-2.91,3.57-3.77,6.78-2.97,4.89,1.22,9.47,3.3,14.04,5.39,5.38,2.46,10.85,4.63,16.69,5.72,2.72.51,5.47.8,8.51,1.24-1.73,2.83-3.33,5.47-4.93,8.1-9.67,3.02-19.36,5.88-29.69,4.96-1.03-.09-2.05-.23-2.99-.71Z"/>
  <path class="cls-6" d="m659.53,284.51c2.03,1.55,2.36,3.43,1.22,5.69-.98,1.92-1.83,3.9-2.81,5.82-4.82,9.4-7.92,19.28-8.93,29.84-.71,7.39-1.56,14.75-1.47,22.19.02,1.66-.16,3.33,1.16,4.73.61.65.42,1.5-.2,2.17-.77.82-1.72.79-2.65.4-.92-.39-1.5-1.22-1.92-2.07-.71-1.41-1.3-2.88-1.94-4.33-1.06-7.71-.88-15.42-.04-23.13,1.02-9.32,3.23-18.33,7.18-26.88,1.91-4.14,4.28-8,6.89-11.72.89-1.28,2-2.24,3.52-2.69Z"/>
  <path class="cls-5" d="m706.15,316.14c-.38-.11-.53-1.04-1.07-.45-2.44,2.65-4.84,5.34-7.23,8.05-.24.27-.25.73-.36,1.11-2.8-9.29-7.08-17.92-11.8-26.35-1.22-2.17-2.79-4.08-4.39-5.97-.5-.6-.65-1.07.05-1.58,3.11-2.3,5.5-5.28,7.87-8.49,9.93,9.22,14.47,20.92,16.93,33.68Z"/>
  <path class="cls-9" d="m451.5,212.05c1.72,1.46,1.54,3.44,1.25,5.31-.57,3.8-.97,7.6-.78,11.44.18,3.55,1.05,6.92,2.79,10.05,1.05,1.88,2.62,3.17,4.33,4.37,1.24.87,2.46,1.79,2.97,3.33-6.29.12-12.38-.89-18.18-3.39-1.76-.76-3.4-1.74-4.86-3.01-2.09-1.82-2.92-4.1-2.63-6.84.24-2.36,1.16-4.46,2.35-6.46,1.6-2.68,3.51-5.13,5.59-7.45,2.28-2.56,4.67-5.01,7.16-7.36Z"/>
  <path class="cls-13" d="m418.39,260.6c.34,4.23-1.73,7.26-4.82,9.84-2.49,2.08-5.36,3.45-8.37,4.52-6.48,2.3-13.06,4.08-20.03,3.84-2.99-.1-5.69-.74-7.54-3.34-.32-.45-.69-.19-1.06-.15.39-1.52,1.69-1.55,2.85-1.65,5.17-.43,10.23-1.48,15.28-2.59,5.92-1.31,11.66-3.19,17.15-5.79,2.46-1.17,4.73-2.6,6.55-4.66Z"/>
  <path class="cls-11" d="m635.79,325.17c-.3-.58.23-1.26-.27-1.9-1.39-.08-2.75.4-4.14.6-6.17.88-12.21-.09-18.25-1.12-.16-.03-.31-.08-.46-.11q-1.83-.36-1.99,1.56c-.89-1.01-.32-2.3-.65-3.44-.55-1.9-.91-3.85-1.41-6,3.28.2,6.36,1.11,9.54,1.01,3.26-.11,6.54.06,9.78-.53,3.13-.57,6.27-1.09,9.42-1.63.54.45.29,1.03.18,1.54-.66,3.03-1.39,6.05-1.38,9.19,0,.28-.23.56-.36.85Z"/>
  <path class="cls-13" d="m322.9,295.5c5.35.16,10.69.14,16.01-.48,3.49-.41,6.84-1.49,10.14-2.7,2.11-.77,4.23-1.46,6.53-1.06-2.2,4.31-4.43,8.61-6.59,12.95-.53,1.07-1.33.99-2.2.82-3.2-.62-6.41-1.19-9.51-2.23-5.15-1.73-10.01-4.03-14.39-7.3Z"/>
  <path class="cls-2" d="m644.31,377.57c-.52.17-.39.69-.56,1.04-.13-.36-.31-.72-.37-1.1-.06-.37-.01-.76-.01-1.18.71.19.87.68.95,1.24Z"/>
  <path class="cls-8" d="m637.63,361.71c.17-.17.35-.34.52-.5.6.44.41,1.06.5,1.65-.89-.01-.95-.58-1.02-1.15Z"/>
  <path class="cls-13" d="m644.75,267.73c.54.12.64.47.52.95-.32-.23-.47-.57-.52-.95Z"/>
  <path class="cls-6" d="m431.31,326.71c4.56-6.27,9.79-11.95,15.52-17.14,4.37-3.96,9.05-7.58,14.85-9.34,2.74-.83,5.51-1.65,8.38-1.78,7.29-.34,12.93,2.9,17.28,8.5,1.6,2.06,3.13,4.23,3.91,6.79.35,1.17-.61,1.73-1.19,2.42-5.75,6.81-9.62,14.5-10.8,23.4-1.62,12.18,1.3,23.21,9,32.78,8.22,10.21,19.23,15.17,32.08,16.64,10.14,1.16,19.74-.58,28.92-4.81,6.02-2.78,11.23-6.73,15.45-11.88,1.1-1.35,2.69-3.08,1.14-4.61-1.7-1.69-3.22.32-4.43,1.42-6.94,6.29-14.87,10.84-23.95,13.1-16.13,4.01-30.71.83-42.81-10.77-12.11-11.62-13.6-29.41-5.2-43.68,8.22-13.95,20.85-21.4,36.7-23.73,9.06-1.33,17.65.18,25.85,4.15,2.17,1.05,4.17,2.4,6.06,3.86,1.49,1.15,3.21,1.74,4.83,2.57,2.5,2.6,3.78,5.9,5.03,9.18,1.95,5.08,3.25,10.34,3.85,15.75.33,2.96-.23,5.88-.64,8.8-.54,3.87-1.48,7.66-2.51,11.43-.11.38-.18.78.22,1.29,3.81-1.69,7.83-2.96,11.97-3.8,7.21-1.45,14.31-1.37,20.97,2.18,5.07,2.7,7.5,7.2,8,12.81.46,5.18-1.16,9.94-3.19,14.57-4.07,9.24-10.66,16.41-18.69,22.32-9.9,7.29-20.66,12.94-32.34,16.89-10.13,3.42-20.22,6.94-30.66,9.32-6.75,1.54-13.57,2.77-20.44,3.69-4.1.55-8.19,1.2-12.29,1.76-1.73.24-3.5.36-5.23.48-3.1.2-6.2.48-9.3.71-6.07.44-12.13.49-18.19.32-6.61-.18-13.2-.6-19.79-1.27-11.52-1.17-22.84-3.38-34.02-6.32-8.5-2.24-16.78-5.14-24.81-8.72-7.15-3.19-14.24-6.5-20.89-10.68-5.62-3.53-10.8-7.56-15.24-12.61-3.93-4.47-7.45-9.17-10.18-14.43-2.47-4.78-4.26-9.78-4.01-15.33.4-8.86,6.58-16.07,16.19-16.03,3.12.01,3.02.46,2.96-2.93-.1-5.8,1.7-11.15,3.82-16.43,2.81-7,6.6-13.47,11.16-19.47,1.54-2.02,3.12-4.03,5.09-5.67.12-.5.48-.83.89-1.08,8.69-5.14,17.57-9.88,27.64-11.79,3.86-.73,7.73-1.15,11.67-.47,8.85,1.53,14.07,7.09,14.74,16.01.38,5.13-.16,10.21-1.39,15.21-.42,1.73-1.29,2.84-3.09,3.22-1.72.36-3.36,1.03-5.01,1.65-2.32.86-2.86.68-3.59-1.57-2.13-6.56-7.17-9.45-13.41-10.96-1.95-.47-3.19,0-4.36,1.81-3.62,5.6-10.96,6.91-16.35,3.08-.93-.66-1.67-.8-2.59-.16-3.8,2.66-6.98,5.82-8.66,10.28-2.91,7.69,1.13,14.62,7.81,17.61,7.95,3.56,15.91,2.53,23.67-.95.44-.2.85-.45,1.28-.65,1.3-.61,2.11-.1,2.13,1.23.08,4.34.95,8.56,1.8,12.8.21,1.03-.19,1.86-.96,2.56-1.19,1.08-2.43,2.11-3.88,2.79-12.73,5.96-25.45,6.16-38.01-.42-4.4-2.31-7.48-5.92-9-10.76-.24-.78-.31-2.11-1.35-1.97-1.06.14-.74,1.43-.76,2.25-.12,4.51,2.24,7.96,5.19,10.96,5.25,5.34,11.93,7.87,19.19,9.03,8.44,1.34,16.54.08,24.38-3.2,1.56-.65,2.97-1.56,4.44-2.37,2.18-1.2,3.04-1.03,3.93,1.17,2,4.91,4.92,9.33,7.36,13.99.52.99,1.08,1.98,2,2.67,1.35,1,2.51.49,2.67-1.19.16-1.66-.49-3.14-1.21-4.58-1.96-3.94-3.93-7.86-5.5-11.98-1.74-4.58-2.86-9.31-3.58-14.15-.11-.72-.17-1.43.26-2.09.77-.55,1.38,0,1.94.37,3.74,2.45,7.7,2.22,11.68.85,4.33-1.49,7.45-4.46,9.56-8.5.57-1.1.79-2.23.4-3.45-.29-.91-.51-1.84-.25-2.81,1.16-2.5,2.11-4.99.88-7.8-.58-1.34.27-2.12,1.55-2.39,2.42-.5,4.87-.85,7.34-1.04,8.05-.62,16.1-.48,24.16-.49,1.04,0,2.08.02,3.09-.3.69-.22,1.45-.49,1.55-1.31.11-.95-.6-1.46-1.37-1.73-1.82-.64-3.75-.79-5.65-.94-9.96-.79-19.92-.89-29.86.27-1.1.13-2.43.34-2.97-.91-.59-1.36-.22-2.66,1.18-3.48Z"/>
  <path class="cls-3" d="m408.26,360.27c.58,7.59,2.9,14.69,6.07,21.56,1.34,2.9,2.96,5.66,4.06,8.67.45,1.23.71,2.47.34,3.75-.45,1.56-1.49,1.98-2.94,1.25-1.05-.53-1.73-1.4-2.26-2.41-2.97-5.65-6.7-10.9-8.71-17.07-1.14.03-1.82.78-2.62,1.23-12.49,7.04-25.43,7.86-38.74,2.73-4.54-1.75-8.42-4.55-11.49-8.38-2.09-2.6-3.53-5.5-3.83-8.89-.09-1.05-.06-2.09.26-3.08.2-.62.62-1.15,1.37-1.14.64,0,1.02.45,1.25.97.23.51.4,1.05.53,1.59,1.22,4.86,4.21,8.32,8.43,10.87,4.25,2.57,8.91,3.95,13.77,4.55,7.34.91,14.51.12,21.39-2.73,2.23-.92,4.3-2.1,6.16-3.65.88-.73,1.23-1.41.95-2.66-1.01-4.43-1.84-8.91-1.79-13.49-1-.22-1.57.48-2.25.8-6.96,3.33-14.16,4.32-21.66,2.21-2.81-.79-5.34-2.15-7.44-4.2-3.85-3.76-5.34-8.28-4.04-13.55,1.5-6.06,5.59-10.08,10.71-13.24.6-.37.99-.26,1.4.3,4.11,5.5,14.09,2.54,16.76-3.14.65-1.37,1.29-1.81,2.68-1.4.84.25,1.73.3,2.58.52,6.88,1.82,12.09,5.39,13.44,13.16,2.97-1.12,5.85-2.17,8.83-2.93.68-.17.81-.72.94-1.26,1.52-6.26,2.41-12.57,1.14-18.99-1.35-6.79-6.07-11.22-12.95-12.41-6.07-1.05-11.93,0-17.73,1.7-5.78,1.69-11.17,4.28-16.41,7.21-2.23,1.25-4.48,2.45-6.73,3.67-.96-.05-1.98-.02-2.3-1.24-.28-1.08.3-1.84,1.04-2.5.47-.43.95-.85,1.47-1.22,9.2-6.54,19.14-11.45,30.32-13.57,4.91-.93,9.83-1.09,14.72.18,9.49,2.46,14.97,8.66,16.8,18.18.81,4.21.58,8.42-.25,12.6-.12.62-.36,1.23-.24,1.88-.53,1.16-.87,2.38-1.1,3.74.98.37,1.91.08,2.82-.03,11.4-1.31,22.8-1.05,34.19.14,1.04.11,2.06.35,2.93.96,1.4.99,1.36,2.63-.1,3.53-1.05.65-2.26.76-3.47.77-4.79.03-9.58-.02-14.37.09-6.14.14-12.3.23-18.37,1.39-.46.09-.97.04-1.5.61,2.41,3.29,1.41,6.48-.66,9.58-.23.59-.32,1.22-.64,1.79-2.74,4.94-12.15,9.82-17.71,9.18-1.92-.22-3.42-1.19-4.81-2.64-.31,1.53.14,3.02-.25,4.45Z"/>
  <path class="cls-3" d="m562.9,314.59c-1.68.43-2.93-.43-4.16-1.36-3.78-2.87-7.82-5.27-12.36-6.7-14.85-4.67-28.75-2.27-41.65,6.09-8.85,5.74-15.43,13.45-18.33,23.77-3.87,13.76-.74,25.86,9.79,35.61,8.94,8.27,19.78,11.77,31.92,11.04,11.74-.71,21.91-5.32,30.9-12.75.98-.81,1.93-1.68,2.91-2.5.49-.41.99-.82,1.54-1.13.97-.55,1.98-.6,2.92.11.85.64,1.12,1.82.67,3.06-.39,1.06-1.08,1.95-1.79,2.82-3.97,4.82-8.75,8.69-14.33,11.42-15.11,7.37-30.6,8.08-46.13,1.57-17.09-7.17-28.36-24.53-26.47-44.15.95-9.86,4.99-18.41,11.39-25.9.52-.6,1.01-1.22,1.52-1.84,1.54-1.38,3.03-2.84,4.64-4.12,10.22-8.11,21.9-12,34.91-11.81,9.72.14,18.76,2.73,27.05,7.83,1.84,1.13,3.62,2.37,5.15,3.9,1.85,1.86,1.8,3.22-.1,5.05Z"/>
  <path class="cls-3" d="m506.61,261.93c.29-1.04-.38-1.99-.2-3.06.48-2.9,2.05-4.96,4.56-6.35,2.57-1.42,5.41-1.87,8.28-2.05,4.69-.29,9.39-.33,14.06.44.55.09,1.11.17,1.65-.02,4.9.52,9.81,1.01,14.56,2.45,2.9.88,5.73,1.92,8.24,3.67,4.23,2.95,5.51,6.72,3.96,11.62-1.51,4.96-5.75,6.07-9.98,6.34-12.81.83-25.27-1.41-37.45-5.24-2.62-.82-4.99-2.16-6.2-4.87-.49-.97-.98-1.95-1.48-2.92Z"/>
  <path class="cls-13" d="m508.09,264.85c2.05,2.35,4.66,3.85,7.61,4.69,10.56,2.99,21.27,5.04,32.29,5.03,1.83,0,3.66-.11,5.48-.47,3.53-.69,6.44-2.24,8.25-5.47-.25,1.72-.12,3.52-.84,5.14-1.3,2.93-3.68,4.74-6.57,5.94-4.61,1.92-9.47,2.22-14.33,1.76-2.85-.27-5.71-.31-8.55-.74-5.12-.78-10.22-1.55-15.08-3.43-2.27-.88-4.24-2.15-5.88-3.98-1.52-1.7-2.21-3.72-2.13-5.91.03-.9-.19-1.71-.25-2.56Z"/>
  <path class="cls-3" d="m517.77,363.59c-5.66-.18-11.02-1.24-15.83-4.26-4.31-2.7-7.34-6.38-8.3-11.5-1.03-5.45.92-10.07,4.25-14.2,1.61-1.99,3.62-3.6,5.79-4.98.75-.48,1.27-.68,2.01.17,1.9,2.17,4.43,2.79,7.19,2.34,4.35-.71,7.92-2.53,9.22-7.19.21-.76.67-.99,1.41-.96,7.22.34,13.9,2.13,19.23,7.35,5.06,4.95,6.22,11.89,3.19,18.3-1.61,3.4-4.08,6.09-7.09,8.29-6.29,4.6-13.45,6.45-21.06,6.64Z"/>
  <path class="cls-3" d="m420.35,416.44c4.57-.05,9.06-.53,13.47-1.64.7-.18,1.38-.43,2.08-.55,1.57-.27,2.96.38,3.69,1.64.71,1.24.55,2.77-.46,4.02-.61.76-1.42,1.27-2.2,1.84-2.24,1.64-4.44,3.34-6.55,5.68,1.76.11,3.11-.36,4.45-.67,2.49-.57,4.95-1.25,7.4-1.97,2.63-.77,5.33-1.01,8.04-1.17.56-.03,1.13-.03,1.67.07,1.89.35,2.58,1.95,1.6,3.61-.38.64-.92,1.12-1.55,1.47-2.51,1.39-4.99,2.83-7.81,3.59-5.17,1.38-10.32,2.82-15.65,3.49-1.53.19-3.04.16-4.52-.25-3.57-.99-5.12-4.39-3.54-7.74.65-1.39,1.65-2.54,2.65-3.68.35-.4.7-.81,1.24-1.43-1.12-.17-1.86.02-2.62.16-1.74.32-3.5.38-5.26.26-2.2-.15-4.08-.98-5.05-3.09-.95-2.08-.44-4.06.84-5.87.89-1.25,1.98-2.31,3.21-3.21,6.97-5.09,14.8-8.1,23.25-9.59.97-.17,1.92-.17,2.84.17,1.74.63,2.05,2.44.56,3.53-.76.55-1.69.9-2.57,1.26-3.99,1.63-8.05,3.08-11.87,5.1-2.61,1.37-5.15,2.87-7.38,4.96Z"/>
  <path class="cls-13" d="m408.26,360.27c-.68-1.89-.37-3.83-.46-6.27,1.02,1.32,1.74,2.25,2.74,2.88,2.26,1.42,4.74,1.42,7.17.78,5.62-1.48,9.91-4.95,13.4-9.48.18-.24.18-.62.56-.7.13.46.2.94.4,1.36.75,1.59.51,3.09-.24,4.6-3.03,6.15-9.79,10.09-16.64,9.76-2.7-.13-4.86-1.4-6.93-2.94Z"/>
  <path class="cls-7" d="m385.77,352.24c-4.36,0-8.01-.66-11.28-2.76-2.19-1.41-2.3-2.78-.38-4.53.91-.83,2-1.28,3.22-1.47,3.04-.49,6.03-.18,9.02.44,2.64.55,4.07,2.38,5.02,4.67.62,1.49-.33,2.9-2.1,3.37-.23.06-.47.1-.71.12-1.11.07-2.23.12-2.8.15Z"/>
  <path class="cls-4" d="m518.38,358.16c-3.62-.09-7.14-.66-10.48-2.13-1.77-.78-3.39-1.78-4.85-3.04-2.03-1.75-1.95-2.41.41-3.84,1.25-.76,2.61-1.21,4.06-1.32,3.85-.3,7.66-.03,11.39,1.01,1.16.32,2.26.79,3.21,1.56,1.37,1.1,2.22,2.49,2.31,4.28.11,2.41-.5,3.11-2.93,3.29-1.03.08-2.07.13-3.11.19Z"/>
</svg>