<?xml version="1.0" encoding="UTF-8"?>
<svg id="_图层_1" data-name="图层 1" xmlns="http://www.w3.org/2000/svg" viewBox="0 0 960 960">
  <defs>
    <style>
      .cls-1 {
        fill: #454794;
      }

      .cls-1, .cls-2, .cls-3, .cls-4, .cls-5, .cls-6, .cls-7, .cls-8 {
        stroke-width: 0px;
      }

      .cls-2 {
        fill: #a76861;
      }

      .cls-3 {
        fill: #5b7dfe;
      }

      .cls-4 {
        fill: #040304;
      }

      .cls-5 {
        fill: #a76760;
      }

      .cls-6 {
        fill: #edb29a;
      }

      .cls-7 {
        fill: #f5b79f;
      }

      .cls-8 {
        fill: #f5b89f;
      }
    </style>
  </defs>
  <path class="cls-4" d="m580.97,779.77c1.56,2.13,1.35,3.36-.8,4.67-.27.17-.55.33-.85.44-8.77,3.37-17.51,4.51-26.02-.7-1.53-.94-2.87-.91-4.5-.45-5.14,1.45-10.16,3.39-15.45,4.29-8,1.35-16.03,1.84-24.11.73-3.08-.42-6-1.57-9.2-2.46-.35,1.81-.67,3.5-1.01,5.18-.47,2.28-1.07,4.51-2.16,6.58-3.44,6.53-10.76,7.96-16.35,3.14-3.76-3.24-6.27-7.42-8.56-11.76-.4-.76-.78-1.53-1.24-2.43-.7.4-.92,1.01-1.27,1.5-2.94,4.09-6.03,8.07-9.41,11.81-3.64,4.02-7.87,7.25-12.88,9.39-3.45,1.48-7.03,2.09-10.77,1.22-4.44-1.03-7.17-4.22-7.47-8.79-.15-2.17.13-4.32.51-6.44.2-1.13-.11-1.53-1.28-1.68-3.98-.5-7.83-1.59-11.55-3.07-10.52-4.2-18.39-11.38-23.79-21.29-1.99-3.65-3.72-7.42-4.85-11.45-3.2.37-6.28.83-9.41.74-4.68-.13-9.2-1.04-13.52-2.84-2.91-1.21-5.44-3.02-7.62-5.3-.84-.87-1.56-1.85-1.85-3.04-.47-1.91.34-2.69,2.43-2.42,1.04,1.66,2.39,2.97,4.22,3.74.93.94,2.13,1.4,3.33,1.79,4.6,1.48,9.28,2.15,14.13,1.49,8.52-1.17,16.18-4.37,22.77-9.85,4.99-4.14,9.25-9.03,13.14-14.22,2.12-2.84,4.77-3.82,8.16-3.08.86.19,1.72.38,2.58.52,4.62.73,8.92.22,12.41-3.3.98-.41,1.71-1.16,2.48-1.84,3.39-3.01,5.09-7.06,6.88-11.07,3.47-7.79,3.78-16.22,5.02-24.47.79-2.34,1.6-3.17,3.06-3.12,1.5.05,2.73,1.18,3.33,3.3,1.47,5.2,2.06,10.48,1.31,15.86-.36,2.56-.2,2.16,1.61,3.07,6.1,3.07,12.64,4.8,19.24,6.4.92.22,1.67.06,2.49-.4,1.95-1.09,3.85-2.25,5.71-3.5,1.33-.89,2.71-1.75,4.35-1.86,1.34-.09,1.67-.83,1.83-2.01.79-5.87,2.21-11.58,4.33-17.11,1.06-2.76,2.38-5.39,4.07-7.83.5-.72,1.04-1.42,1.66-2.03,1.47-1.44,2.14-1.42,3.85-.03.05,1.5-.64,2.76-1.27,4.04-4.32,8.9-5.88,18.42-6.2,28.19-.06,1.82.05,3.66.86,5.37-.03.29.05.5.36.57h0c-.11,1.31.66,2.29,1.29,3.29,2.13,3.4,5.25,5.51,8.97,6.84,6.69,2.38,13.65,3.26,20.68,3.66,2.95.17,5.92.14,8.87-.08,4.45-.33,7.41,3.52,6.34,7.66-.2.77-.38,1.55-.64,2.31-2.53,7.33-3.04,14.85-1.75,22.45,1.21,7.1,4.92,12.49,11.38,15.98,4.21,2.28,8.75,2.88,13.38,3.25,1.14.51,2.35.22,3.53.28,1.74.09,3.5-.25,5.23.21Zm-77.61-51.11c-.46-.55-.9-1.12-1.38-1.65-3.59-3.97-5.85-8.54-6.43-13.9-.03-.31-.06-.64-.6-.77-1.31.85-2.65,1.86-4.21,2.48-.98.38-.83.94-.43,1.68,1.07,2,1.51,4.2,1.91,6.41.42,2.28.8,4.57,1.26,6.84,2.2,10.81,4.03,21.68,5.15,32.67.41,3.97.85,7.94,1.28,11.91.03,1.44.1,2.88.07,4.31-.03,1.06.38,1.62,1.44,1.82,4.86.91,9.67,2.03,14.67,2.17,8.92.26,17.52-1.03,25.76-4.49.77-.32,1.67-.47,2.26-1.3-1.68-2.32-3.32-4.58-4.42-7.17-2.07-4.84-2.98-9.94-3.27-15.15-.25-4.56,0-9.1.82-13.61.37-2.06.31-2.1-1.81-2.27-4.14-.33-8.28-.7-12.32-1.76-5.34-1.39-10.71-2.67-15.53-5.52-1.43-.85-2.81-1.79-4.21-2.69Zm-46.44-11.19c-1.04.85-1.3,2.15-1.82,3.28-4.42,9.64-14.64,19.44-29.27,16.42-2.9-.6-4.59.08-6.52,2.17-4.23,4.56-8.68,8.93-14.15,12.08-3.33,1.92-6.77,3.57-10.36,4.94-1.47.56-1.51.63-.74,2.03,1.84,3.35,3.72,6.67,6.04,9.72,8.44,13.49,25.07,19.23,39.59,17.01,6.22-.95,11.99-3.3,17.61-6.05,3.59-1.76,7.16-3.55,10.81-5.16,3.83-1.68,6.91-.52,8.79,3.21.75,1.49,1.29,3.09,1.86,4.67,1.41,3.94,3.34,7.61,5.82,10.97.68.92,1.32,2.38,2.65,2.11,1.31-.27,1.36-1.84,1.66-2.96,1.54-5.71,1.62-11.53,1.21-17.38-.81-11.56-1.91-23.1-3.65-34.56-.8-5.29-1.64-10.57-2.99-15.77-.65-2.5-2.04-3.86-4.6-4.54-6.73-1.79-13.25-4.18-19.42-7.46-.19-.1-.43-.09-.64-.13-1.13,1.67-1.21,3.64-1.88,5.4Zm2.05,71.95c-.4-.08-.49-.12-.55-.1-7.04,2.93-14.25,5.11-21.96,5.16-.83,0-1.12.45-1.13,1.19-.02,1.59-.13,3.19-.02,4.78.19,2.78,1.18,3.62,3.97,3.61,2.83-.01,5.25-1.24,7.56-2.67,4.9-3.04,8.57-7.32,12.13-11.97Z"/>
  <path class="cls-3" d="m580.97,779.77c-1.73-.46-3.48-.13-5.23-.21-1.18-.06-2.39.23-3.53-.28.32-3.47-1.46-6.14-3.45-8.65-2.38-3-4.6-6.11-6.74-9.28-3.73-5.54-5.49-11.61-5.13-18.31.16-3.03.17-6.07.05-9.1-.14-3.73-2.61-8.46-7.36-9.58-4.13-.97-8.36-1.53-12.55-1.13-3.63.34-7.2.01-10.71-.42-7.94-.97-15.27-3.82-21.75-8.64-.23-.17-.59-.16-.89-.23,0,0,0-.01,0-.01.06-.3-.09-.47-.36-.57-.8-1.71-.92-3.55-.86-5.37.32-9.78,1.88-19.29,6.2-28.19.62-1.28,1.32-2.55,1.27-4.04,5.49-1.65,10.6-.27,15.51,2.12,10.14,4.93,18.65,11.89,25.74,20.67,4.29,5.31,7.8,11.09,11.07,17.04,5.77,10.5,10.96,21.28,15.35,32.44,2.4,6.1,3.72,12.37,3.64,18.91-.02,2.03.52,3.95.84,5.91.4,2.45.12,4.76-1.13,6.93Z"/>
  <path class="cls-3" d="m362.21,749.07c-1.83-.77-3.18-2.08-4.22-3.74,1.98-1,3.28-2.75,4.81-4.25,15.04-14.71,30.61-28.79,48.33-40.27,6.5-4.21,13-8.44,19.81-12.16,3.58-1.96,7.28-3.66,11.08-5.12.96-.37,1.99-.59,3-.82,3.12-.72,5.85-.06,8.09,2.32-1.24,8.25-1.55,16.68-5.02,24.47-1.79,4.01-3.5,8.06-6.88,11.07-.77.69-1.5,1.43-2.48,1.84-.68-.35-1.38-.24-2.1-.12-2.23.39-4.46.4-6.63-.3-2.05-.67-4.16-1.12-6.27-1.54-5.52-1.11-10.67-.15-15.25,3.15-3.3,2.38-6.37,5.06-9.36,7.82-3.93,3.63-8.02,7.06-12.64,9.82-2.48,1.48-5.1,2.6-7.86,3.47-4,1.27-8.16,1.35-12.27,1.78-1.85.19-3.48.59-4.17,2.59Z"/>
  <path class="cls-8" d="m456.92,717.48c.67-1.77.75-3.74,1.88-5.4.21.04.45.03.64.13,6.17,3.28,12.69,5.67,19.42,7.46,2.56.68,3.94,2.04,4.6,4.54,1.36,5.19,2.19,10.47,2.99,15.77,1.74,11.46,2.84,23,3.65,34.56.41,5.85.33,11.67-1.21,17.38-.3,1.13-.35,2.7-1.66,2.96-1.33.27-1.96-1.19-2.65-2.11-2.49-3.36-4.41-7.03-5.82-10.97-.57-1.58-1.11-3.18-1.86-4.67-1.88-3.73-4.97-4.9-8.79-3.21-3.65,1.61-7.23,3.4-10.81,5.16-5.62,2.76-11.39,5.1-17.61,6.05-14.51,2.22-31.14-3.52-39.59-17.01.27-.34.65-.44,1.06-.44,2.87.05,5.49-.86,7.99-2.17,8.17-4.26,14.5-10.36,18.42-18.77.82-1.77,1.75-2.93,3.91-2.67.76.09,1.56-.28,2.35-.37,4.94-.57,9.08-2.85,12.79-6.02,5.62-4.8,8.91-10.94,10.38-18.12.15-.71.37-1.4-.08-2.07Z"/>
  <path class="cls-7" d="m499.91,774.33c-.43-3.97-.87-7.94-1.28-11.91-1.12-10.98-2.95-21.85-5.15-32.67-.46-2.27-.84-4.56-1.26-6.84-.4-2.2-.84-4.4-1.91-6.41-.4-.74-.54-1.3.43-1.68,1.56-.61,2.9-1.63,4.21-2.48.54.13.56.45.6.77.58,5.36,2.84,9.93,6.43,13.9.48.53.92,1.1,1.38,1.65-.1.41.04.78.21,1.15,1.61,3.57,4.03,6.52,7.13,8.86,4.42,3.33,9.49,5.11,14.93,6,1.71.28,3.47.23,5.28.65-.68,5.39-.88,10.71-.83,16.05.03,3.45.42,6.83,1.28,10.16.53,2.06.38,2.27-1.68,2.82-3.55.95-7.17,1.53-10.81,1.84-2.53.22-5.07.12-7.63-.23-3.78-.51-7.47-1.68-11.33-1.63Z"/>
  <path class="cls-1" d="m503.69,713.94c.3.07.66.06.89.23,6.48,4.82,13.81,7.67,21.75,8.64,3.51.43,7.08.76,10.71.42,4.19-.39,8.42.16,12.55,1.13,4.75,1.12,7.22,5.85,7.36,9.58.12,3.03.11,6.07-.05,9.1-.36,6.7,1.4,12.77,5.13,18.31,2.14,3.17,4.36,6.28,6.74,9.28,1.99,2.51,3.77,5.18,3.45,8.65-4.63-.37-9.17-.97-13.38-3.25-6.46-3.49-10.17-8.88-11.38-15.98-1.29-7.6-.79-15.12,1.75-22.45.26-.75.44-1.53.64-2.31,1.07-4.14-1.89-7.99-6.34-7.66-2.94.22-5.92.25-8.87.08-7.03-.4-13.99-1.28-20.68-3.66-3.72-1.32-6.85-3.44-8.97-6.84-.62-1-1.39-1.98-1.29-3.28Z"/>
  <path class="cls-5" d="m499.91,774.33c3.86-.05,7.55,1.12,11.33,1.63,2.56.35,5.1.45,7.63.23,3.64-.31,7.26-.89,10.81-1.84,2.06-.55,2.21-.77,1.68-2.82-.86-3.34-1.24-6.72-1.28-10.16-.05-5.34.14-10.66.83-16.05-1.81-.41-3.57-.37-5.28-.65-5.44-.89-10.51-2.67-14.93-6-3.1-2.33-5.52-5.29-7.13-8.86-.17-.37-.31-.73-.21-1.15,1.4.9,2.78,1.84,4.22,2.69,4.81,2.85,10.19,4.13,15.53,5.52,4.04,1.05,8.18,1.43,12.32,1.76,2.12.17,2.18.22,1.81,2.27-.82,4.51-1.08,9.05-.82,13.61.29,5.21,1.2,10.3,3.27,15.15,1.11,2.59,2.74,4.85,4.42,7.17-.59.83-1.49.98-2.26,1.3-8.24,3.46-16.85,4.75-25.76,4.49-5-.14-9.81-1.26-14.67-2.17-1.05-.2-1.46-.76-1.44-1.82.04-1.44-.04-2.87-.07-4.31Z"/>
  <path class="cls-2" d="m456.92,717.48c.45.68.23,1.36.08,2.07-1.47,7.18-4.76,13.32-10.38,18.12-3.71,3.17-7.85,5.45-12.79,6.02-.79.09-1.59.46-2.35.37-2.16-.26-3.08.91-3.91,2.67-3.92,8.41-10.25,14.51-18.42,18.77-2.5,1.3-5.12,2.21-7.99,2.17-.41,0-.79.1-1.06.44-2.32-3.05-4.2-6.37-6.04-9.72-.77-1.4-.73-1.47.74-2.03,3.59-1.36,7.03-3.02,10.36-4.94,5.47-3.15,9.92-7.52,14.15-12.08,1.93-2.08,3.62-2.76,6.52-2.17,14.64,3.01,24.85-6.78,29.27-16.42.52-1.14.78-2.43,1.82-3.28Z"/>
  <path class="cls-1" d="m362.21,749.07c.68-2,2.31-2.39,4.17-2.59,4.11-.42,8.26-.51,12.27-1.78,2.76-.87,5.38-1.99,7.86-3.47,4.61-2.76,8.7-6.19,12.64-9.82,2.99-2.76,6.06-5.44,9.36-7.82,4.58-3.3,9.73-4.26,15.25-3.15,2.11.42,4.21.88,6.27,1.54,2.17.7,4.4.7,6.63.3.72-.13,1.42-.24,2.1.12-3.49,3.53-7.79,4.03-12.41,3.3-.87-.14-1.72-.33-2.58-.52-3.39-.74-6.04.25-8.16,3.08-3.88,5.18-8.15,10.07-13.14,14.22-6.6,5.48-14.25,8.68-22.77,9.85-4.85.67-9.53-.01-14.13-1.49-1.2-.39-2.41-.85-3.33-1.79Z"/>
  <path class="cls-6" d="m458.97,789.43c-3.56,4.65-7.23,8.94-12.13,11.97-2.32,1.44-4.73,2.66-7.56,2.67-2.79.01-3.78-.83-3.97-3.61-.11-1.58,0-3.19.02-4.78,0-.74.3-1.18,1.13-1.19,7.71-.05,14.92-2.23,21.96-5.16.06-.02.15.02.55.1Z"/>
  <path class="cls-1" d="m503.33,713.37c.27.09.42.26.36.57-.31-.07-.39-.28-.36-.57Z"/>
</svg>