<?xml version="1.0" encoding="UTF-8"?>
<svg id="_图层_1" data-name="图层 1" xmlns="http://www.w3.org/2000/svg" viewBox="0 0 960 960">
  <defs>
    <style>
      .cls-1 {
        fill: #fefefe;
      }

      .cls-1, .cls-2, .cls-3, .cls-4, .cls-5, .cls-6, .cls-7, .cls-8, .cls-9, .cls-10, .cls-11, .cls-12, .cls-13, .cls-14, .cls-15, .cls-16 {
        stroke-width: 0px;
      }

      .cls-2 {
        fill: #464798;
      }

      .cls-3 {
        fill: #ffd53a;
      }

      .cls-4 {
        fill: #dfdbdb;
      }

      .cls-5 {
        fill: #4a68f8;
      }

      .cls-7 {
        fill: #b26a1a;
      }

      .cls-8 {
        fill: #f7b7a1;
      }

      .cls-9 {
        fill: #a86861;
      }

      .cls-10 {
        fill: #bcd2ff;
      }

      .cls-11 {
        fill: #fff;
      }

      .cls-12 {
        fill: #a96861;
      }

      .cls-13 {
        fill: #5e322f;
      }

      .cls-14 {
        fill: #ed574d;
      }

      .cls-15 {
        fill: #4764ef;
      }

      .cls-16 {
        fill: #5a7dff;
      }
    </style>
  </defs>
  <path class="cls-6" d="m722.07,311.84c-.82-6.88-1.69-13.81-4.72-20.2-.34-.89-.73-1.77-1.03-2.68-3.37-10.18-8.37-19.49-14.89-27.99-4.21-5.49-9.15-10.23-14.75-14.29-3.79-2.75-7.84-4.94-12.44-5.94-1.19-.26-1.64-.77-1.7-2.05-.27-5.72-2.52-10.66-6.24-14.96-1.49-1.72-3.24-3.12-5.37-3.92-4.35-1.63-8.81-2.19-13.41-1.15-7.57,1.71-13.78,5.86-19.32,11.05-5.89,5.51-11.66,11.16-17.32,16.91-7.09,7.19-14.49,13.97-23,19.47-2.92,1.89-2.19,1.87-4.03-.82-8.31-12.07-17.11-23.71-29.22-32.38.47-.58,1.17-.83,1.78-1.2,2.94-1.78,5.81-3.66,8.54-5.75,1.21-.93,2.06-2.06,1.65-3.69-.4-1.59-1.66-2.01-3.09-2.16-1.36-.61-2.47.18-3.64.64-7.82,3.02-15.33,6.76-23.11,9.87-1.28.51-2.53.92-3.93.36-6.27-2.54-12.54-1.81-18.71.28-4.3,1.46-8.54,3.12-12.83,4.64-4.34,1.54-8.18,3.95-11.66,6.94-.99.85-2.05,1.5-3.38,1.65-7.37.81-14.73,1.68-22.17,1.5-6.48-.16-12.85-.88-18.99-3.16-8.3-3.07-10.29-8.83-5.53-16.33.3-.47.61-.94.93-1.4,2.95-4.29,6.49-8.06,10.24-11.65.63-.68,1.32-1.33,1.7-2.19.37-.85.83-1.77-.44-2.34-1.3-.37-2.36.29-3.38.87-6.09,3.47-11.67,7.61-15.93,13.23-1.46,1.93-3.04,2.87-5.4,3.3-6.91,1.24-13.24,4.11-19.25,7.67-1.18.7-2.09.75-3.3.09-2.95-1.62-6.05-2.91-9.38-3.54-2.62-.5-5.25-.52-7.81.39-4.66,1.66-6.26,5.44-4.22,9.93,1.08,2.36,2.68,4.36,4.54,6.13.92.87.92,1.38-.03,2.26-7.22,6.72-13.55,14.23-19.42,22.13-.31.42-.49,1.03-1.33,1-3.63-3.65-6.62-7.88-9.16-12.43-2.06-3.7-4.19-7.36-6.55-10.88-1.29-1.93-2.69-3.78-4.41-5.35-3.15-2.88-6.85-3.89-10.88-2.56-6.25,2.06-10.56,6.27-12.25,12.71-1.26,4.79-1.03,9.67.25,14.47,1.22,4.58,3.13,8.87,5.38,13.03,2.42,4.47,5.69,8.28,8.98,12.09,2.78,3.23,5.82,6.14,9.54,8.28,1.59.91,1.6.94.77,2.7-3.31,7.01-6.17,14.19-8.57,21.56-1.19,3.64-2.33,7.3-3.5,10.95-.29.91-.61,1.71-1.56,2.28-6.02,3.6-11.12,8.32-15.85,13.44-4.53,4.91-8.22,10.4-10.94,16.51-4.94,11.1-5.43,22.38-1.34,33.84,2.37,6.62,5.94,12.54,10.45,17.92,4.18,4.99,8.99,9.3,14.06,13.35,1.12.9,2.18,1.87,3.27,2.81,4.16,3.98,9.22,6.6,14.24,9.21,15.69,8.16,32.26,13.86,49.48,17.84,22.59,5.22,45.5,7.61,68.63,8.15,4.79.11,9.58-.29,14.36-.39,8.24-.18,16.43-.82,24.6-1.69,12.32-1.32,24.55-3.32,36.63-6.1,22.24-5.12,43.65-12.44,63.42-24.04,3.84-2.25,7.89-4.26,10.83-7.79,2.38-2.02,4.8-3.97,7.12-6.06,7.22-6.51,12.96-14.11,16.69-23.14,4.39-10.63,4.82-21.44,1.05-32.31-3.78-10.88-10.65-19.58-19.59-26.68-3.06-2.43-6.31-4.63-9.52-6.88-.93-.66-1.26-1.31-1.25-2.54.05-6.25-.32-12.45-3.13-18.24-.48-.99-.7-2.11-1.04-3.17.29-1.42-.35-2.64-.8-3.91-.82-2.33-.73-2.43,1.62-3.15,4.12-1.25,8.34-2.2,12.38-3.66,5.42-1.95,10.42-4.78,15.14-8.12,1.96-1.39,2.03-1.33,2.5.96.84,4.15,1.84,8.25,3.27,12.24.32.89.49,1.88,1.42,2.41.14.29.29.57.41.87,5.09,13.02,12.31,24.62,22.57,34.26,5.32,5,11.35,8.75,18.21,11.15,4.9,1.71,9.93,2.3,15.06,1.05,4.37.05,7.73-2.21,10.85-4.89,5.18-4.47,8.37-10.21,10.32-16.69,2.36-7.83,2.82-15.87,1.86-23.92Zm-29.61,6.02c-2.85-.58-5.44-1.86-7.73-3.66-6.25-4.9-11.13-10.97-14.9-17.92-4.95-9.12-7.64-18.9-8.27-29.25-.07-1.12.09-1.94.99-2.72.89-.78,1.65-1.75,2.26-2.77.68-1.14,1.38-1.09,2.32-.45,1.39.93,2.92,1.69,4.2,2.75,6.14,5.09,12.37,10.08,17.66,16.13,4.63,5.3,8.16,11.21,10.47,17.85,1.2,3.46,2.54,6.9,3.01,10.57.09.71.13,1.43.2,2.14.21,5.22-4.6,8.47-10.21,7.32Z"/>
  <path class="cls-16" d="m450.46,212.92c.45-.55.89-1.1,1.35-1.65.64-.76.79-1.54.17-2.38,3.42-1.43,7.08-1.92,10.69-2.49,11.21-1.78,22.49-2.87,33.87-2.46,11.43.41,22.75,1.75,33.96,3.99,7.12,1.42,14.26,2.72,21.39,4.11,2.59.51,5.09,1.36,7.45,2.57,2.26,1.15,3.83,2.84,4.16,5.46-5.5,1.91-10.8,4.3-16.13,6.63-3.87,1.69-7.76,3.33-11.65,4.98-.8.34-1.54.65-2.49.18-5.16-2.54-10.52-2.12-15.91-.94-.39.08-.78.18-1.15.31-5.94,2.09-11.91,4.07-17.7,6.56-3.24,1.39-6.12,3.43-8.75,5.78-.8.71-1.62,1.27-2.7,1.4-7.6.95-15.21,1.82-22.89,1.49-.2-2.83-2.08-4.3-4.17-5.95-7-5.52-10.58-12.65-9.02-21.78.34-2.01.6-3.95-.45-5.82Z"/>
  <path class="cls-2" d="m334.76,437.06c2.9,1.36,5.36,3.44,8.12,5.04,8.04,4.66,16.41,8.54,25.07,11.94,8.95,3.52,18.08,6.33,27.39,8.63,11.01,2.72,22.16,4.71,33.42,6.13,10.23,1.3,20.49,2.01,30.78,2.51,9.44.45,18.87.19,28.27-.32,23.83-1.29,47.3-4.96,70.27-11.54,12.54-3.59,24.75-8.1,36.46-13.88,7.46-3.68,14.71-7.74,21.4-12.73.31-.23.68-.39,1.02-.59-.32,1.78-1.59,2.89-2.83,4.03-6.38,5.85-13.37,10.91-20.71,15.47-17.86,11.08-37.18,18.74-57.42,24.18-18.03,4.85-36.37,7.74-55.02,8.78-26.18,1.45-52.04-.58-77.43-7.33-16.61-4.41-32.45-10.69-46.87-20.2-7.72-5.09-14.73-10.98-20.6-18.15-.5-.61-1.17-1.11-1.32-1.95Z"/>
  <path class="cls-2" d="m699.05,357.34c.91-.75,2.1-.53,3.14-.94,6.22-2.48,10.7-6.88,13.92-12.6,3.46-6.15,5.03-12.85,5.53-19.88.75-10.59-1.2-20.79-4.01-30.89-.13-.46-.4-.88-.28-1.38,5.93,9.06,12,18.06,14.04,29.01,1.44,7.76,1.11,15.4-1.6,22.86-1.49,4.11-3.7,7.79-7.05,10.66-5.6,4.8-12.05,6.24-19.22,4.66-1.55-.34-2.79-1.58-4.48-1.49Z"/>
  <path class="cls-2" d="m607.28,313.23c-.68-1.85-1.35-3.7-2.06-5.53-.36-.93-.27-1.39.85-1.68,3.62-.92,7.19-2.01,10.79-2.97,5.05-1.36,9.69-3.62,14.11-6.34,2.3-1.41,4.53-2.93,7.1-4.6,1.14,6.27,2.68,12.16,4.72,17.91-11.13,2.96-22.36,4.94-33.93,3.15-.53-.08-1.08-.39-1.59.07Z"/>
  <path class="cls-8" d="m425.53,260.5c.3-.37.6-.75.91-1.11,2.04-2.37,2.28-5,1.12-7.82-.78-1.88-2.07-3.39-3.52-4.78-2.48-2.39-5.27-4.38-8.14-6.26-.58-.38-1.34-.58-1.62-1.43,3.95-2.37,8.04-4.46,12.36-5.92.59.49.34.98.29,1.41-.78,6.65,2.01,11.6,7.32,15.33,1.23.87,2.57,1.59,3.86,2.38.68.56,1.37,1.11,1.92,1.79,3.15,3.85,7.42,5.69,12.13,6.67,11.11,2.31,22.19,2.1,33.22-.56,1.17-.28,2.32-.57,3.53-.26,1.9.42,3.82.6,5.76.64.98.54,2.04,1.03,2.76,1.88,2.92,3.46,6.77,3.66,10.74,3,8.68-1.46,16.76-4.58,24.01-9.62,3.89-2.71,7.31-5.94,8.8-10.69.29-.94.85-1.7,1.68-2.26,2.05-1.37,4.34-2.37,6.27-3.93.53-.43,1.19-.4,1.79-.03,4.81,4.6,9,9.73,12.9,15.12,10.88,15.04,19.39,31.38,26.89,48.3,3.5,7.89,6.64,15.92,9.33,24.14.9,2.74,1.66,5.51,2.17,8.34.42,2.37,1.54,4.12,3.63,5.34,8.13,4.72,14.17,11.65,19.64,19.08,4.31,5.86,7.15,12.44,8.13,19.75.99,7.4-.67,14.3-3.87,20.9-2.93,6.04-7.13,11.18-11.83,15.9-8.24,8.28-17.69,14.94-28.03,20.34-15.83,8.27-32.61,13.88-49.99,17.75-26.52,5.91-53.38,7.93-80.51,6.9-16.24-.62-32.37-2.22-48.3-5.5-19.41-3.99-38.21-9.82-55.78-19.19-6.15-3.28-12.02-6.99-17.54-11.25-5.94-4.58-11.04-9.96-15.04-16.31-7.89-12.5-8.34-25.38-1.68-38.51,3.47-6.86,8.41-12.61,14.02-17.81,1.87-1.74,3.79-3.43,5.7-5.13,2.03-1.81,3.42-4.05,4.06-6.66,2.65-10.68,6.89-20.76,11.5-30.7,4.99-10.75,10.88-20.96,17.68-30.69,5.46-7.82,11.41-15.2,18.15-21.95.2-.08.36-.21.48-.38l.05-.02c.88-.15,1.23.61,1.76,1.04,5.32,4.39,11.21,7.48,18.12,8.56,5.68.88,10.23-.52,13.19-5.75Z"/>
  <path class="cls-3" d="m647.5,256.99c1.84-1.17,2.83-1.14,4.19.22,1.39,1.4,2.11,3.18,2.64,5.04.98,3.39,1.22,6.92,1.91,10.36,3.13,15.6,9.43,29.63,20.49,41.29,3.86,4.07,8.23,7.31,13.82,8.62,3.04.71,6.04.59,8.98-.37,6.29-2.06,9.54-7.73,8.42-14.56-.4-2.45-1.2-4.8-1.86-7.19-.19-.59-.17-1.1.56-1.29,1.7-.44,6.37,1.91,7.16,3.59,1.67,9.86,1.72,19.68-.87,29.42-.87,3.26-2.14,6.33-3.9,9.22-5.41,8.91-14.03,11.45-23.31,9.15-1.92-.47-3.84-1.04-5.49-2.24.17-.18.36-.31.59-.39,2.93-1.12,3.36-2.38,1.63-5.03-2.06-3.15-4.49-6-6.97-8.81-7.57-8.59-14.4-17.72-19.59-27.97-2.5-4.93-4.05-10.24-5.79-15.46-.3-.91-.6-1.82-.91-2.73-1.38-3.91-2.78-4.32-5.97-1.74-.53-3.37-.72-6.76-.41-10.17,2.58-.48,3.8-2.2,4.54-4.58.88-2.82,1.57-5.66,2.11-8.56.44-2.38.17-4.39-1.97-5.82Z"/>
  <path class="cls-12" d="m659.64,258.61c-1.09-2.35-2.46-4.48-4.63-5.99-4.44-3.09-9.22-1.87-12.03,2.76-4.15,6.85-5.53,14.37-5.81,22.2-.06,1.75-.07,3.52.04,5.27.08,1.26-.39,2.04-1.31,2.86-6.1,5.47-13.08,9.43-20.8,12.01-3.54,1.18-7.26,1.82-10.92,2.59-1.7.36-1.79.26-2.37-1.44-.98-2.89-2.52-5.51-3.89-8.21-.14-.28-.31-.56-.46-.84-1.87-3.53-1.72-3.6,1.35-6.16,10.8-8.98,20.6-18.87,27.77-31.1.65-1.11,1.31-2.21.95-3.58,4.55-3.64,9.06-7.34,14.42-9.82,4.11-1.9,8.37-2.79,12.82-2.19,5.69.77,9.37,4.09,11.05,9.6.15.5-.09.94-.26,1.38-1.48,3.79-3.04,7.55-4.89,11.18-.56.26-.73-.27-1.04-.52Z"/>
  <path class="cls-8" d="m328.22,263.84c-.39-2.15-.25-4.31.03-6.45.59-4.51,3.25-7.55,7.14-9.59,2.98-1.56,5.25-1.09,7.48,1.46,3.06,3.51,5.39,7.54,7.69,11.55,2.39,4.16,4.91,8.23,7.87,12.02,1.18,1.51,2.44,2.97,3.87,4.25.81.72.92,1.39.37,2.28-1.63,2.65-3.24,5.31-4.86,7.97-.1.2-.23.37-.42.49h0c-.38.17-.78.22-1.17.1-7.57-2.33-14.67-5.41-19.9-11.77-1.98-2.41-3.98-4.8-5.74-7.37-1.04-1.52-1.9-3.14-2.36-4.95Z"/>
  <path class="cls-8" d="m665.83,246.57c-.36.1-.73.34-.87-.31-1.24-5.73-7.1-8.8-12.17-8.88-5.26-.09-9.82,1.75-14.24,4.23-3.35,1.88-6.31,4.31-9.2,6.81-.53.46-.98,1.13-1.81.55-.76-.58-1.36-.21-1.87.36-1.01,1.13-2.04,2.25-2.99,3.44-7.72,9.68-16.6,18.16-26.41,25.68-3.38,2.59-2.55,2.43-4.65-1.03-.69-1.14-1.21-2.4-1.8-3.59.54-.69,1.3-.99,1.98-1.39,9.21-5.46,17.36-12.22,24.84-19.86,5.31-5.43,10.69-10.79,16.13-16.09,4.33-4.22,9.24-7.61,15-9.66,2.7-.96,5.43-1.19,8.26-.92,3.23.31,5.77,1.75,7.62,4.4,2.52,3.62,3.68,7.59,2.98,12.01-.23,1.42-.52,2.83-.78,4.24Z"/>
  <path class="cls-7" d="m713.82,302.7c-.53-.67-1-1.29-1.97-1.53-1.6-.39-3.14-1.03-4.7-1.59-.84-.3-.91.29-1.06.82-1.13-2.88-2.18-5.8-3.42-8.64-2.13-4.85-4.83-9.39-8.37-13.35-7.32-8.2-15.26-15.68-24.9-21.15-.74-.42-1.49-.74-.89-1.78,1.82-3.14,2.81-6.59,3.74-10.17,1.14-.09,2.01.49,2.92.9,9.33,4.14,16.45,10.9,22.38,19.03,7.34,10.06,12.43,21.18,15.37,33.28.33,1.38.92,2.71.9,4.17Z"/>
  <path class="cls-11" d="m643.24,286.12c.32-1.54,1.34-2.43,2.83-2.44,1.48-.02,2.57.88,3.08,2.28.76,2.1,1.53,4.2,2.13,6.35,4.08,14.48,12.28,26.58,21.76,37.95,3.32,3.98,7.01,7.67,9.8,12.08.26.4.58.77.81,1.18,1.42,2.54.22,4.64-2.68,4.73-.24,0-.48,0-.72,0-6.42-2.97-11.65-7.47-16.18-12.81-8.17-9.64-13.65-20.73-17.35-32.74-1.67-5.41-3.03-10.91-3.49-16.58Z"/>
  <path class="cls-10" d="m450.46,212.92c1.28.34,1.38,1.38,1.47,2.44.14,1.62-.3,3.19-.62,4.72-.55,2.61-.12,5.1.52,7.55,1.5,5.71,4.83,10.12,9.83,13.33,2.54,1.63,3.39,3.03,2.46,5.51-6.18.01-12.26-.58-18.13-2.69-1.96-.7-3.84-1.58-5.55-2.77-3.89-2.7-4.95-5.87-3.53-10.41.6-1.92,1.56-3.67,2.68-5.33,3.09-4.59,6.8-8.64,10.88-12.36Z"/>
  <path class="cls-12" d="m550.71,238.9c-.38.07-.9,0-1.13.23-1.87,1.81-4.31,2.72-6.45,4.09-.62.4-1.2.8-1.42,1.54-1.81,6.3-6.53,10.02-11.79,13.24-6.67,4.1-13.92,6.71-21.6,8.06-2.51.44-5.11.61-7.55-.4-2.55-1.05-4.31-3.11-6.1-5.1,13.17-1.22,25.38-5.26,36.47-12.52,2.69-1.76,5.2-3.73,6.31-6.95.3-.86,1.07-1.12,1.81-1.43,2.28-.96,4.58-1.86,6.81-2.92,1.19-.56,2.11-.52,2.93.53.49.62,1.32.88,1.7,1.62Z"/>
  <path class="cls-12" d="m488.9,259.93c-4.72,1.47-9.56,2.44-14.46,2.81-5.07.39-10.16.48-15.25-.17-3.55-.46-7.07-1-10.51-2.02-4.03-1.2-7.27-3.53-9.87-6.78-.34-.43-.67-.89-.72-1.48,3.44,1,6.83,2.15,10.39,2.7,7.69,1.19,15.39,1.53,23.15.91,3.58-.29,7.16-.55,10.72-1.08.83-.12,1.57-.12,1.92.89.78,2.22,2.64,3.29,4.62,4.22Z"/>
  <path class="cls-12" d="m328.22,263.84c1.86,2.87,3.64,5.77,5.67,8.54,5.04,6.86,11.55,11.57,19.67,14.09,1.29.4,2.55.9,3.83,1.36-1.77,3.29-3.53,6.58-5.41,10.07-3.09-2.08-6.05-4.09-8.64-6.51-7.52-7.05-12.45-15.65-14.93-25.66-.15-.62-.35-1.23-.19-1.88Z"/>
  <path class="cls-12" d="m425.53,260.5c-.05,2.39-1.69,3.74-3.46,4.79-2.8,1.67-5.85,2.19-9.16,1.69-6.96-1.04-13.03-3.9-18.45-8.31-.75-.61-1.35-1.34-2-2.03,2.87-3.41,2.83-3.34,6.61-1.34,5.15,2.73,10.6,4.7,16.26,6.1,3.5.86,6.92.74,10.2-.91Z"/>
  <path class="cls-1" d="m647.5,256.99c2.19.6,3.1,1.64,2.85,3.69-.54,4.44-1.38,8.84-3.24,12.95-1.02,2.26-1.99,2.74-4.29,2.32-.26-5.16.65-10.19,1.93-15.15.4-1.54,1.42-2.84,2.75-3.82Z"/>
  <path class="cls-13" d="m659.64,258.61c.35.17.69.35,1.04.52-.02.31-.1.68-.47.59-.53-.13-.58-.63-.57-1.11Z"/>
  <path class="cls-12" d="m392.41,256.67c-.04.28-.21.39-.48.38.04-.29.18-.43.48-.38Z"/>
  <path class="cls-12" d="m357.4,287.82c0-.28.16-.43.42-.49.02.3-.1.48-.42.49Z"/>
  <path class="cls-11" d="m580.52,354.07c9.89-.34,18.74,2.8,26.68,8.42,4.95,3.5,6.87,8.54,6.06,14.66-.89,6.65-3.86,12.25-8.08,17.31-7.06,8.48-16.03,14.29-26.02,18.67-7.1,3.11-14.27,6.04-21.68,8.31-9.84,3.01-19.65,6.11-29.63,8.61-2.78.7-5.57,1.37-8.37,1.99-1.31.29-2.66.64-3.93-.22-.46-1.13.26-2.01.65-2.94,1.8-4.26,2.77-8.63,2.27-13.3-.68-6.42-4.62-11.41-10.75-13.35-6.39-2.02-12.98-1.75-19.5-1.28-18.55,1.33-36.3,6.37-53.84,12.2-3.72,1.24-7.34,2.72-10.83,4.52-6.28,3.24-8.27,9.4-5.09,15.76.32.64.71,1.25,1.02,1.9.21.45.36.91.37,1.41,0,.12-.01.24-.02.36-1.25,2.02-2.86,2.85-5.39,2.52-8.26-1.08-16.26-3.09-24.14-5.74-9.07-3.05-18.25-5.84-26.98-9.81-6.18-2.81-12.38-5.68-17.03-10.87-3.89-4.33-6.83-9.21-8.18-14.96-2.1-8.92,2.89-18.69,11.39-22.18.44-.18.9-.3,1.37-.42q1.86-.48,2.63,1.36c.38.2.59.54.72.92,3.73,10.45,12.17,14.69,22.22,16.65,6.41,1.25,12.74.52,18.86-1.65,4.22-1.5,7.77-4.01,10.52-7.63,1.6-2.12,2.27-2.02,3.54.35,2.5,4.64,4.43,9.58,7.54,13.88.92,1.28,1.88,2.52,3.25,3.94.07-1.51-.56-2.35-1.03-3.2-4.75-8.71-8.78-17.76-12.43-26.96-2.57-6.49-4.1-13.28-3.84-20.35.06-1.66-.28-3.79,1.29-4.6,1.51-.77,2.75,1.15,4.15,1.8.13.06.21.23.3.37,1.36,3.39,2.14,3.92,5.7,3.92,6.57,0,14.27-6.03,16.16-12.35.71-2.35-.68-3.92-1.31-5.8.53-1.24,1.67-1.04,2.68-1.11,12-.87,23.93-.49,35.73,2.07.39.08.79.16,1.19.17.89.02,1.88.09,2.23-.95.38-1.16-.47-1.82-1.34-2.24-3.55-1.73-7.41-2.52-11.22-3.36-8.34-1.85-16.8-1.84-25.27-1.15-1.1.09-2.24.33-3.2-.52-.16-1.59.63-2.95,1.18-4.33,3.26-8.23,8-15.57,13.58-22.42,4.53-5.55,10.1-9.73,16.46-12.87,3.58-1.77,7.36-3.02,11.44-3.15,6.47-.2,11.3,2.8,15.25,7.6,2.18,2.65,3.46,5.71,3.99,9.09.06.39.26.75.4,1.12.68.96.12,1.87-.19,2.73-3.61,9.78-4.62,19.96-3.89,30.22,1.22,17.21,6.93,32.73,18.63,45.75,8.01,8.92,17.72,14.62,29.84,15.52,6.17.46,12.13-.9,17.58-3.87,13.44-7.32,22.29-18.14,24.98-33.52.41-2.33,0-4.81,1.34-6.96Z"/>
  <path class="cls-6" d="m408.37,350.71c-1.36-.77-2.84-1.31-4.14-2.6-.98,3.68-.91,7.07-.53,10.46.72,6.56,2.63,12.8,5.32,18.8,3.66,8.14,7.04,16.42,11.55,24.15.36.61.72,1.25.78,1.99.03.34-.06.67-.32.85-.26.18-.65.18-.9-.04-.47-.42-.93-.87-1.33-1.35-2.44-2.87-4.43-6.05-6.16-9.39-1.36-2.62-2.63-5.28-3.98-7.9-.28-.54-.37-1.25-1.13-1.6-1.18,1.58-2.37,3.18-3.85,4.52-3.97,3.59-8.7,5.55-13.91,6.47-7.83,1.38-15.42.56-22.7-2.68-2.71-1.21-5.19-2.81-7.37-4.84-3.12-2.9-5.33-6.33-6.19-10.56.01-.55.05-1.11.03-1.66-.05-1.15.55-1.76,1.59-2.05,1.35-.11,1.78.93,2.17,1.87,4.03,9.75,12.08,13.6,21.86,14.67,6.45.7,12.56-.65,18.13-4.11,1.3-.8,2.5-1.71,3.57-2.81,3.41-3.48,3.68-4.86,1.8-9.32-.84-1.98-1.13-2.1-2.58-.55-2.33,2.49-4.97,4.5-8.06,5.91-6.65,3.03-13.13,3.12-19.3-1.25-4.36-3.09-6.96-7.5-8.69-12.36-2.6-7.31-3.31-14.87-2.61-22.65.8-8.77,2.85-17.15,6.48-25.16,1.79-3.95,4-7.64,6.54-11.13,1.67-2.29,2.47-2.36,4.59-.47,2.51,2.24,5.26,2.34,7.97.76,4.21-2.46,7.1-5.9,7.22-11.1.08-3.24,1.2-4.15,4.49-3.9,7.26.54,12.66,4.11,16.44,10.18,3.18,5.11,4.87,10.75,5.26,16.75.11,1.66.73,3.3.33,4.99-.58,1.64-.2,3.37-.43,5.04-.02.17-.03.31-.05.42.02-.06.05-.13.07-.22,1.34-11.02,1.76-21.96-1.89-32.66-1.17-3.43-2.92-6.57-5.22-9.36-5.91-7.16-13.51-8.15-22.12-5.2-6.86,2.35-12.35,6.91-17.74,11.57-1.01.87-1.99,2.01-3.51.86-.24-1.04.19-1.87.8-2.65,6.64-8.49,14.8-14.75,25.51-17.12,11.16-2.47,21.59,2.06,27.54,11.82,3.39,5.57,5.06,11.7,5.67,18.13.74,7.95,0,15.79-2.25,23.46-.16.54-.26,1.09-.41,1.74,1.14.29,2.19.14,3.23-.29,5.09-.48,10.2-.63,15.31-.56,8.39.11,16.46,1.85,24.31,4.71.6.22,1.21.42,1.71.83.82.68,1.1,1.57.79,2.58-.31,1.03-1.07,1.57-2.14,1.6-.47.02-.97,0-1.43-.12-12.24-3-24.67-3.04-37.14-2.3-.66.04-1.71-.48-1.88.81,1.4,1.92.99,3.9-.34,5.48-4.94,5.88-11.18,9.22-19.02,9.13-.64,0-1.27-.12-1.75-.61Z"/>
  <path class="cls-11" d="m559.92,290.22c1.16,1.41,2.33,2.81,3.48,4.23,5.81,7.15,9.78,15.23,12.41,24.04,2.53,8.47,3.57,17.12,3.21,25.93-.11,2.77-.24,5.56-.95,8.28-3.85,11.2-7.94,22.33-16.05,31.28-5.63,6.22-12.89,9.59-21.35,10.05-13.47.74-23.88-5.3-32.45-15.05-9.91-11.26-14.69-24.7-16.2-39.46-1.37-13.43.45-26.29,6.78-38.34,4.8-9.13,11.57-16.2,21.33-20.09,6.24-2.49,12.63-2.69,19.06-1.06,5.29,1.34,10.32,3.38,14.84,6.54,1.9,1.33,3.88,2.51,5.89,3.65Z"/>
  <path class="cls-11" d="m420.2,323.69c-.23-4.39-.57-8.76-1.84-13.01-1.35-4.49-3.32-8.65-6.54-12.12-4.1-4.42-9.14-6.58-15.21-6.09-1.79.14-1.85.22-1.67,1.93.64,6.08-4.56,11.78-8.47,13.34-3.77,1.5-6.58.61-9.58-3.21-.86.59-1.39,1.48-1.98,2.29-6.54,9.04-10.47,19.14-12.2,30.12-1.24,7.88-1.42,15.75.48,23.57,1.14,4.7,2.89,9.12,5.96,12.94,5.29,6.61,12.89,8.7,20.81,5.7,3.88-1.47,7.22-3.73,10.05-6.75.6-.64,1.2-1.27,1.98-2.1,1.02,2.55,1.98,4.95,2.94,7.35.12.3.17.61-.03.91-1.64,2.45-3.2,4.9-5.68,6.68-10.35,7.41-25.86,7.11-35.87-.77-2.89-2.28-5.05-5.09-6.36-8.54-.4-1.05-.76-2.12-1.87-2.66-1.52-5.82-2-11.74-2.11-17.74-.17-9.93.63-19.75,3.04-29.38,2.86-11.43,6.91-22.39,13.81-32.1,1.31.48,2.11-.4,2.94-1.14,2.49-2.25,5.05-4.43,7.81-6.35,4.22-2.94,8.65-5.44,13.75-6.54,8.45-1.83,15.29.63,20.4,7.65,3.36,4.61,5.19,9.85,6.16,15.44,1.54,8.84,1.29,17.66-.19,26.47-1.25-.27-.62-1.27-.64-1.91-.04-1.32-.21-2.67.12-3.98Z"/>
  <path class="cls-6" d="m559.92,290.22c-1.45.33-2.42-.6-3.45-1.33-4.07-2.87-8.39-5.25-13.08-6.95-12.18-4.4-23.26-2.47-33.19,5.83-7.54,6.31-12.32,14.47-14.99,23.79-5.8,20.21-3.31,39.58,6.9,57.88,4.55,8.16,10.84,14.82,19.1,19.42,9.07,5.05,18.52,6.21,28.39,2.65,6.8-2.46,11.97-6.98,15.93-12.91,4.92-7.36,8.3-15.46,11.11-23.81.3-.89.68-1.59,1.43-2.11,1.12-.08,1.91.43,2.45,1.38-.35,5.69-1.34,11.21-3.31,16.61-4.4,12.01-18.61,25.32-32.12,27.76-7.81,1.41-15.26.32-22.45-2.88-8.47-3.78-15.1-9.81-20.5-17.22-8.13-11.15-12.78-23.67-14.28-37.37-1.35-12.34-.19-24.39,4.25-36.06.08-.22.08-.47.12-.7.64-1.36,1.28-2.73,1.93-4.09,3.34-6.93,7.79-13.01,13.87-17.79,15.54-12.19,37.14-10.39,50.44,4.21.92,1.01,2.27,1.95,1.44,3.69Z"/>
  <path class="cls-6" d="m419.39,436.34c-.74-1.41-1.64-2.73-2.24-4.22-2.16-5.4-.2-12.2,5.76-14.97,7.26-3.37,14.77-6,22.45-8.18,8.98-2.55,17.92-5.24,27.17-6.68,8.29-1.29,16.59-2.48,25.02-2.21,2.8.09,5.56.41,8.32.96,10.04,2.01,13.87,10.52,13.46,18.02-.21,3.8-1.25,7.38-2.85,10.82-.3.65-.62,1.3-.93,1.94-5.46,8.44-13.56,13.04-22.95,15.74-6.87,1.97-13.93,2.86-21.02,3.32-8.3.55-16.61.53-24.89-.37-6.33-.69-12.39-2.27-17.92-5.58-3.47-2.07-6.36-4.77-8.93-7.84,0,0-.05-.12-.05-.12-.21-.16-.19-.47-.39-.64Z"/>
  <path class="cls-9" d="m408.37,350.71c7.35.68,13.38-2.25,18.73-6.94,2.13-1.87,3.13-4.18,2.38-7.06,1.65.88,2.01,2.34,1.79,4.04-.21,1.68-.76,3.27-1.67,4.68-2.9,4.48-6.79,7.74-11.97,9.3-1.78.54-3.61.6-5.43.3-2.47-.42-3.69-1.84-3.84-4.32Z"/>
  <path class="cls-8" d="m419.39,436.34c.34.09.47.3.39.64-.32-.1-.52-.27-.39-.64Z"/>
  <path class="cls-5" d="m383,358.63c0,2.2-.08,3.71-.66,5.15-1.97,4.95-7.51,5.89-10.95,1.83-1.91-2.26-2.82-4.97-3.4-7.82-.66-3.22-.54-6.51-.83-9.77-.24-2.66,1.07-4.82,3.63-5.93,2.47-1.07,4.69-.43,6.66,1.26,1.05.9,1.79,2.05,2.37,3.28,1.91,4.01,2.89,8.26,3.17,12.01Z"/>
  <path class="cls-15" d="m390.56,360.54c.02,1.18-.72,2.09-1.78,2.16-1.17.09-2.34-1-2.38-2.21-.04-1.17.92-2.15,2.1-2.14,1.17.01,2.04.94,2.06,2.19Z"/>
  <path class="cls-4" d="m420.2,323.69c.33,1.3.09,2.62.12,3.93.02.67-.23,1.41.39,1.96,0,.31.03.62-.04.92-.08.32-.33.53-.69.47-.44-.07-.38-.43-.36-.73.18-2.18.38-4.36.57-6.54Z"/>
  <path class="cls-6" d="m527.29,289.41c3.73-.36,7.09.52,10.32,2.01,4.13,1.92,7.56,4.76,10.51,8.19,6.39,7.43,10.33,16.07,12.44,25.59,2.52,11.39,2.23,22.7-1.15,33.87-1.49,4.94-3.81,9.49-7.22,13.41-3.69,4.24-8.18,7.09-13.9,7.7-4.11.44-7.94-.51-11.57-2.35-3.99-2.02-7.23-4.97-10.03-8.42-5.64-6.96-9.09-14.98-11.21-23.61-2.71-11.06-3.03-22.13.16-33.16.71-2.45,1.55-4.86,2.59-7.17.51-.12.74.23,1.02.5,2.12,2.09,4.67,2.63,7.52,2.1,5.98-1.1,11.31-7.38,11.49-13.44.05-1.78-.57-3.42-.97-5.23Z"/>
  <path class="cls-14" d="m463.48,446.1c-7.64-.35-15.7-.62-23.56-2.78-6.97-1.91-12.64-5.66-16.85-11.56-.55-.78-1.09-1.59-1.49-2.45-1.57-3.46-.54-6.73,2.76-8.63,2.91-1.67,5.87-3.24,8.82-4.84.28-.15.58-.27.88-.35,1.15-.31,2.36-.97,3.46-.81,1.26.18,1.34,1.82,1.9,2.81,2.29,4.01,5.81,6.05,10.26,6.63,4.89.63,9.73.06,14.52-.93,5.5-1.13,10.86-2.69,15.74-5.58,5.07-2.99,9.09-7.01,11.75-12.29.39-.77.82-1.12,1.61-1.12,4.8.02,9.62.09,14.17,1.88,4.46,1.75,7.25,6.25,7.14,11.73-.12,6.08-2.31,11.4-6.6,15.75-5.1,5.17-11.47,8.08-18.42,9.72-8.43,1.99-17.04,2.64-26.12,2.82Z"/>
  <path class="cls-11" d="m487.87,404.56c-3.06,3.77-5.74,7.21-9.64,9.42-7.42,4.21-15.44,6.36-23.93,6.8-1.67.09-3.34-.02-5.01-.28-4.07-.65-6.67-3.1-8.54-6.58,6.87-3.11,37.6-9.26,47.13-9.35Z"/>
  <path class="cls-5" d="m536.94,360.48c-.06,6.23-5.21,9.82-10.16,7.33-6.4-3.23-10.64-8.42-11.41-15.81-.52-5.01,3.19-8.71,7.74-7.99,1.71.27,3.18,1.08,4.4,2.28,1.88,1.84,3.75,3.7,5.6,5.57,2.5,2.52,3.73,5.72,3.82,8.63Z"/>
</svg>