<?xml version="1.0" encoding="UTF-8"?>
<svg id="_图层_1" data-name="图层 1" xmlns="http://www.w3.org/2000/svg" viewBox="0 0 960 960">
  <defs>
    <style>
      .cls-1 {
        fill: #435481;
      }

      .cls-1, .cls-2, .cls-3, .cls-4, .cls-5, .cls-6, .cls-7, .cls-8, .cls-9, .cls-10, .cls-11, .cls-12, .cls-13, .cls-14, .cls-15, .cls-16, .cls-17, .cls-18, .cls-19, .cls-20, .cls-21, .cls-22 {
        stroke-width: 0px;
      }

      .cls-2 {
        fill: #7c7777;
      }

      .cls-3 {
        fill: #df3d4c;
      }

      .cls-4 {
        fill: #ea404f;
      }

      .cls-5 {
        fill: #f7b9a0;
      }

      .cls-6 {
        fill: #b16a26;
      }

      .cls-7 {
        fill: #d29783;
      }

      .cls-8 {
        fill: #010101;
      }

      .cls-9 {
        fill: #ecb29c;
      }

      .cls-11 {
        fill: #bbb9b9;
      }

      .cls-12 {
        fill: #fff;
      }

      .cls-13 {
        fill: #b7ceff;
      }

      .cls-14 {
        fill: #e73f4e;
      }

      .cls-15 {
        fill: #fece42;
      }

      .cls-16 {
        fill: #030202;
      }

      .cls-17 {
        fill: #454795;
      }

      .cls-18 {
        fill: #a2a8a8;
      }

      .cls-19 {
        fill: #ffd741;
      }

      .cls-20 {
        fill: #a96861;
      }

      .cls-21 {
        fill: #fffffe;
      }

      .cls-22 {
        fill: #5a7dff;
      }
    </style>
  </defs>
  <path class="cls-10" d="m712.33,318.49c-1.67-10.69-5.12-20.75-10.99-29.91-2.31-3.6-5.06-6.78-8.49-9.36-1.59-1.2-1.59-1.22-.96-3.03,2.01-5.75,1.73-11.47-.29-17.14-.76-2.14-1.95-4.04-3.65-5.56-4.1-3.67-8.79-5.97-14.36-6.47-7.17-.64-14.04.69-20.66,3.22-8.12,3.11-16.26,6.21-24.29,9.55-6.85,2.85-13.74,5.66-21.04,7.2-6.16,1.29-12.24,3.04-18.67,2.66-1.85-.11-3-.54-4.05-2.15-5.97-9.2-12.55-17.94-20.31-25.74-2.77-2.78-5.63-5.44-8.9-7.64-.44-.29-1.07-.43-1.15-1.2.57-.35,1.17-.72,1.78-1.08,2.88-1.73,5.71-3.54,8.34-5.63,2.39-1.9,2.46-3.27.44-5.59-1.14-1.33-2.46-.81-3.73-.32-3.87,1.48-7.75,2.98-11.49,4.76-14.61,6.93-29.82,12.12-45.45,16.14-14.98,3.66-30.17,5.44-45.59,4.69-5.69-.28-11.26-1.41-16.4-4.07-5.61-2.91-6.99-7.03-4.24-12.74,2.32-4.82,5.89-8.7,9.5-12.56,1.11-1.22,2.3-2.37,3.45-3.55.78-.81,1.5-1.65,1.08-2.91-.51-1.2-1.47-1.11-2.41-.73-.96.39-1.88.88-2.76,1.42-6.1,3.76-11.66,8.14-15.85,14.05-.55.77-1.17,1.16-2.13,1.31-7.76,1.23-14.85,4.26-21.57,8.23-8.93,5.28-16.88,11.8-24.11,19.21-6.55,6.71-12.42,13.97-17.77,21.66-.83,1.2-1.69,1.64-3.15,1.49-3.42-.37-6.81-.92-10.17-1.61-5.03-1.04-9.77-2.93-14.4-5.12-4.98-2.35-9.98-4.7-15.4-5.86-5.39-1.15-9.9.72-12.68,5.47-2.46,4.2-3.46,8.78-2.31,13.6,1.31,5.48,4.6,9.78,8.72,13.47,3.47,3.11,7.47,5.45,11.61,7.56,5.32,2.71,11,4.23,16.84,5.27,1.42.25,1.45.34.88,1.69-3.53,8.4-6.36,17.05-9.02,25.76-.4,1.31-1.12,2.11-2.25,2.88-11.14,7.5-20.28,16.82-25.97,29.15-5.44,11.78-5.71,23.77-.97,35.85,2.66,6.77,6.55,12.79,11.43,18.16,6.49,7.14,13.93,13.16,22.08,18.3,1.82,1.15,3.63,2.33,5.44,3.5.82.39,1.5.99,2.24,1.51,4.89,3.08,10.23,5.26,15.55,7.42,29.92,12.15,61.34,17.09,93.35,18.52,17.32.77,34.64-.07,51.9-2.18,20.94-2.56,41.47-6.83,61.42-13.73,6.18-2.14,12.48-4.06,18.04-7.67,1.28-.65,2.54-1.33,3.84-1.96,5.69-2.75,11.23-5.76,16.58-9.11,7.83-4.9,15.03-10.59,21.03-17.65,9.76-11.48,15.24-24.47,13.59-39.86-.61-1.02.37-2.36-.65-3.33.54.35.53,1.13,1.12,1.41.82,1.45,1.64,2.89,2.46,4.34,1.44,4.35,4.69,7.35,7.88,10.33,8.53,7.98,18.28,10.27,29.33,5.98,5.49-2.13,9.93-5.76,13.66-10.2,3.47-4.14,6.72-8.48,8.13-13.86.65-1.72,1.36-3.41,1.95-5.15,5.64-16.64,7.36-33.65,4.64-51.04Zm-75.16,42.74c-2.11-3.2-4.45-6.22-6.91-9.15-4.68-5.58-10.65-9.58-16.46-13.78-.39-.28-.76-.59-1.18-.81-1.11-.58-1.53-1.38-1.38-2.7.32-2.87-.18-5.73-.44-8.58.91-.78,1.95-.54,2.97-.34,5.49,1.1,11.02,1.7,16.63,1.6,1.66-.03,3.37.03,4.77,1.18-.82,10.66.13,21.18,2.5,31.59.18.5.41,1.03-.49,1Zm56.31-14.14c-.35,3.58-.54,7.18-2.16,10.49-1.35,2.77-4.55,4.52-7.49,4.01-2.15-.37-4.12-1.18-5.82-2.62-2.61-2.21-4.58-4.9-6.04-7.96-2.8-5.88-4.63-12.06-5.56-18.51-.45-3.09-.6-6.2-.55-10.22-.15-7.6,1.54-15.77,4.3-23.76.26-.74.54-1.27,1.34-1.5,1.4-.4,2.66-1.12,3.81-1.97,1.06-.78,1.69-.49,2.32.47.93,1.4,2.05,2.68,2.82,4.16,3.66,7,7.38,13.95,10.05,21.44,3.02,8.46,3.83,17.09,2.97,25.96Z"/>
  <path class="cls-17" d="m348.3,445.68c4.54,2.16,9.05,4.39,13.67,6.37,12.08,5.17,24.6,8.96,37.4,11.87,8.33,1.9,16.73,3.43,25.19,4.61,4.98.7,9.98,1.22,14.98,1.74,13.7,1.42,27.44,1.61,41.18,1.24,8.06-.22,16.1-.88,24.12-1.72,14.95-1.57,29.72-4.11,44.29-7.79,13.18-3.34,26.09-7.51,38.5-13.13.36-.16.71-.36,1.14-.28-3.91,3.79-8.29,7-12.74,10.09-19.24,13.39-40.52,21.99-63.39,26.82-16.76,3.54-33.72,4.79-50.79,3.78-40.81-2.42-77.85-15.37-110.53-40.19-1.39-1.06-2.87-2.03-4.01-3.39.33-.29.66-.29,1-.02Z"/>
  <path class="cls-22" d="m447.59,215.79c1.01-1.07,2.02-2.15,3.04-3.22.71-.74,1.36-1.5,1.56-2.54,1.99.3,4,.21,5.97.04,20.75-1.77,41.54-1,62.31-.73,10.61.14,21.24.78,31.73,2.67,3.07.55,6.16,1.05,8.95,2.54,2.41,1.28,4.03,3.12,3.92,6.05-1.55-.52-2.97-.03-4.38.57-5.36,2.26-10.74,4.49-16.05,6.89-12.83,5.79-26.14,10.17-39.78,13.58-1.89-.49-3.8-.14-5.69-.14-8.55-.02-17.07-.28-25.53-1.59-8.74-1.35-15.74-5.49-20.58-13.03-1-1.55-1.9-3.16-2.33-4.97-.55-2.31-1.81-4.23-3.13-6.13Z"/>
  <path class="cls-17" d="m646.73,382.43c2.54,3.99,5.52,7.61,9.11,10.7,3.55,3.06,7.45,5.5,12.11,6.5,7.69,1.65,14.75.01,21.21-4.31,5.82-3.9,10.19-9.14,13.63-15.19,1.02-1.79,1.96-3.63,2.94-5.44.23,12.91-8,28.23-24.01,31.88-15.29,3.48-31.14-6.52-34.55-21.79-.17-.77-.3-1.56-.44-2.34Z"/>
  <path class="cls-18" d="m643.8,380.01c-.66-1.21-.42-2.59-.87-4.02.86.61,1.2,1.29,1.34,2.1-.68.51-.09,1.33-.47,1.92Z"/>
  <path class="cls-1" d="m348.3,445.68c-.33,0-.66.01-1,.02-.48-.18-.9-.42-1.03-.97.85-.07,1.46.4,2.03.95Z"/>
  <path class="cls-5" d="m552.13,240.83c4.3,4.21,8,8.92,11.51,13.79,11.13,15.45,19.78,32.28,27.39,49.67,3.36,7.69,6.37,15.53,8.94,23.52.71,2.21,1.33,4.45,1.67,6.74.42,2.83,1.94,4.67,4.34,6.22,10.02,6.46,17.76,15.1,23.18,25.68,6.17,12.04,5.58,24.04-1,35.77-3.56,6.34-8.33,11.71-13.64,16.62-10.82,9.99-23.33,17.29-36.8,23.06-15.65,6.71-31.94,11.25-48.65,14.31-25.29,4.63-50.78,5.87-76.43,4.48-22.85-1.24-45.28-4.76-67.13-11.69-16.25-5.16-31.67-12-45.59-21.99-6.82-4.9-12.71-10.71-17.33-17.74-4.9-7.46-7.31-15.58-6.44-24.55.59-6.07,2.62-11.67,5.72-16.9,3.49-5.89,7.92-11.03,12.96-15.64,1.89-1.73,3.8-3.43,5.7-5.14,1.96-1.77,3.24-4,3.87-6.51,3.33-13.27,8.81-25.69,14.99-37.8,9.29-18.21,20.88-34.79,35.78-48.94,7.35-6.98,15.36-13.02,24.46-17.53,2.27-1.12,4.55-2.24,7.29-2.94-1.1,5.01.11,9.34,3.01,13.25.62.95,1.04,1.93,1.07,3.11.07,2.58,1.62,4.63,2.59,6.9.1.21.18.44.25.67.02.12.04.23.05.35-.03.39-.24.64-.61.76-.23.04-.46.03-.69,0-.45-.09-.9-.18-1.35-.26-5.08-.89-8.41,1.34-9.45,6.34-.26,1.25-.41,2.52-.63,3.78-1.43,4.55-.57,9.01.51,13.46,1.65,6.8,4.2,13.07,10.2,17.33,2.43,1.73,4.94,3.24,7.98,3.59.63.07,1.29.13,1.63.81-2.91,3.85-5.39,7.97-7.82,12.13-.33.57-.57,1.4-1.56,1.1-.71-.64-.79-1.52-.93-2.39-2.68-16.85-16.14-28.66-33.13-28.71-10.41-.03-19.16,3.75-26.61,10.71-2.39,2.23-4.95,4.68-4.37,8.57-8.63,10.51-13.45,22.6-14.65,36.08-.69,7.8.2,15.47,3.05,22.85.38.98,1.14,2.02.34,3.16-.73.53-1.1-.12-1.56-.48q-1.76-1.4-2.75.73c-.1.22-.28.36-.51.45-4.96-2.38-13.68.96-16.15,6.39-3.14,6.92-3.01,13.9.77,20.51,7.02,12.28,17.42,21.11,29.48,28.16,16.5,9.64,34.51,15.05,53.04,19.03,9.54,2.05,19.11,3.94,28.86,4.63,9.64.68,19.29,1.12,28.96.27,3.89-.34,7.82-.35,11.72-.49,12.24-.44,24.12-2.66,35.77-6.31,11.37-3.55,22.77-7.08,33.63-12.03,13.34-6.08,25.54-13.96,35.62-24.74,5.89-6.3,10.02-13.49,9.72-22.5-.39-11.77-7.47-19.13-18.9-21.43-5.75-1.16-11.45-.58-17.04,1.19-.88.28-1.99.88-2.66-.05-.65-.89.18-1.82.64-2.63,4.18-7.27,7.51-14.9,8.4-23.3,1.02-9.5.36-18.85-4.02-27.62-.61-1.23-1.29-2.39-2.27-3.35,2.1-3.11.37-5.46-1.53-7.79-6.78-8.32-15.86-12.23-26.21-13.78-9.22-1.39-17.88.7-26.34,4.14-.81.33-1.56.81-2.46.89-1.62-.17-1.15-1.21-.79-2.08.68-1.6,1.43-3.17,2.03-4.81,1.84-4.99,1.24-9.49-2.52-13.41-.76-1.43-1.15-3-1.56-4.55.36-2.21,2.37-2.16,3.85-2.62,8.54-2.67,16.87-5.89,24.79-10.05,4.58-2.41,9.24-4.71,13.5-7.7.8-.56,1.62-1.42,2.79-.73Z"/>
  <path class="cls-19" d="m641.47,329.94c-.05-2.7.23-5.37.91-7.99,3.87-1.57,5.49-4.78,6.49-8.57,2.01-7.57,4.68-14.93,7.9-22.07.85-1.89,1.02-3.81.88-5.81.78-.83,1.77-1.35,2.83-1.72,1.82-.63,3.14-.09,3.94,1.65.68,1.48.82,3.07.72,4.69-.16,2.65-.73,5.22-1.41,7.77-3.22,12.05-3.9,24.27-2.12,36.6.92,6.35,2.81,12.46,5.39,18.34,1.86,4.24,4.59,7.85,8.37,10.61,2.58,1.89,5.47,2.98,8.65,3.2,6.56.46,11.52-2.9,13.5-9.15,1.09-3.46,1.33-7.05,1.57-10.64.4-2.86.15-5.74.15-8.6,0-1.59.6-2.08,2.02-1.52,2.14.84,4.45,1.42,5.91,3.44.06.14.09.29.07.45.11.17.12.35,0,.53-.99,14.57-5.24,28-13.99,39.85-2.29,3.1-4.98,5.81-8.18,8-7.79,5.34-16.34,5.38-24.17.09-1.38-.93-2.77-1.88-3.76-3.27,4.25-5.25,2.62-10.71.3-16.01-3.72-8.5-7.48-16.96-9.42-26.1-.38-1.8-.86-3.58-1.19-5.38-.64-3.57-1.61-6.85-5.38-8.37Z"/>
  <path class="cls-20" d="m679.89,284.04c-2.48,2.66-5.19,5.05-8.08,7.62-.23-1.8-.38-3.22-.61-4.62-.24-1.51-.78-2.93-1.58-4.24-2.9-4.77-7.93-5.66-12.52-2.37-4.97,3.57-8.74,8.14-11.74,13.41-1.9,3.34-3.52,6.82-4.8,10.43-.42,1.19-1.09,1.8-2.25,2.18-8.13,2.68-16.44,3.88-25,3.12-1.91-.17-3.81-.37-5.72-.51-.8-.06-1.32-.35-1.62-1.15-2.11-5.68-4.47-11.27-7.15-16.6.33-.81.99-.72,1.48-.84,11-2.67,21.4-6.86,31.34-12.26,4.01-2.18,7.8-4.69,11.42-7.45.63-.48,1.17-1.07,1.75-1.61,9.88-2.74,19.65-3.54,28.93,2.03,4.82,2.9,6.52,7.41,6.13,12.85Z"/>
  <path class="cls-20" d="m433.25,257.11c-2.11-3.2-3.11-6.75-3.33-10.54,4.92,5.5,11.49,7.52,18.45,8.66,11.7,1.92,23.38,1.33,35.04-.37,15.92-2.32,31.47-6.1,46.61-11.53,5.34-1.91,10.61-3.98,15.78-6.32,1.19-.54,2.06-.55,2.96.47,1.05,1.19,2.46,2.02,3.38,3.35-.91.11-1.59.68-2.33,1.15-10.19,6.49-20.9,11.88-32.35,15.79-2.71.93-5.43,1.82-8.15,2.73-.75.25-1.6.36-1.69,1.4-.71.31-.99-.3-1.37-.65-4.28-3.98-9.37-4-13.65,0-1.34,1.25-2.64,2.55-3.69,4.07-.41.58-.86,1.19-1.74,1.01-4.87.19-9.61,1.33-14.43,1.84-8.61.9-17.16,1.1-25.63-1.09-3.53-.91-6.71-2.49-9.53-4.79-.18-.16-.35-.35-.51-.53-.08-.08-.16-.18-.24-.26-1.25-1.12-2.67-2.11-3.13-3.87h0c-.15-.17-.3-.34-.44-.52Z"/>
  <path class="cls-5" d="m679.89,284.04c-.75-.37-.56-1.07-.57-1.68-.08-6-3.27-9.9-8.54-12.12-5.29-2.23-10.84-3.02-16.61-2.19-2.84.41-5.68.75-8.48,1.35-.34.07-.62.02-.86-.24,0,0,.01-.03.01-.03.28-.32.25-.65,0-.97-.52-.76-1.23-.65-1.92-.35-.95.41-1.91.82-2.81,1.32-11.09,6.14-22.77,10.78-34.99,14.13-2.55.7-5.11,1.26-7.72,1.65-1.23.18-2.07-.09-2.7-1.34-1.13-2.26-2.47-4.42-3.7-6.59.62-.65,1.18-.25,1.68-.21,4.04.39,7.96-.45,11.9-1.06,9.84-1.53,19.23-4.6,28.4-8.42,7.3-3.04,14.62-6.02,21.97-8.91,5.78-2.27,11.78-3.48,18.03-3.14,3.01.16,5.79,1.04,8.4,2.53,2.79,1.6,4.59,3.9,5.26,7.07.79,3.69.69,7.32-.96,10.77-1.49,3.11-3.33,6-5.81,8.44Z"/>
  <path class="cls-5" d="m316.59,289.78c-4.03-4.4-5.3-9.34-2.88-14.98,1.62-3.77,3.83-4.89,7.81-3.88,4.35,1.1,8.46,2.87,12.49,4.79,7.99,3.8,16.26,6.55,25.13,7.23.3.02.63,0,.92.4-2.32,4.01-4.66,8.08-7.01,12.14-1.45,1.08-3.22.9-4.83,1.03-9.68.78-19.05-.61-28.02-4.44-1.34-.57-2.46-1.44-3.61-2.29Z"/>
  <path class="cls-13" d="m447.59,215.79c.97.15,1.53.81,1.97,1.6.62,1.12,1.15,2.27,1.54,3.49,2.68,8.31,8.23,13.81,16.41,16.75,3.63,1.3,7.37,1.9,11.19,2.28,7.86.79,15.74.9,23.63.91.9,0,1.98-.35,2.52.83-8.27,2.24-16.72,3.5-25.22,4.42-6.77.74-13.55.87-20.35.49-4.89-.27-9.69-1.03-14.27-2.83-2.02-.79-3.93-1.77-5.65-3.1-2.93-2.25-3.81-5.18-2.99-8.72.4-1.73,1.1-3.33,2.01-4.85,2.53-4.19,5.64-7.93,9.21-11.28Z"/>
  <path class="cls-6" d="m707.16,340.15c-2.45-1.05-4.71-2.57-7.66-3.38,0,2.57.03,4.93-.02,7.29-.02.93.23,1.93-.4,2.78-.01-1.36-.11-2.72-.02-4.06.69-10.31-1.83-19.98-5.98-29.29-2.12-4.75-4.51-9.36-6.99-13.93-1.53-2.82-3.5-5.33-5.8-7.87,3.24-2.71,6.18-5.6,8.57-9.14.94.37,1.46,1.1,2.04,1.72,5.05,5.37,8.88,11.5,11.36,18.45,2.89,8.1,4.64,16.42,5.02,25.04.14,3.27.32,6.54.26,9.82-.01.87.09,1.77-.39,2.57Z"/>
  <path class="cls-12" d="m641.47,329.94c2.62.05,4.05,1.58,4.85,3.89,1.02,2.95,1.51,6.03,2.19,9.06,1.75,7.82,4.33,15.33,7.77,22.57,1.47,3.1,2.88,6.23,3.59,9.62.4,1.95.74,3.89.4,5.91-.35,2.09-1.19,3.78-3.12,4.81-1.5-1.11-2.58-2.59-3.69-4.05-5.32-7-8.46-14.96-10.3-23.49-1.92-8.88-2.48-17.86-1.94-26.92.03-.47.16-.94.25-1.41Z"/>
  <path class="cls-17" d="m635.16,328.64c-2.52-.39-5.07-.36-7.61-.46-5.01-.19-9.98-.66-14.88-1.8-.61-.14-1.26-.12-1.89-.18-.52-3.78-1.44-7.48-2.47-11.55,5.02.92,9.82,1.28,14.66,1.04,4.85-.24,9.58-1.35,14.64-2.23-1.13,5.15-1.97,10.14-2.45,15.17Z"/>
  <path class="cls-20" d="m316.59,289.78c.94-.02,1.64.59,2.4.98,5.25,2.68,10.93,3.83,16.67,4.79,3.65.61,7.31.53,10.97.41,2.14-.07,4.26-.54,6.42-.48-1.38,2.77-2.8,5.53-4.12,8.33-.48,1.02-1.07,1.43-2.21,1.25-10.13-1.56-19.27-5.36-27.21-11.9-1.15-.95-2.34-1.92-2.93-3.39Z"/>
  <path class="cls-21" d="m657.66,285.51c1.05,1.44.97,2.91.29,4.5-1.52,3.59-3.03,7.19-4.42,10.82-1.74,4.53-3.08,9.2-4.4,13.87-.66,2.32-1.57,4.49-3.5,6.12-.97.81-1.96,1.35-3.25,1.15.05-2.89.81-5.65,1.47-8.43,2.25-9.46,6.08-18.21,11.79-26.11.55-.76.96-1.68,2.02-1.92Z"/>
  <path class="cls-11" d="m637.17,361.23c.37-.23.3-.68.49-1,.45.39.43.93.5,1.45.14.52-.1.64-.56.55-.17-.32-.51-.57-.43-.99Z"/>
  <path class="cls-2" d="m637.6,362.22c.31-.05.42-.31.56-.55.38.51.58,1.05.3,1.7-.59-.17-.76-.63-.86-1.15Z"/>
  <path class="cls-20" d="m644.84,268.16c.47.33.45.65,0,.97,0-.33,0-.65,0-.97Z"/>
  <path class="cls-6" d="m707.24,341.13c0-.18,0-.35,0-.53.05.12.12.24.15.37,0,.04-.09.1-.14.15Z"/>
  <path class="cls-12" d="m432.25,316.63c2.45-3.68,4.45-7.63,7.02-11.23.56-.78,1.03-1.6,2.07-1.81,1.01-.8,2.28-.52,3.41-.78,4.84-1.09,6.6-2.95,7.18-7.78.39-1.27.91-2.46,2-3.31,4.49-2,9.09-3.32,14.08-2.3.56.31.82.87.71,1.41-.77,3.91,1.4,6.33,4.2,8.43,1.8,2.73,4.52,3.61,7.6,3.77,1.66.09,3.35-.25,4.98.35,1.33,1.05,1.97,2.42,1.92,4.12-1.76,4.01-4.14,7.73-5.52,11.93-6.4,19.38-4.69,37.48,9.17,53.2,6.34,7.19,14.7,11.51,24.23,13.13,13.41,2.29,25.75-.43,36.74-8.55,3.09-2.28,5.68-5.15,8.01-8.22.68-.89,1.52-1.98.46-2.97-1.06-.99-2.07-.02-2.96.64-7.91,5.93-16.15,11.31-25.99,13.43-12.97,2.79-24.85.42-34.88-8.6-7.36-6.62-11.4-15.17-12.67-24.91-2.34-18.03,3.74-33.28,16.41-45.85,7.97-7.91,17.71-12.61,29.15-13.62,11.19-.98,20.69,2.64,29.24,9.54,2.66,2.15,4.93,4.79,8.01,6.42.97.04,1.29.78,1.68,1.5,2.33,4.32,3.9,8.91,4.77,13.73.9,4.99.85,10.05.42,15.05-.52,6.07-2.41,11.87-4.97,17.4-1.21,2.61-2.43,5.21-4.01,7.63-.33.51-.69,1.04-.71,1.92,2.02-.57,3.88-1.26,5.8-1.62,8.32-1.54,16.35-1.12,23.71,3.67,5.05,3.29,7.93,7.96,9.07,13.78,1.62,8.27-.56,15.65-5.37,22.36-4.75,6.63-10.78,11.99-17.36,16.7-6.62,4.74-13.52,9.11-20.97,12.48-8.95,4.05-18.21,7.31-27.57,10.28-6.23,1.98-12.47,3.95-18.82,5.5-5.82,1.41-11.71,2.27-17.68,2.75-6.12.49-12.26.64-18.39,1.03-6.87.44-13.74.48-20.59.23-9.15-.34-18.26-1.24-27.27-3.04-9.38-1.87-18.74-3.76-27.94-6.41-11.85-3.42-23.28-7.77-34.08-13.83-8-4.49-15.3-9.84-21.71-16.37-4.04-4.11-7.61-8.67-10.24-13.8-2.09-4.08-3.11-8.49-2.27-13.2.37-2.04.69-4.05,1.43-6.02,1.13-3.02,3.1-5.19,5.94-6.58,2.9-1.43,6.05-1.92,9.24-2.22,1.17-.11,1.73.43,2.14,1.37.96.47,1.15,1.48,1.58,2.32,6.08,11.77,15.73,17.86,28.98,18.29,8.78.28,16.51-2.26,23-8.32,1.56-1.46,2.38-1.25,3.55.71,1.97,3.29,3.76,6.69,6.03,9.78.97,1.32,2.16,3.28,3.97,2.13,2-1.26.24-3.01-.46-4.39-4.39-8.6-9.34-16.93-11.98-26.33-.71-2.54-1.16-5.14-1.39-7.77-.08-.91-.31-2.16.72-2.57.95-.38,1.42.79,2.05,1.35.24.21.4.49.55.78,1.21,5.52,7.4,6.85,11.96,6.17,8.51-1.28,14.69-9.83,16.15-15.72.46-1.85.47-3.82-.71-5.55-.14-.21-.25-.43-.35-.66-.22-.61-.49-1.21-.62-1.85-.19-1.23.74-1.44,1.57-1.71,1.23-.4,2.52-.37,3.79-.37,5.5,0,11.01,0,16.51,0,1.53,0,3.03-.11,4.46-.69,1.1-.44,2.01-1.16,1.98-2.44-.03-1.38-1-2.13-2.24-2.46-2.73-.73-5.51-.81-8.31-.55-6.43.58-12.91.32-19.3,1.39-1.11.19-2.25,0-2.03-1.53.48-3.39.89-6.79,1.31-10.19.03-.24.24-.4.4-.58Z"/>
  <path class="cls-10" d="m432.25,316.63c.02,3.91-.32,7.78-1.36,11.79,2.86-.31,5.52-.66,8.19-.88,5.89-.5,11.8-.62,17.7-.65,1.03,0,2.08.11,3.1.27,2.15.34,3.45,1.61,3.51,3.31.05,1.72-1.19,3.03-3.31,3.49-1.49.33-3.01.36-4.53.36-5.59.02-11.18-.2-16.76.1-1.11.06-2.22.24-3.34.27-1.45.04-.9.89-.73,1.61.34.41-.05,1.06.47,1.41v-.02c.61,2.06-.26,3.82-1.48,5.27-5.31,6.32-11.8,10.83-20.06,12.39-2.33.44-4.6.27-6.33-1.71-.77-.66-1.54-1.31-2.37-2.02-.25,2.24.26,4.48.67,6.71,1.12,6.02,3.54,11.59,6.28,17.02,2.23,4.42,4.57,8.78,6.84,13.18.33.64.67,1.28.88,1.96.31,1,.06,1.92-.8,2.56-.78.58-1.65.53-2.49.1-1.17-.61-1.96-1.64-2.7-2.68-2.14-3-3.82-6.27-5.74-9.4-.42-.68-.8-1.37-1.2-2.06-.94.13-1.35.88-1.9,1.41-13.44,12.9-41.13,11.5-52.06-9.09-.67-1.26-1.12-2.64-1.68-3.96.16-1-.53-2.35.92-2.83,1.43-.48,2.06.7,2.76,1.63.23.3.31.72.72.88,1.06.25,1.42,1.23,1.98,1.97,5.92,7.84,13.75,12.17,23.59,12.15,7.62-.01,14.24-3.23,20.28-7.72,1.08-.8,1.25-1.75.77-2.95-.9-2.23-1.7-4.49-2.24-6.83-.35-1.54-1.06-1.91-2.57-1.33-4.76,1.83-9.75,2.08-14.64.99-9.18-2.04-15.22-7.92-18.3-16.66-3.6-10.22-1.86-20.01,3.12-29.38,2.2-4.14,5.11-7.72,8.62-10.83,2.26-2,2.72-2.05,5.48-.69,2.71,1.34,7.22-.07,8.72-3.49,1.49-3.4,3.81-3.7,6.89-3.61,9.43.29,17.98,6.63,21.68,16.33,1.56,4.09,2.16,8.33,1.91,12.7-.04.73-.67,1.74.47,2.04.97.26,1.92-.17,2.48-1.07.65-1.04.76-2.27.93-3.45,2.47-17.4-8.27-29.36-21.32-32.21-9.8-2.13-18.7.08-26.71,6.04-1.99,1.48-3.67,3.33-5.59,4.89-1.17.95-2.53,2.24-4.16.56-.84-1.1-.72-2.24-.1-3.36.42-.77.87-1.53,1.42-2.21,11.8-14.74,34.11-19.08,49.89-7.7,7.84,5.66,12.23,13.5,13.76,23,.13.78.28,1.56.42,2.34Z"/>
  <path class="cls-12" d="m366.86,304.55c1.25.62,2.33.24,3.29-.63,1.25-1.12,2.46-2.29,3.72-3.4,7.24-6.36,15.62-9.48,25.31-8.83,14.32.97,25.72,12.6,26.37,26.91.15,3.29-.06,6.54-.87,9.75-.26,1.04-.58,1.73-1.76,1.89-1,.13-1.97.48-2.96.74-.34-1.02-.02-1.88.05-2.75.47-5.72-.52-11.15-3.16-16.25-4.49-8.63-13.62-13.56-23.22-12.6-1.03.1-1.62.3-1.95,1.57-.87,3.4-4.31,5.9-7.82,6.05-1.9.08-3.39-.71-4.49-2.17-1.38.73-2.43,1.61-3.4,2.55-8.86,8.57-13.56,18.92-12.73,31.34.52,7.8,3.63,14.54,9.95,19.47,7.07,5.51,14.96,6.33,23.36,3.77.98-.3,1.93-.73,2.87-1.09.64.33.57.95.69,1.48.72,3.04,1.66,6.01,2.94,8.86.44.99.3,1.54-.57,2.19-5.9,4.48-12.34,7.8-19.83,8.31-10.16.69-18.33-3.41-24.8-11.1-.92-1.09-1.81-2.23-2.39-3.56.36-.52.26-1.01.03-1.57-1.94-4.58-3.21-9.36-3.66-14.29-.35-3.88-.33-7.8.09-11.71.46-4.29,1.32-8.48,2.59-12.61,2.44-7.95,6.26-15.16,11.38-21.69.23-.29.65-.43.98-.64Z"/>
  <path class="cls-10" d="m566.82,303.08c-1.5.13-2.58-.66-3.61-1.59-1.54-1.39-3.03-2.86-4.63-4.18-5.31-4.38-11.16-7.7-18.02-9.02-8.42-1.62-16.61-.72-24.39,2.74-17.09,7.62-27.21,20.99-31.1,39.1-2.08,9.71-1.06,19.26,3.03,28.37,7.11,15.84,23.26,24.41,40.4,21.59,4.7-.77,9.13-2.26,13.39-4.34,5.54-2.72,10.76-5.96,15.56-9.84,1.69-1.36,2.86-1.51,3.82-.53.89.92.72,2.23-.56,3.87-10.91,13.99-25.51,19.29-42.74,17.53-18.64-1.9-34.8-15.59-39.15-36.77-2.94-14.32-.12-27.77,6.93-40.44.39-.7.78-1.38,1.18-2.08.57-1.7,1.58-3.16,2.62-4.6,4.47-5.75,9.69-10.68,15.92-14.51,1.42-.87,2.88-1.63,4.51-1.99,6.15-3.01,12.59-5.06,19.45-5.49,12.12-.77,23.11,2.2,32.41,10.32,2.48,2.16,4.66,4.62,6.1,7.62.96,2,.68,2.84-1.13,4.25Z"/>
  <path class="cls-10" d="m472.56,299.48c-.45-.31-.91-.62-1.36-.93-2.41-1.67-3.54-3.92-3.1-6.88.09-.62.09-1.25.13-1.87-.17-2.33,1.43-3.58,3.02-4.75,2.05-1.51,4.23-2.84,6.15-4.52,3.29-2.89,5.68-6.41,7.48-10.38.43-.94.88-1.87,1.47-2.73.25-.35.51-.7.84-.99.09-.05.19-.1.28-.15,1.46-1.97,2.84-4,4.76-5.59,2.28-1.89,4.85-3.06,7.84-3.04,3.28.02,5.71,1.65,7.56,4.25.77,1.35,1.03,2.86,1.45,4.32,1.03,1.73.4,3.51-.14,5.11-3.33,9.96-8.84,18.45-17.76,24.26-4.64,3.03-9.7,5.27-15.51,4.87-1.14-.08-2.23-.17-3.11-.99Z"/>
  <path class="cls-10" d="m453.88,292.18c-.66.87-1.1,1.86-1.48,2.87-2.02,3.4-5.93,5.08-10.07,4.22-5.11-1.06-9.32-3.67-12.6-7.71-4.45-5.48-7.39-11.69-8.74-18.64-.31-1.58-.27-3.15-.22-4.73.1-1.11.18-2.22.3-3.33.32-2.96,1.64-5.19,4.33-6.72,2.14-1.21,4.21-1.24,6.42-.53.21.34.66.22.91.49h.02c1.78.44,2.46,2.02,3.43,3.3.12.19.22.39.32.59.21.4.42.8.63,1.2,1.43,3.01,1.94,6.38,3.89,9.2,2.29,3.31,4.75,6.36,8.39,8.3,2.64,1.4,4.48,3.54,5.21,6.51.43,1.76.47,3.47-.76,4.99Z"/>
  <path class="cls-20" d="m472.56,299.48c3.94.88,7.76.42,11.49-1,4.99-1.9,9.48-4.56,13.12-8.54,4.51-4.94,8.16-10.41,10.52-16.71.85-2.27,1.24-4.61,1.38-7.01,3.71,3.08,4.49,7.1,3.51,11.57-.58,2.64-1.67,5.11-2.99,7.48-.29.52-.53,1.04.4,1.13-1.57.92-3.17,1.8-4.7,2.78-5.81,3.73-10.88,8.27-14.99,13.85-.09.12-.25.18-.38.27-1.45.26-2.83,1.25-4.38.41-2.78.05-5.59.38-8.3-.53-1.98-.67-3.83-1.56-4.68-3.69Z"/>
  <path class="cls-20" d="m420.77,268.18c.61,1.58.56,3.28.9,4.92,1.4,6.68,4.09,12.74,8.47,18,3.04,3.65,6.79,6.24,11.48,7.36,3.89.93,7.26.11,10.05-2.85.21-.22.5-.38.75-.56.24,3.55-1.44,6.29-4.77,7.61-2.01.79-4.12,1.09-6.29.93-2.61-.37-5.13-.98-7.4-2.4-4.49-2.8-8.28-6.35-10.29-11.3-1.57-3.89-2.74-7.95-3.46-12.14-.51-2.96-.47-5.85.12-8.77.07-.33.2-.6.46-.8Z"/>
  <path class="cls-7" d="m436.1,261.94c-1.03-1.36-2.06-2.7-3.34-3.84.35-.07.74-.08.94-.47,1.1,1.13,2.2,2.27,3.3,3.4-.17.43-.46.74-.89.91Z"/>
  <path class="cls-7" d="m432.73,258.09c-.41.03-.7-.16-.91-.49.42-.05.74.07.91.49Z"/>
  <path class="cls-7" d="m433.25,257.11c.15.17.29.35.44.52-.24-.09-.4-.26-.44-.52Z"/>
  <path class="cls-5" d="m436.1,261.94c.07-.53.24-.96.89-.91,0,0,.04,0,.04,0,.19.12.35.26.48.44,5.09,4.16,11.07,5.81,17.49,6.25,2.38.16,4.75.49,7.16.44,7.03-.15,13.97-1.02,20.89-2.14,1.1-.18,2.2-.37,3.29-.6.74-.15,1.03.19,1.12.85h0c-.34.2-.19.7-.54.9-.69,1.35-1.46,2.67-2.05,4.06-2.43,5.74-6.56,9.96-11.75,13.2-2.15,1.35-3.98,2.92-4.9,5.36-5-.55-9.71.72-14.34,2.38.04-.39.04-.79.13-1.18.81-3.79-.53-6.72-3.55-8.99-.51-.38-1.04-.74-1.6-1.04-5.35-2.89-8.49-7.58-10.63-13.07-.63-1.63-1.11-3.32-1.66-4.99-.28-.27-.16-.73-.47-.97h0Z"/>
  <path class="cls-7" d="m437.51,261.48c-.16-.15-.32-.29-.48-.44.26.04.42.19.48.44Z"/>
  <path class="cls-10" d="m559.02,326.05c-.42,12.17-6.38,23.42-17.99,31.47-5.68,3.93-12.09,6.11-19.11,6.09-12.48-.03-22.98-8.23-25.77-20.64-3.16-14.1,1.15-26.14,10.97-36.42,1.77-1.85,3.78-3.43,5.94-4.82.79-.51,1.27-.63,1.98.21,1.56,1.83,3.6,1.95,5.68,1.06,2.53-1.07,4.53-2.84,5.42-5.45.46-1.33,1.17-1.7,2.36-1.85,11-1.36,20.62,3.08,26.12,11.95,2.97,4.79,4.46,10.37,4.39,18.4Z"/>
  <path class="cls-10" d="m509.55,414.35c-.14,4.76-1.62,8.69-4.71,11.99-3.16,3.36-7.03,4.54-11.53,3.82-3-.47-6.01-.99-8.87-1.98-7.77-2.68-15.39-1.99-23,.58-3.17,1.07-6.35,2.13-9.65,2.77-2.06.39-4.13.5-6.2.24-4.78-.59-8.03-3.27-9.95-7.62-1.98-4.48-1.71-9.05-.23-13.57,2.49-7.58,7.14-13.6,14.01-17.6,10.49-6.12,21.84-8.34,33.88-6.3,6.13,1.04,11.46,3.8,15.96,8.16,2.36,2.29,4.49,4.79,6.46,7.38,2.74,3.61,3.51,7.97,3.84,12.14Z"/>
  <path class="cls-20" d="m407.32,353.66c2.94,1.53,5.96,1.53,9.04.53,6.54-2.12,11.99-5.88,16.51-11.04,1.38-1.57,1.79-3.52,2.31-5.44,1.14.72,1.37,1.88,1.48,3.08.16,1.7-.09,3.36-.76,4.92-2.27,5.26-5.6,9.65-10.67,12.5-3.77,2.12-7.79,2.79-11.99,1.51-2.42-.74-4.53-1.99-5.64-4.45-.23-.51-.42-1.03-.28-1.61Z"/>
  <path class="cls-8" d="m508.56,438.19c-.72-.02-1.99-.1-3.12-.82-.64-.41-1.09-.96-.95-1.78.14-.82.76-1.18,1.51-1.32.31-.06.64-.05.95-.07,6.63-.44,11.27-4.74,12.18-11.3.08-.55.15-1.11.27-1.65.24-1.13.85-1.9,2.1-1.91,1.09,0,1.9.87,2.01,2.26.07.87.05,1.77-.11,2.62-1.16,6.16-4.6,10.57-10.31,13.17-1.25.57-2.59.8-4.53.78Z"/>
  <path class="cls-9" d="m485.54,303.7c1.47-.08,2.85-1.02,4.38-.41-1,1.4-1.99,2.8-2.99,4.2-.03-1.42-.79-2.58-1.4-3.79Z"/>
  <path class="cls-20" d="m435.19,337.73c-.49-.36-.62-.84-.47-1.41.46.37.61.84.47,1.41Z"/>
  <path class="cls-4" d="m372.77,339.52c.03-4.2,1.66-7.57,5.07-10.08,1.68-1.24,3.52-2.2,5.36-3.18,2.53-1.35,3.83-3.27,4.05-6.26.35-4.93,2.51-9.04,6.68-11.92.86-.6,1.77-1.1,2.78-1.38,2.66-.73,4.8.9,4.92,3.67.06,1.31-.34,2.54-.7,3.75-.67,2.26-.16,4.05,1.64,5.57,1.28,1.08,2.54,2.2,3.54,3.56,2.4,3.28,3.26,6.87,2.25,10.87-.27,1.08-.8,1.86-1.73,2.46-3.86,2.51-6.38,5.99-7.33,10.53-.17.81-.42,1.52-1.16,2-4.79,3.15-9.86,4.88-15.66,3.29-6.17-1.69-9.73-6.38-9.72-12.89Z"/>
  <path class="cls-3" d="m408.64,315.57c-.41.9.12,2.32-1.36,2.72-.92.25-2.02-.67-2.59-2.04-.4-.95-.45-1.87.3-2.65.58-.6,1.31-.91,2.16-.56,1.1.46,1.44,1.38,1.5,2.53Z"/>
  <path class="cls-20" d="m486.92,267.18c-.06-.44.12-.75.54-.91.04.43-.15.73-.54.91Z"/>
  <path class="cls-7" d="m436.1,261.94c.43.19.54.54.47.97-.36-.22-.51-.55-.47-.97Z"/>
  <path class="cls-4" d="m541.2,325.45c.85.63,1.68.66,2.42.92,3.69,1.28,5.6,4.38,5,8.23-.95,6.05-3.94,10.92-8.84,14.57-2.82,2.11-5.89,3.85-9.11,5.28-4.27,1.9-8.73,2.48-13.35,1.52-7.75-1.61-11.42-8.62-8.28-15.89,1.81-4.18,4.75-7.56,8.02-10.65,1.61-1.53,3.34-2.94,5.07-4.46-.75-.56-1.58-.44-2.32-.6-2.97-.64-4.46-2.89-3.84-5.84.34-1.58.93-3.07,1.81-4.42,2.86-4.4,6.31-8.23,10.74-11.13.46-.3.95-.61,1.47-.78,2.18-.74,4.06.69,3.99,2.99-.02.83-.34,1.55-.71,2.26-.45.85-.96,1.66-1.35,2.54-.89,2-.69,2.45,1.38,3.11,1.29.42,2.57.84,3.8,1.44,3.36,1.63,6.05,4.94,4.39,9.9-.1.3-.19.6-.3.99Z"/>
  <path class="cls-14" d="m515.19,314.98c-.23,2.41-1.26,4.57-2.29,6.69-.5,1.04-1.85,1.03-2.56,0-2-2.93-1.41-6.81,1.5-8.55,1.64-.98,3.29-.01,3.34,1.86Z"/>
  <path class="cls-12" d="m476.28,390.4c10.12-.28,18.8,4.89,25.29,13.73,3.14,4.27,3.68,9.46,2.05,14.65-.56,1.78-1.65,3.26-3.08,4.49-1.62,1.39-3.44,1.93-5.55,1.59-2.53-.41-5.02-1.02-7.42-1.88-8.64-3.11-17.21-2.87-25.78.32-3.88,1.45-7.74,3.02-11.83,3.81-.78.15-1.57.3-2.37.34-5.26.27-8.63-2.7-9.07-7.99-.24-2.84.3-5.57,1.28-8.22,2.65-7.14,7.44-12.42,14.21-15.83,6.6-3.32,13.63-4.91,22.26-5.01Z"/>
  <path class="cls-19" d="m399.25,333.79c.08,1.14-.31,2.3-1.14,3.36-2.1,2.68-4.48,4.98-8,5.62-3.43.63-7.28-1.95-5.71-6.55,1.44-4.22,7.17-7.54,10.4-7.22,2.66.26,4.42,1.93,4.45,4.79Z"/>
  <path class="cls-19" d="m521.03,342.66c-.06-.83.24-1.66.68-2.42,1.52-2.65,3.33-5.07,5.88-6.84,1.71-1.19,3.6-1.68,5.68-1.43,3,.37,5.05,3.37,4.32,6.29-.3,1.18-.84,2.24-1.6,3.19-2.46,3.07-5.38,5.47-9.42,6.06-3.07.46-5.59-1.76-5.54-4.85Z"/>
  <path class="cls-15" d="m532.14,325.08c-.03,1.14-.92,2.12-1.88,1.96-.95-.16-1.53-.77-1.57-1.77-.04-1.04.88-1.91,1.96-1.89,1,.02,1.52.62,1.48,1.7Z"/>
  <path class="cls-8" d="m447.42,413.5c1.25.47,2.19-.25,3.19-.96,3.14-2.2,6.35-4.29,9.48-6.51,2.95-2.1,5.76-1.99,8.57.22.25.2.52.37.77.56,4.59,3.49,2.92,3.11,9.12,2.41.82-.09,1.93-.66,2.37.37.51,1.2-.75,1.57-1.52,2.05-.74.46-1.55.82-2.33,1.22-2.3,1.17-4.56,1.24-6.82-.18-1.28-.81-2.67-1.44-3.95-2.24-1.31-.83-2.38-.81-3.68.2-2.71,2.1-5.56,4.03-8.36,6.01-.72.51-1.44,1.02-2.21,1.42-1.47.77-2.91.7-4.27-.31-.64-.47-1.31-.91-1.99-1.33-.72-.45-1.33-.96-1.08-1.91.27-.99,1.11-1.01,1.93-1.02.24,0,.48,0,.79,0Z"/>
  <path class="cls-16" d="m494.46,416.06c-1.32.03-2.09-.14-2.71-.7-1.28-1.16-2.05-2.62-2.38-4.3-.18-.93.02-1.8.97-2.21.92-.4,1.94-.13,2.26.74.94,2.51,2.67,2.25,4.62,1.6.3-.1.62-.16.94-.16,1.21-.04,1.91.95,1.17,1.84-1.38,1.66-3.07,2.98-4.86,3.19Z"/>
</svg>