<?xml version="1.0" encoding="UTF-8"?>
<svg id="_图层_1" data-name="图层 1" xmlns="http://www.w3.org/2000/svg" viewBox="0 0 960 960">
  <defs>
    <style>
      .cls-1 {
        fill: #fefefe;
      }

      .cls-1, .cls-2, .cls-3, .cls-4, .cls-5, .cls-6, .cls-7, .cls-8, .cls-9, .cls-10, .cls-11, .cls-12, .cls-13, .cls-14, .cls-15, .cls-16, .cls-17, .cls-18 {
        stroke-width: 0px;
      }

      .cls-2 {
        fill: #7c7777;
      }

      .cls-3 {
        fill: #97695b;
      }

      .cls-4 {
        fill: #f7b9a0;
      }

      .cls-6 {
        fill: #bbb9b9;
      }

      .cls-7 {
        fill: #466af6;
      }

      .cls-8 {
        fill: #7c7979;
      }

      .cls-9 {
        fill: #b16b1f;
      }

      .cls-10 {
        fill: #fff;
      }

      .cls-11 {
        fill: #b7ceff;
      }

      .cls-12 {
        fill: #d45861;
      }

      .cls-13 {
        fill: #454795;
      }

      .cls-14 {
        fill: #a2a8a8;
      }

      .cls-15 {
        fill: #fdfdfd;
      }

      .cls-16 {
        fill: #ffd741;
      }

      .cls-17 {
        fill: #a96861;
      }

      .cls-18 {
        fill: #5a7dff;
      }
    </style>
  </defs>
  <path class="cls-5" d="m712.31,318.48c-1.66-10.61-5.07-20.6-10.88-29.72-2.39-3.75-5.19-7.12-8.85-9.66-1.15-.8-1.27-1.46-.8-2.73,2.1-5.62,1.85-11.29-.04-16.91-.78-2.31-2.01-4.37-3.84-6-4.11-3.66-8.8-5.96-14.38-6.44-7.6-.66-14.8.94-21.79,3.65-10.95,4.24-21.77,8.8-32.78,12.85-9.69,3.57-19.63,6.2-30.12,6.13-1.95-.01-2.99-.69-4-2.24-5.91-9.05-12.38-17.68-20-25.39-2.98-3.02-6.08-5.91-9.66-8.22-.33-.21-.71-.38-.59-.93,3.49-2.05,6.96-4.19,10.15-6.73,2.35-1.88,2.35-3.39.2-5.54-.99-1.06-2.14-.87-3.32-.42-2.09.8-4.16,1.64-6.22,2.51-9.2,3.87-18.18,8.24-27.64,11.47-16.52,5.64-33.27,10.24-50.79,11.43-8.21.56-16.42.79-24.6-.49-3.42-.54-6.69-1.57-9.78-3.13-5.92-3-7.34-7.12-4.38-13.05,2.86-5.74,7.17-10.34,11.77-14.7.75-.8,1.63-1.49,2.14-2.49.79-1.53.37-2.35-1.35-2.76-.81.34-1.66.59-2.41,1.03-6.49,3.76-12.35,8.27-16.84,14.36-.69.93-1.34,1.6-2.61,1.8-6.79,1.05-13.06,3.58-19.06,6.87-8.97,4.91-16.91,11.2-24.21,18.32-1.19,1.16-2.47,1.91-4.05,2.38-3.6,1.06-7.18,2.2-10.72,3.42-2.77.95-5.18,2.51-6.84,5.01-3.02,4.53-1.81,9.22,1.2,11.44.73.54.83.96.3,1.75-.69,1.03-1.4,1.53-2.74,1.39-4.3-.47-8.56-1.1-12.74-2.18-4.26-1.1-8.32-2.76-12.3-4.65-4.9-2.33-9.84-4.63-15.19-5.77-4.8-1.02-8.93.19-11.91,4.22-3.09,4.19-4.2,8.99-3.29,14.08,1.05,5.84,4.55,10.32,8.83,14.19,3.46,3.13,7.46,5.46,11.61,7.57,5.33,2.71,11,4.25,16.85,5.28,1.44.26,1.48.34.91,1.67-3.54,8.41-6.37,17.06-9.03,25.77-.4,1.31-1.11,2.11-2.25,2.88-11.14,7.5-20.29,16.83-25.98,29.17-5.44,11.79-5.7,23.78-.94,35.86,2.7,6.85,6.64,12.92,11.61,18.33,6.97,7.59,14.95,13.94,23.78,19.24,1.23.74,2.43,1.53,3.64,2.3,5.59,4.31,12.16,6.72,18.58,9.3,29.65,11.92,60.76,16.69,92.45,18.17,9.79.46,19.63.34,29.46-.28,9.09-.57,18.16-1.29,27.18-2.5,25.87-3.47,51.03-9.64,74.93-20.35,3.69-1.66,7.56-3.08,10.68-5.83,2.87-1.71,5.77-3.39,8.62-5.14,8.35-5.11,15.99-11.1,22.3-18.63,9.54-11.39,14.86-24.26,13.22-39.43-.61-1.02.37-2.36-.65-3.33.54.35.53,1.13,1.12,1.41,1.72,3.19,3.54,6.32,5.87,9.12.25.26.16.68.43.93v-.03c3.57,5.23,8.38,9.01,14.26,11.21,15.17,5.66,31.22-5.01,36.57-16.87,2.61-4.14,4.78-8.49,6.35-13.13,5.6-16.57,7.27-33.52,4.57-50.83Zm-75.15,42.76c-2.11-3.2-4.45-6.22-6.92-9.16-4.68-5.59-10.66-9.58-16.48-13.79-.39-.28-.76-.59-1.18-.81-1.15-.58-1.46-1.42-1.35-2.72.34-4.01-.46-7.95-.95-11.91.96-.79,1.98-.4,2.96-.12,6.58,1.89,13.26,2.85,20.11,2.22,2.28-.21,2.32.99,1.95,2.63-.99,10.7-.27,21.27,2.23,31.72.07.31.08.63.12.94.18.5.41,1.03-.49,1Zm56.3-14.08c-.35,3.58-.55,7.18-2.18,10.49-1.3,2.64-4.45,4.41-7.29,3.98-2.16-.33-4.15-1.11-5.86-2.53-2.63-2.19-4.63-4.86-6.1-7.91-2.86-5.94-4.71-12.2-5.65-18.72-.44-3.09-.59-6.2-.54-10.38-.15-7.44,1.56-15.6,4.32-23.6.26-.76.6-1.23,1.38-1.46,1.39-.41,2.64-1.16,3.81-1.97.91-.63,1.53-.61,2.16.35.96,1.47,2.16,2.81,2.96,4.35,3.65,7,7.38,13.96,10.04,21.44,3.01,8.46,3.81,17.1,2.94,25.96Z"/>
  <path class="cls-18" d="m449.51,213.87c.71-.82,1.49-1.6,2.12-2.49.82-1.16.61-1.61-.89-2.41,3.78-1.64,7.81-2.15,11.83-2.64,5.87-.72,11.78-.81,17.68-1.09,10.54-.49,21.08-.59,31.62-.28,12.95.38,25.79,1.85,38.35,5.17,2.7.71,5.34,1.62,8.01,2.45.3.09.6.23.89.34,3.54,1.34,5.69,3.73,5.78,7.67-1.48-.46-2.82,0-4.15.58-4.99,2.13-10.01,4.19-14.96,6.41-16.45,7.38-33.5,12.91-51.2,16.34-11.56,2.24-23.24,3.31-35.03,2.67-2.54-.14-5.1-.27-7.57-1-3.31-1.41-4.3-4.21-4.59-7.51-.43-4.96-.1-9.86.81-14.74.59-3.13,1.16-6.27,1.28-9.47Z"/>
  <path class="cls-13" d="m346.38,444.7c3.29,1.6,6.57,3.22,9.89,4.79,13.86,6.54,28.38,11.1,43.3,14.48,8.33,1.89,16.73,3.43,25.18,4.61,6.79.95,13.62,1.65,20.47,2.19,9.01.72,18.02.91,27.05.89,10.87-.03,21.69-.74,32.51-1.85,12.24-1.26,24.36-3.22,36.36-5.88,16.41-3.64,32.39-8.64,47.74-15.54,3.63-1.64,7.19-3.44,10.79-5.16-.6,1.76-2.08,2.77-3.37,3.94-7.17,6.5-15.5,11.26-23.97,15.76-23.53,12.5-48.51,20.47-74.98,23.65-42.82,5.15-83.55-1.81-122.1-21.24-9.96-5.02-19.34-10.91-27.29-18.86-.55-.55-1.27-.98-1.56-1.77Z"/>
  <path class="cls-13" d="m650.56,388.11c.92.4,1.42,1.26,2.06,1.94,2.64,2.81,5.54,5.32,8.94,7.12,8.34,4.43,16.73,4.09,24.93-.28,6.17-3.29,10.96-8.13,14.55-14.16.08-.13.24-.2.36-.3-.4,4.93-1.71,9.58-4.33,13.81-5.35,8.63-12.96,13.31-23.26,12.97-10.35-.35-20.19-8.08-22.92-17.82-.3-1.07-.65-2.14-.32-3.28Z"/>
  <path class="cls-14" d="m643.79,380.02c-.66-1.21-.42-2.59-.87-4.02.86.61,1.2,1.29,1.34,2.1-.68.51-.09,1.33-.47,1.92Z"/>
  <path class="cls-13" d="m650.14,387.21c.45.17.58.48.43.93-.32-.23-.46-.53-.43-.93Z"/>
  <path class="cls-4" d="m418.71,260.92c.48-.82,1.03-1.62,1.44-2.47,2.37-4.89-.53-9.79-5.96-10.02-3.2-.13-6.34.48-9.51.8-.87.09-1.74.19-2.61.29-.62.14-1.35.61-1.52-.53,7.83-6.64,16.35-12.12,26.39-15.83-1.47,6.91,1.09,12.03,5.84,16.31,4.16,9.36,12.86,12.41,21.59,15.09,12.21,3.76,24.57,3.13,36.88.18,1.94-.47,3.91-.8,5.84-1.32.85-.23,1.73-.44,2.44.36,1.46,2.72,3.45,4.96,6.03,6.68,1.84,6.19,6.96,8,12.44,9.45,2.35.62,4.94.6,6.94,2.3.04.25-.03.46-.22.63-.38.27-.81.47-1.22.7-7.58,2.89-14.41,7-20.42,12.49-1.59,1.45-3.11,2.94-4.49,4.59-.81.96-1.43,2.39-3.13,2.11-1-1.48-1.33-3.24-1.95-4.87-5.44-14.27-18.49-18.02-30.87-13.36-9.65,3.63-16.84,10.49-22.67,18.84-5.6,8.02-9.95,16.72-13.84,25.67-1.45-.01-1.83-.29-1.53-1.88.61-3.29.34-6.53-.16-9.77-1.73-11.02-6.96-19.89-16.79-25.46-8.87-5.02-18.01-4.04-26.91.15-10.26,4.83-17.12,13.08-22.45,22.82-1.1,2.01-.26,3.23,1.19,4.42-3.54,4.88-3.8,10.7-4.71,16.35-.58,3.63-.18,7.33-.81,10.95-3.42,2.13-3.38,5.48-2.98,8.87.18,1.55-.2,2.62-1.53,3.41-2.33,1.37-4.1,3.55-6.62,4.66-6.22,3.88-11.5,8.47-12.29,16.4-.39,3.87.55,7.48,2.51,10.79,4.25,7.16,10.38,12.49,17.1,17.21,12.68,8.91,26.91,14.27,41.7,18.39,15.81,4.4,31.81,7.92,48.04,10.29,11.5,1.68,23.07,1.39,34.67.94,16.87-.65,33.03-4.79,49.11-9.29,11.9-3.33,22.94-8.85,33.89-14.52,8.5-4.41,16.25-9.88,23.53-16.04,3.47-2.94,6.82-6.05,9.21-10.02,5.23-8.66,2.72-17.18-6.34-21.59-2.85-1.39-5.89-2.02-8.99-2.42-3.96-.52-7.91-1.16-11.93-.58-2.82-.93-3.12-1.7-1.75-4.59,3.81-8.03,5.99-16.41,5.66-25.38-.15-4.03-1.04-7.87-2.22-11.69-.35-1.13-.93-2.22-.79-3.46.16-.6.68-.81,1.17-1.04,2.22-1,3.13-2.67,2.6-5.09.68-2.64.33-5.21-.53-7.76-2.57-7.7-7.12-13.87-14.04-18.21-.61-.38-1.28-.68-1.6-1.39-.21-.88.35-1.37,1-1.69,3.71-1.85,5.28-5.1,5.96-8.96.1-.55.29-1.07.46-1.61,2.3-5.73.18-10.29-6.11-12.77-5.74-2.26-11.69-3.75-17.81-4.6-2.09-.29-4.35.04-6.23-1.29-.38-1.52.98-1.64,1.78-2.03,6.43-3.16,12.83-6.36,18.28-11.13.64-.56,1.4-1.13,2.36-.53,4.67,4.52,8.71,9.57,12.49,14.83,11.12,15.46,19.77,32.28,27.37,49.67,3.36,7.69,6.39,15.52,8.91,23.52.62,1.98,1.26,3.99,1.54,6.03.44,3.29,2.17,5.35,4.91,7.17,10.47,6.96,18.58,16.09,23.77,27.59,4.81,10.67,4.18,21.28-1.03,31.69-2.97,5.93-7.1,11.01-11.74,15.67-8.59,8.63-18.49,15.47-29.31,20.99-15.76,8.04-32.42,13.5-49.65,17.29-28.14,6.18-56.61,7.92-85.33,6.41-20.09-1.06-39.91-3.85-59.32-9.26-14.9-4.16-29.33-9.51-42.77-17.28-4.71-2.72-9.26-5.69-13.57-9.01-6-4.63-11.17-10.05-15.22-16.47-7.72-12.25-8.27-24.91-1.98-37.88,2.89-5.96,6.96-11.1,11.61-15.76,2.54-2.54,5.23-4.93,7.93-7.32,2.48-2.2,4.02-4.88,4.83-8.09,2.85-11.29,7.49-21.9,12.47-32.37,5.2-10.92,11.35-21.28,18.53-31.03.72-.37,1.42-.19,2.06.16,3.31,1.8,6.91,1.93,10.49,1.59,6.11-.57,12.18-1.47,18.02-3.52,3.27-1.15,6.22-2.85,8.83-5.14,1.93-1.68,3.37-3.62,3.19-6.37-.05-.74.3-1.39.51-2.08Z"/>
  <path class="cls-16" d="m660.46,283.84c2.53-.49,3.72.21,4.36,2.68.62,2.38.34,4.77-.12,7.13-.83,4.31-2.22,8.51-2.87,12.86-2.2,14.79-1.53,29.32,3.92,43.43,2.05,5.31,4.89,10.05,9.58,13.48,2.93,2.14,6.21,3.25,9.84,3.26,5.64.02,9.96-2.99,12-8.27.99-2.57,1.35-5.26,1.6-7.96.75-8.08.81-16.13-1.18-24.07-.33-1.32-.71-2.62-1.07-3.93-.24-.61-.37-1.34-.14-1.85,1.85-4.01,3.95-7.89,6.58-11.46.29-.39.76-.57,1.24-.2,2.9,10.18,3.7,20.57,3.12,31.09-.57,10.4-2.94,20.36-7.39,29.81-2.19,4.65-4.92,8.95-8.16,12.94-1.98,2.43-4.28,4.52-6.88,6.29-7.81,5.33-15.69,5.14-23.59.27-2.82-1.74-5.14-4.06-7.18-6.65-5.41-6.91-8.91-14.7-10.66-23.3,3.07.23,3.46-.05,3.94-3.2.31-2.04.67-4.08.03-6.15-.84-2.75-2.17-3.54-4.97-2.77-.31.09-.62.15-.93.04-.41-3.3-.69-6.61-.47-9.94,1.6.66,2.39.79,3.37-1.4,3.92-8.75,4.9-18.29,7.95-27.26,2.16-6.35,4.5-12.61,7.6-18.56,1.08-2.08,1.7-4.11.44-6.32Z"/>
  <path class="cls-17" d="m685.98,274.84c-1.09,2.96-2.86,5.52-4.87,7.89-2.73,3.21-5.93,5.96-9.32,8.91-.22-1.72-.37-3.12-.59-4.5-.27-1.67-.87-3.24-1.8-4.66-2.9-4.41-7.7-5.28-12.03-2.24-5.07,3.56-8.92,8.17-11.97,13.52-1.9,3.34-3.53,6.81-4.81,10.42-.45,1.28-1.18,1.92-2.42,2.32-8.14,2.65-16.45,3.86-25.01,3.06-1.83-.17-3.65-.37-5.49-.49-.91-.06-1.43-.41-1.76-1.3-2.04-5.55-4.39-10.97-6.96-16.29-.06-.13-.02-.31-.03-.46.28-.35.69-.37,1.07-.46,11.71-2.83,22.77-7.32,33.26-13.23,3.56-2,6.89-4.34,10.15-6.79.93-.7,1.77-1.42,1.3-2.77.72-.98,1.84-1.26,2.89-1.54,8.07-2.12,16.23-3.4,24.57-2,4.05.68,7.91,1.87,10.88,4.99,1.53,1.6,2.64,3.37,2.94,5.59Z"/>
  <path class="cls-17" d="m551.18,239.87c-.75.03-1.38.39-1.91.87-5.37,4.82-11.72,8.04-18.14,11.16-.84.41-1.8.65-2.43,1.43-1.36,1.07-2.87.55-4.35.45-5.15-.36-10.31-.6-15.44.27-2.49.42-4.68,1.45-6.5,3.26-1.34,1.34-2.26,2.85-2.32,4.8-.02.78-.01,1.61-.66,2.22-.48-.44-.92-.68-1.68-.48-4.77,1.28-9.58,2.35-14.46,3.1-5.86.9-11.71.93-17.62.46-5.06-.41-9.92-1.52-14.67-3.14-4.92-1.68-9.61-3.9-13.65-7.26-2.36-1.96-4.36-4.23-4.58-7.53,5.84,3.99,12.49,5.48,19.37,6.3,12.18,1.45,24.25.41,36.25-1.64,13.79-2.35,27.35-5.69,40.55-10.4,5.57-1.99,11.1-4.08,16.46-6.57,1.62-.75,2.69-.55,3.74.72.61.73,1.55,1.13,2.03,1.98Z"/>
  <path class="cls-4" d="m315.33,288.25c-3-4.04-3.66-8.39-1.75-13.1,1.64-4.05,3.87-5.26,8.08-4.17,4.35,1.12,8.46,2.9,12.5,4.81,7.94,3.76,16.14,6.49,24.95,7.17.3.02.6.12,1.15.23-2.25,3.74-4.42,7.35-6.59,10.95-4.27,1.61-8.72,1.76-13.19,1.53-7.32-.39-14.32-2.19-21.11-4.91-1.5-.6-2.88-1.35-4.03-2.5Z"/>
  <path class="cls-4" d="m685.98,274.84c-.72-.58-.9-1.49-1.29-2.26-1.2-2.35-2.97-4.11-5.29-5.34-3.74-1.98-7.82-2.75-11.97-2.83-7.43-.16-14.75.67-21.81,3.22-.29.11-.63.11-.94.16-.72-.3-1.39-.2-2.07.15-.93.47-1.9.84-2.81,1.34-11.14,6.23-22.96,10.77-35.24,14.16-2.31.64-4.66,1.1-7.03,1.46-1.3.2-2.23-.06-2.89-1.41-1.11-2.26-2.45-4.41-3.7-6.64,14.27.01,27.48-3.69,40.36-8.88,7.55-3.04,15.07-6.19,22.63-9.22,6.14-2.46,12.49-3.89,19.17-3.51,3.27.19,6.24,1.23,8.99,2.98,2.19,1.39,3.68,3.32,4.34,5.81.97,3.64,1.02,7.26-.46,10.8Z"/>
  <path class="cls-9" d="m704.22,308.95c-.88.05-1.13.83-1.46,1.4-1.95,3.34-3.83,6.71-5.78,10.05-.39.66-.3,1.37-.45,2.05-2.41-7.11-5.66-13.85-9.14-20.49-1.79-3.41-3.83-6.63-6.42-9.49-.21-.23-.47-.44-.42-.99,3.08-2.55,5.97-5.47,8.44-9.07,7.87,7.43,12.56,16.4,15.23,26.53Z"/>
  <path class="cls-10" d="m660.46,283.84c1.47.61,1.68,1.86,1.45,3.18-.16.93-.52,1.86-.97,2.69-5.66,10.58-8.99,21.98-11.81,33.56-.53,2.17-1.07,4.34-1.59,6.51-.41,1.72-.97,3.37-1.98,4.85-.46.67-.8,1.38-.82,2.21-.02.92-.17,1.87-1.21,2.1-.97.22-1.64-.41-2.11-1.23-.07-.13-.22-.22-.33-.33-.16-7.21.75-14.31,2.2-21.35,2.1-10.19,6.01-19.61,12-28.16,1.34-1.91,2.99-3.27,5.17-4.02Z"/>
  <path class="cls-13" d="m635.3,327.57c-.05-.62-.1-1.25-.15-1.86-.63-.48-1.24-.04-1.84.02-5.12.52-10.15.08-15.15-1.08-2.63-.61-5.2-1.44-7.88-1.8-.62-2.61-1.23-5.21-1.93-8.17,4.97.9,9.77,1.27,14.61,1.03,4.86-.25,9.58-1.32,14.3-2.2.54.62.09,1.13,0,1.65-.65,3.76-1.73,7.46-1.58,11.33.02.39-.05.8-.37,1.1Z"/>
  <path class="cls-11" d="m449.51,213.87c1.08,1.27.58,2.77.4,4.11-.39,2.99-1.06,5.94-1.54,8.91-.68,4.18-.58,8.38-.13,12.56.21,1.95.99,3.67,2.63,4.91.44.33.76.81,1.14,1.22-4.33-.57-8.37-1.98-11.97-4.46-3.66-2.52-4.66-5.5-3.51-9.78.55-2.03,1.52-3.85,2.67-5.59,2.93-4.4,6.42-8.33,10.32-11.89Z"/>
  <path class="cls-17" d="m315.33,288.25c5.17,2.33,10.44,4.43,16.02,5.51,6.52,1.26,13.09,1.94,19.69.48.86-.19,1.74-.23,2.62-.1-1.39,3.48-3.41,6.66-4.93,10.08-.42.95-1.15,1.01-1.98.84-4.06-.82-8.15-1.5-12.03-3.06-4.46-1.8-8.69-3.99-12.61-6.79-2.68-1.92-5.11-4.06-6.78-6.96Z"/>
  <path class="cls-17" d="m418.71,260.92c.26,2.4.47,4.81-1.19,6.86-1.01,1.24-2.16,2.34-3.45,3.29-3.53,2.57-7.45,4.29-11.68,5.28-5.58,1.3-11.2,2.37-16.96,2.4-3.08.02-6.03-.38-8.67-2.13-.31-.21-.74-.24-1.12-.35.58-1.29,1.87-1.12,2.89-1.26,6.96-.93,13.84-2.33,20.67-3.94,3.18-.75,6.34-1.61,9.4-2.77,4.06-1.54,7.32-4.14,10.12-7.38Z"/>
  <path class="cls-1" d="m641.57,347.31c2.77-1.96,5.18-1.27,6.29,1.88.5,1.41.8,2.89.54,4.42-.23,1.32-.36,2.67-.61,3.99-.54,2.84-1.83,3.37-4.28,1.79-1.11-3.95-1.73-7.99-1.93-12.09Z"/>
  <path class="cls-3" d="m400.56,248.98c.34.64,1.04.28,1.52.53-.45.4-1.01.41-1.56.44-.3.02-.7.02-.64-.41.04-.3.33-.52.68-.56Z"/>
  <path class="cls-6" d="m637.16,361.24c.37-.23.3-.68.49-1,.45.39.43.93.5,1.45.14.52-.1.64-.56.55-.17-.32-.51-.57-.43-.99Z"/>
  <path class="cls-2" d="m637.59,362.23c.31-.05.42-.31.56-.55.38.51.58,1.05.3,1.7-.59-.17-.76-.63-.86-1.15Z"/>
  <path class="cls-10" d="m426.13,328.67c-.4-.33-.25-.69-.08-1.06,4.33-9.63,9.01-19.07,15.49-27.47,5.49-7.12,12.21-12.84,20.67-16.18,6.9-2.73,13.88-2.76,20.67.48,5.08,2.42,8.23,6.72,10.53,11.67,1,2.15,1.98,4.37,2.28,6.78.4,1.14-.49,1.77-1.03,2.51-6.9,9.44-11.8,19.74-13.48,31.4-.52,3.62-1.11,7.25-.44,10.96.42,2.29-.31,3.09-2.64,3.79-1.07.32-2.18.54-3.12,1.19-.61.43-1.11.95-.99,1.78.11.81.69,1.23,1.4,1.49.92.33,1.9.35,2.85.23,8.99-1.14,18.02-1.14,27.04-.85,20.08.63,39.29,4.81,56.92,14.9.97.56,1.97,1.07,3.05,1.38,1.1.32,2.07.11,2.79-.82.74-.96.58-1.96-.03-2.9-.88-1.37-2.16-2.34-3.46-3.28-.63-.46-1.38-.87-1.35-1.83.38-.72,1.07-.59,1.69-.6,5.05-.08,10.03.53,14.93,1.64,3.22.73,6.18,2.17,8.74,4.3,5.23,4.34,6.29,10.95,3.62,17.19-1.14,2.66-2.76,5.02-4.72,7.16-3.74,4.09-8.13,7.42-12.46,10.81-9.12,7.14-19.37,12.3-29.81,17.16-6.01,2.8-12.09,5.41-18.39,7.49-7.8,2.57-15.83,4.31-23.82,6.19-6.98,1.64-14.03,2.79-21.18,3.49-10.12.99-20.25,1.13-30.37.73-8.27-.33-16.47-1.6-24.59-3.27-8.11-1.67-16.26-3.18-24.27-5.27-10.72-2.79-21.42-5.65-31.69-9.94-9.49-3.96-18.41-8.91-26.38-15.39-4.82-3.92-9.24-8.32-12.3-13.89-3.7-6.73-3.2-14.97,1.9-20.73,2.18-2.47,4.66-4.56,7.37-6.41.34-.23.69-.8,1.17-.17.08.42-.13.74-.36,1.06-.11.16-.22.32-.32.48-.04.09-.08.18-.11.27-.07.31-.07.62-.03.94.54,1.91,1.84,1.75,3.22,1.13,2.12-.94,4.16-2.05,6.24-3.07,8.57-4.23,17.68-6.39,27.14-7.38,7.03-.73,14.05-.29,21.08-.4,2.64-.04,3.15.42,3.18,2.76.1,10.41,3.55,19.91,7.86,29.17,2.02,4.35,4.24,8.61,7.43,12.27.21.24.41.49.63.72.72.72,1.46,1.8,2.6,1.03,1.1-.75.45-1.9.09-2.84-.54-1.42-1.23-2.78-2-4.09-2.06-3.53-3.82-7.19-5.46-10.93-3.44-7.83-5.62-15.96-5.99-24.53-.07-1.59.12-3.18.7-4.7.67-.6,1.24-.11,1.67.29,3.59,3.32,7.83,3.56,12.32,2.72,6.22-1.17,11.53-3.93,15.82-8.69,1.89-2.1,1.76-4.47,1.71-6.93,1.03-2.25,1.39-4.58.78-7.01-.4-1.59.4-2.21,1.87-2.29,1.68-.08,3.36-.04,5.04-.04,6.15-.03,12.29.41,18.42.88,1.28.1,2.56.13,3.83.02.62-.05,1.41-.03,1.59-.79.2-.84-.49-1.29-1.12-1.66-.98-.58-2.08-.81-3.17-1.08-4.06-.99-8.22-1.24-12.35-1.66-5.09-.52-10.2-.57-15.32-.57-3.61,0-7.18.3-10.76.69-.94.1-1.91.39-2.74-.37Z"/>
  <path class="cls-5" d="m426.13,328.67c7.53-1.11,15.11-1.26,22.69-.85,6.53.35,13.06.83,19.48,2.23,1.1.24,2.17.55,3.13,1.15.92.58,1.68,1.37,1.37,2.54-.32,1.19-1.43,1.15-2.38,1.11-4.86-.21-9.73-.43-14.59-.71-4.86-.27-9.72-.32-14.92-.29,1.7,3.34,1.34,6.4-.64,9.28-.22,1.75-1.51,2.76-2.75,3.74-5.19,4.11-11.04,6.9-17.46,8.42-3.65.86-7.14.48-9.86-2.47-1.04.48-.63,1.7-1.36,2.22-.93,6.71.22,13.22,2.12,19.61,2.07,6.99,4.93,13.65,8.65,19.93,1.1,1.86,2.05,3.78,2.72,5.84.35,1.09.4,2.06-.6,2.79-.82.6-1.89.34-2.96-.75-2.42-2.47-4.38-5.3-5.99-8.34-4.45-8.42-8.28-17.1-10-26.55-.55-2.99-.79-6.02-.69-9.06.03-1-.07-1.59-1.38-1.6-8.62-.07-17.24-.31-25.84.87-9.84,1.35-19.13,4.27-27.79,9.14-.69.39-1.39.79-2.12,1.11-2.68,1.19-4.06.12-3.75-2.87.07-.21.19-.4.34-.56l.02-.04c.17-.11.29-.26.36-.46.23-.27.46-.54.69-.82,2.36-1.85,4.6-3.86,7.2-5.38.65-.38.78-.86.61-1.59-.44-1.95-.4-3.94-.13-5.91.26-1.9,1.12-3.28,3.23-3.5.12-.01.25-.02.37-.03.38.03.73.17,1.03.4,1.49,1.3,1.29,3.03,1.04,4.68-.24,1.55-.04,2.12,1.65,1.47,2.24-.85,4.52-1.61,6.82-2.25,1.38-.38,1.85-1.2,1.97-2.59,1.02-12.05,6.04-22.38,13.68-31.57,1.5-1.8,2.09-1.85,3.74-.51,3.79,3.06,7.39,2.95,10.77-.54,2.25-2.31,3.58-5.14,3.24-8.45-.2-1.94.56-2.85,2.38-3.13,4.57-.71,9.06-.77,13.26,1.58.21.11.21.55.61.39-.22-.19-.45-.36-.63-.59-2.84-4.38-6.23-8.09-11.37-9.84-5.94-2.02-11.85-1.82-17.59.48-8.88,3.56-15.74,9.64-20.87,17.68-.82,1.28-1.63,2.57-2.53,3.79-.48.65-.84,1.64-2.01,1.26-2.11-.23-2.59-.8-2.12-2.66.19-.77.5-1.52.88-2.22,4.6-8.49,10.52-15.79,18.9-20.85,4.49-2.71,9.3-4.52,14.54-5.19,8.26-1.05,15.52,1.27,21.76,6.63,6.88,5.92,10.7,13.58,12.02,22.51.5,3.41.56,6.83.09,10.26-.09.62-.44,1.71.97,1.03Z"/>
  <path class="cls-5" d="m563.2,362.82c1.2.92,2.44,1.8,3.6,2.76.67.56,1.31,1.19,1.81,1.9.98,1.37.92,2.85-.01,3.99-.86,1.04-2.22,1.43-3.69.88-.97-.36-1.89-.85-2.78-1.38-12.66-7.43-26.47-11.37-40.87-13.58-14.08-2.16-28.18-1.92-42.3-.59-.87.08-1.76.13-2.63.11-1.98-.04-3.11-.78-3.32-2.1-.21-1.33.57-2.4,2.44-3.1,1.11-.42,2.27-.76,3.44-.99,1.03-.2,1.48-.54,1.37-1.73-1.53-16.69,4.57-30.96,14.04-44.16.46-.65.93-1.29,1.4-1.93,1.91-2.03,3.75-4.13,5.75-6.07,6.32-6.16,13.59-10.84,21.96-13.75.31-.27.74-.22,1.08-.39.12,0,.24-.04.35-.11.54-.79,1.4-1.02,2.25-1.21,7.37-1.66,14.65-1.7,21.8,1.11,1.13.44,2.19.95,2.92,1.96,8.47,4.81,14.01,11.9,16.44,21.34.51,1.97,1.05,4.05-.17,6.02-1.39,1.56-2.55.88-3.52-.44-.91-1.23-1.36-2.7-1.87-4.14-1.97-5.61-4.84-10.58-9.72-14.23-6.46-4.82-13.76-5.74-21.44-4.64-8.66,1.23-16.08,5.28-22.58,10.94-10.36,9.02-17.44,20.08-20.39,33.65-1,4.58-1.01,9.2-.96,13.83.01,1.19.44,1.68,1.75,1.58,5.25-.4,10.51-.88,15.79-.62,1.84.09,2.21-.92,2.5-2.44,1.99-10.4,6.14-19.81,13.01-27.94,1.86-2.2,1.91-2.15,4.1-.28,3.15,2.69,7.74,2.11,11.42-1.51,2.45-2.41,3.6-5.32,2.63-8.72-.54-1.89.09-2.75,1.86-3.01,6-.88,11.68-.2,16.51,3.85,2.51,2.11,4.86,4.42,6.26,7.48.36.79.9,1.53.74,2.48,1.21,3.69,2.51,7.36,3.04,11.25.89,6.48.41,12.85-1.33,19.15-1.08,3.92-2.47,7.72-4.29,11.36-1.17,2.34-1.14,1.76.98,3.23.19.13.44.16.66.24Z"/>
  <path class="cls-10" d="m564.15,317.6c-1.14-1.82-2.05-3.78-3.36-5.5-4.42-5.8-11.98-10.1-21.71-7.16-.04.14-.17.34-.12.43,3.56,6.48-3.72,14.15-10.09,14.05-2.6-.04-4.51-1.4-5.94-3.49-.82.28-1.15.94-1.59,1.47-7.11,8.55-11.55,18.32-13.29,29.31-.28,1.77-.26,1.81-2.06,1.76-6.24-.15-12.47-.02-18.83.73-.61-2.1-.44-4.23-.36-6.34.66-17.24,7.89-31.38,20.43-42.95,5.28-4.87,11.32-8.57,18.2-10.81,6.05-1.98,12.21-2.58,18.42-1.06,8.97,2.2,14.99,7.85,18.43,16.33.75,1.85,1.39,3.74,2.14,5.59.86,2.11,1.38,2.34,3.66,1.82.93,3.27-.51,5.4-3.93,5.84Z"/>
  <path class="cls-10" d="m414.03,306.57c-4.53-1.91-9.2-2.51-14.04-1.45-1.79.39-1.79.37-1.55,2.1.72,5.12-2.88,10.56-7.9,11.95-3,.83-5.49.02-7.44-2.43-.24-.3-.32-.75-.85-.87-.65.24-1.03.87-1.48,1.4-7.29,8.59-12.15,18.29-13.51,29.59-.06.48-.12.95-.15,1.43q-.19,2.82-2.8,3.57c-2.98.85-5.89,1.91-8.92,3.11-.45-1.29-.11-2.44.08-3.58.24-1.47.27-2.87-.93-4-.25-.34-.68-.27-.99-.47,0,0,0,.01,0,.01-.13-6.79.46-13.51,1.98-20.14.42-1.86,1.21-3.63,1.67-5.48.28-1.13,1-1.69,1.92-2.16,1.72-1.18,2.54-3.05,3.58-4.73,3.87-6.21,8.89-11.27,15.02-15.22,4.78-3.08,9.93-5.09,15.7-5.2,9.34-.18,16.3,3.74,20.71,12.04.12.2.09.38-.1.53Z"/>
  <path class="cls-5" d="m499.44,264.32c-.41-5.89,2.85-9.8,9.21-10.97,5.23-.96,10.5-.68,15.76-.27,1.43.11,2.85.34,4.29.25,4.01.63,8.03,1.19,12.03,1.89,4.33.76,8.47,2.14,12.57,3.72,2.74,1.05,4.73,2.96,6.32,5.27,1.91,2.76,1.43,5.58-.28,8.29-1.06,2.26-2.95,3.52-5.27,4.16-3.87,1.08-7.78,1.16-11.81,1-9.21-.36-18.24-1.89-27.26-3.57-3.42-.64-6.98-1.03-9.77-3.49-2.69-1.4-4.85-3.28-5.8-6.28Z"/>
  <path class="cls-17" d="m505.24,270.6c5.77,2.46,11.94,3.22,18.04,4.27,6.91,1.19,13.86,1.96,20.86,2.26,2.48.11,4.95-.07,7.38-.44,3.06-.47,5.72-1.86,7.82-4.2-.36,2.01-.75,4-1.66,5.87-1.04,2.14-2.53,3.78-4.69,4.8-.54.25-1.26.4-1.2,1.25-3.99-1.9-8.14-3.1-12.58-3.42-4.52-.32-8.89.24-13.24,1.35-.38.1-.77.14-1.15.21-1.92-1.21-4.19-1.28-6.3-1.87-2.9-.81-5.81-1.56-8.43-3.12-2.2-1.31-3.88-2.99-4.37-5.63-.08-.46-.31-.89-.48-1.33Z"/>
  <path class="cls-17" d="m524.48,282.66c-.26.42-.64.48-1.08.39.28-.35.61-.56,1.08-.39Z"/>
  <path class="cls-5" d="m448.93,434.35c-2.55-.09-5.81-.29-9.01-1.05-1.33-.31-2.6-.75-3.81-1.37-4.73-2.43-7.51-6.17-7.38-11.62.13-5.54,3.44-8.95,8.2-11.05,3.85-1.7,7.82-1.44,11.6.32,1.43.67,2.69.76,4.09.1,1.37-.65,2.76-1.24,4.16-1.81,3.35-1.38,6.79-1.71,10.29-.65,4.02,1.21,5.98,4.09,5.69,8.29-.13,1.85-.63,3.61-1.31,5.32-3.58,8.9-11.95,14.1-22.51,13.53Z"/>
  <path class="cls-17" d="m408.84,355.05c-.25-1.24.46-2.32.45-3.61.35.14.65.15.75.31,2.31,3.23,5.66,3.9,9.17,3.14,7.11-1.54,13.57-4.56,19.04-9.47.75-.67,1.36-1.51,2.03-2.27,1.2,2.65.22,4.8-1.53,6.79-4.47,5.08-10.12,7.94-16.76,8.93-1.5.22-3,.42-4.53.35-3.48-.17-6.29-1.63-8.61-4.16Z"/>
  <path class="cls-4" d="m341.94,364.12c.03.27-.12.41-.36.46-.03-.27.08-.43.36-.46Z"/>
  <path class="cls-4" d="m341.56,364.62c.03.27-.06.48-.34.56-.06-.29.08-.46.34-.56Z"/>
  <path class="cls-7" d="m384.81,335.82c2.26.02,4.83,1.28,6.74,3.8,1.42,1.88,2.29,4.02,2.67,6.35.29,1.82.06,2.09-1.8,2.12-4.08.08-8.15.18-12.2.69-1.43.18-2.86.3-4.28.54-1.32.22-1.94-.44-2.23-1.59-.12-.46-.21-.94-.21-1.42.05-5.63,4.85-10.46,11.32-10.51Z"/>
  <path class="cls-8" d="m414.03,306.57c.03-.18.07-.35.1-.53.38.1.49.38.31.67-.16.27-.34.12-.41-.14Z"/>
  <path class="cls-4" d="m353.53,346.91c.47-.14.78.06.99.47-.4-.02-.77-.08-.99-.47Z"/>
  <path class="cls-7" d="m537.69,349.1c-.03.29-.04.61-.08.93-.3,2.38-.51,2.56-2.86,2.01-6.55-1.52-13.18-2.44-19.86-3.12-1.61-.16-1.72-.37-1.48-1.95,1-6.62,8.67-11.83,15.2-10.33,4.24.98,6.63,3.91,8.14,7.75.59,1.5.82,3.08.94,4.71Z"/>
  <path class="cls-12" d="m462.21,412.08c.12-.1.18-.2.24-.19,5.26.29,6.44,1.89,4.65,6.87-2.1,5.82-6.35,9.26-12.47,10.22-4.39.69-8.76.29-13.1-.55-1.83-.35-3.5-1.11-4.95-2.29-3.69-3.01-3.68-8.25.04-11.21,1.71-1.36,3.65-2.22,5.91-2.18.04.7-.38,1.13-.57,1.64-1.09,2.96-.27,5.54,2.34,7.32,4.39,2.98,11.85,2.25,15.53-1.58,1.98-2.06,3-4.5,2.35-7.43-.05-.21.02-.45.03-.62Z"/>
  <path class="cls-15" d="m459.2,412.2c.41,3.53-.8,5.8-3.82,6.99-2.8,1.11-5.62,1-8.28-.47-1.6-.88-1.95-2.48-.97-3.81.29-.39.58-.73,1.17-.57,3.03.84,5.79-.28,8.57-1.24,1.03-.36,2.03-.87,3.33-.9Z"/>
</svg>