<?xml version="1.0" encoding="UTF-8"?>
<svg id="_图层_1" data-name="图层 1" xmlns="http://www.w3.org/2000/svg" viewBox="0 0 960 960">
  <defs>
    <style>
      .cls-1 {
        fill: #bab2b2;
      }

      .cls-1, .cls-2, .cls-3, .cls-4, .cls-5, .cls-6, .cls-7, .cls-8, .cls-9, .cls-10, .cls-11, .cls-12, .cls-13, .cls-14, .cls-15, .cls-16, .cls-17, .cls-18 {
        stroke-width: 0px;
      }

      .cls-2 {
        fill: #6f6c6c;
      }

      .cls-3 {
        fill: #cd9282;
      }

      .cls-4 {
        fill: #464798;
      }

      .cls-5 {
        fill: #ffd53a;
      }

      .cls-6 {
        fill: #97a7a7;
      }

      .cls-7 {
        fill: #4a68f8;
      }

      .cls-8 {
        fill: #010101;
      }

      .cls-10 {
        fill: #b26a1a;
      }

      .cls-11 {
        fill: #f7b7a1;
      }

      .cls-12 {
        fill: #bcd2ff;
      }

      .cls-13 {
        fill: #c0b6b6;
      }

      .cls-14 {
        fill: #fff;
      }

      .cls-15 {
        fill: #4967f5;
      }

      .cls-16 {
        fill: #a5adad;
      }

      .cls-17 {
        fill: #ab6962;
      }

      .cls-18 {
        fill: #5a7dff;
      }
    </style>
  </defs>
  <path class="cls-9" d="m712.93,322.81c-1.15-9.91-3.55-19.46-8.14-28.38-3.17-6.16-6.84-11.94-12.69-15.95-1.1-.76-.59-1.44-.3-2.24,2.02-5.64,1.86-11.28-.02-16.91-.96-2.88-2.67-5.23-5.04-7.14-4.46-3.59-9.53-5.39-15.24-5.57-6.41-.2-12.56,1.11-18.5,3.35-7.99,3.02-15.9,6.23-23.83,9.39-7.41,2.95-14.78,6.01-22.65,7.64-6.02,1.25-11.96,2.81-18.22,2.36-1.56-.11-2.42-.6-3.25-1.85-2.24-3.4-4.54-6.77-6.97-10.03-6.85-9.18-14.16-17.94-23.69-24.55.4-.65,1.12-.85,1.72-1.21,2.93-1.79,5.84-3.62,8.53-5.76,2.38-1.89,2.44-3.29.41-5.58-1-.99-2.18-.85-3.36-.49-1.22.37-2.39.9-3.56,1.41-15.58,6.79-31.14,13.59-47.64,17.99-14.78,3.95-29.74,6.54-45.07,6.64-3.35.26-6.67-.19-9.97-.58-4.34-.51-8.66-1.28-12.68-3.13-4.67-2.16-7.45-6.09-5.83-10.8.11-.45.22-.9.4-1.33.1-.2.19-.4.28-.61,1.02-2.08,2.22-4.06,3.62-5.92,2.83-3.77,6.11-7.15,9.34-10.58.8-.85,1.88-1.58,1.65-3.01-.43-1.11-1.18-1.45-2.27-.94-.72.34-1.47.64-2.15,1.04-6.41,3.75-12.14,8.28-16.54,14.34-.53.73-1.05,1.34-2.04,1.48-7.72,1.07-14.71,4.16-21.4,8-5.84,3.35-11.19,7.4-16.31,11.76-1.9,1.61-1.91,1.64-4.06.53-2.76-1.42-5.7-2.1-8.79-1.97-6.37.27-10.08,6.62-7.2,12.25.8,1.57,1.79,3.04,2.94,4.37.85.99.74,1.68-.07,2.63-3.1,3.66-6.02,7.47-8.7,11.45-.82,1.22-1.71,1.63-3.15,1.5-8.1-.72-15.92-2.52-23.27-6.07-3.6-1.74-7.25-3.34-10.98-4.76-2.24-.85-4.52-1.57-6.91-1.9-4.34-.59-7.92.8-10.56,4.26-3.21,4.22-4.33,9.09-3.42,14.27,1,5.67,4.31,10.14,8.5,13.84,6.76,5.95,14.61,9.94,23.4,12.05,2.22.53,4.53.72,6.67,1.53-.04.28-.02.45-.08.6-3.68,8.6-6.58,17.49-9.31,26.42-.4,1.31-1.09,2.13-2.23,2.9-10.89,7.28-19.84,16.37-25.59,28.28-6.05,12.52-6.26,25.24-.84,38.05,3.55,8.39,8.98,15.44,15.57,21.64,2.04,1.92,4.14,3.76,6.22,5.63,6.63,6.7,14.82,11.11,23.12,15.21,12.57,6.22,25.78,10.81,39.37,14.26,25.6,6.51,51.65,9.39,78.03,9.68,4.48.05,8.92-.72,13.4-.52,3.84.17,7.66-.31,11.47-.62,10.98-.88,21.92-2.22,32.78-4.16,24.84-4.45,48.85-11.43,71.29-23.2,8.35-4.38,16.53-9.09,23.28-15.86,2.52-2.66,5.16-5.22,7.55-8,9.97-11.61,15.57-24.75,13.84-40.38-.27-.51-.23-1.05-.08-1.57.07-.23-.12-.49.11-.68.09.31.28.54.53.73,1.86,3.37,3.84,6.66,6.34,9.62.35.8.54,1.66,1.17,2.33,10.79,11.71,25.25,14.74,38.36,4.99,11.62-8.65,18.19-20.68,20.26-35.07,2.88-12.23,3.93-24.59,2.47-37.1Zm-75.87,38.01c-2.18-3.24-4.56-6.32-7.1-9.3-4.66-5.48-10.58-9.4-16.32-13.56-.52-.37-1.03-.76-1.57-1.09-.69-.42-.93-.96-.86-1.78.34-4.17-.31-8.27-.99-12.36-.43-1.19-.04-1.7,1.22-1.42.62.14,1.18.49,1.72.82,5.58,3.37,11.77,4.22,18.13,4.4,1.33.04,2.73-.3,3.91.65-.05,4.54-.46,9.07-.24,13.63.31,6.56,1.42,12.99,2.75,19.39.12.56-.12.73-.64.62Zm56.41-13.95c-.34,3.5-.52,7.02-2.07,10.28-1.35,2.85-3.98,4.45-7.12,4.22-2.29-.17-4.33-1.03-6.11-2.49-2.71-2.22-4.74-4.97-6.23-8.11-2.79-5.88-4.69-12.06-5.53-18.51-1.5-11.54-.22-22.79,3.68-33.76.33-.92.7-1.47,1.65-1.77,1.68-.53,3.1-1.62,4.84-2.58,1.59,1.66,2.88,3.4,3.87,5.31,3.66,7,7.38,13.96,10.06,21.44,3.02,8.46,3.84,17.1,2.97,25.96Z"/>
  <path class="cls-4" d="m329.66,433.14c1.71.89,3.05,2.28,4.59,3.39,7.99,5.81,16.64,10.43,25.67,14.39,16.91,7.42,34.6,12.2,52.74,15.44,9.75,1.74,19.54,3.06,29.41,3.89,10.2.86,20.4,1.45,30.63,1.23,9.9-.21,19.78-.7,29.65-1.67,16.16-1.59,32.11-4.27,47.83-8.32,16.52-4.25,32.57-9.85,47.72-17.79,8.08-4.24,15.91-8.88,22.86-14.86.47-.41.93-.9,1.64-.91-.12.86-.81,1.35-1.31,1.95-3.4,4.06-7.28,7.64-11.4,10.93-13.72,10.95-28.27,20.67-44.15,28.19-14.93,7.08-30.73,11.71-46.89,15.08-15.69,3.28-31.57,4.98-47.59,5.03-27.4.09-54.18-3.79-79.87-13.62-21.24-8.12-40.11-20.04-56.11-36.32-1.89-1.93-3.87-3.8-5.4-6.06Z"/>
  <path class="cls-18" d="m437.09,229.84c.47-2.24,1.87-4,3.13-5.81,2.68-3.87,5.96-7.22,9.28-10.54,1.06-1.06,2.22-2.04,2.75-3.52,7.55.6,15.06,1.62,22.6,2.38,3.89.39,7.79.74,11.71.73,6.63-.01,13.26.05,19.89.06,9.9.01,19.8,0,29.7.01,5.52,0,11-.46,16.49-.91,2.74-.22,5.45.1,7.93,1.36,2.75,1.39,4.47,3.54,4.49,6.78-1.55-.46-2.97-.04-4.4.58-7.32,3.16-14.61,6.4-21.99,9.42-14.73,6.03-29.88,10.71-45.55,13.57-8.65,1.57-17.38,2.48-26.18,2.63-.48,0-.95-.05-1.43-.08.24-1.22,1.28-.9,2.04-1,1.53-.2,2.98-.56,4.15-1.63.71-.65,1.47-1.35,1.15-2.44-.33-1.13-1.27-1.7-2.34-1.75-4.92-.22-9.47-2.09-14.2-3.11-4.65-1-9.01-2.63-12.33-6.32-1.31-1.45-3.06-1.55-4.85-.85-.65.26-1.26.73-2.03.45Z"/>
  <path class="cls-4" d="m650.67,387.66c2.44,2.96,5.19,5.6,8.39,7.73,9.14,6.11,18.57,6.18,28.03.94,6.36-3.53,11.05-8.86,14.83-15,3.54-5.75,6.04-11.95,7.82-18.46.27-.99,0-2.1.72-2.96.83,8.41-.42,16.56-2.96,24.56-2.8,8.83-8.46,15.47-16.04,20.55-3.18,2.13-6.83,3.1-10.65,3.26-6.99.3-13.67-.97-19.95-4.16-2.44-1.24-4.69-2.77-6.51-4.83-2.93-3.32-4.64-7.07-3.68-11.64Z"/>
  <path class="cls-16" d="m643.77,379.56c-.65-1.12-.38-2.4-.83-3.74.92.65,1.28,1.36,1.39,2.23-.67.32-.23,1.06-.56,1.51Z"/>
  <path class="cls-11" d="m552.69,241.26c2.93,2.73,5.45,5.83,7.87,9.01,9.29,12.19,16.97,25.36,23.67,39.11,5.85,12.01,11.15,24.25,15.31,36.95.85,2.59,1.66,5.19,2.06,7.87.43,2.92,1.98,4.81,4.46,6.41,9.95,6.41,17.62,15,23.03,25.5,6.38,12.39,5.62,24.66-1.35,36.6-3.95,6.77-9.24,12.43-15.09,17.58-11.48,10.11-24.69,17.3-38.79,22.99-16.61,6.69-33.85,11.06-51.5,13.86-18.44,2.93-37,4.18-55.67,3.85-23.17-.41-46.1-2.76-68.58-8.6-15.05-3.91-29.66-8.99-43.4-16.38-5.71-3.07-11.19-6.52-16.38-10.39-6.21-4.63-11.55-10.1-15.76-16.61-8.3-12.83-8.74-26.06-1.72-39.55,3.24-6.23,7.72-11.55,12.79-16.37,2.2-2.09,4.48-4.11,6.74-6.13,1.97-1.76,3.33-3.95,3.95-6.46,2.95-11.94,7.82-23.14,13.13-34.17,6.05-12.57,13.32-24.39,21.96-35.36,1.13-1.03,1.53.02,1.94.74,3.17,5.54,7.19,10.32,12.22,14.27,1.97,1.55,1.85,1.84-.69,2.75-11.91,2.49-21,9.55-29.21,18.02-1.23,1.27-2.08,2.8-2.46,4.55-5.1,7.45-7.65,15.92-9.8,24.54-1.43,5.75-1.94,11.64-2.43,17.52-.31,3.77.51,7.47.73,11.21-.58,3.03-.25,5.97.87,8.84.28.73.64,1.47.23,2.27-.71.6-1.51.37-2.29.26-5.79-.82-10.19,1.38-13.2,6.28-3.02,4.93-3.07,10.03-.1,14.99,2.84,4.74,6.91,8.32,11.35,11.54,6.47,4.68,13.7,7.89,21.03,10.87,9.48,3.85,18.68,8.35,28.45,11.5,9.95,3.21,20.17,4.83,30.55,5.81,6.53.62,13.05.91,19.61.95,10,.07,19.94-.68,29.89-1.36,9.25-.63,18.45-1.68,27.62-3,17.46-2.53,34.57-6.52,50.88-13.41,13.63-5.76,24.79-14.78,33.54-26.71,3.01-4.1,5.38-8.53,5.15-13.89-.16-3.84-1.63-7-4.77-9.23-7.27-5.17-15.47-6.55-24.17-5.71-1.11.11-2.21.4-3.32.48-1.72.12-2.21-.48-1.67-2.15.65-2.06,1.47-4.07,2.04-6.14,4.54-16.59,5.41-33.22.21-49.85-.91-2.9-2.08-5.7-3.79-8.25-.14-2.11-1.19-3.74-2.62-5.22-8.41-8.7-18.66-12.15-30.62-10.78-.48.05-.95.09-1.43.06-.61-.1-1.44-.01-1.57-.77-.13-.77.68-.99,1.24-1.24,4.09-1.82,8.09-3.81,11.77-6.4,3.02-2.13,5.82-4.5,7.95-7.54,1.58-2.26,2.36-4.71,1.3-7.45-.04-.23-.04-.46-.02-.69.08-.45.21-.88.35-1.31,1.77-3.7,1.24-6.99-1.75-9.85-.16-.18-.29-.37-.41-.58-.1-.22-.14-.45-.15-.7.06-.32.15-.68.44-.8,3.44-1.43,6.72-3.29,10.41-4.1Z"/>
  <path class="cls-11" d="m424.58,286.92c1.48-3.27.92-6.39-.72-9.41-1.38-2.55-3.26-4.72-5.2-6.84-5.9-6.45-12.61-11.97-19.61-17.17-.63-.46-1.38-.79-1.94-1.77,8.71-7.9,18.23-14.5,29.68-18.76-.28,2.71-.46,5.14.19,7.53.67,2.44,2.02,4.49,3.47,6.5.53,1.16.91,2.36,1.29,3.58,1.32,4.26,4.43,6.97,8.34,8.71,4.63,2.05,9.54,3,14.6,3.45,13.52,1.18,26.7-1,39.84-3.74.78-.16,1.54-.42,2.35-.3.23.05.44.16.62.33.21.35.07.62-.19.85-.15.13-.31.25-.48.37-.15.12-.31.23-.46.35-.15.12-.31.24-.46.35-.31.25-.58.55-.86.84-3.01,2.58-6.45,4.69-8.66,8.15-2.02,3.15-3.05,6.3-.87,9.81,1.41,2.27,3.85,2.67,6.06,3.51.81.37,1.47.94,2.13,1.54,2.29,2.09,5.03,2.68,8.01,2.26,1.97-.27,3.96-.44,5.92-.77.57-.03,1.14-.03,1.7-.19.22-.06.44-.08.67-.09.47.03.89.14,1.08.63,0,.23-.09.43-.24.6-.22.26-.46.49-.7.72-7.54,5.06-13.52,11.53-17.99,19.44-.56.99-.78,2.52-2.45,2.53-1.54-2.68-2.38-5.71-4.49-8.11-3.33-3.8-7.33-5.92-12.44-6.2-5.71-.31-10.86,1.46-15.93,3.68-8.49,3.72-15.88,9.11-22.81,15.21-4.46,3.92-8.35,8.32-12.07,12.91-.46.57-.77,1.72-1.95,1-.75-2.42-.33-4.91-.36-7.36-.07-6.05-1.17-11.88-3.39-17.5-1-2.55-2.56-4.77-4.01-7.05-.13-.23-.21-.48-.27-.73,0-.13,0-.26-.01-.38.46-1,1.41-.9,2.25-.94,4.62-.21,8.34-1.77,9.92-6.56v-.02c.29-.25.18-.69.46-.93Z"/>
  <path class="cls-5" d="m643.33,358.11c-1.13-3.01-1.35-6.19-1.69-9.33-.61-5.54-.85-11.1-.51-16.67.03-.55,0-1.12.29-1.63,2.94.2,4.35-1.4,5.36-4.01,3.75-9.59,7.96-18.99,12.17-28.38.62-1.39,1.08-2.84,1.35-4.34.52-2.88-.39-4.49-3.14-5.63-.51-.21-1.09-.29-1.41-.82,1.03-2.24,3.08-3.15,5.2-3.83,1.6-.51,2.74.15,3.47,1.74.68,1.48.81,3.07.72,4.68-.15,2.64-.73,5.21-1.41,7.75-3.24,12.11-3.93,24.39-2.1,36.78.96,6.49,2.88,12.75,5.63,18.72,1.8,3.91,4.37,7.21,7.8,9.84,2.61,2.01,5.57,3.11,8.8,3.45,6.33.67,11.67-3.01,13.67-9.24.84-2.61.94-5.33,1.45-7.99.36-.24.81-.33,1.11-.07,1.63,1.44,3.76,1.94,5.57,3.03.04.15.04.3-.01.45-.32.44-.03,1.03-.35,1.47-2.32,10-6.29,19.25-12.63,27.4-2.88,3.7-6.28,6.83-10.47,8.98-4.4,2.26-9,3.15-13.86,1.57,1.69-2.3,1.29-4.5.02-6.89-1.4-2.65-3.29-4.9-5.14-7.19-4.84-6.03-8.59-12.66-11.27-19.91-.61-1.65-1.2-3.3-2.04-4.85-.66-1.23-1.44-2.4-3.07-2.23-1.77.19-2.14,1.64-2.61,3.04-.45,1.35.17,2.92-.91,4.12Z"/>
  <path class="cls-17" d="m686.63,264.76c.98,4.03.55,7.91-1.4,11.57-1.78,3.34-3.96,6.38-6.78,8.93-1.6,1.45-3.11,2.99-4.69,4.46-.56.52-1.07,1.19-2.01,1.28-.18-1.36-.32-2.7-.54-4.01-.29-1.67-.83-3.24-1.76-4.68-2.94-4.51-7.9-5.38-12.23-2.22-5.27,3.85-9.3,8.72-12.38,14.44-1.63,3.03-3.09,6.14-4.24,9.39-.44,1.24-1.13,1.92-2.41,2.35-8.94,3.02-18.08,3.85-27.43,2.86-.95-.1-1.91-.18-2.87-.19-.98-.02-1.62-.33-1.98-1.35-1.88-5.28-4.15-10.39-6.54-15.45-.71-1.51-.65-1.5.87-1.88,15.08-3.84,29.21-9.77,41.87-18.97.65-.47,1.27-.98,1.87-1.49.56-.48,1.11-1.03.72-1.85-.43-.92-1.15-.59-1.85-.33-.29.11-.62.09-.93.14,0-1.4,1.23-1.52,2.11-1.87,5.46-2.16,11.16-3.39,16.96-4.05,4.66-.53,9.31-1.1,14.05-.64,4.16.41,7.88,1.87,11.58,3.56Z"/>
  <path class="cls-10" d="m705.67,352.17c-2.01-.13-3.83-.71-5.28-2.18-.39-.39-.81-.74-1.4-.77-.11-3.83.37-7.64.23-11.49-.3-8.21-2.52-15.9-5.67-23.38-2.3-5.45-5.04-10.69-7.94-15.85-1.41-2.52-3.26-4.73-5.31-7.15,3.47-2.51,6.22-5.67,8.74-9.25,4.24,4.27,7.8,8.74,10.4,13.92,3.39,6.77,5.48,13.96,6.75,21.4,1.09,6.4,1.53,12.85,1.33,19.33-.16,5.18-.6,10.36-1.85,15.42Z"/>
  <path class="cls-17" d="m497.48,259.51c-.37-.45-.82-.36-1.31-.24-6.27,1.58-12.64,2.63-19.03,3.49-2.43.33-4.89.75-7.38.65-1.52-.06-3.02.26-4.53.35-4.55.26-9.08-.2-13.6-.69-3.6-.38-7.05-1.31-10.43-2.56-2.26-.84-4.32-2.03-6.15-3.64-3-2.63-4.52-5.9-4.61-9.87,5.32,5.3,12.11,7.14,19.23,8.21,12.46,1.89,24.86.94,37.19-1.07,14.04-2.3,27.83-5.64,41.27-10.37,5.95-2.1,11.84-4.35,17.58-6.96,1.3-.59,2.2-.52,3.16.51,1.25,1.34,2.73,2.44,3.82,3.93-2.77,1.59-5.7,2.8-8.71,3.87-.79.28-1.79.34-1.89,1.5-.43.33-.92.31-1.36.1-4.71-2.22-9.33-.99-13.99.28-9.55,2.6-18.31,6.99-26.86,11.86-.73.42-1.42,1.1-2.41.64Z"/>
  <path class="cls-11" d="m686.63,264.76c-.16.63-.42,1.02-1.12.51-2.31-1.67-4.92-2.58-7.71-2.97-2.97-.42-5.91-.73-8.97-.52-4.52.32-9.01.81-13.46,1.61-4.39.79-8.65,2.04-12.78,3.73-.31.13-.55.31-.66.63-6.23,3.44-12.68,6.41-19.19,9.25-7.34,3.21-14.99,5.48-22.79,7.23-4.19.94-4.23.87-6.32-2.89-.88-1.58-2.01-3.04-2.56-4.75,14.31.02,27.66-3.78,40.69-9.05,7.55-3.06,15.08-6.15,22.63-9.22,4.78-1.94,9.76-3.05,14.9-3.38,4.3-.27,8.44.36,12.22,2.66,2.75,1.67,4.58,3.93,5.12,7.15Z"/>
  <path class="cls-17" d="m359.27,284.45c-3.67,6.27-7.26,12.59-10.37,19.16-.48,1.01-.98,1.35-2.19,1.18-9.63-1.38-18.31-4.98-26.01-10.9-2.28-1.75-4.36-3.75-5.61-6.43,2.3-1.07,4.76-.47,7.01-.19,6.37.81,12.59-.18,18.85-.83,4.39-.45,8.68-1.35,12.91-2.59,1.84-.54,3.76-.99,5.41.6Z"/>
  <path class="cls-11" d="m359.27,284.45c-2.5-.78-4.88-.16-7.24.63-3.73,1.25-7.61,1.72-11.48,2.16-4.9.56-9.81,1.28-14.77,1.02-3.57-.19-7.14-.53-10.71-.8-3.41-4.46-3.3-9.16-.82-13.93,1.5-2.87,3.39-3.7,6.55-2.98,5.09,1.15,9.8,3.38,14.52,5.52,4.81,2.19,9.7,4.13,14.86,5.29,3.19.71,6.43,1.14,9.7,1.38.29.8-.32,1.2-.64,1.71Z"/>
  <path class="cls-14" d="m643.33,358.11c.27-1.49-.08-3.02.39-4.5.22-.68.36-1.38.78-1.99,1.36-2.01,3.73-2.11,5.18-.17.86,1.16,1.4,2.5,1.87,3.85,2.15,6.2,4.99,12.06,8.61,17.54,1.54,2.33,3.26,4.53,5.09,6.62,1.97,2.25,3.41,4.8,4.59,7.51,1,2.31.59,3.63-1.49,5.06-3.2-.6-5.97-2.11-8.55-4.02-1.93-1.43-3.63-3.1-5.14-4.97-5.92-7.33-9.65-15.66-11.32-24.93Z"/>
  <path class="cls-12" d="m437.09,229.84c.68-.41,1.33-.89,2.05-1.22,1.72-.8,4-.37,5.44,1.32,2.58,3.01,6,4.44,9.64,5.46,4.22,1.18,8.48,2.21,12.72,3.32,1.02.27,2.06.25,3.09.26.73,0,1.44.09,2.1.41,1.79.88,2.17,2.6.9,4.12-1.36,1.62-3.17,2.35-5.23,2.58-.77.09-1.61-.2-2.3.4-7.01.25-13.87-.65-20.57-2.72-2.39-.74-4.55-1.94-6.4-3.65-2.42-2.24-3.67-6.05-1.89-9.39.24-.27.15-.69.45-.92v.03Z"/>
  <path class="cls-14" d="m655.74,287.31c4.45.51,6.05,2.86,5.01,7.28-.72,3.05-2.11,5.84-3.42,8.65-3.61,7.73-6.74,15.66-10.07,23.5-.31.73-.62,1.47-1,2.17-1.28,2.35-2.32,2.68-4.85,1.57.18-7.72,1.66-15.23,3.93-22.58,2.06-6.68,4.98-12.96,8.94-18.73.45-.65.79-1.39,1.47-1.87Z"/>
  <path class="cls-4" d="m635.19,327.18c-3.57-.01-7.13-.02-10.68-.51-5.03-.69-9.67-2.38-13.78-5.25-.71.34-.25.94-.52,1.3-.61-2.68-1.21-5.35-1.85-8.17,2.11-.13,4.01.5,5.94.74,5.61.72,11.11.08,16.61-.87,1.8-.31,3.59-.7,5.38-1.05.94-.19,1.39.08,1.1,1.12-1.15,4.15-1.53,8.44-2.21,12.68Z"/>
  <path class="cls-17" d="m424.12,287.88c-.27,3.53-2.5,5.96-6.23,6.66-1.38.26-2.77.61-4.21.47-.54-.05-1.12-.11-1.51.43-1.05.38-1.35-.6-1.88-1.08-4.33-3.9-9.26-6.1-15.21-5.52-.79.08-1.61.16-2.2-.57.4-.55,1.18-.3,1.83-.8-4.99-3.39-8.75-7.79-12.13-12.57-.79-1.12-1.43-2.31-1.99-3.54-.29-.64-.7-.49-1.16-.4.31-.95,1.08-1.49,1.8-2.12,3.82,3.28,7.53,6.53,11.3,9.71,4.77,4.02,9.95,7.44,15.56,10.18,1.36.66,2.77,1.21,4.21,1.67,4.43,1.43,8.48,1.14,11.81-2.54Z"/>
  <path class="cls-1" d="m637.06,360.82c.21-.21.43-.41.64-.62.49.37.39.95.5,1.46.13.49-.09.63-.54.52-.19-.46-.66-.79-.6-1.36Z"/>
  <path class="cls-2" d="m637.66,362.18c.18-.17.36-.34.54-.52.45.5.55,1.04.21,1.66-.47-.27-.66-.67-.75-1.14Z"/>
  <path class="cls-10" d="m705.3,354.09c-.15-.55-.11-1.06.35-1.47.15.56.07,1.05-.35,1.47Z"/>
  <path class="cls-17" d="m424.58,286.92c.09.43-.03.75-.45.93-.09-.43.07-.73.45-.93Z"/>
  <path class="cls-18" d="m437.1,229.81c.07.42-.06.73-.45.92-.07-.41.1-.71.45-.92Z"/>
  <path class="cls-14" d="m420.32,328.58c2.87-4.03,6.1-7.79,9.66-11.19,7.99-7.61,16.62-14.4,26.88-18.8,5.3-2.28,10.7-4.11,16.63-3.59,4.86.43,8.81,2.52,11.97,6.19,2.22,2.59,3.66,5.58,4.47,8.88.42.83,0,1.58-.31,2.29-3.39,7.72-5.31,15.84-5.24,24.21.14,16.71,5.03,31.6,18.87,42.17,13.9,10.63,33.85,9.52,46.93-2.14,2.47-2.2,4.7-4.55,6.64-7.2.33-.45.68-.89.92-1.4.43-.9.76-1.9-.16-2.63-1-.8-1.81-.05-2.46.67-2.35,2.63-4.87,5.07-7.66,7.23-4.6,3.57-9.6,6.54-15.31,7.68-12.62,2.53-23.01-1.65-31.13-11.47-7.38-8.92-10.5-19.41-10.86-30.84-.37-12.06,2.34-23.35,8.68-33.64,5.97-9.68,14.37-16.23,25.64-18.62,9.39-1.99,17.89.16,25.57,5.88,2.68,2,5,4.47,8.01,6.03,2.07,1.95,2.8,4.63,3.73,7.15,1.78,4.8,2.79,9.78,3.43,14.87.72,5.75.62,11.51.28,17.23-.54,9.03-2.4,17.84-5.9,26.25-.06.13,0,.31,0,.61,1.56.3,3.05-.36,4.58-.51,8.85-.85,17.18.5,24.59,5.74,4.76,3.37,5.87,8.15,4.92,13.56-.75,4.27-2.93,7.95-5.51,11.32-9.42,12.33-21.3,21.45-35.76,27.22-12.5,4.99-25.5,8.19-38.64,10.84-5.92,1.2-11.95,1.87-17.96,2.64-5.14.65-10.29,1.08-15.43,1.73-2.13.27-4.3.29-6.44.43-3.02.2-6.05.43-9.07.64-8.94.64-17.89.62-26.83.39-5.33-.14-10.64-.7-15.95-1.29-6.9-.77-13.73-1.88-20.44-3.65-7.2-1.89-14.1-4.6-20.92-7.55-5.93-2.56-11.87-5.12-17.85-7.58-7.14-2.93-13.83-6.65-19.86-11.45-3.24-2.58-6.14-5.58-8.35-9.18-5.67-9.23.13-19.82,7.69-22.11,2.27-.69,4.57-.64,6.86-.21.48.09.93.2,1.42.11,1.16.43,1.54,1.56,2.15,2.47,5.71,8.59,13.61,13.21,24.03,13.34,10.91.13,20.04-3.92,27.65-11.62,1.98-2,2.57-1.86,3.4.89,1.77,5.89,3.55,11.77,6.43,17.25,1.01,1.92,2.22,3.7,3.62,5.34.73.86,1.7,1.83,2.85,1.2,1.28-.7.61-2.03.22-3.01-2.83-7.13-5.22-14.41-7.02-21.87-1.48-6.14-2.69-12.32-3.36-18.6-.15-1.43-.2-2.87.02-4.3.14-.91.53-1.58,1.6-.85.42.4.6.93.85,1.43,1.33,2.65,3.31,3.86,6.22,3.32,9.51-1.77,16.4-7.12,20.68-15.77,1.18-2.38,1.04-5.02.51-7.52-.38-1.79.23-2.55,1.84-2.87,6.47-.22,12.93-.45,19.39.15,1.36.13,2.71.21,4.07.06,1.19-.14,2.22-.59,2.4-1.93.18-1.35-.76-2.01-1.82-2.52-.58-.28-1.21-.42-1.83-.55-13.5-2.71-26.96-2.71-40.38.51-.93.22-1.86.57-2.83.44-1.18-.16-1.77-.72-1.02-1.94Z"/>
  <path class="cls-9" d="m420.32,328.58c-.14,1.72-.13,1.76,1.5,1.32,10.36-2.77,20.9-3.46,31.55-2.7,4.29.31,8.52,1.22,12.76,1.95.39.07.77.22,1.12.39,1.44.7,2.15,1.87,1.95,3.23-.19,1.31-1.26,2.37-2.76,2.58-.78.11-1.6.12-2.38.03-7.48-.93-14.97-.45-22.47-.4-.89.06-1.62.63-2.46.8-1.17.24-1.6.88-1.47,2.02.36,3.14-1.08,5.46-3.23,7.58-4.53,4.47-9.62,8.06-15.52,10.45-2.16.87-4.42,1.28-6.68.2-.85-.52-1.32-.46-1.23.71.35,4.94.86,9.86,1.87,14.72,2.09,10.09,4.63,20.05,8.77,29.54.35.8.65,1.63.62,2.54-.05,1.66-1.31,2.48-2.79,1.74-.63-.31-1.16-.84-1.67-1.34-1.8-1.75-3.05-3.88-4.2-6.08-2.83-5.41-4.62-11.2-6.27-17.03-.21-.74-.42-1.47-.71-2.5-.84.9-1.45,1.61-2.13,2.25-9.98,9.51-21.62,13.72-35.28,10.38-7.89-1.93-13.77-6.83-17.71-13.98-.27-.49-.55-.97-.83-1.45-.85-2.46-1.89-4.85-2.02-7.5-.06-1.19-.16-2.38.7-3.38,1.28-.86,1.9.04,2.44.96.61,1.04.88,2.22,1.26,3.36,3.05,9.18,9.28,15.15,18.7,17.07,7.99,1.63,15.73.52,22.54-4.6,3.55-2.66,6.78-5.58,9.12-9.39.11-.2.29-.35.43-.54-.21.09-.31.29-.45.47-11.6,10.95-29.07,9.33-37.52-4.58-7.92-13.03-8-26.83-2.96-40.85,2.67-7.43,7.25-13.66,13.16-18.89.83-.74,1.77-1.37,2.76-1.91,2.79-1.51,3.18-1.39,4.68,1.46,2.89,5.51,10.69,5.77,14.08.47,1.71-2.68,2.26-2.81,4.74-.84,4.1,3.25,7.03,7.41,9.02,12.22.94,2.28,2.09,4.5,2.43,7,.04.45.02.9.02,1.25.05-.35.02-.8,0-1.24-.66-2.92-.22-5.88-.39-8.82-.35-5.83-1.83-11.34-5.33-16.11-2.7-3.69-6.48-5.56-11.01-5.92-9.15-.74-16.78,2.98-23.83,8.27-3,2.25-5.81,4.73-8.72,7.09-.96.78-2.12,2.06-3.33.18-.5-1.15.11-1.98.79-2.8,1.78-2.17,3.7-4.19,5.78-6.07,3.93-3.55,8.2-6.61,12.8-9.24,3.85-2.2,7.94-3.73,12.34-4.38,1.98.25,3.92-.36,5.95-.08,5.06.69,9.23,2.89,12.65,6.62.21.23.46.42.69.63,0,0,.03.03.03.03.05.24.22.38.42.51,5.13,6.64,6.94,14.41,7.65,22.55.29,3.34.06,6.69.05,10.04Z"/>
  <path class="cls-14" d="m361.17,310.76c1.18.89,2.07.23,2.95-.55,2.81-2.48,5.66-4.92,8.64-7.2,4.6-3.53,9.6-6.26,15.24-7.74,2.8-.74,5.62-1.07,8.52-.84,6.44.52,11.07,3.73,14.03,9.39,1.87,3.57,2.93,7.43,3.33,11.42.36,3.65.52,7.32.12,10.99-.15.22-.31.23-.47.01-1.21-3.03-2.32-6.11-3.79-9.03-1.96-3.9-4.43-7.39-8-10-.76-.55-1.48-1.19-2.57-1.42-1.41,4.3-4.39,6.57-8.95,6.36-4.21-.19-6.76-2.5-8.21-7.08-.87-.15-1.5.42-2.18.79-2.48,1.35-4.61,3.14-6.51,5.22-8.99,9.82-13.38,21.37-13.11,34.69.15,7.5,1.94,14.53,5.88,20.94,3.2,5.2,7.5,9.12,13.48,10.85,7.48,2.16,14.36.69,20.67-3.72,1.11-.78,2.13-1.68,3.19-2.52.49-.13.7.05.61.55-6.39,9.97-15.2,15.76-27.32,15.48-11.51-.27-20.34-6.9-24.15-17.79-.39-1.13-.77-2.26-1.15-3.39-.34-1-.89-1.7-2.09-1.51-.99-4.06-1.32-8.21-.85-12.32.29-2.61.25-5.23.67-7.84.81-5.04,1.81-10.01,3.25-14.9,1.65-5.59,3.68-11.03,6.59-16.1.58-1.01.96-2.22,2.18-2.73Z"/>
  <path class="cls-9" d="m497.48,259.51c3.8-2.16,7.65-4.24,11.53-6.26,6.34-3.3,13.03-5.64,19.87-7.53,4.44-1.23,8.95-1.43,13.21.91h0c.17.14.36.26.55.38,3.52,3.2,4.02,6,1.88,10.67-.32.21-.2.66-.47.9v.02c-.17,1.18-.91,1.99-1.7,2.81-4.24,4.34-9.23,7.65-14.62,10.32-8.75,4.32-17.66,8.29-27.07,10.95-3,.85-6.08,2.19-9.34.89-.7-.15-1.42-.25-2.1-.46-4.02-1.23-6.23-5.04-5.35-9.18.5-2.34,1.77-4.25,3.31-6.01,2.33-2.66,5.17-4.74,7.98-6.84.18-.38.68-.26.89-.59h0c.2-.12.33-.32.55-.4h0c.18-.36.69-.22.87-.57h0Z"/>
  <path class="cls-9" d="m558.07,298.3c-1.28.49-2.13-.27-2.97-1.03-1.84-1.66-3.72-3.27-5.73-4.72-10.21-7.36-21.07-8.07-32.41-3.03-7.06,3.14-12.71,8.08-16.76,14.6-10.15,16.39-12.4,33.84-6.03,52.14,2.91,8.36,7.91,15.35,15.49,20.16,8.72,5.53,17.93,6.21,27.47,2.24,6.4-2.66,11.71-6.81,16.36-11.86.65-.7,1.28-1.45,2.01-2.05.81-.67,1.76-.75,2.66-.11.9.65,1.06,1.58.76,2.56-.16.52-.47,1.01-.78,1.47-6.68,9.55-15.56,15.75-27.2,17.53-13.17,2.01-24.3-2.21-33.43-11.68-7.34-7.61-11.34-16.94-12.94-27.29-1.95-12.65-.39-24.85,5.15-36.46.1-.21.13-.46.2-.69.14-.18.33-.35.43-.55,4.6-9.11,11.16-16.48,19.63-22.16.18-.16.35-.34.6-.39.14.01.24-.04.31-.15.41-.79,1.19-1.11,1.91-1.52,3.2-1.73,6.5-3.1,10.22-3.13,7.97-1.4,15.56-.17,22.79,3.35,4.59,2.24,8.45,5.4,11.49,9.53.7.95,1.48,1.95.76,3.26Z"/>
  <path class="cls-17" d="m523.03,282.17c-1.19.7-2.56.75-3.84,1.12-2.22.64-4.26,1.69-6.39,2.55-.97.07-1.89.36-2.83.55-.15.02-.3.03-.45.05-.42.38-1.06.03-1.48.42-1.81.23-3.64.38-5.43.69-3.94.69-7.44.07-10.21-3.07-.31-.35-.72-.61-1.08-.91,4.87-.02,9.5-1.25,14-2.93,8.01-2.98,15.94-6.19,23.53-10.18,5.78-3.04,10.99-6.81,15.2-11.86,2.13,4.07.18,7.27-2.34,10.21-3.26,3.8-7.32,6.65-11.71,9-2.66,1.42-5.4,2.7-8.18,4.08.46.1.84.19,1.22.28Z"/>
  <path class="cls-17" d="m544.05,258.58c-.1-.44.08-.73.47-.9.08.43-.07.73-.47.9Z"/>
  <path class="cls-17" d="m542.65,247.01c-.3.04-.48-.08-.55-.38.3-.05.48.09.55.38Z"/>
  <path class="cls-3" d="m509.97,286.4c.88-.53,1.72-1.24,2.83-.55-.61.38-1.16.85-1.9.98-.22-.34-.58-.37-.93-.42Z"/>
  <path class="cls-3" d="m508.05,286.86c.39-.52.93-.46,1.48-.42-.38.52-.93.47-1.48.42Z"/>
  <path class="cls-17" d="m497.47,259.52c-.14.42-.44.6-.87.58.13-.43.41-.65.87-.58Z"/>
  <path class="cls-17" d="m496.04,260.48c-.16.4-.45.6-.89.59.13-.44.43-.63.89-.59Z"/>
  <path class="cls-3" d="m510.59,286.97c-.1.29-.31.41-.6.39.11-.27.3-.42.6-.39Z"/>
  <path class="cls-17" d="m412.61,295.99c-.27-.06-.42-.22-.42-.51.28.05.42.22.42.51Z"/>
  <path class="cls-17" d="m496.6,260.09c-.07.3-.25.42-.55.39.07-.29.24-.44.55-.39Z"/>
  <path class="cls-9" d="m520.03,296.98c2.14,4.93,5.3,6.82,10.19,6.23,4.75-.57,7.46-3.27,8.45-8.42.84-.32,1.52.23,2.21.54,6.05,2.7,10.57,7.11,13.8,12.82,4.83,8.51,6.65,17.73,5.96,27.44-.51,7.09-2.3,13.84-5.97,20.01-1.81,3.04-3.99,5.79-6.66,8.12-7.04,6.13-15.07,7.27-23.74,4.46-4.89-1.59-8.94-4.55-12.17-8.58-5.68-7.08-8.6-15.24-9.27-24.22-.81-11.02,2.07-21.02,8.48-30.02,2.34-3.29,5.11-6.12,8.73-8.37Z"/>
  <path class="cls-17" d="m412.22,356.03c3.9.42,7.37-.78,10.67-2.72,3.79-2.22,7.38-4.7,10.59-7.72,2.93-2.75,4.77-5.8,3.02-10.08,1.85-.16,3.42-.76,5.09-.54-.41.36-1.11.37-.73,1.37,1.36,3.59.82,7.12-1.09,10.35-4.43,7.5-10.81,12.45-19.41,14.33-.47.1-.94.17-1.42.21-3.82.25-5.91-1.36-6.72-5.19Z"/>
  <path class="cls-8" d="m466.41,407.37c1.15.09,2.15.56,2.7,1.64.59,1.17.43,2.32-.37,3.36-.5.65-1.18,1.06-1.89,1.43-4.58,2.44-9.47,4.13-14.35,5.84-.95.33-1.99.56-3.05.32-1.28-.29-2.18-.96-2.48-2.27-.31-1.33.22-2.36,1.29-3.09.58-.4,1.25-.69,1.91-.96,4.56-1.87,9.13-3.73,13.69-5.59.81-.33,1.62-.68,2.56-.68Z"/>
  <path class="cls-7" d="m366.02,351.68c-.4-7.71,7.66-11.89,14.44-8.93,9.31,4.06,11.13,17.34,3.26,23.76-4.17,3.4-9.77,2.9-13.19-1.4-2.97-3.73-4.47-8.07-4.51-13.42Z"/>
  <path class="cls-6" d="m404.05,371.87c-.2-.18-.41-.37-.61-.55.17-.24.32-.51.52-.72.2-.2.47-.33.78-.54.29.89-.19,1.35-.7,1.81Z"/>
  <path class="cls-13" d="m413.54,326.24c.16-.02.31-.02.47-.01.17.4.1.77-.18,1.1-.31-.31-.39-.68-.29-1.09Z"/>
  <path class="cls-7" d="m535.56,351.68c.12,8.55-8.09,12.38-15.05,9.38-.82-.35-1.48-.94-2.12-1.55-3.47-3.32-5.94-7.29-7.66-11.76-.59-1.52-.77-3.08-.41-4.7,1.92-8.65,8.49-10.95,15.82-7.9,1.94.81,3.48,2.24,4.78,3.92,2.83,3.64,4.65,8.55,4.64,12.61Z"/>
  <path class="cls-15" d="m539.74,333.55c2.19.02,4.21,1.97,4.21,4.05,0,2.08-1.74,3.71-3.88,3.64-2.21-.07-3.96-1.99-3.88-4.28.06-1.95,1.61-3.43,3.55-3.42Z"/>
</svg>