<?xml version="1.0" encoding="UTF-8"?>
<svg id="_图层_1" data-name="图层 1" xmlns="http://www.w3.org/2000/svg" viewBox="0 0 960 960">
  <defs>
    <style>
      .cls-1 {
        fill: #a96963;
      }

      .cls-1, .cls-2, .cls-3, .cls-4, .cls-5, .cls-6, .cls-7, .cls-8, .cls-9, .cls-10, .cls-11, .cls-12, .cls-13, .cls-14, .cls-15, .cls-16, .cls-17 {
        stroke-width: 0px;
      }

      .cls-2 {
        fill: #020202;
      }

      .cls-3 {
        fill: #f7b9a0;
      }

      .cls-4 {
        fill: #f36054;
      }

      .cls-6 {
        fill: #466af6;
      }

      .cls-7 {
        fill: #8b3f38;
      }

      .cls-8 {
        fill: #0e0a09;
      }

      .cls-9 {
        fill: #fff;
      }

      .cls-10 {
        fill: #b7ceff;
      }

      .cls-11 {
        fill: #322220;
      }

      .cls-12 {
        fill: #aa6962;
      }

      .cls-13 {
        fill: #454795;
      }

      .cls-14 {
        fill: #b16b1d;
      }

      .cls-15 {
        fill: #ffd741;
      }

      .cls-16 {
        fill: #020101;
      }

      .cls-17 {
        fill: #5a7dff;
      }
    </style>
  </defs>
  <path class="cls-5" d="m710.77,269.19c-1.5-8.21-4.69-15.74-9.35-22.64-8.65-12.83-19.75-22.76-34.32-28.45-5.56-2.17-11.33-3.35-17.34-2.85-2.62.22-2.62.27-3.51-2.36-1.1-3.26-2.97-6.01-5.51-8.29-4.8-4.32-11.46-4.99-17.4-1.81-3.6,1.93-6.39,4.78-8.85,7.95-3.69,4.75-6.79,9.87-9.07,15.45-1.81,4.43-3.43,8.95-5.29,13.36-3.66,8.64-8.09,16.84-14.26,24-.59.69-1.1,1.53-2.09,1.88-8.49-12.13-17.22-23.89-29.47-32.6.66-.41,1.2-.75,1.74-1.08,2.95-1.77,5.81-3.66,8.56-5.73,1.31-.98,2.06-2.2,1.9-3.89-.15-1.96-1.46-2.48-3.15-2.5-1.15-.02-2.19.42-3.22.85-5.3,2.22-10.65,4.34-15.82,6.84-2.12,1.03-4.02,1.11-6.16.15-4.02-1.79-8.24-3.09-12.59-3.75-5.47-.82-10.82-.58-15.65,2.69-4.43,3-6.42,6.56-3.49,11.76.9,1.59.37,2.17-1.25,2.58-5.73,1.47-11.54,2.51-17.37,3.42-.32.06-.61.2-.93.23-10.24,1.15-20.48,2.26-30.79,1.03-5.52-.66-10.9-1.81-15.58-5.03-3.47-2.39-4.46-5.38-3.22-9.39.43-1.38,1-2.69,1.74-3.93,1.89-3.18,4.21-6.02,6.74-8.7,1.51-2.23,3.53-4,5.37-5.93.82-.86,1.67-1.75.95-3.1-1.28-1.13-2.43-.28-3.51.32-6.2,3.43-11.81,7.65-16.15,13.3-1.46,1.91-2.99,2.91-5.38,3.32-6.18,1.06-11.89,3.56-17.37,6.56-1.07.58-2.1,1.04-3.37.98-3.2-.15-6.37.27-9.53.78-8.13,1.31-15.45,4.46-21.86,9.64-3.88,3.13-6.8,6.94-7.97,11.91-.17,1.82-.68,3.65.13,5.45.19.46.28.95.56,1.37.58.89,1.44,1.48,2.26,2.11,1.29.98,1.1,1.91-.14,3-.86-1.59-1.3-3.2-1.96-4.7-.32-.47-.52-.98-.66-1.53-.47-.9-.43-1.98-1.06-2.82-.36-1.72-.75-3.43-1.06-5.16-1-5.58-1.48-11.25-2.79-16.78-.59-2.5-1.31-4.95-2.82-7.07-2.58-3.65-6.75-4.75-10.8-2.86-1.98.92-3.65,2.28-5.18,3.83-2.49,2.53-4.43,5.46-6.09,8.57-4.43,8.29-6.93,17.16-7.6,26.52-1.05,14.84,3.58,27.68,13.75,38.53.98,1.04,2.58,1.79,3,2.99.43,1.23-1.02,2.54-1.44,3.89-.02.08-.06.15-.08.22-2.99,8.34-6.07,16.66-8.55,25.17-.37,1.27-1.11,1.96-2.16,2.66-11.15,7.49-20.26,16.84-25.99,29.15-4.33,9.29-5.46,18.99-3.13,29,2.21,9.48,6.96,17.63,13.41,24.83,5.9,6.59,12.68,12.16,20.02,17.06,1.13.75,2.23,1.54,3.35,2.32.25.1.44.26.56.5h-.01c3.29,2.72,7.16,4.51,10.96,6.33,14.99,7.15,30.68,12.26,46.89,15.88,21.99,4.9,44.26,7.23,66.75,7.67,4.31.08,8.62-.29,12.92-.37,9.92-.18,19.78-.99,29.6-2.15,22.29-2.65,44.12-7.41,65.22-15.18,9.67-3.56,19.24-7.4,27.88-13.17,3.56-2.29,7.18-4.49,10.66-6.9,8.67-6.01,16.44-12.98,22.14-21.97,6-9.48,9.79-19.56,7.84-31.07-1.02-6.07-2.13-12.12-4.91-17.68-3.96-7.93-9.71-14.41-16.65-19.84-3.02-2.36-6.2-4.51-9.32-6.74-.8-.57-1.36-1.09-1.3-2.3.33-6.94-.99-13.67-2.98-20.28-.06-1.02.07-2.05-.48-3.01-.93-1.63-.57-2.64,1.21-3.57,4.2-2.18,7.91-5.09,11.28-8.42,7.39-7.32,13.35-15.64,17.58-25.17,1.04-2.35,1.2-2.38,2.66-.5,4.68,6.03,10.01,11.37,16.25,15.79,9.8,6.93,20.35,11.77,32.67,11.13,5.49-.29,10.75-1.62,14.48-6.24,3.92-3.6,6.14-8.11,7.09-13.28.75-4.06.57-8.12-.16-12.16Zm-36.12,1.45c-13.42-7.09-24.31-16.67-30.84-30.99,3.01-.84,3.51-3.12,3.96-5.42.72.18,1.29.6,1.85,1.05,8.34,6.69,15.48,14.42,20.72,23.81,1.83,3.27,3.1,6.8,4.46,10.29.17.44.38.9-.15,1.27Z"/>
  <path class="cls-13" d="m342.5,442.38c1.52.09,2.57,1.19,3.81,1.87,10.2,5.57,20.87,10.01,31.91,13.63,12.16,3.99,24.61,6.77,37.2,8.98,7.78,1.37,15.62,2.37,23.47,3.18,5,.52,10.03.77,15.05,1.07,3.35.2,6.7.36,10.05.4,12.87.13,25.7-.48,38.51-1.7,16.16-1.54,32.11-4.27,47.82-8.33,17.84-4.61,35.12-10.75,51.28-19.77.35-.2.7-.38,1.12-.3-.34.8-1.13,1.1-1.75,1.56-24.85,18.42-52.41,31.09-82.33,38.72-18.03,4.59-36.35,7.1-54.98,7.39-21.18.33-41.94-2.14-62.1-8.83-17.22-5.72-33.18-13.78-47.12-25.55-3.98-3.36-7.63-7.05-11.08-10.94-.36-.4-.88-.73-.85-1.38Z"/>
  <path class="cls-17" d="m445.59,217.68c1.47-2.06,3.47-3.62,5.16-5.48.75-.82,1.52-1.61,1.35-2.86,4.25-2.02,8.62-1.14,12.95-.46,9.07,1.43,18.19,2.48,27.34,3.24,10.59.88,21.19,1.54,31.8,1.99,7.74.33,15.47.84,23.22.96,3.11.05,6.19.29,9.3-.16,2.49-.36,4.95.2,7.26,1.16,2.59,1.08,3.47,3.29,2.53,6.05-1.61-2.16-2.52-2.48-5.09-1.44-5.91,2.39-11.82,4.79-17.57,7.56-1.74.84-3.25,1.04-5.15.14-4.33-2.05-8.97-3.38-13.7-4.11-5.95-.91-11.63-.25-16.42,3.94-3.25,2.84-3.71,4.89-1.98,8.84.49,1.13.63,2.43,2.07,3.28-2.89,1.04-5.53,1.61-8.15,2.17-4.12.89-8.24,1.83-12.46,2.16-5.5.25-10.96-.35-16.35-1.28-6.5-1.12-12.49-3.75-18.15-7.11-1.65-.98-2.62-2.55-3.51-4.15-2.5-4.49-4.51-9.15-4.45-14.44Z"/>
  <path class="cls-13" d="m608.21,314.62c-.7-1.91-1.41-3.83-2.11-5.73,12.48-6.17,20.79-16.34,27.72-27.87,1.48-2.47,2.72-5.06,3.87-7.7.31-.71.49-1.52,1.14-2.07.8.33,1.15,1.08,1.62,1.71,6.79,9,15.07,16.3,25.05,21.56,6.42,3.38,13.22,5.59,20.56,5.86,6.64.25,12.63-1.44,17.78-5.74-1.19,2.7-2.29,5.44-3.59,8.09-4.77,9.74-15.17,13.92-25.41,10.23-6.02-2.17-10.82-6.08-14.95-10.88-4.13-4.81-7.73-9.97-10.45-15.72-.14-.29-.33-.54-.48-.79-.69-.05-.79.5-.99.89-2.29,4.3-5.43,7.91-9.19,10.95-6.23,5.05-13.02,9.26-20.19,12.83-2.72,1.35-5.62,2.28-8.53,3.17-.72.22-1.64.21-1.86,1.22Z"/>
  <path class="cls-13" d="m341.95,441.89c.34,0,.56.13.56.5-.37.04-.52-.17-.56-.5Z"/>
  <path class="cls-3" d="m568.04,260.95c2.64,3.62,4.94,7.46,7.14,11.36,9.9,17.51,18.34,35.67,24.61,54.8.75,2.28,1.45,4.59,1.79,6.96.42,3.02,2.02,4.96,4.57,6.6,9.94,6.43,17.6,15.03,22.99,25.53,6.27,12.22,5.58,24.36-1.21,36.19-4.11,7.15-9.7,13.07-15.9,18.44-11.68,10.13-25.1,17.28-39.39,22.93-16.43,6.49-33.45,10.74-50.87,13.46-18.13,2.84-36.38,4.07-54.72,3.77-23.25-.39-46.27-2.72-68.84-8.58-16.62-4.31-32.7-10-47.59-18.71-7.89-4.61-15.43-9.7-21.66-16.51-2.32-2.54-4.48-5.22-6.35-8.11-8.36-12.92-8.79-26.21-1.7-39.77,2.88-5.5,6.73-10.3,11.13-14.65,2.5-2.47,5.12-4.82,7.76-7.15,2.48-2.2,4.01-4.89,4.83-8.09,2.92-11.52,7.66-22.36,12.8-33.02,6.76-14.02,15.02-27.11,24.93-39.14.81-.99,1.68-1.92,2.53-2.88.72-.53,1.5-.97,2.39-1.04,5.33-.42,10.58-1.55,15.96-1.62,3.43-.05,6.86-.4,10.18-1.41,4.81-1.47,8.94-5.37,8.64-10.47-.07-1.24.38-2.51.53-3.77.44-3.85-1.13-6.83-4.24-9.26,2.65-1.65,5.37-2.65,8.49-3.85-.42,2.87-.52,5.44.25,7.96.76,2.5,2.23,4.57,3.81,6.59,1.78,4.05,3.89,7.84,7.47,10.66,4.94,3.88,10.63,5.87,16.77,6.44,23.08,2.14,44.95-2.49,65.84-12.23.65-.3,1.32-.58,1.95-.92,1.97-1.05,3.47-.6,5.11.94,6.72,6.32,14.48,10.75,23.77,12,5.25.7,10.41.7,14.71-3.17.43-.39.92-.65,1.51-.28Z"/>
  <path class="cls-3" d="m614.01,246.09c-1.76,5.89-3.92,11.63-6.67,17.14-3.05,6.1-6.57,11.88-11.04,17.05-.72.84-1.49,1.64-2.31,2.55-.68-.45-.88-1.06-1.16-1.58-1.63-3.02-3.22-6.07-4.88-9.07-.52-.94-.43-1.49.47-2.18,3.83-2.99,6.76-6.78,9.34-10.85,4.38-6.91,7.95-14.21,10.62-21.95,1.43-4.15,2.85-8.31,4.71-12.3,2.18-4.65,4.73-9.07,8.22-12.88,1.52-1.66,3.18-3.16,5.25-4.11,4.14-1.89,8.3-.93,11.25,2.53,1.6,1.88,2.55,4.05,3.04,6.43.78,3.77,1.17,7.57,1.02,11.42-.73.34-1-.34-1.41-.61-2.35-1.5-4.67-1.44-6.96.09-2.76,1.83-4.17,4.49-4.84,7.69-1.2,5.78-.65,11.43,1.03,17.03,1.18,3.92,2.75,7.67,4.78,11.21.74,1.28.87,2.44.56,3.86-.45,2.04-1,4.04-1.84,5.94-5.43,12.3-13.61,22.3-24.96,29.62-1.01.65-2.06,1.21-3.12,1.78-.74.4-1.01-.04-1.1-.71-.16-.84.17-1.55.56-2.26,7.05-12.94,10.49-26.99,12.66-41.42,1.09-7.25,1.69-14.56,2.38-21.86.17-1.84-.74-3.21-1.56-4.65-.09-.15-.17-.32-.25-.48,0,.02-.16-.13-.16-.13,0,0-.22.02-.21.03-.1.13-.18.26-.24.42-.09.26-.15.51-.2.78-.04.29-.09.57-.16.85-.04.19-.1.38-.16.57-.16.6-.16,1.23-.28,1.83-.26.84-.43,1.71-.97,2.44l.03-.04c-.39.6.15,1.43-.47,1.98l.02-.04c-.44.58.12,1.42-.49,1.96l.02-.03c-.47.57.14,1.43-.52,1.95Z"/>
  <path class="cls-15" d="m694.55,245.2c6.15,7.87,10.64,16.48,11.88,26.54.44,3.53.25,7.04-.75,10.45-2.01,6.85-6.59,10.94-13.57,12.36-5.31,1.08-10.49.35-15.6-1.22-20.01-6.15-38.46-25.72-43.43-46.06-.72-2.95-1.23-5.95-1.28-9-.04-2.54.94-4.69,2.86-6.34,1.77-1.53,2.92-1.31,4.01.69.8,1.47,1.48,2.93,1.29,4.75-.23,2.18.46,4.27,1.24,6.29,1.17,3.08,2.79,5.93,4.71,8.59,7.09,9.85,16.08,17.48,26.94,22.9,3.38,1.68,6.92,2.89,10.69,3.34,1.52.18,3.01.18,4.53-.1,5.02-.95,7.78-4.37,7.53-9.49-.14-2.83-.99-5.49-2.17-8.05-1.91-4.18-4.6-7.85-7.56-11.32-.57-.67-1.14-1.33-1.71-2-.08-.87.62-1.14,1.19-1.23,3.05-.48,6.06-1.35,9.21-1.11Z"/>
  <path class="cls-3" d="m335.29,266.71c.94-10.01,3.99-19.33,9.29-27.88,1.22-1.97,2.69-3.77,4.58-5.18,2.81-2.09,4.39-1.69,5.67,1.52,1.16,2.91,1.69,5.98,2.13,9.06,1.34,9.36,3.26,18.57,7.62,27.04,1.26,2.44.89,3.93-.67,6.07-3.94,5.42-7.12,11.34-10.41,17.18-1.12.97-2.09.26-3.02-.33-5.24-3.38-8.85-8.15-11.5-13.68-1.17-2.43-2.21-4.93-3.07-7.5-.68-2.05-1.08-4.14-.63-6.3Z"/>
  <path class="cls-12" d="m568.04,260.95c-.15.05-.35.05-.45.15-4.44,4.64-10.05,4.76-15.8,3.96-9.85-1.37-18.05-6.07-25.03-13.01-.82-.81-1.43-.93-2.48-.45-4.78,2.21-9.61,4.31-14.53,6.2-7.18,2.76-14.6,4.61-22.14,5.97-9.05,1.63-18.18,2.48-27.39,1.98-6.66-.37-13.18-1.36-19.04-4.86-3.84-2.29-7.06-5.19-9.07-9.29-.64-1.3-1.02-2.67-1.21-4.09,5.29,4.87,11.85,6.67,18.72,7.71,12.62,1.9,25.16.91,37.64-1.14,11.26-1.85,22.39-4.36,33.26-7.86,1.67-.54,2.93.02,4.29.71,6.33,3.22,12.42,6.89,18.66,10.29,2.59,1.42,5.24,2.74,8.28,2.91,4.83.26,8.04-1.64,10.14-6.02.17-.34.25-.75.8-1.01,1.76,2.61,3.74,5.09,5.33,7.85Z"/>
  <path class="cls-13" d="m647.78,234.21c.42-2.12.43-2.15,2.32-2.06,3.66.19,7.04,1.46,10.23,3.1,10.84,5.58,19.87,13.27,26.59,23.5,1.93,2.93,3.6,6.02,4.11,9.6.49,3.42-1.06,5.36-4.53,5.52-1.86.09-3.64-.36-5.41-.84-2.22-.6-4.37-1.4-6.44-2.41-4.75-14.54-13.86-25.89-25.78-35.18-.45-.35-.85-.72-1.1-1.24Z"/>
  <path class="cls-12" d="m617.93,232.68c.53.35.27,1.12.72,1.46,1.98,1.52,1.78,3.58,1.45,5.68-.42,2.68-.38,5.4-.67,8.09-1.21,11.26-2.79,22.43-5.89,33.35-1.91,6.7-4.32,13.18-7.55,19.36-.63,1.2-1.32,2.37-1.98,3.55-2.55-5.4-5.1-10.8-7.67-16.19-.34-.7-.13-1.13.33-1.67,8.79-10.35,14.02-22.53,18.06-35.31.24-.77.41-1.54.38-2.35.39-.64-.08-1.46.44-2.07.09-.1.1-.21.04-.33.39-.63-.08-1.45.44-2.06h0c.57-.71-.12-1.69.5-2.4v.02c.43-.75.13-1.57.21-2.35.04-.7.11-1.4.16-2.1.03-.37.09-.73.18-1.09.44-1.16-.06-2.55.86-3.6Z"/>
  <path class="cls-10" d="m445.59,217.68c1,1.02.68,2.42.92,3.62.92,4.53,2.84,8.59,5.29,12.46,1.19,1.88,3.14,2.7,4.95,3.63,3.9,2.01,8.02,3.54,12.21,4.82,3.52,1.08,7.23,1.01,10.85,1.48,2.36.31,4.74.61,7.14.56.36,0,.73.26,1.1.4-2.87.74-5.82.91-8.75,1.2-8.75.88-17.51,1.13-26.24-.21-3.64-.56-7.16-1.57-10.47-3.23-1.22-.61-2.36-1.33-3.42-2.18-2.66-2.09-3.51-4.84-2.91-8.09.31-1.66.91-3.22,1.76-4.68,2.08-3.61,4.56-6.91,7.57-9.8Z"/>
  <path class="cls-14" d="m694.55,245.2c-2.35.97-4.89.95-7.35,1.39-1.07.19-2.18.15-3.05.96-3.88-3.92-7.92-7.64-12.48-10.77-4.37-3-8.94-5.6-13.94-7.38-2.57-.91-5.19-1.63-7.95-1.53-1.14.04-1.56-.37-1.55-1.52.02-1.52-.09-3.04-.19-4.55-.11-1.61-.08-1.71,1.57-1.88,2.57-.27,5.11.06,7.63.52,8.68,1.59,16.28,5.56,23.25,10.81,5.32,4,10.12,8.55,14.05,13.96Z"/>
  <path class="cls-12" d="m422.59,246.06c.05,1.35.11,2.71.15,4.06.09,3.57-1.59,6.27-4.29,8.41-2.59,2.05-5.67,2.96-8.85,3.33-2.76.32-5.55.55-8.34.65-3.33.12-6.65.65-9.97,1.03-2.13.25-4.26.55-6.39.83,1.1-1.57,2.54-2.85,3.81-4.27.55-.62,1.27-.91,2.04-1.16,4.95-1.6,10.02-2.57,15.17-3.23,2.61-.34,5.21-.68,7.76-1.37,4.42-1.21,7.84-3.47,8.92-8.27Z"/>
  <path class="cls-12" d="m335.29,266.71c-.13,3.45,1.3,6.5,2.53,9.59,2.24,5.67,5.17,10.9,9.8,15.03,1.2,1.07,2.53,1.91,3.84,2.8.64.44,1.31.52,2.04.4-1.55,3.01-3.1,6.03-4.64,9.02-.27-.09-.46-.1-.54-.19-5.64-6.82-10.34-14.15-12.32-22.93-.92-4.06-1.11-8.2-1.06-12.35,0-.48.04-.96.35-1.36Z"/>
  <path class="cls-8" d="m617.05,239.51c-.1.79.05,1.64-.54,2.32-.01-.32-.06-.64-.02-.96.14-1.16-.29-1.18-1.07-.56,0-.98.17-1.93.57-2.83.56-.55,0-1.37.47-1.94h0c.39-.23.18-1,.87-.98.6.63.39,1.32.15,2.01-.02.3-.04.61-.06.91-.45.62-.03,1.39-.37,2.03Z"/>
  <path class="cls-8" d="m616.52,241.81c0,.84.07,1.69-.5,2.41.07-.82-.36-1.75.5-2.41Z"/>
  <path class="cls-8" d="m616.03,244.2c.04.72.06,1.45-.44,2.06-.02-.72-.32-1.5.44-2.06Z"/>
  <path class="cls-8" d="m614.98,242.25c0-.7-.03-1.4.47-1.98.06.71.35,1.48-.47,1.98Z"/>
  <path class="cls-8" d="m614.01,246.09c.01-.69.01-1.39.52-1.95.02.7.31,1.47-.52,1.95Z"/>
  <path class="cls-8" d="m614.51,244.17c0-.7-.02-1.39.49-1.96.03.7.32,1.47-.49,1.96Z"/>
  <path class="cls-8" d="m615.55,246.59c.03.73.06,1.45-.44,2.07-.02-.72-.31-1.5.44-2.07Z"/>
  <path class="cls-9" d="m597.44,381.34c-.39,6.4-3.31,11.91-6.27,17.37-3.46,6.37-8.23,11.73-13.6,16.53-3.81,3.41-8.27,5.93-12.54,8.7-1.41.92-2.92,1.61-4.48,2.22-.77.31-1.51.51-2.28.04.92-2.41,3.22-3.49,4.99-5,5.78-4.94,10.74-10.55,14.28-17.26,5.62-10.64,4.93-21.25-.99-31.55-3.13-5.44-7.64-9.55-13.04-12.77-10.49-6.25-21.83-9.62-33.97-10.73-14.8-1.35-29.35.29-43.8,3.18-20.53,4.11-41.17,7.6-61.75,11.42-8.72,1.61-17.55,2.44-26.45,2.27-6.71-.13-13.41.1-20.07,1-11.23,1.52-18.18,8.11-21.9,18.6-1.84,5.18-2.39,10.52-1.59,15.82.87,5.75,3.56,10.88,7.23,15.46,3.56,4.44,7.86,8.17,11.79,12.26.58.6,1.51,1,1.39,2.08-1.2.19-2.13-.45-3.09-.99-7-3.99-13-9.14-18.33-15.2-3.85-4.37-7.8-8.65-11.23-13.36-4.21-5.77-7.85-11.87-9.42-18.94-2.23-10.06-.19-19.09,6.58-27.03,2.15-2.52,4.66-4.56,7.23-6.58.47-.37.96-1.23,1.78-.46.05,2.92.2,3.06,2.69,1.63,6.7-3.86,14.13-5.07,21.62-5.63,7.65-.57,15.32-.22,22.9,1.21,3.44.65,3.61.94,3.79,4.34.19,3.52.83,6.97,1.54,10.42.16.76.28,1.6,1.29,1.96.88-.86.47-1.9.37-2.88-1.16-11.42-1.43-22.79,1.61-34,.63-2.32,1.36-4.61,2.71-6.62,1.15-1.72,1.92-1.76,2.94.05,1.1,1.95,3.04,2.76,4.67,4,2.1,2.76,4.86,3.62,8.22,2.99,8.94-1.67,14.95-7.26,19.7-14.58.67-1.03.58-2.31,1.22-3.33,1.12-.74,2.17-.12,3.2.22,10.02,3.34,18.56,9.16,26.54,15.9.97.82,1.83,1.8,3.07,2.24.71.25,1.44.27,2-.34.49-.54.41-1.2.17-1.81-.72-1.83-2.03-3.24-3.45-4.53-10-9.14-21.9-14.45-35.02-17.26-1.07-.23-2.25-.21-3.06-1.14-1.33-.79-2.8-.4-4.21-.48-1.17-.07-2.34-.01-3.55-.01.03-.86.67-1.16,1.09-1.59,5.37-5.46,11.03-10.57,17.28-15.05,7.42-5.32,15.7-8.39,24.68-9.59,7.88-1.05,15.72-.89,23.37,1.67,3.62,1.21,6.81,3.16,9.52,5.8,2.04,1.98,4.4,3.72,5.66,6.4.23.87-.39,1.32-.9,1.8-7.34,6.89-12.8,15.02-16.37,24.44-2.44,6.42-3.65,13.06-3.58,19.9.02,1.78-.33,3.04-1.96,3.97-1.46.83-2.98,1.87-2.37,3.93.4,1.35,2.28,1.76,4.69.9,6.8-2.42,13.78-4.07,20.94-4.94,13.85-1.68,27.54-.93,41.06,2.65,6.74,1.79,13.34,3.9,19.2,7.82,1.01.68,2.16.44,3.22.75.47-.83.76-1.47,2.01-.62,3.89,2.65,7.55,5.56,10.95,8.8.52.49,1.09.95,1.34,1.65-.17,1.98.62,3.39,2.19,4.68,3.42,2.8,5.07,6.72,6,10.91.45,2.05,1.3,4.12.59,6.31Z"/>
  <path class="cls-5" d="m374.37,430.98c-3.35-2.97-6.61-6.03-9.68-9.29-2.7-2.86-5.25-5.85-7.23-9.23-4.63-7.88-5.79-16.28-3.24-25.12.62-2.15,1.47-4.22,2.43-6.24,4.25-8.89,11.38-13.72,21.04-15.06,4.45-.62,8.92-.7,13.4-.77,7.91-.13,15.82-.16,23.7-1.09,7.07-.84,14.06-2.06,21.03-3.46,12.14-2.43,24.37-4.36,36.53-6.64,7.06-1.32,14.06-2.98,21.17-4.09,9.97-1.55,19.97-2.58,30.08-2.16,14.18.59,27.66,3.67,39.97,11.05,6.39,3.83,11.6,8.78,14.85,15.55,4.88,10.18,4.96,20.32-.55,30.34-2.84,5.16-6.5,9.67-10.72,13.75-2.82,2.72-5.83,5.23-8.87,7.7-15.97,11.62-33.85,18.69-53.16,22.4-8.57,1.64-17.22,2.48-25.92,2.97-10.37.59-20.76.77-31.14.69-10.95-.09-21.86-.99-32.66-2.89-15.22-2.68-29.02-8.54-41.03-18.39Z"/>
  <path class="cls-5" d="m413.99,323.41c-.2-.14-.37-.33-.59-.4-2.73-.86-4.53-2.62-5.21-5.64-1.44,1.6-2.14,3.35-2.79,5.12-2.19,5.91-3.07,12.06-3.33,18.32-.27,6.48-.1,12.95.8,19.38.09.63.1,1.28.1,1.91,0,.78-.23,1.47-1.12,1.58-.87.11-1.33-.48-1.58-1.19-.26-.75-.46-1.53-.62-2.31-.75-3.85-1.43-7.7-1.49-11.64-.02-1.08-.3-1.74-1.54-1.96-12.98-2.39-25.89-2.56-38.71,1.04-2.71.76-5.26,1.86-7.64,3.38-.4.26-.82.5-1.23.73-.62.34-1.22.35-1.77-.15-.56-.51-.54-1.16-.28-1.76.22-.5.59-.94.89-1.41,1.48-1.07,2.91-2.21,4.44-3.18.79-.5.74-1.12.76-1.83.06-2.67.8-5.17,1.91-7.57,1.59-.85,1.97.27,2.22,1.43.15.7-.17,1.43-.12,2.14.06.81-.48,2.07.68,2.24,1.2.18,2.39-.46,2.71-1.84.27-1.16.34-2.37.54-3.55,1.68-10.13,6.65-18.54,13.58-25.91.38-.41.82-.76,1.26-1.1,1.31-1,2.22-1.21,3.03.72,1.1,2.65,3.12,3.41,5.88,2.66,4.58-1.25,6.86-4.59,6.15-9.32-.26-1.71.63-2.2,1.91-2.35,5.53-.65,10.2,1.13,14.02,5.18.27.29.47.65.72.96.34.41.57,1.13,1.23.94.78-.22.69-1,.66-1.62-.53-9.81-6.74-14.69-16-13.75-7.89.8-14.35,4.63-19.98,9.99-2.37,2.25-4.7,4.55-6.78,7.1-.84,1.03-1.87,2.43-3.55,1.02-.24-1.06-.11-2.06.46-2.99,7.14-11.66,17.07-19.38,30.95-20.87,11-1.18,19.1,5.44,20.66,16.08.07.47.17.93.26,1.39.76.15,1.27-.29,1.83-.52,5.34-2.24,10.93-2.83,16.65-2.66.87.03,1.75.03,2.62.04,13.81,2.27,26.29,7.51,37.03,16.63,1.4,1.19,2.72,2.46,3.84,3.93.34.44.68.89.95,1.37.86,1.48.85,2.7.02,3.53-.87.86-2.25.78-3.7-.27-.58-.42-1.1-.92-1.64-1.39-6.96-6.19-14.68-11.23-23.23-14.95-2.09-.91-4.18-1.93-6.56-1.87-.52,3.36-2.95,5.33-5.4,7.19-5.74,4.35-12.17,7.22-19.27,8.46-1.53.27-3.17.51-4.65-.43Z"/>
  <path class="cls-5" d="m574.36,349.61c-.91,1.01-1.9,1.05-2.97.27-6.56-4.74-14.17-6.86-21.86-8.76-10.16-2.51-20.49-3.38-30.92-2.81-9.46.52-18.71,2.2-27.67,5.33-1.13.39-2.24.86-3.46.89-1.3.02-2.36-.38-2.97-1.61-.57-1.14-.32-2.4.72-3.51.83-.89,1.9-1.46,2.98-1.97.67-.32.91-.7.87-1.47-.7-14.59,4.41-27.22,13.05-38.66,2.46-3.26,5.36-6.12,8.31-8.93,1.48-1.07,2.93-2.19,4.45-3.21,5.96-3.99,12.41-6.48,19.7-6.48,7.46,0,13.9,2.61,19.3,7.67,4.6,4.31,7.64,9.56,8.98,15.76.23,1.08.23,2.04-.52,2.91-1.79,1.31-2.65.03-3.27-1.32-.99-2.18-2-4.36-3.12-6.48-4.77-8.98-14.19-14.19-23.26-12.93-7.38,1.03-13.7,4.32-19.12,9.29-10.67,9.8-15.43,22.48-17.35,36.47-.1.71-.1,1.43-.19,2.15-.06.5-.54,1.23.21,1.45.72.2,1.4-.22,1.79-.92.32-.58.23-1.24.3-1.88,1.19-10.63,5.4-19.81,13.08-27.33,2.04-2,2.28-2.01,4.06.12,1.63,1.93,3.74,2.29,5.87,1.49,3.85-1.46,6.81-3.84,7.22-8.38.21-2.26.87-2.86,3.31-2.77,6.98.26,12.92,2.88,17.44,8.27,4.12,4.92,6.19,10.69,6.9,17.08.63,5.67-.27,11.11-1.46,16.67,1.1-.85,1.64-2.12,2.42-3.2.83-1.16,1.09-2.68,2.31-3.58,1.93-.27,2.56.25,2.17,2.11-.47,2.26-1.01,4.53-1.8,6.7-.48,1.3-.02,1.65.99,2.09,4.2,1.79,8.13,4.07,11.96,6.55,1.13.74,1.74,1.59,1.54,2.94Z"/>
  <path class="cls-9" d="m559.51,329.23c-.87,2.97-2.76,5.38-4.33,7.96-.25.41-.56.51-1,.34-.53-.22-.71-.57-.52-1.13.23-.68.44-1.37.63-2.06,2.38-8.77,2.27-17.4-1.65-25.73-3.15-6.69-8.11-11.4-15.45-13.27-2.18-.55-4.4-.76-6.65-.6-.97.07-1.65.25-1.39,1.56.9,4.61-5.77,10.44-10.52,9.85-1.61-.2-2.84-.94-3.81-2.22-.38-.5-.39-1.21-1.11-1.71-2.56,2.13-4.83,4.56-6.71,7.33-4.71,6.94-7.79,14.46-8.04,22.95-.03.95-.29,1.48-1.26,1.64-.77.13-1.49.48-2.43.37.18-4.19.82-8.26,1.77-12.31,1.7-7.3,4.43-14.18,8.65-20.39,5.35-7.88,12.22-13.91,21.42-16.88,11.33-3.66,21.6.02,28.16,9.97,1.77,2.68,3.07,5.59,4.35,8.52.53,1.23,1.26,2.05,2.75,1.61.6.97.77,2.1.83,3.18.32,5.73.04,11.42-1.26,17.04-.38,1.62-.76,3.16-2.41,3.98Z"/>
  <path class="cls-9" d="m363.18,310.76c1.3.51,2.12-.23,2.87-1.12,1.9-2.27,3.83-4.51,5.95-6.57,4.06-3.94,8.6-7.15,13.89-9.22,3.99-1.56,8.09-2.4,12.42-1.75,5.71.86,9.85,4.48,11.16,10.08.34,1.47.4,3,.61,4.51.17,1.25-.26,2.18-1.59,2.84-3.83-6.59-9.6-9.06-17.05-7.71-.21.13-.24.26-.15.45,1.91,4.38-.82,9.55-6.51,11.09-3.14.85-6.25-.83-6.71-3.99-.03-.22-.13-.43-.19-.64-.65.05-1.03.5-1.43.87-8.06,7.57-13.3,16.67-14.96,27.7-.02.16-.05.32-.07.47-.1,1.1.2,2.56-.4,3.23-.96,1.07-2.63,1.28-4.23,1.88-.31-2-.1-3.81-.09-5.61,0-1.11-.27-1.96-1.69-1.46-.8-.64-.43-1.44-.31-2.2,1.33-8.01,3.96-15.54,8.31-22.42.08-.13.11-.3.17-.44Z"/>
  <path class="cls-16" d="m597.44,381.34c-.65-2.46-.82-5.01-1.49-7.47-1.12-4.11-3.09-7.61-6.54-10.23-1.92-1.46-1.96-2.12-.75-4.2,1.43-.52,2.62-.07,3.73.87,3.21,2.72,5.19,6.19,6.27,10.19.66,2.46,1.06,4.97,1.17,7.52.04.95.02,1.92-.17,2.84-.36,1.72-.87,1.8-2.22.48Z"/>
  <path class="cls-11" d="m617.48,236.57c-.19-.62.19-1.37-.43-1.89-.09-.06-.17-.11-.26-.17-.06-.31-.05-.61.08-.91.06-.28.11-.57.17-.85.27-.38.57-.32.89-.07h0c-.26,1.28.4,2.67-.45,3.89Z"/>
  <path class="cls-11" d="m616.47,235.54c.06.7.23,1.43-.47,1.94-.08-.7-.06-1.39.47-1.94Z"/>
  <path class="cls-11" d="m617.05,234.68c-.08.37-.19.72-.59.87.02-.3.05-.6.07-.9.06-.19.18-.23.34-.12l.17.16Z"/>
  <path class="cls-12" d="m616.88,234.52c-.11.05-.22.1-.34.12-.09-.41-.01-.77.33-1.04,0,.31,0,.61.01.92Z"/>
  <path class="cls-12" d="m617.93,232.68c-.3.02-.6.05-.89.07.01-.33.18-.57.52-.51.15.03.25.28.38.44Z"/>
  <path class="cls-11" d="m617.05,239.51c-.07-.71-.28-1.45.37-2.03.08.71.14,1.42-.37,2.03Z"/>
  <path class="cls-1" d="m413.99,323.41c9.78,0,17.99-3.95,25.37-10.03,1.73-1.43,3.11-3.1,3.96-5.19.26,1.1-.15,2.09-.67,2.97-4.22,7.12-9.95,12.45-18.04,14.85-2.3.68-4.71,1.02-7.08.23-1.5-.5-3.07-.98-3.53-2.82Z"/>
  <path class="cls-2" d="m354,365.13c1.04.05,1.91.4,2.29,1.43.36.98-.17,1.7-.9,2.27-.44.34-.93.61-1.41.9-5.92,3.64-9.5,8.84-10.47,15.76-.07.53-.22.99-.76,1.05-.52.06-.91-.31-1.06-.79-.38-1.18-.28-2.39,0-3.55.79-3.35,1.9-6.6,3.41-9.68,1.29-2.63,3.34-4.66,5.79-6.26.94-.62,1.97-1.05,3.11-1.11Z"/>
  <path class="cls-4" d="m412.71,442.79c2.32-5.61,5.72-10.24,9.47-14.62,10.46-12.21,23-21.88,36.74-30.1,16.35-9.78,33.86-16.86,52.04-22.38,9.71-2.95,19.51-5.55,29.57-7,6.65-.96,13.34-1.48,20.02-2.03.32-.03.68.05.95-.08,2.44-1.18,3.85.45,5.33,1.91,5.3,5.21,8.07,11.62,8.81,18.94.46,4.59-.71,8.88-2.7,12.97-2,4.14-4.71,7.79-7.83,11.13-6.5,6.94-13.99,12.6-22.28,17.25-11.75,6.58-24.33,10.81-37.48,13.56-11.78,2.46-23.73,3.36-35.71,3.76-10.14.34-20.29.59-30.44.08-8.55-.43-17.04-1.31-25.45-2.98-.3-.06-.57-.22-1.06-.41Z"/>
  <path class="cls-7" d="m557.1,362.42c-2.04.23-4.07.53-6.12.69-7.57.59-15.05,1.69-22.46,3.34-11.55,2.56-22.84,6.02-33.96,10.01-9.33,3.35-18.39,7.33-27.2,11.89-12.03,6.23-23.42,13.46-33.7,22.29-7.71,6.62-14.96,13.73-20.35,22.48-1.43,2.32-2.65,4.74-3.66,7.27-.67,1.66-.7,1.68-2.48,1.21-7.77-2.07-15.08-5.2-21.91-9.46-5.51-3.44-10.58-7.44-15.27-11.92-.81-.77-1.67-1.48-2.51-2.23-4.1-3.63-6.68-8.3-7.76-13.5-2.06-9.86.12-18.87,6.86-26.55,1.73-1.96,4.1-3.03,6.54-3.86,2.96-1.01,5.99-1.58,9.12-1.83,7.1-.57,14.21-.28,21.32-.51,5.82-.19,11.62-.77,17.38-1.65.39-.06.79-.13,1.19-.16,2.02-.19,1.99-.18,2.54,1.77,1.51,5.37,6.31,11.34,14.32,11.23,8.04-.11,15.87-1.41,23.68-3.08.78-.17,1.56-.36,2.34-.5,9.48-1.7,16.56-7.16,22.52-14.39,1.98-2.4,3.92-4.85,5.59-7.48.53-.83,1.19-1.25,2.09-1.41,10.9-1.96,21.89-2.61,32.92-1.86,7,.48,13.98,1.36,20.62,3.9,2.89,1.11,5.77,2.27,8.46,3.81-.04.17-.07.33-.11.5Z"/>
  <path class="cls-9" d="m428.46,369.01c19.3-4.5,38.77-7.27,58.12-11.4-.22,1.26-.99,1.78-1.52,2.45-1.81,2.24-3.83,4.28-5.95,6.23-4.22,3.87-9.03,6.45-14.72,7.47-7.92,1.42-15.73,3.51-23.81,3.98-1.11.06-2.23.02-3.35-.01-2.49-.07-4.4-1.24-5.9-3.17-1.23-1.59-2.17-3.34-2.88-5.54Z"/>
  <path class="cls-6" d="m381.68,337.81c-4.31.09-8.58.6-12.82,1.37-1.84.34-2.2-.03-2.2-1.92,0-4.19,3.54-9.38,7.45-10.91,3.36-1.31,7.03-.46,9.62,2.29,1.93,2.05,2.97,4.51,3.02,7.34.03,1.65-.13,1.78-1.73,1.82-1.12.02-2.23,0-3.35,0Z"/>
  <path class="cls-6" d="m504.27,332.59c-.1-1.13.52-2.08,1.07-3.03,2.93-5.03,7.53-7.49,13.14-8.07,6.35-.65,11.93,1.57,17.01,5.2,1.57,1.12,2.5,2.66,2.48,4.67-.02,1.99-.25,2.28-2.2,2-3.32-.48-6.65-.81-9.99-1.05-6.79-.49-13.55-.48-20.3.44-.39.05-.79.18-1.21-.16Z"/>
</svg>