<?xml version="1.0" encoding="UTF-8"?>
<svg id="_图层_1" data-name="图层 1" xmlns="http://www.w3.org/2000/svg" viewBox="0 0 960 960">
  <defs>
    <style>
      .cls-1 {
        fill: #b04347;
      }

      .cls-1, .cls-2, .cls-3, .cls-4, .cls-5, .cls-6, .cls-7, .cls-8, .cls-9, .cls-10, .cls-11, .cls-12, .cls-13, .cls-14, .cls-15, .cls-16, .cls-17, .cls-18, .cls-19, .cls-20, .cls-21, .cls-22, .cls-23, .cls-24, .cls-25, .cls-26, .cls-27, .cls-28, .cls-29, .cls-30, .cls-31, .cls-32, .cls-33, .cls-34, .cls-35, .cls-36, .cls-37, .cls-38, .cls-39, .cls-40, .cls-41, .cls-42, .cls-43, .cls-44, .cls-45, .cls-46, .cls-47, .cls-48, .cls-49, .cls-50, .cls-51, .cls-52 {
        stroke-width: 0px;
      }

      .cls-2 {
        fill: #c0494e;
      }

      .cls-3 {
        fill: #cf4f53;
      }

      .cls-4 {
        fill: #0f0606;
      }

      .cls-5 {
        fill: #8b3538;
      }

      .cls-6 {
        fill: #dc5459;
      }

      .cls-7 {
        fill: #f7b9a0;
      }

      .cls-8 {
        fill: #41191a;
      }

      .cls-9 {
        fill: #3e1819;
      }

      .cls-10 {
        fill: #2a1011;
      }

      .cls-11 {
        fill: #a94044;
      }

      .cls-13 {
        fill: #642728;
      }

      .cls-14 {
        fill: #a23e41;
      }

      .cls-15 {
        fill: #361516;
      }

      .cls-16 {
        fill: #ccc7c7;
      }

      .cls-17 {
        fill: #ff4c54;
      }

      .cls-18 {
        fill: #d65156;
      }

      .cls-19 {
        fill: #ef5b60;
      }

      .cls-20 {
        fill: #fe686e;
      }

      .cls-21 {
        fill: #180a0a;
      }

      .cls-22 {
        fill: #110707;
      }

      .cls-23 {
        fill: #b16b1f;
      }

      .cls-24 {
        fill: #66282a;
      }

      .cls-25 {
        fill: #fff;
      }

      .cls-26 {
        fill: #c24a4f;
      }

      .cls-27 {
        fill: #fffefd;
      }

      .cls-28 {
        fill: #2a1111;
      }

      .cls-29 {
        fill: #b7ceff;
      }

      .cls-30 {
        fill: #4f1e20;
      }

      .cls-31 {
        fill: #3a1617;
      }

      .cls-32 {
        fill: #7c3032;
      }

      .cls-33 {
        fill: #1d1a1a;
      }

      .cls-34 {
        fill: #767e7e;
      }

      .cls-35 {
        fill: #782e31;
      }

      .cls-36 {
        fill: #e3dbda;
      }

      .cls-37 {
        fill: #ff696f;
      }

      .cls-38 {
        fill: #92383b;
      }

      .cls-39 {
        fill: #454795;
      }

      .cls-40 {
        fill: #938f8f;
      }

      .cls-41 {
        fill: #260f0f;
      }

      .cls-42 {
        fill: #ffd741;
      }

      .cls-43 {
        fill: #a96861;
      }

      .cls-44 {
        fill: #6a292b;
      }

      .cls-45 {
        fill: #281010;
      }

      .cls-46 {
        fill: #4d1e1f;
      }

      .cls-47 {
        fill: #4d1e20;
      }

      .cls-48 {
        fill: #5d2425;
      }

      .cls-49 {
        fill: #020101;
      }

      .cls-50 {
        fill: #160809;
      }

      .cls-51 {
        fill: #e7585e;
      }

      .cls-52 {
        fill: #5a7dff;
      }
    </style>
  </defs>
  <path class="cls-12" d="m712.8,319.82c-1.58-11.03-4.92-21.45-10.9-30.94-2.45-3.9-5.34-7.39-9.11-10.06-1-.71-1.3-1.32-.82-2.51,1.5-3.71,1.71-7.61,1.29-11.55-.69-6.46-3.62-11.42-9.38-14.73-3.86-2.22-7.96-3.23-12.33-3.39-6.16-.22-12.1,1.03-17.82,3.17-8.07,3.02-16.07,6.25-24.07,9.45-7.49,2.99-14.93,6.09-22.87,7.75-6.1,1.28-12.13,2.85-18.47,2.35-1.36-.11-2.16-.51-2.87-1.63-2.54-3.97-5.24-7.84-8.11-11.58-6.63-8.65-13.62-16.94-22.7-23.2.41-.68,1.14-.87,1.74-1.23,3-1.84,6-3.68,8.71-5.92,2.61-2.16,2.15-4.44-1.06-5.71-1.03-.57-2.04-.29-3,.13-3.29,1.46-6.69,2.64-9.96,4.14-6.61,3.03-13.25,5.99-20.11,8.44-1.31.47-2.6.72-3.99.44-4.31-.89-8.7-1.36-13.08-1.46-3.83-.1-7.69.21-11.25,1.87-2.74,1.28-4.94,3.23-5.16,6.4-.15,2.22-1.21,2.76-3.1,3.08-5.36.9-10.73,1.74-16.14,2.2-6.28.53-12.58,1.01-18.89.4-5.45-.39-10.75-1.37-15.78-3.6-6.54-2.9-8.27-7.89-4.89-14.21.34-.63.73-1.23,1.12-1.84,1.42-2.23,3.08-4.26,4.79-6.27,1.86-2.51,4.31-4.45,6.39-6.74.82-.91,1.98-1.71,1.51-3.23-.47-.92-1.17-1.28-2.17-.84-.66.29-1.34.54-1.95.9-6.48,3.77-12.33,8.3-16.77,14.43-.71.98-1.48,1.54-2.72,1.66-1.34.13-2.67.47-3.98.8-7.59,1.93-14.48,5.42-20.99,9.69-1.09.71-2.18,1.3-3.51,1.37-4.47.24-8.9.94-13.32,1.58-4.03.58-8.05,1.27-11.85,2.86-3.56,1.49-6.52,3.75-8.43,7.16-2.15,3.85-.57,8.01,3.53,9.61,1.43.56,2.96.65,4.46.85.73.1,1.54-.13,2.34.39-.45.58-.78,1.02-1.13,1.44-3.55,4.22-6.98,8.54-10.05,13.12-.9,1.34-1.84,1.69-3.36,1.56-8.02-.73-15.76-2.51-23.04-6.02-3.67-1.77-7.39-3.41-11.2-4.85-2.09-.79-4.22-1.45-6.44-1.8-4.95-.77-8.91.91-11.52,5.1-3.6,5.8-4.29,11.97-1.16,18.24,1.91,3.82,4.48,7.2,7.84,9.87,7.24,5.75,15.28,9.81,24.42,11.58,1.59.31,3.24.43,4.8,1.19-3.84,8.96-6.83,18.06-9.61,27.23-.35,1.14-1.01,1.84-2.01,2.5-10.63,7.06-19.38,15.89-25.23,27.35-4.09,8.01-5.93,16.49-4.93,25.51,1.09,9.82,5.13,18.39,11,26.19,3.92,5.2,8.59,9.67,13.59,13.81,1.48,1.22,2.94,2.46,4.4,3.7,4.45,4.51,10.01,7.39,15.52,10.28,15.66,8.22,32.26,13.86,49.47,17.82,23.29,5.36,46.9,7.81,70.77,8.17,3.92.06,7.82-.39,11.72-.41,6.64-.03,13.24-.57,19.83-1.16,12.5-1.13,24.9-2.96,37.18-5.6,23.64-5.08,46.43-12.48,67.47-24.67,2.21-1.28,4.49-2.46,6.22-4.4.89-.67,1.77-1.36,2.67-2.01,8.89-6.38,16.79-13.71,22.48-23.2,5.99-9.98,8.71-20.65,6.97-32.28-.16-.54-.67-1.18.41-1.35,1.01,2.06,2.1,4.08,3.4,5.97,1.24,1.83,2.54,3.62,3.81,5.43,5.92,7.74,13.57,12.36,23.48,12.05,7.64-.24,14.12-3.7,19.62-8.9,2.99-2.83,5.98-5.74,7.35-9.82,2.4-4.06,4.59-8.25,6.09-12.73,5.39-16.09,7.26-32.54,4.84-49.39Zm-75.76,40.54c-1.31-1.79-2.62-3.59-3.95-5.38-5.16-6.95-11.99-12.02-19.01-16.87-.33-.23-.63-.5-.98-.67-1.38-.69-1.75-1.67-1.61-3.27.31-3.5-.37-6.97-.85-10.44-.41-2.36,1.12-1.64,2.18-1.27,3.94,1.39,8.01,2.14,12.12,2.75,2.79.41,5.56.51,8.34.01.78-.14,1.58-.29,2.33.17-.3,4.62-.54,9.25-.45,13.89.13,6.1.94,12.1,2.21,18.05.13.62.21,1.26.31,1.89.15.59.31,1.19-.65,1.13Zm56.88-16.53c-.26,3.19-.38,6.38-1.02,9.53-.26,1.26-.65,2.47-1.17,3.64-1.4,3.16-4.29,4.77-7.75,4.32-2.28-.3-4.25-1.28-5.99-2.79-3.74-3.24-5.95-7.46-7.65-12-5.65-15.1-5.58-30.29-.82-45.61.75-2.42,1.61-4.33,4.27-5.06,1.04-.29,1.94-1.09,2.98-1.7,1.64,1.55,2.93,3.38,3.96,5.35,4.1,7.77,8.28,15.5,10.86,23.96,2.03,6.65,2.89,13.41,2.32,20.35Z"/>
  <path class="cls-52" d="m444.39,219.2c1.78-2.31,3.95-4.25,5.97-6.34.87-.9,1.83-1.74,2.13-3.04,2.49.79,4.91-.2,7.35-.33,5.1-.27,10.18-.83,15.28-1.21,8.05-.59,16.13-.62,24.19-.49,13.42.21,26.82.84,40.15,2.42,5.31.63,10.59,1.47,15.79,2.76,1.16.29,2.31.64,3.45,1.01,2.98.97,4.96,2.82,5.32,6.09-1.46.13-2.76.73-4.08,1.29-7.47,3.2-14.94,6.43-22.42,9.61-2.2.93-4.47,1.7-6.68,2.61-1.38.57-2.73.6-4.2.33-5.81-1.07-11.66-1.88-17.6-1.25-2.64.28-5.2.86-7.5,2.25-2.46,1.49-3.86,3.65-3.42,6.58.2,1.33-.18,1.63-1.36,1.85-6.51,1.25-13.06,2.18-19.65,2.75-5.33.46-10.67.62-16.02.35-.63-.03-1.28.08-1.88-.25-1.43-1.38-2.93-2.68-4.52-3.86-6.28-4.65-9.05-11.12-9.57-18.7-.1-1.52-.14-3.02-.73-4.44Z"/>
  <path class="cls-39" d="m333.51,436.01c3,1.95,5.97,3.97,9.02,5.84,8.61,5.28,17.79,9.41,27.22,12.98,14.99,5.67,30.49,9.37,46.26,12.08,9.53,1.64,19.11,2.72,28.72,3.64,2.46.23,4.94.37,7.41.47,6.63.25,13.25.71,19.89.52,10.3-.29,20.58-.71,30.84-1.73,14-1.39,27.85-3.62,41.54-6.82,17.16-4.01,33.82-9.49,49.7-17.21,5.54-2.69,10.9-5.71,16.11-8.99.46-.29.84-.76,1.46-.75-.62,2.1-2.37,3.13-4.06,4.18-6.98,4.37-14.15,8.42-21.52,12.11-26.72,13.37-54.83,22.39-84.34,27.06-16.39,2.59-32.87,3.75-49.45,3.2-26.6-.88-52.36-5.74-76.95-16.24-14.14-6.03-26.78-14.25-37.58-25.23-1.56-1.59-3.16-3.16-4.27-5.13Z"/>
  <path class="cls-39" d="m651.43,388.6c1.07.47,1.66,1.47,2.44,2.24,3.92,3.88,8.3,6.94,13.72,8.39,7.42,1.98,14.24.4,20.64-3.44,5.51-3.3,9.76-7.92,13.17-13.34.12-.2.31-.35.47-.52.14,1.21.03,2.41-.45,3.53-1.51,3.52-2.86,7.11-4.83,10.42-3.89,6.58-9.74,10.26-17.23,11.2-5.42.68-10.43-.96-15.15-3.53-5.92-3.23-9.79-8.33-12.71-14.24-.1-.2-.05-.46-.08-.7Z"/>
  <path class="cls-34" d="m643.81,378.55c-.57-.76-.55-1.62-.46-2.55.71.17.84.65.87,1.2-.43.36-.15.94-.41,1.35Z"/>
  <path class="cls-7" d="m555.62,244.08c2.99,3.13,5.56,6.6,8.09,10.09,10.64,14.7,19,30.69,26.38,47.21,3.68,8.25,6.99,16.64,9.8,25.24.9,2.74,1.63,5.52,2.15,8.35.42,2.28,1.54,3.97,3.55,5.12,8,4.62,13.84,11.5,19.4,18.66,2.11,2.72,3.7,5.78,5.14,8.91,4.92,10.72,4.66,21.36-.45,31.93-2.17,4.5-5.09,8.49-8.35,12.25-7.36,8.49-16.19,15.15-25.81,20.85-14.97,8.87-31.09,14.88-47.87,19.24-16.99,4.41-34.27,6.97-51.76,8.24-16.54,1.21-33.07,1.09-49.59-.12-25.65-1.89-50.65-6.82-74.64-16.31-11.57-4.57-22.49-10.36-32.53-17.74-6.5-4.78-12.09-10.45-16.45-17.26-8.13-12.71-8.55-25.8-1.65-39.14,3.49-6.75,8.4-12.43,13.96-17.56,1.82-1.68,3.67-3.33,5.53-4.97,2.1-1.86,3.49-4.18,4.16-6.87,2.81-11.31,7.37-21.94,12.34-32.42,7.19-15.16,16.07-29.26,26.92-42.09.57-.67,1.19-1.29,1.78-1.93,1.05-.51,2.13-.52,3.27-.38,6.53.81,12.92-.06,19.17-1.95,5.87-1.78,9.5-5.39,9.25-11.96v-.02c.31-.25.21-.68.44-.96,1.33-4.18.96-5.73-2.46-9.99,3.6-2.23,7.38-3.97,11.64-5.48-.05,2.12-.34,3.98-.09,5.85.25,1.85,1.09,3.49,1.6,5.25.1.3.03-.09.09.22,1.98,10.8,9.86,16.19,18.96,20.21,5.36,2.37,11.19,3.05,17.05,3.51,4.47.35,8.93.46,13.4.4,15.59-.23,30.68-2.86,44.78-9.85,2.13-1.05,4.19-1.23,6.49-.77,4.3.86,8.61,1.68,13.06,1.54,7.32-.23,12.56-5.99,11.95-13.28-.08-.95-.64-2.12.88-2.54l.08.08c-.04.31.17.37.4.43Z"/>
  <path class="cls-42" d="m704.24,307.98c1.72,5.6,2.7,11.34,3.14,17.17.95,12.47.12,24.76-4.04,36.67-2.36,6.75-5.44,13.13-9.8,18.85-2.44,3.2-5.22,6.04-8.58,8.3-7.4,4.97-14.93,5.01-22.58.65-2.81-1.6-5.18-3.75-7.23-6.23-3.79-4.59-6.86-9.6-8.7-15.31,1.17.06,1.42,1.16,2.06,1.81.45.47.91.96,1.63.76.76-.22.89-.92.8-1.55-.63-4.48-.8-9.03-2.23-13.38-.05-.15-.11-.3-.19-.44-.73-1.2-1.27-2.9-2.99-2.64-1.54.24-1.43,1.88-1.63,3.12-.08.47-.16.95-.6,1.25-1.37-5.09-1.84-10.28-1.82-15.54,2.23-.48,2.94-1.91,3.45-4.13,1.74-7.56,2.12-15.39,4.52-22.79,3.32-10.26,8.32-19.7,14.38-28.6.18-.27.44-.46.75-.56,1.16,2.09.89,4.32.58,6.53-.64,4.43-2.18,8.67-2.89,13.09-2.46,15.24-1.9,30.24,3.73,44.81,1.99,5.14,4.76,9.74,9.25,13.15,2.62,1.99,5.58,3.11,8.8,3.47,6.14.67,11.48-2.82,13.52-8.79,1.44-4.21,1.58-8.62,1.83-13,.44-7.89-.43-15.63-2.89-23.16-.32-.75,0-1.42.37-2.01,2.06-3.21,3.5-6.75,5.33-10.08.41-.75.66-1.92,2.01-1.42Z"/>
  <path class="cls-43" d="m683.11,280.13c-1.18,2.02-2.81,3.64-4.49,5.23-1.63,1.54-3.25,3.07-4.91,4.58-.5.45-.91,1.12-1.95,1.09-.08-1.74-.03-3.48-.54-5.16-.47-1.54-1.05-3-2.06-4.28-2.96-3.8-7.51-4.43-11.45-1.66-5.55,3.9-9.67,9.01-12.82,14.95-1.54,2.89-2.98,5.84-4,8.96-.44,1.36-1.25,2.02-2.59,2.47-8.85,2.98-17.91,3.83-27.17,2.83-.16-.02-.32-.07-.48-.05-3.19.46-4.62-1.16-5.53-4.08-1.26-4.03-3.14-7.85-4.99-11.66-.24-.5-.44-1.03-.7-1.53-.42-.83-.29-1.36.72-1.51,4.93-.76,9.5-2.71,14.16-4.36,9.76-3.47,18.92-8.11,27.36-14.14,1.29-.92,2.6-1.85,3.58-3.14.65-.78,1.55-1.08,2.49-1.29,7.57-1.68,15.14-1.95,22.64.32,3.21.97,6.19,2.4,8.7,4.77,2.24,2.13,3.45,4.71,4.03,7.66Z"/>
  <path class="cls-43" d="m555.14,243.57c-.72.55-.44,1.26-.34,1.97,1.13,8.08-4.71,14.11-11.96,14.51-5,.27-9.83-.73-14.66-1.74-1.56-.33-2.93-.21-4.38.51-9.13,4.55-18.72,7.55-28.85,8.98-8.8,1.24-17.62,1.67-26.47,1.25-7.08-.33-14.15-1.04-20.85-3.65-6.79-2.64-12.42-6.85-16.7-12.73-1.81-2.48-2.83-5.35-2.43-8.54,4.98,7.29,12.56,9.72,20.71,10.98,6.81,1.06,13.67,1.39,20.54.96,10.14-.63,20.21-1.92,30.04-4.45,5.02-1.29,9.66-1.36,14.68.23,7.46,2.37,15.22,3.62,23.05,4.14,3.69.25,7.37.07,10.7-1.86,3.13-1.81,4.68-5.18,3.86-8.54-.57-2.36-1.99-4.14-4.05-5.43-1.29-.81-2.72-1.33-4.32-1.93,1.07-1.14,2.42-1.47,3.7-1.91.42-.14.74.21,1.04.47,2.37,2.12,4.67,4.32,6.69,6.78Z"/>
  <path class="cls-7" d="m683.11,280.13c-.31-.07-.69-.09-.76-.46-1.31-6.54-6.15-9.45-11.85-11.25-5.46-1.72-11.07-2.1-16.79-1.34-2.86.38-5.65.94-8.45,1.58-.23-1.19-.83-1.7-2.03-1.11-1.51.74-3.04,1.42-4.51,2.22-11.45,6.18-23.51,10.75-36.1,13.97-1.78.46-3.59.79-5.43.92-.85.06-1.52-.05-2-.92-1.29-2.38-2.65-4.71-4.17-7.38,2.18.02,4.04.4,5.92.21,11.85-1.21,23.25-4.16,34.26-8.69,7.76-3.19,15.54-6.33,23.3-9.49,4.78-1.95,9.76-3.08,14.89-3.42,3.62-.24,7.15.19,10.54,1.68,4.98,2.18,7.24,6.04,7.43,11.3.11,3.02-.49,5.89-1.97,8.53-.7,1.25-1.52,2.44-2.29,3.66Z"/>
  <path class="cls-7" d="m316.63,289.29c-3.72-4.15-4.94-8.81-2.9-14.15.43-1.13,1-2.18,1.79-3.08,1.25-1.42,2.81-2.03,4.71-1.69,1.81.32,3.56.84,5.28,1.5,3.8,1.45,7.55,3.02,11.24,4.73,7.22,3.36,14.76,5.57,22.75,6.07.22.01.43.11.9.23-2.46,4.29-4.86,8.47-7.26,12.66-.41.59-1.01.7-1.68.7-8.22.06-16.42.07-24.41-2.31-3.69-1.1-7.23-2.48-10.43-4.65Z"/>
  <path class="cls-23" d="m704.24,307.98c-.91.07-1.07.87-1.39,1.48-1.23,2.42-2.54,4.81-3.62,7.29-.73,1.7-2.25,2.91-2.71,4.74-2.67-7.61-6.18-14.83-10.05-21.89-1.43-2.6-3.16-4.98-5.11-7.2-.43-.49-.94-.97-.16-1.58,3.07-2.44,5.68-5.31,8.01-8.66,7.68,7.21,12.34,15.94,15.03,25.81Z"/>
  <path class="cls-25" d="m664.6,285.41c-.42,1.13-1.05,2.14-1.71,3.14-4.99,7.54-8.99,15.59-12.14,24.06-1.56,4.2-2.24,8.62-3.04,13.01-.73,3.99-1.01,8.06-2.26,11.95-.1.3-.14.62-.18.94-.4,3.07-.66,3.28-3.78,2.98-.52-5.27-.14-10.52.43-15.76,1.05-9.74,3.39-19.14,7.65-28.01,1.84-3.82,4.08-7.4,6.51-10.86,1.15-1.64,2.79-2.61,4.59-3.3,1.92-.73,2.89-.21,3.92,1.85Z"/>
  <path class="cls-39" d="m635.61,325.39c-5.2,1.5-10.37.73-15.53-.26-2.81-.53-5.58-1.21-8.21-2.36-1.18-.52-1.1.29-1.23.95-.64-2.99-1.29-5.97-2-9.29,5.03.73,9.78,1.5,14.65,1.04,4.81-.45,9.54-1.36,14.59-2.24-.98,4.2-1.59,8.19-2.26,12.16Z"/>
  <path class="cls-29" d="m444.39,219.2c1.41.47,1.3,1.69,1.27,2.78-.06,2.09.26,4.13.69,6.15,1.3,6.23,4.7,11.03,9.89,14.67,1.23.86,2.74,1.61,2.98,3.4-5.41-.09-10.6-1.18-15.54-3.38-1.76-.78-3.39-1.78-4.82-3.07-1.92-1.73-2.68-3.9-2.47-6.44.19-2.28,1-4.34,2.14-6.28,1.66-2.83,3.59-5.46,5.87-7.82Z"/>
  <path class="cls-43" d="m316.63,289.29c1.12-.13,1.99.53,2.9.99,5.48,2.77,11.34,4.1,17.4,4.85,3.83.48,7.64.37,11.47.42,1.58.02,3.17,0,4.75,0-1.38,2.77-2.79,5.52-4.13,8.31-.42.88-.95,1.05-1.88.92-10.42-1.46-19.74-5.42-27.79-12.23-1.08-.91-2.18-1.87-2.71-3.27Z"/>
  <path class="cls-43" d="m417.38,249.48c1.05,4.05-.24,7.55-3.69,10.01-3.06,2.18-6.59,3.17-10.2,3.86-4.07.78-8.2,1.16-12.35.95-1.82-.09-3.64-.35-5.46-.53.13-.19.26-.39.39-.58,2.12-3.3,5.25-4.42,9.06-4.74,3.96-.33,7.87-1.28,11.71-2.37,4.14-1.18,7.88-3.04,10.54-6.6Z"/>
  <path class="cls-27" d="m643.32,357.03c.07-1.03.02-2.08.23-3.07.22-1.03.8-1.95,1.94-2.21,1.1-.25,1.79.49,2.42,1.22,1.64,1.89,2.08,4.26,2.46,6.61.49,3.06.85,6.13,1.26,9.2.02.16.07.31.08.47.07.92-.06,1.77-1.02,2.2-1.07.49-1.82-.12-2.52-.81-.74-.73-.79-1.93-1.71-2.55-1.36-3.6-2.54-7.25-3.15-11.07Z"/>
  <path class="cls-40" d="m638.16,360.69c.61.88.53,1.94.76,2.92-.17.24-.27.23-.29-.08-.27-.64-.85-1.11-.95-1.84.15-.34,0-.82.48-1.01Z"/>
  <path class="cls-16" d="m638.16,360.69c-.13.35-.09.78-.48,1.01-.24-.43-.67-.78-.65-1.34.51-.21.47-.74.65-1.13.46.39.4.95.47,1.47Z"/>
  <path class="cls-33" d="m638.63,363.53c.11-.01.2.01.29.08.39.19.62.48.51.93-.02.09-.25.21-.32.18-.52-.24-.54-.7-.47-1.19Z"/>
  <path class="cls-43" d="m417.82,248.5c.12.44-.02.76-.43.96-.1-.43.03-.76.43-.96Z"/>
  <path class="cls-43" d="m555.62,244.08c-.28,0-.43-.14-.4-.43.29,0,.41.16.4.43Z"/>
  <path class="cls-25" d="m425.03,314.75c1.15-2.45,2.27-4.9,3.45-7.33,3.82-7.85,8.92-14.76,15.52-20.48,3.77-3.26,7.94-5.8,12.96-6.87,5.08-1.08,9.51.31,13.56,3.16,5.8,4.08,9.53,9.75,12.12,16.28,1.51,3.8,2.46,7.75,3.67,11.63.37,1.17.12,2.38.23,3.57.62.74.3,1.53.06,2.28-2.91,9.43-3.96,19.13-3.27,28.92,1.06,15.09,5.69,28.81,16.71,39.77,6.14,6.1,13.72,9.26,22.23,9.35,7.94.08,15.23-2.59,21.57-7.53,5.9-4.6,10.51-10.24,13.82-16.94.18-.36.37-.71.51-1.08.42-1.13,1.06-2.47-.3-3.22-1.4-.77-2.19.54-2.82,1.53-4.27,6.77-9.34,12.78-16.13,17.16-13.89,8.97-28.13,5.77-38.64-6.17-7.58-8.61-10.78-19.05-12.07-30.24-1.33-11.58-.03-22.83,4.08-33.71,4.35-11.53,11.25-21.15,21.93-27.66,12.2-7.43,28.42-4.59,37.55,6.48,2.07,2.51,4.4,4.85,5.85,7.83.85.35,1.31.94,1.59,1.86,1.49,4.89,2.63,9.85,3.57,14.87.8,4.31,1.42,8.66,1.75,13.01.51,6.59,1.16,13.2.24,19.83-.24,1.73-.04,3.5-.46,5.24-.23.96.21,1.24,1.28.91,2.21-.69,4.4-1.35,6.69-1.77,3.29-.6,6.53-.51,9.74.17,2.12.45,4.27.44,6.4.81,8.94,1.55,16.8,5.07,22.65,12.24,2.15,2.64,3.16,5.82,3.56,9.25,1,8.6-2.53,15.46-7.89,21.76-6.95,8.16-15.75,13.9-24.74,19.42-9.72,5.96-20.14,10.35-30.85,14.17-11.22,4-22.79,6.64-34.4,9.15-5.99,1.3-11.99,2.6-18.06,3.48-3.62.53-7.25.99-10.9,1.35-10.12.99-20.25,1.07-30.39.83-5.25-.13-10.48-.69-15.72-1.24-7.29-.77-14.5-2.05-21.76-3.05-13.49-1.85-26.6-5.21-39.24-10.27-6.9-2.76-13.48-6.2-19.77-10.21-4.65-2.97-9.27-5.98-13.46-9.55-5.99-5.11-11.14-10.97-15.01-17.9-2.12-3.8-3.59-7.78-4.43-12.06-1.56-7.93,2.38-14.86,9.95-17.71,5.96-2.25,11.94-2.69,18-.44.35.13.7.4,1.27.08-.44-2.5-1.13-5.02-1.42-7.6-.67-5.87-1.01-11.72-.46-17.65.5-5.33,1.17-10.6,2.5-15.79,1.61-6.28,3.69-12.38,6.94-18.03.35-.61.82-1.2.76-1.98,4.86-5.65,10.08-10.87,16.71-14.52,11.03-6.08,23.36-2.6,30.48,8.69,4.64,7.37,6.5,15.56,7.18,24.11.08.95.02,1.92.15,2.87.25,1.78-.83,2.5-2.33,2.7-1.79.24-1.88-1.11-1.91-2.34-.15-5.46-.86-10.85-2.57-16.04-1.59-4.83-3.89-9.27-7.7-12.8-5.11-4.73-11.92-5.79-18.24-2.84-7.21,3.37-11.66,9.35-15.11,16.15-4.88,9.62-7.37,19.84-7.5,30.69-.11,8.4.32,16.65,3.91,24.4,2.99,6.46,7.11,11.84,14.67,13.27,6.32,1.19,11.38-1.53,15.93-5.5,1.62-1.41,3.07-3.03,4.5-4.65,1.19-1.34,1.87-1.18,2.63.44.84,1.78.94,3.47-.33,5.18-3.52,4.73-7.55,8.89-12.76,11.78-8.58,4.75-19.54,3.04-27.26-4.22-2.78-2.61-4.85-5.72-6.71-9-.32-.56-.58-1.14-.96-1.66-.24-.33-.55-.7-.96-.6-.58.15-.58.72-.48,1.19.38,1.81.93,3.58,1.77,5.21,4.26,8.23,10.44,14.21,19.86,15.8,9.24,1.56,17.39-1.21,24.41-7.32,1.56-1.36,2.97-2.9,4.39-4.43,1.62-1.75,2.24-1.68,3.17.56,1.55,3.78,3.13,7.54,5.38,10.96.66,1,1.13,2.81,2.66,2.18,1.62-.66.94-2.38.54-3.62-2.01-6.32-4.5-12.48-6.52-18.8-1.74-5.48-3.79-10.88-4.76-16.58-.11-.63-.14-1.27-.14-1.91.08-.87-.09-1.82.81-2.41.73-.08,1.2.39,1.64.83,5.16,5.16,14.54,2.83,18.56-1.69,2.29-2.57,4.12-5.49,5.15-8.82.31-1.01.3-2.05.04-3.08-.06-.37-.06-.74,0-1.11.15-.63.18-1.27.14-1.91-.03-.72-.08-1.44-.18-2.15-.33-2.46-.13-2.61,2.42-2.82,10.32-.84,20.53.38,30.74,1.62,1.29.16,2.55.17,3.77-.3.6-.23,1.23-.5,1.35-1.22.14-.86-.51-1.28-1.11-1.68-.81-.54-1.75-.77-2.71-.9-5.85-.8-11.73-1.31-17.6-1.91-7.59-.77-15.14-.32-22.7.18-1.09.07-2.27.07-2.43-1.29-.37-3.16-.96-6.31-1.02-9.51,0-.4.19-.77.5-1.05Z"/>
  <path class="cls-12" d="m425.03,314.75c.24,3.5,1.07,6.95,1.03,10.48-.01.97.59.92,1.3.83,3.89-.47,7.8-.59,11.72-.68,8.09-.19,16.12.66,24.14,1.58,1.83.21,3.65.46,5.47.68,1.38.17,2.65.66,3.74,1.48,1.41,1.05,1.23,2.69-.38,3.41-1.55.69-3.19.89-4.92.65-7.2-1-14.44-1.69-21.71-1.9-3.75-.11-7.49.09-11.59.17.68,1.71,1.07,3.3.77,4.96-.35.36-.05.9-.33,1.28-.04.33-.07.67-.11,1-.37,2.56-2.22,4.26-3.9,5.84-3.52,3.29-7.61,5.83-12.39,6.91-3.45.78-6.84.74-9.56-2.06-.05-.03-.11-.08-.17-.12.03,1.65-.28,3.31.07,4.95.37,3.92,1.58,7.65,2.72,11.39,2.31,7.56,5,15,7.73,22.41.55,1.5,1.1,3,1.36,4.59.12.72.17,1.43-.09,2.13-.53,1.45-1.9,1.81-3.02.74-.45-.43-.76-1.02-1.1-1.56-2.38-3.8-4.35-7.81-5.94-12-.23-.59-.35-1.24-.82-1.74-.8.44-1.15,1.29-1.71,1.94-6.61,7.68-14.79,12.03-25.1,11.89-5.99-.08-11.25-2.21-15.84-5.96-4.97-4.06-8.28-9.25-10.05-15.41-.31-1.07-.85-2.4.51-2.95,1.42-.57,1.85.9,2.35,1.82,1.48,2.75,3.03,5.45,5.11,7.8,5.39,6.08,11.95,9.52,20.27,8.86,4.51-.36,8.48-2.16,12.07-4.84,3.43-2.56,6.21-5.73,8.78-9.12.99-1.3,1.26-2.48.61-3.94-.29-.65-.44-1.36-.71-2.18-.79.3-1.07.98-1.48,1.48-2.51,3.04-5.27,5.79-8.74,7.75-7.83,4.42-15.86,3.19-21.98-3.38-1.92-2.06-3.43-4.41-4.66-6.94-1.94-3.98-3.23-8.18-3.82-12.56-1.91-14-.33-27.58,5.29-40.61,2.23-5.17,5.07-9.97,9.01-14.05,3.28-3.39,7.01-6.04,11.68-7.16,4.34-1.04,8.39-.36,12.21,1.93,3.37,2.03,5.91,4.84,7.87,8.22,3.06,5.28,4.53,11.05,5.24,17.05.33,2.77.49,5.56.31,8.37.44,0,.69.05.91,0,2.43-.63,2.37-.63,2.25-3.19-.3-6.26-1.33-12.39-3.48-18.29-1.63-4.48-3.97-8.54-7.26-12.02-6.87-7.26-15.93-8.93-24.94-4.57-5.78,2.8-10.5,6.95-14.75,11.69-1,1.12-1.89,2.4-3.46,2.86-1.17-.73-1.32-1.7-.7-2.87.08-.14.15-.28.24-.42,5.73-8.62,12.95-15.44,23.15-18.38,9.01-2.59,17.07-.67,23.98,5.73,3.76,3.48,6.37,7.77,8.43,12.41,1.76,3.95,3.07,8.06,3.94,12.3.09.46.08.96.44,1.34Z"/>
  <path class="cls-12" d="m557.62,301.47c-1.08-.5-1.63-1.51-2.29-2.4-1.92-2.56-3.91-5.06-6.25-7.25-10.4-9.78-24.69-10.99-36.5-2.92-7.76,5.31-13.44,12.47-17.49,20.91-5.73,11.98-7.65,24.63-6.37,37.8.69,7.13,2.35,14.01,5.39,20.52,2.89,6.19,6.86,11.54,12.41,15.59,9.35,6.82,19.21,7.61,29.49,2.17,7.48-3.97,12.97-10.02,17.57-16.98.62-.93,1.18-1.91,1.89-2.77.88-1.08,2.02-1.33,2.96-.81.95.53,1.32,1.56.95,2.94-.16.61-.43,1.2-.71,1.77-3.29,6.69-7.75,12.48-13.53,17.2-6.25,5.12-13.41,8.04-21.51,8.34-7.79.29-14.79-2.12-20.99-6.83-5.32-4.05-9.24-9.25-12.35-15.1-5.36-10.09-7.72-20.91-7.81-32.28-.07-8.62,1.22-17.03,3.7-25.28.14-.46.23-.92.35-1.39,1.26-3.09,2.35-6.25,3.82-9.26,2.97-6.07,6.51-11.74,11.41-16.45,5.71-5.48,12.28-9.39,20.16-10.87,6.93-1.3,13.53-.34,19.73,3.02,6.69,3.63,11.92,8.8,15.7,15.41.55.97,1.01,2,1.41,3.04.39,1.02,0,1.71-1.13,1.87Z"/>
  <path class="cls-12" d="m551.74,329.2c-.07,10.43-1.93,20.49-6.27,30.02-2.1,4.62-4.83,8.82-8.55,12.33-2.28,2.16-4.82,3.93-7.75,5.12-5.59,2.27-10.93,1.76-16.04-1.39-3.62-2.23-6.34-5.33-8.49-8.96-3.61-6.08-5.5-12.72-6.42-19.67-1.58-11.93-.53-23.59,3.57-34.94,2.46-6.81,6.43-12.64,11.39-17.85,1.94-2.04,4.23-3.66,6.82-4.8,5.98-2.62,11.68-2.07,17.04,1.64,3.7,2.56,6.34,6.04,8.41,9.99,3.24,6.16,4.95,12.78,5.77,19.65.35,2.94.63,5.88.52,8.85Z"/>
  <path class="cls-43" d="m408.4,348.75c2.66,2.62,5.86,3.07,9.29,2.1,6.58-1.86,12.02-5.38,15.74-11.27.21-.33.31-.74.73-.9.81,1.18.56,2.44.14,3.63-1.41,4.05-3.61,7.64-6.94,10.36-3.59,2.93-7.84,3.68-12.35,2.94-2.62-.43-4.78-1.66-6.27-3.93-.61-.92-1.46-1.82-.33-2.94Z"/>
  <path class="cls-49" d="m458.46,418.49c1.08.15,2.05.19,2.97.43,1.7.44,2.85,1.87,2.88,3.42.03,1.54-1.08,3.13-2.75,3.53-2.48.59-4.94.36-7.19-.93-1.19-.68-1.84-1.78-1.69-3.2.16-1.54,1.15-2.46,2.57-2.81,1.07-.27,2.21-.3,3.2-.43Z"/>
  <path class="cls-36" d="m408.4,348.75c-.36,1.03.22,1.96.33,2.94-.83.7-.16,1.72-.52,2.52-.69-2.05-.77-4.16-.78-6.29.78-.14.8.43.97.84Z"/>
  <path class="cls-43" d="m434.27,337.68c-.18-.5-.07-.93.33-1.28.2.51.1.94-.33,1.28Z"/>
  <path class="cls-17" d="m380.51,331.53c.79-2.02,2.29-3.44,4.01-4.64,2.68-1.88,5.41-3.69,8.1-5.56,2.68-1.87,5.31-3.83,8.02-5.67.96-.65,1.06-1.27.44-2.16-.45-.66-.87-1.34-1.26-2.04-.93-1.67-.81-2.94.46-4.39.96-1.09,2.16-1.89,3.32-2.74.66-.48,1.18-.34,1.61.32.22.33.46.65.67.99q1.61,2.5-.32,4.52c.6,1.24,1.62,2.13,2.59,3.08,2.1,2.07,2.05,4.31-.25,6.15-2.06,1.64-4.22,3.12-6.52,4.44-4.28,2.46-8.25,5.41-12.35,8.42,1.93,1.68,4.01,2.95,5.27,5.05.53,1.88.55,3.73-.25,5.55-.34.49-.77.89-1.19,1.3-.86.8-1.69,1.63-2.5,2.48-.14.16-.29.31-.44.45-.07.07-.15.15-.22.22-.59.57-1.21,1.12-1.69,1.8-.09,1.88,1.81,1.83,2.69,2.76,1.1.8,2.3,1.49,3.08,2.66.48.83.93,1.68,1.13,2.63.14,1.1.17,2.21-.07,3.3-.2.71-.58,1.32-1.03,1.89-.79.84-1.57,1.7-2.59,2.28-1.02.49-2.12.79-3.1,1.38-3.47,1.28-6.61,3.3-10.1,4.53-2.22-1.81-3.54-4.26-4.73-6.79-2.37-5.04-3.29-10.45-3.89-15.93-.42-1.55-.1-3.14-.19-4.71-.08-1.41.77-1.97,2.04-2.1,1.53-.15,2.99.06,4.36.83,1.18.66,2.32,1.38,3.4,2.18,1.43,1.06,2.73,1.16,3.94-.28.16-.17.33-.32.5-.48.16-.16.33-.31.5-.45.4-.35.79-.73,1.17-1.12.51-.75,1.84-1.18.96-2.47-1.11-1.17-2.57-1.84-3.81-2.81-1.59-1.26-2.54-2.77-1.73-4.89Z"/>
  <path class="cls-20" d="m377.99,370.54c.12-.29.17-.77.35-.83,3.36-.97,6.13-3.28,9.54-4.11.08-.02.16-.02.24-.03,3.42-.71,6.98-.61,10.28-2.02,1.62-.7,1.82-.44,2.16.99-2.44,3.76-5.63,6.72-9.73,8.54-4.11,1.83-8.86,1.73-12.85-2.54Z"/>
  <path class="cls-8" d="m383.8,343.51c-2.96,3.47-2.42,2.68-5.27.91-.88-.55-1.71-1.18-2.61-1.71-.96-.57-1.96-1.07-3.1-1.21-2.8-.34-3.45.22-3.42,2.98.01,1.12-.02,2.23-.03,3.35-.88-1.72-.67-3.63-.34-5.32.48-2.49.2-5.03.79-7.51.23-.97.33-2.01.55-3.01.46-.76,1.22-1.08,1.72-.31,3.08,4.76,8.21,7.48,11.7,11.82Z"/>
  <path class="cls-15" d="m383.8,343.51c-.4-.03-.85-.07-1.08-.42-1.45-2.26-3.95-3.33-5.78-5.18-1.66-1.69-3.41-3.28-4.71-5.27-.48-.73-.94-1.28-1.86-.64-.17-1.01.31-1.92.48-2.88.45-.39.05-1.05.47-1.44h0c.47-.17.8.1.98.45,2.77,5.21,7.19,8.89,11.63,12.55.49.4,1.02.78,1.3,1.39-.17.47-.5.77-.95.96-.15.17-.34.29-.49.47h0Z"/>
  <path class="cls-35" d="m393.31,354.58c-.96-.8-1.91-1.59-2.87-2.39.05-.06.1-.12.15-.18,0,0,10.75-2.54,10.75-2.54.24.11.38.3.43.56.13.7-.19,1.45.25,2.11,0,.32,0,.64.01.96-.79.53-1.48,1.17-2.18,1.82-2.57,2.36-4.31,2.26-6.54-.34Z"/>
  <path class="cls-45" d="m385.24,342.07c-.4-.03-.8-.1-1.09-.41-1.86-1.95-4.17-3.38-6.13-5.19-2.37-2.21-4.33-4.79-5.88-7.65-.22-.41-.36-.89-.81-1.14-.08-.7.16-1.32.48-1.91,1.24-.24,1.36.86,1.76,1.55,2.72,4.71,6.46,8.39,11.01,11.31.69.44,1.3.94,2.16.46.53.26.71.68.36,1.15-.52.7-1.06,1.4-1.85,1.84Z"/>
  <path class="cls-50" d="m386.74,339.08c-.18.62-.19,1.8-1.21,1.02-2.57-1.95-5.32-3.69-7.57-6.04-2.13-2.24-4.04-4.64-5.3-7.5-.17-.38-.47-.63-.84-.8.09-.71.36-1.08,1.08-.56,1,.73,1.65,1.78,2.17,2.83,1.06,2.16,2.89,3.54,4.49,5.15.68-.46.2-1.39.96-1.65-.1,2.17.85,3.73,2.67,4.89,1.24.8,2.6,1.48,3.57,2.65Z"/>
  <path class="cls-5" d="m393.31,354.58c.33.2.67.39.98.62,1.59,1.18,3.23,1.13,4.63-.18.63-.59,1.25-1.2,1.83-1.83.43-.46.84-.26,1.28-.08.29,1.1.62,2.2.47,3.36-.78.24-1.37.72-1.86,1.37-.68.89-1.56,1.56-2.56,2.06-1.97.97-3.16.34-3.46-1.82-.05-.38.06-.79-.22-1.13l-1.09-2.36Z"/>
  <path class="cls-11" d="m394.4,356.94c.54.37.38,1,.55,1.5.5,1.44,1.39,1.82,2.75,1.06,1.31-.73,2.49-1.63,3.21-3.03.46-.9,1.05-.7,1.59,0,.18.79.59,1.54.44,2.4-1.97,1.53-3.81,3.39-6.53,3.41-.91,0-2.42.42-2.06-1.5.02-1.28.03-2.55.05-3.83Z"/>
  <path class="cls-31" d="m401.57,350.21c0-.15,0-.31-.01-.46-.45-.5-.62-1.1-.69-1.75-.67-1.7-2.07-1.21-3.22-.92-2.11.53-4.27.4-6.38.74-.69.11-1.69.25-1.76-.98h0c.24-.1.37-.3.5-.51.68-.9,1.47-1.67,2.45-2.25,1.46,1.3,3.12.62,4.72.48,1.62-.14,3.27-.69,4.74.53.05.11.09.22.14.33-.02,1.61-.04,3.22-.06,4.83-.16.2-.3.17-.43-.04Z"/>
  <path class="cls-22" d="m393.41,343.05c1.14-1.79,1.3-3.73.87-5.76.96.7.52,1.73.56,2.62.08,1.89.05,1.85,1.84,2.18,1.23.23,2.45.44,3.72.49,1.78.07,2.27,1.02,1.65,2.83,0,0-.03.02-.03.02-1.24-1.77-3.05-.79-4.6-.87-.93-.05-1.9.21-2.83,0-.73-.17-1.71-.27-1.18-1.5Z"/>
  <path class="cls-51" d="m400.57,364.55c-.08-.72-.49-.98-1.16-.75-.83.29-1.64.61-2.45.95-2.47,1.06-5.17.68-7.73,1.23-.32.07-.73-.26-1.1-.41.72-.96,1.96-.87,2.88-1.43,3-.48,5.89-1.46,8.87-2,.77-.14,2.07-.87,1.67,1.02-.19.56-.47,1.06-.99,1.38Z"/>
  <path class="cls-26" d="m394.35,360.77c.09.82.64.94,1.34.97,2.19.09,3.92-.89,5.49-2.27.51-.45.9-1.2,1.76-.61.04.3.08.6.11.9-.38,1.02-1.13,1.58-2.1,2.1-2.01,1.09-4.28,1.06-6.39,1.68-.73.21-1.71-.05-1.16-1.31.28-.51.42-1.11.94-1.46Z"/>
  <path class="cls-18" d="m393.41,362.23c.08.84.62,1.01,1.33.89,3.02-.5,6.02-1.07,8.31-3.36,0,0-.01.01-.01.01.21.35.22.7-.02,1.04v-.02c-.33.22-.21.69-.51.94-.19.57-.45,1.09-.96,1.44-.09-.5-.23-.98-.89-.72-2.56,1.01-5.32,1.22-7.93,2.01-.62.19-1.24.31-1.72-.31.8-.64,1.6-1.28,2.4-1.92Z"/>
  <path class="cls-13" d="m401.57,350.21c.14.01.29.02.43.04,0,.63.01,1.26.02,1.89-.67-.52-.4-1.26-.45-1.93Z"/>
  <path class="cls-45" d="m371.33,327.67c0,.53.09,1.09-.47,1.44,0-.53-.08-1.09.47-1.44Z"/>
  <path class="cls-26" d="m403.02,360.81c0-.35.01-.69.02-1.04.39.35.39.7-.02,1.04Z"/>
  <path class="cls-26" d="m402.52,361.73c0-.41.1-.76.51-.94.01.41-.16.73-.51.94Z"/>
  <path class="cls-17" d="m511.37,366.18c-2.11-2.13-3.45-4.76-4.58-7.47-2.61-6.24-3.98-12.75-4.01-19.53,1.39-1.68,2.92-2.03,4.98-.98,1.4.72,2.79,1.49,4.12,2.34.26.18-.06-.06.2.13,3.81,2.69,3.88,2.68,6.7-1.07.56-1.02,2.03-1.47,1.85-2.96-.14-.26-.33-.49-.55-.7-1.08-.9-2.28-1.64-3.36-2.55-1.18-1.41-1.52-2.99-.94-4.75.9-2.18,2.42-3.91,4.01-5.6,4.22-4.48,8.22-9.13,11.94-14.04.71-.93.84-1.58.11-2.49-.55-.68-1-1.44-1.44-2.2-.96-1.63-.8-3.23.37-4.67,1.06-1.31,2.44-2.3,3.75-3.33.59-.46,1.17-.46,1.71.08.62.62,1.25,1.24,1.82,1.9,1.56,1.82,1.59,1.86.14,3.7-.53.66-.41,1.1.04,1.66.71.86,1.39,1.74,1.79,2.81,1.03,2.79.18,5.12-1.66,7.26-4.22,4.9-8.24,9.97-12.73,14.64-.21.22-.36.5-.62.88,1.79,1.53,3.76,2.78,5.11,4.67.32.52.75.98.95,1.57.25,1.36.21,2.68-.43,3.94-.33.6-.76,1.13-1.13,1.7-.44.61-.99,1.12-1.51,1.66-.67.65-1.35,1.31-1.97,2.01-.75.9-1.41,1.86-2.18,2.73-.44.83.33,1.02.74,1.39.97.62,1.83,1.4,2.83,2,.96.71,1.98,1.34,2.98,1.99,1.04.84,1.83,1.84,2.13,3.18.12.74.1,1.48-.12,2.21-.37.97-.95,1.78-1.73,2.46-4.08,2.47-8.73,3.24-13.24,4.39-1.99.51-4.03.85-6.09,1.03Z"/>
  <path class="cls-37" d="m511.37,366.18c1.58-1.49,3.7-1.04,5.56-1.53,4.64-1.21,9.36-2.16,13.69-4.36,1.74-.95,3.67-1.02,5.56-1.05.82-.01,2.13-.06,1.64,1.54h0c-.21.17-.39.37-.42.65-1.72,3.11-4.06,5.67-6.89,7.78-6.69,4.96-14.15,3.76-19.14-3.04Z"/>
  <path class="cls-31" d="m520.57,335.79c.26.03.42.17.51.41.19,1.91-1.08,2.5-2.59,2.64-3.87.35-7.75.95-11.51-.77-1.3-.59-2.86-.16-4.19-.81,0-.96,0-1.92,0-2.88.35-.65.88-.87,1.58-.69,5.31,1.39,10.82,1.17,16.19,2.08Z"/>
  <path class="cls-32" d="m525.83,344.51c.47-.81,1.08-1.5,1.89-1.99,4.59.03,9.14-.24,13.63-1.29.86-.2,1.71-.36,2.58-.18.82.17,1.6.43,1.12,1.56-.03.68.08,1.4-.45,1.96-1.19-.25-2.31-.11-3.49.23-4.6,1.31-9.4,1.19-14.11,1.66-1.25.12-2.35-.37-1.16-1.96Z"/>
  <path class="cls-41" d="m520.57,335.79c-.52.71-1.31.62-1.98.5-4.29-.79-8.67-.76-12.97-1.42-.5-.08-.91-.27-1.28-.59-.55-.47-1.04-.11-1.54.11,0-.8,0-1.6,0-2.4.79-1.4,2.04-.97,3.19-.75,3.76.69,7.43,1.85,11.28,2.07,1.22.67,2.39,1.4,3.31,2.48Z"/>
  <path class="cls-38" d="m525.83,344.51c-.22.86-.26,1.64,1,1.39,2.34-.47,4.76-.17,7.05-.63,1.87-.38,3.8.03,5.62-.71.69-.28,1.48-.32,2.2-.72,1.27-.69,2.05-.41,2.9.75-.06.66.02,1.36-.5,1.9-3.11.14-6.1,1.11-9.2,1.32-3.02.21-6.03.5-9.05.66-.91.05-2.17.34-2.47-1.16.82-.94,1.37-2.1,2.45-2.8Z"/>
  <path class="cls-4" d="m517.26,333.31c-.74.94-1.74.64-2.65.46-3.19-.65-6.37-1.34-9.53-2.09-.86-.2-1.57-.08-2.29.32,0-.4-.04-.8,0-1.2.23-2.04.89-2.52,2.85-1.92,2.35.72,4.66,1.6,7.02,2.29,2.22.64,2.24.57,2.62-1.75.06-.34.23-.58.49-.77-.14,1.76.36,3.31,1.48,4.67Z"/>
  <path class="cls-47" d="m502.79,337.27c.92-.71,1.9-.19,2.72.09,2.2.75,4.52.75,6.74,1.3.6.15,1.32.16,1.89-.04,1.4-.48,2.82-.42,4.24-.38,1.48.04,2.46-.49,2.71-2.04.6.38.57.88.17,1.35-.64.75-1.34,1.45-2.01,2.18-1.96,3.04-4.63,2.39-7.36,1.4-1.33-.73-2.66-1.46-3.98-2.19-1.76-.97-3.48-1.11-5.12.25,0-.64,0-1.27.01-1.91Z"/>
  <path class="cls-2" d="m530.12,353.12c-1.16-.34-2.16-.93-2.9-1.91.93-.92,2.18-.9,3.33-1.1,3.52-.61,7.06-1.09,10.57-1.84,1.01-.22,2.72-.83,1.99,1.5,0,.41-.06.8-.41,1.08-2.85.4-5.41,1.8-8.2,2.42-1.48.33-2.95.78-4.37-.16Z"/>
  <path class="cls-1" d="m543.1,349.77c-.07-.59.14-1.33-.98-1.06-2.07.49-4.15.98-6.25,1.26-2.89.37-5.72,1.11-8.65,1.24-1.22-.24-1.94-1.24-2.85-1.94,1.83-1.31,4.01-.75,6-.99,3.85-.48,7.72-.73,11.52-1.61,1.28-.3,2.34-.12,1.69,1.66.01.54-.06,1.05-.48,1.44Z"/>
  <path class="cls-14" d="m543.58,348.33c-.09-.66.13-1.55-1.13-1.17-4.42,1.33-9.04,1.33-13.56,2.03-1.48.23-3.01.06-4.52.08-.4-.21-.82-.39-1.2-.64-.84-.57-.38-.97.21-1.32,1.63.99,3.37.46,5.07.35.55-.03,1.09-.3,1.63-.29,4.31.07,8.52-.6,12.69-1.61.8-.19,1.22-.14,1.33.72-.03.66,0,1.33-.52,1.85Z"/>
  <path class="cls-44" d="m545.05,342.62c-.43-1.69-1.78-1.03-2.73-.93-1.71.18-3.42.54-5.07,1-1.02.29-2.01.32-3.04.35-1.57.04-3.14-.15-4.69.39-.72.25-1.63.27-1.79-.9.32-.63.79-1.12,1.37-1.51,4.54-.06,9.01-.65,13.47-1.44.94-.17,1.91-.17,2.79.34.27.2.32.45.16.74-.07.68.1,1.41-.47,1.97Z"/>
  <path class="cls-6" d="m532.05,358.38c0-.8,0-1.6,0-2.4,2.86-1.11,5.09-3.45,8.12-4.23.7-.18,1.6-.98,1.99.42h0c-.37.27-.29.73-.45,1.1-.25,1.19-.7,2.28-1.48,3.22-2.02.33-3.71,1.64-5.75,1.95-.82.12-1.64.68-2.44-.06Z"/>
  <path class="cls-3" d="m542.16,352.17c-.12-.1-.28-.32-.34-.3-1.79.72-3.87.87-5.29,2.31-1.27,1.29-2.73,1.83-4.47,1.79-.37-1.14-1.3-1.9-1.94-2.87,4.02.2,7.55-1.57,11.23-2.77.64-.21,1.23-.57,1.34.5-.03.5-.08.99-.52,1.32Z"/>
  <path class="cls-19" d="m532.05,358.38c2.39-.53,4.84-.9,6.9-2.36.74-.53,1.14-.45,1.28.48v-.02c-.34.23-.24.69-.48.97h0c-.34.22-.22.68-.5.95-.29.91-.72,1.74-1.44,2.39-.49-1.64-1.86-1.06-2.75-.84-1.49.37-2.96.32-4.45.35.48-.64.96-1.28,1.43-1.92Z"/>
  <path class="cls-9" d="m545.52,340.65c-.02-.16-.05-.32-.07-.48-.31-.4-.61-.82-.83-1.28-1.35-.84-2.79-.44-4.18-.26-2.45.33-4.92.5-7.38.67-1.34.09-2.73-.21-1.92-2.21,2.84-.81,5.8-.71,8.7-.98,2.01-.19,4.05-1.14,6.07,0,.49.68.37,1.4.1,2.12-.13.81.23,1.72-.48,2.41Z"/>
  <path class="cls-21" d="m546,338.24c-.01-.64-.02-1.28-.03-1.92-.95-.81-2.02-.68-3.17-.56-3.79.4-7.57,1.07-11.41.89-.61-.22-.4-.92-.76-1.3-.2-.46-.52-.89-.5-1.43.92.68,1.9.98,3.09.99,2.96.03,5.86-.28,8.74-.87.31-.06.63-.12.94-.12,3.08.02,4.39.57,3.1,4.31Z"/>
  <path class="cls-6" d="m539.75,357.45c-.03-.42.06-.78.49-.97,0,.41-.11.75-.49.97Z"/>
  <path class="cls-3" d="m541.72,353.27c-.06-.46-.03-.88.45-1.12.02.44-.08.83-.45,1.12Z"/>
  <path class="cls-6" d="m539.26,358.4c-.02-.42.08-.77.5-.96,0,.41-.14.74-.5.96Z"/>
  <path class="cls-19" d="m537.4,361.44c0-.31.15-.52.42-.65,0,.31-.14.53-.42.65Z"/>
  <path class="cls-13" d="m401.55,347.83c0,.64,0,1.27,0,1.91-.39.05-.89-.05-1.16.16-3,2.21-6.6,1.69-9.96,2.29-1.2-.4-2.15-1.22-3.15-1.94-.95-.68-.33-1.14.3-1.55,3.74.29,7.35-.73,11.03-1.13,1-.11,2.03-.53,2.94.27Z"/>
  <path class="cls-46" d="m401.55,347.83c-3.86.57-7.73,1.1-11.59,1.74-1.05.18-1.87.19-2.38-.87.53-.74,1.1-1.43,1.92-1.87.32.42.8.64,1.25.49,2.41-.8,5.07.02,7.42-1.16,1.06-.53,1.99.22,2.95.42.5.1.39.78.41,1.25Z"/>
  <path class="cls-10" d="m393.41,343.05c.14,1,.89.93,1.61.93,1.89,0,3.78.03,5.67,0,1.05-.02,1.41.49,1.33,1.45-1.4-.78-2.95-.68-4.35-.33-1.49.37-2.95.21-4.42.33-1.31.11-.84-.73-.78-1.36.22-.43.48-.82.95-1.02Z"/>
  <path class="cls-8" d="m383.81,343.5l.49-.47c-.07.25-.23.41-.49.47Z"/>
  <path class="cls-46" d="m390.02,346.32c-.06.28-.23.45-.5.52.06-.28.23-.44.5-.52Z"/>
  <path class="cls-30" d="m530.63,335.35c.38.2.47.56.52.94.23.32.24.64-.01.96-.05.78.04,1.46,1.06,1.45.86,0,1.72-.04,2.59-.14,3.03-.34,6.06-.83,9.13-.81.72,0,1.47-.05,1.58.96-1.11.96-2.52.81-3.83,1.02-3.04.48-6.07,1.12-9.17,1.08-.92-.01-2.18.29-2.41-1.23.55-1.37.59-2.8.55-4.24Z"/>
  <path class="cls-48" d="m530.08,339.59c2.03,1.07,4.15.56,6.24.32,3.06-.35,6.11-.79,9.17-1.2-.01.48-.03.97-.04,1.45-2.25-.23-4.41.41-6.6.67-2.67.32-5.31.9-8.03.75-.64-.03-1.29.04-1.72-.59.16-.59.48-1.07.98-1.42Z"/>
  <path class="cls-24" d="m511.88,341.12c.63,0,1.3-.15,1.88.01,2.12.58,3.92.11,5.47-1.41-.02.07-.03.16-.08.22-3.95,4.81-2.91,4.25-7.28,1.18Z"/>
  <path class="cls-28" d="m531.13,337.24c0-.32,0-.64.01-.95,2.82-.24,5.66-.35,8.46-.82,1.4-.24,2.82-.08,4.23-.49.89-.26,1.92.1,2.13,1.34-3.24-.05-6.42.48-9.62.84-1.72.2-3.47.07-5.21.08Z"/>
</svg>