<?xml version="1.0" encoding="UTF-8"?>
<svg id="_图层_1" data-name="图层 1" xmlns="http://www.w3.org/2000/svg" viewBox="0 0 960 960">
  <defs>
    <style>
      .cls-1 {
        fill: #bab2b2;
      }

      .cls-1, .cls-2, .cls-3, .cls-4, .cls-5, .cls-6, .cls-7, .cls-8, .cls-9, .cls-10, .cls-11, .cls-12, .cls-13, .cls-14, .cls-15, .cls-16, .cls-17, .cls-18, .cls-19 {
        stroke-width: 0px;
      }

      .cls-2 {
        fill: #6f6c6c;
      }

      .cls-3 {
        fill: #f7b9a0;
      }

      .cls-4 {
        fill: #010101;
      }

      .cls-6 {
        fill: #466af6;
      }

      .cls-7 {
        fill: #a86861;
      }

      .cls-8 {
        fill: #b16b1f;
      }

      .cls-9 {
        fill: #c68877;
      }

      .cls-10 {
        fill: #fff;
      }

      .cls-11 {
        fill: #466af5;
      }

      .cls-12 {
        fill: #b7ceff;
      }

      .cls-13 {
        fill: #ebefef;
      }

      .cls-14 {
        fill: #454795;
      }

      .cls-15 {
        fill: #a5adad;
      }

      .cls-16 {
        fill: #ffd741;
      }

      .cls-17 {
        fill: #a96861;
      }

      .cls-18 {
        fill: #fffffe;
      }

      .cls-19 {
        fill: #5a7dff;
      }
    </style>
  </defs>
  <path class="cls-5" d="m712.33,318.43c-1.63-10.53-4.97-20.46-10.68-29.54-2.45-3.9-5.34-7.39-9.11-10.07-.98-.7-1.3-1.25-.82-2.51,1.92-5.01,1.91-10.14.57-15.31-1.05-4.04-3.25-7.2-6.65-9.65-4.23-3.05-8.92-4.54-14.09-4.72-6.25-.23-12.27,1-18.06,3.18-8.15,3.06-16.21,6.33-24.3,9.55-7.42,2.95-14.79,6.02-22.66,7.65-6.02,1.25-11.97,2.82-18.23,2.36-1.56-.11-2.43-.58-3.25-1.86-2.83-4.45-5.88-8.77-9.14-12.92-6.33-8.07-12.98-15.83-21.57-21.66.47-.63,1.17-.86,1.78-1.23,2.94-1.79,5.85-3.62,8.53-5.77,2.69-2.16,2.43-4.3-.63-5.85-1.08-.78-2.15-.32-3.18.09-2.81,1.14-5.63,2.26-8.4,3.5-11.36,5.09-22.79,10.02-34.77,13.51-2.24.65-4.42.93-6.8.74-7.17-.58-14,.7-20.07,4.85-1.01.69-2.06,1.15-3.28,1.36-5.9,1.02-11.87,1.36-17.83,1.8-4.55.15-9.09,0-13.6-.51-5.34-.6-10.56-1.73-15.17-4.72-3.9-2.53-4.99-5.72-3.56-10.09,1.17-3.57,3.44-6.44,5.74-9.31.47-.74,1.07-1.36,1.65-2.01,2.1-2.35,4.18-4.72,6.41-6.95,1-.99,2.05-2.19.38-3.56-1.45-.12-2.62.62-3.78,1.3-6.4,3.75-12.15,8.28-16.52,14.36-.68.94-1.44,1.37-2.55,1.5-2.95.36-5.78,1.2-8.57,2.18-9.78,3.45-18.34,8.98-26.24,15.57-2.68,2.24-5.49,3.9-8.86,4.94-5.85,1.82-11.15,4.84-15.78,8.86-3.99,3.47-4.25,7.65-.9,11.55.58.67.71,1.1.15,1.82-1.03,1.32-2.06,2.66-2.93,4.09-.72,1.18-1.58,1.56-2.95,1.44-8.19-.7-16.08-2.51-23.5-6.12-3.59-1.75-7.25-3.34-10.99-4.75-2.02-.76-4.06-1.43-6.21-1.77-5.39-.83-9.72,1.03-12.31,5.81-3.15,5.81-3.7,11.84-.47,17.87,2.22,4.14,5.13,7.72,8.93,10.51,7.03,5.18,14.69,8.98,23.35,10.59,1.51.28,3.11.36,4.59,1.17-3.88,9.02-6.86,18.21-9.69,27.44-.34,1.11-1.05,1.66-1.94,2.26-10.62,7.08-19.36,15.92-25.23,27.38-2.91,5.68-4.69,11.7-5.08,18.1-.54,8.87,1.57,17.12,5.65,24.93,4.13,7.92,9.92,14.47,16.59,20.31,2.47,2.16,4.96,4.29,7.43,6.43,1.84,1.66,3.79,3.16,5.89,4.48,9.86,6.2,20.36,11.1,31.29,15.02,30.79,11.04,62.75,15.38,95.29,16.18,4.79.12,9.58-.26,14.36-.37,9.84-.24,19.63-.99,29.37-2.19,17.16-2.12,34.12-5.32,50.66-10.44,16.22-5.02,32.12-10.81,46.41-20.28,1.69-1.2,3.36-2.43,5.07-3.58,6.5-4.39,12.55-9.33,17.68-15.28,10.05-11.64,15.72-24.84,13.98-40.57-.27-.51-.23-1.05-.08-1.57.07-.23-.12-.49.11-.68.09.31.28.54.53.73,1.73,3.17,3.65,6.22,5.83,9.1,5.33,8.45,13.08,13.05,22.94,13.52,12.36.58,23.8-9.14,28.76-18.83,2.05-4.15,4.35-8.18,5.84-12.59,5.59-16.58,7.31-33.51,4.63-50.83Zm-75.28,42.41c-2.18-3.24-4.56-6.31-7.09-9.29-4.55-5.35-10.3-9.21-15.9-13.27-.19-.14-.38-.3-.59-.4-1.89-.88-2.52-2.25-2.25-4.39.33-2.61-.22-5.23-.57-7.84-.25-2.66-.02-2.98,2.4-2.4,4.05.97,8.18,1.28,12.29,1.69,2.47.25,4.9-.56,7.38-.38,2.6.19,2.79.36,2.55,3-.97,10.61-.23,21.1,2.24,31.47.09.38.12.78.18,1.18.12.56-.12.73-.64.62Zm56.74-20.13c-.08,4-.39,7.98-1,11.94-.24,1.51-.69,2.95-1.32,4.34-1.43,3.18-4.27,4.79-7.73,4.34-2.28-.29-4.25-1.27-5.99-2.78-3.61-3.13-5.81-7.17-7.49-11.54-6.21-16.24-5.75-32.51-.09-48.78.22-.63.41-1.11,1.16-1.34,1.54-.47,2.92-1.29,4.24-2.2.76-.52,1.24-.44,1.78.28,1.11,1.46,2.27,2.91,3.12,4.54,3.8,7.29,7.74,14.51,10.35,22.36,2.04,6.13,3.13,12.38,2.97,18.84Z"/>
  <path class="cls-19" d="m442.9,220.64c1.9-2.56,4.23-4.74,6.44-7.02.72-.74,1.42-1.5,2.13-2.26.76-.83.82-1.69.09-2.57,4.36-2.11,9.04-3.11,13.76-3.94,6.55-1.16,13.17-1.53,19.81-1.51,7.12.02,14.24-.04,21.35.19,14.81.48,29.48,2.04,43.78,6.14,3.08.88,6.11,1.89,8.92,3.47,2.72,1.54,4.56,3.71,4.86,6.95-1.13.05-2.19.36-3.23.8-5.13,2.2-10.31,4.32-15.4,6.61-9.47,4.28-19.23,7.78-29.16,10.82-1.56.48-3.09.48-4.71.34-7.6-.65-14.82.46-21.11,5.22-.52.39-1.06.69-1.71.79-6.24.93-12.5,1.66-18.81,1.78-1.1-1.26-2.57-1.82-4.12-2.25-5.37-1.51-10.71-3.07-15.47-6.15-4.34-2.81-7.56-6.27-7.96-11.76-.14-1.95.54-3.75.55-5.65Z"/>
  <path class="cls-14" d="m333.76,436.61c.3.08.66.08.89.25,12.99,9.32,27.45,15.64,42.51,20.7,12.52,4.21,25.36,7.08,38.35,9.34,7.79,1.36,15.62,2.41,23.48,3.16,5.64.54,11.3.92,16.97,1.17,5.83.25,11.66.47,17.49.29,9.66-.3,19.31-.69,28.93-1.67,9.3-.95,18.54-2.23,27.72-3.92,18.75-3.45,37.02-8.54,54.61-15.96,6.85-2.89,13.51-6.21,19.94-9.95.74-.43,1.39-1.11,2.37-1.01-.37.95-1.27,1.4-1.97,2.02-12.43,10.89-26.48,19.23-41.39,26.22-20.2,9.46-41.39,15.64-63.47,18.66-35.94,4.92-71.12,1.86-105.38-10.39-21.35-7.64-40.47-18.97-57.02-34.55-1.44-1.36-3.03-2.59-4.04-4.36Z"/>
  <path class="cls-14" d="m650.16,387.16c2.64,3.09,5.47,5.98,8.87,8.25,9.21,6.14,18.65,6.16,28.18.88,5.4-2.99,9.48-7.45,13.07-12.4.51-.7.77-1.59,1.59-2.05-.14,3.01-1.31,5.74-2.37,8.48-2.21,5.75-5.85,10.37-10.9,13.96-12,8.55-27.81,4.4-35.02-7.51-1.79-2.95-3.2-6.08-3.42-9.61Z"/>
  <path class="cls-15" d="m643.77,379.58c-.65-1.12-.38-2.4-.83-3.74.92.65,1.28,1.37,1.39,2.23-.67.32-.23,1.06-.56,1.51Z"/>
  <path class="cls-3" d="m549.8,257.64c-1.11-4.25-4.03-6.99-7.68-9.09-.85-.59-.68-1.3.03-1.73,3.2-1.93,6.4-3.86,9.64-5.71.29-.17.62,0,.92.12,4.12,4.05,7.62,8.61,10.99,13.28,11.13,15.46,19.76,32.29,27.37,49.68,3.4,7.77,6.44,15.67,8.98,23.76.65,2.05,1.21,4.16,1.55,6.28.47,2.92,2,4.81,4.47,6.4,9.95,6.42,17.62,15.01,23.03,25.51,6.34,12.3,5.63,24.51-1.24,36.4-4.13,7.14-9.73,13.05-15.94,18.41-11.63,10.06-24.98,17.17-39.19,22.81-16.19,6.42-32.98,10.65-50.15,13.38-18.67,2.98-37.48,4.23-56.39,3.87-23.01-.44-45.78-2.79-68.11-8.6-15.36-4-30.28-9.17-44.23-16.86-7.72-4.25-15.14-8.96-21.6-15.03-3.86-3.63-7.29-7.63-10.09-12.14-7.93-12.73-8.18-25.75-1.29-38.96,3.25-6.23,7.72-11.55,12.8-16.36,2.2-2.09,4.48-4.1,6.74-6.13,1.97-1.76,3.29-3.96,3.94-6.47,4.1-15.82,10.87-30.53,18.69-44.78,4.27-7.78,9.07-15.24,14.53-22.26.81-.52,1.67-.44,2.54-.24,3.39.8,6.77.67,10.21.18,8.54-1.21,16.63-3.72,24.12-8.02,6.27-3.6,8.23-8.15,7.26-15.38-1.6-5.37-4.28-7.1-12.52-7.79,5.64-3.89,11.25-6.88,17.77-9.25-1.05,4.58-.16,8.51,2.02,12.18,1.44,3.01,1.49,6.52,3.63,9.31,2.18,2.84,4.63,5.22,7.85,6.86,6.6,3.35,13.6,4.81,20.94,5.37,11.66.89,23.09-.41,34.44-2.9,1.8-.39,3.4-.19,5.09.59,9.63,4.41,19.63,7.69,30.16,9.14,4.44.61,8.9.68,13.25-.87,6.38-2.27,8.49-6.67,6.03-12.92-.26-.67-.16-1.43-.57-2.04Z"/>
  <path class="cls-16" d="m641.83,325.79c.1-3.86.94-7.61,1.78-11.36,2.87.32,4.24-1.79,5.55-3.69,1.45-2.09,2.24-4.57,3.17-6.93,1.87-4.75,3.82-9.45,6.71-13.69,1.33-1.95,1.32-3.95.6-6.06,2.78-1.32,4.42-.63,5.17,2.26.61,2.38.33,4.76-.13,7.13-.84,4.31-2.22,8.5-2.86,12.85-2.19,14.78-1.53,29.31,3.92,43.4,2.02,5.23,4.8,9.9,9.37,13.34,2.83,2.13,6.02,3.3,9.54,3.45,5.76.25,10.4-2.87,12.5-8.24,1-2.56,1.36-5.25,1.62-7.96.77-8.15.8-16.27-1.2-24.29-.75-3.03-1.85-5.94-2.89-8.87-.51-1.29-.15-2.47.43-3.64,1.68-3.33,3.59-6.55,5.26-9.89.3-.59.54-2.24,1.93-.9,5.01,13.86,6.16,28.12,4.53,42.7-1.04,9.22-3.7,17.94-7.85,26.22-1.87,3.72-4.13,7.2-6.74,10.44-2.38,2.94-5.13,5.47-8.35,7.47-6.16,3.84-12.56,4.32-19.19,1.4-4.02-1.77-7.36-4.41-10-7.93.67-4.2-.26-8.26-1.35-12.24-1.69-6.16-3.33-12.32-4.14-18.67-.71-5.63-.88-11.28-.77-16.95.04-1.84-.05-3.67-.41-5.48-.59-2.97-1.72-3.87-4.79-3.71-.48.03-.95.11-1.39-.16Z"/>
  <path class="cls-17" d="m685.63,275.42c-1.12,2.49-2.56,4.79-4.33,6.85-2.57,2.96-5.49,5.57-8.39,8.21-.28.26-.58.57-1.17.48-.17-1.27-.3-2.59-.52-3.89-.36-2.16-1.14-4.15-2.58-5.84-2.91-3.42-7.24-4.06-10.95-1.41-3.46,2.46-6.6,5.29-9.09,8.79-3.32,4.65-5.93,9.67-7.87,15.03-.54,1.48-1.36,2.31-2.89,2.8-8.8,2.85-17.79,3.7-26.96,2.73-.16-.02-.32-.08-.47-.06-3.16.43-4.6-1.11-5.51-4.06-1.37-4.42-3.5-8.57-5.46-12.77-.76-1.63-.71-1.59.93-2.02,15.14-3.9,29.34-9.86,42.02-19.15.64-.47,1.25-1,1.85-1.53.84-.74.74-1.51,0-2.27,2.7-1.75,5.76-2.65,8.79-3.56,6.49-1.95,13.11-2.79,19.81-1.39,4.55.95,8.6,2.93,11.16,7.11.84,1.36,1.53,2.8,1.63,4.44-.03.5-.03,1.01.03,1.51Z"/>
  <path class="cls-17" d="m549.8,257.64c.9,1.65,2.24,3.06,2.43,5.08.42,4.37-1.66,7.39-5.24,9.45-2.5,1.44-5.3,2.12-8.22,2.31-6.56.42-12.82-1.15-19.11-2.64-6.79-1.62-13.16-4.37-19.52-7.13-1.14-.49-2.13-.75-3.41-.44-4.1,1-8.25,1.78-12.44,2.31-2.13.27-4.27.49-6.42.64-1.91.14-3.83.3-5.72.35-9.53.28-19-.21-27.99-3.84-3.32-1.34-6.59-2.87-9.2-5.48-3.08-3.08-5.3-6.57-5.68-11.03-.06-.71-.48-1.37-.31-2.11,4.39,5.93,10.76,8.28,17.63,9.58,8.36,1.58,16.79,1.86,25.28,1.18,4.62-.37,9.22-.84,13.79-1.54.91-.14,1.91-.45,2.61.59,2.19,3.27,5.57,4.62,9.14,5.7,5.13,1.55,10.41,2.43,15.66,3.4,6.68,1.22,13.16,3.3,19.76,4.85,2.5.59,5.02,1.03,7.59.74,4.01-.45,7.06-2.34,8.82-6.09.9-1.91.59-3.9.54-5.88Z"/>
  <path class="cls-3" d="m317.52,290.79c-2.05-1.98-3.51-4.35-4.42-7.02-1.37-4-.49-7.74,1.77-11.16,1.25-1.9,3.08-2.65,5.4-2.19,2.05.41,4.03,1.02,5.94,1.82,5.45,2.26,10.86,4.64,16.34,6.83,5.3,2.12,10.86,3.18,16.55,3.6.3.02.64-.06,1,.46-1.48,2.49-3.02,5.07-4.55,7.66-.56.68-1.14,1.35-2.06,1.53-3.35.65-6.64,1.77-10.06,1.94-7.16.36-14.3.11-21.34-1.53-1.66-.39-3.16-1.02-4.57-1.94Z"/>
  <path class="cls-3" d="m685.12,274.4c-.87-5.38-4.32-8.53-9.11-10.45-4.72-1.89-9.68-1.89-14.61-1.31-5.24.62-10.3,2.02-15.09,4.29-.68.32-1.39.29-2.09.38-1.95.25-3.58,1.3-5.24,2.21-11.56,6.29-23.76,10.95-36.5,14.2-1.86.47-3.74.83-5.66.96-.77.05-1.4-.09-1.81-.84-1.31-2.36-2.65-4.71-3.83-6.79-.06-.53.03-.65.24-.62,5,.66,9.86-.42,14.73-1.22,9.27-1.53,18.1-4.54,26.76-8.11,7.01-2.89,14.06-5.71,21.07-8.59,4.85-1.99,9.89-3.17,15.1-3.53,4.21-.29,8.27.28,12.04,2.41,3.05,1.72,4.99,4.18,5.62,7.63.58,3.19.62,6.35-.7,9.41-.31.29-.61.3-.9-.02Z"/>
  <path class="cls-10" d="m641.83,325.79c.88-.35,1.74-.82,2.73-.77,2.06.1,3.7,1.58,4.07,3.74.33,1.97.45,3.96.4,5.95-.31,12.37,1.35,24.47,5.12,36.27.51,1.6.81,3.25.98,4.91.17,1.58.26,3.16.7,4.72.29,1.02.34,2.13-1.14,2.39-4.68-5.49-7.79-11.81-9.88-18.66-3.73-12.23-4.46-24.74-3.27-37.4.04-.39.2-.76.3-1.15Z"/>
  <path class="cls-8" d="m702.29,302.71c-.38-.1-.72-.23-.98.27-2.09,4.03-4.19,8.05-6.32,12.06-.37.69-.23,1.4-.31,2.1-2.26-5.72-5.06-11.18-7.94-16.6-1.73-3.27-3.92-6.2-6.4-9.14,2.38-1.96,4.67-3.94,6.5-6.38.24-.32.54-.6.75-.93,1.44-2.29,1.45-2.09,3.18-.21,5.09,5.51,9.12,11.68,11.53,18.84Z"/>
  <path class="cls-14" d="m635.27,327.58c-.04-.7-.09-1.4-.15-2.37-8.18.74-16.25.45-24.07-1.75-.69.77-.06,1.55-.4,2.2-.09-.13-.27-.25-.27-.37-.1-3.61-1.16-7.03-2.06-10.57.97-.47,1.83-.06,2.6.1,6.6,1.39,13.15.83,19.7-.29,1.88-.32,3.74-.74,5.62-1.12.87-.18,1.45-.06,1.17,1.06-1.02,4.1-1.82,8.23-1.83,12.49,0,.21-.2.42-.3.63Z"/>
  <path class="cls-12" d="m442.9,220.64c.75,1.03.34,2.16.17,3.22-.14.88-.08,1.72-.04,2.6.24,5.44,3.72,8.55,7.87,11.24,4.69,3.04,9.99,4.53,15.29,5.97,1.42.39,2.64,1.07,3.84,1.87.68.46-.16.6-.12.92-7.18.26-14.33.06-21.34-1.78-2.55-.67-5-1.61-7.28-2.96-5.12-3.03-6.46-7.11-4.08-12.59,1.38-3.16,3.4-5.93,5.69-8.5Z"/>
  <path class="cls-17" d="m317.52,290.79c4.5,1.4,9.13,2.34,13.8,2.69,6.12.47,12.29.63,18.32-1.04,1.3-.36,2.6-.8,3.98-.79.79,0,1.29-.58,1.94-.87-2.27,4.37-4.54,8.74-6.8,13.11-.35.69-.69,1.11-1.63.98-10.41-1.49-19.77-5.35-27.84-12.17-.66-.55-1.39-1.07-1.75-1.91Z"/>
  <path class="cls-17" d="m421.7,249.96c1.8,5.29.44,10.33-3.73,13.68-5.13,4.13-11.17,6.45-17.38,8.23-5.18,1.49-10.5,2.6-15.97,2.6-2.43,0-4.68-.92-7.06-1.05.86-1.83,2.4-2.46,4.31-2.91,9.4-2.22,18.82-4.36,27.95-7.56,1.43-.5,2.84-1.07,4.21-1.73,4.73-2.26,7.99-5.55,7.67-11.26Z"/>
  <path class="cls-18" d="m659.65,284.07c1.63,1.58,1.61,3.33.53,5.19-.04.07-.06.15-.11.21-4.01,5.92-6.47,12.58-9.05,19.17-1.11,2.83-3.18,4.7-5.38,6.53-.94.78-1.24.63-2.04-.74,2.18-10.14,6.3-19.41,12.4-27.79.92-1.26,2.14-2.11,3.63-2.58Z"/>
  <path class="cls-7" d="m552.71,241.23c-2.46,1.45-4.92,2.91-7.38,4.34-.96.56-1.94,1.1-2.94,1.6-.74.37-.5.86-.27,1.39-4.04-2.15-8.43-3.4-12.86-4.58.04-.19.09-.38.13-.57,2.95-1.14,5.92-2.26,8.86-3.44,2.58-1.04,5.17-2.08,7.7-3.24,1.12-.52,1.92-.39,2.75.47,1.32,1.36,2.82,2.55,4.01,4.05Z"/>
  <path class="cls-1" d="m637.05,360.84c.21-.21.43-.41.64-.62.49.37.39.95.5,1.46.13.49-.09.63-.54.52-.19-.46-.66-.79-.6-1.36Z"/>
  <path class="cls-2" d="m637.65,362.2c.18-.17.36-.34.54-.52.45.5.56,1.04.21,1.66-.47-.27-.66-.67-.75-1.14Z"/>
  <path class="cls-9" d="m685.12,274.4l.9.02c.08.42-.08.74-.4,1-.46-.2-.55-.58-.51-1.03Z"/>
  <path class="cls-10" d="m558.12,287.97c6.08,5.08,9.53,11.64,10.89,19.37.5,2.82.89,5.67.89,8.54-.02,5.82-1.35,11.37-3.61,16.71-.8,1.89-1.69,3.73-2.69,5.92,2.42-.33,4.6-.25,6.77-.31,5.3-.13,10.5.62,15.59,2.01,5.62,1.54,10.43,4.37,13.75,9.35,1.27,1.91,1.79,4.03,1.97,6.31.47,5.93-1.68,11.14-4.4,16.16-4.24,7.82-10.41,14.03-16.91,20-6.21,5.71-13.07,10.48-20.26,14.78-5.63,3.37-11.74,5.77-17.8,8.22-12.02,4.86-24.51,8.1-37.23,10.4-5.95,1.08-11.93,1.94-17.95,2.61-8.48.94-16.97,1.51-25.48,2.02-5.37.33-10.67-.46-16-.17-.84-.94-.59-2.1-.59-3.19,0-1.76-.18-3.49-.65-5.18-.43-1.57-1.28-2.8-3.06-2.87-1.73-.06-2.7,1.07-3.42,2.51-.79,1.57-.24,3.5-1.42,4.95-.24.23-.33.52-.36.86-.23,2.47-.23,2.54-2.58,2.38-12.48-.86-24.95-1.89-37.07-5.28-7.38-2.07-14.64-4.51-21.61-7.74-9.02-4.18-17.41-9.45-25.31-15.41-5.3-4-10-8.76-13.33-14.58-4.05-7.08-4.63-14.46-1.27-22.03,3.52-7.92,9.45-12.88,17.94-14.73.39-.08.76-.26,1.13-.39.22-.12.46-.15.71-.09.36.09.71.23,1.05.38,8.81,4.17,18.18,5.69,27.82,6.44,6.23.48,12.24.14,18.22-1.58,1.96-.56,2.46-.06,2.74,2.15.74,5.93,1.03,11.93,2.47,17.77,2.27,9.21,5.52,18.01,10.5,26.12.84,1.37,1.8,2.65,3.05,3.66.66.53,1.45,1.34,2.3.58.7-.63.18-1.51-.22-2.2-1.63-2.85-2.96-5.84-4.31-8.82-4.58-10.12-7.69-20.63-8.42-31.77-.09-1.41-.73-2.82-.12-4.25.66-1.11,1.61-.69,2.55-.53,5.78.99,11.03-.2,15.92-3.51,3.47-2.34,4.8-5.36,4.02-9.4.89-2.35,1.43-4.75.99-7.27-.34-1.92.62-2.61,2.4-2.65,9.23-.22,18.38.27,27.26,3.08,1.3.41,2.6.8,3.99.67,1.12-.11,1.98-.62,2.39-1.71.41-1.1.05-2.04-.71-2.86-.85-.9-1.97-1.34-3.09-1.77-4.98-1.9-10.19-2.66-15.45-3.21-6.21-.65-12.43-.74-18.66-.24-2,.16-2.45-.31-2.26-2.33.12-1.25.14-2.58,1.21-3.52.74-1.09.43-2.33.35-3.48-.14-2.07.43-3.82,1.44-5.65,3.19-5.77,7.08-10.98,11.97-15.39,4.97-4.47,10.51-7.97,17.09-9.62,9-2.26,18.81,2.59,22.59,10.25.84,1.71,1.81,3.38,2.12,5.3.23,1.15-.69,1.71-1.28,2.41-4,4.72-7.56,9.66-9.48,15.69-1.59,5.01-1.29,9.8.93,14.46,3.68,7.72,9.7,12.93,17.92,15.14,17.57,4.72,34.95,3.75,52.05-2.49,3.77-1.38,7.36-3.09,10.91-4.94,1.22-.64,2.33-1.41,3.13-2.55.57-.82.94-1.71.43-2.69-.5-.97-1.44-1.19-2.43-1.26-1.24-.08-2.37.32-3.43.91-10.49,5.78-21.79,8.44-33.69,9.18-8.31.52-16.39-.59-24.41-2.55-4.38-1.07-8.24-3.16-11.31-6.43-5.66-6.04-6.25-12.26-1.99-19.77,3.97-7,9.43-12.64,16.05-17.18.19-.11.39-.2.59-.29.18-.09.36-.17.55-.24.25-.11.51-.2.75-.31.14-.09.28-.17.42-.26.12-.1.25-.2.38-.29.12-.1.26-.19.4-.26.13-.08.27-.16.41-.24.13-.1.26-.19.39-.28.12-.11.25-.21.38-.3.13-.1.27-.19.41-.27.2-.14.41-.27.6-.41.13-.1.26-.18.4-.26.2-.11.42-.2.62-.31.12-.09.25-.17.38-.25.11-.1.23-.19.36-.29.12-.1.25-.18.4-.24.21-.11.42-.21.64-.32.15-.07.31-.1.48-.12.27.02.49.12.66.33.08.16.09.32.06.49-.07.15-.17.29-.28.42-.12.12-.25.21-.39.3-.13.09-.27.16-.41.23-.13.08-.26.16-.39.25-.11.1-.24.19-.36.28-.12.1-.24.17-.38.24-.13.08-.26.15-.38.21-.12.08-.24.16-.36.25-.11.1-.23.19-.34.27-.11.09-.24.17-.37.23-.12.08-.25.15-.38.22-.12.09-.24.17-.36.25-.11.1-.23.19-.35.28-.12.1-.25.18-.39.25-.13.09-.27.16-.4.24-.13.1-.26.2-.38.3-.12.13-.24.25-.36.38-.06.07-.12.14-.17.21-.11.16-.23.31-.35.47-.06.09-.12.17-.18.25-.13.19-.27.35-.42.52-2.33,2.34-4.34,4.9-5.76,7.91-3.27,6.92-.89,14.24,5.96,17.72,5.73,2.91,11.83,3.62,18.18,2.68,10.47-1.55,19.88-5.27,27.37-13.06,1.85-1.92,3.34-4.09,4.47-6.49,2.98-6.36,1.26-12.95-4.56-16.89-5.16-3.49-11.03-3.93-17.04-3.53-.79.05-1.3.55-1.72,1.17-.68,1-1.51,1.87-2.43,2.64-2.82,2.36-6.07,2.45-8.98.24-.59-.44-1.11-.91-1.9-.84-.44.04-.87.11-1.3.23-.21.06-.43.1-.65.11-.47,0-.89-.11-1.12-.58-.02-.24.06-.45.21-.64.32-.38.66-.72,1.05-1.04,7.48-4.25,15.53-6.57,24.08-7.5,5.79-.64,11.48-.16,17.17.66,1.38.2,2.91.25,3.84,1.62Z"/>
  <path class="cls-5" d="m410.25,357.39c.52,12.78,3.58,24.93,8.96,36.51,1.35,2.9,2.66,5.81,4.27,8.57.55.94,1.27,1.98.16,3.02-.77.71-1.91.48-3.21-.63-1.65-1.42-2.94-3.16-4.02-5.04-6.23-10.88-10.2-22.51-11.6-34.98-.38-3.4-.67-6.82-1.01-10.37-1.58.42-3.11.82-4.64,1.23-2.48.66-5.01,1.17-7.56,1.15-8.8-.07-17.55-.74-26.1-3.03-3.72-1-7.27-2.4-10.66-4.21l-.16-.12c-.22-.1-.43-.19-.65-.29-.61-.6-1.24-1.19-1.84-1.8-.61-.62-1.13-1.33-1.42-2.16-.68-1.95.09-2.95,2.37-3.15.5-.15.96.01,1.37.26,5.92,3.6,12.61,4.39,19.26,5.27,5.16.68,10.36.49,15.55.56,4.48.05,8.7-1.03,12.85-2.55,1.11-.41,1.95-1.02,2.21-2.28,1.55-7.48,6.6-11.56,13.48-13.87,4.87-1.63,4.8-1.63,4.26-6.8-.26-2.54-.34-5.09-1.1-7.56-3.19-10.35-12.14-17.03-23.06-18.03-10.45-.95-20.08,1.77-29.66,5.24-1.09.39-2.15,1.17-3.41.5-.69-.13-1.51-.03-1.79-.91-.28-.89.18-1.55.81-2.1.6-.52,1.22-1.04,1.89-1.46,11.02-6.8,22.87-10.54,35.94-9.52,6.08.48,11.73,2.37,16.71,5.98,7.49,5.41,11.25,12.86,11.79,22.01.11,1.83.1,3.67.14,5.5-.26,1.71-.53,3.43-.81,5.28,2.57-.17,5.02-.44,7.48-.47,9.39-.11,18.68.66,27.72,3.43,1.14.35,2.29.71,3.33,1.33,2.01,1.18,2.78,3,2.05,4.81-.69,1.74-2.38,2.52-4.59,2.06-.86-.18-1.68-.5-2.52-.75-9.29-2.78-18.82-3.5-28.46-3.12-.31.01-.61.11-1.14.2,1.54,3.34.89,6.44-.82,9.43-.41,1.64-1.49,2.76-2.79,3.74-3.22,2.42-6.79,4.12-10.63,5.25-2.81.83-5.63,1.08-8.41-.44-.13,1.56.26,3.03-.57,4.32Z"/>
  <path class="cls-10" d="m364.91,302.82c5.23-1.71,10.31-3.86,15.71-5.08,7.5-1.69,15-2.22,22.55-.33,11.38,2.85,18.83,11.81,19.53,23.51.12,1.91.21,3.83.25,5.75.04,2.03,0,2.03-1.89,2.52-2.32.6-4.6,1.33-6.75,2.43-5.09,2.58-8.39,6.57-9.37,12.27-.2,1.18-.68,1.71-1.82,2.14-5.99,2.29-12.14,3.21-18.56,2.91-7.28-.35-14.53-.76-21.62-2.54-3.49-.88-6.9-2.03-9.79-4.32-1.38-9.13.79-17.7,4.11-26.09,1.89-4.77,4.29-9.24,7.64-13.17Z"/>
  <path class="cls-5" d="m500.34,301.75c-6.42,4.38-11.81,9.75-15.87,16.4-1.09,1.78-1.92,3.68-2.58,5.66-1.32,3.98-.81,7.71,1.47,11.22,2.91,4.49,6.99,7.43,12.05,8.98,7.32,2.24,14.85,3.21,22.48,3.11,10.15-.13,20-2.08,29.46-5.81,2.46-.97,4.82-2.12,7.1-3.45,1.25-.74,2.57-1.29,4.08-1.18,2.6.2,3.8,2.25,2.64,4.59-.67,1.35-1.85,2.16-3.12,2.89-5.43,3.13-11.22,5.39-17.2,7.2-14.8,4.48-29.74,4.71-44.77,1.3-8.44-1.92-15.03-6.44-19.42-14.03-3.47-6-4.03-12.17-1.5-18.65,2.06-5.29,5.16-9.9,8.94-14.09.64-.71,1.25-1.44,1.87-2.16,4.77-4.62,9.91-8.76,15.55-12.26,8.33-5.17,17.15-9.16,26.85-11,8.36-1.59,16.67-1.32,24.92.67,1.71.41,3.36,1,4.93,1.8.64.33,1.28.67,1.85,1.09,1.26.95,1.72,2.11,1.22,3.06-.6,1.15-1.64,1.08-2.71.86-.15-.03-.31.01-.47.02-5.41-1.63-10.99-2.02-16.58-1.88-9.89.24-19.21,2.81-27.97,7.4-.27.14-.52.34-.78.52-.19.4-.65.3-.95.5l-.03.02c-1.14,1.32-2.64,1.98-4.29,2.38h0c-.18.38-.65.25-.89.54l-.04.02c-.15.18-.33.3-.56.35l.08.12-.09-.12c-.13.44-.62.31-.87.56h-.01c-.43.4-.95.65-1.43.96h-.01c-.14.2-.26.42-.56.38l.08.12-.09-.12c-.1.46-.62.31-.84.59l-.03.02c-.15.17-.28.37-.54.39-.13.4-.64.25-.82.58l-.07.04c-.17.13-.34.27-.52.4Z"/>
  <path class="cls-4" d="m436.51,426.14c.17-1.49.24-3.01.54-4.48.52-2.51,2.31-3.95,4.46-3.77,2.04.16,3.57,1.72,3.79,4.2.23,2.6.24,5.22.35,7.82-.14,1.02-.23,2.04-.42,3.05-.46,2.45-2.17,4.09-4.25,4.1-2.07.01-3.8-1.59-4.29-4.06-.28-1.41-.16-2.84-.11-4.26.03-.86-.05-1.73-.08-2.6Z"/>
  <path class="cls-5" d="m512.98,295.14c.16.05.28,0,.36-.14.26-.23.68-.1.9-.41,1.08-.24,1.9-.82,2.86.77,1.01,1.69,3.28,2.06,5.22,1.44,2.47-.78,4.72-2.08,5.61-4.77.23-.69.58-.83,1.19-.87,5.57-.36,11.04-.02,16.14,2.55,4.47,2.26,7.46,5.7,8.18,10.81.41,2.95-.3,5.72-1.53,8.37-1.73,3.69-4.33,6.72-7.48,9.25-7.42,5.96-15.92,9.33-25.35,10.43-4.67.55-9.25.22-13.77-1.05-2.17-.61-4.19-1.55-6.03-2.86-5.05-3.6-6.98-9.27-5.23-15.22,1.02-3.46,2.98-6.34,5.45-8.91.61-.63,1.23-1.25,1.84-1.88.18-.1.33-.23.45-.39l.05-.04c.16-.14.32-.28.49-.41h.01c.13-.21.3-.34.52-.42h0c.13-.4.64-.25.81-.58l.07-.04c.16-.14.33-.26.51-.37h0c.18-.35.66-.21.85-.54l.08-.04c.16-.15.33-.26.53-.35h.01c.17-.4.64-.27.88-.54l.04-.02c.14-.19.32-.31.54-.36h.02c.11-.45.62-.3.83-.59l.04-.03c.14-.17.32-.3.53-.38l.03-.02c.98-1.65,2.63-2.08,4.34-2.4Z"/>
  <path class="cls-17" d="m410.25,357.39v-4.74c.17-.08.35-.23.43-.19,3.16,1.55,6.35,1.19,9.54.13,4.84-1.61,9.21-3.97,12.43-8.08,1.36,2.85.63,5.33-1.52,7.38-5.51,5.24-11.96,7.34-19.49,5.56-.47-.11-.91-.29-1.38-.07Z"/>
  <path class="cls-13" d="m512.98,295.14c-1.38.93-2.84,1.7-4.34,2.4-.25-.42-.69-.52-1.12-.63,1.27-1.09,2.71-1.86,4.29-2.38.27.44.73.51,1.17.61Z"/>
  <path class="cls-13" d="m503.71,299.34c.33-.53.82-.83,1.43-.95-.23.69-.7,1.02-1.43.95Z"/>
  <path class="cls-13" d="m502.3,300.32c.14-.4.45-.55.84-.59-.06.51-.41.61-.84.59Z"/>
  <path class="cls-13" d="m505.11,299.86c-.17.35-.46.53-.85.53.13-.43.43-.56.85-.53Z"/>
  <path class="cls-13" d="m500.92,301.31c.14-.38.43-.55.82-.58-.08.46-.4.59-.82.58Z"/>
  <path class="cls-13" d="m506.61,298.93c-.16.39-.49.52-.88.53.12-.46.46-.57.88-.53Z"/>
  <path class="cls-13" d="m508.04,297.96c-.14.39-.45.54-.83.57.07-.49.41-.6.83-.57Z"/>
  <path class="cls-13" d="m505.16,298.39c.15-.4.48-.53.87-.56-.09.5-.44.6-.87.56Z"/>
  <path class="cls-13" d="m503.67,300.82c-.15.36-.42.55-.81.57.08-.46.4-.59.81-.57Z"/>
  <path class="cls-13" d="m506.63,297.45c.17-.39.49-.53.89-.53-.13.45-.46.57-.89.53Z"/>
  <path class="cls-13" d="m514.25,294.59c-.22.31-.51.48-.9.41.2-.37.51-.47.9-.41Z"/>
  <path class="cls-13" d="m511.84,294.51c.19-.41.55-.49.95-.5-.14.5-.5.58-.95.5Z"/>
  <path class="cls-13" d="m503.15,299.73c.07-.29.28-.39.56-.37-.09.27-.26.41-.56.37Z"/>
  <path class="cls-13" d="m501.73,300.73c.06-.29.26-.41.54-.39-.08.26-.26.4-.54.39Z"/>
  <path class="cls-13" d="m504.26,300.4c-.06.28-.24.39-.51.37.08-.25.25-.38.51-.37Z"/>
  <path class="cls-13" d="m505.72,299.47c-.07.28-.26.38-.53.35.09-.25.26-.38.53-.35Z"/>
  <path class="cls-13" d="m500.34,301.75c.06-.28.23-.41.52-.4-.08.26-.25.39-.52.4Z"/>
  <path class="cls-13" d="m502.86,301.4c-.05.29-.24.41-.52.41.07-.27.24-.41.52-.41Z"/>
  <path class="cls-13" d="m502.32,301.82c-.05.28-.21.41-.49.41.06-.26.22-.4.49-.41Z"/>
  <path class="cls-13" d="m501.78,302.27c-.03.27-.18.41-.45.39.05-.24.2-.38.45-.39Z"/>
  <path class="cls-13" d="m507.19,298.55c-.07.29-.27.38-.54.36.09-.25.26-.39.54-.36Z"/>
  <path class="cls-13" d="m506.04,297.82c.07-.29.28-.38.56-.35-.1.26-.27.39-.56.35Z"/>
  <path class="cls-13" d="m508.61,297.56c-.06.29-.26.39-.53.38.09-.25.26-.39.53-.38Z"/>
  <polygon class="cls-3" points="354.7 349.48 354.85 349.45 354.86 349.6 354.7 349.64 354.7 349.48"/>
  <path class="cls-5" d="m396.37,330.5c-5.98-.01-11.74-1.1-17.15-3.73-2.9-1.41-5.53-3.2-7.62-5.69-5.14-6.1-4.14-13.61,2.51-17.97,5.36-3.51,11.42-4.29,17.67-4.09.7.02.91.37,1.02,1.03.49,2.86,2.75,3.53,5.11,3.83,2.12.27,3.99-.35,4.86-2.58.26-.67.56-.78,1.24-.59,4.54,1.26,8.7,3.18,12,6.64,5.77,6.04,5.08,13.43-1.69,18.3-4.5,3.23-9.66,4.45-15.07,4.85-.95.07-1.92,0-2.87,0Z"/>
  <path class="cls-6" d="m506.57,324.44c.68-1.99,2.19-3.29,3.86-4.37,4.16-2.71,8.81-4.1,13.67-4.85,1.34-.21,2.7-.27,4.06-.35,1.05-.06,2.15.03,3.06.47,2.02.98,4.12,1.71,6.23,2.45.28.1.5.36.76.55-7.23,6.87-24.83,9.68-31.63,6.11Z"/>
  <path class="cls-11" d="m377.91,317.71c.93-1.23,2.16-1.64,3.39-1.93,4.74-1.1,9.36-.59,13.81,1.32,1.57.67,2.85,1.75,3.67,3.3.43.8.54,1.66.5,2.55-.03.82-.31,1.37-1.27,1.35-7.17-.12-13.92-1.64-19.76-6.08-.12-.09-.18-.26-.35-.51Z"/>
</svg>