<?xml version="1.0" encoding="UTF-8"?>
<svg id="_图层_1" data-name="图层 1" xmlns="http://www.w3.org/2000/svg" viewBox="0 0 960 960">
  <defs>
    <style>
      .cls-1 {
        fill: #f7b9a0;
      }

      .cls-1, .cls-2, .cls-3, .cls-4, .cls-5, .cls-6, .cls-7, .cls-8, .cls-9, .cls-10, .cls-11, .cls-12, .cls-13, .cls-14, .cls-15 {
        stroke-width: 0px;
      }

      .cls-2 {
        fill: #838989;
      }

      .cls-4 {
        fill: #b16b1f;
      }

      .cls-5 {
        fill: #fff;
      }

      .cls-6 {
        fill: #939090;
      }

      .cls-7 {
        fill: #b7ceff;
      }

      .cls-8 {
        fill: #91242d;
      }

      .cls-9 {
        fill: #d45861;
      }

      .cls-10 {
        fill: #cacfcf;
      }

      .cls-11 {
        fill: #454795;
      }

      .cls-12 {
        fill: #ffd741;
      }

      .cls-13 {
        fill: #a96861;
      }

      .cls-14 {
        fill: #fffffe;
      }

      .cls-15 {
        fill: #5a7dff;
      }
    </style>
  </defs>
  <path class="cls-3" d="m712.79,320.02c-1.52-10.61-4.68-20.68-10.28-29.91-2.64-4.35-5.73-8.29-9.94-11.21-1.08-.75-.95-1.41-.57-2.37,1.48-3.81,1.76-7.78,1.22-11.79-.57-4.27-1.79-8.32-5.14-11.32-4.1-3.67-8.81-5.92-14.39-6.4-7.01-.6-13.72.69-20.2,3.1-7.93,2.94-15.76,6.17-23.61,9.3-7.27,2.9-14.47,5.96-22.16,7.62-6.47,1.4-12.89,3.13-19.63,2.59-1.05-.08-1.77-.3-2.35-1.24-1.09-1.77-2.23-3.51-3.48-5.16-.8-1.06-.84-1.73.07-2.84,2.76-3.38,2.45-7.47-.59-10.61-.95-.98-2.03-1.82-3.26-2.42-2.15-1.05-4.24-2.42-6.58-2.83-4.47-.78-7.87-3.05-10.87-6.32-1.81-1.98-4.11-3.47-6.64-5.05.87-.53,1.46-.89,2.05-1.25,3.01-1.82,6-3.68,8.71-5.92,2.23-1.85,2.11-3.59-.23-5.47-1.15-1.21-2.41-.53-3.56-.11-4.57,1.7-9.07,3.57-13.51,5.6-20.04,9.14-40.82,15.75-62.69,18.79-9.54,1.32-19.1,1.37-28.69.92-4.28-.43-8.48-1.28-12.37-3.14-3.09-1.48-6.12-3.13-6.96-6.93-.32-.85-.24-1.69-.08-2.57.67-3.9,2.73-7.11,5.12-10.12,2.72-3.42,5.65-6.67,8.73-9.78.69-.7,1.71-1.27,1.55-2.52-.55-1.54-.88-1.79-2.1-1.43-.61.18-1.19.47-1.74.78-5.76,3.24-11.08,7.1-15.18,12.3-1.99,2.53-4.12,3.88-7.32,4.51-8.1,1.58-15.33,5.37-22.17,9.89-1.54,1.02-3.02,1.47-4.89,1.38-6-.3-11.98.09-17.88,1.35-3.86.82-7.56,2.03-10.76,4.45-2.01,1.52-3.66,3.33-4.49,5.77-1.22,3.61.19,6.96,3.62,8.6,1.94.93,4,1.03,6.09,1,.75-.01,1.52-.23,2.29.02-.09.32-.09.5-.18.61-4.37,5.1-8.53,10.37-12.33,15.91-.6.87-1.3,1-2.25.92-3.59-.29-7.13-.9-10.65-1.63-5.27-1.09-10.2-3.14-15.05-5.43-4.76-2.26-9.56-4.45-14.76-5.55-5.38-1.14-9.97.72-12.67,5.5-3.3,5.84-3.86,11.94-.63,18.08,2.35,4.46,5.56,8.19,9.68,11.1,6.72,4.76,13.95,8.37,22.11,9.91,1.33.25,2.65.58,3.99.79,1.04.17,1.07.64.71,1.49-.99,2.36-1.96,4.72-2.86,7.11-2.32,6.21-4.37,12.51-6.31,18.85-.3.98-.59,1.89-1.64,2.5-5,2.93-9.28,6.78-13.37,10.84-5.61,5.57-10.19,11.89-13.41,19.13-3.81,8.56-5.07,17.44-3.27,26.69,2,10.25,6.97,18.97,13.83,26.7,4.58,5.17,9.83,9.59,15.31,13.77,1.02.77,1.99,1.61,2.98,2.41,6.33,5.3,13.76,8.7,21.16,12.07,13.06,5.95,26.69,10.21,40.67,13.41,19.2,4.4,38.67,7.02,58.33,7.72,18.84.67,37.66-.17,56.39-2.7,28.05-3.79,55.2-10.67,80.82-22.92,4.81-2.3,9.68-4.6,13.77-8.15,1.11-.77,2.21-1.57,3.35-2.32,5.89-3.88,11.33-8.3,16.24-13.38,4.35-4.51,7.96-9.55,10.88-15.11,4.23-8.05,6.01-16.61,5.51-25.66-.42-.99-.11-2.02-.2-3.03.1-.35-.23-.65-.11-1.02.19.27.47.47.74.67,1.44,2.39,2.87,4.79,4.31,7.18.6.56.56,1.44,1.08,2.07,6.43,7.76,14.01,13.41,24.7,12.88,11.93-.59,20.05-7.23,26.14-16.92,2.58-4.41,5.11-8.86,6.79-13.71,5.62-16.28,7.52-32.96,5.07-50.05Zm-75.15,41.69c-4.9-7.77-10.87-14.52-18.51-19.72-2.17-1.48-4.25-3.09-6.42-4.57-.94-.64-1.38-1.26-1.25-2.53.37-3.59-.31-7.14-.79-10.69-.48-1.59.52-1.93,1.66-1.66,5.06,1.19,10.2,1.48,15.36,1.77,1.6.09,3.15.13,4.74-.06,1.19-.14,2.57-.58,3.33.94-1.4,12.15-.51,24.15,2.39,36.01.14.5-.07.62-.52.5Zm56.43-19.62c-.37,4.06-.4,7.83-1.18,11.52-.25,1.18-.61,2.32-1.08,3.42-1.58,3.66-4.89,5.26-8.77,4.34-2-.47-3.7-1.42-5.23-2.77-3.58-3.17-5.73-7.24-7.38-11.61-5.74-15.16-5.73-30.44-.87-45.81.22-.68.5-1.35.66-2.05.27-1.17.78-1.91,2.06-2.31,1.27-.4,2.44-1.18,3.57-1.92.8-.53,1.26-.34,1.79.34,1.13,1.45,2.28,2.9,3.13,4.53,4.06,7.78,8.26,15.5,10.85,23.96,1.87,6.1,2.67,12.32,2.46,18.35Z"/>
  <path class="cls-15" d="m564.91,220.52c-1.58-.41-2.98.24-4.36.84-6.74,2.89-13.43,5.9-20.21,8.7-15.67,6.48-31.78,11.52-48.51,14.41-11.12,1.93-22.32,2.76-33.61,2.04-.63-.04-1.29.08-1.86-.3-4.06-3.46-7.22-7.54-9.18-12.56-1.01-2.57-1.36-5.22-1.68-8.12-1.14.41-1.86,1.19-2.53,2.03-1.77,2.25-3.67,4.41-5.03,6.96-.27.51-.49,1.25-1.36,1.03-.68-2.47.19-4.7,1.2-6.86,1.57-3.34,3.83-6.22,6.26-8.95,1.8-2.02,3.69-3.94,5.57-5.88.99-1.03,2.01-2.03,2.84-3.2.3-.1.63-.15.9-.3,7.32-4.02,15.31-5.88,23.42-7.44,17.75-3.41,35.67-4.36,53.68-3.7,7.19.27,14.34,1,21.35,2.77,2.1.53,4.11,1.27,6.04,2.27,5.01,2.57,9.77,8.87,7.07,16.26Z"/>
  <path class="cls-11" d="m337.16,438.98c2.01.62,3.56,2.06,5.32,3.11,11.85,7.09,24.5,12.36,37.63,16.56,12.18,3.89,24.64,6.59,37.25,8.71,8.26,1.39,16.57,2.45,24.91,3.19,10.9.96,21.84,1.25,32.79,1.09,10.06-.14,20.08-.84,30.1-1.86,18.62-1.9,36.93-5.39,54.87-10.71,16.36-4.85,32.14-11.09,46.78-20,.46-.28.89-.7,1.5-.67-3.28,4.37-7.27,8.04-11.42,11.54-12.22,10.31-26.07,17.83-40.9,23.64-15.77,6.19-32.11,10.13-48.87,12.48-14.36,2.02-28.79,2.73-43.27,2.25-27.45-.91-54.11-5.82-79.64-16.23-14.55-5.93-27.96-13.71-39.39-24.63-2.76-2.64-5.58-5.24-7.66-8.5Z"/>
  <path class="cls-11" d="m649.02,385.75c1.01.79,1.67,1.89,2.5,2.85,3.75,4.33,8.03,8.03,13.47,10.02,9.03,3.31,17.41,1.57,25.13-3.81,3.95-2.75,7.19-6.28,10.05-10.15.23-.32.37-.71.77-.88-2.65,11.74-8.73,20.59-20.62,24.56-.76.25-1.53.46-2.28.72-5.6,1.99-10.96,1.21-15.79-2.01-7.57-5.06-11.74-12.39-13.22-21.3Z"/>
  <path class="cls-10" d="m644.31,377.57c.14.33.47.58.4,1-.83,1.04.04,2.3-.43,3.38-.49-1.06-.38-2.22-.53-3.34-.13-.52-.36-1.09.56-1.04Z"/>
  <path class="cls-1" d="m516.19,261.46c1.21,4.11,4.34,5.69,8.24,6.25.58.42,1.3.62,1.82,1.14,3.2,3.15,7.17,3.31,11.33,3.16,10.8-.39,21.63-1.4,32.39.53,1.88.34,3.82-.34,5.63.49l.06.07c.31.18.28.58.52.81,9.9,17.61,18.25,35.9,24.4,55.16.65,2.05,1.07,4.18,1.49,6.29.41,2.08,1.38,3.73,3.25,4.79,7.4,4.18,12.96,10.37,18.16,16.87,5.23,6.53,8.8,13.87,9.92,22.28.92,6.89-.53,13.35-3.31,19.6-1.93,4.35-4.61,8.22-7.65,11.85-7.89,9.45-17.46,16.86-28.07,22.97-14.93,8.6-30.98,14.41-47.61,18.67-17.87,4.58-36.04,7.13-54.44,8.25-16.39.99-32.77.76-49.12-.6-25.64-2.13-50.58-7.36-74.44-17.24-10.45-4.33-20.32-9.73-29.46-16.42-6.45-4.72-12.01-10.3-16.39-17.01-8.3-12.71-8.89-25.86-2.01-39.34,3.04-5.97,7.23-11.12,12.01-15.77,2.46-2.4,5.04-4.67,7.6-6.97,2.02-1.82,3.43-4.04,4.08-6.65,2.84-11.38,7.41-22.11,12.42-32.65,7.53-15.81,16.83-30.5,28.35-43.73.57-.66,1.07-1.4,1.86-1.85,3.82-1.29,7.72-.71,11.58-.4,3.58.29,7.02,1.5,10.55,2.11,8.55,1.47,11.6-.27,14.67-8.24.2-.52.26-1.09.59-1.55.3-.47.64-.92.91-1.4,1.94-3.49,1.02-7.13-2.35-9.36-1.94-1.28-4.01-2.26-6.3-2.76-1-.22-1.98-.5-3.51-.88,4.5-2.86,8.82-4.98,13.85-6.72-.82,4-.38,7.56,1.34,10.92.34,1.32.48,2.65.59,4.01.42,5.26,2.94,9.44,7.09,12.55,8.35,6.26,17.9,9.36,28.23,10.2,16.4,1.32,31.58-3.39,46.48-9.43,1.04-.42,2.06-.86,3.13-1.2,1.15-.36,1.83.07,2.12,1.21Z"/>
  <path class="cls-12" d="m703.24,305.16c2.02,5.34,3.15,10.89,3.78,16.53,1.22,10.77,1.1,21.53-1.34,32.15-2.33,10.15-6.28,19.58-12.75,27.85-2.33,2.98-5.02,5.57-8.18,7.66-7.08,4.68-14.33,4.81-21.74.86-2.93-1.56-5.39-3.71-7.54-6.21-4.32-5.02-7.43-10.75-9.65-16.97-.13-.37-.15-.78-.22-1.17,1.11-.08,1.41.89,1.93,1.53.55.68.94,1.48,1.56,2.11.51.53,1.1.99,1.89.66.78-.33.91-1.05.9-1.8,0-1.92-.34-3.82-.66-5.69-.52-2.98-1.09-5.95-1.77-8.9-.38-1.66-.62-3.67-2.99-3.71-1.53-.03-2.38,1.58-2.5,4.28-.04,1,.26,2.1-.69,2.89-1.17-3.84-1.43-7.83-1.72-11.79-.81-11.14.06-22.16,2.78-33.01.23-.91.3-1.89.91-2.68,1.26,2.08.17,4.21,0,6.26-.25,2.85-.31,5.72-.66,8.57-.28,2.33.41,4.61,1.81,6.55,1.14,1.59,2.2,1.61,3.47.08,1.99-2.39,2.51-5.38,2.75-8.29.85-10.19,3.39-19.92,7.08-29.42,1.47-3.8,1.11-4.62-2.32-7.69.83-.88,1.88-1.45,2.98-1.91,2.18-.91,3.74-.21,4.53,2.01.68,1.93.66,3.92.36,5.92-.35,2.37-.93,4.69-1.53,7.01-3.12,12.23-3.65,24.61-1.62,37.05.97,5.91,2.76,11.64,5.24,17.11,1.84,4.07,4.46,7.54,8.06,10.24,2.83,2.12,6.01,3.28,9.54,3.39,6.03.19,10.66-2.98,12.63-8.69,1.48-4.28,1.61-8.77,1.86-13.23.46-8.3-.57-16.41-3.32-24.27-.47-.76.02-1.41.33-2,1.81-3.46,3.2-7.1,4.72-10.69.43-1.02.59-2.39,2.08-2.64Z"/>
  <path class="cls-13" d="m682.62,281.08c-2.97,3.98-6.77,7.12-10.76,10.73-.07-1.2-.12-1.95-.16-2.7-.15-2.7-.89-5.2-2.58-7.35-2.93-3.73-7.39-4.42-11.26-1.66-3.8,2.71-7.14,5.88-9.78,9.78-2.97,4.4-5.38,9.08-7.14,14.07-.51,1.44-1.31,2.18-2.74,2.64-8.01,2.56-16.16,3.74-24.57,2.99-1.91-.17-3.82-.38-5.73-.49-.92-.06-1.46-.41-1.77-1.29-1.93-5.43-4.26-10.69-6.76-15.87-.13-.27-.13-.61-.2-.98.51-.17.95-.35,1.41-.45,8.15-1.83,15.87-4.89,23.45-8.28,6.58-2.94,12.81-6.53,18.59-10.86.64-.48,1.23-1.02,1.84-1.54.71-.61.83-1.32.36-2.13.34-.87,1.14-1.08,1.91-1.25,7.24-1.56,14.56-2.04,21.84-.68,6.36,1.19,11.07,4.74,13.29,11.1.48,1.38.54,2.81.75,4.23Z"/>
  <path class="cls-13" d="m516.19,261.46c-.61-1.13-1.4-.89-2.4-.48-5.17,2.09-10.28,4.35-15.65,5.93-7.8,2.31-15.68,4.14-23.84,4.72-11.67.83-22.66-1.34-32.98-6.82-2.26-1.2-4.42-2.56-6.34-4.25-4.97-4.36-7.21-9.81-6.44-16.43,3.36,5.71,8.78,8.38,14.86,10.02,4.33,1.17,8.76,1.74,13.23,2.03,14.15.92,28.02-1.03,41.82-3.91,16.31-3.41,32.12-8.36,47.34-15.15,1.45-.65,2.49-.61,3.57.63,1.13,1.3,2.43,2.46,4.03,4.06-3.44.16-6.35.27-9.25.45-6.53.39-12.78,1.87-18.61,4.91-1.42.74-2.77,1.58-4.05,2.55-3.91,2.95-6.07,6.69-5.28,11.75Z"/>
  <path class="cls-1" d="m682.62,281.08c-.6-.24-.75-.74-.83-1.33-.89-6.42-4.64-10.45-10.6-12.61-2.57-.93-5.21-1.38-7.94-1.42-5.83-.09-11.62.14-17.3,1.56-.38.1-.75.27-1.12.41,0,0-.02,0-.02,0-.5-.31-.99-.32-1.47.02-6.45,3.15-12.74,6.62-19.42,9.3-8.16,3.28-16.48,6.03-25.13,7.73-.55.11-1.11.14-1.66.21-.88.11-1.5-.15-1.95-.99-1.29-2.37-2.65-4.7-4.22-7.47,3.68.64,6.96.3,10.25-.17,10.5-1.48,20.61-4.31,30.4-8.35,7.82-3.22,15.65-6.44,23.52-9.56,5.85-2.31,11.93-3.54,18.27-3.15,2.34.14,4.53.76,6.69,1.7,4.89,2.13,7.08,5.98,7.29,11.13.12,3.01-.44,5.9-1.93,8.54-.86,1.52-1.87,2.97-2.81,4.45Z"/>
  <path class="cls-1" d="m317.55,290.76c-1.96-1.95-3.39-4.25-4.24-6.86-1.27-3.91-.44-7.58,1.73-10.97,1.24-1.94,3.1-2.75,5.37-2.28,1.48.3,2.97.67,4.38,1.21,3.35,1.29,6.73,2.55,9.97,4.09,7.64,3.63,15.56,6.22,24.03,6.95.47.04.94.13,1.64.23-2.34,4.06-4.6,7.98-6.86,11.9-1.3.9-2.83,1.1-4.33,1.14-8.12.23-16.21.32-24.12-2.07-2.68-.81-5.34-1.54-7.56-3.34Z"/>
  <path class="cls-5" d="m657.37,285.86c3.51.8,4.65,2.62,3.55,6.12-1,3.19-2.23,6.31-3.32,9.48-2.26,6.6-3.5,13.4-4.18,20.33-.33,3.4-.76,6.82-2.88,9.74-1.73,2.39-3.41,2.37-4.94-.13-1.58-2.58-1.87-5.37-1.58-8.3.43-4.44.82-8.88,1.23-13.32,2.1-8.52,6.09-16.13,11.22-23.18.22-.3.59-.5.89-.75Z"/>
  <path class="cls-4" d="m703.24,305.16c-1.54,2.08-2.19,4.58-3.16,6.92-1.19,2.87-2.59,5.63-3.97,8.41-2.71-7.44-6.28-14.49-10.08-21.43-1.27-2.33-2.9-4.41-4.63-6.4-.71-.81-.65-1.31.17-1.93,2.64-1.99,4.8-4.44,6.73-7.11.92-1.27,1.04-1.28,2.15-.11,4.88,5.16,8.85,10.91,11.41,17.58.51,1.33.92,2.7,1.37,4.06Z"/>
  <path class="cls-13" d="m575.6,273.03c-3.11,1.06-6.17.03-9.23-.25-5.71-.52-11.41-1.08-17.16-.44-2.61.29-5.26.14-7.9.2-1.51.04-3.03.22-4.53.26-4.82.14-9.47-.41-12.36-5.09,4.57.09,9.08-.61,13.59-1.17,10.4-1.29,20.83-1.91,31.32-1.65.96.02,1.66.23,2.18,1.12,1.35,2.35,2.93,4.56,4.09,7.02Z"/>
  <path class="cls-11" d="m635.77,325.2c-.49-.64-1.15-.37-1.76-.34-7.41.42-14.76.1-21.97-1.82-1.28-.34-1.27.35-1.37,1.16-.88-1.01-.27-2.3-.64-3.44-.6-1.88-.93-3.85-1.43-6,3.28.2,6.36,1.11,9.54,1.01,3.26-.11,6.54.06,9.78-.53,3.13-.57,6.27-1.09,9.74-1.68-.64,3.95-1.26,7.8-1.89,11.65Z"/>
  <path class="cls-13" d="m317.55,290.76c3.19,1.21,6.37,2.39,9.72,3.14,4.12.92,8.24,1.67,12.48,1.7,4.61.03,9.22,0,13.81-.56-1.49,2.98-3,5.96-4.47,8.96-.39.81-.86,1.26-1.83,1.11-11.03-1.73-20.99-5.76-29.19-13.57-.22-.21-.35-.51-.52-.78Z"/>
  <path class="cls-7" d="m436.57,235.55c1.77-2.84,3.6-5.62,5.76-8.18,1.04-1.23,2.24-2.18,3.73-3.14.11,1.45.11,2.7.31,3.93,1.05,6.44,4.01,11.85,8.85,16.25.5.46,1.58.7,1.14,1.81-5.06-.32-9.86-1.6-14.33-3.99-1.76-.94-3.39-2.09-4.51-3.79-.57-.86-1.06-1.78-.94-2.88Z"/>
  <path class="cls-13" d="m424.6,254.35c-.12,4.08-1.64,7.44-5.21,9.63-2.67,1.63-5.62,1.53-8.57,1.12-2.6-.36-5.13-1.06-7.69-1.65-3.74-.86-7.54-1.18-11.38-1.03-1.51.06-3.03.02-4.54.02.77-1.32,1.99-2.25,2.98-3.38.64-.73,1.46-.84,2.37-.86,4.22-.06,8.42.27,12.61.67,2.37.23,4.75.49,7.13.61,4.89.23,9.01-1.46,12.3-5.13Z"/>
  <path class="cls-14" d="m643.28,357.26c0-1.27-.01-2.55,0-3.82,0-.8.13-1.59.53-2.31.58-1.02,1.36-1.8,2.61-1.83,1.32-.03,2.3.62,2.87,1.79.31.64.6,1.33.71,2.02.81,4.79,2.11,9.49,2.49,14.35.02.32.06.64.12.95.24,1.16-.11,2.04-1.22,2.55-1.15.53-2.02-.02-2.75-.83-.42-.47-.71-1.05-1.08-1.58-.63-.91-1.05-1.97-1.95-2.7-1.12-2.78-1.87-5.66-2.33-8.61Z"/>
  <path class="cls-2" d="m644.31,377.57c-.52.17-.39.69-.56,1.04-.43-.7-.54-1.45-.33-2.26.65.17.81.66.89,1.22Z"/>
  <path class="cls-6" d="m637.63,361.71c.17-.17.35-.34.52-.5.6.44.41,1.06.5,1.65-.89,0-.95-.58-1.02-1.15Z"/>
  <path class="cls-13" d="m643.33,267.69c.49-.55.98-.68,1.47-.02-.49,0-.98.01-1.47.02Z"/>
  <path class="cls-13" d="m576.17,273.91c-.38-.14-.56-.4-.52-.81.4.12.57.39.52.81Z"/>
  <path class="cls-5" d="m433.69,312.8c1.86-3.06,3.66-6.15,5.58-9.16,3.83-6.02,8.14-11.63,14.19-15.66,3.69-2.45,7.61-4.28,12.02-5.08,4.94-.89,9.16.55,12.81,3.74,4.47,3.9,6.56,9.13,7.67,14.8.34,1.71.63,3.45.54,5.21.12.21.15.43.1.66-.09.35-.22.68-.36,1.01-4.39,8.27-7.61,16.97-8.46,26.31-1.31,14.32.53,27.98,10.1,39.55,5.53,6.69,12.78,10.47,21.3,11.85,12.65,2.05,23.64-2.1,33.78-9.19,4.6-3.21,8.77-6.92,12.35-11.27.81-.99,1.65-1.97,2.08-3.2.37-1.06.3-2.08-.66-2.82-.94-.72-1.96-.6-2.92-.02-.97.6-1.63,1.52-2.32,2.4-5.03,6.45-10.88,11.97-18.45,15.3-9.55,4.2-19.34,5.66-29.27,1.36-6.74-2.92-11.79-7.84-15.59-14.06-4.25-6.95-6.16-14.66-5.97-22.67.38-16.19,5.94-30.43,17.25-42.25,7.61-7.95,16.56-13.75,27.54-15.4,12.74-1.92,23.76,1.63,31.88,12.18,1.19,1.55,2.51,2.34,4.38,2.36,1.97,5.18,2.92,10.54,3.42,16.07.96,10.6-1.25,20.76-3.64,30.93-.93,3.95-2.02,7.86-3.57,11.87,2.27-.31,4.36-.57,6.44-.88,8.65-1.31,17.18-1.11,25.43,2.13,4.82,1.89,9.3,4.34,12.2,8.86,4.1,6.4,4.66,13.09,1.41,20.04-2.18,4.68-5.26,8.72-8.57,12.64-5.98,7.07-12.94,13.06-20.68,18.02-7.26,4.65-15.04,8.39-23.15,11.43-13.42,5.03-27.28,8.33-41.33,10.91-7.28,1.33-14.6,2.41-21.99,3.11-6.91.65-13.81,1.5-20.75,1.22-5.19-.21-10.38-.12-15.56-.44-13.48-.84-26.72-3.06-39.72-6.77-8.28-2.37-16.63-4.48-24.76-7.36-8.67-3.07-16.96-6.99-24.98-11.5-4.73-2.66-9.41-5.42-13.9-8.47-3.9-2.65-7.62-5.53-10.95-8.89-4.91-4.95-8.38-10.69-9.31-17.68-.77-5.8.36-11.32,3.63-16.23,3.68-5.52,8.65-9.27,15.31-10.6,1.82-.36,3.48.01,5.18.43.75.18,1.49.44,2.4.72.05-2.04-.33-3.83-.34-5.64-.04-10.06,1.8-19.81,4.63-29.41,1.53-5.21,3.34-10.32,5.85-15.16,1.18-2.28,2.55-4.42,3.9-6.59.69-1.1,1.58-1.66,2.75-1.97,10.02-8.11,20.74-14.52,34.34-13.18,8.31.82,13.99,5.38,17.11,13.12,2.46,6.11,3.1,12.51,3.09,19.03,0,1.93-.97,2.86-2.7,3.42-4.29,1.39-8.29,3.35-11.79,6.24-6.36,5.25-9.51,12.09-9.95,20.22-.32,5.87.41,11.63,2.15,17.27,1.05,3.42.83,3.88-2.07,6.04-12.16,9.09-30.89,7.83-41.71-2.81-1.67-1.64-2.96-3.56-4.14-5.56-.33-.55-.62-1.12-1.02-1.63-.48-.62-.99-1.46-1.92-1-.88.44-.66,1.38-.48,2.15.76,3.24,2.32,6.13,4.2,8.83,6.14,8.8,14.92,12.98,25.36,13.25,7.8.2,14.87-2.67,20.97-7.66.25-.2.48-.43.72-.63,2.65-2.23,3.05-2.1,4.57,1.06,3.21,6.71,6.81,13.21,11.17,19.25.61.84,1.25,1.66,2.07,2.32.51.41,1.07.84,1.72.37.62-.45.47-1.14.28-1.76-.33-1.08-.94-2.03-1.5-2.99-5.15-8.93-10.34-17.84-13.29-27.83-1.59-5.39-2.79-10.83-2.6-16.49.05-1.44.14-2.88.96-4.14.99-.42,1.47.36,1.98.91,1.92,2.09,4.31,2.8,7.09,2.78,7.46-.05,13.36-3,17.75-9.06,1.23-1.7,1.35-3.71,1.88-5.61,1.52-2.21,2.7-4.53,2.42-7.34-.15-1.48.74-2.02,2.04-2.02,5.51,0,11.02-.31,16.52.19,2.7.25,5.41.46,8.11.66,1.31.1,3.01.22,3.24-1.62.21-1.67-1.23-2.34-2.58-2.67-5.51-1.35-11.09-2.33-16.75-2.89-4.3-.42-8.58-.79-12.89-.13-1.44.22-3.56.72-4.16-.8-.75-1.91-.75-4.23.93-6.02Z"/>
  <path class="cls-3" d="m433.69,312.8c-.27,2.04-.55,4.09-.82,6.08.65.59,1.3.26,1.9.19,8.83-1.01,17.54-.09,26.2,1.66,1.88.38,3.75.78,5.63,1.17.86.18,1.7.45,2.44.96,1.03.71,1.45,1.69,1.16,2.91-.28,1.13-1.09,1.75-2.21,1.92-1.44.21-2.87.01-4.3-.17-7.71-.98-15.46-1.04-23.21-.74-.23,0-.45.12-.84.24,1.21,3.57-.32,6.37-2.56,8.96-2.56,3.98-6.52,6.19-10.59,8.13-3.38,1.61-7.01,2.56-10.84,2.42-1.37-.05-2.75-.11-3.9-.89-1.44-.97-2.47-.59-3.37.72-1.38,7.38.08,14.44,2.3,21.45,3.07,9.68,8.05,18.41,13.14,27.1.6,1.03,1.19,2.08,1.65,3.18.35.84.31,1.79-.52,2.4-.92.67-1.86.42-2.6-.33-.78-.79-1.5-1.66-2.15-2.56-4.54-6.22-8.27-12.9-11.51-19.88-.36-.78-.73-1.56-1.09-2.34-.93.21-1.38.93-1.98,1.43-5.97,5.03-12.72,8.24-20.61,8.67-14.37.8-27.23-7.83-31.84-21.38-.28-.82-.56-1.66-.53-2.57.03-.87.29-1.58,1.16-1.91.9-.33,1.55.15,2.07.8.39.5.72,1.06,1.03,1.61,5.2,9.45,13.56,13.94,23.95,14.96,6.23.61,12.27-.48,17.9-3.37,1.86-.95,3.49-2.23,5.12-3.53,1.04-.83,1.18-1.62.78-2.89-1.88-5.98-3.02-12.09-2.64-18.4.66-11.11,5.77-19.4,15.62-24.7,2.33-1.25,4.77-2.27,7.31-2.98,1.12-.31,1.58-.8,1.57-1.97-.07-6.01-.41-11.98-2.35-17.74-3.07-9.13-9.36-13.99-18.96-14.63-5.3-.35-10.32.8-15.2,2.73-4.79,1.89-9.12,4.58-13.28,7.58-1.29.93-2.52,1.97-4.1,2.44-2.54-.55-3-1.74-1.45-3.8.34-.44.71-.87,1.13-1.24,7.79-6.9,16.51-11.98,26.85-14,17.1-3.35,30.47,7.44,33.62,23.26.6,2.99.7,6.02.93,9.04Z"/>
  <path class="cls-3" d="m486.35,307.03c.12-.1.17-.22.15-.37.7-.57.99-1.43,1.47-2.15,6.42-9.9,14.48-18.03,25.27-23.13,8.63-4.07,17.64-5.4,27.03-3.25,10.19,2.34,17.41,8.61,22.84,17.26.72,1.15.71,2.23.14,3.38-2.25.89-2.78.82-4.05-1-8.08-11.66-23.12-16.46-37.77-11.56-13.7,4.58-23.63,13.69-30.64,26.11-4.87,8.62-7.61,17.94-7.87,27.86-.3,11.71,2.67,22.34,11.11,30.9,8.85,8.97,19.53,11.22,31.53,8.18,9.4-2.38,16.93-7.69,23.17-14.96,1.09-1.27,2.12-2.6,3.18-3.9.51-.62,1.02-1.23,1.72-1.65,1.18-.7,2.61-.66,3.6.12,1.04.81,1.41,2.09.98,3.45-.24.77-.65,1.46-1.16,2.08-8.77,10.75-19.45,18.73-33.17,21.86-14.97,3.42-34.35-1.5-43.16-22.66-3.9-9.39-4.73-19.19-3.62-29.18,1.07-9.57,4.26-18.48,8.91-26.88.14-.16.24-.33.32-.53Z"/>
  <path class="cls-8" d="m519.5,310.57c1.05-.42,1.61-1.12,2.29-1.67,1.31-1.05,2.59-2.13,4.05-2.98,5.32-3.09,11.09-2.2,15.21,2.37,3.42,3.8,4.55,8.36,4.22,13.33-.3,4.52-1.57,8.82-3.58,12.86-4.25,8.57-10.02,15.95-17.56,21.89-1.7,1.34-3.52,2.51-5.51,3.37-7.46,3.23-15.57.7-19.86-6.23-2.01-3.24-3.08-6.83-3.88-10.52-1.76-8.12-1.45-16.19.66-24.21.61-2.33,1.55-4.53,2.84-6.58,1.98-3.14,4.67-5.45,8.11-6.84,4.52-1.82,9.05-.47,11.86,3.5.36.52.7,1.05,1.13,1.7Z"/>
  <path class="cls-8" d="m386,308.85c.94-.3,1.34-1.04,1.93-1.54,3.26-2.75,6.89-4.29,11.25-3.66,4.8.69,7.93,4.01,8.18,8.87.27,5.23-1.07,10.17-3.22,14.85-4.06,8.83-9.84,16.41-17.15,22.82-2.05,1.8-4.3,3.32-6.85,4.34-4.09,1.63-7.82,1.01-11.17-1.85-2.56-2.19-4.23-4.99-5.37-8.1-2.5-6.76-2.79-13.71-1.69-20.78.9-5.78,3.02-11.07,6.24-15.94.97-1.47,2.01-2.89,3.34-4.06,4.11-3.63,9.53-3,12.72,1.45.78,1.1,1.27,2.35,1.8,3.61Z"/>
  <path class="cls-3" d="m465.25,408.9c-1.92.91-3.61,1.78-5.35,2.53-3.61,1.56-7.34,2.1-11.22,1.24-2.16-.48-3.84-1.5-4.55-3.75-.73-2.34.13-4.24,1.7-5.89,1.62-1.7,3.65-2.83,5.72-3.88,3.63-1.84,7.44-3.29,11.19-4.83,3.99-1.65,7.8-3.62,11.4-6.01,3.42-2.28,7.38-.81,8.57,3.12.94,3.11.21,6.05-1.32,8.75-1.01,1.78-1.63,3.54-1.77,5.6-.29,4.22-.83,8.42-2.3,12.44-.72,1.96-1.57,3.84-2.83,5.51-.73.97-1.6,1.79-2.74,2.26-2.98,1.24-5.75-.18-6.35-3.36-.24-1.24-.24-2.54-.25-3.82-.02-1.6.08-3.19.1-4.79.02-1.59,0-3.19,0-5.13Z"/>
  <path class="cls-13" d="m408.37,346.35c0-.97.43-1.81.7-2.39.32-.39.47-.42.62-.28,2.74,2.54,6.03,2.6,9.43,2.04,5.73-.94,10.69-3.53,15.1-7.25.97-.82,1.91-1.67,2.86-2.51.35,1.77-.26,3.31-1.18,4.76-3.81,6.02-9.39,9.17-16.37,9.96-1.34.15-2.72.13-4.07.02-2.41-.2-4.46-1.18-5.92-3.18-.33-.45-.64-.92-1.16-1.18Z"/>
  <path class="cls-1" d="m486.35,307.03c.08.29-.05.45-.32.53-.07-.28.04-.46.32-.53Z"/>
  <path class="cls-9" d="m534.01,319.75c.06,4.44-1.43,8.09-3.13,11.6-2.96,6.16-6.86,11.69-11.92,16.34-1.71,1.58-3.62,2.86-5.75,3.82-2.65,1.19-5,.55-6.66-1.92-1.54-2.29-2.25-4.91-2.78-7.58-.88-4.4-1.23-8.85-.95-13.32.26-4.15.99-8.23,3.01-11.96.94-1.74,2.3-3.05,4.08-3.91,1.65-.79,2.41-.65,3.49.84.6.83,1.03,1.8,1.49,2.72,1.52,3.08,2.99,3.77,6.35,2.98,1.51-.36,2.79-1.17,4.04-2.04,1.44-1.01,2.91-1.95,4.51-2.71,1.14-.54,1.97-.24,2.75.63,1.26,1.41,1.64,3.07,1.46,4.49Z"/>
  <path class="cls-9" d="m369.9,332.53c.39-6.52,1.54-12.81,5.69-18.16.19-.25.34-.55.55-.78.8-.89,1.21-.87,1.84.09.22.33.39.7.54,1.07,1.36,3.15,3.05,3.79,7.09,2.38,2.62-.92,5.1-2.26,7.6-3.51,1.16-.58,2.38-.93,3.62-1.18,1.78-.35,2.74.46,2.8,2.28.1,2.93-.82,5.66-1.8,8.36-1.32,3.63-3.37,6.87-5.73,9.89-2.65,3.39-5.38,6.73-8.58,9.64-1.6,1.46-3.3,2.77-5.17,3.85-2.32,1.34-2.9,1.24-4.69-.83-1.77-2.06-2.65-4.57-3.09-7.17-.33-1.95-.78-3.91-.68-5.93Z"/>
  <path class="cls-5" d="m469.85,422.33c-.75-.98-.54-2.04-.51-3.03.11-3.03.29-6.06.41-9.09.05-1.19.07-2.4-.26-3.57-.73-2.57-2.53-3.42-4.95-2.25-1.65.8-3.25,1.7-4.86,2.58-2.06,1.11-4.25,1.77-6.57,2.08-1.38.18-2.72-.04-4.03-.36-1.1-.27-1.34-1.02-.76-2.01.54-.93,1.41-1.51,2.28-2.08,2.36-1.52,4.94-2.6,7.56-3.56,5.11-1.86,9.97-4.23,14.66-6.98,1.03-.6,1.97-1.35,2.95-2.04.68-.49,1.43-.81,2.23-.44.86.39.89,1.26.89,2.07,0,1.71-.34,3.38-1.27,4.8-1.74,2.63-2.26,5.58-2.66,8.6-.51,3.88-1.15,7.74-2.46,11.44-.51,1.46-.98,3.04-2.64,3.84Z"/>
  <path class="cls-12" d="m514.38,340.7c-2.54-.04-3.98-1.19-4.82-3.06-1.08-2.4-1.9-4.89-2.33-7.5-.47-2.89,1.22-4.86,3.72-4.38,1.21.23,1.87,1.12,2.46,2.09,1.16,1.9,1.19,1.92,3.08.63,1.22-.83,2.51-1.34,4-1.34,2.37,0,3.7,1.46,3.3,3.82-.19,1.1-.59,2.14-1.21,3.09-1.32,2.03-3.07,3.66-4.86,5.24-1.02.89-2.26,1.49-3.34,1.42Z"/>
  <path class="cls-12" d="m378,336.85c-2.22-.02-3.64-.95-4.23-3.14-.72-2.69-1-5.46-.53-8.24.28-1.63,1.55-2.9,2.92-3.06,1.48-.18,2.54.47,3.41,2.09.15.28.29.57.37.88.3,1.03.89.98,1.61.46.85-.62,1.81-1.01,2.81-1.3,1.74-.49,3.29-.06,4.11,1.09.87,1.22.89,2.77-.32,4.2-2.28,2.69-5.09,4.79-8.06,6.66-.63.4-1.37.36-2.09.37Z"/>
</svg>