<?xml version="1.0" encoding="UTF-8"?>
<svg id="_图层_1" data-name="图层 1" xmlns="http://www.w3.org/2000/svg" viewBox="0 0 960 960">
  <defs>
    <style>
      .cls-1 {
        fill: #454794;
      }

      .cls-1, .cls-2, .cls-3, .cls-4, .cls-5, .cls-6, .cls-7 {
        stroke-width: 0px;
      }

      .cls-2 {
        fill: #a76861;
      }

      .cls-3 {
        fill: #a66861;
      }

      .cls-4 {
        fill: #f6b89f;
      }

      .cls-5 {
        fill: #5b7dfe;
      }

      .cls-6 {
        fill: #040304;
      }

      .cls-7 {
        fill: #040303;
      }
    </style>
  </defs>
  <path class="cls-7" d="m384.85,753.04c.87-.13,1.73-.36,2.6-.36,2.33-.02,3.89,1.44,4.16,3.77.19,1.68-.29,3.19-1.3,4.49-.98,1.26-2.03,2.47-3.13,3.62-2.55,2.65-5.15,5.25-7.73,7.86-.44.44-1.02.77-.71,1.59,1.46,3.79,1.55,7.81,1.94,11.77.91,9.23,2.43,18.37,3.85,27.52.85,5.44,1.85,10.86,2.43,16.35.68,6.46-1.1,8.92-7.55,9.6-6.83.72-13.69,1.16-20.53,1.78-13.45,1.21-26.91,2.33-40.39,3.09-10.53.59-21.08.98-31.57-.68-1.74-.28-3.48-.56-5.14-1.12-4.91-1.65-6.7-5.7-4.59-10.45,2.53-5.71,6.27-10.37,11.86-13.36,2.05-1.1,1.63-1.06.95-2.7-1.65-3.99-2.88-8.13-4.03-12.28-1.43-5.16-3.14-10.22-4.79-15.31-.34-1.06-.79-1.53-1.99-1.53-6.64-.04-11.77-3-15.71-8.26-2.22-2.97-4.03-6.13-5.16-9.67-1.51-4.72-2.95-9.46-3.34-14.44-.1-1.27-.19-2.56-.08-3.83.29-3.28,1.95-4.26,5.06-3.1.34.51.69,1.02,1.03,1.53,1.48,4.97,2.78,9.98,4.86,14.76,1.49,3.42,3.42,6.49,6.21,8.99,1.64,1.48,3.47,2.5,5.73,2.71,4.41.43,8.76-.03,13.07-.89,5.5-1.1,10.27-3.91,14.94-6.84,2.71-1.69,5.27-3.62,7.99-5.28,3.95-2.42,7.08-1.7,9.7,2.08.86,1.25,1.67,2.53,2.53,3.78,2.34,3.43,5.5,5.77,9.52,6.83,4.41,1.16,8.84,1.94,13.47,1.23,5.93-.91,11.44-2.75,16.54-5.95,4.66-2.92,8.39-6.84,12.15-10.76,2.52-2.04,4.52-4.65,7.17-6.55Zm-94.18,38.08c.07.47.03,1,.24,1.39,1.15,2.12,1.79,4.43,2.52,6.7,1.91,5.93,3.83,11.85,6.43,17.52.26.58.46,1.19.6,1.81.53,2.38-.39,4.47-2.53,5.67-.69.39-1.45.66-2.2.94-2.5.95-4.71,2.35-6.57,4.27-1.21,1.24-2.14,2.66-2.76,4.21.71.54,1.29.51,1.84.56,4.38.33,8.76.66,13.16.59,10.71-.17,21.38-.99,32.06-1.66,11.71-.74,23.41-1.85,35.14-2.28,2.55-.09,5.1-.27,7.66-.43,2.04-.13,2.04-.15,1.84-2.29-.07-.79-.17-1.59-.29-2.38-.85-5.44-1.72-10.88-2.56-16.33-.69-4.5-1.36-9-2.03-13.49-.32-2.77-.54-5.56-1-8.3-.47-2.79-.2-5.67-.88-8.69-1.41.79-2.52,1.4-3.62,2.03-8.37,4.76-17.35,6.8-26.93,5.8-5.12-.53-10.05-1.85-14.54-4.49-3.14-1.85-5.71-4.35-7.87-7.26-1.69-2.28-1.68-2.27-4.18-.72-2.04,1.26-4.07,2.53-6.14,3.73-4.84,2.81-9.72,5.52-15.19,6.97-1.45.38-2.98.46-4.48,1.16.7,1.72,1.25,3.44,2.28,4.96Z"/>
  <path class="cls-6" d="m743.19,740.83c.67-.56,1.29-1.2,2.03-1.66,1.63-1.02,3.32-1.07,4.96,0,1.55,1.02,2.29,2.91,1.9,4.83-.21,1.03-.67,1.96-1.21,2.85-4.16,6.86-8.99,13.2-14.55,18.99-2,2.08-4.21,3.93-6.81,5.24-1.12.56-1.56,1.35-1.79,2.57-.73,3.87-.85,7.78-1.15,11.68-.62,7.97-1.07,15.95-1.67,23.91-.58,7.73-1.63,15.41-2.89,23.06-.56,3.37-2.15,4.76-5.5,5.41-8.33,1.63-16.74,2.36-25.2,2.92-8.93.59-17.83,1.57-26.77,1.99-8.38.4-16.75,1.13-25.15.88-3.6-.11-7.19-.35-10.72-1.08-7.09-1.47-9.35-6.11-6.08-12.58,3-5.93,7.38-10.8,12.22-15.25,1.06-.98,1.52-1.69,1.13-3.2-1.72-6.65-2.63-13.48-4.08-20.19-1.44-6.64-2.45-13.35-3.4-20.08-.16-1.17-.62-1.82-1.71-2.31-2.82-1.26-4.73-3.45-6.05-6.22-1-2.11-1.72-4.31-1.99-6.62-.56-4.86-.78-9.72.14-14.56.18-.93.45-1.87.82-2.74,1.23-2.86,3.26-3.2,5.53-.98.44,1.31.42,2.66.31,4.01-.32,4.16.03,8.29.59,12.4.22,1.64.49,3.32,1.69,4.63.26,1.44,1.29,2.14,2.56,2.57,1.06.36,2.16.49,3.29.56,7.19.44,13.94-1.34,20.41-4.24,4.22-1.89,8.26-4.16,12.41-6.23,1.5-.75,3.01-1.48,4.58-2.05,2.58-.95,4.87-.25,6.83,1.58.64.59,1.25,1.25,1.73,1.97,2.24,3.39,5.35,5.88,8.47,8.37,1.52,1.2,3.23,2.06,5.1,2.57,8.73,2.37,17.46,2.38,26.2-.04,4.35-1.21,8-3.53,11.04-6.84,2-2.17,3.94-4.39,5.9-6.6,1.16-1.31,2.37-2.59,3.12-4.2,1.52-1.59,2.72-3.41,3.77-5.33Zm-105.42,36.94c-.12.57.04,1.11.15,1.65,2.27,11.18,4.49,22.38,6.85,33.54.59,2.77.31,5.06-2.04,6.84-3.68,2.78-6.42,6.43-9.31,9.94-.8.97-1.59,1.97-1.99,3.46,1.11.2,2.1.43,3.1.56,4.93.64,9.87.59,14.82.34,12.92-.65,25.81-1.76,38.71-2.71,7.96-.59,15.93-.98,23.9-1.47,2.52-.15,2.47-.17,2.95-2.76,2.18-11.72,3.01-23.58,3.54-35.47.51-5.54,1.01-11.07,1.52-16.54-.58-.28-.94-.07-1.32,0-7.75,1.53-15.53,1.83-23.35.55-5.37-.87-10.39-2.53-14.69-6.01-2.68-2.16-5.31-4.37-7.62-6.93-.83-.92-1.55-1.19-2.66-.47-1,.65-2.1,1.15-3.19,1.66-5.35,2.52-10.68,5.1-16.56,6.23-4.17.8-8.36,1.34-12.62,1.18-1.42-.06-1.55.11-1.33,1.5.26,1.65.55,3.31,1.15,4.89Z"/>
  <path class="cls-5" d="m384.85,753.04c-2.65,1.9-4.65,4.51-7.17,6.55-2.45.06-4.65.94-6.79,2.05-10.56,5.45-21.86,6.49-33.46,5.41-3.62-.34-6.97-1.61-9.85-3.93-1.05-.85-2.2-1.57-3.3-2.37-4.66-3.36-9.74-3.97-15.24-2.53-4.03,1.06-7.87,2.59-11.68,4.21-3.35,1.42-6.69,1.69-10.27,1-4.37-.84-8.07-2.94-11.54-5.52-3.26-2.43-6.67-4.64-10.05-6.89-1.38-.92-2.82-1.82-4.52-2.1-.34-.51-.69-1.02-1.03-1.53,1.96-2.95,4.92-4.49,8.11-5.62,4.08-1.45,8.31-2.3,12.6-2.74,11.36-1.18,22.73-1.95,34.16-1.46,11.02.47,21.91,2.01,32.76,3.9,6.28,1.1,12.59,2.08,18.87,3.19,4.4.78,8.78,1.7,12.93,3.41,2.4.99,4.53,2.34,5.48,4.97Z"/>
  <path class="cls-5" d="m627.8,758.76c-1.2-1.31-1.47-2.99-1.69-4.63-.56-4.11-.92-8.24-.59-12.4.11-1.35.13-2.7-.31-4.01,7.92-4.9,16.85-6.73,25.81-8.39,8.55-1.59,17.17-2.85,25.82-3.72,13.54-1.36,27.1-1.74,40.61.4,7.36,1.16,14.16,3.81,20.33,8.03,2.5,1.71,4.46,3.86,5.42,6.8-1.05,1.92-2.25,3.74-3.77,5.33-2.44-1.69-5.03-1.63-7.77-.84-4.61,1.33-9.07,3.04-13.59,4.63-6.73,2.36-13.54,4.29-20.79,3.79-3.93-.27-7.54-1.37-10.56-3.97-2-1.72-3.92-3.52-5.83-5.34-3.78-3.58-7.63-4.24-12.24-1.85-3.9,2.02-7.72,4.19-11.56,6.31-6.38,3.53-12.96,6.48-20.22,7.81-3.04.56-6.16.88-9.07,2.05Z"/>
  <path class="cls-4" d="m373.21,795.93c.68,4.5,1.34,9,2.03,13.49.84,5.44,1.71,10.88,2.56,16.33.12.79.22,1.58.29,2.38.2,2.15.2,2.16-1.84,2.29-2.55.16-5.1.33-7.66.43-11.74.43-23.43,1.54-35.14,2.28-10.68.68-21.35,1.5-32.06,1.66-4.4.07-8.78-.26-13.16-.59-.55-.04-1.12-.01-1.84-.56.62-1.55,1.55-2.97,2.76-4.21,1.86-1.92,4.07-3.32,6.57-4.27.74-.28,1.51-.55,2.2-.94,2.14-1.2,3.06-3.29,2.53-5.67-.14-.62-.34-1.24-.6-1.81-2.6-5.67-4.52-11.59-6.43-17.52-.73-2.27-1.37-4.58-2.52-6.7-.21-.39-.17-.92-.24-1.39,5.69-.32,11.16-1.72,16.48-3.66,3.5-1.28,7.01-1.93,10.75-1.62,2.01.17,3.89.55,5.77,1.34,7.86,3.28,15.75,6.51,24.19,8.09,6.75,1.26,13.5,2.27,20.38,1.21,1.65-.26,3.32-.36,4.97-.54Z"/>
  <path class="cls-1" d="m260.97,748.92c1.7.28,3.14,1.18,4.52,2.1,3.38,2.25,6.79,4.46,10.05,6.89,3.46,2.58,7.17,4.68,11.54,5.52,3.58.69,6.92.42,10.27-1,3.81-1.62,7.66-3.15,11.68-4.21,5.49-1.45,10.57-.84,15.24,2.53,1.1.79,2.25,1.52,3.3,2.37,2.89,2.33,6.23,3.6,9.85,3.93,11.61,1.07,22.9.04,33.46-5.41,2.14-1.11,4.34-1.99,6.79-2.05-3.76,3.92-7.49,7.84-12.15,10.76-5.1,3.19-10.61,5.04-16.54,5.95-4.63.71-9.06-.07-13.47-1.23-4.02-1.06-7.18-3.4-9.52-6.83-.86-1.25-1.66-2.54-2.53-3.78-2.62-3.78-5.75-4.5-9.7-2.08-2.72,1.67-5.28,3.59-7.99,5.28-4.68,2.93-9.44,5.74-14.94,6.84-4.31.86-8.66,1.32-13.07.89-2.26-.22-4.09-1.24-5.73-2.71-2.78-2.51-4.72-5.57-6.21-8.99-2.07-4.78-3.38-9.8-4.86-14.76Z"/>
  <path class="cls-3" d="m373.21,795.93c-1.66.17-3.33.28-4.97.54-6.89,1.07-13.63.05-20.38-1.21-8.44-1.58-16.33-4.81-24.19-8.09-1.87-.78-3.75-1.17-5.77-1.34-3.74-.31-7.25.34-10.75,1.62-5.32,1.95-10.79,3.35-16.48,3.66-1.03-1.52-1.58-3.25-2.28-4.96,1.5-.71,3.03-.78,4.48-1.16,5.47-1.45,10.36-4.16,15.19-6.97,2.07-1.2,4.11-2.47,6.14-3.73,2.5-1.55,2.49-1.56,4.18.72,2.17,2.92,4.73,5.41,7.87,7.26,4.48,2.64,9.42,3.96,14.54,4.49,9.58.99,18.56-1.04,26.93-5.8,1.1-.63,2.2-1.24,3.62-2.03.68,3.02.41,5.9.88,8.69.46,2.75.67,5.53,1,8.3Z"/>
  <path class="cls-4" d="m718.45,791.7c-.53,11.89-1.36,23.75-3.54,35.47-.48,2.58-.43,2.6-2.95,2.76-7.97.49-15.94.88-23.9,1.47-12.9.96-25.79,2.06-38.71,2.71-4.96.25-9.9.29-14.82-.34-1-.13-1.99-.36-3.1-.56.39-1.49,1.19-2.49,1.99-3.46,2.89-3.51,5.63-7.16,9.31-9.94,2.35-1.78,2.62-4.07,2.04-6.84-2.36-11.16-4.57-22.36-6.85-33.54-.11-.55-.27-1.09-.15-1.65,1.2-.03,2.37-.17,3.55-.38,2.27-.4,4.49-1.11,6.83-1.09,4.51.03,8.9-.78,13.12-2.31,1.79-.65,2.86-.34,4.12,1.04,4.53,4.98,10.08,8.5,16.27,11.12,4.28,1.81,8.69,3.18,13.14,4.43,5.32,1.49,10.76,2.33,16.31,1.96,2.45-.16,4.89-.55,7.34-.84Z"/>
  <path class="cls-2" d="m718.45,791.7c-2.45.29-4.88.68-7.34.84-5.55.37-10.98-.48-16.31-1.96-4.45-1.24-8.86-2.61-13.14-4.43-6.19-2.62-11.74-6.14-16.27-11.12-1.26-1.38-2.33-1.69-4.12-1.04-4.21,1.54-8.61,2.34-13.12,2.31-2.34-.02-4.56.69-6.83,1.09-1.19.21-2.36.35-3.55.38-.6-1.58-.88-3.24-1.15-4.89-.22-1.39-.09-1.56,1.33-1.5,4.26.17,8.45-.37,12.62-1.18,5.88-1.13,11.21-3.71,16.56-6.23,1.08-.51,2.19-1.01,3.19-1.66,1.11-.72,1.83-.45,2.66.47,2.31,2.56,4.94,4.76,7.62,6.93,4.3,3.48,9.32,5.14,14.69,6.01,7.82,1.27,15.6.98,23.35-.55.38-.08.75-.29,1.32,0-.5,5.46-1.01,11-1.52,16.54Z"/>
  <path class="cls-1" d="m627.8,758.76c2.91-1.17,6.03-1.49,9.07-2.05,7.26-1.33,13.84-4.28,20.22-7.81,3.84-2.13,7.66-4.29,11.56-6.31,4.61-2.39,8.47-1.73,12.24,1.85,1.91,1.81,3.83,3.62,5.83,5.34,3.02,2.6,6.63,3.7,10.56,3.97,7.26.5,14.06-1.43,20.79-3.79,4.52-1.58,8.99-3.3,13.59-4.63,2.74-.79,5.33-.85,7.77.84-.75,1.61-1.96,2.89-3.12,4.2-1.95,2.21-3.9,4.43-5.9,6.6-3.04,3.3-6.69,5.63-11.04,6.84-8.73,2.42-17.46,2.41-26.2.04-1.87-.51-3.58-1.36-5.1-2.57-3.12-2.48-6.24-4.97-8.47-8.37-.48-.72-1.09-1.38-1.73-1.97-1.96-1.83-4.25-2.52-6.83-1.58-1.57.57-3.08,1.3-4.58,2.05-4.14,2.06-8.19,4.34-12.41,6.23-6.47,2.9-13.22,4.68-20.41,4.24-1.13-.07-2.23-.2-3.29-.56-1.27-.43-2.3-1.12-2.56-2.57Z"/>
</svg>