<?xml version="1.0" encoding="UTF-8"?>
<svg id="_图层_1" data-name="图层 1" xmlns="http://www.w3.org/2000/svg" viewBox="0 0 960 960">
  <defs>
    <style>
      .cls-1 {
        fill: #454794;
      }

      .cls-1, .cls-2, .cls-3, .cls-4, .cls-5, .cls-6, .cls-7 {
        stroke-width: 0px;
      }

      .cls-2 {
        fill: #040404;
      }

      .cls-3 {
        fill: #a76861;
      }

      .cls-4 {
        fill: #f6b89f;
      }

      .cls-5 {
        fill: #5b7dfe;
      }

      .cls-6 {
        fill: #050404;
      }

      .cls-7 {
        fill: #5a7dfe;
      }
    </style>
  </defs>
  <path class="cls-7" d="m621.09,725.44c2.45-2.17,5.46-3.27,8.45-4.38,6.33-2.35,12.96-3.35,19.62-4.25,13.6-1.85,27.26-1.71,40.92-1.31,11.67.34,23.25,1.73,34.6,4.64,3.49.9,6.92,1.97,10.05,3.81,2.08,1.22,4.01,2.62,5.23,4.78-1.34,2.53-2.51,5.13-3.58,7.78-1.25,3.1-2.52,6.19-4.19,9.09-1.5,2.61-2.93,5.28-5.17,7.38-1.05-.81-2.22-.7-3.43-.48-1.89.33-3.71.89-5.51,1.55-3.01,1.1-6.12,1.82-9.31,2-6.39.37-12.72-.08-18.97-1.61-4.45-1.09-8.61-2.91-12.74-4.76-7.33-3.28-14.78-4.13-22.59-1.99-5.68,1.56-11.39,2.99-17.14,4.27-4.58,1.02-9.21,1.54-13.97.98-2.01-.24-4.06-.82-6.14-.36-1.21-1.77-1.21-3.81-1.02-5.78.61-6.25,1.87-12.32,5.45-17.67,1.11-1.66.96-2.15-.55-3.67Z"/>
  <path class="cls-2" d="m727,752.97c2.24-2.1,3.67-4.77,5.17-7.38,1.67-2.9,2.95-5.99,4.19-9.09,1.07-2.65,2.25-5.25,3.58-7.78.38-.29.73-.64,1.16-.85,1.28-.6,2.34-.21,3,1.04.47.88.55,1.84.43,2.8-.21,1.66-.37,3.34-.88,4.95-2.64,8.28-6.25,16.05-11.67,22.92-4.1,5.19-9.1,9.18-15.08,11.91-1.41.65-2.27,1.55-2.94,2.91-1.86,3.81-3.55,7.69-5.05,11.64-2.69,7.09-5.83,14.01-8.23,21.21-1.54,4.64-1.86,3.89,1.87,7.34,3.76,3.49,7.21,7.26,10.51,11.16,1.24,1.47,2.42,2.98,3.34,4.67,2.08,3.83,1.17,7.61-2.43,10.06-1.81,1.23-3.85,1.91-5.95,2.45-5.6,1.43-11.31,2.06-17.06,2.38-10.47.58-20.91.28-31.36-.68-7.23-.67-14.53-.48-21.8-.7-5.27-.16-10.54-.32-15.79-.96-1.67-.2-3.32-.52-4.91-1.07-4.38-1.52-6.6-4.48-6.81-9.14-.18-3.93.28-7.83.68-11.72,1.22-11.7,3.6-23.2,5.73-34.75,1.2-6.52,2.24-13.08,4.36-19.38.3-.89.05-1.31-.74-1.65-.81-.34-1.6-.73-2.37-1.16-6.65-3.73-10-9.32-9.15-17,.66-6.02,2.54-11.69,5.86-16.81.74-1.14,1.61-2.19,2.59-3.13,1.07-1.03,2.28-1.75,3.82-1.74,1.52,1.52,1.66,2.01.55,3.67-3.58,5.36-4.84,11.42-5.45,17.67-.19,1.97-.19,4.01,1.02,5.78.7,2.03,2.26,3.27,4.03,4.22,4.47,2.4,9.29,3.41,14.33,3.03,3.33-.25,6.64-.82,9.9-1.62,5.66-1.39,11.32-2.78,16.82-4.69,3.63-1.26,6.55-.56,9.13,2.15.11.12.23.22.34.34,3,2.97,6.5,5.2,10.41,6.7,6.39,2.45,13.1,3.55,19.89,3.86,6.25.28,11.98-1.66,17.03-5.37,3.1-2.27,5.96-4.81,7.91-8.2Zm-98.63,17.88c-.08.22-.2.44-.24.67-2.34,14.35-5,28.64-7.13,43.03-.79,5.31-1.2,10.64-1.12,16,.03,1.92.13,1.99,1.94,2.39,1.57.34,3.16.45,4.76.49,7.19.19,14.38.37,21.57.55,5.27.13,10.55.16,15.81.65,11.65,1.09,23.31.96,34.96.09,2.9-.22,5.79-.62,8.65-1.65-.48-1.09-1.17-1.76-1.75-2.51-3.38-4.27-7.25-8.09-11.14-11.89-3.35-3.27-4.42-7.04-3.01-11.58,1.04-3.37,2.45-6.58,3.77-9.83,1.47-3.62,3.04-7.21,4.23-10.94,1.66-3.77,3.32-7.54,5.04-11.44-.6-.08-.91-.16-1.22-.16-5.29.04-10.52-.58-15.72-1.45-8.27-1.38-15.85-4.34-22.09-10.12-.9-.83-1.66-.64-2.61-.36-4.29,1.25-8.58,2.51-12.88,3.69-6.59,1.81-13.27,2.82-20.12,1.72-1.03-.17-1.51.22-1.58,1.22-.03.48-.09.95-.13,1.43Z"/>
  <path class="cls-6" d="m397.12,712.06c1.91,1.16,2.2,1.78,1.54,3.86-.61,1.9-1.39,3.73-2.36,5.49-.39.71-1.37,1.36-.77,2.33.69,1.12,1.01,2.56,2.46,3.11,1.98.74,3.64,1.98,5.16,3.42,1.95,1.84,2.99,4.08,3.21,6.76.19,2.24.07,4.48-.06,6.71-.49,8.45-.72,16.93-1.87,25.33-.97,7.05-2.29,14.03-5.34,20.55-1.27,2.71-2.81,5.19-5.28,7-1.37,1-2.86,1.77-4.52,2.12-3.32.7-6.33-.66-8.4-3.78-1.47-2.22-2.34-4.71-3.15-7.22-.42-1.29-.8-2.59-1.2-3.9-1.01-.15-1.45.65-1.97,1.17-7.14,7.03-15.56,12.2-24.37,16.79-5.33,2.77-10.9,4.95-16.88,5.89-8.59,1.36-16.48-.22-23.6-5.42-8.5-6.21-14.32-14.53-18.75-23.86-3.36-7.09-5.58-14.6-6.66-22.41-.47-3.43-.46-6.86.31-10.24.23-1,.15-1.59-.82-2.14-7.74-4.42-10.84-11.6-11.71-20.04-.41-4-.21-7.98.86-11.89.3-1.09.69-2.12,1.46-2.97,2.04.05,2.8.52,3.23,2.39.34,1.47.49,2.99.57,4.5.19,3.45.96,6.77,2.06,10.03,1.91,5.68,5.69,9.48,11.39,11.34.15.22.33.34.6.21.61.04,1.22.07,1.83.11.53.87,1.41.6,2.16.62,5.37.13,10.16-1.83,14.77-4.3,4.37-2.34,8.51-5.06,12.6-7.86,2.71-1.86,5.36-1.83,8.01.03,1.31.92,2.55,1.92,3.83,2.87,8.4,6.2,17.82,9.18,28.24,8.74,4.02-.17,7.95-1.08,11.43-3.19,5.66-3.42,10.5-7.77,14.36-13.18,2-2.57,4.01-5.13,5.97-7.74.45-.6.93-1.07,1.67-1.22Zm-106.69,38.98c1.78,12.26,5.65,23.72,12.78,33.97,3.22,4.63,6.95,8.73,11.65,11.93,4.04,2.74,8.46,4.03,13.33,3.91,2.89-.07,5.73-.5,8.49-1.37,11.27-3.55,21.29-9.37,30.4-16.82,2.72-2.22,5.33-4.58,8.06-6.79,2.38-1.93,5.14-1.39,6.68,1.28.47.82.8,1.74,1.08,2.65.68,2.21,1.26,4.45,1.96,6.66.45,1.45.94,2.89,1.56,4.27.79,1.74,1.6,1.87,3.17.71,1.33-.98,2.14-2.36,2.76-3.85,1.13-2.73,2.08-5.53,2.78-8.41,3.05-12.58,3.92-25.39,3.87-38.29,0-2.61-.84-4.67-3.19-5.97-1.71-1.01-3.43-1.99-5.12-3.03-1.02-.63-1.73-.34-2.5.47-1.31,1.4-2.72,2.71-4.09,4.05-6.97,6.85-15.51,9.68-25.09,9.45-6.19-.15-12.2-1.5-17.98-3.76-4.59-1.8-8.68-4.43-12.44-7.57-1.07-.89-1.81-.94-2.9-.11-1.71,1.31-3.54,2.46-5.31,3.7-3.41,2.39-6.9,4.65-10.74,6.29-5.05,2.17-10.26,3.7-15.84,2.86-3.73-.56-3.63-1.37-3.49,3.29,0,.15.08.31.12.46Z"/>
  <path class="cls-5" d="m397.12,712.06c-.75.15-1.22.62-1.67,1.22-1.96,2.6-3.98,5.16-5.97,7.74-.4.01-.83.13-1.19.01-3.18-1.04-5.95.03-8.64,1.6-1.04.61-2.11,1.1-3.24,1.5-6.22,2.22-12.53,2.17-18.79.44-7.37-2.04-14.74-4.04-22.22-5.61-4.84-1.02-9.59-.97-14.35.68-4.4,1.53-8.02,4.21-11.59,7.02-4.52,3.54-9.08,7.02-14.29,9.53-.48.23-1.11.34-1.09,1.09-.61-.04-1.22-.07-1.83-.11-.14-.23-.35-.29-.6-.21-5.71-1.86-9.48-5.66-11.39-11.34-1.1-3.26-1.87-6.58-2.06-10.03-.08-1.51-.24-3.03-.57-4.5-.43-1.88-1.19-2.35-3.23-2.39.58-2.34,2.39-3.71,4.11-5.11,1.62-1.32,3.53-2.19,5.47-2.93,5.11-1.93,10.4-3.04,15.84-3.54,12.98-1.18,25.99-1.18,39-.88,8.94.21,17.88.94,26.66,2.53,7.91,1.43,15.73,3.51,23.19,6.68,2.37,1.01,4.54,2.34,6.51,3.99.84.71,1.75,1.41,1.95,2.62Z"/>
  <path class="cls-1" d="m727,752.97c-1.95,3.39-4.82,5.93-7.91,8.2-5.05,3.71-10.78,5.65-17.03,5.37-6.79-.3-13.5-1.41-19.89-3.86-3.91-1.5-7.41-3.73-10.41-6.7-.11-.11-.23-.22-.34-.34-2.57-2.71-5.5-3.41-9.13-2.15-5.5,1.91-11.17,3.29-16.82,4.69-3.26.8-6.57,1.37-9.9,1.62-5.04.37-9.86-.64-14.33-3.03-1.77-.95-3.34-2.19-4.03-4.22,2.07-.45,4.13.13,6.13.37,4.75.56,9.39.04,13.97-.98,5.75-1.28,11.46-2.71,17.14-4.27,7.81-2.14,15.25-1.29,22.59,1.99,4.14,1.85,8.3,3.67,12.74,4.76,6.25,1.53,12.58,1.98,18.97,1.61,3.18-.19,6.3-.9,9.31-2,1.8-.66,3.62-1.22,5.51-1.55,1.21-.21,2.38-.32,3.43.48Z"/>
  <path class="cls-4" d="m699.68,786.32c-1.19,3.73-2.76,7.31-4.23,10.94-1.32,3.25-2.73,6.47-3.77,9.83-1.41,4.54-.34,8.32,3.01,11.58,3.89,3.8,7.75,7.62,11.14,11.89.59.74,1.28,1.42,1.75,2.51-2.86,1.03-5.75,1.43-8.65,1.65-11.65.87-23.31,1-34.96-.09-5.26-.49-10.53-.52-15.81-.65-7.19-.17-14.38-.35-21.57-.55-1.6-.04-3.19-.15-4.76-.49-1.8-.4-1.91-.47-1.94-2.39-.08-5.37.33-10.7,1.12-16,2.13-14.38,4.78-28.68,7.13-43.03.04-.23.16-.45.24-.67,1.79.68,3.34,1.83,5.11,2.57,4.69,1.96,9.64,2.75,14.62,3.23,2.75.26,5.55.26,8.33-.25,2.86-.53,5.53-1.43,8.1-2.75,2.11-1.08,2.12-1.03,3.91.61.82.75,1.7,1.44,2.57,2.14,8.36,6.74,17.79,10.4,28.66,9.93Z"/>
  <path class="cls-3" d="m699.68,786.32c-10.86.47-20.3-3.19-28.66-9.93-.87-.7-1.74-1.39-2.57-2.14-1.8-1.64-1.8-1.69-3.91-.61-2.57,1.32-5.25,2.22-8.1,2.75-2.79.52-5.59.52-8.33.25-4.98-.48-9.93-1.27-14.62-3.23-1.77-.74-3.32-1.89-5.11-2.57.04-.48.09-.95.13-1.43.07-1,.54-1.39,1.58-1.22,6.85,1.11,13.52.09,20.12-1.72,4.31-1.18,8.6-2.44,12.88-3.69.95-.28,1.71-.47,2.61.36,6.25,5.78,13.82,8.74,22.09,10.12,5.2.87,10.43,1.48,15.72,1.45.31,0,.61.08,1.22.16-1.72,3.9-3.38,7.67-5.04,11.44Z"/>
  <path class="cls-4" d="m395.8,734.92c2.36,1.3,3.18,3.36,3.19,5.97.05,12.9-.82,25.7-3.87,38.29-.7,2.87-1.64,5.67-2.78,8.41-.62,1.49-1.43,2.86-2.76,3.85-1.57,1.16-2.38,1.03-3.17-.71-.63-1.37-1.11-2.82-1.56-4.27-.69-2.21-1.27-4.45-1.96-6.66-.28-.91-.61-1.83-1.08-2.65-1.54-2.67-4.3-3.21-6.68-1.28-2.73,2.22-5.34,4.57-8.06,6.79-9.11,7.45-19.13,13.27-30.4,16.82-2.75.87-5.59,1.29-8.49,1.37-4.87.13-9.28-1.17-13.33-3.91-4.7-3.19-8.43-7.29-11.65-11.93-7.13-10.25-11-21.71-12.78-33.97,6.17,2.02,12.44,2.46,18.82,1.25,5.11-.97,10.13-2.24,14.49-5.25,1.24-.86,2.43-1.8,3.59-2.77.86-.72,1.62-.94,2.51-.08,3.34,3.19,7.35,5.28,11.55,7.08,6.87,2.94,13.88,5.06,21.47,4.96,7.56-.1,13.96-2.83,19.41-7.95,2.15-2.02,4.14-4.21,6.34-6.18,2.32-2.07,4.82-3.93,6.35-6.74.12-.23.54-.29.81-.44Z"/>
  <path class="cls-3" d="m395.8,734.92c-.28.14-.69.21-.81.44-1.53,2.81-4.04,4.67-6.35,6.74-2.2,1.96-4.19,4.16-6.34,6.18-5.45,5.12-11.85,7.85-19.41,7.95-7.59.1-14.61-2.03-21.47-4.96-4.2-1.8-8.22-3.88-11.55-7.08-.89-.85-1.66-.63-2.51.08-1.16.97-2.35,1.91-3.59,2.77-4.37,3.02-9.38,4.28-14.49,5.25-6.38,1.21-12.66.78-18.82-1.25-.04-.15-.12-.31-.12-.46-.14-4.66-.24-3.85,3.49-3.29,5.57.84,10.78-.7,15.84-2.86,3.84-1.65,7.33-3.91,10.74-6.29,1.77-1.24,3.6-2.39,5.31-3.7,1.08-.83,1.83-.78,2.9.11,3.76,3.14,7.86,5.77,12.44,7.57,5.78,2.26,11.8,3.62,17.98,3.76,9.58.22,18.12-2.6,25.09-9.45,1.37-1.34,2.77-2.65,4.09-4.05.77-.82,1.48-1.1,2.5-.47,1.69,1.04,3.41,2.02,5.12,3.03Z"/>
  <path class="cls-1" d="m294.07,737.28c-.02-.75.61-.86,1.09-1.09,5.21-2.51,9.77-5.99,14.29-9.53,3.58-2.81,7.2-5.49,11.59-7.02,4.76-1.65,9.52-1.7,14.35-.68,7.48,1.57,14.85,3.57,22.22,5.61,6.26,1.73,12.57,1.78,18.79-.44,1.14-.41,2.21-.9,3.24-1.5,2.68-1.57,5.46-2.63,8.64-1.6.36.12.79,0,1.19-.01-3.86,5.41-8.71,9.76-14.36,13.18-3.48,2.1-7.41,3.02-11.43,3.19-10.43.44-19.85-2.55-28.24-8.74-1.28-.95-2.53-1.96-3.83-2.87-2.65-1.85-5.29-1.89-8.01-.03-4.08,2.8-8.23,5.52-12.6,7.86-4.61,2.46-9.4,4.43-14.77,4.3-.75-.02-1.63.25-2.16-.62Z"/>
  <path class="cls-1" d="m291.65,736.96c.25-.08.46-.02.6.21-.27.13-.45.02-.6-.21Z"/>
</svg>