<?xml version="1.0" encoding="UTF-8"?>
<svg id="_图层_1" data-name="图层 1" xmlns="http://www.w3.org/2000/svg" viewBox="0 0 960 960">
  <defs>
    <style>
      .cls-1 {
        fill: #444694;
      }

      .cls-1, .cls-2, .cls-3, .cls-4, .cls-5, .cls-6, .cls-7, .cls-8, .cls-9, .cls-10, .cls-11, .cls-12, .cls-13 {
        stroke-width: 0px;
      }

      .cls-2 {
        fill: #454794;
      }

      .cls-3 {
        fill: #f4b79e;
      }

      .cls-4 {
        fill: #040404;
      }

      .cls-5 {
        fill: #080504;
      }

      .cls-6 {
        fill: #a76861;
      }

      .cls-7 {
        fill: #f6b89f;
      }

      .cls-8 {
        fill: #5b7dfe;
      }

      .cls-9 {
        fill: #0c0a0a;
      }

      .cls-10 {
        fill: #090808;
      }

      .cls-11 {
        fill: #a76760;
      }

      .cls-12 {
        fill: #5a7dfe;
      }

      .cls-13 {
        fill: #a96861;
      }
    </style>
  </defs>
  <path class="cls-4" d="m369.12,739.86c.13.09.24.23.39.27,1.12.34,2.17.82,2.24,2.16.07,1.45-1.05,2.07-2.16,2.56-.87.38-1.81.63-2.72.92-10.21,3.17-20.59,5.17-31.34,4.94-8.61-.18-16.82-1.8-24.35-6.19-.63-.37-1.19-.77-1.99-.37-2.2,1.11-4.64,1.11-7.01,1.38-2.13.25-4.26.48-6.41.73-.03,1.17.82,1.66,1.34,2.29,3.25,3.96,5.06,8.52,5.5,13.57.7,8.05-2.59,14.28-9.04,18.95-2.93,2.13-6.22,3.58-9.62,4.78-8.81,3.12-17.91,4.09-27.17,3.25-10.99-1-21.94-2.35-32.63-5.18-5.79-1.53-11.53-3.23-17.25-5-3.9-1.21-7.65-2.88-10.99-5.26-9.5-6.77-13.02-16.25-11.98-27.59.45-4.95,1.84-9.71,3.65-14.36,2.18-5.63,5.75-10.1,10.73-13.47,5.71-3.87,11.89-6.84,18.17-9.67,14.87-6.68,30.1-12.45,45.37-18.11,1.28-.48,1.69-1.23,2.01-2.34,1.5-5.21,3.99-9.76,8.64-12.85.6-.4,1.18-.83,1.82-1.15,2.19-1.1,3.37-.74,4.78,1.4,0,2.14-1.29,3.69-2.44,5.29-3.11,4.29-4.2,9.14-4.09,14.34-.15,2.82,1.51,4.61,3.55,6.13,1.48,1.1,3.16,1.87,4.88,2.54,5.63,2.19,11.52,3.16,17.48,3.86,1.98.23,3.97.5,5.9.98,3.23.8,4.79,3.59,3.96,6.82-.18.69-.47,1.36-.73,2.03-2.35,5.98-.2,13.77,4.86,17.74,5.19,4.07,11.18,6.08,17.62,6.91,5.88.76,11.8.64,17.71.49,1.52-.04,3.02-.24,4.48-.68.26.02.53.04.79.06.57.23,1.09.18,1.57-.23,4.82-.77,9.64-1.47,14.5-1.94Zm-81.75,8.54l.05.02c-.26-.74-.97-1.02-1.5-1.48-5.71-4.85-12.21-8.4-19.02-11.42-1.83-.81-3.58-1.75-5.15-3.01-.65-.52-1.23-1.07-.98-2,.25-.96.99-1.43,1.91-1.59,1.44-.25,2.87-.07,4.25.38,4.02,1.31,7.97,2.81,11.65,4.94.36.21.71.34,1.11.37,2.39,1.71,5.03,3.05,7.31,4.93.67.55,1.36.58,2.22.4,3.43-.71,6.89-1.28,10.33-1.95.89-.17,1.91.11,2.68-.66-.12-.29-.18-.53-.3-.72-3.56-5.51-5.95-11.3-4.42-18.05.21-.94-.24-1.28-1.13-1.35-1.27-.1-2.53-.32-3.8-.42-7.68-.6-14.82-2.96-21.57-6.58-2.14-1.15-3.96-2.68-5.46-4.59-1.5-1.91-2.43-4.1-2.94-6.48-.11-.52.04-1.43-1.03-1.14-.24.02-.5-.01-.71.08-6.07,2.82-12.28,5.29-18.48,7.81-9.53,3.88-19.02,7.83-28.31,12.25-4.11,1.95-8.09,4.15-11.88,6.67-4.06,2.7-6.9,6.3-8.29,11.04-1.08,3.69-2.06,7.4-2.29,11.23-.41,6.94.97,13.33,6.52,18.17.44.34.85.71,1.31,1.03,4.82,3.27,10.21,5.15,15.72,6.91,14.31,4.58,28.92,7.23,43.91,8.15,7.85.48,15.46-.44,22.95-2.65,2.92-.86,5.77-1.91,8.36-3.54,5.01-3.16,7.13-8.32,5.7-14.04-1.24-4.96-3.98-8.99-7.95-12.19-.16-.29-.38-.5-.73-.51Z"/>
  <path class="cls-12" d="m640.17,712.84c1.58-3.28,3.98-5.98,6.27-8.74,10.49-12.66,21.97-24.31,35.28-34.05,10.38-7.59,21.49-13.84,33.79-17.81,5.22-1.68,10.53-2.7,16.04-2.11,2.38.25,4.78.51,6.67,2.24-1.5.21-2.17,1.16-2.33,2.59-.12,1.03-.22,2.06-.11,3.1.3,2.85.61,5.7.89,8.55.26,2.61.56,5.23.11,7.85-.83.12-1.08.86-1.51,1.42-3.98,5.19-8,10.34-12.78,14.86-3.13,2.97-6.75,5.06-10.77,6.53-3.87,1.42-7.87,1.84-11.99,1.85-4.42,0-8.39,1.15-10.58,5.58-.38.78-.99,1.45-1.52,2.14-.4.52-.76,1.03-.65,1.73h0c-.87.06-1.02.66-1.02,1.37l-.02.02c-1,.11-1.4.98-1.97,1.6-.7.75-1.33,1.58-2.01,2.35-4.8,5.49-10.7,9.66-16.61,13.83-2.2,1.55-4.38,2.83-7.18,2.48-5.98-1.18-10.41-4.55-13.42-9.76-.94-1.64-1.52-3.49-2.2-5.28-.45-1.19-1.05-2.14-2.41-2.36Z"/>
  <path class="cls-4" d="m640.17,712.84c1.36.21,1.96,1.17,2.41,2.36.67,1.78,1.25,3.64,2.2,5.28,3,5.22,7.43,8.58,13.42,9.76,4.52.96,8.7.17,12.39-2.63,5.45-4.13,9.89-9.22,13.77-14.8.61-.88,1.64-1.57,1.6-2.83,0,0,.02-.02.02-.02.74-.16,1.02-.66,1.02-1.37h0c.71-.13,1.03-.75,1.4-1.23,2.62-3.4,5.91-4.06,9.79-2.48,3.08,1.25,6.23,1.14,9.42.46,4.3-.92,8.49-2.24,12.62-3.73,10.96-3.96,17.84-15.42,16.57-27.14.45-2.62.15-5.24-.11-7.85-.28-2.85-.59-5.7-.89-8.55-.11-1.04,0-2.06.11-3.1.16-1.43.83-2.38,2.33-2.59,1.66.42,2.19,1.77,2.52,3.2,1.86,8.13,3.12,16.33,2.5,24.7-.1,1.38.02,2.4,1.22,3.31,1.34,1.03,2.11,2.59,2.86,4.1,5.62,11.39,9.65,23.3,11.48,35.9,1.81,12.44-.49,24.16-6.45,35.2-4.96,9.18-11.33,17.19-19.5,23.72-.37.3-.75.59-1.14.88-2.69,2.02-2.67,2.01-1.5,5.29,1.5,4.21,3.32,8.31,4.05,12.76.42,2.58.2,5.1-.58,7.57-1.4,4.41-4.5,6.78-9.21,7.08-4.05.26-7.96-.5-11.79-1.72-5.43-1.73-10.57-4.09-15.35-7.21-6.04-3.95-11.7-8.37-16.77-13.51-5.16-5.24-10.27-10.53-14.79-16.35-1.82-2.34-3.49-4.76-4.89-7.38-2.24-4.21-1.98-8.1,1.23-11.73,3.07-3.49,5.71-7.29,8.06-11.3,1.97-3.37,3.04-6.98,3.11-10.83-.43-.46-.81-.22-1.15-.09-5.69,2.22-11.63,2.25-17.15.2-8.44-3.14-14.36-9.08-16.42-18.22-.17-.77-.22-1.58-.24-2.38-.03-1.32.48-2.33,1.85-2.73Zm40.46,24.2c-.19,6.66-2.34,12.65-6.05,18.15-1.83,2.72-3.78,5.36-5.92,7.84-1.18,1.37-1.27,2.56-.35,4.07,1,1.64,1.96,3.31,3.2,4.77,7.11,8.46,14.79,16.36,23.42,23.29,2.62,2.1,5.38,4.02,8.25,5.76,4.95,2.99,10.2,5.28,15.83,6.67,1.56.39,3.15.53,4.75.53,1.2,0,1.89-.58,2.22-1.75.47-1.66.47-3.31.13-4.98-1.02-5.02-2.69-9.86-4.28-14.71-1.17-3.56-.58-5.49,2.46-7.7,9.99-7.28,17.32-16.7,22.49-27.85,1.17-2.53,2.33-5.08,2.72-7.89.51-.83.66-1.78.83-2.72,1.12-6.06.86-12.12-.27-18.12-1.77-9.37-4.44-18.48-8.3-27.23-.38-.87-.52-1.91-1.36-2.75-.55,1.04-.99,1.89-1.45,2.72-3.9,7.07-9.22,12.62-16.86,15.67-4.24,1.69-8.58,3.03-13.02,4.09-4.07.97-8.07.89-12.07-.28-2.04-.6-2.1-.6-3.28,1.21-3.64,5.6-7.83,10.71-13.09,14.88-.54.42-.99.88-.74,1.6.54,1.53.33,3.17.75,4.72Z"/>
  <path class="cls-8" d="m353.05,742.03c-.26-.02-.53-.04-.79-.06-.19-.51-.63-.67-1.11-.8-4.19-1.17-7.97-3.2-11.75-5.3-5.64-3.11-10.74-6.88-15.33-11.38-3.44-3.37-6.33-7.18-9.07-11.12-2.71-3.89-6.21-6.53-10.88-7.68-4.57-1.12-9.18-2.01-13.8-2.86-4.24-.78-8.44-1.69-12.26-3.86-1.96-1.11-3.63-2.6-5.49-3.83-.11-5.2.99-10.05,4.09-14.34,1.16-1.6,2.44-3.15,2.44-5.29,6.8-2.35,13.38-1.26,19.86,1.29,5.52,2.17,10.63,5.12,15.66,8.24,6.86,4.26,13.4,8.97,19.76,13.93,5.19,4.05,9.73,8.77,13.86,13.87,6.62,8.2,13.15,16.47,19.72,24.71.55.69,1.16,1.33,1.16,2.3-4.86.46-9.68,1.16-14.5,1.94-.56-.16-1.09-.16-1.57.23Z"/>
  <path class="cls-10" d="m214.23,698.16c-.84.01-1.45-.08-1.84-.71-.44-.71-.31-1.37.11-2.02.45-.68,1.11-1.15,1.75-1.61,13.32-9.5,27.1-18.32,41.01-26.92,2.36-1.46,4.95-2.57,7.44-3.82.42-.21.89-.41,1.35-.45,1.19-.12,1.94,1.02,1.34,2.07-.27.47-.69.88-1.12,1.22-1.94,1.54-3.82,3.17-5.87,4.54-12.51,8.42-24.98,16.89-37.93,24.64-1.44.86-2.92,1.65-4.39,2.43-.63.33-1.28.66-1.86.64Z"/>
  <path class="cls-9" d="m240.65,693.37c-1.66-.02-2.47-1.33-1.77-2.79.07-.14.14-.3.25-.4,2.65-2.54,5.43-4.89,9.09-5.86.84-.22,1.6-.03,2.16.64.65.79.43,1.64-.04,2.44-.2.34-.4.7-.68.97-2.4,2.29-5.35,3.65-8.35,4.92-.21.09-.47.06-.65.09Z"/>
  <path class="cls-13" d="m288.1,748.91c3.97,3.2,6.71,7.22,7.95,12.19,1.43,5.72-.69,10.89-5.7,14.04-2.59,1.63-5.44,2.68-8.36,3.54-7.49,2.2-15.1,3.13-22.95,2.65-14.98-.92-29.6-3.57-43.91-8.15-5.51-1.76-10.9-3.64-15.72-6.91-.46-.31-.88-.68-1.31-1.03.5-.32.52-.78.29-1.25-1.34-2.67-1.44-5.53-1.29-8.42.21-3.97,1.94-7.13,4.99-9.67,3.21-2.67,6.95-4.2,10.94-5.16,8.94-2.17,18-2.31,27.08-1.33,5.45.59,10.88,1.46,16.31,2.28,8.67,1.3,17.24,3.09,25.68,5.47,1.74.49,3.41,1.4,5.32,1.26,0,0-.05-.02-.05-.02.24.17.49.34.73.51Z"/>
  <path class="cls-3" d="m287.41,748.41c-1.9.14-3.57-.77-5.32-1.26-8.45-2.38-17.01-4.16-25.68-5.47-5.43-.82-10.85-1.69-16.31-2.28-9.08-.99-18.14-.84-27.08,1.33-3.99.97-7.72,2.49-10.94,5.16-3.05,2.54-4.78,5.7-4.99,9.67-.15,2.89-.05,5.75,1.29,8.42.23.47.21.93-.29,1.25-5.55-4.84-6.94-11.23-6.52-18.17.23-3.83,1.21-7.54,2.29-11.23,1.39-4.75,4.23-8.34,8.29-11.04,3.79-2.52,7.77-4.72,11.88-6.67,9.29-4.41,18.79-8.37,28.31-12.25,6.2-2.52,12.41-4.99,18.48-7.81.2-.1.47-.06.71-.08.21,1.41.35,2.85.9,4.17,3.6,8.76,8.61,16.29,17.64,20.36,1.81.81,1.78.9,1.25,2.95-.77,3-1.29,6.05-1.66,9.12-.4-.03-.74-.16-1.11-.37-3.67-2.13-7.62-3.63-11.65-4.94-1.38-.45-2.81-.63-4.25-.38-.92.16-1.65.63-1.91,1.59-.24.93.34,1.48.98,2,1.57,1.26,3.31,2.2,5.15,3.01,6.81,3.02,13.31,6.57,19.02,11.42.53.45,1.25.74,1.5,1.48Zm-65.9-21.78c-4.71.12-8.36.41-11.96,1.19-3.28.71-6.16,2.18-8.35,4.79-1.18,1.41-1.36,2.58-.64,3.44.75.89,1.72.92,3.45-.12,2.57-1.55,5.38-2.38,8.3-2.9,6.41-1.13,12.85-1.06,19.32-.64,1.99.13,3.98.18,5.97.26.75.03,1.49-.05,1.73-.92.26-.94-.29-1.53-1.04-1.92-.49-.26-1.03-.43-1.57-.57-1.16-.29-2.32-.56-3.49-.8-4.21-.88-8.39-1.99-11.71-1.82Z"/>
  <path class="cls-2" d="m272.55,695.15c1.86,1.23,3.53,2.72,5.49,3.83,3.82,2.17,8.02,3.08,12.26,3.86,4.62.85,9.23,1.74,13.8,2.86,4.67,1.15,8.17,3.79,10.88,7.68,2.74,3.93,5.63,7.74,9.07,11.12,4.59,4.5,9.69,8.27,15.33,11.38,3.79,2.09,7.57,4.12,11.75,5.3.48.13.92.28,1.11.8-1.46.45-2.95.64-4.48.68-5.91.15-11.83.27-17.71-.49-6.44-.83-12.43-2.84-17.62-6.91-5.06-3.97-7.21-11.76-4.86-17.74.26-.67.55-1.34.73-2.03.83-3.23-.72-6.01-3.96-6.82-1.93-.48-3.92-.75-5.9-.98-5.96-.7-11.85-1.68-17.48-3.86-1.72-.67-3.4-1.44-4.88-2.54-2.04-1.52-3.71-3.32-3.55-6.13Z"/>
  <path class="cls-11" d="m279.67,734.59c.36-3.07.89-6.12,1.66-9.12.53-2.05.56-2.14-1.25-2.95-9.03-4.07-14.04-11.6-17.64-20.36-.55-1.33-.68-2.76-.9-4.17,1.07-.28.92.62,1.03,1.14.51,2.38,1.44,4.56,2.94,6.48,1.49,1.91,3.32,3.44,5.46,4.59,6.75,3.62,13.89,5.98,21.57,6.58,1.27.1,2.53.32,3.8.42.89.07,1.35.41,1.13,1.35-1.53,6.75.86,12.54,4.42,18.05.13.19.18.43.3.72-.77.76-1.79.48-2.68.66-3.44.66-6.9,1.24-10.33,1.95-.86.18-1.55.15-2.22-.4-2.28-1.88-4.92-3.22-7.31-4.93Z"/>
  <path class="cls-2" d="m353.05,742.03c.48-.4,1.01-.39,1.57-.23-.47.41-1,.46-1.57.23Z"/>
  <path class="cls-3" d="m288.1,748.91c-.24-.17-.49-.34-.73-.51.35.02.57.22.73.51Z"/>
  <path class="cls-1" d="m736.79,674.47c1.27,11.71-5.61,23.18-16.57,27.14-4.13,1.49-8.31,2.82-12.62,3.73-3.18.68-6.34.79-9.42-.46-3.88-1.58-7.17-.92-9.79,2.48-.37.48-.69,1.1-1.4,1.23-.11-.7.25-1.21.65-1.73.53-.7,1.14-1.37,1.52-2.14,2.19-4.43,6.16-5.58,10.58-5.58,4.11,0,8.12-.42,11.99-1.85,4.01-1.47,7.63-3.56,10.77-6.53,4.77-4.52,8.79-9.67,12.78-14.86.43-.56.67-1.3,1.51-1.42Z"/>
  <path class="cls-1" d="m685.96,709.98c.04,1.26-.99,1.95-1.6,2.83-3.88,5.58-8.33,10.67-13.77,14.8-3.69,2.8-7.87,3.59-12.39,2.63,2.8.35,4.97-.93,7.18-2.48,5.91-4.17,11.81-8.33,16.61-13.83.68-.78,1.3-1.6,2.01-2.35.58-.62.97-1.49,1.97-1.6Z"/>
  <path class="cls-1" d="m687,708.59c0,.71-.27,1.21-1.02,1.37,0-.71.15-1.31,1.02-1.37Z"/>
  <path class="cls-7" d="m749.51,743.24c-.38,2.81-1.54,5.36-2.72,7.89-5.17,11.15-12.5,20.57-22.49,27.85-3.04,2.21-3.63,4.14-2.46,7.7,1.6,4.86,3.26,9.69,4.28,14.71.34,1.67.33,3.32-.13,4.98-.33,1.18-1.02,1.75-2.22,1.75-1.6,0-3.19-.14-4.75-.53-5.63-1.39-10.88-3.68-15.83-6.67-2.88-1.74-5.63-3.65-8.25-5.76-8.63-6.93-16.31-14.83-23.42-23.29-1.24-1.47-2.19-3.14-3.2-4.77-.92-1.51-.83-2.7.35-4.07,2.14-2.48,4.08-5.11,5.92-7.84,3.7-5.5,5.86-11.49,6.05-18.15,5.24-.19,9.92-2.01,14.34-4.76,4.26-2.65,7.66-6.22,11.02-9.85.99-1.07,1.84-1.38,3.31-.9,5.37,1.78,10.89,2.88,16.53,3.53,5.24.61,10.13-.16,14.95-2.06,1.75-.69,2.02-.64,2.62,1.13.94,2.79,1.72,5.64,2.62,8.44,1.14,3.56,2.32,7.1,3.49,10.65Z"/>
  <path class="cls-6" d="m749.51,743.24c-1.17-3.55-2.35-7.09-3.49-10.65-.9-2.81-1.68-5.65-2.62-8.44-.6-1.78-.87-1.82-2.62-1.13-4.82,1.89-9.71,2.66-14.95,2.06-5.65-.66-11.16-1.75-16.53-3.53-1.47-.49-2.32-.17-3.31.9-3.36,3.63-6.76,7.2-11.02,9.85-4.41,2.75-9.09,4.57-14.34,4.76-.41-1.55-.21-3.19-.75-4.72-.25-.72.21-1.18.74-1.6,5.26-4.17,9.45-9.28,13.09-14.88,1.18-1.82,1.24-1.81,3.28-1.21,4,1.17,8.01,1.25,12.07.28,4.44-1.06,8.79-2.4,13.02-4.09,7.64-3.05,12.96-8.6,16.86-15.67.46-.83.9-1.68,1.45-2.72.84.84.97,1.88,1.36,2.75,3.85,8.74,6.53,17.86,8.3,27.23,1.13,6,1.39,12.06.27,18.12-.17.94-.32,1.88-.83,2.72Z"/>
  <path class="cls-5" d="m221.51,726.63c3.32-.17,7.5.94,11.71,1.82,1.17.24,2.34.51,3.49.8.54.14,1.08.31,1.57.57.75.39,1.31.98,1.04,1.92-.24.86-.98.95-1.73.92-1.99-.08-3.98-.13-5.97-.26-6.46-.43-12.91-.49-19.32.64-2.92.52-5.72,1.35-8.3,2.9-1.74,1.04-2.71,1.01-3.45.12-.72-.86-.54-2.04.64-3.44,2.19-2.61,5.07-4.07,8.35-4.79,3.6-.78,7.25-1.06,11.96-1.19Z"/>
</svg>