<?xml version="1.0" encoding="UTF-8"?>
<svg id="_图层_1" data-name="图层 1" xmlns="http://www.w3.org/2000/svg" viewBox="0 0 960 960">
  <defs>
    <style>
      .cls-1 {
        fill: #fbfbfa;
      }

      .cls-1, .cls-2, .cls-3, .cls-4, .cls-5, .cls-6, .cls-7, .cls-8, .cls-9, .cls-10, .cls-11, .cls-12 {
        stroke-width: 0px;
      }

      .cls-2 {
        fill: #a7665f;
      }

      .cls-3 {
        fill: #fcd441;
      }

      .cls-4 {
        fill: #060404;
      }

      .cls-5 {
        fill: #a66861;
      }

      .cls-6 {
        fill: #f3b79e;
      }

      .cls-7 {
        fill: #af6a1f;
      }

      .cls-8 {
        fill: #5a7dfe;
      }

      .cls-9 {
        fill: #444795;
      }

      .cls-10 {
        fill: #f5b79f;
      }

      .cls-11 {
        fill: #f5b89f;
      }

      .cls-12 {
        fill: #f4cd3e;
      }
    </style>
  </defs>
  <path class="cls-4" d="m221.02,518.62c-1.81-.08-2.61-1.41-3.27-2.78-2.79-5.79-2.96-11.72-.59-17.65,2.47-6.18,7.13-10.28,13.01-13.14.85-.41,1.71-.79,2.65-1.22-2.35-5.01-4.36-10.05-6.28-15.12-3.23-8.54-5.28-17.41-7.3-26.29-.09-.39-.21-.78-.26-1.17-.12-.91-.56-1.32-1.53-1.44-2.45-.31-4.89-.76-7.32-1.26-10.01-2.06-16.92-10.5-17.8-20.35-.35-3.96-.1-7.8.93-11.63,1.38-5.16,4.22-9.25,8.58-12.31.91-.64,1.83-1.27,2.72-1.89-.13-.76-.76-.84-1.21-1.08-6.08-3.14-9.45-8.16-10.45-14.86-.33-2.22-.75-4.43,0-6.64.21-.62.05-1.03-.49-1.42-4.8-3.52-7.63-8.56-10.18-13.73-3.12-6.34-5.41-12.97-5.95-20.09-.26-3.46.05-6.88.88-10.23.87-3.55,2.87-6.38,5.9-8.45,1.92-1.31,3.95-2.42,6.08-3.34,7.55-3.26,15.18-6.31,22.98-8.91,1.36-.45,2.73-.91,4.17-1.03.56-.05,1.09-.16,1.56-.52,4.61-3.54,9.99-4.86,15.65-5.31,11.5-.91,22.82.19,33.98,3.05,2.56.66,4.99,1.66,7.25,3.07,3.74,2.34,5.5,5.64,5.12,10.08-.37,4.3-.98,8.57-1.82,12.81-.08.39-.13.78-.19,1.17,1.08.67,2.28.84,3.4,1.23,3.34,1.15,6.55,2.57,9.36,4.75,4.7,3.64,6.91,8.31,5.52,14.29-1.95,8.36-4.81,16.39-9.06,23.88-.39.68-.97,1.27-1.09,2.1.44.65,1.23.69,1.84,1.04,1.17.68,2.42,1.25,3.53,2.01,8.31,5.65,11.26,14.06,8.3,23.67-1.68,5.46-4.77,10.08-8.7,14.16-1.89,1.96-3.91,3.79-6.11,5.38-1.05.76-1.31,1.6-1.26,2.84.4,8.71,1.34,17.37,2.6,25.99.83,5.69,1.81,11.35,2.75,17.17,2.02-.24,3.97-.52,5.93-.7,3.95-.36,7.82.11,11.59,1.32,11.78,3.79,19.18,15.01,18.26,27.58-.37,5.01-1.84,9.71-3.86,14.26-.57,1.29-1.36,2.36-2.88,2.61-1.76-.15-2.67-1.16-2.91-2.86.28-.83.52-1.67.84-2.49,2.03-5.29,2.91-10.72,2.22-16.4-1.03-8.37-5.84-13.86-14.02-15.88-3.29-.81-6.58-.88-9.96-.44-7.81,1.03-14.66,4.14-20.74,9.06-2.59,1.85-4.7,4.2-6.81,6.56-1.69,1.88-3.14,3.97-5.06,5.63-2.65-.13-3.49-.51-3.45-2.27.05-1.79-.96-2.12-2.23-2.46-5.21-1.4-10.51-1.83-15.83-.92-2.71.46-5.49.92-7.79,2.64-1.82.12-2.97,1.45-4.23,2.46-4.82,3.89-7.02,8.95-6.41,15.17.2,2.08.86,4.05,1.38,6.05.59,2.27.21,3.03-1.93,4.23Zm28.52-90.17c1.91-.58,3.84-1.11,5.67-1.94,3.09-.84,6.03-2.07,8.94-3.36,7.26-3.21,14.26-6.8,19.98-12.5,3.02-3.01,5.74-6.19,7.5-10.11,1.46-3.09,2.31-6.32,1.7-9.74-1.07-5.9-5.2-9.3-10.08-12.02-.2-.11-.45-.19-.67-.21-.72-.05-1.28.18-1.29,1.02-.03,1.99-.04,3.99-.06,5.99,0,.71.35.98,1.03.98.39,0,.79.11,1.18.16.2.37.49.58.92.58l.02.02c.94,2.04.18,3.68-1.21,5.2-2.27,2.48-4.84,4.62-7.61,6.52-7.52,5.19-15.93,8.3-24.68,10.65-4.08,1.09-8.24,1.7-12.41,2.23-.79.1-1.59.19-2.38.29-3.65-.02-7.31-.03-10.96-.05-4.48-.31-8.84-1.17-13.06-2.72-.83-.47-1.75-.83-2.48-1.42-1.18-.96-.86-2.23.59-2.67.5-.15,1.13.18,1.62-.51-.83-2.78-1.69-5.64-2.63-8.74-1.36,1.15-2.43,2.09-3.55,2.98-3.57,2.84-5.44,6.6-5.95,11.07-.26,2.31-.27,4.63.05,6.93,1.15,8.27,5.38,12.87,13.51,14.69,1.47.33,2.98.52,4.47.78,2.11.44,4.26.6,6.41.63,6.68.07,13.16-1.17,19.57-2.92,2-.48,3.98-1.05,5.89-1.82Zm-52.49-64.2c1.42.97,3.02,1.31,4.71,1.44,6.38.49,11.16-2.5,15.28-6.95.38-.41.52-.79.16-1.25-2.36-3.01-3.41-6.6-4.56-10.15-.42-3.89-1.08-7.74-1.34-11.65-.52-7.76-.48-15.48,1.22-23.12.29-1.3.64-2.58.97-3.91-.85-.12-1.36.31-1.92.55-4.18,1.8-8.34,3.62-12.51,5.44-3.58,1.56-7.16,3.14-10.67,4.86-3.74,1.83-5.68,4.74-5.98,8.84-.05.64-.12,1.27-.12,1.91,0,11.83,4.23,22.12,11.45,31.3.89,1.13,1.97,2.1,3.32,2.69Zm23.72-11.21c.21.81.85,1.33,1.35,1.92,3.07,3.61,7.41,3.91,11.31.65-1.76-1.92-3.13-4.13-4.48-6.35-.44-1.11-.92-2.21-1.33-3.33-2.15-5.93-2.2-11.89-.13-17.85,1.42-4.08,4.32-6.39,8.55-7.13,2.38-.42,4.76-.44,7.16-.26,4.63.35,9.18,1.24,13.76,1.92,4.67.7,9.28,1.61,13.86,2.74.78.19,1.42.31,1.54-.77.48-4.13,1.16-8.23,1.22-12.4.03-1.64-.71-2.71-2.07-3.49-1.82-1.06-3.79-1.72-5.83-2.12-10.86-2.14-21.81-3.25-32.88-2.77-2.8.12-5.52.76-8.19,1.67-2.8.96-4.57,2.78-5.42,5.6-.62,2.07-1.09,4.17-1.41,6.31-1.27,8.53-.92,17.06.15,25.57.44,3.48.97,6.98,2.8,10.09Zm56.6,81.07c-.02-3.06-.05-6.12-.07-9.22-1.21.12-1.9.69-2.66,1.09-12.49,6.64-25.72,11.09-39.64,13.54-2.91.51-5.85.7-8.8.8-.93.03-1.35.33-1.03,1.3.45,1.36.87,2.72,1.31,4.08,1,4.94,2.52,9.73,4.1,14.5,2.38,7.14,5.83,13.83,8.62,20.8.35.86.82.97,1.65.85,2.93-.39,5.88-.56,8.85-.35,3.52.25,7,.77,10.36,1.81,1.21.37,1.91.13,2.64-.83.77-1.02,1.66-1.95,2.56-2.86,4.43-4.46,9.36-8.24,15.09-10.88,1.18-.54,1.4-1.07,1.04-2.35-1.48-5.33-2.19-10.8-2.67-16.3-.47-5.33-.9-10.67-1.34-16Zm-11.4-75.95c-3.16,1.08-6.2,2.54-9.6,2.9-5.68.6-11.33,1-16.71-1.49-.86-.4-1.43-.2-2.16.31-4.36,3.08-9.07,4.25-14.24,2.26-.7-.27-1.08-.22-1.6.42-2.84,3.5-6.58,5.74-10.72,7.39-3.17,1.27-6.51,1.49-9.87,1.48-.92-.09-1.84-.18-2.99-.3,1.06,5.28,2.65,9.88,7.41,12.75,3.94,2.37,8.13,4.03,12.56,5.17,8.2,2.12,16.12,1.75,23.6-2.63.69-.4,1.44-.69,2.27-.66,1.19.04,2.18.47,2.78,1.55.63,1.13.34,2.17-.38,3.12-.38.5-.88.92-1.33,1.37-2.01.17-3.91.79-5.81,1.38-7.73,2.43-15.56,3.57-23.63,2.19-.32-.05-.64-.02-1.01.29.74,2.78,1.61,5.6,2.2,8.47.29,1.4.94,1.79,2.21,1.94,4.55.55,9.1.38,13.65.18.38-.02.76-.21,1.13-.31,9.39-.68,18.49-2.59,27.23-6.15,5.05-2.06,9.84-4.58,14.24-7.84,1.11-.82,1.7-1.69,1.76-3.14.11-2.88.03-5.75.03-8.63,0-2.77-.55-5.64,1.7-7.93.05-.05.04-.15.07-.23,2.64-7.45,5.81-14.71,8.27-22.23.5-1.52.87-3.07,1.31-4.61.77-2.67-.24-4.68-2.35-6.27-1.8-1.36-3.82-2.33-5.93-3.09-3.01-1.09-6.12-1.82-9.22-2.61-8.67-2.24-17.41-4.11-26.2-5.75-2.73-.51-5.51-.95-8.33-.39-1.58.32-2.61,1.12-3.13,2.6-.69,1.97-1.23,3.97-.9,6.1-.39,5.79,1.78,10.63,5.71,14.7,2.05,2.12,4.72,3.2,7.66,3.61,4.58.64,9.05-.05,13.51-.94,2.22-.2,4.44-.41,6.66-.6,1.12-.09,2.05.21,2.49,1.38.42,1.11.06,2.05-.68,2.84-.48.52-1.1.91-1.66,1.36Z"/>
  <path class="cls-4" d="m617.38,500.85c-2.35.84-3.48.63-4.42-1.31-4.06-8.39-5.97-17.11-2.75-26.2,3.69-10.44,11.42-16.03,22.24-17.56,3.52-.5,7.02-.27,10.49.45.98.2,1.56.19,1.77-1.12,1.53-9.63,3.14-19.25,4.14-28.95.46-4.45.72-8.92.95-13.39.05-.99-.26-1.63-1.04-2.23-2.35-1.8-4.6-3.73-6.62-5.89-4.27-4.57-7.54-9.71-8.92-15.9-2.52-11.29,3.44-18.68,11.05-22.97,1.03-.58,2.12-1.05,3.29-1.63-.74-1.29-1.45-2.43-2.08-3.61-3.61-6.81-6.25-14.01-8.03-21.49-1.69-7.08.54-12.23,6.69-16.21,2.84-1.84,5.93-3.12,9.13-4.15.68-.22,1.36-.43,2.22-.7-.45-2.85-.94-5.65-1.34-8.47-.3-2.14-.56-4.28-.68-6.43-.21-3.74,1.36-6.64,4.4-8.79,3.26-2.32,6.99-3.5,10.83-4.33,11.01-2.36,22.13-3.37,33.36-2.08,4.73.54,9.23,1.91,13.11,4.82.46.34.9.67,1.48.73,3.14.33,6.04,1.5,8.95,2.58,5.69,2.1,11.36,4.26,16.93,6.68,1.61.7,3.17,1.51,4.76,2.26,6.37,3,9.31,8.2,9.74,15.06.29,4.51-.07,8.94-1.29,13.3-1.75,6.27-4.15,12.24-7.66,17.75-1.94,3.05-4,5.99-6.99,8.12-.58.41-.77.79-.64,1.57,1.25,7.54-1.72,16.86-9.67,21-.7.37-1.38.78-2.06,1.17.11.63.61.76.98.99,9.51,5.91,12.29,14.81,11.26,25.39-.42,4.3-1.8,8.22-4.45,11.72-3.34,4.4-7.67,7.17-13.02,8.35-2.34.52-4.7.97-7.07,1.26-1.31.16-1.86.58-2.16,1.96-1.52,6.86-3.06,13.72-5.18,20.43-2.19,6.94-4.95,13.66-7.89,20.31-.19.43-.39.86-.63,1.4.93.43,1.78.81,2.62,1.22,5.64,2.73,10.16,6.63,12.75,12.47,2.49,5.62,2.48,11.32.32,17.03-.31.81-.73,1.61-1.23,2.33-1.42,2.05-2.78,2.12-4.65.31-.45-1.29-.02-2.5.32-3.72.69-2.53,1.5-5.04,1.17-7.72.16-1.22-.1-2.37-.45-3.53-1.77-6.06-5.86-9.99-11.55-12.29-7.55-3.04-15.25-2.82-23-.72-1.01.27-1.48.72-1.38,1.83.1,1.14-.44,2.03-1.51,2.48-1.16.48-2.21.17-3.05-.73-.93-.99-1.82-2.02-2.71-3.04-3.79-4.35-7.76-8.5-12.79-11.46-.94-.55-1.78-1.39-3-1.3-2.12-1.03-4.1-2.31-6.38-3.03-2.91-.92-5.88-1.52-8.91-1.71-5.14-.32-10.05.51-14.37,3.53-5.35,3.75-7.41,9.22-7.72,15.48-.25,4.93.63,9.71,2.6,14.25.69,1.59.83,3.05-.26,4.49Zm111.5-144.45c1.21.76,2.44.59,3.68.09,3.55-.52,6.09-2.58,8.19-5.35,4.9-6.48,7.91-13.8,9.65-21.69.82-3.7.94-7.42.43-11.19-.44-3.23-1.91-5.72-4.83-7.25-1.62-.85-3.24-1.74-4.91-2.48-6.71-2.97-13.44-5.88-20.17-8.82-.28-.12-.55-.32-.88-.15-.16.11-.16.24-.11.42,2.35,8.08,2.77,16.32,2.26,24.67-.27,4.39-.93,8.73-1.31,13.1-.5.66-.57,1.47-.75,2.23-.54,2.18-1.49,4.17-2.48,6.17-.51,1.04-2,1.84-1.6,2.98.35,1.01,1.53,1.77,2.41,2.56.82.74,1.69,1.45,2.6,2.07,2.33,1.58,4.84,2.69,7.74,2.6l.07.03Zm-79.6,26c-.23-.68-.56-1.34-.65-2.03-.19-1.35.51-2.66,1.79-2.65,1.96.02,1.7-1.1,1.68-2.3-.03-1.59,0-3.19-.06-4.78-.04-1.06-.56-1.41-1.53-1.14-.3.08-.58.26-.86.41-2.75,1.53-5.18,3.44-7.08,5.97-1.83,2.44-2.82,5.16-2.63,8.25.37,6.22,3.25,11.21,7.6,15.48,3.14,3.65,6.81,6.69,10.97,9.07,7.61,4.37,15.67,7.76,24.09,10.25,4.77,1.78,9.69,3.02,14.67,4.02,8.32,1.67,16.62,1.63,24.81-.75,6.52-1.9,10.28-6.32,11.38-13.01.09-.55.19-1.1.26-1.65,1.14-8.72-1.72-15.58-9.55-20.26-.79,2.16-1.47,4.32-1.96,6.55-.2.73-.78,1.39-.4,2.34.39.04.78.07,1.17.11.69.07,1.23.36,1.41,1.08.2.81-.19,1.41-.82,1.84-.46.31-.96.59-1.47.8-2.15.86-4.32,1.67-6.61,2.11-9.15,1.76-18.28,1.41-27.39-.29-3.37-.63-6.69-1.49-10.03-2.25-.97-.76-2.18-.93-3.3-1.32-9.67-3.4-18.55-8.05-25.5-15.83Zm63.19-38.38c1.41-2.02,1.93-4.36,2.35-6.71,1.35-7.5,1.79-15.07,1.36-22.67-.24-4.38-.76-8.74-2.16-12.96-.87-2.63-2.55-4.33-5.15-5.25-2.88-1.02-5.84-1.64-8.89-1.77-10.35-.44-20.57.69-30.74,2.44-2.59.45-5.15,1.12-7.45,2.5-1.33.8-2.16,1.85-2.09,3.49.19,4.47.73,8.89,1.49,13.38.6-.11,1.07-.16,1.52-.27,7.44-1.88,15.04-2.95,22.61-4.07,3.94-.58,7.91-1.05,11.92-.3,4.2.79,7.16,2.99,8.55,7.1.33.98.64,1.97.89,2.98.98,3.95.57,7.94.2,11.91-1.66,4.31-3.23,8.66-6.56,12.07-.56.57-.28,1.01.28,1.33,3.06,1.78,6.57,2.58,9.86-.57.8-.77,1.59-1.56,1.98-2.64Zm-56.49,78.25c-.09,5.91-.61,11.8-1.2,17.68-.6,6.04-1.25,12.08-2.97,17.93-.29.99.13,1.27.83,1.6,7.13,3.34,13.15,8.13,18.2,14.14.67.79,1.27.98,2.26.68,6.36-1.87,12.84-2.47,19.42-1.52.83.12,1.29.04,1.65-.83,2.43-5.82,5.01-11.57,7.36-17.42,2.08-5.18,3.66-10.54,4.81-16.01.91-1.8,1.14-3.8,1.72-5.7.4-1.33.23-1.45-1.2-1.58-2.55-.22-5.12-.27-7.63-.69-13.65-2.27-26.67-6.51-38.97-12.89-.99-.52-1.99-1.03-2.99-1.53-.95-.48-1.33-.09-1.32.88,0,1.76.02,3.51.02,5.27Zm76.09-59.93c-.08-.02-.16-.06-.23-.06-8.19.22-14.9-2.9-20.26-9.02-.51-.59-.89-.44-1.43-.23-5.18,2.01-9.88.86-14.23-2.26-.84-.6-1.5-.68-2.39-.24-1.66.82-3.44,1.31-5.26,1.56-4.64.63-9.28.44-13.8-.65-3.45-.84-7-1.73-9.55-4.56.05-3.08.52-3.6,3.47-3.35,2.7.22,5.38.62,8.08.94.92.5,1.9.6,2.92.43.3,0,.6.02.9.02,10.78,1.85,18.66-3.03,20.68-14.82.69-3.05.3-6.03-.56-8.98-.55-1.87-1.71-2.9-3.72-3.21-2.68-.41-5.28-.03-7.86.45-7.54,1.4-15.04,2.96-22.48,4.83-4.34,1.09-8.71,2.02-12.94,3.52-2.27.81-4.43,1.84-6.32,3.36-1.91,1.54-2.75,3.44-2.1,5.92.47,1.78.92,3.55,1.53,5.29,2.18,6.26,4.59,12.44,7.02,18.6.5,1.26.7,2.73,1.49,3.76,1.19,1.53,1.37,3.14,1.35,4.93-.05,3.67.01,7.35,0,11.03,0,1.39.54,2.37,1.7,3.19,2.22,1.57,4.46,3.1,6.87,4.37,15.65,8.25,32.38,10.95,49.89,9.69,1.49-.11,1.68-.87,1.63-2.02.9-2.05,1.19-4.27,1.85-6.39.71-2.29.62-2.31-1.67-2.02-4.28.54-8.55.59-12.84-.06-4.42-.67-8.62-2.19-12.97-3.16-1.67-.37-3.14-1.05-4.36-2.25-.21-1.38-.33-2.75,1.02-3.69,1.44-1,2.88-.66,4.3.09.35.19.69.4,1.05.58,3.44,1.79,7.07,2.94,10.96,3.18,7.72.47,14.85-1.63,21.7-4.97,4.63-2.26,7.87-5.67,9-10.83.23-1.04.8-2.04.52-3.27-1.08.11-2.03.2-2.97.3Z"/>
  <path class="cls-8" d="m617.38,500.85c1.09-1.44.95-2.9.26-4.49-1.96-4.54-2.85-9.31-2.6-14.25.31-6.26,2.37-11.74,7.72-15.48,4.31-3.02,9.23-3.85,14.37-3.53,3.03.19,6,.79,8.91,1.71,2.28.72,4.27,2,6.38,3.03,0,.66.48.97.93,1.3,1.35,1.01,2.46,2.25,3.54,3.54,4.44,5.29,7.96,11.16,11.01,17.34.92,1.86,1.8,3.75,2.82,5.55,1.04,1.83,2.53,3.01,4.83,2.95,2.29-.06,3.71-1.26,4.63-3.2.31-.64.62-1.32.76-2.01.29-1.45,1.22-2.13,2.53-2.57,3.61-1.21,7.24-1.69,11.05-.97,4.73.89,9.38,1.79,13.24,5.03,1.12.94,2.47,1.8,4.09,1.81.34,2.68-.47,5.19-1.17,7.72-.34,1.22-.77,2.44-.32,3.72-9.21,4.62-19.19,5.73-29.26,6.27-8.41.45-16.74-.68-25.06-1.77-8.16-1.07-16.28-2.37-24.22-4.55-5.26-1.44-10.39-3.25-14.45-7.15Z"/>
  <path class="cls-8" d="m261.5,493.73c1.92-1.67,3.38-3.75,5.06-5.63,2.11-2.35,4.22-4.71,6.81-6.56,1.51.04,3.02.08,4.53.11,1.03.02,2.04.08,3.07.33,4.37,1.06,8.07,3.28,11.36,6.27,3.4,3.08,5.77,6.97,8.43,10.63,2.12,2.92,4.28,5.77,7.84,7.07,2.09.76,4.21,1.43,6.43,1.72.24,1.7,1.15,2.71,2.91,2.86-5.08,5.45-11.75,7.78-18.72,9.47-9.26,2.24-18.68,3.16-28.19,3.56-6.55.27-13.09.16-19.61-.22-9.89-.58-19.67-1.96-29.31-4.26-.38-.09-.73-.3-1.09-.45,2.13-1.2,2.51-1.95,1.92-4.23-.52-2.01-1.18-3.97-1.38-6.05-.6-6.22,1.6-11.27,6.41-15.17,1.26-1.02,2.41-2.35,4.23-2.46.18.29.41.51.77.45,6.22-1.14,12,.27,17.54,3.01,1.43.71,2.79,1.54,4.19,2.29,3.18,1.7,6.15.51,6.8-2.73Z"/>
  <path class="cls-11" d="m232.27,335.79c-.33-2.13.21-4.12.9-6.1.52-1.49,1.55-2.29,3.13-2.6,2.83-.56,5.6-.12,8.33.39,8.79,1.64,17.54,3.52,26.2,5.75,3.09.8,6.2,1.53,9.22,2.61,2.11.76,4.13,1.73,5.93,3.09,2.11,1.59,3.12,3.59,2.35,6.27-.44,1.53-.81,3.09-1.31,4.61-2.46,7.52-5.63,14.77-8.27,22.23-.03.08-.02.18-.07.23-2.25,2.28-1.7,5.16-1.7,7.93,0,2.88.08,5.75-.03,8.63-.06,1.45-.65,2.32-1.76,3.14-4.4,3.25-9.19,5.78-14.24,7.84-8.73,3.56-17.84,5.47-27.23,6.15-1.19-.26-2.38-.05-3.57-.03-3.28.07-6.55.1-9.85-.29,6-1.29,11.36-4.04,16.66-6.93,2.24-1.22,4.43-2.52,6.49-4.01.93-.67,2.07-1.37,1.53-2.88.45-.45.95-.87,1.33-1.37.72-.95,1.01-1.99.38-3.12-.61-1.08-1.59-1.51-2.78-1.55-.83-.03-1.58.26-2.27.66-7.48,4.38-15.4,4.75-23.6,2.63-4.43-1.14-8.62-2.81-12.56-5.17-4.76-2.86-6.35-7.46-7.41-12.75,1.15.11,2.07.21,2.99.3,1.21.61,2.58.64,3.85,1.03,3.26.99,6.62,1.49,10.11.95,3.42-.52,6.36-1.97,9.15-3.89.72-.49,1.35-1,2.38-.82,4.22.74,8.26.15,12.02-1.97.94-.53,1.74-.51,2.66.02,1.03.59,2.14,1.01,3.31,1.33,2.37.65,4.76.39,7.14.38,4.09-.01,7.84-1.28,11.29-3.42,2.62-1.62,3.6-3.99,3-6.88.56-.45,1.17-.84,1.66-1.36.74-.79,1.11-1.73.68-2.84-.45-1.17-1.37-1.48-2.49-1.38-2.22.19-4.44.4-6.66.6-10.47-3.46-19.97-8.42-26.88-17.37Z"/>
  <path class="cls-11" d="m277.37,434.11c.45,5.33.87,10.67,1.34,16,.48,5.5,1.19,10.97,2.67,16.3.36,1.28.14,1.81-1.04,2.35-5.73,2.64-10.66,6.42-15.09,10.88-.9.91-1.79,1.84-2.56,2.86-.73.96-1.43,1.21-2.64.83-3.37-1.04-6.84-1.56-10.36-1.81-2.97-.21-5.91-.05-8.85.35-.83.11-1.31,0-1.65-.85-2.79-6.97-6.25-13.67-8.62-20.8-1.59-4.77-3.1-9.56-4.1-14.5,2.32.02,4.63.11,6.95.06,4.22-.09,8.44.17,12.66-.45,10.46-1.55,20.27-4.89,29.34-10.35.61-.37,1.2-.8,1.95-.85Z"/>
  <path class="cls-6" d="m220.78,353.04c-1.83-3.11-2.36-6.61-2.8-10.09-1.07-8.51-1.43-17.04-.15-25.57.32-2.14.79-4.23,1.41-6.31.84-2.83,2.62-4.65,5.42-5.6,2.67-.91,5.39-1.56,8.19-1.67,11.07-.47,22.02.63,32.88,2.77,2.04.4,4.01,1.06,5.83,2.12,1.35.79,2.09,1.85,2.07,3.49-.06,4.17-.75,8.27-1.22,12.4-.13,1.09-.77.97-1.54.77-4.58-1.12-9.2-2.04-13.86-2.74-4.58-.68-9.13-1.57-13.76-1.92-2.41-.18-4.78-.16-7.16.26-4.23.74-7.13,3.05-8.55,7.13-2.07,5.96-2.02,11.91.13,17.85.41,1.12.88,2.22,1.33,3.33-1.47.91-2.95,1.82-4.42,2.74-1.15.72-2.34,1.3-3.77,1.04Z"/>
  <path class="cls-10" d="m197.05,364.25c-1.35-.6-2.43-1.56-3.32-2.69-7.21-9.19-11.44-19.48-11.45-31.3,0-.64.07-1.28.12-1.91.29-4.09,2.24-7.01,5.98-8.84,3.52-1.72,7.09-3.3,10.67-4.86,4.17-1.82,8.34-3.64,12.51-5.44.56-.24,1.07-.67,1.92-.55-.33,1.32-.68,2.61-.97,3.91-1.7,7.64-1.74,15.36-1.22,23.12.26,3.91.92,7.76,1.34,11.65-1.33.46-1.88,1.62-2.44,2.76-1.56,3.21-3.12,6.43-5.36,9.23-2.01,2.51-4.34,4.64-7.79,4.92Z"/>
  <path class="cls-9" d="m315.04,507.67c-2.22-.29-4.34-.96-6.43-1.72-3.57-1.29-5.73-4.14-7.84-7.07-2.66-3.66-5.03-7.56-8.43-10.63-3.29-2.98-6.99-5.2-11.36-6.27-1.03-.25-2.03-.31-3.07-.33-1.51-.03-3.02-.07-4.53-.11,6.08-4.92,12.93-8.03,20.74-9.06,3.37-.45,6.67-.37,9.96.44,8.18,2.02,12.99,7.51,14.02,15.88.7,5.67-.19,11.1-2.22,16.4-.31.82-.56,1.66-.84,2.49Z"/>
  <path class="cls-7" d="m291.63,400.54c-1.76,3.92-4.48,7.1-7.5,10.11-5.72,5.71-12.73,9.29-19.98,12.5-2.91,1.29-5.85,2.52-8.94,3.36-.17-.5-.58-.74-1.02-.94-5.82-2.69-10.26-6.91-13.59-12.33-.52-.85-1.26-1.14-2.13-1.31,4.17-.53,8.34-1.14,12.41-2.23,8.75-2.34,17.16-5.46,24.68-10.65,2.77-1.91,5.34-4.04,7.61-6.52,1.39-1.51,2.14-3.15,1.21-5.2,2.24.86,3.96,2.33,4.85,4.58.76,1.92,1.38,3.89,1.57,5.97.08.94.19,1.89.84,2.66Z"/>
  <path class="cls-3" d="m243.65,430.28c-6.41,1.75-12.89,2.99-19.57,2.92-2.16-.02-4.3-.19-6.41-.63-.11-1.56-.94-2.85-1.62-4.2-2.98-5.96-4.37-12.25-4-18.91,4.22,1.55,8.58,2.41,13.06,2.72,1.43.71,2.97.33,4.45.36,1.18.03,1.85.33,2.29,1.55.75,2.1,1.94,4,3.16,5.87,2.06,3.16,4.71,5.8,7.36,8.44.54.53,1.38.9,1.28,1.88Z"/>
  <path class="cls-5" d="m277.37,434.11c-.75.06-1.34.48-1.95.85-9.07,5.46-18.87,8.8-29.34,10.35-4.22.62-8.44.36-12.66.45-2.31.05-4.63-.04-6.95-.06-.43-1.36-.86-2.72-1.31-4.08-.32-.97.1-1.27,1.03-1.3,2.95-.1,5.89-.29,8.8-.8,13.92-2.44,27.16-6.9,39.64-13.54.76-.4,1.45-.97,2.66-1.09.02,3.11.05,6.16.07,9.22Z"/>
  <path class="cls-5" d="m265.97,358.16c.59,2.89-.39,5.26-3,6.88-3.45,2.14-7.2,3.41-11.29,3.42-2.38,0-4.77.27-7.14-.38-1.17-.32-2.28-.74-3.31-1.33-.93-.53-1.72-.55-2.66-.02-3.75,2.12-7.8,2.71-12.02,1.97-1.03-.18-1.66.33-2.38.82-2.78,1.92-5.73,3.36-9.15,3.89-3.49.53-6.84.03-10.11-.95-1.28-.39-2.65-.42-3.85-1.03,3.37.01,6.7-.21,9.87-1.48,4.13-1.65,7.87-3.89,10.72-7.39.51-.63.9-.69,1.6-.42,5.17,1.99,9.88.83,14.24-2.26.73-.52,1.31-.71,2.16-.31,5.39,2.49,11.04,2.09,16.71,1.49,3.4-.36,6.43-1.82,9.6-2.9Z"/>
  <path class="cls-1" d="m212.05,409.45c-.37,6.66,1.02,12.96,4,18.91.67,1.34,1.51,2.63,1.62,4.2-1.49-.26-2.99-.45-4.47-.78-8.13-1.82-12.36-6.42-13.51-14.69-.32-2.3-.31-4.62-.05-6.93.51-4.48,2.38-8.23,5.95-11.07,1.12-.89,2.19-1.84,3.55-2.98.93,3.11,1.79,5.96,2.63,8.74-.49.69-1.12.35-1.62.51-1.45.45-1.77,1.71-.59,2.67.73.59,1.64.96,2.48,1.42Z"/>
  <path class="cls-5" d="m244.98,391.79c.54,1.52-.6,2.21-1.53,2.88-2.06,1.5-4.25,2.79-6.49,4.01-5.3,2.89-10.66,5.64-16.66,6.93,3.3.39,6.57.36,9.85.29,1.19-.02,2.38-.23,3.57.03-.38.11-.75.3-1.13.31-4.55.2-9.1.38-13.65-.18-1.27-.15-1.93-.55-2.21-1.94-.59-2.87-1.46-5.69-2.2-8.47.37-.32.69-.35,1.01-.29,8.07,1.37,15.91.24,23.63-2.19,1.9-.6,3.8-1.22,5.81-1.38Z"/>
  <path class="cls-2" d="m232.27,335.79c6.91,8.96,16.42,13.91,26.88,17.37-4.46.89-8.94,1.58-13.51.94-2.94-.41-5.62-1.5-7.66-3.61-3.93-4.07-6.09-8.91-5.71-14.7Z"/>
  <path class="cls-2" d="m197.05,364.25c3.45-.28,5.78-2.41,7.79-4.92,2.24-2.8,3.8-6.02,5.36-9.23.55-1.14,1.11-2.3,2.44-2.76,1.14,3.55,2.2,7.14,4.56,10.15.36.46.22.84-.16,1.25-4.12,4.46-8.91,7.44-15.28,6.95-1.68-.13-3.29-.47-4.71-1.44Z"/>
  <path class="cls-9" d="m261.5,493.73c-.66,3.24-3.62,4.43-6.8,2.73-1.4-.75-2.77-1.59-4.19-2.29-5.54-2.74-11.32-4.15-17.54-3.01-.36.07-.59-.16-.77-.45,2.31-1.73,5.09-2.18,7.79-2.64,5.33-.91,10.62-.48,15.83.92,1.27.34,2.28.68,2.23,2.46-.05,1.76.79,2.15,3.45,2.27Z"/>
  <path class="cls-12" d="m291.63,400.54c-.65-.77-.76-1.72-.84-2.66-.19-2.08-.81-4.06-1.57-5.97-.89-2.25-2.61-3.71-4.85-4.58,0,0-.02-.02-.02-.02-.07-.57-.45-.65-.92-.58-.39-.06-.79-.16-1.18-.16-.69,0-1.04-.27-1.03-.98.02-2,.03-3.99.06-5.99.01-.84.57-1.07,1.29-1.02.23.01.47.1.67.21,4.89,2.73,9.02,6.13,10.08,12.02.62,3.42-.24,6.65-1.7,9.74Z"/>
  <path class="cls-7" d="m243.65,430.28c.1-.98-.74-1.35-1.28-1.88-2.65-2.64-5.3-5.27-7.36-8.44-1.22-1.87-2.41-3.77-3.16-5.87-.44-1.22-1.11-1.52-2.29-1.55-1.48-.03-3.02.35-4.45-.36,3.66.02,7.31.03,10.96.05,1.16,2.54,2.61,4.87,4.33,7.09,2.35,3.02,5.45,5.34,7.67,8.46.36.5.91.59,1.46.69-1.91.77-3.89,1.34-5.89,1.82Z"/>
  <path class="cls-3" d="m249.54,428.45c-.55-.09-1.1-.18-1.46-.69-2.22-3.12-5.32-5.44-7.67-8.46-1.73-2.21-3.18-4.55-4.33-7.09.79-.1,1.59-.19,2.38-.29.88.17,1.61.46,2.13,1.31,3.33,5.42,7.77,9.65,13.59,12.33.44.2.85.45,1.02.94-1.83.83-3.75,1.36-5.67,1.94Z"/>
  <path class="cls-2" d="m220.78,353.04c1.42.26,2.61-.32,3.77-1.04,1.47-.92,2.94-1.83,4.42-2.74,1.35,2.22,2.72,4.43,4.48,6.35-3.9,3.26-8.24,2.96-11.31-.65-.5-.59-1.15-1.11-1.35-1.92Z"/>
  <path class="cls-7" d="m283.43,386.73c.47-.06.85.01.92.58-.43,0-.73-.21-.92-.58Z"/>
  <path class="cls-10" d="m676.46,344.46c-2.69-.32-5.38-.72-8.08-.94-2.95-.25-3.42.28-3.47,3.35-.97,1.42-.34,2.73.34,4,1.68,3.11,4.28,5.33,7.23,7.15,3.8,2.34,7.88,3.91,12.42,3.64,3.1-.19,6.19-.74,9.06-1.97,1.82-.78,3.47-.98,5.16.2.37.26.9.29,1.35.45,2.83.95,5.54.11,8.2-.67,1.37-.4,2.2-.15,3.16.81,3.8,3.81,8.46,5.22,13.77,4.62,1.28-.15,2.59-.43,3.56-1.26.88-.75,1.91-1.07,2.9-1.51.94-.09,1.88-.19,2.97-.3.28,1.23-.29,2.22-.52,3.27-1.13,5.17-4.37,8.57-9,10.83-6.85,3.34-13.98,5.44-21.7,4.97-3.89-.24-7.52-1.39-10.96-3.18-.35-.18-.7-.39-1.05-.58-1.42-.75-2.86-1.09-4.3-.09-1.34.93-1.22,2.31-1.02,3.69-.59,1.69.78,2.39,1.73,3.17,4.74,3.88,10.35,6.21,15.94,8.47,3.91,1.58,7.99,2.69,12.31,2.24.05,1.15-.15,1.92-1.63,2.02-17.51,1.26-34.24-1.45-49.89-9.69-2.41-1.27-4.65-2.8-6.87-4.37-1.16-.82-1.7-1.8-1.7-3.19.01-3.68-.05-7.35,0-11.03.02-1.8-.16-3.4-1.35-4.93-.79-1.02-1-2.5-1.49-3.76-2.43-6.17-4.83-12.34-7.02-18.6-.61-1.74-1.06-3.51-1.53-5.29-.65-2.48.19-4.39,2.1-5.92,1.89-1.52,4.05-2.55,6.32-3.36,4.22-1.5,8.6-2.44,12.94-3.52,7.44-1.87,14.94-3.43,22.48-4.83,2.57-.48,5.18-.86,7.86-.45,2.01.31,3.17,1.34,3.72,3.21.87,2.95,1.25,5.93.56,8.98-.87.07-1.38.71-1.96,1.25-1.42,1.29-2.58,2.8-3.82,4.24-4.01,4.61-9.06,7.62-14.9,9.34-.3,0-.6-.02-.9-.02-.9-.63-1.91-.51-2.92-.43Z"/>
  <path class="cls-11" d="m706.36,438.49c-1.15,5.47-2.73,10.83-4.81,16.01-2.35,5.85-4.93,11.6-7.36,17.42-.36.87-.82.95-1.65.83-6.58-.95-13.06-.35-19.42,1.52-.99.29-1.6.11-2.26-.68-5.05-6.01-11.07-10.8-18.2-14.14-.7-.33-1.12-.61-.83-1.6,1.72-5.85,2.36-11.89,2.97-17.93.59-5.88,1.11-11.76,1.2-17.68.81-.19,1.34.34,1.93.74,1.92,1.3,3.91,2.46,5.98,3.5,8.52,4.27,17.46,7.37,26.7,9.64,5.18,1.27,10.36,2.56,15.77,2.36Z"/>
  <path class="cls-10" d="m720.88,337.74c.38-4.37,1.04-8.71,1.31-13.1.51-8.35.09-16.59-2.26-24.67-.05-.18-.06-.31.1-.42.33-.17.6.02.88.15,6.72,2.94,13.46,5.85,20.17,8.82,1.68.74,3.29,1.63,4.91,2.48,2.92,1.54,4.39,4.02,4.83,7.25.51,3.76.39,7.48-.43,11.19-1.74,7.89-4.75,15.21-9.65,21.69-2.1,2.77-4.64,4.82-8.19,5.35-1.22-.03-2.45-.06-3.68-.09,0,0-.07-.03-.07-.03-.51-1.6-2.05-2.38-2.96-3.68-2.78-3.92-3.54-8.47-4.31-13.04-.11-.67.17-1.48-.66-1.9Z"/>
  <path class="cls-6" d="m706.91,333.82c.37-3.98.78-7.96-.2-11.91-.25-1-.55-2-.89-2.98-1.4-4.11-4.35-6.31-8.55-7.1-4.01-.75-7.98-.28-11.92.3-7.58,1.11-15.17,2.18-22.61,4.07-.45.11-.92.17-1.52.27-.76-4.49-1.3-8.91-1.49-13.38-.07-1.64.75-2.69,2.09-3.49,2.3-1.38,4.86-2.06,7.45-2.5,10.17-1.75,20.4-2.88,30.74-2.44,3.05.13,6,.75,8.89,1.77,2.59.92,4.27,2.61,5.15,5.25,1.4,4.21,1.91,8.57,2.16,12.96.42,7.6-.02,15.17-1.36,22.67-.42,2.35-.95,4.69-2.35,6.71-1.9-1.27-2.57-3.33-3.47-5.27-.75-1.62-.83-3.52-2.09-4.92Z"/>
  <path class="cls-7" d="m733.45,409.17c-1.1,6.69-4.86,11.11-11.38,13.01-8.19,2.39-16.49,2.42-24.81.75-4.98-1-9.9-2.24-14.67-4.02.85-.43.54-1.01.19-1.57-1.41-2.22-2.29-4.7-3.16-7.15-1.21-3.43-2.24-6.93-1.53-10.66,3.34.76,6.67,1.63,10.03,2.25,9.1,1.7,18.24,2.05,27.39.29,2.29-.44,4.46-1.25,6.61-2.11.52-.2,1.01-.49,1.47-.8.64-.43,1.02-1.02.82-1.84-.18-.72-.72-1.01-1.41-1.08-.39-.04-.78-.07-1.17-.11-.39-.94.2-1.61.4-2.34,3.37.01,5.73,1.58,7.11,4.63,1.34,2.95,2.76,5.88,3.29,9.13.11.66.22,1.25.84,1.61Z"/>
  <path class="cls-3" d="m678.08,399.54c-.71,3.73.32,7.23,1.53,10.66.87,2.45,1.75,4.93,3.16,7.15.36.56.67,1.14-.19,1.57-8.42-2.49-16.47-5.88-24.09-10.25-4.16-2.38-7.83-5.43-10.97-9.07.08-.56.05-1.11-.11-1.66-1.51-5.44-.62-10.59,1.86-15.55,6.94,7.78,15.82,12.44,25.5,15.83,1.11.39,2.33.55,3.3,1.32Z"/>
  <path class="cls-9" d="m711.86,496.61c-1.62-.01-2.98-.87-4.09-1.81-3.86-3.24-8.51-4.14-13.24-5.03-3.81-.72-7.44-.24-11.05.97-1.31.44-2.24,1.12-2.53,2.57-.14.69-.45,1.36-.76,2.01-.93,1.94-2.34,3.14-4.63,3.2-2.3.06-3.79-1.12-4.83-2.95-1.03-1.8-1.9-3.69-2.82-5.55-3.05-6.17-6.57-12.04-11.01-17.34-1.08-1.29-2.19-2.54-3.54-3.54-.45-.34-.93-.65-.93-1.3,1.22-.08,2.07.75,3,1.3,5.03,2.96,9,7.11,12.79,11.46.89,1.02,1.78,2.05,2.71,3.04.84.89,1.89,1.21,3.05.73,1.08-.45,1.62-1.34,1.51-2.48-.1-1.1.36-1.55,1.38-1.83,7.75-2.1,15.46-2.32,23,.72,5.69,2.29,9.78,6.23,11.55,12.29.34,1.16.6,2.32.45,3.53Z"/>
  <path class="cls-5" d="m732.08,362.32c-1,.45-2.02.76-2.9,1.51-.97.83-2.28,1.11-3.56,1.26-5.3.6-9.96-.8-13.77-4.62-.96-.96-1.78-1.21-3.16-.81-2.66.78-5.37,1.62-8.2.67-.45-.15-.98-.19-1.35-.45-1.7-1.18-3.35-.98-5.16-.2-2.88,1.23-5.96,1.79-9.06,1.97-4.54.27-8.62-1.3-12.42-3.64-2.95-1.82-5.55-4.04-7.23-7.15-.69-1.27-1.31-2.57-.34-4,2.56,2.83,6.1,3.73,9.55,4.56,4.52,1.09,9.17,1.28,13.8.65,1.83-.25,3.61-.74,5.26-1.56.89-.44,1.55-.37,2.39.24,4.35,3.11,9.05,4.27,14.23,2.26.55-.21.92-.36,1.43.23,5.35,6.12,12.06,9.25,20.26,9.02.08,0,.15.04.23.06Z"/>
  <path class="cls-5" d="m706.36,438.49c-5.4.2-10.59-1.09-15.77-2.36-9.24-2.27-18.18-5.37-26.7-9.64-2.07-1.04-4.06-2.2-5.98-3.5-.59-.4-1.12-.93-1.93-.74,0-1.76-.01-3.51-.02-5.27,0-.97.37-1.36,1.32-.88,1,.51,1.99,1.02,2.99,1.53,12.3,6.38,25.32,10.62,38.97,12.89,2.51.42,5.09.47,7.63.69,1.44.12,1.61.25,1.2,1.58-.58,1.9-.81,3.9-1.72,5.7Z"/>
  <path class="cls-1" d="m649.29,382.39c-2.48,4.96-3.37,10.11-1.86,15.55.15.55.18,1.1.11,1.66-4.34-4.27-7.23-9.26-7.6-15.48-.18-3.09.8-5.81,2.63-8.25,1.9-2.53,4.33-4.44,7.08-5.97.28-.15.56-.33.86-.41.97-.27,1.48.09,1.53,1.14.07,1.59.03,3.19.06,4.78.03,1.2.29,2.32-1.68,2.3-1.28-.01-1.98,1.3-1.79,2.65.1.69.43,1.35.65,2.03Z"/>
  <path class="cls-5" d="m716.48,394.82c-4.32.44-8.4-.66-12.31-2.24-5.6-2.26-11.2-4.6-15.94-8.47-.95-.78-2.32-1.48-1.73-3.17,1.22,1.21,2.69,1.88,4.36,2.25,4.34.97,8.54,2.49,12.97,3.16,4.29.65,8.56.6,12.84.06,2.29-.29,2.38-.26,1.67,2.02-.66,2.12-.95,4.34-1.85,6.39Z"/>
  <path class="cls-2" d="m706.91,333.82c1.27,1.4,1.34,3.3,2.09,4.92.9,1.94,1.58,4,3.47,5.27-.4,1.08-1.18,1.87-1.98,2.64-3.29,3.15-6.8,2.35-9.86.57-.56-.33-.84-.76-.28-1.33,3.32-3.4,4.9-7.76,6.56-12.07Z"/>
  <path class="cls-2" d="m720.88,337.74c.83.42.55,1.23.66,1.9.77,4.56,1.53,9.11,4.31,13.04.92,1.3,2.45,2.07,2.96,3.68-2.9.09-5.41-1.02-7.74-2.6-.92-.62-1.78-1.33-2.6-2.07-.88-.8-2.06-1.55-2.41-2.56-.4-1.14,1.08-1.94,1.6-2.98.98-2,1.94-4,2.48-6.17.19-.76.25-1.57.75-2.23Z"/>
  <path class="cls-12" d="m733.45,409.17c-.62-.36-.73-.95-.84-1.61-.53-3.24-1.95-6.17-3.29-9.13-1.38-3.05-3.75-4.62-7.11-4.63.49-2.23,1.17-4.39,1.96-6.55,7.82,4.69,10.68,11.55,9.55,20.26-.07.55-.18,1.1-.26,1.65Z"/>
  <path class="cls-2" d="m680.28,344.91c5.84-1.72,10.89-4.72,14.9-9.34,1.25-1.44,2.41-2.95,3.82-4.24.59-.53,1.09-1.18,1.96-1.25-2.02,11.79-9.91,16.67-20.68,14.82Z"/>
  <path class="cls-7" d="m728.88,356.39c1.23.03,2.45.06,3.68.09-1.24.5-2.47.67-3.68-.09Z"/>
  <path class="cls-2" d="m676.46,344.46c1.01-.08,2.02-.2,2.92.43-1.02.16-2,.07-2.92-.43Z"/>
</svg>