<?xml version="1.0" encoding="UTF-8"?>
<svg id="_图层_1" data-name="图层 1" xmlns="http://www.w3.org/2000/svg" viewBox="0 0 960 960">
  <defs>
    <style>
      .cls-1 {
        fill: #fafbf9;
      }

      .cls-1, .cls-2, .cls-3, .cls-4, .cls-5, .cls-6, .cls-7, .cls-8, .cls-9, .cls-10, .cls-11 {
        stroke-width: 0px;
      }

      .cls-2 {
        fill: #444694;
      }

      .cls-3 {
        fill: #fcd441;
      }

      .cls-4 {
        fill: #a76861;
      }

      .cls-5 {
        fill: #a56760;
      }

      .cls-6 {
        fill: #f6b89f;
      }

      .cls-7 {
        fill: #050404;
      }

      .cls-8 {
        fill: #af6a1f;
      }

      .cls-9 {
        fill: #fdd541;
      }

      .cls-10 {
        fill: #5a7dfe;
      }

      .cls-11 {
        fill: #f5b89f;
      }
    </style>
  </defs>
  <path class="cls-7" d="m212.7,541.74c-8.92-2.33-15.05-7.61-17.17-16.78-1.26-5.42-.19-10.64,2.48-15.52,2.03-3.7,4.75-6.8,8.13-9.33.67-.51,1.12-.89.75-1.93-2.98-8.38-4.52-17.13-6.55-25.75-1.88-8.01-3.58-16.07-4.35-24.28-.3-3.18-.56-6.37-.73-9.56-.06-1.21-.3-1.77-1.7-1.95-8.01-1-15.03-4.28-20.89-9.82-7.83-7.41-9.75-17.31-5.47-27.21,2.76-6.38,7.2-11.45,12.44-15.91,1.09-.93,2.73-1.51,3.16-2.81.44-1.3-.63-2.72-.96-4.1-3.16-13.12-2.12-26.02,2.1-38.73,2.94-8.86,7.12-17.09,12.64-24.63,2.55-3.48,4.97-7.06,7.7-10.4,1.82-2.23,3.74-4.37,6.02-6.16,1.07-.84,2.17-1.64,3.42-2.19,2.75-1.22,4.98-.47,6.51,2.15.69,1.18,1.09,2.48,1.46,3.79.97,3.47,1.64,7,2.34,10.52.2,1,.42,1.99.66,3.14,1.16-.24,1.49-1.11,1.96-1.76,5.24-7.33,11.46-13.73,18.37-19.49,1.47-1.23,3-2.4,4.58-3.47,4.15-2.79,8.33-1.61,10.52,2.91,1.2,2.49,1.59,5.19,1.82,7.9.53,6.29.98,12.59,1.43,18.89.18,2.48-.04,2.02,2.25,2.54,4.13.94,8.31,1.61,12.34,2.95,2.36.78,4.67,1.67,6.71,3.11,4.01,2.84,4.78,6.72,2.16,10.84-1.34,2.11-3.04,3.91-4.9,5.56-3.48,3.08-6.5,6.6-9.62,10.03-2.21,2.43-3.55,5.28-4.11,8.51-.31,1.81-.58,3.64-1.1,5.4-.37,1.25.15,1.71,1.08,2.23,2.74,1.51,5.27,3.32,7.53,5.49,8.13,7.81,10.11,18.65,5.14,28.76-3.21,6.53-7.95,11.75-14.02,15.74-.8.52-1.08.88-.75,1.87,3.13,9.14,6.08,18.35,10.17,27.13,1.96,4.21,4.4,8.15,7.03,11.98,2.67,3.88,5.48,7.68,7.41,12.02.3.68.73.94,1.42,1.07,1.26.22,2.51.48,3.74.83,13.41,3.74,20.99,15.58,18.76,29.33-.53,3.24-1.41,6.39-2.77,9.4-.26.58-.54,1.16-.86,1.71-1.52,2.58-3.1,2.96-5.74,1.39-.7-1.17-.79-2.45-.63-3.77,1.22-5.13,2.23-10.26,1.52-15.6-.78-5.82-3.37-10.27-8.96-12.58-2.52-1.04-5.15-1.61-7.91-1.67-4.09-.09-8.14.27-12.11,1.22-1.9.45-3.93.59-5.59,1.83-1.13.03-2.19.4-3.24.78-3.99,1.45-7.81,3.25-11.47,5.38-5.26,3.06-10.21,6.54-14.78,10.56-1.81,1.59-3.68,1.99-5.93.98-6.97-3.12-13.98-2.9-20.87.17-4.95,2.2-8.9,5.61-11.32,10.57-3.43,7.03-1.32,14.38,5.24,18.6,1.42.91,2.97,1.54,4.53,2.16.82.33,1.63.68,2.23,1.35,1.51,1.65.82,3.96-1.35,4.45-.61.14-1.26.12-1.9.17Zm57.79-198.29l.05-.04c.29,0,.43-.16.46-.43,2.72-2.78,5.45-5.56,8.23-8.4-1.15-1.11-2.43-1.37-3.65-1.62-5-1.05-10.02-2.05-15.12-2.5-4.38-.38-6.13-2.02-6.74-6.33-1.05-7.37-1.4-14.8-1.84-22.22-.05-.84.11-1.74-.33-2.48-.78-.07-1.14.42-1.56.75-5.94,4.53-11.28,9.65-15.95,15.5-5.44,6.81-10.24,14.1-15.6,20.96-.54.69-1.07,1.4-1.7,2.01-.8.78-1.78,1.07-2.86.56-1.07-.5-1.44-1.42-1.45-2.55-.01-1.23.42-2.34.91-3.44,1.19-2.64,2.76-5.05,4.38-7.42,1.1-1.61,1.83-3.06.67-4.97-.39-.64-.36-1.54-.46-2.34-.39-2.93-.67-5.88-1.15-8.79-.34-2.07-.47-4.21-1.48-6.42-1.12,1.36-2.09,2.52-3.03,3.69-5.38,6.66-10.62,13.42-14.69,20.99-6.11,11.36-9.9,23.37-9.88,36.4,0,4.14.51,8.22,1.45,12.22,1.08.02,1.68-.58,2.36-.95,10.78-5.89,22.3-9.49,34.47-11.12,7.17-.96,14.34-1.01,21.53-.37,1.55.81,3.3.32,4.92.78,1.91.54,3.89.88,5.81,1.39.98.26,1.34-.04,1.31-1,0-.24.01-.48.02-.72.23-6.65,2.38-12.46,7.27-17.16.9-.86,1.97-1.64,2.42-2.9.26-.23.51-.46.77-.69.29.02.44-.12.46-.41Zm-22.93,29.9c-2.33-.8-4.77-.76-7.18-.97-6.47-.42-12.9.04-19.27,1.16-4.7.83-9.37,1.78-13.81,3.6-6.98,1.93-13.31,5.23-19.26,9.28-3.51,2.39-6.66,5.2-9.37,8.47-2.21,2.66-3.97,5.58-5.04,8.88-2.3,7.07-.25,13.68,5.68,18.29,4.37,4.06,9.83,5.84,15.41,7.73v-10.11c-1.23.6-2.33.93-3.22-.12-.95-1.12-.44-2.25.11-3.34.22-.43.47-.83.73-1.23,2.02-3.1,4.48-5.79,7.29-8.18,4.97-4.23,10.59-7.34,16.65-9.7,2.28-.76,4.57-1.52,6.85-2.28,2.34-.54,4.69-1.08,7.03-1.62.32-.04.63-.08.95-.12,5.86-.86,11.73-1.44,17.66-.64,2.45.33,4.91.65,7.27,1.44,1.57.52,2.65,1.42,2.7,3.24.02.62.19,1.26.4,1.86,1.47,4.14,2.67,8.37,3.85,12.6.18.65.22,1.41.77,1.88.23-.05.43-.02.53-.11,4.32-4.03,7.97-8.5,9.81-14.24,2.17-6.79.33-12.5-4.82-17.12-5.47-4.9-12.23-7.03-19.33-8.23-.85.21-1.53-.6-2.38-.42Zm5.38,29.51c-.05-.39-.12-.79-.13-1.18-.07-1.81-1.11-2.58-2.81-2.91-2.59-.5-5.18-.94-7.82-1.07-9.01-.44-17.63,1.23-25.87,4.87-4.76,2.1-9.27,4.66-13.27,8.02-.53.44-1.3.78-.98,1.7.88,2.57.37,5.23.43,7.84.09,4.22-.06,8.45.51,12.65-.2.33-.65.62-.47,1.03.54,1.22.34,2.5.4,3.76.33,7.11,1,14.18,2.2,21.19,1.52,8.98,3.75,17.8,5.76,26.68.69,3.04,1.44,6.06,2.07,9.11.22,1.05.61,1.4,1.6.94.14-.07.29-.13.44-.18,7.47-2.61,14.96-3.18,22.47-.17.9.36,1.47.18,2.13-.42,1.3-1.18,2.62-2.34,4-3.43,10.18-7.98,21.24-14.16,34.1-16.67.51-.1,1.12.03,1.55-.55-.15-.89-.86-1.47-1.35-2.16-3.83-5.33-7.35-10.87-9.83-16.96-5.25-12.88-9.46-26.1-12.44-39.71-.9-4.12-1.44-8.33-2.69-12.38Z"/>
  <path class="cls-10" d="m212.7,541.74c.63-.05,1.28-.04,1.9-.17,2.16-.49,2.85-2.81,1.35-4.45-.61-.66-1.41-1.02-2.23-1.35-1.55-.62-3.1-1.25-4.53-2.16-6.56-4.23-8.67-11.58-5.24-18.6,2.41-4.95,6.37-8.37,11.32-10.57,6.89-3.06,13.91-3.29,20.87-.17,2.26,1.01,4.13.61,5.93-.98,4.57-4.02,9.52-7.5,14.78-10.56,3.66-2.13,7.48-3.93,11.47-5.38,1.06-.38,2.11-.75,3.24-.78.7.62,1.53.36,2.29.26,4.89-.65,9.59-.7,14.1,1.98,2.27,1.35,3.9,2.88,4.81,5.33,1.34,3.63,1.95,7.41,2.26,11.22.49,5.93,4.21,8.66,8.63,7.94.31-.05.64.04.95.07-.16,1.32-.07,2.59.63,3.77-4.34,4.09-9.53,6.95-14.62,9.92-6.17,3.59-12.89,5.91-19.77,7.77-10.8,2.92-21.77,4.92-32.88,6.17-2.3.26-4.62.31-6.93.38-5.74.19-11.46.82-17.21.67-.4-.01-.8,0-1.12-.3Z"/>
  <path class="cls-6" d="m252.94,402.87c1.25,4.05,1.79,8.25,2.69,12.38,2.97,13.6,7.19,26.82,12.44,39.71,2.48,6.09,6,11.62,9.83,16.96.5.69,1.21,1.27,1.35,2.16-.43.59-1.04.45-1.55.55-12.85,2.51-23.92,8.69-34.1,16.67-1.38,1.08-2.7,2.25-4,3.43-.66.6-1.23.78-2.13.42-7.5-3.01-15-2.43-22.47.17-.15.05-.3.11-.44.18-.99.46-1.38.11-1.6-.94-.63-3.05-1.38-6.07-2.07-9.11-2.01-8.87-4.23-17.7-5.76-26.68-1.19-7.01-1.86-14.09-2.2-21.19-.06-1.26.15-2.54-.4-3.76-.19-.42.27-.7.47-1.03,1.1-.06,1.33-1.03,1.76-1.75,1.7-2.81,3.59-5.45,5.98-7.72,3.6-3.42,7.59-6.33,11.81-8.9,6.98-4.26,14.33-7.63,22.42-9.22,2.71-.53,5.56-.69,7.96-2.32Z"/>
  <path class="cls-11" d="m247.51,364.16c-7.19-.65-14.36-.59-21.53.37-12.17,1.62-23.68,5.22-34.47,11.12-.68.37-1.28.97-2.36.95-.95-4.01-1.45-8.09-1.45-12.22-.02-13.03,3.77-25.04,9.88-36.4,4.07-7.57,9.31-14.33,14.69-20.99.95-1.17,1.91-2.33,3.03-3.69,1.01,2.21,1.14,4.35,1.48,6.42.48,2.91.76,5.86,1.15,8.79.1.79.07,1.7.46,2.34,1.16,1.91.43,3.36-.67,4.97-1.62,2.37-3.19,4.79-4.38,7.42-.5,1.1-.93,2.21-.91,3.44.01,1.12.38,2.04,1.45,2.55,1.08.51,2.06.22,2.86-.56.62-.61,1.16-1.32,1.7-2.01,5.36-6.87,10.17-14.15,15.6-20.96,4.67-5.85,10.02-10.97,15.95-15.5.43-.32.78-.82,1.56-.75.44.74.28,1.64.33,2.48.44,7.42.79,14.85,1.84,22.22.62,4.31,2.37,5.94,6.74,6.33,5.1.45,10.12,1.45,15.12,2.5,1.22.26,2.49.51,3.65,1.62-2.79,2.84-5.51,5.62-8.23,8.4-.28.01-.45.14-.46.43,0,0-.05.04-.05.04-.28,0-.44.12-.46.41-.26.23-.51.46-.77.69-.43-.09-.77.08-1.1.32-4.42,3.18-8.3,6.98-11.92,11.01-1.69,1.88-3.54,3.74-4.62,6.06-.78,1.68-1.73,2.58-3.63,2.13-.14-.03-.31.06-.47.09Z"/>
  <path class="cls-9" d="m207.3,377.14c4.44-1.82,9.11-2.77,13.81-3.6,6.37-1.12,12.8-1.58,19.27-1.16-.39.77-1.17,1.07-1.84,1.48-7.31,4.45-13.39,10.28-18.67,16.94-1.49,1.89-3.45,3.63-3.6,6.33-6.06,2.36-11.68,5.47-16.65,9.7-2.81,2.39-5.28,5.09-7.29,8.18-.26.4-.52.81-.73,1.23-.55,1.09-1.06,2.22-.11,3.34.89,1.05,1.99.73,3.22.12v10.11c-5.58-1.89-11.04-3.68-15.41-7.73-.05-3.93.17-7.82,1.61-11.55,3.96-10.24,9.77-19.19,18.23-26.32,2.75-2.31,5.43-4.71,8.15-7.06Z"/>
  <path class="cls-8" d="m249.94,373.77c7.1,1.2,13.86,3.33,19.33,8.23,5.15,4.62,7,10.33,4.82,17.12-1.84,5.74-5.49,10.22-9.81,14.24-.1.09-.29.07-.53.11-.55-.48-.59-1.23-.77-1.88-1.18-4.23-2.38-8.46-3.85-12.6-.21-.59-.39-1.23-.4-1.86-.05-1.82-1.13-2.72-2.7-3.24-2.36-.78-4.82-1.1-7.27-1.44-5.92-.8-11.8-.22-17.66.64-.31.05-.63.08-.95.12.03-1.16.51-2.13,1.12-3.09,2.71-4.21,6.4-7.48,10.13-10.71,2.6-2.25,5.71-3.74,8.53-5.65Z"/>
  <path class="cls-4" d="m252.94,402.87c-2.4,1.63-5.25,1.78-7.96,2.32-8.09,1.59-15.45,4.96-22.42,9.22-4.22,2.58-8.21,5.48-11.81,8.9-2.39,2.27-4.29,4.92-5.98,7.72-.44.72-.66,1.69-1.76,1.75-.58-4.2-.42-8.43-.51-12.65-.06-2.62.46-5.27-.43-7.84-.32-.93.45-1.26.98-1.7,4.01-3.36,8.51-5.91,13.27-8.02,8.24-3.64,16.86-5.31,25.87-4.87,2.63.13,5.23.57,7.82,1.07,1.71.33,2.74,1.09,2.81,2.91.02.4.09.79.13,1.18Z"/>
  <path class="cls-2" d="m304.6,513.37c-.32-.03-.65-.12-.95-.07-4.42.72-8.14-2.01-8.63-7.94-.32-3.8-.92-7.59-2.26-11.22-.91-2.45-2.53-3.98-4.81-5.33-4.51-2.68-9.21-2.63-14.1-1.98-.76.1-1.59.36-2.29-.26,1.65-1.23,3.69-1.37,5.59-1.83,3.97-.95,8.01-1.31,12.11-1.22,2.76.06,5.39.63,7.91,1.67,5.59,2.31,8.18,6.76,8.96,12.58.71,5.34-.3,10.47-1.52,15.6Z"/>
  <path class="cls-1" d="m207.3,377.14c-2.71,2.36-5.4,4.75-8.15,7.06-8.47,7.12-14.27,16.07-18.23,26.32-1.44,3.73-1.66,7.62-1.61,11.55-5.93-4.61-7.99-11.22-5.68-18.29,1.08-3.3,2.83-6.23,5.04-8.88,2.72-3.27,5.86-6.09,9.37-8.47,5.95-4.05,12.28-7.36,19.26-9.28Z"/>
  <path class="cls-8" d="m216.27,397.13c.15-2.7,2.11-4.44,3.6-6.33,5.28-6.66,11.35-12.49,18.67-16.94.67-.41,1.45-.71,1.84-1.48,2.41.21,4.85.17,7.18.97-2.38,2.11-5.15,3.68-7.77,5.45-5.77,3.9-10.79,8.61-15.47,13.73-.57.63-1.48,1.2-1.21,2.31-2.28.76-4.57,1.52-6.85,2.28Z"/>
  <path class="cls-5" d="m247.51,364.16c.16-.03.32-.12.47-.09,1.9.45,2.85-.45,3.63-2.13,1.08-2.32,2.93-4.17,4.62-6.06,3.62-4.04,7.5-7.83,11.92-11.01.34-.24.68-.41,1.1-.32-.45,1.26-1.52,2.04-2.42,2.9-4.88,4.69-7.04,10.51-7.27,17.16,0,.24-.03.48-.02.72.03.96-.33,1.26-1.31,1-1.92-.51-3.9-.84-5.81-1.39-1.62-.46-3.37.04-4.92-.78Z"/>
  <path class="cls-3" d="m223.12,394.84c-.27-1.12.63-1.68,1.21-2.31,4.67-5.11,9.7-9.83,15.47-13.73,2.62-1.77,5.38-3.34,7.77-5.45.85-.18,1.52.63,2.38.42-2.83,1.91-5.94,3.4-8.53,5.65-3.73,3.24-7.42,6.51-10.13,10.71-.62.96-1.1,1.93-1.12,3.09-2.34.54-4.69,1.08-7.03,1.62Z"/>
  <path class="cls-5" d="m270.53,343.41c.02-.29.18-.42.46-.43-.03.28-.18.43-.46.43Z"/>
  <path class="cls-5" d="m270.03,343.86c.02-.28.18-.41.46-.41-.02.28-.17.43-.46.41Z"/>
</svg>