<?xml version="1.0" encoding="UTF-8"?>
<svg id="_图层_1" data-name="图层 1" xmlns="http://www.w3.org/2000/svg" viewBox="0 0 960 960">
  <defs>
    <style>
      .cls-1 {
        fill: #fafbf9;
      }

      .cls-1, .cls-2, .cls-3, .cls-4, .cls-5, .cls-6, .cls-7, .cls-8, .cls-9 {
        stroke-width: 0px;
      }

      .cls-2 {
        fill: #444694;
      }

      .cls-3 {
        fill: #fcd441;
      }

      .cls-4 {
        fill: #a56760;
      }

      .cls-5 {
        fill: #f6b89f;
      }

      .cls-6 {
        fill: #060504;
      }

      .cls-7 {
        fill: #af6a1f;
      }

      .cls-8 {
        fill: #5a7dfe;
      }

      .cls-9 {
        fill: #f5b79f;
      }
    </style>
  </defs>
  <path class="cls-6" d="m645.17,505.3c-1.69.04-2.99-.7-3.71-2.18-4.2-8.62-5.76-17.49-1.68-26.57,3.74-8.32,10.59-12.78,19.34-14.48,1.74-.34,2.77-.95,3.53-2.62,1.41-3.14,3.44-5.95,5.49-8.71,5.68-7.63,9.96-15.99,13.17-24.92,1.87-5.19,3.72-10.38,5.61-15.56.41-1.11.27-1.69-.83-2.47-7.36-5.22-13.1-11.78-15.4-20.71-2.16-8.36-.12-15.83,5.7-22.22,2.5-2.75,5.46-4.91,8.69-6.71,2.07-1.16,1.66-.93,1.34-2.99-.28-1.74-.67-3.45-.99-5.18-.56-3.06-1.82-5.78-3.89-8.11-3.08-3.46-6.08-7-9.52-10.13-1.84-1.67-3.54-3.48-4.87-5.59-2.67-4.25-1.86-8.16,2.31-10.99,2.89-1.96,6.18-2.99,9.52-3.8,3.26-.79,6.55-1.46,9.85-2.06,1.35-.24,1.82-.8,1.91-2.17.43-6.22.97-12.43,1.51-18.64.19-2.15.54-4.28,1.15-6.36.36-1.23.88-2.4,1.63-3.45,2.2-3.05,5.61-3.82,8.88-1.96,1.74.99,3.29,2.27,4.82,3.56,7.01,5.89,13.32,12.43,18.61,19.93.53.76.93,1.66,1.93,2.2.55-1.15.65-2.34.9-3.49.74-3.52,1.45-7.04,2.46-10.5.42-1.46.91-2.9,1.81-4.16,1.46-2.03,3.34-2.6,5.68-1.73,1.37.51,2.53,1.35,3.67,2.24,2.41,1.88,4.42,4.16,6.3,6.55,3.8,4.85,7.41,9.84,10.64,15.08,7.71,12.53,12.49,26.03,12.92,40.89.2,6.85-.51,13.57-2.61,20.11-.59,1.86-.6,1.87.98,3.13,4.08,3.26,7.75,6.92,10.7,11.25,2.41,3.53,4.24,7.33,5.09,11.55,1.3,6.46,0,12.38-3.75,17.78-1.51,2.19-3.32,4.11-5.41,5.74-5.67,4.4-12.04,7.23-19.2,8.08-1.24.15-1.62.55-1.67,1.7-.24,4.79-.77,9.56-1.43,14.31-1.27,9.12-3.64,18.01-5.72,26.96-1.43,6.15-2.78,12.32-5.02,18.24-.41,1.08.02,1.58.8,2.17,3.16,2.4,5.72,5.34,7.66,8.8,7.07,12.59,1.7,27.02-11.87,31.92-1.91.69-3.83,1.09-5.83.42-1.69-2.75-1.23-4.26,1.7-5.53.87-.38,1.79-.65,2.63-1.07,1.33-.66,2.79-1.16,3.66-2.51.65-.15,1.14-.55,1.58-1.02,3.18-3.43,4.56-7.45,3.71-12.09-1-5.41-4.17-9.45-8.6-12.46-7.73-5.26-16.01-6.34-24.73-2.69-1.51.63-2.87.82-4.36.19-.85-.47-1.53-1.14-2.26-1.77-9.35-7.98-19.6-14.34-31.57-17.61-5.81-1.59-11.69-2.65-17.76-1.8-8.29,1.16-13.14,6.02-14.1,14.22-.35,3.03-.29,6.07.2,9.08.34,2.05.83,4.07,1.17,6.12.42,2.61-.1,3.55-2.48,4.78Zm51.38-123.46h.02c.55.06,1.02-.11,1.41-.5h.03c.7.1,1.34-.02,1.91-.46h.02c.85.1,1.68.04,2.43-.43h0c.87.19,1.74.01,2.6-.08,3.16-.36,6.32-.4,9.49-.14,1.42.11,2.83.39,4.26.22h0c.37.12.74.31,1.12.36,9.83,1.11,18.97,4.28,27.39,9.45,5.36,3.29,9.99,7.43,13.48,12.72.52.79,1.03,1.64,1.34,2.53.68,1.94-.59,3.3-2.61,2.87-.3-.06-.57-.27-.89-.11v9.65c6.41-1.83,12.27-4.22,16.99-8.79,2.27-2.2,3.89-4.83,4.62-7.97,1.1-4.71,0-9.06-2.28-13.13-3.85-6.86-9.61-11.8-16.34-15.7-8.46-5.37-17.72-8.6-27.53-10.4-.38-.12-.75-.29-1.14-.36-11.04-2.02-22.05-2.25-33.01.53-4.66,1.18-9.19,2.72-13.19,5.49-2.23,1.54-4.37,3.22-5.59,5.77-2.37,3-3.09,6.46-2.51,10.13,1.15,7.29,5.31,12.83,10.67,17.61.04.04.15,0,.22-.01.07-.03.2-.04.21-.08,1.58-5.58,3.69-11.01,4.99-16.68.21-.91.69-1.59,1.37-2.17.26.06.43-.05.52-.3Zm65.35-52.25c-.75-2.24-1.4-4.51-2.27-6.71-1.56-3.95-3.57-7.68-5.79-11.29-4.21-6.82-9.11-13.13-14.13-19.35-.23-.28-.44-.69-1.08-.43-.8,2.92-1.15,6.01-1.73,9.05-.55,2.9-.31,5.97-1.48,8.71-.57,1.33-.32,2.2.35,3.29,1.64,2.65,3.4,5.23,4.72,8.07.54,1.17,1.04,2.36,1.06,3.66.02,1.19-.39,2.2-1.59,2.71-1.11.47-2.06.1-2.84-.68-.62-.62-1.13-1.34-1.67-2.04-5.25-6.86-9.94-14.11-15.26-20.92-4.66-5.96-10.01-11.19-15.97-15.82-.4-.31-.74-.88-1.44-.65-.49.79-.35,1.69-.41,2.55-.42,5.9-.69,11.81-1.46,17.68-.25,1.9-.45,3.81-.83,5.69-.57,2.85-2.42,4.4-5.26,4.82-.63.09-1.28.07-1.91.15-5.32.64-10.63,1.34-15.82,2.69-2.63.69-2.66,1.03-.76,2.95,4.22,4.26,8.29,8.66,12.27,13.14,3.02,3.4,4.74,7.36,5.15,11.89.16,1.74.34,3.47.51,5.15.6.22,1.05.03,1.51-.1,9.08-2.46,18.31-2.68,27.6-1.85,11.41,1.02,22.3,4.04,32.7,8.81,1.34.68,2.67,1.38,4.02,2.04,1.38.67,2.61,1.7,4.19,2.16.18-.54.31-.83.38-1.13,1.76-8.48,1.63-16.96-.11-25.42-.62-3.01-1.09-6.1-2.68-8.84Zm-62.09,63.65c-.5.85-.61,1.81-.78,2.75-2.05,11.35-5.47,22.32-9.13,33.24-3.75,11.21-8.59,21.85-15.94,31.21-.28.36-.69.71-.33,1.3.19.07.4.17.62.21,7.41,1.3,14.25,4.1,20.79,7.72,6.25,3.45,12.04,7.55,17.32,12.36.76.7,1.38,1.41,2.68.9,7.45-2.91,14.87-2.27,22.25.33,1.86.66,1.88.66,2.33-1.24,1.77-7.38,3.53-14.76,5.28-22.14,2.01-8.48,3.76-17,4.44-25.71.31-.29.38-.61.08-.96.13-1.6.27-3.2.4-4.8.34-.46.43-.93.09-1.43.13-2.56.27-5.12.4-7.68.34-.63.4-1.26.05-1.91.05-1.92.27-3.84.01-5.76.58-1.21.24-2.51.29-3.76.1-2.23-.33-4.51.28-6.67.35-1.26.05-1.95-.88-2.62-.45-.33-.87-.7-1.32-1.03-10.35-7.7-21.89-11.97-34.86-12.09-3.83-.04-7.64.27-11.38,1.22-1.06.27-1.68.76-1.84,1.87-.22,1.57-.85,3.07-.89,4.68Z"/>
  <path class="cls-8" d="m645.17,505.3c2.37-1.23,2.9-2.17,2.48-4.78-.33-2.05-.83-4.07-1.17-6.12-.5-3.01-.56-6.05-.2-9.08.95-8.2,5.81-13.06,14.1-14.22,6.07-.85,11.95.21,17.76,1.8,11.97,3.26,22.23,9.63,31.57,17.61.73.62,1.41,1.3,2.26,1.77.08,1.26-1.02,1.73-1.69,2.45-1.14,1.23-2.34,2.4-2.81,4.09-.63,2.24.88,4.34,3.21,4.52,1.72.13,3.09-.61,4.4-1.56,1.29-.94,2.5-1.99,3.85-2.83,4.38-2.76,9.01-3.93,14.1-2.03,2.02.75,3.43,2.3,5.01,3.61,3.65,3.03,6.18,6.66,5.64,11.74-.14,1.34-.09,2.7-.25,4.05-.15,1.39-.11,2.86.93,4.03-.87,1.35-2.33,1.85-3.66,2.51-.85.42-1.77.69-2.63,1.07-2.93,1.27-3.39,2.78-1.7,5.53-3.31,1.59-6.63,3.15-10.24,4-5.86,1.37-11.76,1.17-17.63.3-16.15-2.4-31.44-7.77-46.53-13.8-2.37-.95-4.62-2.17-6.79-3.56-3.42-2.2-6.23-4.98-8.35-8.45-.54-.89-1.11-1.75-1.66-2.63Z"/>
  <path class="cls-5" d="m749.85,428.42c-.13,1.6-.27,3.2-.4,4.8-.42.28-.49.6-.08.96-.69,8.71-2.43,17.23-4.44,25.71-1.75,7.38-3.52,14.76-5.28,22.14-.45,1.9-.47,1.9-2.33,1.24-7.38-2.6-14.81-3.24-22.25-.33-1.3.51-1.92-.2-2.68-.9-5.28-4.82-11.07-8.91-17.32-12.36-6.55-3.62-13.39-6.42-20.79-7.72-.22-.04-.44-.15-.62-.21-.36-.59.05-.95.33-1.3,7.35-9.36,12.19-20,15.94-31.21,3.65-10.92,7.08-21.89,9.13-33.24.17-.93.28-1.9.78-2.75.24,0,.48.04.71.01,5.01-.59,10.03-.75,15.02.11,4.48.77,8.87,1.99,13.24,3.21,7.34,2.06,13.6,5.83,18.32,11.96.91,1.18,1.93,2.34,3.29,3.1.26,1.92.04,3.84-.01,5.76-.54.62-.55,1.26-.05,1.91-.13,2.56-.27,5.12-.4,7.68-.52.45-.55.93-.09,1.43Z"/>
  <path class="cls-9" d="m756.09,360.77c-10.41-4.77-21.29-7.79-32.7-8.81-9.29-.83-18.53-.61-27.6,1.85-.46.12-.91.32-1.51.1-.17-1.68-.35-3.42-.51-5.15-.41-4.53-2.13-8.49-5.15-11.89-3.98-4.48-8.05-8.88-12.27-13.14-1.9-1.92-1.87-2.26.76-2.95,5.19-1.36,10.5-2.06,15.82-2.69.63-.08,1.28-.06,1.91-.15,2.84-.42,4.69-1.98,5.26-4.82.37-1.88.58-3.79.83-5.69.77-5.87,1.03-11.78,1.46-17.68.06-.86-.08-1.76.41-2.55.7-.23,1.04.33,1.44.65,5.97,4.62,11.32,9.85,15.97,15.82,5.32,6.81,10.02,14.06,15.26,20.92.53.7,1.05,1.42,1.67,2.04.78.78,1.73,1.15,2.84.68,1.2-.51,1.61-1.52,1.59-2.71-.03-1.3-.52-2.49-1.06-3.66-1.32-2.84-3.07-5.42-4.72-8.07-.67-1.08-.92-1.95-.35-3.29,1.17-2.74.93-5.81,1.48-8.71.57-3.04.92-6.13,1.73-9.05.65-.26.86.14,1.08.43,5.02,6.23,9.92,12.54,14.13,19.35,2.23,3.61,4.23,7.35,5.79,11.29.87,2.19,1.52,4.47,2.27,6.71-.56.38-.45.98-.45,1.52-.03,3.42-.06,6.83-.46,10.25-.52,4.36-1.11,8.68-2.56,12.84-.58,1.66-1.13,3.32-1.37,5.06-.09.68-.27,1.24-.96,1.51Z"/>
  <path class="cls-7" d="m761.52,372.3c6.73,3.9,12.49,8.84,16.34,15.7,2.28,4.07,3.38,8.42,2.28,13.13-.73,3.14-2.35,5.78-4.62,7.97-4.72,4.57-10.58,6.96-16.99,8.79v-9.65c.32-.16.59.05.89.11,2.02.43,3.29-.93,2.61-2.87-.31-.89-.82-1.73-1.34-2.53-3.49-5.3-8.12-9.43-13.48-12.72-8.42-5.17-17.55-8.34-27.39-9.45-.38-.04-.75-.23-1.12-.36.84-.16,1.68-.07,2.48-.66,2.19-1.62,4.68-2.74,7.22-3.69,7.06-2.64,14.26-4.47,21.9-4.34,3.75.07,7.47.5,11.21.56Z"/>
  <path class="cls-3" d="m761.52,372.3c-3.74-.06-7.46-.49-11.21-.56-7.64-.13-14.84,1.7-21.9,4.34-2.55.95-5.03,2.07-7.22,3.69-.8.59-1.64.5-2.48.66,0,0,0,0,0,0-.2-.12-.4-.31-.61-.34-3.62-.45-7.25-.79-10.88-.42-1.61.16-3.34-.08-4.85.77,0,0,0,0,0,0-.85-.1-1.71-.21-2.43.43,0,0-.02,0-.02,0-.69-.08-1.38-.13-1.91.46,0,0-.03,0-.03,0-.56-.09-1.07-.05-1.41.49,0,0-.02,0-.02,0-.26-.06-.44.04-.52.3-.69.58-1.16,1.26-1.37,2.17-1.3,5.67-3.41,11.09-4.99,16.68-.01.04-.14.06-.21.08-.08,0-.18.05-.22.01-5.35-4.78-9.52-10.32-10.67-17.61-.58-3.67.14-7.13,2.5-10.13,1.35.88,2.83,1.14,4.36.73,1.15-.31,2.28-.75,3.36-1.24,8.07-3.68,16.44-5.99,25.36-6.47,4.22-.23,8.46-.09,12.67-.69,2.9-.42,5.42-1.29,7.17-3.76,9.81,1.8,19.07,5.03,27.53,10.4Z"/>
  <path class="cls-4" d="m750.4,411.64c-1.36-.76-2.38-1.92-3.29-3.1-4.72-6.13-10.98-9.9-18.32-11.96-4.37-1.23-8.76-2.44-13.24-3.21-4.99-.86-10.01-.71-15.02-.11-.23.03-.48,0-.71-.01.04-1.61.67-3.11.89-4.69.16-1.12.78-1.6,1.84-1.87,3.74-.95,7.55-1.25,11.38-1.22,12.97.12,24.51,4.39,34.86,12.09.45.33.87.7,1.32,1.03.93.67,1.23,1.36.88,2.62-.61,2.16-.18,4.44-.28,6.67-.06,1.25.29,2.55-.29,3.76Z"/>
  <path class="cls-2" d="m744.36,520.34c-1.03-1.17-1.08-2.64-.93-4.03.15-1.35.1-2.71.25-4.05.54-5.09-1.98-8.72-5.64-11.74-1.58-1.31-2.99-2.86-5.01-3.61-5.09-1.9-9.72-.73-14.1,2.03-1.34.85-2.56,1.89-3.85,2.83-1.31.95-2.68,1.7-4.4,1.56-2.33-.18-3.84-2.28-3.21-4.52.48-1.69,1.67-2.86,2.81-4.09.67-.73,1.78-1.19,1.69-2.45,1.48.62,2.85.44,4.36-.19,8.71-3.65,17-2.56,24.73,2.69,4.43,3.01,7.6,7.05,8.6,12.46.85,4.64-.53,8.66-3.71,12.09-.44.47-.93.87-1.58,1.02Z"/>
  <path class="cls-1" d="m733.99,361.9c-1.75,2.47-4.27,3.34-7.17,3.76-4.21.6-8.45.46-12.67.69-8.91.49-17.29,2.79-25.36,6.47-1.09.5-2.21.93-3.36,1.24-1.53.41-3.01.15-4.36-.73,1.22-2.55,3.36-4.22,5.59-5.77,3.99-2.77,8.52-4.31,13.19-5.49,10.96-2.78,21.97-2.55,33.01-.53.39.07.76.24,1.14.36Z"/>
  <path class="cls-4" d="m756.09,360.77c.69-.27.87-.83.96-1.51.23-1.74.79-3.4,1.37-5.06,1.45-4.16,2.04-8.48,2.56-12.84.41-3.42.43-6.83.46-10.25,0-.54-.11-1.14.45-1.52,1.59,2.73,2.06,5.82,2.68,8.84,1.74,8.45,1.87,16.94.11,25.42-.06.3-.19.59-.38,1.13-1.58-.46-2.81-1.49-4.19-2.16-1.35-.66-2.68-1.36-4.02-2.04Z"/>
  <path class="cls-7" d="m702.35,380.44c1.52-.85,3.24-.61,4.85-.77,3.63-.37,7.27-.03,10.88.42.21.03.41.22.61.34-1.43.17-2.84-.11-4.26-.22-3.17-.26-6.33-.22-9.49.14-.86.1-1.73.28-2.6.09Z"/>
  <path class="cls-4" d="m750.34,419.3c-.5-.65-.49-1.29.05-1.91.35.65.29,1.28-.05,1.91Z"/>
  <path class="cls-4" d="m749.85,428.42c-.47-.51-.44-.99.09-1.43.34.5.25.97-.09,1.43Z"/>
  <path class="cls-7" d="m699.93,380.87c.72-.64,1.58-.53,2.43-.43-.75.48-1.57.54-2.43.43Z"/>
  <path class="cls-7" d="m698.01,381.33c.53-.59,1.22-.54,1.91-.46-.57.44-1.21.57-1.91.46Z"/>
  <path class="cls-4" d="m749.37,434.18c-.4-.36-.34-.67.08-.96.3.35.23.66-.08.96Z"/>
  <path class="cls-7" d="m696.57,381.82c.34-.54.85-.58,1.41-.49-.39.39-.86.56-1.41.49Z"/>
  <path class="cls-7" d="m696.03,382.13c.08-.26.25-.36.52-.3-.09.24-.25.36-.52.3Z"/>
</svg>