<?xml version="1.0" encoding="UTF-8"?>
<svg id="_图层_1" data-name="图层 1" xmlns="http://www.w3.org/2000/svg" viewBox="0 0 960 960">
  <defs>
    <style>
      .cls-1 {
        fill: #fafbf9;
      }

      .cls-1, .cls-2, .cls-3, .cls-4, .cls-5, .cls-6, .cls-7, .cls-8, .cls-9, .cls-10, .cls-11, .cls-12, .cls-13 {
        stroke-width: 0px;
      }

      .cls-2 {
        fill: #444694;
      }

      .cls-3 {
        fill: #fcd441;
      }

      .cls-4 {
        fill: #a76861;
      }

      .cls-5 {
        fill: #a56760;
      }

      .cls-6 {
        fill: #f6b89f;
      }

      .cls-7 {
        fill: #060504;
      }

      .cls-8 {
        fill: #050404;
      }

      .cls-9 {
        fill: #af6a1f;
      }

      .cls-10 {
        fill: #fdd541;
      }

      .cls-11 {
        fill: #5a7dfe;
      }

      .cls-12 {
        fill: #f5b79f;
      }

      .cls-13 {
        fill: #f5b89f;
      }
    </style>
  </defs>
  <path class="cls-7" d="m645.17,505.3c-1.69.04-2.99-.7-3.71-2.18-4.2-8.62-5.76-17.49-1.68-26.57,3.74-8.32,10.59-12.78,19.34-14.48,1.74-.34,2.77-.95,3.53-2.62,1.41-3.14,3.44-5.95,5.49-8.71,5.68-7.63,9.96-15.99,13.17-24.92,1.87-5.19,3.72-10.38,5.61-15.56.41-1.11.27-1.69-.83-2.47-7.36-5.22-13.1-11.78-15.4-20.71-2.16-8.36-.12-15.83,5.7-22.22,2.5-2.75,5.46-4.91,8.69-6.71,2.07-1.16,1.66-.93,1.34-2.99-.28-1.74-.67-3.45-.99-5.18-.56-3.06-1.82-5.78-3.89-8.11-3.08-3.46-6.08-7-9.52-10.13-1.84-1.67-3.54-3.48-4.87-5.59-2.67-4.25-1.86-8.16,2.31-10.99,2.89-1.96,6.18-2.99,9.52-3.8,3.26-.79,6.55-1.46,9.85-2.06,1.35-.24,1.82-.8,1.91-2.17.43-6.22.97-12.43,1.51-18.64.19-2.15.54-4.28,1.15-6.36.36-1.23.88-2.4,1.63-3.45,2.2-3.05,5.61-3.82,8.88-1.96,1.74.99,3.29,2.27,4.82,3.56,7.01,5.89,13.32,12.43,18.61,19.93.53.76.93,1.66,1.93,2.2.55-1.15.65-2.34.9-3.49.74-3.52,1.45-7.04,2.46-10.5.42-1.46.91-2.9,1.81-4.16,1.46-2.03,3.34-2.6,5.68-1.73,1.37.51,2.53,1.35,3.67,2.24,2.41,1.88,4.42,4.16,6.3,6.55,3.8,4.85,7.41,9.84,10.64,15.08,7.71,12.53,12.49,26.03,12.92,40.89.2,6.85-.51,13.57-2.61,20.11-.59,1.86-.6,1.87.98,3.13,4.08,3.26,7.75,6.92,10.7,11.25,2.41,3.53,4.24,7.33,5.09,11.55,1.3,6.46,0,12.38-3.75,17.78-1.51,2.19-3.32,4.11-5.41,5.74-5.67,4.4-12.04,7.23-19.2,8.08-1.24.15-1.62.55-1.67,1.7-.24,4.79-.77,9.56-1.43,14.31-1.27,9.12-3.64,18.01-5.72,26.96-1.43,6.15-2.78,12.32-5.02,18.24-.41,1.08.02,1.58.8,2.17,3.16,2.4,5.72,5.34,7.66,8.8,7.07,12.59,1.7,27.02-11.87,31.92-1.91.69-3.83,1.09-5.83.42-1.69-2.75-1.23-4.26,1.7-5.53.87-.38,1.79-.65,2.63-1.07,1.33-.66,2.79-1.16,3.66-2.51.65-.15,1.14-.55,1.58-1.02,3.18-3.43,4.56-7.45,3.71-12.09-1-5.41-4.17-9.45-8.6-12.46-7.73-5.26-16.01-6.34-24.73-2.69-1.51.63-2.87.82-4.36.19-.85-.47-1.53-1.14-2.26-1.77-9.35-7.98-19.6-14.34-31.57-17.61-5.81-1.59-11.69-2.65-17.76-1.8-8.29,1.16-13.14,6.02-14.1,14.22-.35,3.03-.29,6.07.2,9.08.34,2.05.83,4.07,1.17,6.12.42,2.61-.1,3.55-2.48,4.78Zm51.38-123.46h.02c.55.06,1.02-.11,1.41-.5h.03c.7.1,1.34-.02,1.91-.46h.02c.85.1,1.68.04,2.43-.43h0c.87.19,1.74.01,2.6-.08,3.16-.36,6.32-.4,9.49-.14,1.42.11,2.83.39,4.26.22,0,0,0,0,0,0,.37.12.74.31,1.12.36,9.83,1.11,18.97,4.28,27.39,9.45,5.36,3.29,9.99,7.43,13.48,12.72.52.79,1.03,1.64,1.34,2.53.68,1.94-.59,3.3-2.61,2.87-.3-.06-.57-.27-.89-.11v9.65c6.41-1.83,12.27-4.22,16.99-8.79,2.27-2.2,3.89-4.83,4.62-7.97,1.1-4.71,0-9.06-2.28-13.13-3.85-6.86-9.61-11.8-16.34-15.7-8.46-5.37-17.72-8.6-27.53-10.4-.38-.12-.75-.29-1.14-.36-11.04-2.02-22.05-2.25-33.01.53-4.66,1.18-9.19,2.72-13.19,5.49-2.23,1.54-4.37,3.22-5.59,5.77-2.37,3-3.09,6.46-2.51,10.13,1.15,7.29,5.31,12.83,10.67,17.61.04.04.15,0,.22-.01.07-.03.2-.04.21-.08,1.58-5.58,3.69-11.01,4.99-16.68.21-.91.69-1.59,1.37-2.17.26.06.43-.05.52-.3Zm65.35-52.25c-.75-2.24-1.4-4.51-2.27-6.71-1.56-3.95-3.57-7.68-5.79-11.29-4.21-6.82-9.11-13.13-14.13-19.35-.23-.28-.44-.69-1.08-.43-.8,2.92-1.15,6.01-1.73,9.05-.55,2.9-.31,5.97-1.48,8.71-.57,1.33-.32,2.2.35,3.29,1.64,2.65,3.4,5.23,4.72,8.07.54,1.17,1.04,2.36,1.06,3.66.02,1.19-.39,2.2-1.59,2.71-1.11.47-2.06.1-2.84-.68-.62-.62-1.13-1.34-1.67-2.04-5.25-6.86-9.94-14.11-15.26-20.92-4.66-5.96-10.01-11.19-15.97-15.82-.4-.31-.74-.88-1.44-.65-.49.79-.35,1.69-.41,2.55-.42,5.9-.69,11.81-1.46,17.68-.25,1.9-.45,3.81-.83,5.69-.57,2.85-2.42,4.4-5.26,4.82-.63.09-1.28.07-1.91.15-5.32.64-10.63,1.34-15.82,2.69-2.63.69-2.66,1.03-.76,2.95,4.22,4.26,8.29,8.66,12.27,13.14,3.02,3.4,4.74,7.36,5.15,11.89.16,1.74.34,3.47.51,5.15.6.22,1.05.03,1.51-.1,9.08-2.46,18.31-2.68,27.6-1.85,11.41,1.02,22.3,4.04,32.7,8.81,1.34.68,2.67,1.38,4.02,2.04,1.38.67,2.61,1.7,4.19,2.16.18-.54.31-.83.38-1.13,1.76-8.48,1.63-16.96-.11-25.42-.62-3.01-1.09-6.1-2.68-8.84Zm-62.09,63.65c-.5.85-.61,1.81-.78,2.75-2.05,11.35-5.47,22.32-9.13,33.24-3.75,11.21-8.59,21.85-15.94,31.21-.28.36-.69.71-.33,1.3.19.07.4.17.62.21,7.41,1.3,14.25,4.1,20.79,7.72,6.25,3.45,12.04,7.55,17.32,12.36.76.7,1.38,1.41,2.68.9,7.45-2.91,14.87-2.27,22.25.33,1.86.66,1.88.66,2.33-1.24,1.77-7.38,3.53-14.76,5.28-22.14,2.01-8.48,3.76-17,4.44-25.71.31-.29.38-.61.08-.96.13-1.6.27-3.2.4-4.8.34-.46.43-.93.09-1.43.13-2.56.27-5.12.4-7.68.34-.63.4-1.26.05-1.91.05-1.92.27-3.84.01-5.76.58-1.21.24-2.51.29-3.76.1-2.23-.33-4.51.28-6.67.35-1.26.05-1.95-.88-2.62-.45-.33-.87-.7-1.32-1.03-10.35-7.7-21.89-11.97-34.86-12.09-3.83-.04-7.64.27-11.38,1.22-1.06.27-1.68.76-1.84,1.87-.22,1.57-.85,3.07-.89,4.68Z"/>
  <path class="cls-8" d="m212.7,541.74c-8.92-2.33-15.05-7.61-17.17-16.78-1.26-5.42-.19-10.64,2.48-15.52,2.03-3.7,4.75-6.8,8.13-9.33.67-.51,1.12-.89.75-1.93-2.98-8.38-4.52-17.13-6.55-25.75-1.88-8.01-3.58-16.07-4.35-24.28-.3-3.18-.56-6.37-.73-9.56-.06-1.21-.3-1.77-1.7-1.95-8.01-1-15.03-4.28-20.89-9.82-7.83-7.41-9.75-17.31-5.47-27.21,2.76-6.38,7.2-11.45,12.44-15.91,1.09-.93,2.73-1.51,3.16-2.81.44-1.3-.63-2.72-.96-4.1-3.16-13.12-2.12-26.02,2.1-38.73,2.94-8.86,7.12-17.09,12.64-24.63,2.55-3.48,4.97-7.06,7.7-10.4,1.82-2.23,3.74-4.37,6.02-6.16,1.07-.84,2.17-1.64,3.42-2.19,2.75-1.22,4.98-.47,6.51,2.15.69,1.18,1.09,2.48,1.46,3.79.97,3.47,1.64,7,2.34,10.52.2,1,.42,1.99.66,3.14,1.16-.24,1.49-1.11,1.96-1.76,5.24-7.33,11.46-13.73,18.37-19.49,1.47-1.23,3-2.4,4.58-3.47,4.15-2.79,8.33-1.61,10.52,2.91,1.2,2.49,1.59,5.19,1.82,7.9.53,6.29.98,12.59,1.43,18.89.18,2.48-.04,2.02,2.25,2.54,4.13.94,8.31,1.61,12.34,2.95,2.36.78,4.67,1.67,6.71,3.11,4.01,2.84,4.78,6.72,2.16,10.84-1.34,2.11-3.04,3.91-4.9,5.56-3.48,3.08-6.5,6.6-9.62,10.03-2.21,2.43-3.55,5.28-4.11,8.51-.31,1.81-.58,3.64-1.1,5.4-.37,1.25.15,1.71,1.08,2.23,2.74,1.51,5.27,3.32,7.53,5.49,8.13,7.81,10.11,18.65,5.14,28.76-3.21,6.53-7.95,11.75-14.02,15.74-.8.52-1.08.88-.75,1.87,3.13,9.14,6.08,18.35,10.17,27.13,1.96,4.21,4.4,8.15,7.03,11.98,2.67,3.88,5.48,7.68,7.41,12.02.3.68.73.94,1.42,1.07,1.26.22,2.51.48,3.74.83,13.41,3.74,20.99,15.58,18.76,29.33-.53,3.24-1.41,6.39-2.77,9.4-.26.58-.54,1.16-.86,1.71-1.52,2.58-3.1,2.96-5.74,1.39-.7-1.17-.79-2.45-.63-3.77,1.22-5.13,2.23-10.26,1.52-15.6-.78-5.82-3.37-10.27-8.96-12.58-2.52-1.04-5.15-1.61-7.91-1.67-4.09-.09-8.14.27-12.11,1.22-1.9.45-3.93.59-5.59,1.83-1.13.03-2.19.4-3.24.78-3.99,1.45-7.81,3.25-11.47,5.38-5.26,3.06-10.21,6.54-14.78,10.56-1.81,1.59-3.68,1.99-5.93.98-6.97-3.12-13.98-2.9-20.87.17-4.95,2.2-8.9,5.61-11.32,10.57-3.43,7.03-1.32,14.38,5.24,18.6,1.42.91,2.97,1.54,4.53,2.16.82.33,1.63.68,2.23,1.35,1.51,1.65.82,3.96-1.35,4.45-.61.14-1.26.12-1.9.17Zm57.79-198.29l.05-.04c.29,0,.43-.16.46-.43,2.72-2.78,5.45-5.56,8.23-8.4-1.15-1.11-2.43-1.37-3.65-1.62-5-1.05-10.02-2.05-15.12-2.5-4.38-.38-6.13-2.02-6.74-6.33-1.05-7.37-1.4-14.8-1.84-22.22-.05-.84.11-1.74-.33-2.48-.78-.07-1.14.42-1.56.75-5.94,4.53-11.28,9.65-15.95,15.5-5.44,6.81-10.24,14.1-15.6,20.96-.54.69-1.07,1.4-1.7,2.01-.8.78-1.78,1.07-2.86.56-1.07-.5-1.44-1.42-1.45-2.55-.01-1.23.42-2.34.91-3.44,1.19-2.64,2.76-5.05,4.38-7.42,1.1-1.61,1.83-3.06.67-4.97-.39-.64-.36-1.54-.46-2.34-.39-2.93-.67-5.88-1.15-8.79-.34-2.07-.47-4.21-1.48-6.42-1.12,1.36-2.09,2.52-3.03,3.69-5.38,6.66-10.62,13.42-14.69,20.99-6.11,11.36-9.9,23.37-9.88,36.4,0,4.14.51,8.22,1.45,12.22,1.08.02,1.68-.58,2.36-.95,10.78-5.89,22.3-9.49,34.47-11.12,7.17-.96,14.34-1.01,21.53-.37,1.55.81,3.3.32,4.92.78,1.91.54,3.89.88,5.81,1.39.98.26,1.34-.04,1.31-1,0-.24.01-.48.02-.72.23-6.65,2.38-12.46,7.27-17.16.9-.86,1.97-1.64,2.42-2.9.26-.23.51-.46.77-.69.29.02.44-.12.46-.41Zm-22.93,29.9c-2.33-.8-4.77-.76-7.18-.97-6.47-.42-12.9.04-19.27,1.16-4.7.83-9.37,1.78-13.81,3.6-6.98,1.93-13.31,5.23-19.26,9.28-3.51,2.39-6.66,5.2-9.37,8.47-2.21,2.66-3.97,5.58-5.04,8.88-2.3,7.07-.25,13.68,5.68,18.29,4.37,4.06,9.83,5.84,15.41,7.73v-10.11c-1.23.6-2.33.93-3.22-.12-.95-1.12-.44-2.25.11-3.34.22-.43.47-.83.73-1.23,2.02-3.1,4.48-5.79,7.29-8.18,4.97-4.23,10.59-7.34,16.65-9.7,2.28-.76,4.57-1.52,6.85-2.28,2.34-.54,4.69-1.08,7.03-1.62.32-.04.63-.08.95-.12,5.86-.86,11.73-1.44,17.66-.64,2.45.33,4.91.65,7.27,1.44,1.57.52,2.65,1.42,2.7,3.24.02.62.19,1.26.4,1.86,1.47,4.14,2.67,8.37,3.85,12.6.18.65.22,1.41.77,1.88.23-.05.43-.02.53-.11,4.32-4.03,7.97-8.5,9.81-14.24,2.17-6.79.33-12.5-4.82-17.12-5.47-4.9-12.23-7.03-19.33-8.23-.85.21-1.53-.6-2.38-.42Zm5.38,29.51c-.05-.39-.12-.79-.13-1.18-.07-1.81-1.11-2.58-2.81-2.91-2.59-.5-5.18-.94-7.82-1.07-9.01-.44-17.63,1.23-25.87,4.87-4.76,2.1-9.27,4.66-13.27,8.02-.53.44-1.3.78-.98,1.7.88,2.57.37,5.23.43,7.84.09,4.22-.06,8.45.51,12.65-.2.33-.65.62-.47,1.03.54,1.22.34,2.5.4,3.76.33,7.11,1,14.18,2.2,21.19,1.52,8.98,3.75,17.8,5.76,26.68.69,3.04,1.44,6.06,2.07,9.11.22,1.05.61,1.4,1.6.94.14-.07.29-.13.44-.18,7.47-2.61,14.96-3.18,22.47-.17.9.36,1.47.18,2.13-.42,1.3-1.18,2.62-2.34,4-3.43,10.18-7.98,21.24-14.16,34.1-16.67.51-.1,1.12.03,1.55-.55-.15-.89-.86-1.47-1.35-2.16-3.83-5.33-7.35-10.87-9.83-16.96-5.25-12.88-9.46-26.1-12.44-39.71-.9-4.12-1.44-8.33-2.69-12.38Z"/>
  <path class="cls-11" d="m645.17,505.3c2.37-1.23,2.9-2.17,2.48-4.78-.33-2.05-.83-4.07-1.17-6.12-.5-3.01-.56-6.05-.2-9.08.95-8.2,5.81-13.06,14.1-14.22,6.07-.85,11.95.21,17.76,1.8,11.97,3.26,22.23,9.63,31.57,17.61.73.62,1.41,1.3,2.26,1.77.08,1.26-1.02,1.73-1.69,2.45-1.14,1.23-2.34,2.4-2.81,4.09-.63,2.24.88,4.34,3.21,4.52,1.72.13,3.09-.61,4.4-1.56,1.29-.94,2.5-1.99,3.85-2.83,4.38-2.76,9.01-3.93,14.1-2.03,2.02.75,3.43,2.3,5.01,3.61,3.65,3.03,6.18,6.66,5.64,11.74-.14,1.34-.09,2.7-.25,4.05-.15,1.39-.11,2.86.93,4.03-.87,1.35-2.33,1.85-3.66,2.51-.85.42-1.77.69-2.63,1.07-2.93,1.27-3.39,2.78-1.7,5.53-3.31,1.59-6.63,3.15-10.24,4-5.86,1.37-11.76,1.17-17.63.3-16.15-2.4-31.44-7.77-46.53-13.8-2.37-.95-4.62-2.17-6.79-3.56-3.42-2.2-6.23-4.98-8.35-8.45-.54-.89-1.11-1.75-1.66-2.63Z"/>
  <path class="cls-11" d="m212.7,541.74c.63-.05,1.28-.04,1.9-.17,2.16-.49,2.85-2.81,1.35-4.45-.61-.66-1.41-1.02-2.23-1.35-1.55-.62-3.1-1.25-4.53-2.16-6.56-4.23-8.67-11.58-5.24-18.6,2.41-4.95,6.37-8.37,11.32-10.57,6.89-3.06,13.91-3.29,20.87-.17,2.26,1.01,4.13.61,5.93-.98,4.57-4.02,9.52-7.5,14.78-10.56,3.66-2.13,7.48-3.93,11.47-5.38,1.06-.38,2.11-.75,3.24-.78.7.62,1.53.36,2.29.26,4.89-.65,9.59-.7,14.1,1.98,2.27,1.35,3.9,2.88,4.81,5.33,1.34,3.63,1.95,7.41,2.26,11.22.49,5.93,4.21,8.66,8.63,7.94.31-.05.64.04.95.07-.16,1.32-.07,2.59.63,3.77-4.34,4.09-9.53,6.95-14.62,9.92-6.17,3.59-12.89,5.91-19.77,7.77-10.8,2.92-21.77,4.92-32.88,6.17-2.3.26-4.62.31-6.93.38-5.74.19-11.46.82-17.21.67-.4-.01-.8,0-1.12-.3Z"/>
  <path class="cls-6" d="m749.85,428.42c-.13,1.6-.27,3.2-.4,4.8-.42.28-.49.6-.08.96-.69,8.71-2.43,17.23-4.44,25.71-1.75,7.38-3.52,14.76-5.28,22.14-.45,1.9-.47,1.9-2.33,1.24-7.38-2.6-14.81-3.24-22.25-.33-1.3.51-1.92-.2-2.68-.9-5.28-4.82-11.07-8.91-17.32-12.36-6.55-3.62-13.39-6.42-20.79-7.72-.22-.04-.44-.15-.62-.21-.36-.59.05-.95.33-1.3,7.35-9.36,12.19-20,15.94-31.21,3.65-10.92,7.08-21.89,9.13-33.24.17-.93.28-1.9.78-2.75.24,0,.48.04.71.01,5.01-.59,10.03-.75,15.02.11,4.48.77,8.87,1.99,13.24,3.21,7.34,2.06,13.6,5.83,18.32,11.96.91,1.18,1.93,2.34,3.29,3.1.26,1.92.04,3.84-.01,5.76-.54.62-.55,1.26-.05,1.91-.13,2.56-.27,5.12-.4,7.68-.52.45-.55.93-.09,1.43Z"/>
  <path class="cls-12" d="m756.09,360.77c-10.41-4.77-21.29-7.79-32.7-8.81-9.29-.83-18.53-.61-27.6,1.85-.46.12-.91.32-1.51.1-.17-1.68-.35-3.42-.51-5.15-.41-4.53-2.13-8.49-5.15-11.89-3.98-4.48-8.05-8.88-12.27-13.14-1.9-1.92-1.87-2.26.76-2.95,5.19-1.36,10.5-2.06,15.82-2.69.63-.08,1.28-.06,1.91-.15,2.84-.42,4.69-1.98,5.26-4.82.37-1.88.58-3.79.83-5.69.77-5.87,1.03-11.78,1.46-17.68.06-.86-.08-1.76.41-2.55.7-.23,1.04.33,1.44.65,5.97,4.62,11.32,9.85,15.97,15.82,5.32,6.81,10.02,14.06,15.26,20.92.53.7,1.05,1.42,1.67,2.04.78.78,1.73,1.15,2.84.68,1.2-.51,1.61-1.52,1.59-2.71-.03-1.3-.52-2.49-1.06-3.66-1.32-2.84-3.07-5.42-4.72-8.07-.67-1.08-.92-1.95-.35-3.29,1.17-2.74.93-5.81,1.48-8.71.57-3.04.92-6.13,1.73-9.05.65-.26.86.14,1.08.43,5.02,6.23,9.92,12.54,14.13,19.35,2.23,3.61,4.23,7.35,5.79,11.29.87,2.19,1.52,4.47,2.27,6.71-.56.38-.45.98-.45,1.52-.03,3.42-.06,6.83-.46,10.25-.52,4.36-1.11,8.68-2.56,12.84-.58,1.66-1.13,3.32-1.37,5.06-.09.68-.27,1.24-.96,1.51Z"/>
  <path class="cls-9" d="m761.52,372.3c6.73,3.9,12.49,8.84,16.34,15.7,2.28,4.07,3.38,8.42,2.28,13.13-.73,3.14-2.35,5.78-4.62,7.97-4.72,4.57-10.58,6.96-16.99,8.79v-9.65c.32-.16.59.05.89.11,2.02.43,3.29-.93,2.61-2.87-.31-.89-.82-1.73-1.34-2.53-3.49-5.3-8.12-9.43-13.48-12.72-8.42-5.17-17.55-8.34-27.39-9.45-.38-.04-.75-.23-1.12-.36.84-.16,1.68-.07,2.48-.66,2.19-1.62,4.68-2.74,7.22-3.69,7.06-2.64,14.26-4.47,21.9-4.34,3.75.07,7.47.5,11.21.56Z"/>
  <path class="cls-3" d="m761.52,372.3c-3.74-.06-7.46-.49-11.21-.56-7.64-.13-14.84,1.7-21.9,4.34-2.55.95-5.03,2.07-7.22,3.69-.8.59-1.64.5-2.48.66,0,0,0,0,0,0-.2-.12-.4-.31-.61-.34-3.62-.45-7.25-.79-10.88-.42-1.61.16-3.34-.08-4.85.77,0,0,0,0,0,0-.85-.1-1.71-.21-2.43.43,0,0-.02,0-.02,0-.69-.08-1.38-.13-1.91.46,0,0-.03,0-.03,0-.56-.09-1.07-.05-1.41.49,0,0-.02,0-.02,0-.26-.06-.44.04-.52.3-.69.58-1.16,1.26-1.37,2.17-1.3,5.67-3.41,11.09-4.99,16.68-.01.04-.14.06-.21.08-.08,0-.18.05-.22.01-5.35-4.78-9.52-10.32-10.67-17.61-.58-3.67.14-7.13,2.5-10.13,1.35.88,2.83,1.14,4.36.73,1.15-.31,2.28-.75,3.36-1.24,8.07-3.68,16.44-5.99,25.36-6.47,4.22-.23,8.46-.09,12.67-.69,2.9-.42,5.42-1.29,7.17-3.76,9.81,1.8,19.07,5.03,27.53,10.4Z"/>
  <path class="cls-5" d="m750.4,411.64c-1.36-.76-2.38-1.92-3.29-3.1-4.72-6.13-10.98-9.9-18.32-11.96-4.37-1.23-8.76-2.44-13.24-3.21-4.99-.86-10.01-.71-15.02-.11-.23.03-.48,0-.71-.01.04-1.61.67-3.11.89-4.69.16-1.12.78-1.6,1.84-1.87,3.74-.95,7.55-1.25,11.38-1.22,12.97.12,24.51,4.39,34.86,12.09.45.33.87.7,1.32,1.03.93.67,1.23,1.36.88,2.62-.61,2.16-.18,4.44-.28,6.67-.06,1.25.29,2.55-.29,3.76Z"/>
  <path class="cls-2" d="m744.36,520.34c-1.03-1.17-1.08-2.64-.93-4.03.15-1.35.1-2.71.25-4.05.54-5.09-1.98-8.72-5.64-11.74-1.58-1.31-2.99-2.86-5.01-3.61-5.09-1.9-9.72-.73-14.1,2.03-1.34.85-2.56,1.89-3.85,2.83-1.31.95-2.68,1.7-4.4,1.56-2.33-.18-3.84-2.28-3.21-4.52.48-1.69,1.67-2.86,2.81-4.09.67-.73,1.78-1.19,1.69-2.45,1.48.62,2.85.44,4.36-.19,8.71-3.65,17-2.56,24.73,2.69,4.43,3.01,7.6,7.05,8.6,12.46.85,4.64-.53,8.66-3.71,12.09-.44.47-.93.87-1.58,1.02Z"/>
  <path class="cls-1" d="m733.99,361.9c-1.75,2.47-4.27,3.34-7.17,3.76-4.21.6-8.45.46-12.67.69-8.91.49-17.29,2.79-25.36,6.47-1.09.5-2.21.93-3.36,1.24-1.53.41-3.01.15-4.36-.73,1.22-2.55,3.36-4.22,5.59-5.77,3.99-2.77,8.52-4.31,13.19-5.49,10.96-2.78,21.97-2.55,33.01-.53.39.07.76.24,1.14.36Z"/>
  <path class="cls-5" d="m756.09,360.77c.69-.27.87-.83.96-1.51.23-1.74.79-3.4,1.37-5.06,1.45-4.16,2.04-8.48,2.56-12.84.41-3.42.43-6.83.46-10.25,0-.54-.11-1.14.45-1.52,1.59,2.73,2.06,5.82,2.68,8.84,1.74,8.45,1.87,16.94.11,25.42-.06.3-.19.59-.38,1.13-1.58-.46-2.81-1.49-4.19-2.16-1.35-.66-2.68-1.36-4.02-2.04Z"/>
  <path class="cls-9" d="m702.35,380.44c1.52-.85,3.24-.61,4.85-.77,3.63-.37,7.27-.03,10.88.42.21.03.41.22.61.34-1.43.17-2.84-.11-4.26-.22-3.17-.26-6.33-.22-9.49.14-.86.1-1.73.28-2.6.09Z"/>
  <path class="cls-5" d="m750.34,419.3c-.5-.65-.49-1.29.05-1.91.35.65.29,1.28-.05,1.91Z"/>
  <path class="cls-5" d="m749.85,428.42c-.47-.51-.44-.99.09-1.43.34.5.25.97-.09,1.43Z"/>
  <path class="cls-9" d="m699.93,380.87c.72-.64,1.58-.53,2.43-.43-.75.48-1.57.54-2.43.43Z"/>
  <path class="cls-9" d="m698.01,381.33c.53-.59,1.22-.54,1.91-.46-.57.44-1.21.57-1.91.46Z"/>
  <path class="cls-5" d="m749.37,434.18c-.4-.36-.34-.67.08-.96.3.35.23.66-.08.96Z"/>
  <path class="cls-9" d="m696.57,381.82c.34-.54.85-.58,1.41-.49-.39.39-.86.56-1.41.49Z"/>
  <path class="cls-9" d="m696.03,382.13c.08-.26.25-.36.52-.3-.09.24-.25.36-.52.3Z"/>
  <path class="cls-6" d="m252.94,402.87c1.25,4.05,1.79,8.25,2.69,12.38,2.97,13.6,7.19,26.82,12.44,39.71,2.48,6.09,6,11.62,9.83,16.96.5.69,1.21,1.27,1.35,2.16-.43.59-1.04.45-1.55.55-12.85,2.51-23.92,8.69-34.1,16.67-1.38,1.08-2.7,2.25-4,3.43-.66.6-1.23.78-2.13.42-7.5-3.01-15-2.43-22.47.17-.15.05-.3.11-.44.18-.99.46-1.38.11-1.6-.94-.63-3.05-1.38-6.07-2.07-9.11-2.01-8.87-4.23-17.7-5.76-26.68-1.19-7.01-1.86-14.09-2.2-21.19-.06-1.26.15-2.54-.4-3.76-.19-.42.27-.7.47-1.03,1.1-.06,1.33-1.03,1.76-1.75,1.7-2.81,3.59-5.45,5.98-7.72,3.6-3.42,7.59-6.33,11.81-8.9,6.98-4.26,14.33-7.63,22.42-9.22,2.71-.53,5.56-.69,7.96-2.32Z"/>
  <path class="cls-13" d="m247.51,364.16c-7.19-.65-14.36-.59-21.53.37-12.17,1.62-23.68,5.22-34.47,11.12-.68.37-1.28.97-2.36.95-.95-4.01-1.45-8.09-1.45-12.22-.02-13.03,3.77-25.04,9.88-36.4,4.07-7.57,9.31-14.33,14.69-20.99.95-1.17,1.91-2.33,3.03-3.69,1.01,2.21,1.14,4.35,1.48,6.42.48,2.91.76,5.86,1.15,8.79.1.79.07,1.7.46,2.34,1.16,1.91.43,3.36-.67,4.97-1.62,2.37-3.19,4.79-4.38,7.42-.5,1.1-.93,2.21-.91,3.44.01,1.12.38,2.04,1.45,2.55,1.08.51,2.06.22,2.86-.56.62-.61,1.16-1.32,1.7-2.01,5.36-6.87,10.17-14.15,15.6-20.96,4.67-5.85,10.02-10.97,15.95-15.5.43-.32.78-.82,1.56-.75.44.74.28,1.64.33,2.48.44,7.42.79,14.85,1.84,22.22.62,4.31,2.37,5.94,6.74,6.33,5.1.45,10.12,1.45,15.12,2.5,1.22.26,2.49.51,3.65,1.62-2.79,2.84-5.51,5.62-8.23,8.4-.28.01-.45.14-.46.43,0,0-.05.04-.05.04-.28,0-.44.12-.46.41-.26.23-.51.46-.77.69-.43-.09-.77.08-1.1.32-4.42,3.18-8.3,6.98-11.92,11.01-1.69,1.88-3.54,3.74-4.62,6.06-.78,1.68-1.73,2.58-3.63,2.13-.14-.03-.31.06-.47.09Z"/>
  <path class="cls-10" d="m207.3,377.14c4.44-1.82,9.11-2.77,13.81-3.6,6.37-1.12,12.8-1.58,19.27-1.16-.39.77-1.17,1.07-1.84,1.48-7.31,4.45-13.39,10.28-18.67,16.94-1.49,1.89-3.45,3.63-3.6,6.33-6.06,2.36-11.68,5.47-16.65,9.7-2.81,2.39-5.28,5.09-7.29,8.18-.26.4-.52.81-.73,1.23-.55,1.09-1.06,2.22-.11,3.34.89,1.05,1.99.73,3.22.12v10.11c-5.58-1.89-11.04-3.68-15.41-7.73-.05-3.93.17-7.82,1.61-11.55,3.96-10.24,9.77-19.19,18.23-26.32,2.75-2.31,5.43-4.71,8.15-7.06Z"/>
  <path class="cls-9" d="m249.94,373.77c7.1,1.2,13.86,3.33,19.33,8.23,5.15,4.62,7,10.33,4.82,17.12-1.84,5.74-5.49,10.22-9.81,14.24-.1.09-.29.07-.53.11-.55-.48-.59-1.23-.77-1.88-1.18-4.23-2.38-8.46-3.85-12.6-.21-.59-.39-1.23-.4-1.86-.05-1.82-1.13-2.72-2.7-3.24-2.36-.78-4.82-1.1-7.27-1.44-5.92-.8-11.8-.22-17.66.64-.31.05-.63.08-.95.12.03-1.16.51-2.13,1.12-3.09,2.71-4.21,6.4-7.48,10.13-10.71,2.6-2.25,5.71-3.74,8.53-5.65Z"/>
  <path class="cls-4" d="m252.94,402.87c-2.4,1.63-5.25,1.78-7.96,2.32-8.09,1.59-15.45,4.96-22.42,9.22-4.22,2.58-8.21,5.48-11.81,8.9-2.39,2.27-4.29,4.92-5.98,7.72-.44.72-.66,1.69-1.76,1.75-.58-4.2-.42-8.43-.51-12.65-.06-2.62.46-5.27-.43-7.84-.32-.93.45-1.26.98-1.7,4.01-3.36,8.51-5.91,13.27-8.02,8.24-3.64,16.86-5.31,25.87-4.87,2.63.13,5.23.57,7.82,1.07,1.71.33,2.74,1.09,2.81,2.91.02.4.09.79.13,1.18Z"/>
  <path class="cls-2" d="m304.6,513.37c-.32-.03-.65-.12-.95-.07-4.42.72-8.14-2.01-8.63-7.94-.32-3.8-.92-7.59-2.26-11.22-.91-2.45-2.53-3.98-4.81-5.33-4.51-2.68-9.21-2.63-14.1-1.98-.76.1-1.59.36-2.29-.26,1.65-1.23,3.69-1.37,5.59-1.83,3.97-.95,8.01-1.31,12.11-1.22,2.76.06,5.39.63,7.91,1.67,5.59,2.31,8.18,6.76,8.96,12.58.71,5.34-.3,10.47-1.52,15.6Z"/>
  <path class="cls-1" d="m207.3,377.14c-2.71,2.36-5.4,4.75-8.15,7.06-8.47,7.12-14.27,16.07-18.23,26.32-1.44,3.73-1.66,7.62-1.61,11.55-5.93-4.61-7.99-11.22-5.68-18.29,1.08-3.3,2.83-6.23,5.04-8.88,2.72-3.27,5.86-6.09,9.37-8.47,5.95-4.05,12.28-7.36,19.26-9.28Z"/>
  <path class="cls-9" d="m216.27,397.13c.15-2.7,2.11-4.44,3.6-6.33,5.28-6.66,11.35-12.49,18.67-16.94.67-.41,1.45-.71,1.84-1.48,2.41.21,4.85.17,7.18.97-2.38,2.11-5.15,3.68-7.77,5.45-5.77,3.9-10.79,8.61-15.47,13.73-.57.63-1.48,1.2-1.21,2.31-2.28.76-4.57,1.52-6.85,2.28Z"/>
  <path class="cls-5" d="m247.51,364.16c.16-.03.32-.12.47-.09,1.9.45,2.85-.45,3.63-2.13,1.08-2.32,2.93-4.17,4.62-6.06,3.62-4.04,7.5-7.83,11.92-11.01.34-.24.68-.41,1.1-.32-.45,1.26-1.52,2.04-2.42,2.9-4.88,4.69-7.04,10.51-7.27,17.16,0,.24-.03.48-.02.72.03.96-.33,1.26-1.31,1-1.92-.51-3.9-.84-5.81-1.39-1.62-.46-3.37.04-4.92-.78Z"/>
  <path class="cls-3" d="m223.12,394.84c-.27-1.12.63-1.68,1.21-2.31,4.67-5.11,9.7-9.83,15.47-13.73,2.62-1.77,5.38-3.34,7.77-5.45.85-.18,1.52.63,2.38.42-2.83,1.91-5.94,3.4-8.53,5.65-3.73,3.24-7.42,6.51-10.13,10.71-.62.96-1.1,1.93-1.12,3.09-2.34.54-4.69,1.08-7.03,1.62Z"/>
  <path class="cls-5" d="m270.53,343.41c.02-.29.18-.42.46-.43-.03.28-.18.43-.46.43Z"/>
  <path class="cls-5" d="m270.03,343.86c.02-.28.18-.41.46-.41-.02.28-.17.43-.46.41Z"/>
</svg>