<?xml version="1.0" encoding="UTF-8"?>
<svg id="_图层_1" data-name="图层 1" xmlns="http://www.w3.org/2000/svg" viewBox="0 0 960 960">
  <defs>
    <style>
      .cls-1 {
        fill: #212020;
      }

      .cls-1, .cls-2, .cls-3, .cls-4, .cls-5, .cls-6, .cls-7, .cls-8, .cls-9, .cls-10, .cls-11, .cls-12, .cls-13, .cls-14, .cls-15, .cls-16, .cls-17, .cls-18, .cls-19, .cls-20, .cls-21, .cls-22, .cls-23, .cls-24, .cls-25, .cls-26 {
        stroke-width: 0px;
      }

      .cls-2 {
        fill: #464798;
      }

      .cls-3 {
        fill: #ffd53a;
      }

      .cls-4 {
        fill: #504f4f;
      }

      .cls-5 {
        fill: #4a68f8;
      }

      .cls-7 {
        fill: #7a504b;
      }

      .cls-8 {
        fill: #774843;
      }

      .cls-9 {
        fill: #f7b7a1;
      }

      .cls-10 {
        fill: #ccc7c7;
      }

      .cls-11 {
        fill: #bcd2ff;
      }

      .cls-12 {
        fill: #fff;
      }

      .cls-13 {
        fill: #a96962;
      }

      .cls-14 {
        fill: #a4a3a3;
      }

      .cls-15 {
        fill: #1d1a1a;
      }

      .cls-16 {
        fill: #aa6962;
      }

      .cls-17 {
        fill: #767e7e;
      }

      .cls-18 {
        fill: #ad675f;
      }

      .cls-19 {
        fill: #b36b19;
      }

      .cls-20 {
        fill: #938f8f;
      }

      .cls-21 {
        fill: #ab6962;
      }

      .cls-22 {
        fill: #543531;
      }

      .cls-23 {
        fill: #4866f2;
      }

      .cls-24 {
        fill: #fffffe;
      }

      .cls-25 {
        fill: #333f78;
      }

      .cls-26 {
        fill: #5a7dff;
      }
    </style>
  </defs>
  <path class="cls-6" d="m712.79,319.79c-1.58-11.03-4.93-21.44-10.91-30.93-2.45-3.89-5.34-7.38-9.11-10.05-1.01-.72-1.27-1.34-.79-2.52,1.52-3.8,1.72-7.77,1.26-11.79-.73-6.37-3.69-11.23-9.35-14.48-3.86-2.22-7.96-3.23-12.33-3.38-6.24-.22-12.25,1.07-18.04,3.25-7.99,3.01-15.92,6.19-23.84,9.37-7.56,3.03-15.07,6.17-23.1,7.8-5.7,1.16-11.33,2.68-17.27,2.34-2.08-.12-3.27-.69-4.4-2.43-5.84-9-12.28-17.53-19.84-25.18-2.81-2.84-5.71-5.58-9.05-7.82-.48-.32-1.09-.53-1.4-1.2,3.32-1.96,6.49-3.97,9.51-6.19,1.16-.86,2.33-1.72,2.62-3.28,0-2.96-1.27-4.06-4.12-3.55-.63.11-1.24.31-1.83.56-4.77,2.03-9.6,3.93-14.32,6.1-15.52,7.13-31.68,12.33-48.35,15.97-8.82,1.93-17.8,2.92-26.8,3.47-3.97.24-7.97.34-11.96-.12-5.12-.36-10.11-1.28-14.91-3.17-7.52-2.97-9.45-8.51-5.32-15.45.24-.41.51-.81.78-1.21,2.32-3.45,4.93-6.66,7.9-9.58,1.19-1.27,2.49-2.44,3.63-3.74.71-.81,1.62-1.61,1.04-2.9-1.05-1.53-2.25-.76-3.36-.16-6.47,3.5-12.24,7.89-16.71,13.77-1.31,1.73-2.65,2.83-4.85,2.89-.86.02-1.72.36-2.57.57-8.55,2.2-16.21,6.27-23.4,11.27-6.12,4.25-11.85,8.99-17.02,14.36-1.32,1.37-2.62,2.14-4.56,1.96-1.83-.17-3.68.04-5.49.41-2.69.55-4.75,1.95-5.59,4.66-.8,2.62-.12,4.92,1.98,6.7.74.62.67,1.05.15,1.74-1.79,2.35-3.6,4.7-5.25,7.15-.77,1.14-1.58,1.54-2.95,1.43-8.11-.69-15.93-2.49-23.29-6.02-3.39-1.62-6.81-3.16-10.31-4.52-2.38-.93-4.79-1.75-7.34-2.14-4.95-.77-8.92.88-11.54,5.07-3.62,5.8-4.3,11.97-1.18,18.25,1.9,3.83,4.47,7.2,7.84,9.88,7.24,5.75,15.29,9.82,24.43,11.59,1.59.31,3.25.43,4.81,1.19-3.85,8.96-6.84,18.06-9.62,27.23-.35,1.15-1.01,1.84-2.01,2.5-10.57,7.01-19.29,15.78-25.12,27.15-6.82,13.3-7.07,26.82-.92,40.44,3.64,8.07,9.04,14.84,15.47,20.86,3.45,3.23,7.16,6.14,10.85,9.07.68.73,1.57,1.22,2.25,1.95.08.08.17.16.25.24.18.16.36.33.54.48,3.52,2.65,7.4,4.74,11.29,6.77,15.69,8.17,32.3,13.78,49.51,17.75,22.12,5.11,44.55,7.46,67.2,8.06,4.7.13,9.42-.21,14.12-.34,10.63-.3,21.2-1.13,31.74-2.46,24.7-3.1,48.8-8.61,71.8-18.29,14.92-6.28,29.4-13.4,40.95-25.21,4.45-4.5,8.65-9.19,11.97-14.63,6.15-10.1,9.03-20.92,7.25-32.77-.16-.54-.66-1.18.41-1.35,1.41,2.84,2.98,5.59,4.9,8.13.91,3.29,3.6,5.22,5.9,7.33,8.09,7.42,17.38,10.3,28.01,6.28,8.68-3.29,15.13-9.24,19.39-17.51v.03c.21-.29.14-.69.37-.98,1.83-3.46,3.66-6.92,4.94-10.63,5.62-16.28,7.51-32.95,5.07-50.04Zm-75.76,40.57c-1.32-1.8-2.63-3.6-3.96-5.39-5.13-6.89-11.85-12.02-18.9-16.73-1.97-1.31-3.02-2.53-2.69-5.13.4-3.07-.54-6.17-.72-9.28.88-.73,1.82-.33,2.74-.13,2.18.47,4.38.73,6.6.94,4.5.42,8.88-.16,13.26-1.03,1.17-.23,2.77-.78,2.39,1.54-1.23,11.06-.73,22.02,1.77,32.88.09.39.1.79.15,1.19.15.59.31,1.19-.65,1.13Zm56.85-16.13c-.26,3.11-.39,6.22-1.02,9.28-.26,1.26-.68,2.47-1.21,3.63-1.31,2.87-3.97,4.46-7.13,4.23-2.38-.17-4.47-1.1-6.3-2.64-3.34-2.79-5.52-6.39-7.15-10.35-3.52-8.61-5.35-17.55-4.97-28.24,0-6.56,1.69-14.17,4.2-21.64.3-.89.71-1.44,1.66-1.79,1.26-.46,2.5-1.1,3.6-1.88,1.06-.74,1.66-.5,2.29.46.97,1.47,2.14,2.82,2.94,4.37,3.76,7.22,7.66,14.37,10.24,22.15,2.43,7.31,3.49,14.74,2.85,22.42Z"/>
  <path class="cls-2" d="m337.78,438.97c3.76,2.27,7.46,4.64,11.36,6.67,12.88,6.69,26.37,11.76,40.38,15.54,12.35,3.33,24.88,5.7,37.53,7.45,7.35,1.01,14.74,1.72,22.15,2.15,7.5.44,14.99.87,22.5.74,10.38-.19,20.73-.69,31.07-1.71,16.71-1.64,33.19-4.51,49.43-8.76,14.56-3.81,28.71-8.78,42.22-15.43,8.97-4.41,17.59-9.44,25.42-15.73,1.6-1.29,2.85-3.01,4.75-3.94-2.61,3.13-5.55,5.94-8.55,8.68-21.33,19.44-45.8,33.56-72.95,43.21-15.44,5.49-31.34,8.88-47.61,10.65-13.71,1.49-27.44,1.82-41.18.83-26.4-1.9-51.81-7.75-75.64-19.59-14.41-7.15-27.68-15.97-39.04-27.48-1.17-1.19-2.46-2.28-3.32-3.75.31-.27.61-.3.9.04l.04.03c.19.12.36.25.53.4Z"/>
  <path class="cls-26" d="m447.53,215.92c.89-1.33,2.19-2.28,3.25-3.46.74-.82,1.57-1.59,1.72-2.78,4.79-.04,9.55-.73,14.36-.49,7.83.39,15.62,1.07,23.31,2.6,15.04,3.01,30.2,4.3,45.51,3.46,4.86-.27,9.75-.05,14.59-.76,1.82-.27,3.63-.53,5.45-.81,1.91-.29,3.83-.41,5.73-.05,3.21.62,6.2,3.29,5.73,7.37-.09.77.14,1.61-.42,2.29-.56-2.91-1.96-3.8-4.73-2.73-5.21,2.02-10.35,4.18-15.43,6.5-16.25,7.4-33.14,12.88-50.64,16.4-10.98,2.21-22.09,3.3-33.31,3.1-1.1-.02-2.24.11-3.31-.31.49-.81,1.19-.58,1.62-.48-2.58-1.56-5.42-3.25-7.79-5.56-2.09-2.03-2.23-3.64-.74-6.2,1.54-2.63,2.71-5.42,3.39-8.38,1.09-4.71-1.46-8.37-6.27-9.1-.7-.11-1.45-.02-2-.62Z"/>
  <path class="cls-2" d="m649.12,385.33c2.28,3.09,4.86,5.9,7.83,8.32,11.04,9.02,23.72,8.09,34.3.1,3.86-2.92,6.95-6.54,9.72-10.48.45-.64.7-1.45,1.45-1.85-.31,13.02-8.76,24.38-20.75,27.9-9.91,2.91-21.98-.37-28.27-10.06-1.7-2.62-3.27-5.3-4.2-8.31-.58-1.88-.81-3.74-.08-5.62Z"/>
  <path class="cls-17" d="m643.81,378.55c-.57-.76-.55-1.62-.46-2.55.71.17.84.65.87,1.2-.43.36-.15.94-.41,1.35Z"/>
  <path class="cls-25" d="m337.21,438.54c-.3-.01-.6-.03-.9-.04-.58-.4-1.1-.85-1.37-1.52.95.23,1.62.88,2.26,1.56Z"/>
  <path class="cls-2" d="m702.4,381.45c-.17-.44-.03-.76.38-.98.09.41.04.77-.38.98Z"/>
  <path class="cls-9" d="m426.94,239.4l.07.48c.4.76.28,1.59.18,2.35-1.06,7.99,6.21,15.89,12.26,18.35,4.67,1.9,9.54,2.59,14.47,3.09,12.59,1.28,25.04-.06,37.44-2.11,1.67-.28,3.05-.18,3.62,1.72,2.36,5.27,5.44,6.1,10.05,2.72.89-.65,1.7-1.44,2.83-1.7,1.75-.13,3.51-.23,5.23-.57,7.05-1.41,13.79.57,20.59,1.9,3.83.74,7.63,1.83,11.58.8,1.81-.47,3.47-1.18,4.76-2.6,1.21-1.33,1.81-2.92,1.25-4.64-.57-1.73-.97-3.53-1.77-5.18-2-3.14-5.49-3.8-8.58-5.13-1.65-1.25-1.65-1.72.16-2.46,1.99-.81,4.06-1.41,6.07-2.2,1.49-.58,3-1.06,4.23-2.15.61-.54,1.34-.91,2.15-.27,3.77,3.83,7.07,8.04,10.19,12.41,14.28,19.98,24.84,41.89,33.5,64.78,2.01,5.31,3.87,10.67,4.87,16.28.38,2.1,1.48,3.67,3.33,4.73,7.67,4.37,13.3,10.92,18.73,17.66,2.47,3.06,4.35,6.5,5.98,10.08,4.9,10.73,4.62,21.37-.52,31.94-2.98,6.11-7.2,11.33-11.95,16.11-8.25,8.28-17.7,14.93-28.04,20.34-15.76,8.23-32.47,13.83-49.77,17.7-26.53,5.93-53.39,7.96-80.53,6.94-17.05-.64-33.97-2.38-50.66-5.96-18.67-4.01-36.76-9.74-53.68-18.78-6.07-3.25-11.88-6.92-17.34-11.12-5.88-4.52-10.94-9.83-14.95-16.09-8.2-12.79-8.6-25.96-1.61-39.36,3.51-6.74,8.44-12.41,14.01-17.53,1.82-1.68,3.68-3.32,5.53-4.97,2.03-1.82,3.37-4.08,4.02-6.69,2.63-10.61,6.86-20.61,11.41-30.48,6.35-13.77,14.17-26.67,23.45-38.67.78-1.01,1.64-1.96,2.46-2.94,1.21-.86,2.48-.36,3.69-.07,5.77,1.37,11.26,3.52,16.56,6.17,3.75,1.87,7.64,2.55,11.76,1.55,5.03-1.46,6.79-7.91,1.76-12.25-1.84-1.59-4-2.62-6.22-3.53-4.22-1.73-8.59-2.98-13.06-3.9-.84-.17-1.67-.38-2.57-.59.12-.32.13-.6.28-.74,8.9-8.75,18.77-16.1,30.39-20.88.66-.27,1.33-.6,2.02-.69.62-.08.4.5.38.87-.33,1.76-.33,3.52,0,5.28Z"/>
  <path class="cls-21" d="m687.07,265.75c1.22,3.79.05,7.27-1.61,10.58-1.66,3.3-3.82,6.28-6.57,8.79-1.65,1.51-3.25,3.08-4.91,4.58-.57.52-1.04,1.22-2.06,1.39-.35-.72-.15-1.52-.22-2.27-.23-2.59-.86-5.03-2.47-7.14-3-3.93-7.57-4.53-11.63-1.67-5.56,3.92-9.62,9.07-12.78,15.01-1.54,2.89-2.95,5.86-4,8.96-.39,1.15-1.01,1.81-2.22,2.22-8.92,3.06-18.06,3.94-27.41,2.95-.32-.03-.64-.07-.95-.09-4.12-.29-3.27.45-4.84-3.56-1.69-4.32-3.53-8.57-5.54-12.75-1-2.07-.94-2.04,1.2-2.58,9.09-2.29,17.82-5.59,26.21-9.75,5.6-2.77,10.98-5.9,15.91-9.76.44-.34.91-.66,1.29-1.07,1.01-1.07.86-1.55-.67-2.4.09-1.04.99-1.16,1.69-1.43,8.6-3.26,17.47-5.06,26.7-4.42,4.31.3,8.25,1.8,11.6,4.61,1.21,1.01,2.24,2.2,2.73,3.63.01-1.18-.61-2.65.55-3.82Z"/>
  <path class="cls-3" d="m644.21,313.42c.72-4.26,2.12-8.3,3.97-12.18.46-.08.72.22,1,.51,2.2,2.31,3.87,2.4,5.97.04,2.46-2.77,3.52-6.23,4.19-9.78.27-1.44-.51-2.61-1.71-3.46-.57-.41-1.36-.54-1.67-1.28.97-2.04,2.88-2.94,4.8-3.69,1.86-.72,3.27.02,4.02,1.9.81,2.07.75,4.22.43,6.38-.54,3.64-1.73,7.14-2.42,10.74-3.08,16-2.67,31.77,3.21,47.16,2.06,5.39,4.95,10.22,9.81,13.58,3.68,2.55,7.73,3.79,12.23,2.87,4.79-.98,7.93-3.87,9.54-8.47.85-2.43,1.13-4.97,1.48-7.5.44-.15.84.02,1.05.36,1.38,2.24,3.22,4.14,4.65,6.34-2.72,10.34-7.23,19.74-14.55,27.65-1.96,2.12-4.25,3.87-6.74,5.33-5.68,3.32-11.57,3.78-17.7,1.35-2.62-1.04-5.05-2.42-7.11-4.34-8.05-7.5-12.6-16.89-14.82-27.54,2.59.92,3.57,3.18,4.47,5.46,1.43,3.64,2.7,7.35,4.8,10.69,1.42,2.25,3.22,4.19,5.34,5.77,2.41,1.8,3.91,1.04,4.48-1.85.47-2.45.16-4.73-.6-7.05-1.59-4.86-3.93-9.44-5.49-14.31-.1-.3-.22-.62-.42-.86-4.42-5.23-4.62-11.78-5.45-18.06-.87-6.55-1.65-13.14-1.59-19.78.02-2.62-1.11-4.64-3.91-5.31-.46-.11-.91-.3-1.26-.66Z"/>
  <path class="cls-19" d="m704.76,356.94c-1.64-1.12-2.95-2.52-3.9-4.31-.46-.87-.79-1.91-1.79-2.4.14-2.31.29-4.61.41-6.92.54-10.35-1.8-20.12-5.93-29.53-2.31-5.27-4.94-10.38-7.75-15.39-1.1-1.96-2.51-3.7-3.92-5.43-.4-.49-.96-.86-1.12-1.7,3.14-2.57,6.04-5.51,8.35-8.93,1,.4,1.5,1.15,2.1,1.78,6.39,6.67,10.39,14.65,12.98,23.43,3.27,11.09,4.06,22.44,3.31,33.9-.34,5.23-1.04,10.47-2.73,15.5Z"/>
  <path class="cls-12" d="m644.21,313.42c3.91.21,5.63,1.87,5.83,5.78.16,3.18.13,6.37.45,9.55.72,7.22,1.41,14.43,2.99,21.53.39,1.74.95,3.37,2.2,4.7.71.76,1.32,1.63,1.65,2.62,1.79,5.46,4.3,10.64,6.12,16.09.88,2.62.02,5.03-.12,7.52-.07,1.3-1.52,1.99-2.93,1.8-.99-.13-1.79-.63-2.54-1.26-3.1-2.6-5.58-5.67-7.19-9.41-.72-1.69-1.54-3.35-2.08-5.09-.95-3.03-2.47-5.67-4.74-7.88-1.41-4.28-1.84-8.74-2.2-13.19-.87-10.66-.22-21.22,2.17-31.67.09-.38.27-.74.4-1.1Z"/>
  <path class="cls-9" d="m313.26,283.06c-1.26-4.18-.15-7.87,2.45-11.17,1.11-1.41,2.73-1.85,4.54-1.52,1.81.33,3.56.85,5.28,1.5,3.65,1.4,7.27,2.87,10.81,4.53,7.36,3.46,15.03,5.75,23.19,6.27.21.01.42.11.92.25-2.15,3.65-4.23,7.19-6.31,10.74-.84.66-1.8,1-2.87,1.06-10.09.59-19.92-.39-29.31-4.47-3.63-1.58-6.66-3.75-8.69-7.19Z"/>
  <path class="cls-21" d="m494.65,263.84c-.88-1.98-.87-1.89-3.3-1.54-4.1.6-8.22,1.03-12.32,1.61-6.11.87-12.25,1.15-18.39.83-6.51-.34-13.07-.55-19.34-2.73-6.75-2.34-11.46-6.74-14.04-13.42-.83-2.16-.92-4.35-.55-6.6.11-.71.21-1.42.32-2.12,2.06,7.4,7.48,11.21,14.36,13.43,5.9,1.9,12.02,2.58,18.17,2.82,12.2.47,24.22-1.12,36.15-3.54,2.81-.57,5.63-1.16,8.44-1.74.59-.16,1.2-.4,1.64.29-.11,1.07-1.04,1.31-1.78,1.73-1.93,1.11-3.74,2.38-5.46,3.81-2.29,1.9-2.99,4.57-3.89,7.17Z"/>
  <path class="cls-9" d="m687.07,265.75v4.8c-.9-.01-.89-.72-1.15-1.13-2.51-3.98-6.37-5.88-10.73-6.96-3.93-.98-7.95-.74-11.89-.38-6.52.6-12.79,2.47-18.93,4.71-.21.08-.38.27-.57.41-.79.32-1.59.64-2.38.96-7.4,3.26-14.68,6.8-22.02,10.18-6.29,2.58-12.78,4.53-19.42,5.96-3.99.86-4.01.79-5.98-2.69-.94-1.65-1.87-3.3-2.94-5.18,2.16-.09,4.02.34,5.92.14,11.84-1.22,23.23-4.16,34.23-8.69,7.75-3.19,15.52-6.32,23.28-9.49,4.77-1.95,9.74-3.08,14.87-3.43,4.12-.28,8.11.27,11.82,2.31,3.39,1.87,5.44,4.59,5.89,8.47Z"/>
  <path class="cls-11" d="m447.53,215.92c.95.03,1.92-.04,2.86.1,4.27.63,7.12,4.82,6.19,9.18-.7,3.28-1.95,6.37-3.74,9.23-1.38,2.21-1.33,3.45.57,5.25,2.59,2.45,5.71,4.21,8.66,6.3-.91.44-1.88-.06-2.75.28-4.89-.13-9.64-1.03-14.21-2.8-1.71-.66-3.34-1.49-4.84-2.56-3.66-2.61-4.74-5.68-3.44-9.99.34-1.13.79-2.26,1.38-3.29,2.49-4.39,5.62-8.27,9.33-11.7Z"/>
  <path class="cls-21" d="m313.26,283.06c.96.35,1.48,1.21,2.09,1.92,1.82,2.12,4.09,3.55,6.64,4.58,7.63,3.06,15.47,4.99,23.78,4.55,2.79-.15,5.59.05,8.36-.45-1.72,3.42-3.49,6.82-5.14,10.27-.53,1.11-1.27.93-2.17.8-9.29-1.29-17.69-4.76-25.25-10.31-2.74-2.02-5.01-4.47-6.71-7.42-.71-1.23-1.57-2.43-1.61-3.95Z"/>
  <path class="cls-2" d="m635.76,325.16c-.07-.9-.25-1.44-1.43-1.09-2.21.66-4.49,1.03-6.79,1.24-5.27.48-10.47.1-15.59-1.28-.38-.1-.78-.14-1.17-.2-.7-3-1.4-5.99-2.19-9.39,5.04.69,9.8,1.51,14.66,1.04,4.82-.47,9.57-1.36,14.59-2.24-.43,2.12-.71,4-1.21,5.82-.55,2.01-.18,4.12-.86,6.09Z"/>
  <path class="cls-16" d="m553.55,241.81c-.31.03-.74-.06-.93.11-3.06,2.81-7.1,3.41-10.77,4.86-.58.23-1.27.22-1.77.77.03.69.97.39,1.11.95-.58.59-1.32.6-2.02.4-5.01-1.41-10.14-1.09-15.25-1.12-1.3-.39-3.06.72-3.88-1.21,6.69-2.26,13.41-4.47,19.93-7.2,2.05-.86,4.12-1.68,6.12-2.64,1.2-.58,2.04-.41,2.94.54,1.47,1.54,3.19,2.84,4.51,4.53Z"/>
  <path class="cls-24" d="m655.96,287.26c3.42.95,4.61,2.87,3.77,6.2-.65,2.56-1.66,5-2.98,7.29-.43.75-1,1.45-1.63,2.05-2.3,2.18-4.9,1.77-6.52-.98-.12-.2-.27-.39-.41-.58,1.79-5.11,4.53-9.68,7.78-13.97Z"/>
  <path class="cls-13" d="m413.97,275.83c-2.59,1.44-5.31,1.33-8.04.59-3.17-.85-5.98-2.57-8.96-3.86-4.32-1.87-8.79-3.2-13.36-4.29-.53-.13-1.11-.06-1.66-.09.55-1.3,1.69-1.02,2.68-.91,3.33.35,6.65.84,9.91,1.6,2.56.6,5.1,1.31,7.62,2.06,2.15.64,4.18,1.52,5.81,3.19,1.64,1.68,3.78,1.91,6,1.7Z"/>
  <path class="cls-18" d="m619.4,278.33c.13-.43.51-.58.86-.77,6.54-3.35,13.13-6.59,20-9.24.36-.14.77-.12,1.16-.18-2.56,1.78-5.36,3.12-8.16,4.44-4.03,1.91-8.17,3.59-12.26,5.36-.51.22-1.02.47-1.6.37Z"/>
  <path class="cls-22" d="m507.53,249.9c2.86-.94,5.78-1.65,8.71-2.32.25.37,1.09.01,1.01.8-2.65,1.45-5.6,1.83-8.51,2.38-.52-.12-.96-.36-1.21-.86Z"/>
  <path class="cls-8" d="m517.24,248.09c-.38-.08-.78-.11-.99-.51,1.28-.29,2.44-1.02,3.8-1,1.18,1.03,2.63.13,3.9.54-2.02,1.77-4.33,1.61-6.7.97Z"/>
  <path class="cls-7" d="m507.53,249.9c.39.08.81.09,1.01.53-.67,1.15-1.61,1.51-2.86.98-.36-.61-1.02-.41-1.55-.57,1.06-.57,2.23-.75,3.4-.94Z"/>
  <path class="cls-21" d="m426.94,239.4c-.76-1.76-.75-3.52,0-5.28,0,1.76,0,3.52,0,5.28Z"/>
  <path class="cls-20" d="m638.16,360.69c.61.88.53,1.94.76,2.92-.17.24-.27.23-.29-.08-.27-.64-.85-1.11-.95-1.84.15-.34,0-.82.48-1.01Z"/>
  <path class="cls-10" d="m638.16,360.69c-.13.35-.09.78-.48,1.01-.24-.43-.67-.78-.65-1.34.51-.21.47-.74.65-1.13.46.39.4.95.47,1.47Z"/>
  <path class="cls-15" d="m638.63,363.53c.11-.01.2.01.29.08.39.19.62.48.51.93-.02.09-.25.21-.32.18-.52-.24-.54-.7-.47-1.19Z"/>
  <path class="cls-25" d="m337.78,438.97c-.18-.13-.35-.27-.53-.4.27,0,.44.15.53.4Z"/>
  <path class="cls-12" d="m560.05,297.13c1,.32,1.46,1.11,1.85,2.01,2.43,5.61,3.91,11.43,4.3,17.56.16,2.47.44,4.93.37,7.4-.28,9.44-1.51,18.73-4.57,27.72-.25.74-.68,1.45-.6,2.29.57.61,1.04.03,1.5-.13,5.05-1.83,10.24-3.2,15.62-3.15,4.37.04,8.7.77,12.91,2.15,5.28,1.72,8.29,6.51,8.78,11.73.75,8.11-2.22,15.01-6.86,21.38-4.15,5.69-8.91,10.87-13.95,15.76-6.3,6.11-12.8,12.01-20.29,16.7-7.26,4.55-14.93,8.29-22.75,11.76-7.09,3.14-14.42,5.61-21.96,7.43-5.66,1.36-11.41,2.12-17.2,2.77-4.43.49-8.89.7-13.31,1.28-.24.03-.48.04-.72.05-9.57.57-19.16.81-28.73.42-5.87-.24-11.74-.93-17.59-1.69-10.53-1.36-20.87-3.56-31.11-6.31-10.34-2.77-20.46-6.14-30.21-10.62-9.28-4.26-17.71-9.78-25.58-16.26-5.37-4.42-9.85-9.54-12.88-15.84-1.46-3.05-2.64-6.26-2.58-9.63.11-6.46,2.48-11.42,9.6-14.3,3.74-1.52,7.69-2.08,11.72-1.09.3.07.63.02.95.02,1.15.16,1.41,1.2,1.92,1.97,6.22,9.29,15.16,13.62,26.07,14.19,7.71.4,14.67-1.71,20.68-6.72,1.65-1.37,2.3-1.19,3.17.87,1.59,3.75,3.06,7.54,4.73,11.26.89,1.97,1.84,3.92,3.23,5.58.9,1.08,2.1,2.39,3.65,1.49,1.37-.8,1.39-2.45,1.07-3.9-.38-1.72-1.17-3.31-1.88-4.91-3.35-7.56-5.69-15.42-6.82-23.62-.15-1.11-.13-2.23-.15-3.35.02-.64,0-1.28.12-1.91.2-1.09.84-1.47,1.9-1.17,8.78,2.53,14.6-2.1,19.68-8.27,1.46-1.78,2.24-4.02,3.08-6.18,1.08-2.79.8-5.3-1.24-7.55-.7-2.2-.4-2.73,1.81-2.97,8.11-.89,16.22-1.54,24.38-.62,1.44.16,3.5.45,3.81-1.46.28-1.74-1.72-2.13-3.03-2.49-6.44-1.78-13-2.54-19.68-2.04-4.86.37-9.73.43-14.56,1.14-.71.11-1.44.02-2.02-.52-.54-.07-1.09-.14-1.63-.2-.23-.75.25-1.25.53-1.79,3.13-6.02,6.39-11.98,10.6-17.31,5.92-7.5,12.63-14.16,21.4-18.37,4.48-2.15,9.2-3.25,14.15-2.66,5.21.62,9.64,2.84,12.44,7.5,1.73,2.87,3.17,5.89,3.77,9.24.01.11.02.22.03.34.03.47-.04.93-.14,1.38-2.94,6.7-4.9,13.64-5.65,20.96-1.05,10.2.49,19.91,4.56,29.26,3.94,9.04,9.9,16.47,18.55,21.34,10.78,6.08,22.12,7.04,33.73,2.56,6.63-2.56,12.52-6.38,17.61-11.37,2.14-2.1,2.47-3.45,1.3-4.69-1.25-1.32-2.57-1-4.83,1.24-13.62,13.47-35.55,14.24-49.89,2.39-10.47-8.65-15.33-19.9-15.93-33.29-.65-14.36,4.59-26.5,14.07-36.84,6.6-7.2,14.75-11.82,24.8-12.72,10.74-.96,19.73,2.86,27.77,9.51,2.08,1.72,4.3,3.28,6.15,5.27Z"/>
  <path class="cls-6" d="m413.01,359.28c.52,9.47,3.34,18.35,7.03,26.99.47,1.1.97,2.19,1.43,3.3.66,1.6.77,3.26.32,4.94-.46,1.69-1.75,2.32-3.3,1.53-1.68-.86-2.9-2.19-3.77-3.89-2.45-4.77-4.63-9.65-6.47-14.68-.24-.67-.5-1.34-.73-1.95-.56-.28-.79.13-1.06.37-7.1,6.33-15.54,8.28-24.75,7.25-6.67-.74-12.59-3.41-17.8-7.68-3.02-2.48-5.26-5.55-7.14-8.93-.93-2.68-2.04-5.32-1.81-8.25.17-2.13.7-2.61,3-2.66,1.4.3,1.83,1.46,2.2,2.6,3.09,9.72,10.35,14.39,19.83,16.25,7.77,1.52,14.93.07,21.19-4.97,1.21-.97,2.51-1.95,2.86-3.65-.88-.39-1.31.24-1.8.54-13.1,8.31-27.38,4.13-33.9-10.04-5.33-11.59-4.92-23.39-.88-35.24,1.56-4.57,3.8-8.79,6.8-12.59.6-.75,1.21-1.49,1.99-2.06.89-.65,1.7-.54,2.19.44,1.22,2.42,2.83,4.14,5.79,4.37,3.54.27,6.46-.84,8.84-3.37,1.78-1.89,3.04-4.05,3.1-6.81.06-2.44.71-2.75,3.03-1.83,4.49,1.77,7.83,4.93,10.34,8.94,2.16,3.45,4.09,7.05,4.94,11.1,0,.73.18,1.42.41,2.1.15.79.38,1.58.34,2.4.24.87.46,1.75.47,2.51.08-.81-.28-1.72-.46-2.64.01-.95-.23-1.86-.47-2.77-.38-1.03-.13-2.2-.66-3.2-.65-3.93-1.08-7.9-2.21-11.74-1.49-5.05-3.67-9.77-7.54-13.4-5.66-5.31-13.87-6-20.87-2.06-3.29,1.85-6.31,4.02-8.92,6.78-1.59,1.68-3.21,3.33-4.93,4.88-.74.67-1.54,1.53-2.64.49-.53-.77-.35-1.53.09-2.24,5.57-8.95,12.93-15.62,23.56-17.79,7.48-1.53,14.06.64,19.75,5.61,4.8,4.19,8.08,9.45,10.26,15.38,2.51,6.8,4.15,13.77,3.17,21.1-.11.86.15,1.22,1,1.12.63-.07,1.29,0,1.83-.44,5.4-.57,10.81-1.04,16.24-1.29,6.42-.29,12.77.07,19.02,1.63,1,.25,1.99.58,2.95.98,1.75.73,2.53,1.81,2.26,2.96-.26,1.1-1.28,1.73-3.05,1.81-.8.03-1.6.03-2.39-.05-6.79-.67-13.56-.46-20.32.29-1.81.2-3.62.36-5.41.54-.24.95.37,1.47.61,2.1,1.5,3.27.04,5.91-1.9,8.34-2.46,3.09-5.86,4.9-9.41,6.42-3.16,1.35-6.34,2.66-9.86,2.77-.65.02-1.49.17-1.48.92,0,2.22-1.72,4.18-.89,6.5Z"/>
  <path class="cls-6" d="m560.05,297.13c-1.51-.26-2.55-1.27-3.6-2.25-3.11-2.89-6.41-5.54-10.18-7.54-12.38-6.59-24.65-6.28-36.33,1.42-12.02,7.93-19.13,19.4-21.5,33.53-2.07,12.39.22,24.08,7.6,34.43,6.11,8.55,14.32,14.16,24.83,15.72,12.11,1.81,22.79-1.4,31.66-10.05.63-.61,1.21-1.29,1.92-1.8,1.34-.95,2.87-.81,3.95.22,1.09,1.04,1.25,2.55.4,3.95-.21.34-.47.65-.75.93-7.67,7.62-16.54,13.12-27.35,14.81-11.23,1.76-21.47-1.07-30.41-8.01-9.48-7.36-15.02-17.31-17.61-28.89-3.05-13.63-1.44-26.83,4.25-39.57.19-.44.36-.88.54-1.33.26-.26.17-.69.45-.94h0c.53-.41.68-1.06,1-1.6,7.91-13.33,19.32-21.81,34.75-24.06,13.25-1.93,24.96,1.74,34.55,11.37,1.58,1.59,3.05,3.29,4,5.34,1.1,2.36.38,3.72-2.18,4.31Z"/>
  <path class="cls-12" d="m414.12,319.46c-1.17-3.49-2.51-6.91-4.48-10.04-2.06-3.28-4.51-6.21-7.86-8.27-1.49-.92-3.02-1.79-4.94-1.95.47,5.52-2.28,9.15-6.75,11.74-2.61,1.52-5.41,1.21-8.14.5-1.71-.44-2.82-1.76-3.59-3.32-.31-.64-.56-1.3-.88-2.06-1.07.63-1.7,1.55-2.38,2.4-5.37,6.64-8.27,14.34-9.5,22.71-1,6.81-.67,13.55,1.39,20.16,1.39,4.48,3.54,8.55,6.78,11.99,6.1,6.48,14.46,8.41,22.81,5.29,2.19-.82,4.19-1.95,6.1-3.28.57-.4,1.01-1.02,1.92-1.15.61,1.17.43,2.15-.44,3.19-3.42,4.09-7.79,6.61-12.96,7.64-7.59,1.51-14.82.32-21.46-3.67-4.81-2.89-8.33-6.92-10.02-12.39-.37-1.21-.72-2.46-1.76-3.34-1.18-4.65-1.58-9.42-1.82-14.18-.13-2.61.09-5.26.4-7.87.68-5.78,1.8-11.49,3.76-16.99,1.74-4.89,3.7-9.69,6.71-13.97,1.25.35,1.91-.52,2.61-1.28,2.21-2.41,4.47-4.78,6.98-6.88,3.7-3.1,7.69-5.65,12.5-6.71,5.88-1.29,11.04.1,15.51,4.11,3.03,2.73,4.99,6.17,6.51,9.9,2.06,5.07,3.03,10.38,3.44,15.81.13.69.69,1.48-.43,1.9Z"/>
  <path class="cls-6" d="m505.68,251.41c1.02-.13,1.93-.59,2.86-.98,2.9-.78,5.8-1.56,8.69-2.34,2.23-.38,4.52-.33,6.7-.97,4.05-.09,8.1-.17,12.14.38,1.73.23,3.32,1.14,5.11,1.01,1.28.44,2.56.87,3.83,1.33,1.92.69,3.54,1.81,4.7,3.52,1.02,2.55,1.99,5.12-.21,7.55-2.16,2.4-4.86,2.99-7.84,1.93-10.42-3.69-20.67-2.9-30.82,1.01-1.04.4-2.2.4-3.18.97-.96.71-1.92,1.41-2.88,2.12-4.22,3.13-8.36,1.86-10.15-3.1-.29-3.98,1.99-6.56,4.86-8.79,1.9-1.48,4.04-2.56,6.18-3.64Z"/>
  <path class="cls-16" d="m507.67,264.83c3.23-2.18,6.91-3.17,10.65-3.97,5.91-1.27,11.84-1.43,17.8-.36,1.74.31,3.38.94,5.02,1.54,1.6.59,3.2.9,4.9.42,2.94-.84,4.64-3.27,4.27-6.31-.12-.94-.39-1.86-.59-2.79,1.28,2.35,2.42,4.8,2.43,7.51.01,2.27-1.47,3.88-3.36,4.91-2.63,1.44-5.42,1.96-8.51,1.64-5.18-.54-10.15-2.03-15.27-2.84-4.46-.71-8.87-.94-13.29.07-1.34.31-2.7.16-4.06.18Z"/>
  <path class="cls-6" d="m514.3,300.66c3.31,3.16,6.86,4.18,10.87,2.08,4.87-2.54,6.51-6.74,5.81-12.24,3.84-.23,7.35.54,10.62,2.35,3.55,1.96,6.43,4.7,8.8,7.99,3.41,4.73,5.62,9.98,6.9,15.66,1.46,6.46,1.74,12.98.7,19.51-1.11,6.93-3.42,13.44-7.35,19.32-2.02,3.02-4.47,5.62-7.44,7.72-8.62,6.08-19.32,5.33-26.99-1.96-4.7-4.47-7.6-10.02-9.26-16.23-3.45-12.88-2.82-25.45,3.14-37.54,1.12-2.28,2.44-4.46,4.2-6.65Z"/>
  <path class="cls-6" d="m451.12,418.43c-1.53.05-3.03-.14-4.45-.75-2.13-.91-3.31-2.66-3.14-4.61.18-2,1.53-3.52,3.92-3.89,3.33-.51,6.53-1.37,9.63-2.69,3.46-1.47,6.79-3.15,9.81-5.41,1.15-.86,2.33-1.66,3.75-2.05,2.02-.56,3.83-.22,5.25,1.35,1.37,1.51,1.4,3.33.8,5.17-.35,1.08-.99,2.01-1.81,2.78-.87.81-1.77,1.61-2.74,2.31-5.2,3.72-11,6.06-17.22,7.41-1.26.27-2.52.36-3.8.38Z"/>
  <path class="cls-21" d="m413.01,359.28c-.87-2.45.18-4.89.05-7.33-.03-.59.48-.75,1.01-.74,6.11.1,11.24-2.68,16.32-5.58,1.83-1.04,3.32-2.49,4.53-4.21,1.51-2.14,1.69-4.59,1.63-7.09,1.91,1.54,2.3,3.64,1.76,5.83-2.3,9.26-8.32,15.35-18.2,17.63-2.02.47-3.44.1-6.73-1.21-.59.84.04,1.86-.38,2.71Z"/>
  <path class="cls-9" d="m487.92,301.77c.06.42-.07.74-.45.94-.11-.44.09-.73.45-.94Z"/>
  <path class="cls-5" d="m370.28,340.06c-.16-3.84,1.44-6.12,4.97-7.09,3.66-1,7.19.49,8.95,3.78.89,1.66,1.18,3.48,1.35,5.31.23,2.55.56,5.07,1.05,7.58.35,1.82.27,3.66-.56,5.39-1.59,3.31-5.19,4.56-8.47,2.91-2.02-1.01-3.34-2.67-4.29-4.67-1.69-3.54-2.79-8.35-2.99-13.22Z"/>
  <path class="cls-1" d="m415.5,323.84c.91,1.08.14,2.39.49,3.56-.58-1.14-.89-2.33-.98-3.58.17-.21.34-.21.49.02Z"/>
  <path class="cls-14" d="m414.12,319.46c.51-.55.1-1.31.43-1.9.59,1.05.4,2.23.53,3.36.11.48-.08.63-.54.49,0-.68-.59-1.23-.42-1.95Z"/>
  <path class="cls-4" d="m414.54,321.41c.18-.16.36-.33.54-.49.66.9.32,1.94.42,2.92-.16,0-.32-.02-.49-.02-.16-.8-.31-1.6-.47-2.41Z"/>
  <path class="cls-5" d="m530.64,345.09c.06,1.94-.12,3.84-.91,5.63-1.6,3.62-4.36,5.58-8.33,5.83-1.39.09-2.41-.39-3.29-1.51-3.85-4.89-6-10.49-7.13-16.53-.35-1.88-.47-3.8-.66-5.7-.16-1.59.39-2.69,1.48-3.79,5.63-5.69,13.73-4.08,16.6,3.4,1.56,4.06,2.03,8.35,2.24,12.67Z"/>
  <path class="cls-23" d="m537.46,337.46c-.31,1.04-.64,2.44-1.16,3.74-.35.89-1.43.98-2.18.21-1.18-1.23-1.9-2.75-1.97-4.46-.06-1.53,1.24-2.68,2.75-2.65,1.55.04,2.57,1.15,2.56,3.15Z"/>
</svg>