<?xml version="1.0" encoding="UTF-8"?>
<svg id="_图层_1" data-name="图层 1" xmlns="http://www.w3.org/2000/svg" viewBox="0 0 960 960">
  <defs>
    <style>
      .cls-1 {
        fill: #fbfdfb;
      }

      .cls-1, .cls-2, .cls-3, .cls-4, .cls-5, .cls-6, .cls-7, .cls-8, .cls-9, .cls-10, .cls-11, .cls-12 {
        stroke-width: 0px;
      }

      .cls-2 {
        fill: #454794;
      }

      .cls-3 {
        fill: #a76861;
      }

      .cls-4 {
        fill: #f6b89f;
      }

      .cls-5 {
        fill: #050404;
      }

      .cls-6 {
        fill: #a86760;
      }

      .cls-7 {
        fill: #fdd541;
      }

      .cls-8 {
        fill: #5a7dfe;
      }

      .cls-9 {
        fill: #f5b79f;
      }

      .cls-10 {
        fill: #b06b1f;
      }

      .cls-11 {
        fill: #a66760;
      }

      .cls-12 {
        fill: #f9d23f;
      }
    </style>
  </defs>
  <path class="cls-5" d="m733.22,473.29c.05-.56.06-1.12.16-1.67.46-2.65,2.49-3.68,4.97-2.56,1.28.58,2.24,1.53,3.01,2.67,1.97,2.91,4.02,5.78,5.88,8.76,5.95,9.54,7.69,19.89,5.45,30.85-2.24,10.93-8.64,18.49-19.07,22.59-.74.29-1.49.57-2.24.84-.74.27-1.49.52-2.2.76-.07.6.15,1.02.35,1.47,2.81,6.33,4.53,12.95,5.42,19.81.44,3.41,1.03,6.8,1.39,10.21.14,1.28.64,1.72,1.83,2.02,5.52,1.39,10.4,4.08,14.7,7.77,6.06,5.21,9.37,11.69,8.52,19.86-.56,5.34-2.97,9.9-6.34,13.99-3.23,3.91-7.01,7.25-11.24,10.02-1.34.88-1.71,1.81-1.63,3.33.26,4.71.63,9.42.49,14.14-.38,12.47-2.98,24.39-8.79,35.52-2.73,5.23-6.3,9.58-11.86,12.07-3.46,1.55-6.99,2.39-10.69,1.2-1.34-.43-1.71.4-2.28,1.12-4.19,5.26-9.23,9.5-15.18,12.66-2.62,1.39-5.31,2.58-8.22,3.25-1.34.31-2.68.43-4.04.39-3.72-.09-6.38-1.85-7.98-5.17-1.2-2.49-1.62-5.17-1.6-7.92.04-5.31,1.09-10.48,2.25-15.63.25-1.09.58-2.16.85-3.25.11-.43.54-.92.09-1.32-.56-.5-1.03.08-1.49.3-1.45.68-2.84,1.47-4.31,2.09-2.96,1.25-6.03,2.12-9.28,2.12-4.85,0-8.52-3.24-9.1-8.09-.22-1.84-.08-3.67.23-5.49.97-5.86,2.88-11.45,4.86-17.03,1.47-4.13,2.95-8.26,4.42-12.38-.85-.65-1.81-.83-2.69-1.18-5.19-2-10.02-4.61-14.16-8.36-4.31-3.9-7.45-8.52-8.55-14.35-.96-5.09.05-9.85,2.3-14.41,2.23-4.52,5.53-8.2,9.32-11.45,3.47-2.98,7.21-5.58,11.5-7.26,1.07-.42,1.39-1.01,1.47-2.1.76-10.89.07-21.73-1.24-32.54-.41-3.33-.86-6.66-1.6-9.93-.47-2.08-.44-2.1-2.52-2.19-3.77-.15-6.97-1.58-9.65-4.21-2.09-2.06-3.16-4.57-3.29-7.49-.18-4.17.81-8.08,2.51-11.85,2.38-5.26,5.99-9.61,10.12-13.56,1.78-1.7,2.55-1.75,4.69-.7.18.8.12,1.46-.46,2.2-1.82,2.32-3.54,4.72-5.26,7.11-2.01,2.8-3.55,5.86-4.59,9.15-.78,2.46-1.16,4.97-.82,7.55.35,2.63,2.58,4.44,5.28,4.38,1.62.47,3.16.05,4.67-.49,3.87-1.39,7.27-3.61,10.61-5.96,3.48-2.45,6.14-2.29,9.24.61,1.52,1.42,3.07,2.8,4.78,3.98,10.65,7.38,22.52,9.83,35.27,8.55,4.14-.42,8.19-1.22,12.1-2.71,6.6-2.52,11.21-6.87,13.08-13.86,1.52-5.67,1.58-11.37.24-17.04-1.15-4.85-3.24-9.3-6.3-13.27-1.01-2.68-2.71-5.06-3.35-7.9Zm-17.94,190.15c.27-.05.39-.21.34-.49.98-1.99,1.6-4.18,3.2-5.84,1.07-1.1,2.1-2.41,3.85-1.69,1.77.73,1.52,2.41,1.51,3.93-.03,2.56-1.3,4.73-2.15,7.04-.22.1-.34.25-.23.51-.07.31-.15.61-.22.92-.19.25-.43.47-.56.74-1.82,4.09-3.9,8.04-6.38,11.78-.12.18-.12.44-.24.96,6.37-1.54,10.54-5.26,12.92-11.11.39-.69.81-1.37,1.16-2.08,3.53-7.16,5.38-14.82,6.53-22.66.47-3.23,1.16-6.44.9-9.74.05-1.67.14-3.35.14-5.02,0-1.62.24-3.26,0-4.8-.35-.06-.44-.1-.51-.08-.3.11-.6.22-.89.36-16.16,7.82-33.28,10.93-51.14,10.41-1.26-.04-2.51-.52-3.78-.08-4.21-.9-8.53-1.19-12.72-2.24-1.58-.4-1.58-.31-1.97,1.37-.44,1.86-.88,3.73-1.43,5.56-1.18,3.89-2.44,7.76-3.66,11.64-1.15,3.66-2.03,7.39-2.52,11.19-.52,4.06.59,5.01,4.48,3.98,1.39-.37,2.73-.87,4.04-1.47,2.62-1.19,5.12-2.61,7.6-4.06,2.55-1.49,5.12-2.93,7.68-4.4,1.82-1.05,3.84-1.55,5.83-2.12,1.1-.31,2.24-.37,3.05.72.67.9.49,1.93-.54,3.25-1.64,2.08-3.46,3.97-5.73,5.39-.69.43-1.29.9-1.51,1.75-1.59,6.01-3.37,11.99-3.84,18.24-.21,2.86-.46,5.75.35,8.57.8,2.78,1.8,3.4,4.31,2.67.49.11.94-.08,1.4-.22,4.33-1.32,8.14-3.63,11.72-6.35,5.95-4.52,10.25-10.45,14.18-16.67,1.95-3.09,3.66-6.34,4.84-9.83v-.02Zm-11.45-35.45c.95-.05,1.88-.17,2.75-.58.24.02.48.1.71.06,10.79-1.82,21.13-5,30.62-10.57,2.95-1.73,5.86-3.57,8.16-6.17,3.45-2.76,5.83-6.31,7.39-10.39,1.82-4.76,1.39-9.39-1.28-13.77-.88-1.44-1.89-2.76-3.05-3.98-3.01-3.18-6.7-5.39-10.51-7.42-.46-.25-.9-.7-1.52-.36,0,1.59.04,3.19-.01,4.78-.03.96.12,1.52,1.22,1.93,2.08.78,2.5,2.61,1.29,4.45-.39.6-1.04,1-1.28,1.71-.44-.03-.74.24-1.06.47-4.41,3.12-9.26,5.25-14.49,6.57-5.33,1.34-10.77,2.13-16.13,3.29-2.24.02-4.41.5-6.6.88-1.86.11-3.73.18-5.59.33-1.31.1-2.65,0-3.92.48-5.91.22-11.82.34-17.73-.04-5.79-.37-11.36-1.68-16.6-4.26-1.08-.53-2.15-1.09-2.89-2.08-.57-.76-.72-1.63-.26-2.48.47-.88,1.33-1.12,2.26-.96.94.16,1.86.4,3.09.67-.39-2.82.38-5.45.37-8.51-3.16,2.09-5.9,4.11-8.38,6.47-1.55,1.48-3.15,2.94-4.17,4.88-1.47,1.42-2.3,3.24-3.04,5.07-2.38,5.83-1.69,11.32,2.42,16.11,5.05,5.89,11.79,9.03,19.15,10.99,4.72,1.73,9.66,2.37,14.62,2.91.57.35,1.22.35,1.85.39,7.1.47,14.19.19,21.27-.48.46-.04.91-.26,1.36-.39Zm20.63-41.21c1.61-.21,3.01-1.03,4.48-1.62.64-.26,1.02-.7.95-1.48-.27-2.86-.11-5.74-.36-8.62-.48-5.5-1.42-10.92-2.13-16.38-.9-6.91-2.38-13.68-4.34-20.36-.29-1-.59-1.52-1.78-1.27-1.32.28-2.69.31-4.04.44-6.08.58-12.15.41-18.11-.95-9.66-2.2-18.46-6.19-25.88-12.88-1.01-.91-1.83-1.01-2.96-.31-1.36.84-2.81,1.52-4.19,2.32-1.3.75-3.34.83-3.83,2.14-.52,1.39.64,3.02,1.04,4.55.02.07.11.12.16.17.36,2.04.75,4.08,1.07,6.12,2.11,13.55,2.83,27.18,2.26,40.87-.18,4.19.06,8.46-1.5,12.35.26.5.59.52.9.57,4.43.75,8.89,1.12,13.37.94,11.43-.46,22.8-1.63,34.03-3.85,3.67-.73,7.38-1.33,10.88-2.75Z"/>
  <path class="cls-8" d="m733.22,473.29c.63,2.84,2.34,5.22,3.35,7.9-1.09.73-1.29,1.96-1.65,3.08-1.45,4.41-3.2,8.69-5.4,12.78-2.73,5.07-6.33,9.39-11.11,12.64-8.02,5.46-16.86,7.96-26.51,6.44-4.46-.7-8.96-1.63-12.99-3.94-1.25-.72-2.49-1.44-3.75-2.12-3.79-2.04-7.28-1.55-10.67,1.07-2.34,1.81-4.4,3.93-6.62,5.87-1.66,1.45-3.68,2.53-4.99,4.38-2.71.05-4.94-1.75-5.28-4.38-.34-2.57.04-5.09.82-7.55,1.04-3.29,2.58-6.35,4.59-9.15,1.72-2.39,3.44-4.79,5.26-7.11.58-.73.64-1.4.46-2.2,6.15-5.21,13.05-9.15,20.44-12.32,10.22-4.38,20.62-8.16,31.5-10.59,7.64-1.7,14.56-.22,20.91,4.24.52.36,1.09.65,1.64.97Z"/>
  <path class="cls-4" d="m724.45,586.78c-3.5,1.43-7.21,2.03-10.88,2.75-11.23,2.23-22.59,3.39-34.03,3.85-4.49.18-8.95-.18-13.37-.94-.3-.05-.64-.07-.9-.57,1.56-3.89,1.32-8.16,1.5-12.35.57-13.69-.15-27.32-2.26-40.87-.32-2.05-.71-4.08-1.07-6.12,1.71.1,3.37-.25,4.87-.99,1.77-.87,3.22-.95,4.72.59.87.9,2.05,1.5,3.13,2.18,3.86,2.42,8.01,4.31,12.09,6.31,7.41,3.63,15.14,6.32,23.38,7.34,1.25.16,2.17.63,2.76,1.92,2.86,6.33,5.64,12.67,7.24,19.47,1.35,5.75,1.79,11.63,2.81,17.43Z"/>
  <path class="cls-9" d="m683.12,696.53c-2.51.73-3.51.11-4.31-2.67-.81-2.82-.56-5.71-.35-8.57.47-6.24,2.25-12.22,3.84-18.24.23-.86.82-1.32,1.51-1.75,2.27-1.41,4.08-3.31,5.73-5.39,1.04-1.31,1.21-2.35.54-3.25-.81-1.08-1.94-1.03-3.05-.72-1.99.57-4.01,1.07-5.83,2.12-2.56,1.47-5.13,2.91-7.68,4.4-2.48,1.45-4.98,2.86-7.6,4.06-1.31.6-2.65,1.1-4.04,1.47-3.89,1.03-5.01.07-4.48-3.98.49-3.81,1.37-7.53,2.52-11.19,1.22-3.88,2.48-7.75,3.66-11.64.55-1.83.99-3.7,1.43-5.56.4-1.68.39-1.77,1.97-1.37,4.19,1.05,8.51,1.34,12.72,2.24.18.56.69.6,1.14.73,1.98.61,3.96,1.23,5.94,1.84,8.3,2.58,16.73,3.71,25.45,2.96,6.74-.58,13.2-2.07,19.47-4.53,1.41-.55,2.67-1.45,4.17-1.79.26,3.3-.42,6.51-.9,9.74-1.15,7.85-3,15.5-6.53,22.66-.35.71-.77,1.39-1.16,2.08-.23.01-.47.03-.7.04-1.18.07-2.26,1.14-3.36.75-1.3-.47-.69-2.31-1.68-3.16.07-.31.15-.61.22-.92.26-.09.31-.27.23-.51.86-2.3,2.13-4.48,2.15-7.04.02-1.52.26-3.2-1.51-3.93-1.75-.72-2.79.58-3.85,1.69-1.6,1.66-2.22,3.84-3.2,5.84-.27.05-.38.21-.34.48v.02c-1.67.08-2.45,1.35-3.3,2.48-5.08,6.73-10.63,13.06-16.25,19.33-3.78,4.21-8.09,7.85-12.59,11.25Z"/>
  <path class="cls-2" d="m652.88,521.38c1.31-1.85,3.33-2.93,4.99-4.38,2.22-1.94,4.28-4.06,6.62-5.87,3.39-2.62,6.87-3.11,10.67-1.07,1.26.68,2.5,1.41,3.75,2.12,4.02,2.31,8.53,3.24,12.99,3.94,9.65,1.52,18.49-.98,26.51-6.44,4.78-3.25,8.38-7.57,11.11-12.64,2.2-4.09,3.96-8.37,5.4-12.78.37-1.11.56-2.34,1.65-3.08,3.06,3.97,5.15,8.42,6.3,13.27,1.34,5.68,1.28,11.37-.24,17.04-1.88,6.99-6.48,11.34-13.08,13.86-3.91,1.49-7.96,2.29-12.1,2.71-12.75,1.29-24.62-1.16-35.27-8.55-1.7-1.18-3.26-2.56-4.78-3.98-3.1-2.9-5.76-3.06-9.24-.61-3.34,2.35-6.74,4.57-10.61,5.96-1.51.54-3.05.96-4.67.49Z"/>
  <path class="cls-7" d="m679.33,628.47c-4.96-.54-9.9-1.18-14.62-2.91.48-1.58.05-3.01-.83-4.31-3.64-5.39-6.2-11.32-8.64-17.31-.9-2.22-1.88-4.4-3.18-6.42-1.4-2.18-3.23-3.73-5.87-4.13,1.02-1.94,2.62-3.4,4.17-4.88,2.48-2.36,5.22-4.38,8.38-6.47.01,3.07-.76,5.69-.37,8.51-1.23-.27-2.16-.51-3.09-.67-.93-.16-1.78.08-2.26.96-.46.85-.3,1.71.26,2.48.74.99,1.81,1.55,2.89,2.08,5.23,2.58,10.81,3.88,16.6,4.26,5.91.38,11.82.26,17.73.04,1.35.24,2.7,0,4.05-.07.98-.05,1.5.27,1.54,1.31.03.95.11,1.91.24,2.86.52,3.82.37,7.64.1,11.46-.24,3.33-.78,6.63-.81,9.99-.03,3.47.57,3.31-3.38,3.34-4.3.03-8.61-.07-12.91-.11Zm-15.43-15.8c-.03,1.87,1.78,4.86,3.42,5.64,1.96.93,4.42-.01,5.07-2.12.69-2.24.46-4.43-1.24-6.25-1.41-1.52-3.45-1.98-5.24-1.24-1.82.75-1.96,2.33-2.01,3.97Z"/>
  <path class="cls-10" d="m706.61,598.01c5.36-1.16,10.8-1.95,16.13-3.29,5.23-1.32,10.08-3.45,14.49-6.57.32-.23.63-.5,1.06-.47,2.4,1.46,3.36,3.95,4.33,6.35,2.16,5.34,2.99,10.99,3.43,16.7-2.31,2.6-5.21,4.44-8.16,6.17-9.49,5.57-19.82,8.75-30.62,10.57-.23.04-.47-.04-.71-.06.25-3.72.41-7.44.77-11.15.26-2.7.27-5.37.02-8.07-.32-3.39-.5-6.79-.74-10.18Z"/>
  <path class="cls-3" d="m724.45,586.78c-1.02-5.8-1.46-11.69-2.81-17.43-1.59-6.8-4.38-13.14-7.24-19.47-.58-1.29-1.51-1.76-2.76-1.92-8.24-1.02-15.97-3.71-23.38-7.34-4.08-2-8.23-3.89-12.09-6.31-1.08-.68-2.26-1.28-3.13-2.18-1.49-1.54-2.95-1.46-4.72-.59-1.5.74-3.16,1.09-4.87.99-.06-.06-.14-.11-.16-.17-.39-1.53-1.56-3.16-1.04-4.55.5-1.31,2.54-1.39,3.83-2.14,1.38-.8,2.84-1.48,4.19-2.32,1.13-.7,1.95-.6,2.96.31,7.42,6.69,16.23,10.68,25.88,12.88,5.97,1.36,12.03,1.53,18.11.95,1.35-.13,2.72-.16,4.04-.44,1.2-.25,1.49.26,1.78,1.27,1.96,6.68,3.43,13.45,4.34,20.36.71,5.46,1.65,10.89,2.13,16.38.25,2.87.08,5.75.36,8.62.07.78-.31,1.22-.95,1.48-1.48.59-2.87,1.41-4.48,1.62Z"/>
  <path class="cls-3" d="m735.88,635.72c-1.5.35-2.76,1.24-4.17,1.79-6.27,2.46-12.74,3.95-19.47,4.53-8.72.75-17.15-.38-25.45-2.96-1.98-.62-3.96-1.23-5.94-1.84-.45-.14-.96-.17-1.14-.73,1.27-.44,2.52.04,3.78.08,17.86.52,34.98-2.6,51.14-10.41.29-.14.59-.25.89-.36.06-.02.15.02.51.08.25,1.54,0,3.18,0,4.8,0,1.67-.09,3.35-.14,5.02Z"/>
  <path class="cls-1" d="m646.2,593.38c2.64.41,4.46,1.96,5.87,4.13,1.3,2.02,2.28,4.2,3.18,6.42,2.43,5.99,5,11.92,8.64,17.31.88,1.3,1.32,2.73.83,4.31-7.36-1.96-14.09-5.1-19.15-10.99-4.11-4.79-4.79-10.28-2.42-16.11.75-1.83,1.57-3.66,3.04-5.07Z"/>
  <path class="cls-12" d="m746.06,610.74c-.44-5.71-1.27-11.36-3.43-16.7-.97-2.4-1.92-4.89-4.33-6.35.23-.72.88-1.12,1.28-1.71,1.22-1.84.79-3.67-1.29-4.45-1.1-.41-1.25-.97-1.22-1.93.05-1.59.01-3.18.01-4.78.62-.35,1.06.11,1.52.36,3.81,2.04,7.5,4.25,10.51,7.42,1.16,1.22,2.18,2.54,3.05,3.98,2.67,4.39,3.09,9.01,1.28,13.77-1.56,4.08-3.94,7.63-7.39,10.39Z"/>
  <path class="cls-7" d="m706.61,598.01c.24,3.4.43,6.8.74,10.18.25,2.7.24,5.37-.02,8.07-.36,3.71-.52,7.43-.77,11.15-.87.41-1.8.53-2.75.58-.87.01-1.75.02-2.62.04q-1.73.04-1.38-1.72c1.27-6.51,1.88-13.08,1.55-19.7-.13-2.61-.35-5.24-1.35-7.71,2.19-.38,4.36-.86,6.6-.88Z"/>
  <path class="cls-10" d="m700.02,598.89c1,2.47,1.22,5.11,1.35,7.71.33,6.62-.28,13.19-1.55,19.7q-.35,1.77,1.38,1.72c.87-.02,1.75-.03,2.62-.04-.45.13-.9.35-1.36.39-7.08.67-14.17.95-21.27.48-.63-.04-1.28-.04-1.86-.39,4.3.04,8.61.14,12.91.11,3.95-.03,3.35.12,3.38-3.34.03-3.35.57-6.66.81-9.99.27-3.82.42-7.64-.1-11.46-.13-.95-.2-1.9-.24-2.86-.04-1.04-.55-1.36-1.54-1.31-1.35.07-2.7.31-4.05.07,1.27-.47,2.61-.38,3.92-.48,1.86-.14,3.72-.22,5.59-.33Z"/>
  <path class="cls-6" d="m683.12,696.53c4.51-3.4,8.82-7.04,12.59-11.25,5.62-6.27,11.18-12.6,16.25-19.33.86-1.14,1.63-2.4,3.29-2.48-1.18,3.49-2.88,6.74-4.84,9.83-3.93,6.22-8.24,12.16-14.18,16.67-3.58,2.72-7.38,5.02-11.72,6.35-.46.14-.9.33-1.4.22Z"/>
  <path class="cls-11" d="m721.56,667.83c.99.85.38,2.7,1.68,3.16,1.1.39,2.18-.68,3.36-.75.23-.01.47-.03.7-.04-2.37,5.85-6.54,9.57-12.92,11.11.13-.52.12-.78.24-.96,2.47-3.74,4.56-7.69,6.38-11.78.12-.28.37-.5.56-.74Z"/>
  <path class="cls-6" d="m715.27,663.44c-.04-.27.07-.43.34-.48.05.27-.07.43-.34.48Z"/>
  <path class="cls-11" d="m722.01,666.4c.08.24.03.42-.23.51-.11-.25,0-.41.23-.51Z"/>
  <path class="cls-1" d="m663.9,612.66c.05-1.64.19-3.23,2.01-3.97,1.8-.74,3.84-.28,5.24,1.24,1.69,1.82,1.93,4.01,1.24,6.25-.65,2.11-3.11,3.05-5.07,2.12-1.64-.78-3.45-3.76-3.42-5.64Z"/>
</svg>