<?xml version="1.0" encoding="UTF-8"?>
<svg id="_图层_1" data-name="图层 1" xmlns="http://www.w3.org/2000/svg" viewBox="0 0 960 960">
  <defs>
    <style>
      .cls-1 {
        fill: #454794;
      }

      .cls-1, .cls-2, .cls-3, .cls-4, .cls-5, .cls-6, .cls-7, .cls-8, .cls-9 {
        stroke-width: 0px;
      }

      .cls-2 {
        fill: #040404;
      }

      .cls-3 {
        fill: #a66861;
      }

      .cls-4 {
        fill: #f6b89f;
      }

      .cls-5 {
        fill: #5b7dfe;
      }

      .cls-6 {
        fill: #050404;
      }

      .cls-7 {
        fill: #a66860;
      }

      .cls-8 {
        fill: #454795;
      }

      .cls-9 {
        fill: #6f5172;
      }
    </style>
  </defs>
  <path class="cls-2" d="m382.03,742.63c.34.16.59.4,1.02.49,2.56.5,3.54,2.61,2.16,4.79-1.21,1.9-2.77,3.54-4.78,4.62-11.34,6.1-23.24,8.88-36.03,5.68-1.34-.33-2.06-.06-2.73,1.08-.77,1.31-1.71,2.5-2.54,3.77-.84,1.28-.98,2.62-.51,4.11.79,2.52,1.71,4.98,2.68,7.43,1.5,3.78,3.03,7.56,4.49,11.36,2.14,5.57.95,8.41-4.45,10.98-3.22,1.53-6.64,2.27-10.14,2.71-9.35,1.18-18.63,2.87-27.96,4.18-5.37.76-10.81,1.11-16.21,1.64-4.13.41-8.26.86-12.4,1.24-3.02.28-6.06.56-9.06-.19-3.19-.79-5.92-2.19-6.68-5.73-.72-3.36,1.19-5.62,3.55-7.58,1.23-1.02,2.55-1.93,3.82-2.89.58-.44.59-.88.03-1.35-.55-.46-1.11-.92-1.66-1.38-6.87-5.77-13.33-11.93-18.75-19.13-3.11-4.14-5.58-8.54-6.63-13.67-.99-4.84-.72-9.53,1.44-14.03,2.71-5.64,5.92-10.97,9.92-15.78,4.91-5.9,9.95-11.68,15.69-16.8.64-.57,1.34-1,1.03-2.16-1.23-4.59-.53-9.21.08-13.81.51-3.88,1.27-7.73,2.81-11.36.72-1.69,1.53-3.34,2.7-4.78.69-.86,1.54-1.39,2.71-1.13,1.19.27,1.33,1.24,1.44,2.21-1.74,3.46-2.63,7.14-2.93,10.99-.3,3.91-.35,7.81.28,11.69.36,2.21.87,4.42,3.15,5.59,3.18,4.08,7.44,6.14,12.5,6.56,3.3.27,6.53-.34,9.69-1.21,3.31-.91,6.58-1.96,9.9-2.8,4.37-1.11,8.12.65,10.05,4.79,1.59,3.41,2.9,6.92,4.07,10.48,1.14,3.46,2.84,6.59,5.15,9.39,1.47,1.79,2.96,3.55,4.46,5.32,5.76,6.84,13.05,10.18,22.05,10.1,6.01-.05,11.71-1.36,17.27-3.45,3.01-1.13,6.06-1.98,9.29-2.01Zm-52.87,21.62c.47-1.84.82-3.72,1.81-5.39.81-1.38,1.67-2.72,2.78-3.89.65-.69.61-1.18-.2-1.7-.94-.61-1.88-1.22-2.7-1.97-8.13-7.47-15.33-15.6-18.63-26.47-.21-.68-.52-1.34-.79-2.01-.74-1.84-.75-1.85-2.56-1.32-3.61,1.03-7.24,1.85-11.01,2.14-10.22.79-18.78-2.68-25.94-9.85-1.77-1.77-1.71-1.84-3.32-.04-.16.18-.28.38-.42.57-5.04,5.45-9.85,11.09-14.33,17-2.81,3.7-5.05,7.75-6.93,12.01-1.5,3.38-1.64,6.78-.58,10.28.91,3.01,2.24,5.81,4.11,8.34,3.19,4.31,6.61,8.42,10.54,12.08,3.92,3.64,7.84,7.29,12,10.66,3.67,2.97,3.74,6.52.33,9.82-1.21,1.17-2.62,2.08-3.99,3.06-.41.29-1.08.41-1.02,1.39,1.42-.13,2.82-.21,4.21-.39,2.93-.38,5.85-.83,8.78-1.21,7.29-.93,14.61-1.66,21.86-2.8,9.7-1.53,19.36-3.35,29.12-4.45,1.88-.21,3.79-.51,5.45-1.53.02-.91-.43-1.6-.71-2.34-1.64-4.33-3.49-8.58-5.38-12.8-1.31-2.92-2.49-5.89-2.47-9.18Z"/>
  <path class="cls-6" d="m717.77,695.59c1.03.34,1.54,1.18,1.71,2.14.51,2.83.84,5.62-.08,8.51-1.27,3.98-2.78,7.82-4.88,11.42-.42.73-.67,1.31-.02,2.12,4.4,5.59,8.71,11.25,14.42,15.64,2.03,1.56,4.12,3.02,6.27,4.4,1.71,1.09,3.11,2.46,4.24,4.16,3.75,5.66,7.6,11.25,11.33,16.93,4.48,6.82,9.24,13.42,14.41,19.73,2.43,2.97,4.74,6.03,6.94,9.17,1.46,2.1,2.85,4.25,3.79,6.64,2.26,5.71-.75,10.01-6.9,9.74-4.09-.18-8.1-.92-11.9-2.51-3.75-1.57-7.55-3.05-11.13-5-1.5-.82-2.95-1.01-4.59-.53-5.29,1.56-10.66,2.68-16.18,3.22-7.34.72-14.49,0-21.61-1.8-7.74-1.96-14.92-5.21-21.68-9.38-13.75-8.49-26.96-17.72-38.87-28.72-6.43-5.94-11.96-12.67-17.08-19.72-1.65-2.27-3.11-4.2-6.02-4.78-1.72-.34-3.21-1.44-4.53-2.61-4.99-4.46-8.56-9.87-10.63-16.24-.54-1.67-.94-3.41.06-5.1,1.98-.51,2.35-.38,3.11,1.4,1.1,2.56,2.09,5.17,4.21,7.11.98,2.39,3.01,3.91,4.89,5.45,4.66,3.81,10.41,3.76,15.24.13,2.12-1.59,3.9-3.55,5.8-5.37,4.47-4.27,7.16-4.59,12.35-1.34,3.12,1.96,6.38,3.64,9.69,5.24,5.36,2.58,11.04,3.55,16.94,3.71,5.14.14,9.96-1.23,14.74-2.81,4.75-1.57,8.87-4.21,11.91-8.14,3.38-4.36,6.14-9.15,7.81-14.47.88-2.82,1.8-5.62,3.41-8.14.4-.13.81-.26,1.21-.39.51.17,1.03.3,1.58.17Zm.51,40.69c-2.81-2.95-5.54-5.96-7.99-9.22-1.22-1.62-1.21-1.62-2.83-.21-4.26,3.7-8.89,6.75-14.21,8.75-5.92,2.23-12.02,3.37-18.32,2.93-9.26-.64-17.77-3.74-25.75-8.4-1.23-.72-2.42-2.09-3.73-1.97-1.45.13-2.29,1.85-3.35,2.91-3.1,3.09-6.53,5.64-10.78,6.92-.11.03-.18.22-.39.49,2.17,2.36,4.37,4.76,6.56,7.15,3.07,3.9,6.4,7.54,10.06,10.9,8.39,7.71,17.77,14.09,27.32,20.22,6.25,4.01,12.55,7.98,19.5,10.73,9.58,3.78,19.45,5.54,29.8,4.32,5.49-.65,10.93-1.44,16.23-3.01,3.14-.93,5.99-.45,8.67,1.37.53.36,1.06.71,1.62,1.02,4.35,2.35,8.62,4.89,13.38,6.37,1.06.33,2.15.86,3.53.58-1.8-3.26-3.79-6.15-5.88-8.97-8.11-11-15.94-22.19-23.44-33.62-1.32-2-2.73-3.94-4.11-5.9-.65-.92-1.33-1.81-2.3-2.41-5-3.08-9.34-6.96-13.6-10.96Z"/>
  <path class="cls-5" d="m277.59,705.46c-2.27-1.17-2.79-3.38-3.15-5.59-.63-3.87-.58-7.78-.28-11.69.3-3.85,1.19-7.53,2.93-10.99,4.44-2.56,9.15-2.4,13.95-1.43,6.23,1.25,11.99,3.77,17.8,6.26,13.04,5.59,24.47,13.67,35.71,22.17,8.81,6.67,17.22,13.74,24.66,21.92,3.33,3.66,6.77,7.23,9.84,11.12.82,1.05,1.82,2.03,1.96,3.48-2.44-1.91-4.95-3.7-7.6-5.32-4.13-2.52-8.43-4.53-13.24-5.29-7.1-1.13-13.7-3.68-19.99-7.07-4.04-2.18-7.63-4.9-10.46-8.61-1.5-1.96-3.13-3.82-4.87-5.6-3.04-3.11-6.75-4.36-10.98-4.53-5.13-.22-10.17.79-15.26,1.16-5.84.42-11.65.27-17.48.23-1.17,0-2.32-.69-3.53-.21Z"/>
  <path class="cls-5" d="m716.19,695.43c-.4.13-.81.26-1.21.39-.67-.51-1.44-.61-2.26-.63-3.56-.1-6.77.97-9.65,2.99-1.69,1.19-3.25,2.56-4.88,3.84-4.43,3.51-8.84,7.03-14.1,9.33-6.44,2.82-13.15,4.23-20.14,4.48-5.43.2-10.81-.65-16.24-.6-3.28.03-6.28.68-9.17,2.23-1.75.94-3.38,2.09-5.28,2.78-6.51,2.36-13.1,3.33-19.9,1.37-.37-.11-.79-.04-1.19-.06-2.12-1.95-3.12-4.56-4.21-7.11-.76-1.78-1.13-1.91-3.11-1.4.09-4.25,2.39-7.21,5.77-9.35,5.23-3.32,10.9-5.71,16.96-7.01,8.89-1.91,17.86-3.4,26.91-4.43,10.48-1.19,21-1.74,31.54-1.64,8.46.08,16.91.59,25.24,2.24,1.87.37,3.82.59,5.16,2.21-.13.09-.21.22-.23.36Z"/>
  <path class="cls-8" d="m277.59,705.46c1.21-.48,2.36.2,3.53.21,5.83.05,11.64.2,17.48-.23,5.09-.37,10.12-1.38,15.26-1.16,4.23.18,7.94,1.43,10.98,4.53,1.74,1.78,3.37,3.63,4.87,5.6,2.82,3.7,6.42,6.43,10.46,8.61,6.29,3.39,12.89,5.94,19.99,7.07,4.81.76,9.11,2.77,13.24,5.29,2.65,1.62,5.17,3.41,7.6,5.32,0,0-.04,0-.04,0-.02.31.13.49.43.55,0,0-.01-.02-.01-.02-.08.46.1.8.48,1.04.06.12.12.23.17.36-3.24.03-6.28.88-9.29,2.01-5.56,2.09-11.25,3.4-17.27,3.45-9,.08-16.29-3.26-22.05-10.1-1.49-1.77-2.99-3.54-4.46-5.32-2.31-2.81-4.01-5.94-5.15-9.39-1.17-3.56-2.48-7.07-4.07-10.48-1.94-4.15-5.68-5.9-10.05-4.79-3.32.84-6.59,1.89-9.9,2.8-3.17.87-6.4,1.48-9.69,1.21-5.07-.42-9.33-2.48-12.5-6.56Z"/>
  <path class="cls-9" d="m716.19,695.43c.02-.15.1-.27.23-.36.48.11,1.04,0,1.35.53-.55.13-1.07,0-1.58-.17Z"/>
  <path class="cls-5" d="m381.87,742.27c-.38-.24-.57-.58-.48-1.04.45.21.61.56.48,1.04Z"/>
  <path class="cls-5" d="m381.4,741.25c-.31-.06-.45-.24-.43-.55.34.03.45.24.43.55Z"/>
  <path class="cls-4" d="m329.16,764.25c-.02,3.29,1.16,6.26,2.47,9.18,1.9,4.23,3.75,8.47,5.38,12.8.28.74.73,1.43.71,2.34-1.65,1.02-3.57,1.32-5.45,1.53-9.77,1.11-19.42,2.92-29.12,4.45-7.25,1.14-14.57,1.87-21.86,2.8-2.93.37-5.85.83-8.78,1.21-1.39.18-2.8.26-4.21.39-.06-.98.61-1.1,1.02-1.39,1.36-.98,2.78-1.89,3.99-3.06,3.4-3.3,3.34-6.85-.33-9.82-4.17-3.37-8.08-7.02-12-10.66-3.94-3.66-7.35-7.77-10.54-12.08-1.87-2.53-3.2-5.32-4.11-8.34-1.06-3.51-.91-6.9.58-10.28,1.89-4.25,4.12-8.31,6.93-12.01,4.49-5.91,9.3-11.55,14.33-17,1.51,2.48,3.52,4.54,5.69,6.42,5.73,4.95,12.31,7.83,19.99,8.05,3.13.09,6.23-.18,9.28-.68,1.41-.23,1.88.28,2.3,1.35,1.42,3.65,3.24,7.11,4.84,10.68,2.72,6.08,6.12,11.73,10.24,16.94,2.37,3,4.61,6.18,8.65,7.17Z"/>
  <path class="cls-7" d="m329.16,764.25c-4.04-.99-6.28-4.18-8.65-7.17-4.12-5.21-7.52-10.87-10.24-16.94-1.6-3.57-3.42-7.03-4.84-10.68-.42-1.07-.88-1.58-2.3-1.35-3.06.5-6.16.76-9.28.68-7.68-.21-14.26-3.09-19.99-8.05-2.17-1.88-4.18-3.94-5.69-6.42.14-.19.26-.4.42-.57,1.62-1.8,1.55-1.73,3.32.04,7.16,7.17,15.72,10.64,25.94,9.85,3.77-.29,7.4-1.1,11.01-2.14,1.82-.52,1.82-.51,2.56,1.32.27.67.58,1.32.79,2.01,3.3,10.87,10.51,19,18.63,26.47.82.75,1.77,1.37,2.7,1.97.81.53.86,1.02.2,1.7-1.11,1.16-1.97,2.51-2.78,3.89-.99,1.67-1.34,3.55-1.81,5.39Z"/>
  <path class="cls-4" d="m718.28,736.29c4.25,4,8.6,7.88,13.6,10.96.97.6,1.66,1.49,2.3,2.41,1.38,1.96,2.8,3.9,4.11,5.9,7.5,11.42,15.33,22.62,23.44,33.62,2.08,2.82,4.08,5.71,5.88,8.97-1.38.28-2.47-.25-3.53-.58-4.76-1.48-9.03-4.02-13.38-6.37-.56-.3-1.1-.66-1.62-1.02-2.68-1.82-5.53-2.3-8.67-1.37-5.3,1.57-10.74,2.36-16.23,3.01-10.35,1.23-20.21-.53-29.8-4.32-6.95-2.74-13.24-6.72-19.5-10.73-9.55-6.13-18.93-12.51-27.32-20.22-3.66-3.36-7-7-10.06-10.9,3.4-2.42,6.42-5.22,8.89-8.61.71-.98,1.5-1.14,2.68-.71,7.66,2.8,15.53,4.8,23.57,6.14,5.51.92,10.99,1.9,16.62,1.72,2.95-.1,5.89-.1,8.83-.48,6.66-.85,12.95-2.65,18.53-6.52.52-.36,1.01-.79,1.67-.9Z"/>
  <path class="cls-1" d="m612.17,721.55c.4.01.82-.05,1.19.06,6.8,1.96,13.39.99,19.9-1.37,1.9-.69,3.53-1.84,5.28-2.78,2.89-1.56,5.89-2.21,9.17-2.23,5.43-.05,10.81.8,16.24.6,7-.26,13.7-1.66,20.14-4.48,5.26-2.3,9.66-5.82,14.1-9.33,1.62-1.28,3.19-2.66,4.88-3.84,2.88-2.02,6.09-3.09,9.65-2.99.82.02,1.59.12,2.26.63-1.61,2.51-2.53,5.32-3.41,8.14-1.67,5.33-4.43,10.11-7.81,14.47-3.04,3.92-7.17,6.57-11.91,8.14-4.79,1.58-9.61,2.95-14.74,2.81-5.9-.16-11.58-1.14-16.94-3.71-3.32-1.59-6.57-3.28-9.69-5.24-5.19-3.25-7.88-2.93-12.35,1.34-1.91,1.82-3.68,3.78-5.8,5.37-4.84,3.63-10.58,3.68-15.24-.13-1.88-1.54-3.91-3.05-4.89-5.45Z"/>
  <path class="cls-3" d="m718.28,736.29c-.66.11-1.14.54-1.67.9-5.58,3.87-11.87,5.67-18.53,6.52-2.95.38-5.88.38-8.83.48-5.62.18-11.11-.79-16.62-1.72-8.04-1.35-15.91-3.34-23.57-6.14-1.18-.43-1.97-.27-2.68.71-2.46,3.39-5.49,6.19-8.89,8.61-2.2-2.39-4.39-4.78-6.56-7.15.2-.27.27-.46.39-.49,4.26-1.28,7.68-3.83,10.78-6.92,1.06-1.06,1.9-2.78,3.35-2.91,1.31-.11,2.49,1.25,3.73,1.97,7.98,4.66,16.49,7.76,25.75,8.4,6.3.43,12.4-.71,18.32-2.93,5.32-2,9.95-5.06,14.21-8.75,1.62-1.41,1.61-1.41,2.83.21,2.46,3.25,5.19,6.27,7.99,9.22Z"/>
</svg>