<?xml version="1.0" encoding="UTF-8"?>
<svg id="_图层_1" data-name="图层 1" xmlns="http://www.w3.org/2000/svg" viewBox="0 0 960 960">
  <defs>
    <style>
      .cls-1 {
        fill: #fefefe;
      }

      .cls-1, .cls-2, .cls-3, .cls-4, .cls-5, .cls-6, .cls-7, .cls-8, .cls-9, .cls-10, .cls-11, .cls-12, .cls-13, .cls-14, .cls-15, .cls-16, .cls-17, .cls-18, .cls-19, .cls-20, .cls-21, .cls-22 {
        stroke-width: 0px;
      }

      .cls-2 {
        fill: #fdfefe;
      }

      .cls-3 {
        fill: #a6665f;
      }

      .cls-4 {
        fill: #d7dddd;
      }

      .cls-5 {
        fill: #6c5247;
      }

      .cls-6 {
        fill: #f7b9a0;
      }

      .cls-7 {
        fill: #838989;
      }

      .cls-9 {
        fill: #a86961;
      }

      .cls-10 {
        fill: #466af6;
      }

      .cls-11 {
        fill: #a86861;
      }

      .cls-12 {
        fill: #b16b1f;
      }

      .cls-13 {
        fill: #fff;
      }

      .cls-14 {
        fill: #939090;
      }

      .cls-15 {
        fill: #b7ceff;
      }

      .cls-16 {
        fill: #cacfcf;
      }

      .cls-17 {
        fill: #454795;
      }

      .cls-18 {
        fill: #ffd741;
      }

      .cls-19 {
        fill: #a96861;
      }

      .cls-20 {
        fill: #fffffe;
      }

      .cls-21 {
        fill: #b08a77;
      }

      .cls-22 {
        fill: #5a7dff;
      }
    </style>
  </defs>
  <path class="cls-8" d="m712.79,319.94c-1.55-10.78-4.8-20.99-10.56-30.32-2.54-4.12-5.53-7.85-9.52-10.64-1.07-.75-1.14-1.41-.69-2.55,1.51-3.8,1.7-7.78,1.22-11.8-.75-6.26-3.67-11.04-9.22-14.32-4.98-2.95-10.32-3.71-15.91-3.4-6.04.34-11.79,1.98-17.39,4.2-10.53,4.18-21,8.56-31.64,12.43-9.77,3.56-19.78,6.25-30.36,6.08-1.67-.03-2.57-.59-3.44-1.92-4.28-6.56-8.82-12.94-13.97-18.87-4.93-5.68-9.99-11.23-16.37-15.38-.11-.07-.14-.27-.25-.51.58-.36,1.16-.74,1.75-1.09,2.88-1.72,5.7-3.55,8.35-5.61,2.12-1.65,2.3-2.68,1.17-5.16-.97-1.83-2.5-1.42-3.96-.9-4.89,1.75-9.67,3.78-14.39,5.93-17.66,8.07-35.97,14.06-55.09,17.54-11.29,2.08-22.69,2.72-34.13,2.16-5.76-.28-11.46-1.37-16.49-4.5-5.1-3.17-6.09-6.73-3.55-12.22,1.7-3.67,4.16-6.81,6.9-9.75,2.02-2.44,4.14-4.79,6.4-7.01.7-.69,1.58-1.46.76-2.65-1.32-1.24-2.56-.41-3.72.24-6.62,3.72-12.49,8.33-17.05,14.48-.63.85-1.2,1.51-2.41,1.7-7.44,1.14-14.27,4.01-20.75,7.75-9.69,5.6-18.22,12.67-25.94,20.75-6.09,6.37-11.63,13.2-16.62,20.45-.97,1.4-1.97,1.77-3.57,1.59-3.34-.38-6.65-.91-9.93-1.6-5.19-1.08-10.05-3.08-14.83-5.35-4.83-2.29-9.71-4.53-14.99-5.64-5.28-1.11-9.83.7-12.52,5.36-3.34,5.81-3.99,11.91-.8,18.07,2.47,4.78,5.96,8.67,10.39,11.72,7.05,4.87,14.66,8.4,23.19,9.82,1.11.18,2.39.1,3.27.95-1.41,3.69-2.82,7.26-4.13,10.86-1.95,5.33-3.67,10.73-5.32,16.16-.3.99-.67,1.84-1.68,2.47-6.94,4.28-12.82,9.79-18.03,16.01-3.56,4.25-6.49,8.92-8.73,14-5.06,11.46-5.38,23.05-.91,34.76,2.27,5.96,5.52,11.34,9.55,16.26,3.35,4.1,7.16,7.74,11.17,11.19,4.56,3.92,9.5,7.31,14.51,10.6,1.58,1.36,3.26,2.58,5.1,3.56,6.58,3.48,13.33,6.59,20.28,9.26,14.23,5.45,28.91,9.27,43.89,12,16.38,2.98,32.88,4.88,49.52,5.11,8.54.12,17.09.23,25.64-.32,6.94-.45,13.87-.9,20.77-1.68,22.4-2.54,44.34-7.17,65.59-14.82,7.59-2.73,15.2-5.46,22.11-9.74,2.89-2.01,6.09-3.48,9.12-5.23,8.41-4.84,16.22-10.44,23-17.42,4.08-4.2,7.54-8.85,10.4-13.96,4.72-8.44,6.84-17.46,6.28-27.11-.42-.99-.11-2.02-.2-3.03.1-.35-.23-.65-.11-1.02.19.27.47.47.74.67,2.16,4.1,4.92,7.79,7.79,11.4,1.32,2.84,3.95,4.36,6.33,6.03,6.4,4.49,13.5,5.85,21.16,4.12,8.41-1.9,14.31-7.4,19.62-13.72,1.85-2.2,3.35-4.63,4.22-7.41,1.26-2.85,2.71-5.62,3.74-8.55,5.77-16.41,7.69-33.24,5.21-50.5Zm-75.15,41.77c-4.9-7.76-10.87-14.52-18.51-19.72-2.17-1.48-4.25-3.09-6.42-4.57-.93-.64-1.39-1.25-1.25-2.52.38-3.59-.31-7.14-.79-10.69-.28-1.28.67-1.21,1.44-1.24.79-.03,1.59.05,2.37.16,6.28.9,12.49.14,18.71-.63,2.59-.32,2.8-.05,2.6,2.68-1.35,11.83-.68,23.53,2.21,35.09.08.31.11.63.16.94.14.5-.07.62-.52.5Zm56.27-17.62c-.25,3.19-.38,6.38-1.02,9.52-.24,1.18-.61,2.32-1.08,3.42-1.58,3.66-4.89,5.27-8.77,4.34-1.91-.46-3.57-1.33-5.05-2.61-3.3-2.84-5.45-6.47-7.03-10.43-3.24-8.09-5.08-16.47-4.89-25.79-.08-7.84,1.56-15.95,4.28-23.86.23-.68.4-1.36,1.25-1.59,1.56-.42,2.92-1.29,4.25-2.17.8-.53,1.26-.33,1.79.34,1.13,1.45,2.28,2.9,3.13,4.53,3.97,7.65,8.11,15.22,10.7,23.51,2.12,6.8,3.02,13.7,2.46,20.81Z"/>
  <path class="cls-22" d="m445.17,218.65c1.57-2.24,3.7-3.94,5.54-5.93.8-.87,1.76-1.66,1.73-3.02,5.54-2.43,11.39-3.65,17.35-4.38,10.72-1.31,21.5-1.6,32.27-2.09,7.84-.36,15.67-.16,23.48.3,10.54.63,20.97,2.16,30.92,6.02,2.55.99,5.02,2.1,6.93,4.15,1.94,2.09,3.04,4.47,2.6,7.4-1.49-.96-2.97-.79-4.53-.12-5.12,2.21-10.29,4.3-15.38,6.58-16.65,7.45-33.9,12.96-51.8,16.49-.46.09-.95.08-1.42.11-2.38-.88-4.85-.76-7.32-.76-8.37.02-16.53-1.23-24.37-4.18-5.14-1.93-9.87-4.55-13.03-9.28-2.28-3.4-3.54-7.12-2.96-11.29Z"/>
  <path class="cls-17" d="m342.57,442.3c4.25,2.19,8.37,4.62,12.7,6.66,13.56,6.38,27.69,11.1,42.28,14.49,10.96,2.54,22.03,4.51,33.2,5.85,7.53.9,15.08,1.5,22.65,1.97,9.9.62,19.81.55,29.7.19,10.12-.36,20.21-1.3,30.27-2.62,20.64-2.71,40.82-7.27,60.44-14.27,6.85-2.44,13.52-5.31,20.09-8.43.5-.24.96-.61,1.57-.47-.46.98-1.38,1.53-2.16,2.18-3.68,3.08-7.43,6.06-11.08,9.16-8.52,7.25-18.5,11.93-28.68,16.21-18.61,7.83-38.03,12.55-58.07,14.8-10.42,1.17-20.87,1.64-31.34,1.32-30.99-.96-60.64-7.46-88.44-21.54-4.21-2.13-8.28-4.5-12.3-6.96-8.05-4.94-14.85-11.27-20.83-18.54Z"/>
  <path class="cls-17" d="m652.51,389.96c1.8,1.56,3.54,3.21,5.43,4.67,10.03,7.79,22.36,7.23,32.22.14,5.32-3.82,9.52-8.7,12.75-14.42.27-.48.41-1.05.93-1.36-.9,9.22-4.55,17.15-11.65,23.16-11.86,10.04-30.6,6.6-37.9-6.8-.92-1.68-1.74-3.41-1.78-5.39Z"/>
  <path class="cls-16" d="m644.32,377.57c.14.33.47.58.4,1-.83,1.04.04,2.3-.43,3.38-.49-1.06-.38-2.22-.53-3.34-.13-.52-.36-1.09.56-1.04Z"/>
  <path class="cls-6" d="m552.25,240.72c4.28,4.12,7.92,8.77,11.39,13.57,10.46,14.45,18.72,30.12,26.01,46.34,3.87,8.61,7.35,17.37,10.28,26.35.9,2.74,1.6,5.53,2.14,8.35.41,2.19,1.5,3.82,3.43,4.93,7.8,4.47,13.62,11.08,18.98,18.08,4.73,6.17,7.89,13.12,8.92,20.94.91,6.89-.53,13.35-3.3,19.6-1.93,4.35-4.61,8.22-7.64,11.85-7.89,9.45-17.46,16.87-28.07,22.98-14.93,8.6-30.98,14.41-47.62,18.68-17.87,4.58-36.04,7.13-54.44,8.25-16.39.99-32.77.76-49.13-.59-25.65-2.13-50.59-7.36-74.44-17.24-10.45-4.33-20.32-9.73-29.47-16.42-6.52-4.77-12.12-10.41-16.52-17.21-8.14-12.58-8.71-25.59-2.01-38.92,3.05-6.06,7.28-11.27,12.12-15.99,2.46-2.4,5.04-4.67,7.6-6.97,2.02-1.82,3.43-4.04,4.08-6.65,2.93-11.7,7.65-22.7,12.84-33.52,7.48-15.57,16.71-30.02,28.09-43.05.37-.42.77-.8,1.16-1.2,1.15.03.99.97,1.1,1.66.14.91-.06,1.85.26,2.73.31,1.48,1.57,2.47,2.01,3.88.28,4.28,2.42,7.44,5.74,10.03,7.82,6.1,16.64,9.67,26.48,10.71,3.12.33,6.24.18,9.05-1.51,2.43-1.46,3.66-3.6,3.07-6.44-.37-1.8-.04-3.68-.7-5.43-1.63-3.75-4.83-5.91-8.22-7.71-7.6-4.03-15.25-8-23.45-10.76-3.47-1.17-6.92-1.86-10.52-.63-.49-.08-1.05-.11-.96-.85,5.86-5.99,12.03-11.63,19.01-16.32,4.71-3.16,9.62-5.94,14.88-8.07.78-.32,1.53-.86,2.46-.68.04.1.1.18.09.24-.79,4.92.49,9.3,3.44,13.25.3.82.81,1.54,1.06,2.4,2.27,7.76,7.55,12.57,15.01,15.21,10.31,3.65,20.96,3.75,31.7,3.07,15.97-1.01,30.31-7.34,44.65-13.65,9.13-4.02,18.24-8.1,26.9-13.1.8-.46,1.63-.65,2.51-.23Z"/>
  <path class="cls-18" d="m707.15,323.32c1.69,16.27,0,32.02-7.15,46.95-2.01,4.2-4.42,8.13-7.32,11.76-2.21,2.76-4.74,5.17-7.68,7.16-7.57,5.09-15.24,5.01-22.97.44-3.49-2.06-6.22-4.97-8.62-8.21-4.73-6.39-7.77-13.53-9.57-21.24-.45-1.93-1.12-3.83-1.07-5.86.79-.05,1.02.65,1.45,1.08,1.39,1.4,2.51,1.21,3.15-.71.73-2.19,1.33-4.48,1.05-6.8-.35-2.86-.43-5.71-.46-8.58,0-.24-.02-.48-.08-.71-.42-1.57-.3-3.67-2.48-3.87-2.08-.19-2.4,1.68-2.86,3.22-.18.59-.25,1.3-1.1,1.36-.44-2.62-.13-5.25.03-7.87.56-9.52,2.22-18.83,5.67-27.76.28-.73.4-1.55,1.02-2.12.87,1.06.27,2.16-.01,3.19-.68,2.46-1.35,4.93-1.93,7.42-.46,1.99-.5,3.98.37,5.87.73,1.6,1.64,1.82,2.99.71,1.33-1.1,2.14-2.55,2.69-4.17,1.17-3.4,2.18-6.85,3.14-10.32,1.12-4.01,2.71-7.85,4.34-11.67,1.17-2.76,1.69-5.48-.1-8.18,2.87-1.58,4.5-.95,5.38,2.06.84,2.89.24,5.71-.37,8.52-.94,4.29-2.21,8.5-2.78,12.87-1.85,14.15-1.21,28.05,3.93,41.55,2.08,5.48,4.85,10.46,9.73,13.93,4.48,3.2,9.37,4.35,14.72,2.42,3.82-1.38,6.12-4.21,7.38-7.97,1.41-4.22,1.56-8.63,1.8-13.02.38-6.75-.24-13.41-1.93-19.96-.37-.94.19-1.45.95-1.5,2.6-.18,5.15-.77,7.77-.68.43.02.7.32.93.66Z"/>
  <path class="cls-19" d="m681.8,282.11c-2.91,3.45-6.2,6.5-10.06,9.68,0-2.41,0-4.31-.61-6.13-1.13-3.34-2.95-6.01-6.59-6.98-2.61-.69-4.88.08-6.98,1.6-4.79,3.47-8.65,7.78-11.59,12.93-1.99,3.48-3.76,7.05-5.05,10.84-.46,1.35-1.25,2.06-2.58,2.49-7.99,2.59-16.15,3.76-24.55,3.05-1.91-.16-3.82-.4-5.73-.48-1.16-.05-1.67-.61-2.03-1.62-1.82-5.13-4.03-10.08-6.37-14.99-.75-1.56-.72-1.64,1.02-2.03,8.22-1.85,16.01-4.95,23.66-8.39,6.49-2.92,12.66-6.47,18.35-10.79,1.14-.87,2.79-1.57,2.08-3.57,1.35.28,2.64-.02,3.95-.32,7.18-1.67,14.36-2.3,21.37.65,6.28,2.65,11,6.72,11.72,14.07Z"/>
  <path class="cls-19" d="m552.25,240.72c-.74.04-1.4.3-2.03.66-8.09,4.67-16.62,8.46-25.1,12.35-7.98,3.66-16.11,6.93-24.35,9.92-6.16,2.23-12.53,3.74-19.03,4.43-6.74.71-13.49.77-20.28.23-5.62-.45-11.06-1.4-16.28-3.47-7.89-3.12-13.04-8.68-14.8-17.12-.05-.23.02-.47.03-.71,5.95,5.95,13.59,7.71,21.54,8.7,12.41,1.54,24.72.47,36.95-1.63,13.23-2.27,26.26-5.44,38.95-9.89,6.03-2.11,12.01-4.38,17.81-7.04,1.56-.71,2.66-.62,3.76.68.87,1.02,1.88,1.93,2.82,2.9Z"/>
  <path class="cls-6" d="m681.8,282.11c-.75-.41-.73-1.23-.87-1.88-.76-3.42-2.62-6.13-5.3-8.27-4.1-3.28-8.86-4.88-14.06-5.25-4.89-.35-9.68.38-14.34,1.77-1.23.37-1.8-.04-2.47-.78-.84-.32-1.56.04-2.28.4-1.42.72-2.86,1.41-4.27,2.16-11.6,6.2-23.8,10.81-36.58,13.9-1.47.36-2.98.52-4.48.75-.87.13-1.5-.12-1.96-.97-1.29-2.37-2.65-4.7-3.98-7.04.57-.63,1.13-.21,1.62-.16,4.03.41,7.96-.42,11.9-1.04,9.76-1.52,19.07-4.53,28.17-8.31,7.44-3.09,14.9-6.15,22.4-9.09,5.78-2.26,11.78-3.47,18.03-3.09,2.34.14,4.54.74,6.69,1.67,4.78,2.07,7.06,5.78,7.34,10.85.16,2.92-.3,5.73-1.66,8.35-1.11,2.13-2.32,4.18-3.91,6Z"/>
  <path class="cls-6" d="m316.26,289.21c-1.14-1.36-2.01-2.88-2.67-4.52-1.64-4.13-.88-8.01,1.36-11.66,1.25-2.05,3.18-2.88,5.55-2.38,1.48.31,2.96.7,4.37,1.24,3.35,1.29,6.72,2.56,9.97,4.09,7.5,3.54,15.25,6.13,23.56,6.87.6.05,1.28-.09,1.94.52-2.21,3.74-4.44,7.5-6.66,11.26-1.11.78-2.44.82-3.68.89-9.12.58-18.18.47-27.01-2.34-2.55-.81-4.85-2.03-6.73-3.97Z"/>
  <path class="cls-12" d="m707.15,323.32c-1.18-.41-2.37-.02-3.5.15-1.49.23-2.98.39-4.48.42-.74.01-1.45.02-1.66.95-2.75-9.14-6.97-17.63-11.56-25.95-1.28-2.32-2.94-4.37-4.65-6.38-.52-.61-.6-1.08.08-1.58,2.98-2.22,5.33-5.04,7.51-8.01.08-.11.26-.16.58-.34,11.51,11.13,15.99,25.33,17.69,40.75Z"/>
  <path class="cls-15" d="m445.17,218.65c.78,1.31.41,2.81.68,4.21,1.21,6.29,5.12,10.46,10.51,13.44,5.36,2.97,11.19,4.49,17.19,5.49,5.2.87,10.44,1.09,15.7.97,1.41-.03,2.71.14,3.61,1.4-4.03,1.01-8.17,1.38-12.29,1.85-7.07.8-14.17.97-21.27.55-5.2-.31-10.3-1.16-15.12-3.27-1.91-.84-3.71-1.85-5.27-3.25-2-1.78-2.78-4.02-2.52-6.66.18-1.77.7-3.44,1.53-5,1.93-3.6,4.3-6.89,7.25-9.73Z"/>
  <path class="cls-13" d="m659.65,284.42c2.08,1.23,2.28,3.12,1.73,5.21-.63,2.39-1.62,4.66-2.58,6.93-2.32,5.52-3.67,11.36-5.48,17.04-.66,2.07-1.46,4.05-3.17,5.51-.18.16-.33.35-.51.5-1.57,1.27-2.8.99-3.57-.86-.88-2.11-1.11-4.3-.51-6.55.8-3,1.58-6,2.39-9,.15-.54.33-1.07.23-1.64,1.87-5.45,4.93-10.24,8.24-14.89.8-1.12,1.93-1.84,3.24-2.26Z"/>
  <path class="cls-17" d="m635.79,325.16c-.02-.31-.1-.64-.04-.94.21-1.11-.23-1.43-1.29-1.22-2.81.53-5.66.69-8.5.98-4.53.45-9.03.11-13.53-.36-.69-.07-1.43-.42-1.74.58-.64-3.09-1.18-6.19-2.13-9.46,3.35.22,6.43,1.12,9.61,1.01,3.26-.11,6.54.06,9.78-.53,3.13-.57,6.27-1.09,9.42-1.63.48.36.32.86.22,1.31-.69,3.11-1.4,6.21-1.42,9.42,0,.28-.23.56-.36.85Z"/>
  <path class="cls-19" d="m316.26,289.21c5.22,3.37,11.08,4.72,17.14,5.4,5.96.67,11.92.74,17.89.01.78-.09,1.59,0,2.39,0-1.55,3.14-3.13,6.26-4.61,9.43-.48,1.02-1.16,1.15-2.12,1-7.3-1.18-14.25-3.38-20.6-7.25-3.34-2.04-6.59-4.21-9.14-7.24-.35-.42-.82-.77-.94-1.36Z"/>
  <path class="cls-20" d="m641.45,339.33c.67-.96.42-2.17.92-3.19.47-.97,1.02-1.83,2.09-2.17,1.46-.47,2.78.2,3.42,1.83.53,1.34.72,2.77.76,4.22.06,2.31.07,4.63.38,6.93.36,2.67-.27,5.24-.9,7.8-.3,1.23-.84,2.37-2.24,2.47-1.38.1-2.13-.87-2.57-2.1-.1-.29-.34-.52-.52-.79-1.12-4.94-1.44-9.96-1.33-15.01Z"/>
  <path class="cls-5" d="m390.54,258.6c.16.45.59.32.91.43-.31,1.71-1.75,2.3-3.02,3.07-.39,0-.6-.24-.71-.59.75-1.15,1.61-2.2,2.83-2.91Z"/>
  <path class="cls-21" d="m387.71,261.51c.16.17.32.33.49.49.31,1.95.5,3.89-.58,5.7-.76-.85-.46-1.91-.56-2.88-.07-.66.33-1.41-.39-1.94.13-.62.7-.92,1.05-1.38Z"/>
  <path class="cls-7" d="m644.32,377.57c-.52.17-.39.69-.56,1.04-.43-.7-.54-1.45-.33-2.26.65.17.81.66.89,1.22Z"/>
  <path class="cls-14" d="m637.64,361.7c.17-.17.35-.34.52-.5.54.45.52,1.03.41,1.65-.8,0-.86-.58-.93-1.15Z"/>
  <path class="cls-13" d="m426.6,324.22c.77-1.34.4-2.8.41-4.21.02-1.25.3-2.36.94-3.41,3.57-5.79,7.42-11.35,12.41-16.06,5.08-4.8,11.07-8.03,17.88-9.14,6.89-1.12,13.59-.11,19.05,4.9,1.89,1.73,3.39,3.82,4.82,5.93,2.19,3.25,4.02,6.7,5.52,10.34.8,1.95,1.39,3.89,1.35,6,.7.87.39,1.82.23,2.75-2.23,13.44-1.49,26.72,2.36,39.79,3.05,10.36,8.22,19.37,17.08,25.92,10.84,8.01,24.66,7.61,34.93-1.12,8.81-7.49,14.04-17.2,17.25-28.16.41-1.41-.02-2.87.49-4.24.25-.35.62-.49,1.03-.49,6.24-.03,12.44.33,18.37,2.47,4.09,1.48,7.19,4.15,8.54,8.42.78,2.45,1.05,4.97-.16,7.42-9.4,15.93-23.28,26.96-39.33,35.46-19.38,10.26-40.3,15.64-61.84,18.85-11.14,1.66-22.36,2.28-33.63,2.53-18.15.41-36-1.47-53.66-5.57-10.64-2.47-20.68-6.56-30.66-10.89-10.66-4.63-19.78-11.33-27.86-19.56-1.24-1.27-2.81-1.75-4.29-2.49-1.09-1.76-.34-3.57-.11-5.35.52-4.01,1.77-7.74,4.03-11.13,1.93-2.89,4.68-4.51,8-5.2,1.68-.35,3.41-.98,5.15-.12.99.51,1.05,1.54,1.33,2.43,3.74,12.02,11.54,19.41,24.21,21.26,3.84.56,7.45-.36,10.98-1.73,6.31-2.45,10.87-7.16,15.34-11.98.22-.23.39-.51.61-.74,1.46-1.57,2.27-1.46,3.07.58,1.22,3.12,2.42,6.25,3.8,9.31,2.05,4.54,4.75,8.68,7.55,12.77.54.79,1.25,1.75,2.31,1.27,1.22-.56.82-1.82.5-2.77-1.36-4.02-3.66-7.62-5.26-11.54-3.77-9.19-6.89-18.56-8.52-28.39-.26-1.59-.32-3.17-.27-4.77.21-.99.42-2.2,1.73-.95,3.08,2.96,6.66,3.14,10.48,2.04,5.01-1.44,9.02-4.35,12.1-8.53,1.84-2.49,1.65-5.22.83-8,.43-4.86-.32-4.88,6.06-5.35,6.79-.5,13.57.08,20.3,1.11,1.67.26,3.34.39,5.01.06,1.15-.23,2.21-.71,2.35-2.05.14-1.41-.83-2.16-1.98-2.68-.59-.27-1.24-.31-1.87-.4-12.01-1.69-24.02-1.62-36.04-.08-.1.01-.18.03-.24.03-1.2-.06-2.76.89-3.48-.6-.63-1.32-.28-2.81.8-3.97Z"/>
  <path class="cls-8" d="m426.6,324.22c-.18,1.34-.35,2.67-.55,4.14,1.02.26,1.93-.15,2.83-.26,11.39-1.41,22.79-1.65,34.2-.29,1.03.12,2.07.16,3.1.3.63.08,1.27.2,1.86.43,1.62.61,2.47,1.81,2.37,3.22-.09,1.4-1.12,2.52-2.76,2.94-1.26.32-2.55.23-3.82.09-3.34-.35-6.67-.75-10-1.13-4.76-.55-12.14-.37-17.43.44.3,1.54.16,3.09-.28,4.61-.01.58-.21,1.09-.59,1.53-4.99,5.64-10.53,10.38-18.31,11.66-1.54.25-2.97.2-4.47-.16-1.44-.35-2.18.2-1.68,1.79.03,5.9,1.6,11.52,3.18,17.13,2.1,7.46,4.87,14.68,8.38,21.61.9,1.78,1.68,3.61,2.52,5.42.37.81.62,1.66.58,2.55-.08,1.62-1.5,2.35-2.9,1.51-.92-.55-1.47-1.45-2.06-2.3-4.5-6.45-8.02-13.41-10.63-20.83-.29-.81-.39-1.72-1.14-2.52-1.73,2.1-3.53,4.1-5.41,6.02-1.96,2.01-4.1,3.79-6.41,5.38-10.94,7.56-22.62,5.53-31.34-1.26-5.29-4.13-8.47-9.67-10.32-16.04-.22-.77-.41-1.54-.62-2.31-.38-2.76-.96-5.49-.84-8.29.02-.56,0-1.12.09-1.67.16-.95.36-1.94,1.45-2.28,1.22-.38,1.63.68,2.24,1.37.99,1.09.95,2.51,1.16,3.82.94,6.12,3.11,11.74,6.94,16.64,4.55,5.81,10.47,8.06,17.79,6.82,9.12-1.54,16.17-6.14,21.19-13.89,1.3-2.01,1.32-2.32.42-5.11-2.29,3.74-4.82,7.12-8.01,9.94-3.11,2.75-6.54,4.87-10.78,5.34-6.48.71-11.13-2.22-14.45-7.49-2.41-3.84-3.74-8.15-4.23-12.64-1.72-15.98,1.81-30.79,10.1-44.51.62-1.03,1.3-2.02,2.04-2.96,1.77-2.27,2.11-2.32,4.46-.72,3.09,2.11,7.12,1.76,9.63-.85,1.72-1.78,2.19-3.83,1.3-6.18-1.18-3.11-.25-4.29,3.18-3.93,4.62.48,8.31,2.62,11.13,6.33,2.69,3.53,3.97,7.61,4.88,11.87.68,3.16.5,6.36.55,9.56,0,.69-.3,1.63.47,1.96.88.38,1.69-.3,2.36-.83.89-.7,1.04-1.79,1.1-2.82.47-7.66-.22-15.15-2.94-22.41-.79-2.1-2.3-2.38-4.13-2.53-7.37-.6-14.57-1.96-21.43-4.82-1.63-.68-3.19-1.48-4.76-2.27-2.75-1.37-2.95-1.4-5.22.77-4.73,4.52-8.5,9.74-11.24,15.69-.47,1.02-.89,2.05-1.39,3.06-.43.87-.92,1.71-2.08,1.74-2.64-.43-3.3-1.4-2.35-3.91,3.23-8.52,7.4-16.45,14.69-22.31.12-.09.18-.25.32-.45-.45-.52-.92-1.06-1.38-1.6-.72-.87-1.33-1.81-1.53-2.94-.28-1.55-.29-3.06,1.09-4.16,1.28-1.01,2.69-.82,4.09-.31.98.36,1.85.95,2.64,1.62,4.01,3.44,8.7,5.59,13.64,7.28,9.87,3.38,19.99,4.79,30.41,3.94.79-.07,1.6-.14,2.39-.1,2.24.12,3.89,1.61,4.1,3.63.22,2.04-1.26,4-3.55,4.42-1.72.32-3.49.4-5.23.56-.79.07-1.59.09-2.33.12-.27.34-.25.64-.1.94,3.13,6.31,4.35,12.97,3.75,19.97-.03.31.04.63.06.95Z"/>
  <path class="cls-8" d="m337.84,389.68c1.17-.52,2.18-.19,3.08.63.89.81,1.78,1.61,2.63,2.45,7.97,7.89,17.06,14.02,27.3,18.71,16.87,7.72,34.52,12.35,52.85,14.63,14.8,1.84,29.63,1.93,44.5.96,18.89-1.23,37.4-4.47,55.46-10.15,9.84-3.09,19.37-6.98,28.39-12.01,7.91-4.42,15.21-9.7,21.89-15.83,4.73-4.34,9.05-9.03,12.23-14.66.71-1.26,1.5-2.46,2.93-3.05,1.19.02,2.24.33,2.93,1.41.42.41.05,1.06.45,1.47h0c.18.17.32.42.23.62-1.32,2.89.02,5.29,1.37,7.72.97,1.74,1.41,3.66,1.74,5.6.07,1.66.63,3.27.38,4.98-.85,5.87-5.42,10.24-11.37,10.79-4.01.37-7.8-.39-11.17-2.61-1.19-.78-1.9-.67-2.89.17-1.21,1.03-2.54,1.91-3.82,2.85-.2.25.12.03-.14.19-3.59,2.12-3.93,5.82-4.73,9.36-.54,2.39-1.06,4.83-2.7,6.81-.63,1.01-1.25,2.04-1.9,3.04-3.74,5.78-9.14,7.76-15.75,5.76-4.07-1.23-7.54-3.44-10.32-6.67-.56-.64-.97-1.08-1.98-.74-4.08,1.37-8.2,2.63-12.3,3.92-3.61.88-4.25,3.94-5.27,6.87-1.11,3.19-1.88,6.65-4.75,8.93-.34.34-.67.67-1,1.02-3.03,3.13-6.63,3.93-10.73,2.62-2.23-.71-4.24-1.86-5.95-3.47-2.78-2.62-5.62-5.21-7.78-8.4-.41-.6-.82-.87-1.56-.8-5.08.49-10.15.94-15.23,1.4-2.61.41-3.9,2.32-5.12,4.39-1.09,1.84-2.37,3.55-3.65,5.26-.83,1.11-1.8,1.98-3.2,2.26-1.54,1.01-3.13,1.91-4.91,2.46-3.56,1.1-6.95.83-10.08-1.3-4.47-3.04-7.54-7.07-8.72-12.43-.43-1.93-.45-1.91-2.42-2.1-6.04-.6-12.05-1.5-18.04-2.47-3.33-.49-6.21.13-8.73,2.66-2.29,2.3-4.96,4.2-8.5,4.06-.32.04-.64.06-.95.13-9.52,2.22-14.95-5.62-15.43-12.13-.07-.95-.07-1.92.04-2.86.11-.94-.18-1.44-1.06-1.82-2.56-1.09-5.08-2.28-7.62-3.42-2.36-1.02-4.49-.58-6.75.61-2.24,1.17-4.7,1.93-7.21,2.46-.95.2-1.87.43-2.78-.1-.4-.01-.8-.03-1.2-.04-4.04-.07-6.79-2.06-8.31-5.74-1.69-4.09-1.83-8.38-1.37-12.72.03-.32.06-.64.16-.94.86-2.69.86-5.22-1.04-7.58-.72-.9-.73-2.08-.15-3.17Z"/>
  <path class="cls-13" d="m556.14,300.15c.97,2.11,1.37,4.39,1.85,6.64,1.01,4.74,2.66,9.31,3.57,14.08,1.14,5.98,1.6,12,1.1,18.03-.32,3.86-1.22,7.67-1.87,11.5-.17,1-.5,1.86-1.8,1.73-.42-.04-.77.17-1.03.5-2.88,5.95-4.92,12.3-8.52,17.91-3.57,5.56-8.13,10.07-13.96,13.17-8.84,4.69-18.77,3.52-26.23-3.84-5.88-5.8-9.5-12.98-12.04-20.72-2.43-7.43-3.52-15.1-3.19-22.89.47-10.93,2.77-21.51,6.92-31.66.63-1.55,1.59-2.4,3.35-2.59,4.85-.52,9.54-1.93,14.34-2.75.67.06,1.32.17,1.61.91.02.71-.6,1.43.47,2.05,2.52,1.45,3.86,3.58,3.07,6.6-.75,2.84-3.68,5.19-6.9,5.51-1.83.18-3.7.24-5.44-.47-1.57-.65-2.34-.03-2.94,1.38-2.44,5.79-4.04,11.85-4.45,18.08-.51,7.73-.5,15.49,1.76,23.06,1.36,4.55,3.2,8.85,6.02,12.7,8.5,11.6,20.95,11.8,29.79.42,3.54-4.56,5.76-9.78,7.11-15.33,3.05-12.49,2.78-24.87-1.77-37-3.14-8.36-8.07-15.05-17.08-17.8-1.78-.81-3.91.38-5.58-.99-.38-1.13.52-1.39,1.23-1.66,5.46-2.05,10.66-4.65,15.78-7.42,2.62-1.41,3.39-1.16,5.3,1.15,2.03,2.46,4.33,4.69,5.97,7.45.82,1.38,2.33,1.57,3.54,2.27Z"/>
  <path class="cls-8" d="m518.59,299.81c-5.05,1.17-10.07,2.48-15.26,2.92-1.17.1-1.33.96-1.65,1.76-2.04,5.12-3.72,10.37-4.89,15.76-2.98,13.68-3.01,27.24,1.66,40.62,1.75,5.01,4.18,9.67,7.28,13.96,3.09,4.26,6.83,7.83,11.86,9.75,4.91,1.87,9.82,1.87,14.71-.12,7.48-3.04,12.93-8.37,17.1-15.12,2.57-4.15,4.48-8.63,6.22-13.19.51-1.34,1.02-2.7,2.35-3.51,1.24-.16,2.41-.05,3.35.89.61,1.21.57,2.45.25,3.73-2.57,10.31-7.56,19.31-14.99,26.86-4.69,4.77-10.32,7.97-17.09,8.95-5.9.85-11.46-.06-16.72-2.79-8.03-4.16-13.7-10.61-17.72-18.59-4.03-8.01-6.15-16.58-7.15-25.46-1.05-9.28-.69-18.5,1.08-27.67,1.1-3.9,2.02-7.86,3.7-11.57.52-1.15,1.01-2.3,1.59-3.63-1.66-.22-3.14-.41-4.61-.61-1.75-.24-3.44-.68-5.05-1.41-.96-.43-1.84-.98-2.48-1.83-.83-1.1-1.13-2.29-.45-3.58.67-1.28,1.82-1.72,3.18-1.72.31,0,.64.07.94.16,6.29,1.81,12.55.99,18.69-.55,14.63-3.67,28.63-8.91,41.24-17.42.92-.62,1.87-1.22,2.94-1.58,1.97-.65,3.85-.18,4.98,1.26,1.2,1.53,1.18,3.55-.13,5.33-.47.63-1.07,1.18-1.65,1.72-.58.54-1.22,1.02-1.91,1.59,1.61,1.64,3.23,3.17,4.5,5.01,1.19,1.71,2.31,3.45,3.01,5.42.87,2.43.61,3.31-1.35,5-1.92.41-3.21-.43-4.17-2.03-1.9-3.18-4.47-5.81-7-8.48-.76-.8-1.43-1-2.48-.39-5.79,3.39-11.9,6.14-18.12,8.64-1.6,1.62-3.77,1.53-5.78,1.92Z"/>
  <path class="cls-13" d="m365.89,316.57c1.12-.76,1.57-1.95,2.06-3.14,2.78-6.84,6.96-12.73,12.29-17.81.58-.55,1.24-1.01,1.82-1.55.74-.68,1.4-.78,2.34-.23,8.75,5.12,18.35,7.26,28.33,8.02.08,0,.16.02.24.02,2.05-.16,3.06.79,3.76,2.76,2.69,7.5,3.76,15.16,2.96,23.09-.19,1.91-.69,3.35-2.79,3.83-.74.17-1.42.62-2.33,1.04,0-3.16.2-6.09-.06-9.01-.38-4.33-1.3-8.52-3.32-12.41-.93-1.79-2.05-3.43-3.47-4.86-3.58-3.62-7.81-5.13-13.09-3.86,1.46,2.15,2.5,4.36,1.54,6.94-.58,1.55-1.59,2.76-2.98,3.65-3.55,2.29-7.19,1.68-10.75-1.85-.89.44-1.34,1.31-1.89,2.07-6.36,8.79-10,18.66-11.64,29.33-1.04,6.76-1.38,13.52.02,20.27.81,3.93,1.99,7.75,4.36,11.06,3.35,4.68,7.84,6.95,13.66,6.06,3.06-.47,5.74-1.88,8.19-3.75,3.67-2.8,6.56-6.28,9.02-10.17.45-.72.71-1.62,1.53-2.08.05.08.11.14.13.21,1.37,4.26,1.34,4.24-1.21,7.82-5.74,8.05-13.6,12.38-23.38,13.26-5.83.53-10.62-1.72-14.55-5.92-4.16-4.44-6.48-9.83-7.78-15.69-.48-2.18-.71-4.41-1.06-6.62.04-10.73,2.46-21.07,5.28-31.33.84-3.06,1.83-6.07,2.75-9.11Z"/>
  <path class="cls-8" d="m495.11,286.99c-.5-.25-1.01-.47-1.5-.75-2.82-1.62-4.12-4.51-3.48-7.73.57-2.87,2.19-5.1,4.36-6.98,1.52-1.31,3.22-2.37,4.99-3.29,10.45-5.38,21.22-10,32.58-13.15,1.16-.32,2.33-.56,3.54-.54,4.64.06,7.71,3.79,6.9,8.36-.24,1.35-.88,2.56-1.35,3.83-1.02,2.95-3.41,4.74-5.77,6.46-5.24,3.84-11.17,6.4-17.12,8.9-5.58,2.34-11.18,4.64-17.21,5.63-2.05.34-4.11.64-5.95-.73Z"/>
  <path class="cls-8" d="m387.62,267.7c0-1.92-.48-3.89.58-5.7,1.08-.99,2.16-1.98,3.25-2.97,2.02-.99,4.14-1.08,6.31-.7,2.77.48,5.42,1.36,8,2.42,6.65,2.74,13.07,5.95,19.46,9.24,1.85.95,3.58,2.09,5.22,3.39,1.66,1.31,3.01,2.85,3.74,4.88.79,4.89-.44,7.02-4.97,8.57-2.55.87-5.2.97-7.8.48-11.12-2.09-20.86-7.21-29.92-13.79-.87-.63-1.39-1.52-1.91-2.41-.82-1.03-1.63-2.08-1.95-3.4Z"/>
  <path class="cls-19" d="m389.57,271.1c9.39,7.73,19.91,13.15,31.89,15.55,2.78.56,5.56.42,8.23-.67,3.42-1.4,4.54-3.1,4.46-6.78,0-.32.01-.63.02-.95.6,2.77,1.36,5.61.82,8.38-.62,3.2-3.2,4.76-6.25,5.54-4.4,1.12-8.73.25-12.99-.69-7.83-1.73-14.84-5.27-21.05-10.34-3.15-2.57-5.31-5.73-5.13-10.04Z"/>
  <path class="cls-19" d="m495.11,286.99c4.06.94,7.95-.08,11.75-1.29,8.46-2.7,16.6-6.2,24.38-10.49,3.88-2.14,7.28-4.88,9.92-8.48.62,3.98-1.05,6.91-4.1,9.31-9.12,7.18-19.42,11.85-30.68,14.44-1.96.45-4,.92-6.13.35-2.29-.61-4.13-1.62-5.13-3.85Z"/>
  <path class="cls-11" d="m559.39,420.72c.18-1.61,1.03-2.99,1.46-4.53.68-2.46,1.43-4.91,1.67-7.45.14-1.45.74-2.33,1.99-2.94.85-.42,1.64-.96,2.45-1.45.94,4.19-.02,8.08-2.13,11.68-1.25,2.13-2.8,4.08-5.44,4.69Z"/>
  <path class="cls-11" d="m507.12,441.83c2.61-3.98,4.15-8.44,5.49-12.95.46-1.55,1.14-2.3,2.67-2.48.62-.07,1.2-.46,1.86-.38-.03,6.04-2.55,10.86-7.21,14.59-.79.63-1.72,1.16-2.81,1.21Z"/>
  <path class="cls-11" d="m391.5,437c4.24-1.02,7.51-3.66,10.61-6.51,1.06-.97,2.07-1.44,3.41-.87,1.03.44,2.25-.09,3.21.66-.48.21-1.18-.05-1.45.62-.83,2.09-2.72,3.06-4.46,4.15-1.21.76-2.48,1.45-3.77,2.05-2.01.94-4.06,1.42-6.17.19-.39-.22-.92-.2-1.39-.28Z"/>
  <path class="cls-11" d="m452.9,446.11c3.3-2.59,5.46-6.1,7.48-9.64,1.11-1.95,2.34-2.79,4.49-2.27.14,2.14-1.08,3.8-2.1,5.47-.82,1.34-1.89,2.54-2.94,3.74-1.87,2.14-4.03,3.31-6.93,2.7Z"/>
  <path class="cls-9" d="m349.75,419.86c4.1-.61,8.02-1.87,11.69-3.76,1.52-.79,2.75-.94,4.09.14.3.24.64.44.96.66-4.04,2.76-8.5,4.22-13.39,4.38-1.33.04-2.53-.23-3.35-1.41Z"/>
  <path class="cls-3" d="m595.82,388.17c-1.38-3.1-2.44-6.35-4.28-9.23-.39-.61-.29-1.16-.03-1.79.38-.95.66-1.95.98-2.93,2.26,2.46,3.28,5.43,3.43,8.7.08,1.75-.05,3.5-.09,5.25Z"/>
  <path class="cls-3" d="m592.48,374.23c-.4-.42-.48-.92-.45-1.47.56.36.61.89.45,1.47Z"/>
  <path class="cls-19" d="m411.08,353.52c-.5-1.02-.16-1.98.11-3.12,3.36,1.89,6.59,1,9.76-.08,6.35-2.17,10.99-6.6,15.17-11.61,1.53,2.39,1.09,4.85-.27,6.98-3.99,6.2-9.73,9.75-17.15,10.19-2.94.18-5.74-.99-7.26-3.42-.13.37-.25.72-.36,1.06Z"/>
  <path class="cls-10" d="m372.75,354.89c-.72-2.98,1.25-4.84,3.74-6.2,2.67-1.45,5.11-.52,7.28,1.31.49.41.95.86,1.35,1.36,3.35,4.06,3.39,12.84.08,16.92-3.15,3.9-8.47,3.1-10.37-1.58-.6-1.48-1.01-3.03-1.3-4.6-.43-2.28-.79-4.56-.79-7.21Z"/>
  <path class="cls-1" d="m433.6,433.41c7.03.48,13.64.78,20.61.78-2.12,3.77-4.31,6.98-8.29,8.54-1.77.69-3.42.61-5.05-.34-3.46-2-5.72-4.96-7.27-8.97Z"/>
  <path class="cls-1" d="m505.96,428.71c-.97,3.46-1.87,6.58-3.8,9.25-1.33,1.85-3.11,2.41-5.28,1.77-.83-.25-1.66-.6-2.4-1.06-2.8-1.72-4.93-4.21-7.76-6.65,6.67-.93,12.8-2.04,19.23-3.31Z"/>
  <path class="cls-1" d="m535.6,419.95c6.51-2.56,12.71-5.26,18.68-8.35.7.55.28,1.1.14,1.56-.7,2.37-1.38,4.75-2.66,6.9-1.96,3.28-4.79,4.5-8.53,3.67-2.76-.62-5.17-1.96-7.64-3.77Z"/>
  <path class="cls-1" d="m358.21,411.8c-3.01,1.51-5.71,2.48-8.6,2.73-2.67.24-3.84-.47-4.82-2.94-1.38-3.45-1.52-7.05-1.26-11.26,4.51,4.7,9.44,8.03,14.68,11.47Z"/>
  <path class="cls-1" d="m577.17,396.26c4.28-3.88,7.71-8.03,10.64-12.63,1.37,1.69,2.76,6.12,2.51,7.98-.3,2.24-1.57,3.9-3.55,4.78-3.03,1.35-6.14,1.21-9.6-.14Z"/>
  <path class="cls-2" d="m379.94,422.66c5.4,1.61,10.56,3.14,15.98,4.75-2.63,2.74-5.44,4.44-9.08,4.49-1.15.02-2.24-.26-3.13-.99-2.57-2.1-3.66-4.86-3.77-8.26Z"/>
  <path class="cls-8" d="m530.12,298.84c6.45,1.63,10.92,5.76,14.23,11.31,4.01,6.71,5.98,14.1,6.74,21.79.96,9.67-.15,19.14-3.63,28.27-1.64,4.29-3.84,8.26-6.98,11.64-2.88,3.11-6.23,5.44-10.48,6.34-3.59.75-6.99.21-10.25-1.36-4.17-2-7.19-5.25-9.65-9.07-3.43-5.33-5.29-11.26-6.26-17.46-1.78-11.35-.64-22.45,3.27-33.26.57-1.57,1.14-3.14,2.14-4.6.87.29,1.7.54,2.5.85,3.16,1.2,6.13.73,8.9-1.1,1.93-1.27,3.09-3.03,2.78-5.45-.31-2.43-1.9-3.76-4.13-4.47-.33-.11-.81.07-1-.43.3-.86,1.31-.86,1.78-1.48.92-1.27,2.4-1.64,3.72-1.69,2.09-.07,4.21-.26,6.3.18Z"/>
  <path class="cls-4" d="m530.12,298.84c-3.47-.32-6.82.13-10.02,1.51-.34-.63-1.01-.36-1.51-.54,1.86-.84,3.79-1.48,5.78-1.92.6.77,1.43.37,2.17.44,1.2.12,2.49-.36,3.59.5Z"/>
  <path class="cls-10" d="m527.53,360.99c-.06,2.95-.77,5.5-3.17,7.28-2.16,1.6-3.55,1.51-5.48-.31-2.84-2.67-4.76-5.97-6.34-9.48-1.15-2.54-1.96-5.21-2.72-7.9-.36-1.29.01-2.14.85-2.99,2.15-2.16,5.46-2.64,8.4-1.18,1.75.87,3.16,2.15,4.34,3.68,2.52,3.24,3.92,6.9,4.11,10.89Z"/>
</svg>