<?xml version="1.0" encoding="UTF-8"?>
<svg id="_图层_1" data-name="图层 1" xmlns="http://www.w3.org/2000/svg" viewBox="0 0 960 960">
  <defs>
    <style>
      .cls-1 {
        fill: #454794;
      }

      .cls-1, .cls-2, .cls-3, .cls-4, .cls-5, .cls-6, .cls-7, .cls-8, .cls-9, .cls-10, .cls-11 {
        stroke-width: 0px;
      }

      .cls-2 {
        fill: #a76861;
      }

      .cls-3 {
        fill: #f6b89f;
      }

      .cls-4 {
        fill: #fed641;
      }

      .cls-5 {
        fill: #b16b1f;
      }

      .cls-6 {
        fill: #fbfaf9;
      }

      .cls-7 {
        fill: #050404;
      }

      .cls-8 {
        fill: #a86760;
      }

      .cls-9 {
        fill: #ac6a63;
      }

      .cls-10 {
        fill: #5b7dfd;
      }

      .cls-11 {
        fill: #f9d23f;
      }
    </style>
  </defs>
  <path class="cls-7" d="m717.61,503.96c2.12-1.04,2.78-.93,4.38.76,9.97,10.51,8.82,26.21-.41,35.52-2.1,2.12-4.44,3.93-7.11,5.23-1.31.64-1.82,1.41-1.88,2.9-.94,21.11-9.44,38.91-24.21,53.75-7.21,7.25-15.77,12.5-25.83,14.92-13.79,3.32-26.01.19-36.41-9.42-9.85-9.1-16.41-20.13-18.66-33.5-.19-1.11-.48-1.71-1.71-1.81-10.84-.86-22.55-13.84-21.25-28.3.71-7.91,3.3-14.75,9.38-20.06.24-.21.45-.45.67-.68.05-.06.09-.13.14-.21-.24-.72-.96-.77-1.5-1.04-2-1.02-3.91-2.16-5.71-3.5-2.69-2-4.68-4.54-6.05-7.6-1.95-4.35-2.87-8.96-3.56-13.64-.76-5.16-.98-10.34-.42-15.54,1.15-10.63,6.99-17.92,16.26-22.74,2-1.04,2.06-1,1.49-3.18-2.3-8.82-3.87-17.79-6-26.65-.95-3.97-2.3-7.81-3.55-11.68-1.32-4.1-.45-6.32,3.4-8.24,9.51-4.73,20.81-4.53,29.96,4.11,3.19,3.01,5.52,6.6,7.38,10.54.36.77.55,1.65,1.34,2.43.61-.78.62-1.63.71-2.44.32-3.1.6-6.2.92-9.3.07-.71.23-1.42.38-2.12,1.56-7.1,6.62-9.57,12.92-8.87,3.81.42,7.26,1.8,10.38,4.04,6.21,4.47,10.17,10.52,12.49,17.71,2.64,8.18,3.27,16.41.44,24.72-1.33,3.89-3.33,7.42-5.56,10.84-.64.98-1.28,1.97-1.84,2.84.42.75.97.66,1.4.8,8.78,2.9,13.3,8.93,13.51,18.22.12,5.08-.85,10.02-2.37,14.85-.17.53-.35,1.06-.6,1.83,2.3.54,4.32,1.64,6.38,2.64,3.85,2.57,6.85,5.82,8.41,10.28.71,2.02,1.31,4.06,1.82,6.14.32,1.3.18,2.7.87,3.91-.02,4.33-.31,8.62-2.04,12.67-.3.71.07,1.02.49,1.4,4.93,4.38,10.69,6.39,17.23,5.52,12.49-1.66,19.45-13.33,18.78-23.25-.19-2.75-.67-5.53-2.44-7.84-.01-1.4-1.05-2.21-1.84-3.13-1.02-1.19-1.36-2.41-.58-3.84Zm-55.88,6.03c-1.2.51-1.97,1.57-2.97,2.34-4.83,3.69-10.25,6.28-15.83,8.58-9.73,3.67-19.75,5.97-30.17,6.42-.63-.06-1.26-.1-1.89-.18-2.95-.4-6.08-.17-8.58-2.27-.58-.49-1.05-.09-1.49.21-2.02,1.41-3.95,2.9-5.25,5.06-1.56,1.48-2.6,3.27-3.26,5.3-2.23,4.92-2.41,10.05-1.36,15.24,1.04,5.14,4.33,8.79,8.25,11.99,1.53,1.24,3.24,2.05,5.16,2.39,6.04,1.08,12.07,1.08,18.09-.19,3.27-.22,6.45-.96,9.62-1.72,5.49-1.31,10.98-2.67,16.11-5.14,7.57-2.63,14.7-6.12,20.9-11.25,3.31-2.73,6.25-5.86,8.39-9.65.97-.89,1.41-2.11,1.93-3.26,2.45-5.43,2.37-10.95.79-16.6-1.3-4.67-4.01-8.03-8.3-10.27-1.75-.91-3.68-1.02-5.45-1.73-.41-.16-.75-.02-1.04.33-1.21,1.47-2.43,2.93-3.65,4.4Zm6.62,52.71c-.49-1.45-1.46-2.63-2.16-3.96-.6-1.14-1.21-1.09-2.26-.51-15.3,8.42-31.63,13.42-49.07,14.67-1.45.1-1.61.68-1.11,1.82,1.82,6.58,4.51,12.82,8.13,18.59,6.42,10.24,15.92,15.73,27.79,16.97,10.64,1.11,19.99-2.44,28.3-8.92,7.5-5.84,13.12-13.25,17.59-21.58,4.42-8.23,7.01-17.12,9.23-26.13.32-1.32.59-2.65.86-3.98.13-.65-.02-1.12-.84-1.02-.48.06-.95.1-1.43.13-7.4.39-13.85-1.8-19.2-7.02-.32-.32-.59-.8-1.35-.59-3.13,4.89-7.1,9.21-12.03,12.69,1.15,1.64,2.22,3.03,2.98,4.62.59,1.25,1.01,2.52.94,3.91-.06,1.11-.49,2.02-1.54,2.52-1.06.51-2.05.25-2.92-.43-.68-.54-1.27-1.2-1.9-1.8Zm-41.7-42.58c10.26-1.89,19.62-5.91,28.31-11.64,3.01-1.99,4.31-5.06,5.51-8.11.74-1.88,1.14-3.97,1.74-5.95,1.33-4.42,1.58-8.93,1.23-13.5-.34-4.3-2.67-7.05-6.66-8.45-1.43-.5-2.88-.95-4.36-1.26-2.67-.56-4.3-1.98-4.38-4.84,1.1-4.13,3.24-7.77,5.32-11.44.47-.83.9-1.69,1.3-2.56,5.33-11.76,3.95-22.98-2.8-33.71-1.16-1.85-2.48-3.72-4.72-4.53-1.65-1.8-3.79-2.61-6.13-2.93-2.32-.32-3.22.27-3.96,2.47-.2.6-.36,1.23-.44,1.86-.33,2.45-.61,4.91-.93,7.36-.93,7.04-1.7,14.1-3.35,21.02-1.19,4.96-2.61,9.87-5.3,14.28-.26.06-.42.21-.4.49-.11.06-.21.15-.28.25-2.47-.08-3.17-.72-3.26-3.06-.09-2.26.38-4.45.86-6.63.18-.78.41-1.53-.19-2.27-1.25-1.54-1.62-3.42-2.03-5.31-.63-2.88-.96-5.83-2.06-8.59-.05-.89-.59-1.62-.87-2.42-1.51-4.24-3.58-8.18-6.83-11.4-4.71-4.66-10.39-5.95-16.75-4.87-.94.16-1.85.5-2.76.77-.88.26-1.06.71-.64,1.6.76,1.58,1.49,3.18,2.06,4.84,2.17,6.25,4.12,12.58,5.8,18.99,1.82,6.95,3.39,13.95,4.04,21.13.11,1.27.21,2.55-.07,3.82-.5,2.24-2.43,3.21-4.32,1.94-1.04-.69-1.66-.54-2.53.02-1.61,1.04-3.23,2.06-4.69,3.31-2.94,2.5-5,5.6-5.93,9.35-1.15,4.63-1.23,9.31-.33,14,.27,4,1.16,7.87,2.38,11.68,1.21,3.81,3.76,6.42,7.12,8.37,2.01,1.17,4.15,2.03,6.34,2.82,2.62.94,5.36,1.69,7.28,3.94.33.39.81.48,1.31.49,5.51.16,11.01.03,16.4-1.32Z"/>
  <path class="cls-10" d="m717.61,503.96c-.78,1.43-.43,2.65.58,3.84.79.92,1.83,1.74,1.84,3.13-1.56.3-2.26,1.69-3.25,2.66-3.84,3.78-8.3,6.39-13.6,7.55-5.01,1.09-10.07,1.45-15.18,1.29-.69-1.21-.55-2.61-.87-3.91-.51-2.08-1.12-4.12-1.82-6.14-1.56-4.46-4.56-7.71-8.41-10.28.77-.48,1.63-.63,2.52-.64,6.95-.15,13.82-1.19,20.73-1.81,6.34-.57,12.26.36,17.45,4.31Z"/>
  <path class="cls-3" d="m648.03,466.37c.08,2.86,1.71,4.28,4.38,4.84,1.48.31,2.93.77,4.36,1.26,3.99,1.4,6.33,4.14,6.66,8.45.36,4.57.11,9.08-1.23,13.5-.6,1.98-.99,4.07-1.74,5.95-1.2,3.05-2.5,6.12-5.51,8.11-8.69,5.73-18.06,9.75-28.31,11.64-1.3-.13-2.46-.63-3.57-1.29-1.59-.94-3.28-1.77-5.11-1.96-3.07-.32-5.88-1.37-8.66-2.6-6.26-2.76-11.93-6.38-16.87-11.15-2.73-2.64-4.74-5.76-6.62-9-.9-4.69-.82-9.38.33-14,.93-3.75,2.99-6.84,5.93-9.35,1.46-1.25,3.08-2.27,4.69-3.31.87-.56,1.49-.71,2.53-.02,1.89,1.27,3.82.3,4.32-1.94.28-1.26.18-2.54.07-3.82-.64-7.18-2.21-14.18-4.04-21.13-1.68-6.41-3.62-12.73-5.8-18.99-.57-1.65-1.3-3.26-2.06-4.84-.43-.88-.24-1.34.64-1.6.92-.27,1.82-.61,2.76-.77,6.36-1.08,12.04.21,16.75,4.87,3.25,3.22,5.32,7.16,6.83,11.4.29.8.83,1.53.87,2.42-.4,2.19-.67,4.39-.71,6.61-.03,1.59.02,3.2-.22,4.77-.78,5.03-1.17,10.1-1.63,15.16-.28,3.09,2.41,5.73,5.07,5.2,2.33-.47,4.32-3.28,4.17-5.88.08-.1.17-.19.28-.25.29-.04.4-.22.4-.49,2.69-4.42,4.12-9.32,5.3-14.28,1.65-6.92,2.43-13.98,3.35-21.02.32-2.45.6-4.91.93-7.36.08-.63.24-1.25.44-1.86.74-2.19,1.64-2.79,3.96-2.47,2.34.32,4.48,1.13,6.13,2.93-.14.79.3,1.4.69,1.98,3.7,5.57,4.84,11.87,5.12,18.37.34,7.64-1.17,15.02-3.54,22.24-.7,2.11-1.53,4.19-1.97,6.38-.23,1.16-.56,2.37.6,3.29Zm-16.73,12.95c1.86.14,3.49-.43,4.82-1.7.64-.6,1.07-1.39.65-2.37-.35-.82-.91-1.24-1.82-1.3-.87-.06-1.73-.32-2.59-.36-1.34-.07-2.72-.3-4.01.3-1.99.93-2.29,3.02-.64,4.44,1.04.89,2.28,1.07,3.58.99Zm-22.89-7.7c-1.57.06-2.49,1.6-1.84,3.08.52,1.17,2.5,2.26,3.74,2.05,1.35-.22,2.08-1.15,1.8-2.29-.36-1.49-2.2-2.91-3.71-2.85Z"/>
  <path class="cls-3" d="m668.35,562.69c.63.61,1.22,1.27,1.9,1.8.86.67,1.86.93,2.92.43,1.05-.5,1.48-1.41,1.54-2.52.07-1.39-.35-2.66-.94-3.91-.76-1.59-1.83-2.98-2.98-4.62,4.93-3.49,8.9-7.8,12.03-12.69.77-.21,1.03.27,1.35.59,5.35,5.21,11.8,7.41,19.2,7.02.48-.03.96-.07,1.43-.13.82-.1.97.36.84,1.02-.27,1.33-.53,2.66-.86,3.98-2.22,9.01-4.81,17.9-9.23,26.13-4.47,8.32-10.1,15.74-17.59,21.58-8.31,6.48-17.66,10.03-28.3,8.92-11.87-1.24-21.38-6.73-27.79-16.97-3.62-5.78-6.3-12.01-8.13-18.59.46.11.96.15,1.38.35,2.73,1.28,5.59,1.71,8.6,1.7,6.16-.03,12.24-.78,18.26-1.97,9.73-1.93,18.93-5.1,26.36-12.09Z"/>
  <path class="cls-4" d="m612.76,527.32c10.42-.44,20.44-2.75,30.17-6.41.35.18.77.34.78.81.04,1.34.73,2.43,1.28,3.58,1.14,2.38,2.08,4.84,2.65,7.43.71,3.27,1.25,6.56,1.6,9.91.55,5.22.53,10.34-1.07,15.39-5.13,2.47-10.62,3.83-16.11,5.14-3.17.76-6.35,1.5-9.62,1.72-.17-1.09-.92-1.58-1.88-1.94-6.2-2.31-11.72-5.79-16.81-9.95-4.13-3.38-7.28-7.59-9.68-12.35-.83-1.65-.84-3.58-1.76-5.19.66-2.03,1.7-3.83,3.26-5.3.66.44,1.29.92,1.99,1.29,4.49,2.37,8.97,2.14,13.38-.19,1.53-.81,2.35-2.09,1.84-3.93Z"/>
  <path class="cls-5" d="m648.16,558.02c1.6-5.04,1.62-10.17,1.07-15.39-.35-3.34-.89-6.63-1.6-9.91-.57-2.59-1.5-5.04-2.65-7.43-.55-1.15-1.24-2.24-1.28-3.58-.01-.47-.43-.63-.78-.81,5.58-2.29,11-4.88,15.84-8.58,1-.77,1.77-1.83,2.97-2.34,1.42-.12,2.65.42,3.8,1.17,2.52,1.65,4.43,3.87,5.89,6.48,1.83,3.28,3.14,6.77,4.2,10.38.87,2.99,1.2,6.07,1.83,9.1-2.13,3.79-5.08,6.92-8.39,9.65-6.2,5.13-13.33,8.61-20.9,11.25Z"/>
  <path class="cls-1" d="m688,522.43c5.11.16,10.17-.2,15.18-1.29,5.3-1.15,9.76-3.76,13.6-7.55.99-.97,1.69-2.36,3.25-2.66,1.77,2.31,2.25,5.09,2.44,7.84.67,9.92-6.29,21.58-18.78,23.25-6.54.87-12.3-1.14-17.23-5.52-.43-.38-.8-.7-.49-1.4,1.73-4.05,2.02-8.34,2.04-12.67Z"/>
  <path class="cls-2" d="m668.35,562.69c-7.43,6.99-16.63,10.16-26.36,12.09-6.02,1.19-12.1,1.94-18.26,1.97-3.01.01-5.87-.42-8.6-1.7-.42-.2-.92-.24-1.38-.35-.5-1.14-.34-1.72,1.11-1.82,17.44-1.25,33.77-6.26,49.07-14.67,1.04-.57,1.65-.62,2.26.51.71,1.33,1.68,2.51,2.16,3.96Z"/>
  <path class="cls-6" d="m592.3,535.45c.92,1.62.93,3.54,1.76,5.19,2.41,4.77,5.56,8.98,9.68,12.35,5.09,4.16,10.61,7.64,16.81,9.95.96.36,1.71.85,1.88,1.94-6.02,1.27-12.05,1.27-18.09.19-1.92-.34-3.63-1.15-5.16-2.39-3.92-3.2-7.22-6.85-8.25-11.99-1.05-5.19-.86-10.32,1.36-15.24Z"/>
  <path class="cls-8" d="m585.82,494.13c1.89,3.23,3.9,6.36,6.62,9,4.94,4.77,10.62,8.39,16.87,11.15,2.78,1.23,5.58,2.28,8.66,2.6,1.83.19,3.52,1.01,5.11,1.96,1.11.66,2.27,1.16,3.57,1.29-5.39,1.35-10.88,1.48-16.4,1.32-.49-.01-.97-.1-1.31-.49-1.92-2.25-4.67-3-7.28-3.94-2.19-.79-4.33-1.65-6.34-2.82-3.36-1.95-5.91-4.57-7.12-8.37-1.22-3.81-2.11-7.68-2.38-11.68Z"/>
  <path class="cls-11" d="m677.45,537.12c-.63-3.03-.96-6.11-1.83-9.1-1.06-3.61-2.37-7.1-4.2-10.38-1.45-2.61-3.36-4.83-5.89-6.48-1.15-.75-2.38-1.29-3.8-1.17,1.22-1.47,2.44-2.93,3.65-4.4.29-.35.63-.49,1.04-.33,1.77.71,3.7.82,5.45,1.73,4.3,2.24,7,5.61,8.3,10.27,1.58,5.65,1.66,11.17-.79,16.6-.52,1.16-.96,2.37-1.93,3.26Z"/>
  <path class="cls-2" d="m648.03,466.37c-1.16-.92-.83-2.13-.6-3.29.44-2.19,1.28-4.26,1.97-6.38,2.38-7.22,3.88-14.6,3.54-22.24-.29-6.5-1.42-12.8-5.12-18.37-.39-.58-.83-1.19-.69-1.98,2.24.81,3.56,2.69,4.72,4.53,6.75,10.73,8.14,21.96,2.8,33.71-.4.87-.83,1.73-1.3,2.56-2.09,3.67-4.23,7.31-5.32,11.44Z"/>
  <path class="cls-2" d="m626.33,458.91c.15,2.6-1.84,5.41-4.17,5.88-2.67.54-5.35-2.11-5.07-5.2.46-5.06.85-10.13,1.63-15.16.24-1.56.19-3.18.22-4.77.04-2.23.32-4.43.71-6.61,1.11,2.76,1.44,5.71,2.06,8.59.41,1.88.78,3.77,2.03,5.31.6.74.37,1.48.19,2.27-.49,2.18-.96,4.37-.86,6.63.1,2.34.79,2.98,3.26,3.06Z"/>
  <path class="cls-6" d="m612.76,527.32c.52,1.84-.3,3.12-1.84,3.93-4.41,2.32-8.89,2.56-13.38.19-.7-.37-1.33-.85-1.99-1.29,1.3-2.16,3.23-3.66,5.25-5.06.43-.3.91-.7,1.49-.21,2.5,2.1,5.63,1.87,8.58,2.27.63.09,1.26.12,1.89.18Z"/>
  <path class="cls-2" d="m627.02,458.17c0,.28-.11.46-.4.49-.01-.29.14-.44.4-.49Z"/>
  <path class="cls-9" d="m631.3,479.32c-1.3.09-2.54-.09-3.58-.99-1.65-1.42-1.36-3.51.64-4.44,1.29-.6,2.67-.37,4.01-.3.87.04,1.72.3,2.59.36.91.06,1.47.49,1.82,1.3.42.98-.01,1.77-.65,2.37-1.33,1.26-2.96,1.83-4.82,1.7Z"/>
  <path class="cls-9" d="m608.42,471.61c1.51-.06,3.35,1.35,3.71,2.85.27,1.14-.45,2.06-1.8,2.29-1.24.21-3.22-.88-3.74-2.05-.65-1.47.27-3.02,1.84-3.08Z"/>
</svg>