<?xml version="1.0" encoding="UTF-8"?>
<svg id="_图层_1" data-name="图层 1" xmlns="http://www.w3.org/2000/svg" viewBox="0 0 960 960">
  <defs>
    <style>
      .cls-1 {
        fill: #454794;
      }

      .cls-1, .cls-2, .cls-3, .cls-4, .cls-5, .cls-6, .cls-7, .cls-8, .cls-9, .cls-10, .cls-11 {
        stroke-width: 0px;
      }

      .cls-2 {
        fill: #a76861;
      }

      .cls-3 {
        fill: #b16b1f;
      }

      .cls-4 {
        fill: #fbfaf9;
      }

      .cls-5 {
        fill: #050404;
      }

      .cls-6 {
        fill: #a86760;
      }

      .cls-7 {
        fill: #fdd641;
      }

      .cls-8 {
        fill: #ac6a63;
      }

      .cls-9 {
        fill: #f5b89f;
      }

      .cls-10 {
        fill: #5b7dfd;
      }

      .cls-11 {
        fill: #f9d23f;
      }
    </style>
  </defs>
  <path class="cls-5" d="m342.73,517.15c1.29,1.02,1.5,2.37,1.2,3.89-1.65,8.43-5.44,15.65-12.04,21.25-1.01.85-1.38,1.62-1.26,3.01.58,6.65-.06,13.26-1.09,19.82-1.76,11.19-5.03,21.94-10.05,32.11-3.56,7.21-7.99,13.83-13.73,19.51-5.97,5.91-12.93,10.17-21.12,12.18-9.58,2.35-18.54.56-26.89-4.53-4.98-3.03-9.12-7.02-12.59-11.67-8.27-11.09-13.46-23.5-15.58-37.17-.2-1.31-.72-1.91-1.86-2.39-4.96-2.09-9.05-5.36-12.52-9.43-6.97-8.17-8.06-18.68-2.92-28.14.38-.69.74-1.38,1.11-2.08-.56-.67-1.28-.83-1.88-1.18-2.21-1.28-4.44-2.54-6.64-3.83-9.57-5.62-13.36-14.28-12.82-25.01.38-7.49,2.4-14.64,5.56-21.45,1.66-3.57,3.8-6.83,6.59-9.65,5.55-5.65,12.29-7.8,20.08-6.89.4.05.8.09,1.18.19,1.09.26,1.68.06,2.03-1.22,1.65-6.02,4.02-11.8,6.64-17.44,4.85-10.47,12.7-17.86,23.44-22.15,2.41-.96,4.9-1.43,7.5-1.26,4.66.31,8.25,3.6,8.96,8.22.36,2.33.09,4.62-.34,6.91-1.19,6.36-2.96,12.61-3.78,19.03-.5,3.96-.85,7.95-1.2,11.92-.15,1.69-.08,1.71,1.57,1.86,3.1.29,6.19.72,9.23,1.41,10,2.29,15.89,8.68,17.5,18.87.35,2.22.34,4.45.43,6.69-.61,3.87-1.84,7.57-3.02,11.29-.62,1.95-.6,1.91,1.25,2.68,4.39,1.83,7.96,4.65,10.39,8.81.32.55.71,1.05,1.07,1.57-.13.5.1.93.24,1.39,1.33,4.3,1.4,8.63.06,12.92-.69,2.22-.72,2.27,1.55,3.47,5.19,2.74,10.41,1.99,15.33-.61,6.63-3.51,10.74-9.29,13.47-16.14.81-1.21.99-2.63,1.36-3.99.63-2.35,1.05-2.69,3.61-2.78Zm-112.02,50.42c-.03.36.22.36.46.35.43.2.85.43,1.29.6,8.26,3.16,16.67,2.56,25.12.94.99.09,1.89-.32,2.8-.55,9.07-2.3,17.66-5.57,24.75-12,3.92-3.57,7.43-7.44,9.94-12.15,2.18-2.92,3.47-6.24,4.31-9.74,1.67-6.9-.13-11.3-6.06-15.08-2-1.28-2.07-1.28-3.67.61-.51.6-1.18,1.08-1.43,1.88-.2.11-.44.2-.61.35-4.62,4.16-9.88,7.24-15.63,9.57-3.38,1.37-6.81,2.65-10.03,4.39-4.15,1.11-8.26,2.36-12.57,2.78-5.79.56-11.57,1.17-17.39.27-2.23-.34-4.19-1.5-6.4-1.84-1.43-.49-2.84-1.03-4.29-1.45-1.21-.35-2.51-1.52-3.55-.97-1.11.59-1.25,2.3-1.68,3.56-2.05,5.97-2.33,11.9,1.09,17.48,2.98,4.86,7.14,8.5,12.41,10.79.37.16.73.33,1.14.24v-.03Zm5.38,11.53c.49,1.68.95,3.38,1.48,5.05,2.85,8.9,6.91,17.17,12.73,24.53,3.75,4.74,8.12,8.8,13.43,11.78,6.73,3.78,13.82,4.76,21.26,2.54,5.5-1.64,10.01-4.9,14.07-8.82,7.49-7.23,12.64-16,16.62-25.52,4.63-11.06,7.11-22.68,8.57-34.52.28-2.25.83-4.51.56-7.07-7.28,3.18-14.23,2.98-20.76-1.51-1.54,2.41-2.95,4.62-4.34,6.81.57.84,1.39,1.23,2.04,1.8,1.74,1.54,3.44,3.13,4.53,5.22,1.32,2.53,1.05,4.21-.92,6.22-2.55.11-4.65-.89-6.48-2.59-1.17-1.09-2.41-2.1-3.51-3.25-.82-.86-1.33-.74-2.14.04-2.65,2.55-5.41,4.98-8.53,6.95-7.45,4.71-15.55,7.8-24.19,9.36-8.05,1.46-16.14,2.15-24.23.15-.31-.08-.63-.1-.94.16.05.94.34,1.83.73,2.7Zm-30.06-95.65c-.12.1-.28.18-.35.32-3.63,7.28-5.61,14.97-4.98,23.1.41,5.37,3.09,9.66,7.88,12.42,2.35,1.35,4.65,2.81,7.04,4.08,5.15,2.72,10.35,5.34,15.53,8.01,3.52,1.81,7.29,2.87,11.18,3.19,3.5.29,7.04-.06,10.46-.86,8.87-2.08,16.95-6.01,24.61-10.86,1.14-.72,2.16-1.64,3.21-2.5.41-.34.97-.62.88-1.31.22-1.59.72-3.11,1.35-4.58,1.38-3.24,2.42-6.6,3.37-9.99,1.2-4.32,1.35-8.61.25-13.01-1.38-5.54-4.71-8.91-10.23-10.21-4.29-1.01-8.62-1.7-13.03-1.9-1.68-.07-3.36-.2-4.99-.64-1.96-.53-3.02-1.72-3.01-3.25,0-1.53,1.05-2.66,3.02-3.25.15-.05.31-.1.47-.1,1.44-.02,1.78-.81,1.86-2.16.41-7.03,1.21-14.01,2.49-20.94.78-4.24,1.67-8.47,2.25-12.74.59-4.32-.33-5.01-4.38-3.49-8.1,3.03-14.53,8.28-18.51,15.9-4.39,8.42-8.27,17.13-10.23,26.53-.21,1.01-.42,2.05-.98,2.94-1.01,1.63-3.01,1.75-4.22.27-.47-.57-.7-1.26-.86-1.96-.58-2.49-.57-2.51-3.04-2.71-1.03-.08-2.08-.13-3.11-.06-6.58.47-11.19,3.79-13.92,9.76Z"/>
  <path class="cls-10" d="m342.73,517.15c-2.56.08-2.98.42-3.61,2.78-.36,1.36-.54,2.78-1.36,3.99-1.86-.64-3.68-.54-5.62-.19-5.96,1.06-11.94,1.45-18,.36-2.33-.42-4.62-1.23-7.03-1.2-.36-.52-.75-1.03-1.07-1.57-2.43-4.16-5.99-6.98-10.39-8.81-1.84-.77-1.87-.73-1.25-2.68,1.18-3.72,2.42-7.42,3.02-11.29,2.4,1.85,4.94,3.45,7.61,4.9,6.55,3.56,13.5,5.7,20.87,6.64,3.8.48,7.59,1.07,11.26,2.26,1.62.53,3.09,1.31,4.25,2.58.6.65,1.19,1.3,1.29,2.24Z"/>
  <path class="cls-9" d="m206.03,483.44c2.73-5.98,7.34-9.29,13.92-9.76,1.03-.07,2.08-.02,3.11.06,2.47.2,2.46.22,3.04,2.71.16.7.4,1.39.86,1.96,1.21,1.47,3.21,1.35,4.22-.27.56-.9.77-1.93.98-2.94,1.95-9.41,5.83-18.12,10.23-26.53,3.98-7.62,10.41-12.87,18.51-15.9,4.06-1.52,4.98-.83,4.38,3.49-.59,4.27-1.47,8.5-2.25,12.74-1.28,6.93-2.08,13.91-2.49,20.94-.08,1.35-.41,2.14-1.86,2.16-.16,0-.32.05-.47.1-1.97.6-3.02,1.72-3.02,3.25,0,1.53,1.05,2.72,3.01,3.25,1.63.44,3.3.56,4.99.64,4.41.19,8.74.89,13.03,1.9,5.53,1.3,8.85,4.67,10.23,10.21,1.1,4.41.96,8.69-.25,13.01-.94,3.39-1.99,6.75-3.37,9.99-.63,1.48-1.12,2.99-1.35,4.58-1.22,0-2.32.39-3.43.91-2.53,1.19-5.19,1.99-7.92,2.6-4.37.97-8.82,1.14-13.26,1.52-4.75.41-9.36-.15-13.96-1.08-4.3-.87-8.44-2.32-12.54-3.86-13.79-5.16-20.8-15.57-23.2-29.66-.34-2,.07-4.17-1.15-6.01Zm36.69,10.73c1.47.11,2.86-.06,4.17-.83,1.34-.79,1.74-1.97,1.7-3.44-.04-1.4-.82-2.22-2.01-2.7-.73-.3-1.54-.63-2.3-.6-3.11.14-6-.66-8.88-1.67-1.42-.49-2.66-.01-3.57,1.17-.79,1.02-.82,2.3.04,3.56.82,1.2,1.9,2.15,3.22,2.81,2.41,1.2,4.97,1.68,7.63,1.71Z"/>
  <path class="cls-9" d="m305.39,565.59c1.97-2.01,2.24-3.69.92-6.22-1.09-2.09-2.79-3.68-4.53-5.22-.65-.58-1.47-.97-2.04-1.8,1.39-2.18,2.8-4.39,4.34-6.81,6.52,4.49,13.47,4.69,20.76,1.51.26,2.57-.28,4.82-.56,7.07-1.46,11.85-3.94,23.46-8.57,34.52-3.98,9.52-9.14,18.29-16.62,25.52-4.06,3.92-8.58,7.18-14.07,8.82-7.45,2.22-14.53,1.24-21.26-2.54-5.3-2.98-9.68-7.03-13.43-11.78-5.81-7.36-9.88-15.63-12.73-24.53-.53-1.67-.99-3.36-1.48-5.05.76-.1,1.39.29,2.05.56,6.81,2.74,13.87,4.2,21.22,4.15,2.07-.01,4.12-.4,6.2-.41,7.51-.04,14.73-1.61,21.66-4.46,5.17-2.13,10.18-4.61,15.39-6.62.73-.28,1.42-.74,2.03-1.24,1.69-1.4,1.95-3.56.74-5.49Z"/>
  <path class="cls-7" d="m257.59,569.47c-8.45,1.61-16.85,2.22-25.12-.94-.44-.17-.86-.4-1.29-.6-.15-.12-.31-.24-.46-.35,0,0,.01.03.01.03.43-.99-.29-1.68-.71-2.39-4.37-7.37-5.4-15.36-4.44-23.71.14-1.2.16-2.36.02-3.54,2.21.34,4.17,1.49,6.4,1.84,5.82.9,11.6.29,17.39-.27,4.31-.42,8.42-1.67,12.57-2.78-.27,1.17.28,2.2.63,3.24.88,2.59,1.28,5.24,1.3,7.98.02,3.69-.47,7.32-1.15,10.91-.75,3.95-2.2,7.66-5.16,10.59Z"/>
  <path class="cls-3" d="m257.59,569.47c2.96-2.92,4.4-6.64,5.16-10.59.68-3.59,1.17-7.22,1.15-10.91-.01-2.74-.42-5.39-1.3-7.98-.35-1.04-.9-2.07-.63-3.24,3.22-1.73,6.65-3.02,10.03-4.39,5.76-2.33,11.01-5.41,15.63-9.57.17-.15.4-.23.61-.35,2.28,1.13,3.09,3.34,3.94,5.47,2.15,5.41,2.7,11.1,2.9,16.85-2.51,4.7-6.01,8.58-9.94,12.15-7.08,6.43-15.68,9.7-24.75,12-.92.23-1.82.64-2.8.55Z"/>
  <path class="cls-6" d="m206.03,483.44c1.23,1.83.81,4.01,1.15,6.01,2.41,14.09,9.42,24.5,23.2,29.66,4.11,1.54,8.24,2.99,12.54,3.86,4.6.93,9.21,1.49,13.96,1.08,4.44-.38,8.89-.55,13.26-1.52,2.73-.61,5.39-1.41,7.92-2.6,1.1-.52,2.21-.9,3.43-.91.09.69-.47.97-.88,1.31-1.05.86-2.07,1.78-3.21,2.5-7.66,4.85-15.74,8.78-24.61,10.86-3.42.8-6.96,1.16-10.46.86-3.9-.33-7.67-1.38-11.18-3.19-5.18-2.66-10.38-5.29-15.53-8.01-2.4-1.27-4.69-2.72-7.04-4.08-4.8-2.77-7.47-7.06-7.88-12.42-.62-8.13,1.36-15.82,4.98-23.1.07-.13.23-.21.35-.32Z"/>
  <path class="cls-2" d="m305.39,565.59c1.21,1.92.94,4.09-.74,5.49-.61.5-1.3.96-2.03,1.24-5.22,2.01-10.23,4.5-15.39,6.62-6.93,2.85-14.15,4.42-21.66,4.46-2.08.01-4.13.4-6.2.41-7.35.05-14.41-1.41-21.22-4.15-.66-.27-1.29-.66-2.05-.56-.39-.87-.68-1.76-.73-2.7.31-.25.63-.23.94-.16,8.09,2,16.19,1.31,24.23-.15,8.64-1.57,16.74-4.66,24.19-9.36,3.12-1.97,5.88-4.4,8.53-6.95.81-.77,1.32-.89,2.14-.04,1.1,1.15,2.34,2.17,3.51,3.25,1.83,1.69,3.93,2.7,6.48,2.59Z"/>
  <path class="cls-1" d="m307.12,522.88c2.41-.03,4.7.78,7.03,1.2,6.06,1.09,12.03.7,18-.36,1.94-.35,3.77-.45,5.62.19-2.73,6.85-6.84,12.63-13.47,16.14-4.92,2.6-10.13,3.35-15.33.61-2.27-1.2-2.24-1.25-1.55-3.47,1.34-4.29,1.26-8.62-.06-12.92-.14-.45-.37-.89-.24-1.39Z"/>
  <path class="cls-4" d="m225.6,537.96c.14,1.18.12,2.34-.02,3.54-.96,8.35.07,16.34,4.44,23.71.42.7,1.14,1.4.71,2.39-.42.09-.78-.08-1.14-.24-5.27-2.3-9.43-5.93-12.41-10.79-3.42-5.58-3.15-11.51-1.09-17.48.43-1.26.57-2.97,1.68-3.56,1.04-.55,2.35.62,3.55.97,1.45.42,2.86.96,4.29,1.45Z"/>
  <path class="cls-11" d="m295.08,544.76c-.2-5.75-.75-11.45-2.9-16.85-.85-2.14-1.66-4.35-3.94-5.47.25-.8.92-1.28,1.43-1.88,1.59-1.89,1.66-1.89,3.67-.61,5.93,3.78,7.72,8.18,6.06,15.08-.84,3.5-2.13,6.82-4.31,9.74Z"/>
  <path class="cls-4" d="m230.72,567.57c.15.12.31.24.46.35-.25,0-.49,0-.46-.35Z"/>
  <path class="cls-8" d="m242.72,494.17c-2.66-.03-5.22-.51-7.63-1.71-1.32-.66-2.39-1.61-3.22-2.81-.87-1.26-.83-2.54-.04-3.56.91-1.18,2.15-1.66,3.57-1.17,2.88,1,5.78,1.8,8.88,1.67.76-.03,1.57.3,2.3.6,1.18.48,1.97,1.3,2.01,2.7.04,1.47-.36,2.65-1.7,3.44-1.3.77-2.7.94-4.17.83Z"/>
</svg>