<?xml version="1.0" encoding="UTF-8"?>
<svg id="_图层_1" data-name="图层 1" xmlns="http://www.w3.org/2000/svg" viewBox="0 0 960 960">
  <defs>
    <style>
      .cls-1 {
        fill: #454794;
      }

      .cls-1, .cls-2, .cls-3, .cls-4, .cls-5, .cls-6, .cls-7, .cls-8, .cls-9, .cls-10, .cls-11, .cls-12, .cls-13 {
        stroke-width: 0px;
      }

      .cls-2 {
        fill: #a76861;
      }

      .cls-3 {
        fill: #f6b89f;
      }

      .cls-4 {
        fill: #fed641;
      }

      .cls-5 {
        fill: #b16b1f;
      }

      .cls-6 {
        fill: #fbfaf9;
      }

      .cls-7 {
        fill: #050404;
      }

      .cls-8 {
        fill: #a86760;
      }

      .cls-9 {
        fill: #fdd641;
      }

      .cls-10 {
        fill: #ac6a63;
      }

      .cls-11 {
        fill: #f5b89f;
      }

      .cls-12 {
        fill: #5b7dfd;
      }

      .cls-13 {
        fill: #f9d23f;
      }
    </style>
  </defs>
  <path class="cls-7" d="m717.61,503.96c2.12-1.04,2.78-.93,4.38.76,9.97,10.51,8.82,26.21-.41,35.52-2.1,2.12-4.44,3.93-7.11,5.23-1.31.64-1.82,1.41-1.88,2.9-.94,21.11-9.44,38.91-24.21,53.75-7.21,7.25-15.77,12.5-25.83,14.92-13.79,3.32-26.01.19-36.41-9.42-9.85-9.1-16.41-20.13-18.66-33.5-.19-1.11-.48-1.71-1.71-1.81-10.84-.86-22.55-13.84-21.25-28.3.71-7.91,3.3-14.75,9.38-20.06.24-.21.45-.45.67-.68.05-.06.09-.13.14-.21-.24-.72-.96-.77-1.5-1.04-2-1.02-3.91-2.16-5.71-3.5-2.69-2-4.68-4.54-6.05-7.6-1.95-4.35-2.87-8.96-3.56-13.64-.76-5.16-.98-10.34-.42-15.54,1.15-10.63,6.99-17.92,16.26-22.74,2-1.04,2.06-1,1.49-3.18-2.3-8.82-3.87-17.79-6-26.65-.95-3.97-2.3-7.81-3.55-11.68-1.32-4.1-.45-6.32,3.4-8.24,9.51-4.73,20.81-4.53,29.96,4.11,3.19,3.01,5.52,6.6,7.38,10.54.36.77.55,1.65,1.34,2.43.61-.78.62-1.63.71-2.44.32-3.1.6-6.2.92-9.3.07-.71.23-1.42.38-2.12,1.56-7.1,6.62-9.57,12.92-8.87,3.81.42,7.26,1.8,10.38,4.04,6.21,4.47,10.17,10.52,12.49,17.71,2.64,8.18,3.27,16.41.44,24.72-1.33,3.89-3.33,7.42-5.56,10.84-.64.98-1.28,1.97-1.84,2.84.42.75.97.66,1.4.8,8.78,2.9,13.3,8.93,13.51,18.22.12,5.08-.85,10.02-2.37,14.85-.17.53-.35,1.06-.6,1.83,2.3.54,4.32,1.64,6.38,2.64,3.85,2.57,6.85,5.82,8.41,10.28.71,2.02,1.31,4.06,1.82,6.14.32,1.3.18,2.7.87,3.91-.02,4.33-.31,8.62-2.04,12.67-.3.71.07,1.02.49,1.4,4.93,4.38,10.69,6.39,17.23,5.52,12.49-1.66,19.45-13.33,18.78-23.25-.19-2.75-.67-5.53-2.44-7.84-.01-1.4-1.05-2.21-1.84-3.13-1.02-1.19-1.36-2.41-.58-3.84Zm-55.88,6.03c-1.2.51-1.97,1.57-2.97,2.34-4.83,3.69-10.25,6.28-15.83,8.58-9.73,3.67-19.75,5.97-30.17,6.42-.63-.06-1.26-.1-1.89-.18-2.95-.4-6.08-.17-8.58-2.27-.58-.49-1.05-.09-1.49.21-2.02,1.41-3.95,2.9-5.25,5.06-1.56,1.48-2.6,3.27-3.26,5.3-2.23,4.92-2.41,10.05-1.36,15.24,1.04,5.14,4.33,8.79,8.25,11.99,1.53,1.24,3.24,2.05,5.16,2.39,6.04,1.08,12.07,1.08,18.09-.19,3.27-.22,6.45-.96,9.62-1.72,5.49-1.31,10.98-2.67,16.11-5.14,7.57-2.63,14.7-6.12,20.9-11.25,3.31-2.73,6.25-5.86,8.39-9.65.97-.89,1.41-2.11,1.93-3.26,2.45-5.43,2.37-10.95.79-16.6-1.3-4.67-4.01-8.03-8.3-10.27-1.75-.91-3.68-1.02-5.45-1.73-.41-.16-.75-.02-1.04.33-1.21,1.47-2.43,2.93-3.65,4.4Zm6.62,52.71c-.49-1.45-1.46-2.63-2.16-3.96-.6-1.14-1.21-1.09-2.26-.51-15.3,8.42-31.63,13.42-49.07,14.67-1.45.1-1.61.68-1.11,1.82,1.82,6.58,4.51,12.82,8.13,18.59,6.42,10.24,15.92,15.73,27.79,16.97,10.64,1.11,19.99-2.44,28.3-8.92,7.5-5.84,13.12-13.25,17.59-21.58,4.42-8.23,7.01-17.12,9.23-26.13.32-1.32.59-2.65.86-3.98.13-.65-.02-1.12-.84-1.02-.48.06-.95.1-1.43.13-7.4.39-13.85-1.8-19.2-7.02-.32-.32-.59-.8-1.35-.59-3.13,4.89-7.1,9.21-12.03,12.69,1.15,1.64,2.22,3.03,2.98,4.62.59,1.25,1.01,2.52.94,3.91-.06,1.11-.49,2.02-1.54,2.52-1.06.51-2.05.25-2.92-.43-.68-.54-1.27-1.2-1.9-1.8Zm-41.7-42.58c10.26-1.89,19.62-5.91,28.31-11.64,3.01-1.99,4.31-5.06,5.51-8.11.74-1.88,1.14-3.97,1.74-5.95,1.33-4.42,1.58-8.93,1.23-13.5-.34-4.3-2.67-7.05-6.66-8.45-1.43-.5-2.88-.95-4.36-1.26-2.67-.56-4.3-1.98-4.38-4.84,1.1-4.13,3.24-7.77,5.32-11.44.47-.83.9-1.69,1.3-2.56,5.33-11.76,3.95-22.98-2.8-33.71-1.16-1.85-2.48-3.72-4.72-4.53-1.65-1.8-3.79-2.61-6.13-2.93-2.32-.32-3.22.27-3.96,2.47-.2.6-.36,1.23-.44,1.86-.33,2.45-.61,4.91-.93,7.36-.93,7.04-1.7,14.1-3.35,21.02-1.19,4.96-2.61,9.87-5.3,14.28-.26.06-.42.21-.4.49-.11.06-.21.15-.28.25-2.47-.08-3.17-.72-3.26-3.06-.09-2.26.38-4.45.86-6.63.18-.78.41-1.53-.19-2.27-1.25-1.54-1.62-3.42-2.03-5.31-.63-2.88-.96-5.83-2.06-8.59-.05-.89-.59-1.62-.87-2.42-1.51-4.24-3.58-8.18-6.83-11.4-4.71-4.66-10.39-5.95-16.75-4.87-.94.16-1.85.5-2.76.77-.88.26-1.06.71-.64,1.6.76,1.58,1.49,3.18,2.06,4.84,2.17,6.25,4.12,12.58,5.8,18.99,1.82,6.95,3.39,13.95,4.04,21.13.11,1.27.21,2.55-.07,3.82-.5,2.24-2.43,3.21-4.32,1.94-1.04-.69-1.66-.54-2.53.02-1.61,1.04-3.23,2.06-4.69,3.31-2.94,2.5-5,5.6-5.93,9.35-1.15,4.63-1.23,9.31-.33,14,.27,4,1.16,7.87,2.38,11.68,1.21,3.81,3.76,6.42,7.12,8.37,2.01,1.17,4.15,2.03,6.34,2.82,2.62.94,5.36,1.69,7.28,3.94.33.39.81.48,1.31.49,5.51.16,11.01.03,16.4-1.32Z"/>
  <path class="cls-7" d="m342.73,517.15c1.29,1.02,1.5,2.37,1.2,3.89-1.65,8.43-5.44,15.65-12.04,21.25-1.01.85-1.38,1.62-1.26,3.01.58,6.65-.06,13.26-1.09,19.82-1.76,11.19-5.03,21.94-10.05,32.11-3.56,7.21-7.99,13.83-13.73,19.51-5.97,5.91-12.93,10.17-21.12,12.18-9.58,2.35-18.54.56-26.89-4.53-4.98-3.03-9.12-7.02-12.59-11.67-8.27-11.09-13.46-23.5-15.58-37.17-.2-1.31-.72-1.91-1.86-2.39-4.96-2.09-9.05-5.36-12.52-9.43-6.97-8.17-8.06-18.68-2.92-28.14.38-.69.74-1.38,1.11-2.08-.56-.67-1.28-.83-1.88-1.18-2.21-1.28-4.44-2.54-6.64-3.83-9.57-5.62-13.36-14.28-12.82-25.01.38-7.49,2.4-14.64,5.56-21.45,1.66-3.57,3.8-6.83,6.59-9.65,5.55-5.65,12.29-7.8,20.08-6.89.4.05.8.09,1.18.19,1.09.26,1.68.06,2.03-1.22,1.65-6.02,4.02-11.8,6.64-17.44,4.85-10.47,12.7-17.86,23.44-22.15,2.41-.96,4.9-1.43,7.5-1.26,4.66.31,8.25,3.6,8.96,8.22.36,2.33.09,4.62-.34,6.91-1.19,6.36-2.96,12.61-3.78,19.03-.5,3.96-.85,7.95-1.2,11.92-.15,1.69-.08,1.71,1.57,1.86,3.1.29,6.19.72,9.23,1.41,10,2.29,15.89,8.68,17.5,18.87.35,2.22.34,4.45.43,6.69-.61,3.87-1.84,7.57-3.02,11.29-.62,1.95-.6,1.91,1.25,2.68,4.39,1.83,7.96,4.65,10.39,8.81.32.55.71,1.05,1.07,1.57-.13.5.1.93.24,1.39,1.33,4.3,1.4,8.63.06,12.92-.69,2.22-.72,2.27,1.55,3.47,5.19,2.74,10.41,1.99,15.33-.61,6.63-3.51,10.74-9.29,13.47-16.14.81-1.21.99-2.63,1.36-3.99.63-2.35,1.05-2.69,3.61-2.78Zm-112.02,50.42c-.03.36.22.36.46.35.43.2.85.43,1.29.6,8.26,3.16,16.67,2.56,25.12.94.99.09,1.89-.32,2.8-.55,9.07-2.3,17.66-5.57,24.75-12,3.92-3.57,7.43-7.44,9.94-12.15,2.18-2.92,3.47-6.24,4.31-9.74,1.67-6.9-.13-11.3-6.06-15.08-2-1.28-2.07-1.28-3.67.61-.51.6-1.18,1.08-1.43,1.88-.2.11-.44.2-.61.35-4.62,4.16-9.88,7.24-15.63,9.57-3.38,1.37-6.81,2.65-10.03,4.39-4.15,1.11-8.26,2.36-12.57,2.78-5.79.56-11.57,1.17-17.39.27-2.23-.34-4.19-1.5-6.4-1.84-1.43-.49-2.84-1.03-4.29-1.45-1.21-.35-2.51-1.52-3.55-.97-1.11.59-1.25,2.3-1.68,3.56-2.05,5.97-2.33,11.9,1.09,17.48,2.98,4.86,7.14,8.5,12.41,10.79.37.16.73.33,1.14.24v-.03Zm5.38,11.53c.49,1.68.95,3.38,1.48,5.05,2.85,8.9,6.91,17.17,12.73,24.53,3.75,4.74,8.12,8.8,13.43,11.78,6.73,3.78,13.82,4.76,21.26,2.54,5.5-1.64,10.01-4.9,14.07-8.82,7.49-7.23,12.64-16,16.62-25.52,4.63-11.06,7.11-22.68,8.57-34.52.28-2.25.83-4.51.56-7.07-7.28,3.18-14.23,2.98-20.76-1.51-1.54,2.41-2.95,4.62-4.34,6.81.57.84,1.39,1.23,2.04,1.8,1.74,1.54,3.44,3.13,4.53,5.22,1.32,2.53,1.05,4.21-.92,6.22-2.55.11-4.65-.89-6.48-2.59-1.17-1.09-2.41-2.1-3.51-3.25-.82-.86-1.33-.74-2.14.04-2.65,2.55-5.41,4.98-8.53,6.95-7.45,4.71-15.55,7.8-24.19,9.36-8.05,1.46-16.14,2.15-24.23.15-.31-.08-.63-.1-.94.16.05.94.34,1.83.73,2.7Zm-30.06-95.65c-.12.1-.28.18-.35.32-3.63,7.28-5.61,14.97-4.98,23.1.41,5.37,3.09,9.66,7.88,12.42,2.35,1.35,4.65,2.81,7.04,4.08,5.15,2.72,10.35,5.34,15.53,8.01,3.52,1.81,7.29,2.87,11.18,3.19,3.5.29,7.04-.06,10.46-.86,8.87-2.08,16.95-6.01,24.61-10.86,1.14-.72,2.16-1.64,3.21-2.5.41-.34.97-.62.88-1.31.22-1.59.72-3.11,1.35-4.58,1.38-3.24,2.42-6.6,3.37-9.99,1.2-4.32,1.35-8.61.25-13.01-1.38-5.54-4.71-8.91-10.23-10.21-4.29-1.01-8.62-1.7-13.03-1.9-1.68-.07-3.36-.2-4.99-.64-1.96-.53-3.02-1.72-3.01-3.25,0-1.53,1.05-2.66,3.02-3.25.15-.05.31-.1.47-.1,1.44-.02,1.78-.81,1.86-2.16.41-7.03,1.21-14.01,2.49-20.94.78-4.24,1.67-8.47,2.25-12.74.59-4.32-.33-5.01-4.38-3.49-8.1,3.03-14.53,8.28-18.51,15.9-4.39,8.42-8.27,17.13-10.23,26.53-.21,1.01-.42,2.05-.98,2.94-1.01,1.63-3.01,1.75-4.22.27-.47-.57-.7-1.26-.86-1.96-.58-2.49-.57-2.51-3.04-2.71-1.03-.08-2.08-.13-3.11-.06-6.58.47-11.19,3.79-13.92,9.76Z"/>
  <path class="cls-12" d="m717.61,503.96c-.78,1.43-.43,2.65.58,3.84.79.92,1.83,1.74,1.84,3.13-1.56.3-2.26,1.69-3.25,2.66-3.84,3.78-8.3,6.39-13.6,7.55-5.01,1.09-10.07,1.45-15.18,1.29-.69-1.21-.55-2.61-.87-3.91-.51-2.08-1.12-4.12-1.82-6.14-1.56-4.46-4.56-7.71-8.41-10.28.77-.48,1.63-.63,2.52-.64,6.95-.15,13.82-1.19,20.73-1.81,6.34-.57,12.26.36,17.45,4.31Z"/>
  <path class="cls-12" d="m342.73,517.15c-2.56.08-2.98.42-3.61,2.78-.36,1.36-.54,2.78-1.36,3.99-1.86-.64-3.68-.54-5.62-.19-5.96,1.06-11.94,1.45-18,.36-2.33-.42-4.62-1.23-7.03-1.2-.36-.52-.75-1.03-1.07-1.57-2.43-4.16-5.99-6.98-10.39-8.81-1.84-.77-1.87-.73-1.25-2.68,1.18-3.72,2.42-7.42,3.02-11.29,2.4,1.85,4.94,3.45,7.61,4.9,6.55,3.56,13.5,5.7,20.87,6.64,3.8.48,7.59,1.07,11.26,2.26,1.62.53,3.09,1.31,4.25,2.58.6.65,1.19,1.3,1.29,2.24Z"/>
  <path class="cls-3" d="m648.03,466.37c.08,2.86,1.71,4.28,4.38,4.84,1.48.31,2.93.77,4.36,1.26,3.99,1.4,6.33,4.14,6.66,8.45.36,4.57.11,9.08-1.23,13.5-.6,1.98-.99,4.07-1.74,5.95-1.2,3.05-2.5,6.12-5.51,8.11-8.69,5.73-18.06,9.75-28.31,11.64-1.3-.13-2.46-.63-3.57-1.29-1.59-.94-3.28-1.77-5.11-1.96-3.07-.32-5.88-1.37-8.66-2.6-6.26-2.76-11.93-6.38-16.87-11.15-2.73-2.64-4.74-5.76-6.62-9-.9-4.69-.82-9.38.33-14,.93-3.75,2.99-6.84,5.93-9.35,1.46-1.25,3.08-2.27,4.69-3.31.87-.56,1.49-.71,2.53-.02,1.89,1.27,3.82.3,4.32-1.94.28-1.26.18-2.54.07-3.82-.64-7.18-2.21-14.18-4.04-21.13-1.68-6.41-3.62-12.73-5.8-18.99-.57-1.65-1.3-3.26-2.06-4.84-.43-.88-.24-1.34.64-1.6.92-.27,1.82-.61,2.76-.77,6.36-1.08,12.04.21,16.75,4.87,3.25,3.22,5.32,7.16,6.83,11.4.29.8.83,1.53.87,2.42-.4,2.19-.67,4.39-.71,6.61-.03,1.59.02,3.2-.22,4.77-.78,5.03-1.17,10.1-1.63,15.16-.28,3.09,2.41,5.73,5.07,5.2,2.33-.47,4.32-3.28,4.17-5.88.08-.1.17-.19.28-.25.29-.04.4-.22.4-.49,2.69-4.42,4.12-9.32,5.3-14.28,1.65-6.92,2.43-13.98,3.35-21.02.32-2.45.6-4.91.93-7.36.08-.63.24-1.25.44-1.86.74-2.19,1.64-2.79,3.96-2.47,2.34.32,4.48,1.13,6.13,2.93-.14.79.3,1.4.69,1.98,3.7,5.57,4.84,11.87,5.12,18.37.34,7.64-1.17,15.02-3.54,22.24-.7,2.11-1.53,4.19-1.97,6.38-.23,1.16-.56,2.37.6,3.29Zm-16.73,12.95c1.86.14,3.49-.43,4.82-1.7.64-.6,1.07-1.39.65-2.37-.35-.82-.91-1.24-1.82-1.3-.87-.06-1.73-.32-2.59-.36-1.34-.07-2.72-.3-4.01.3-1.99.93-2.29,3.02-.64,4.44,1.04.89,2.28,1.07,3.58.99Zm-22.89-7.7c-1.57.06-2.49,1.6-1.84,3.08.52,1.17,2.5,2.26,3.74,2.05,1.35-.22,2.08-1.15,1.8-2.29-.36-1.49-2.2-2.91-3.71-2.85Z"/>
  <path class="cls-3" d="m668.35,562.69c.63.61,1.22,1.27,1.9,1.8.86.67,1.86.93,2.92.43,1.05-.5,1.48-1.41,1.54-2.52.07-1.39-.35-2.66-.94-3.91-.76-1.59-1.83-2.98-2.98-4.62,4.93-3.49,8.9-7.8,12.03-12.69.77-.21,1.03.27,1.35.59,5.35,5.21,11.8,7.41,19.2,7.02.48-.03.96-.07,1.43-.13.82-.1.97.36.84,1.02-.27,1.33-.53,2.66-.86,3.98-2.22,9.01-4.81,17.9-9.23,26.13-4.47,8.32-10.1,15.74-17.59,21.58-8.31,6.48-17.66,10.03-28.3,8.92-11.87-1.24-21.38-6.73-27.79-16.97-3.62-5.78-6.3-12.01-8.13-18.59.46.11.96.15,1.38.35,2.73,1.28,5.59,1.71,8.6,1.7,6.16-.03,12.24-.78,18.26-1.97,9.73-1.93,18.93-5.1,26.36-12.09Z"/>
  <path class="cls-4" d="m612.76,527.32c10.42-.44,20.44-2.75,30.17-6.41.35.18.77.34.78.81.04,1.34.73,2.43,1.28,3.58,1.14,2.38,2.08,4.84,2.65,7.43.71,3.27,1.25,6.56,1.6,9.91.55,5.22.53,10.34-1.07,15.39-5.13,2.47-10.62,3.83-16.11,5.14-3.17.76-6.35,1.5-9.62,1.72-.17-1.09-.92-1.58-1.88-1.94-6.2-2.31-11.72-5.79-16.81-9.95-4.13-3.38-7.28-7.59-9.68-12.35-.83-1.65-.84-3.58-1.76-5.19.66-2.03,1.7-3.83,3.26-5.3.66.44,1.29.92,1.99,1.29,4.49,2.37,8.97,2.14,13.38-.19,1.53-.81,2.35-2.09,1.84-3.93Z"/>
  <path class="cls-5" d="m648.16,558.02c1.6-5.04,1.62-10.17,1.07-15.39-.35-3.34-.89-6.63-1.6-9.91-.57-2.59-1.5-5.04-2.65-7.43-.55-1.15-1.24-2.24-1.28-3.58-.01-.47-.43-.63-.78-.81,5.58-2.29,11-4.88,15.84-8.58,1-.77,1.77-1.83,2.97-2.34,1.42-.12,2.65.42,3.8,1.17,2.52,1.65,4.43,3.87,5.89,6.48,1.83,3.28,3.14,6.77,4.2,10.38.87,2.99,1.2,6.07,1.83,9.1-2.13,3.79-5.08,6.92-8.39,9.65-6.2,5.13-13.33,8.61-20.9,11.25Z"/>
  <path class="cls-1" d="m688,522.43c5.11.16,10.17-.2,15.18-1.29,5.3-1.15,9.76-3.76,13.6-7.55.99-.97,1.69-2.36,3.25-2.66,1.77,2.31,2.25,5.09,2.44,7.84.67,9.92-6.29,21.58-18.78,23.25-6.54.87-12.3-1.14-17.23-5.52-.43-.38-.8-.7-.49-1.4,1.73-4.05,2.02-8.34,2.04-12.67Z"/>
  <path class="cls-2" d="m668.35,562.69c-7.43,6.99-16.63,10.16-26.36,12.09-6.02,1.19-12.1,1.94-18.26,1.97-3.01.01-5.87-.42-8.6-1.7-.42-.2-.92-.24-1.38-.35-.5-1.14-.34-1.72,1.11-1.82,17.44-1.25,33.77-6.26,49.07-14.67,1.04-.57,1.65-.62,2.26.51.71,1.33,1.68,2.51,2.16,3.96Z"/>
  <path class="cls-6" d="m592.3,535.45c.92,1.62.93,3.54,1.76,5.19,2.41,4.77,5.56,8.98,9.68,12.35,5.09,4.16,10.61,7.64,16.81,9.95.96.36,1.71.85,1.88,1.94-6.02,1.27-12.05,1.27-18.09.19-1.92-.34-3.63-1.15-5.16-2.39-3.92-3.2-7.22-6.85-8.25-11.99-1.05-5.19-.86-10.32,1.36-15.24Z"/>
  <path class="cls-8" d="m585.82,494.13c1.89,3.23,3.9,6.36,6.62,9,4.94,4.77,10.62,8.39,16.87,11.15,2.78,1.23,5.58,2.28,8.66,2.6,1.83.19,3.52,1.01,5.11,1.96,1.11.66,2.27,1.16,3.57,1.29-5.39,1.35-10.88,1.48-16.4,1.32-.49-.01-.97-.1-1.31-.49-1.92-2.25-4.67-3-7.28-3.94-2.19-.79-4.33-1.65-6.34-2.82-3.36-1.95-5.91-4.57-7.12-8.37-1.22-3.81-2.11-7.68-2.38-11.68Z"/>
  <path class="cls-13" d="m677.45,537.12c-.63-3.03-.96-6.11-1.83-9.1-1.06-3.61-2.37-7.1-4.2-10.38-1.45-2.61-3.36-4.83-5.89-6.48-1.15-.75-2.38-1.29-3.8-1.17,1.22-1.47,2.44-2.93,3.65-4.4.29-.35.63-.49,1.04-.33,1.77.71,3.7.82,5.45,1.73,4.3,2.24,7,5.61,8.3,10.27,1.58,5.65,1.66,11.17-.79,16.6-.52,1.16-.96,2.37-1.93,3.26Z"/>
  <path class="cls-2" d="m648.03,466.37c-1.16-.92-.83-2.13-.6-3.29.44-2.19,1.28-4.26,1.97-6.38,2.38-7.22,3.88-14.6,3.54-22.24-.29-6.5-1.42-12.8-5.12-18.37-.39-.58-.83-1.19-.69-1.98,2.24.81,3.56,2.69,4.72,4.53,6.75,10.73,8.14,21.96,2.8,33.71-.4.87-.83,1.73-1.3,2.56-2.09,3.67-4.23,7.31-5.32,11.44Z"/>
  <path class="cls-2" d="m626.33,458.91c.15,2.6-1.84,5.41-4.17,5.88-2.67.54-5.35-2.11-5.07-5.2.46-5.06.85-10.13,1.63-15.16.24-1.56.19-3.18.22-4.77.04-2.23.32-4.43.71-6.61,1.11,2.76,1.44,5.71,2.06,8.59.41,1.88.78,3.77,2.03,5.31.6.74.37,1.48.19,2.27-.49,2.18-.96,4.37-.86,6.63.1,2.34.79,2.98,3.26,3.06Z"/>
  <path class="cls-6" d="m612.76,527.32c.52,1.84-.3,3.12-1.84,3.93-4.41,2.32-8.89,2.56-13.38.19-.7-.37-1.33-.85-1.99-1.29,1.3-2.16,3.23-3.66,5.25-5.06.43-.3.91-.7,1.49-.21,2.5,2.1,5.63,1.87,8.58,2.27.63.09,1.26.12,1.89.18Z"/>
  <path class="cls-2" d="m627.02,458.17c0,.28-.11.46-.4.49-.01-.29.14-.44.4-.49Z"/>
  <path class="cls-11" d="m206.03,483.44c2.73-5.98,7.34-9.29,13.92-9.76,1.03-.07,2.08-.02,3.11.06,2.47.2,2.46.22,3.04,2.71.16.7.4,1.39.86,1.96,1.21,1.47,3.21,1.35,4.22-.27.56-.9.77-1.93.98-2.94,1.95-9.41,5.83-18.12,10.23-26.53,3.98-7.62,10.41-12.87,18.51-15.9,4.06-1.52,4.98-.83,4.38,3.49-.59,4.27-1.47,8.5-2.25,12.74-1.28,6.93-2.08,13.91-2.49,20.94-.08,1.35-.41,2.14-1.86,2.16-.16,0-.32.05-.47.1-1.97.6-3.02,1.72-3.02,3.25,0,1.53,1.05,2.72,3.01,3.25,1.63.44,3.3.56,4.99.64,4.41.19,8.74.89,13.03,1.9,5.53,1.3,8.85,4.67,10.23,10.21,1.1,4.41.96,8.69-.25,13.01-.94,3.39-1.99,6.75-3.37,9.99-.63,1.48-1.12,2.99-1.35,4.58-1.22,0-2.32.39-3.43.91-2.53,1.19-5.19,1.99-7.92,2.6-4.37.97-8.82,1.14-13.26,1.52-4.75.41-9.36-.15-13.96-1.08-4.3-.87-8.44-2.32-12.54-3.86-13.79-5.16-20.8-15.57-23.2-29.66-.34-2,.07-4.17-1.15-6.01Zm36.69,10.73c1.47.11,2.86-.06,4.17-.83,1.34-.79,1.74-1.97,1.7-3.44-.04-1.4-.82-2.22-2.01-2.7-.73-.3-1.54-.63-2.3-.6-3.11.14-6-.66-8.88-1.67-1.42-.49-2.66-.01-3.57,1.17-.79,1.02-.82,2.3.04,3.56.82,1.2,1.9,2.15,3.22,2.81,2.41,1.2,4.97,1.68,7.63,1.71Z"/>
  <path class="cls-11" d="m305.39,565.59c1.97-2.01,2.24-3.69.92-6.22-1.09-2.09-2.79-3.68-4.53-5.22-.65-.58-1.47-.97-2.04-1.8,1.39-2.18,2.8-4.39,4.34-6.81,6.52,4.49,13.47,4.69,20.76,1.51.26,2.57-.28,4.82-.56,7.07-1.46,11.85-3.94,23.46-8.57,34.52-3.98,9.52-9.14,18.29-16.62,25.52-4.06,3.92-8.58,7.18-14.07,8.82-7.45,2.22-14.53,1.24-21.26-2.54-5.3-2.98-9.68-7.03-13.43-11.78-5.81-7.36-9.88-15.63-12.73-24.53-.53-1.67-.99-3.36-1.48-5.05.76-.1,1.39.29,2.05.56,6.81,2.74,13.87,4.2,21.22,4.15,2.07-.01,4.12-.4,6.2-.41,7.51-.04,14.73-1.61,21.66-4.46,5.17-2.13,10.18-4.61,15.39-6.62.73-.28,1.42-.74,2.03-1.24,1.69-1.4,1.95-3.56.74-5.49Z"/>
  <path class="cls-9" d="m257.59,569.47c-8.45,1.61-16.85,2.22-25.12-.94-.44-.17-.86-.4-1.29-.6-.15-.12-.31-.24-.46-.35,0,0,.01.03.01.03.43-.99-.29-1.68-.71-2.39-4.37-7.37-5.4-15.36-4.44-23.71.14-1.2.16-2.36.02-3.54,2.21.34,4.17,1.49,6.4,1.84,5.82.9,11.6.29,17.39-.27,4.31-.42,8.42-1.67,12.57-2.78-.27,1.17.28,2.2.63,3.24.88,2.59,1.28,5.24,1.3,7.98.02,3.69-.47,7.32-1.15,10.91-.75,3.95-2.2,7.66-5.16,10.59Z"/>
  <path class="cls-5" d="m257.59,569.47c2.96-2.92,4.4-6.64,5.16-10.59.68-3.59,1.17-7.22,1.15-10.91-.01-2.74-.42-5.39-1.3-7.98-.35-1.04-.9-2.07-.63-3.24,3.22-1.73,6.65-3.02,10.03-4.39,5.76-2.33,11.01-5.41,15.63-9.57.17-.15.4-.23.61-.35,2.28,1.13,3.09,3.34,3.94,5.47,2.15,5.41,2.7,11.1,2.9,16.85-2.51,4.7-6.01,8.58-9.94,12.15-7.08,6.43-15.68,9.7-24.75,12-.92.23-1.82.64-2.8.55Z"/>
  <path class="cls-8" d="m206.03,483.44c1.23,1.83.81,4.01,1.15,6.01,2.41,14.09,9.42,24.5,23.2,29.66,4.11,1.54,8.24,2.99,12.54,3.86,4.6.93,9.21,1.49,13.96,1.08,4.44-.38,8.89-.55,13.26-1.52,2.73-.61,5.39-1.41,7.92-2.6,1.1-.52,2.21-.9,3.43-.91.09.69-.47.97-.88,1.31-1.05.86-2.07,1.78-3.21,2.5-7.66,4.85-15.74,8.78-24.61,10.86-3.42.8-6.96,1.16-10.46.86-3.9-.33-7.67-1.38-11.18-3.19-5.18-2.66-10.38-5.29-15.53-8.01-2.4-1.27-4.69-2.72-7.04-4.08-4.8-2.77-7.47-7.06-7.88-12.42-.62-8.13,1.36-15.82,4.98-23.1.07-.13.23-.21.35-.32Z"/>
  <path class="cls-2" d="m305.39,565.59c1.21,1.92.94,4.09-.74,5.49-.61.5-1.3.96-2.03,1.24-5.22,2.01-10.23,4.5-15.39,6.62-6.93,2.85-14.15,4.42-21.66,4.46-2.08.01-4.13.4-6.2.41-7.35.05-14.41-1.41-21.22-4.15-.66-.27-1.29-.66-2.05-.56-.39-.87-.68-1.76-.73-2.7.31-.25.63-.23.94-.16,8.09,2,16.19,1.31,24.23-.15,8.64-1.57,16.74-4.66,24.19-9.36,3.12-1.97,5.88-4.4,8.53-6.95.81-.77,1.32-.89,2.14-.04,1.1,1.15,2.34,2.17,3.51,3.25,1.83,1.69,3.93,2.7,6.48,2.59Z"/>
  <path class="cls-1" d="m307.12,522.88c2.41-.03,4.7.78,7.03,1.2,6.06,1.09,12.03.7,18-.36,1.94-.35,3.77-.45,5.62.19-2.73,6.85-6.84,12.63-13.47,16.14-4.92,2.6-10.13,3.35-15.33.61-2.27-1.2-2.24-1.25-1.55-3.47,1.34-4.29,1.26-8.62-.06-12.92-.14-.45-.37-.89-.24-1.39Z"/>
  <path class="cls-6" d="m225.6,537.96c.14,1.18.12,2.34-.02,3.54-.96,8.35.07,16.34,4.44,23.71.42.7,1.14,1.4.71,2.39-.42.09-.78-.08-1.14-.24-5.27-2.3-9.43-5.93-12.41-10.79-3.42-5.58-3.15-11.51-1.09-17.48.43-1.26.57-2.97,1.68-3.56,1.04-.55,2.35.62,3.55.97,1.45.42,2.86.96,4.29,1.45Z"/>
  <path class="cls-13" d="m295.08,544.76c-.2-5.75-.75-11.45-2.9-16.85-.85-2.14-1.66-4.35-3.94-5.47.25-.8.92-1.28,1.43-1.88,1.59-1.89,1.66-1.89,3.67-.61,5.93,3.78,7.72,8.18,6.06,15.08-.84,3.5-2.13,6.82-4.31,9.74Z"/>
  <path class="cls-6" d="m230.72,567.57c.15.12.31.24.46.35-.25,0-.49,0-.46-.35Z"/>
  <path class="cls-10" d="m631.3,479.32c-1.3.09-2.54-.09-3.58-.99-1.65-1.42-1.36-3.51.64-4.44,1.29-.6,2.67-.37,4.01-.3.87.04,1.72.3,2.59.36.91.06,1.47.49,1.82,1.3.42.98-.01,1.77-.65,2.37-1.33,1.26-2.96,1.83-4.82,1.7Z"/>
  <path class="cls-10" d="m608.42,471.61c1.51-.06,3.35,1.35,3.71,2.85.27,1.14-.45,2.06-1.8,2.29-1.24.21-3.22-.88-3.74-2.05-.65-1.47.27-3.02,1.84-3.08Z"/>
  <path class="cls-10" d="m242.72,494.17c-2.66-.03-5.22-.51-7.63-1.71-1.32-.66-2.39-1.61-3.22-2.81-.87-1.26-.83-2.54-.04-3.56.91-1.18,2.15-1.66,3.57-1.17,2.88,1,5.78,1.8,8.88,1.67.76-.03,1.57.3,2.3.6,1.18.48,1.97,1.3,2.01,2.7.04,1.47-.36,2.65-1.7,3.44-1.3.77-2.7.94-4.17.83Z"/>
</svg>