<?xml version="1.0" encoding="UTF-8"?>
<svg id="_图层_1" data-name="图层 1" xmlns="http://www.w3.org/2000/svg" viewBox="0 0 960 960">
  <defs>
    <style>
      .cls-1 {
        fill: #444794;
      }

      .cls-1, .cls-2, .cls-3, .cls-4, .cls-5, .cls-6, .cls-7, .cls-8, .cls-9, .cls-10, .cls-11, .cls-12, .cls-13 {
        stroke-width: 0px;
      }

      .cls-2 {
        fill: #444694;
      }

      .cls-3 {
        fill: #b5ccff;
      }

      .cls-4 {
        fill: #030303;
      }

      .cls-5 {
        fill: #454897;
      }

      .cls-6 {
        fill: #b4cbff;
      }

      .cls-7 {
        fill: #b7ceff;
      }

      .cls-8 {
        fill: #b3cbff;
      }

      .cls-9 {
        fill: #3f4693;
      }

      .cls-10 {
        fill: #b1c9fa;
      }

      .cls-11 {
        fill: #454795;
      }

      .cls-12 {
        fill: #b6cdff;
      }

      .cls-13 {
        fill: #5a7dff;
      }
    </style>
  </defs>
  <path class="cls-4" d="m349.51,776.89c-.87,1.54-1.62,2.95-2.46,4.31-5.83,9.5-14.33,14.54-25.46,15.18-7.84.45-15.44-.6-22.89-3.16-10.67-3.66-20.51-8.82-29.75-15.28-17.57-12.28-31.56-27.87-43.24-45.72-9.65-14.76-16.34-30.74-20.06-47.93-1.94-8.97-2.14-18.08-.99-27.2.17-1.32.26-2.66.41-4.2-1.93.28-3.64.52-5.36.77-3.38.48-6.71.14-9.97-.81-5.31-1.54-9.11-4.85-11.27-9.97-2.12-5.03-2.76-10.32-2.58-15.73.22-6.96,1.85-13.6,4.69-19.95,7.6-17.04,18.5-31.71,32.18-44.33,4.17-3.85,8.49-7.54,12.73-11.31.41-.36.94-.62,1.19-1.34-.93-.7-2.12-.91-3.2-1.32-3.79-1.44-7.2-3.45-10.01-6.41-4.86-5.1-6.2-11.01-4.03-17.71,1.33-4.09,3.6-7.65,6.29-10.96,4.88-6,10.58-11.06,16.96-15.44,10.23-7.04,21.06-13.01,32.07-18.71,5.39-2.79,10.66-5.8,15.96-8.7.02-.87-.7-.84-1.14-1.05-2.25-1.06-4.4-2.27-6.44-3.68-3.89-2.68-6.89-6.13-9.2-10.26-5.96-10.64-7.77-22.05-6.54-34.06.34-3.31.34-3.3-2.89-3.41-1.52-.05-3.03-.15-4.53-.44-9.19-1.78-14.36-7.72-14.88-17.08-.25-4.53.63-8.91,1.57-13.29,3.8-17.75,11.86-33.52,22.44-48.1,3.11-4.29,6.97-7.92,10.72-11.63,1.69-1.67,1.39-1.36.47-3.14-5.48-10.65-9.64-21.76-11.49-33.65-1.25-8.05-1.42-16.08.69-24.04,1.39-5.24,3.71-10.02,7.05-14.31,3.87-4.96,9.01-7.52,15.17-8.2,4.19-.46,8.29.14,12.37,1.07,1.67.38,1.71.37,2.2-1.14,3.59-11.18,8.99-21.51,14.77-31.67,2.25-3.96,4.68-7.82,6.97-11.76,11.04-18.95,25.57-34.89,42.26-48.96,2.63-2.22,5.37-4.29,8.26-6.16,2.02-1.31,4.11-2.46,6.42-3.19,7.02-2.25,13.79.31,17.53,6.67,1.77,3.01,2.66,6.32,3.27,9.72.52,2.91.95,5.84,1.2,8.79.06.76,0,1.56.31,2.21.73.19,1.04-.27,1.4-.53,4.8-3.47,9.93-6.43,15.14-9.23,29.27-15.74,60.34-26.16,93.14-31.48,10.42-1.69,20.85-3.27,31.43-3.53,7.3-.18,14.55.23,21.64,2.14,1.86.5,3.67,1.11,5.41,1.92,8.7,4.07,12.49,11.6,10.59,21.03-.62,3.06-1.78,5.96-2.75,9.04,1.79.26,3.41-.24,5.03-.45,14.39-1.85,28.8-2.79,43.3-1.77,18.18,1.28,36,4.48,53.35,10.07,10.73,3.46,20.66,8.62,29.65,15.42,10.2,7.71,18.16,17.27,22.89,29.29,1.41,3.57,2.47,7.26,3.35,11,1.6,6.85,1.25,13.64-.41,20.42-1.11,4.54-3.43,8.4-6.43,11.91-1.18,1.38-2.52,2.65-3.41,4.31.28.27.5.51.75.7,11.38,8.2,20.82,18.37,29.72,29.13,15.06,18.22,26.12,38.8,35.89,60.16,3.3,7.21,6.08,14.62,7.74,22.39,1.61,7.52,1.78,15.09.05,22.61-2.3,9.98-7.4,18.28-15.47,24.8.19.31.36.67.6.97,6.61,8.31,10.97,17.77,14.28,27.79,3.99,12.07,8.14,24.08,10.65,36.58,4.26,21.16,6.59,42.51,5.53,64.12-.6,12.28-2.77,24.3-8.18,35.52-.9,1.87-1.91,3.69-3,5.46-3.1,5.06-6.96,9.2-13.23,10.28.07.44.07.76.18,1.05,3.36,9,5.01,18.31,5.31,27.91.14,4.47.59,8.93.92,13.4.67,9.15.44,18.22-2.18,27.1-1.12,3.78-2.49,7.43-4.84,10.64-4.29,5.86-9.79,9.58-17.31,9.64-.16,0-.32.03-.47.07-.06.02-.11.09-.3.26.09.8.67,1.49,1.07,2.22,4.71,8.6,8.5,17.55,10.5,27.19,4.72,22.85-2.06,41.65-20.04,56.39-8.59,7.04-18.52,11.61-29.01,15.01-13.54,4.39-27.47,6.65-41.63,7.67-13.99,1.01-27.96.77-41.91-.75-1.05-.11-1.45.24-1.68,1.15-.23.93-.54,1.84-.81,2.76-4.12,13.7-13.32,22.82-26.31,27.98-13.67,5.44-27.89,6.13-42.19,2.74-18.45-4.38-34.63-12.98-47.91-26.71-.27-.28-.58-.53-.82-.76-.78.07-.67.68-.8,1.09-3.49,11.27-10.98,18.95-21.59,23.66-6.71,2.97-13.85,4.33-21.17,4.82-9.07.61-18.03-.09-26.96-1.81-9.97-1.92-19.98-3.64-29.73-6.53-17.41-5.16-33.43-13.14-48-23.99-10.09-7.51-19.71-15.54-28.02-25.05-.15-.17-.37-.27-.74-.54ZM688.42,245.63c4.08-.18,7.92.82,11.66,2.32,2.74,1.1,5.43,2.35,8.01,3.8,1.52.85,1.52.83,2.66-.58.95-1.18,1.87-2.41,2.93-3.49,4.73-4.79,5.89-10.9,5.29-17.1-1.08-11.28-5.7-21.15-13.4-29.6-7.65-8.4-17.08-14.1-27.32-18.65-6.82-3.03-14.01-4.9-21.24-6.64-14.95-3.59-30.1-5.81-45.5-5.95-5.99-.05-11.99-.18-17.96.5-.57.07-1.33-.26-1.62.6-.37-.03-.74-.05-1.12-.08-.36-.46-.75-.54-1.2-.12-1.13.04-2.26.08-3.39.12-1-.12-1.99-.17-2.94.26-.61.06-1.22.13-1.83.19-1.03-.28-2-.09-2.96.29-.62.07-1.24.14-1.85.21-.84-.12-1.68-.16-2.46.27-.46.06-.92.13-1.39.19-.36-.13-.71-.08-1.02.14-.45.1-.89.2-1.34.3-.22-.07-.46-.23-.66-.19-7.18,1.24-14.42,2.23-21.44,4.28-.65.19-1.46.13-1.88.86-.31.02-.62.04-.94.05-.41-.16-.76-.09-1.04.26-.69.16-1.38.36-2.08.48-1.75.31-3.08-.18-3.74-1.37-.76-1.39-.32-2.65.61-3.72.98-1.13,2.09-2.15,3.15-3.22,4.88-2.72,9.75-5.47,15.21-6.92.77-.2.93-.81,1.08-1.43.39-1.56,1.06-3.01,1.65-4.49,1.15-2.89,2.35-5.77,3.01-8.83.85-3.93.17-5.43-3.48-7.31-1.34-.77-2.83-1.1-4.3-1.45-7-1.64-14.1-1.76-21.22-1.24-15.5,1.13-30.77,3.72-45.88,7.28-33.07,7.78-63.79,21.09-92.35,39.44-7.4,4.75-14.8,9.49-21.81,14.81-1.02.77-2.06,1.55-3.29,1.95-1.45.47-2.87.41-3.97-.84-1.09-1.23-1.05-2.62-.36-4.02.57-1.16,1.43-2.12,2.31-3.05,3.23-3.45,6.72-6.61,10.41-9.57,1.62-1.3,3.26-2.58,4.89-3.87.51-.4.99-.79.76-1.58-.84-2.88-.55-5.87-.82-8.81-.19-2.06-.16-4.15-.87-6.13.05-2.27-.5-4.43-1.27-6.53-1.02-2.78-2.08-3.17-4.72-1.81-2.35,1.21-4.44,2.82-6.51,4.45-12.54,9.89-23.36,21.46-33.05,34.11-1.3,1.7-2.6,3.43-3.56,5.37-.71.46-.98,1.24-1.39,1.91-4.04,6.7-8.19,13.34-12.05,20.14-4.97,8.75-9.52,17.72-12.68,27.32-.67,2.05-1.27,4.12-2.02,6.14-1.19,3.19-3.2,4.49-6.55,4.56-2.52.05-4.91-.54-7.3-1.18-2.17-.57-4.36-1.07-6.59-1.16-3.92-.16-7.52.55-9.59,4.45-1.24,1.18-1.96,2.69-2.62,4.22-3.1,7.2-3.3,14.68-2.23,22.3.68,4.82,1.64,9.58,2.71,14.32,1.67,7.38,2.66,14.91,4.86,22.17.85,2.81,1,5.45-.7,7.99-.44.46-.92.88-1.3,1.39-5.26,6.92-10.34,13.96-13.97,21.93-.89,1.95-2.01,3.8-3.04,5.69-5.69,10.46-9.38,21.62-11.49,33.31-.42,2.34-.78,4.72.1,7.07.19,2.18,1.77,2.82,3.56,3.22,3.39.75,6.76.42,10.13-.23.63.06,1.27.13,1.9.16,4.78.23,7.63,3.42,7.29,8.2-.09,1.27-.29,2.54-.46,3.81-.69,5.16-1.2,10.33-1.09,15.53.08,3.91.41,7.83,2.3,11.4.71,3.59,2.33,6.8,4.55,9.63,2.93,3.75,6.95,6.04,11.38,7.65,1.2.44,2.46.7,3.58,1.36,2.19,1.28,3.28,3.05,3.09,5.72-.19,2.6-1.91,3.71-3.82,4.8-8.26,4.71-16.49,9.46-24.78,14.11-8.85,4.97-17.63,10.02-25.72,16.21-6.19,4.74-11.98,9.82-16.22,16.46-1.42,2.23-2.66,4.55-3.24,7.17-.61,2.77.19,5,2.4,6.8,1.58,1.28,3.35,2.13,5.22,2.86,3.41,1.34,7.09,1.96,10.31,3.81.48.28.89.24,1.34,0,1.52-.84,3.04-1.68,4.56-2.53.72,0,1.44-.03,2.15-.01,1.31.03,2.32.56,2.83,1.82.5,1.21-.05,2.18-.81,3.05-.42.48-.93.87-1.41,1.29-2.63,2.33-5.24,4.68-7.5,7.38-.65,0-.94.54-1.35.9-5.78,5.06-11.11,10.58-16.68,15.86-9.71,9.19-17.74,19.7-24.15,31.43-3.41,6.25-6.45,12.69-8.04,19.69-1.18,5.19-1.53,10.42-.24,15.65,1.06,4.28,2.89,5.66,7.35,5.61.64,0,1.28-.07,1.9-.19,3.13-.61,6.24-1.33,9.39-1.86,2.65-.45,4.91.45,6.51,2.65,1.59,2.19,1.47,4.5.12,6.75-.46.77-.8,1.51-.87,2.43-.43,5.26-.56,10.53-.53,15.81.02,3.36.3,6.7.84,10.02,1.36,8.25,4.08,16.07,7.23,23.79,7.35,17.99,18.07,33.75,31.34,47.85,4.39,4.67,9.21,8.87,14.26,12.8,9.17,7.14,18.76,13.56,29.68,17.84,7.97,3.12,16.02,5.45,24.71,4.67,4.81-.43,9.01-2.04,12.26-5.73,1.98-2.24,3.48-4.76,4.62-7.52,1.16-2.8,1.98-5.74,3.37-8.46,1.27-2.49,3.31-3.98,6.07-4.03,2.62-.05,4.49,1.5,5.76,3.71.95,1.67,2.01,3.26,3.17,4.79,3.4,4.47,7.4,8.36,11.56,12.12,6.23,5.64,12.83,10.8,19.59,15.77,8.29,6.1,17.48,10.58,26.84,14.75,3.87,1.73,7.84,3.19,11.91,4.37,9.91,2.86,19.99,4.9,30.13,6.77,8.04,1.48,16.06,2.5,24.27,1.95,4.98-.33,9.81-1.15,14.59-2.55,5.13-1.5,9.42-4.22,12.98-8.22,2.85-3.2,4.66-6.83,5.36-11.04.47-2.83.84-5.69,1.51-8.48.79-3.31,2.87-5.48,6.39-5.97,2.48-.35,4.55.59,6.34,2.2,1.9,1.72,3.59,3.64,5.28,5.56,3,3.44,6.12,6.76,9.65,9.65,5.85,4.79,12.42,8.43,19.25,11.59,10.67,4.93,21.79,7.63,33.66,6.79,6.28-.45,12.43-1.45,18.13-4.09,8.04-3.73,14.24-9.38,16.94-18.19.54-1.76,1.07-3.52,1.76-5.22,1.18-2.93,3.2-5.08,6.51-5.26,4.38-.25,8.79-.44,13.17-.28,3.68.14,7.34-.04,11.01-.09,8.95-.12,17.88-.53,26.79-1.45,10.67-1.1,21.21-2.83,31.49-5.92,11.03-3.3,21.44-7.87,30.45-15.23,10.57-8.63,15.56-19.85,15.29-33.37-.11-5.68-1.24-11.25-2.99-16.69-2.59-8.04-6.37-15.5-10.71-22.71-1.44-2.39-3.01-4.73-3.93-7.39-1.22-3.5,0-6.37,3.4-7.87,2-.89,4.12-1.29,6.31-1.04,2.79.31,5.59.26,8.38.34,1.67.05,3.1-.53,4.41-1.56,2.84-2.24,4.27-5.33,5.25-8.67,1.44-4.93,2.11-9.96,2.16-15.12.08-7.77-1.01-15.46-1.29-23.2-.08-2.3-.13-4.63-.46-6.93-1.22-8.54-3.93-16.61-7.55-24.4-.44-.94-.89-1.89-1.16-2.89-.7-2.63-.45-5.14,1.62-7.1,2.04-1.94,4.5-2.27,7.13-1.33.68.24,1.35.5,2.02.77,3.54,1.4,4.88,1.03,7.19-2.01.48-.64.95-1.29,1.34-1.99,2.12-3.77,4.04-7.65,5.19-11.83,2.61-9.52,4.08-19.2,3.97-29.09-.02-2.07-.22-4.15-.23-6.22-.04-6.87-.19-13.73-1.01-20.57-.98-8.17-2.35-16.27-3.75-24.37-2.08-12-5.87-23.54-9.74-35.05-.15-.46-.29-.92-.7-1.22-.21-2.55-1.48-4.79-2.24-7.16-1.67-5.17-4.15-10.02-7.2-14.55-5.16-7.64-11.21-14.52-17.77-20.98-.68-.67-1.39-1.33-1.85-2.18-1.32-2.43-.16-5.17,2.5-5.87.69-.18,1.42-.2,2.13-.3,4.35.87,7.94,3.18,11.28,5.95,1.63,1.35,1.61,1.34,2.93-.18.68-.78,1.43-1.5,2.14-2.25,3.52-3.7,5.98-8.01,7.43-12.91,1.8-6.1,1.78-12.27.59-18.43-.49-2.52-.77-5.18-2.26-7.43-.54-3.18-1.71-6.16-3-9.08-9.59-21.79-20.71-42.68-35.86-61.23-9.09-11.13-18.98-21.37-30.97-29.46-7.36-4.97-14.9-9.6-22.87-13.53-1.44-.71-2.84-1.5-3.8-2.84-1.79-2.5-.95-4.96,2-5.93,1,.27,1.98.3,2.9-.27Z"/>
  <path class="cls-13" d="m685.52,245.9c-2.95.97-3.78,3.44-2,5.93.96,1.34,2.36,2.13,3.8,2.84,7.97,3.93,15.51,8.56,22.87,13.53,11.99,8.09,21.87,18.33,30.97,29.46,15.15,18.55,26.27,39.44,35.86,61.23,1.28,2.92,2.46,5.9,3,9.08-.8,2.03-.4,4.21-.81,6.3-.99,5.05-2.48,9.86-5.24,14.25-3.17,5.04-7.51,8.82-12.43,12.03-1.25.82-2.65,1.47-3.62,2.67-.71.09-1.44.12-2.13.3-2.66.69-3.82,3.44-2.5,5.87.46.85,1.17,1.51,1.85,2.18,6.55,6.46,12.61,13.33,17.77,20.98,3.06,4.53,5.53,9.37,7.2,14.55.77,2.37,2.03,4.61,2.24,7.16-.59.07-.68.55-.88,1-1.11,2.48-2.2,4.97-3.39,7.4-2.15,4.38-5.22,7.98-9.18,10.87-3.03,2.22-6.36,3.99-9.38,6.22-4.02,2.97-6.42,6.79-6.31,11.98.1,4.72.05,9.43.12,14.15.06,3.92-.23,7.8-1.02,11.66-1.6,7.8-3.89,15.31-8.59,21.89-2.23,3.12-4.76,5.99-7.3,8.86-6.04,6.84-12.66,13.07-19.73,18.84-4.95,4.04-10.25,7.61-15.31,11.5-2.8,2.15-5.52,4.36-7.25,7.54-1.58,2.9-2.33,5.91-1.44,9.21.8,2.98,2.35,5.58,3.96,8.15,2.47,3.93,4.77,7.94,6.55,12.23.97,2.34.84,2.57-1.25,3.84-2.8,1.71-5.62,3.37-8.59,4.76-5.49,2.58-10.98,5.18-16.48,7.75-7.52,3.51-13.87,8.5-18.88,15.13-4.6,6.08-7.09,12.91-6.34,20.56.69,7.09,2.73,13.91,5.13,20.61,1.43,3.98,2.77,8,4.08,12.02.57,1.73.4,2.04-1.43,2.53-2.54.68-5.1,1.27-7.68,1.8-9.62,1.95-19.2,4.01-28.4,7.56-6.55,2.52-12.74,5.57-17.65,10.73-2.81,2.96-5.32,6.17-7.47,9.63-.92,1.47-2.05,2.03-3.8,1.73-5.81-1.01-11.61-2.09-17.35-3.41-14.68-3.37-29.33-6.84-44.39-8.16-5.34-.47-10.69-.49-16.01-.59-3.77-.07-7.63.1-11.45.65-6.46.93-12.09,3.34-16.78,7.93-6.03,5.91-10.39,12.94-13.71,20.62-1.78,4.12-2.6,8.54-3.09,12.99-.49,4.37-.54,8.76-.54,13.15,0,.6.22,1.28-.29,1.72-.43.19-.72.01-1-.12-4.2-1.95-8.42-3.87-12.6-5.86-10.04-4.77-19.69-10.24-29.12-16.14-12.6-7.88-24.81-16.31-36.83-25.03-9.43-6.84-18.64-14-28.44-20.33-7.79-5.03-15.51-10.14-24.28-13.39-3.91-1.45-7.9-2.64-12.08-2.73-7.9-.17-14.81,2.73-21.15,7.2-5.62,3.96-10.06,9.07-14.01,14.63-2.03,2.86-3.95,5.81-5.96,8.69-1.02,1.46-1.32,1.44-2.51.13-.21-.24-.41-.49-.6-.75-3.78-5.16-7.06-10.64-10.27-16.16-4.05-6.99-7.61-14.23-11.01-21.54-3.54-7.6-6.71-15.36-9.58-23.24-3.08-8.5-5.17-17.27-7.17-26.06-1.04-4.59-1.79-9.25-3.37-13.69-.86-2.43-2.03-4.7-4.08-6.38-3.17-2.58-6.76-2.6-10.44-1.58-3.46.96-6.79,2.36-10.31,3.12-2.26.49-2.62.28-3.31-1.85-1.05-3.24-.52-6.47.02-9.7,1.5-9.07,4.89-17.49,8.75-25.75,4.66-9.96,10.75-19.04,16.99-28.03.62-.89,1.57-1.65,1.5-2.91,2.27-2.7,4.88-5.05,7.5-7.38.48-.42.99-.82,1.41-1.29.76-.87,1.31-1.84.81-3.05-.52-1.25-1.53-1.79-2.83-1.82-.72-.02-1.43,0-2.15.01-.45-2.43-2.43-3.44-4.3-4.48-1.88-1.05-3.88-1.89-5.78-2.91-3.14-1.7-4.33-4.53-3.62-8.07.4-2.01,1.35-3.76,2.33-5.49,1.41-2.5,2.87-5.04,5.05-6.93,3.19-2.76,6.54-5.33,10.17-7.55,2.58-1.58,5.19-3.14,7.61-4.98,6.71-5.11,14.33-8.28,22.4-10.51,5.47-1.51,11.07-2.22,16.69-2.92,6.02-.74,12.03-1.36,18.1-1.34,9.75.03,19.5.05,29.25.07,2.39,0,4.79,0,7.14-.56,2.9-.7,5.66-1.63,7.73-4,2.43-2.78,2.41-6.1-.1-8.82-1.97-2.12-4.58-2.83-7.24-3.43-6.41-1.43-12.98-1.35-19.48-1.86-4.69-.37-9.4-.37-14.11-.54-.72-.02-1.41-.17-2.12-.35-5.17-1.38-10.23-3.08-15.25-4.92-8.29-3.04-16.05-7.06-23.29-12.11-1.22-.85-2.31-1.98-3.85-2.32-1.89-3.57-2.22-7.49-2.3-11.4-.11-5.2.4-10.38,1.09-15.53.17-1.27.37-2.53.46-3.81.34-4.78-2.51-7.97-7.29-8.2-.64-.03-1.27-.11-1.9-.16-.87-1.61-2.42-2.18-4.04-2.56-3.18-.75-6.42-.46-9.64-.42-.87-2.34-.52-4.73-.1-7.07,2.11-11.69,5.8-22.85,11.49-33.31,1.03-1.89,2.15-3.74,3.04-5.69,3.63-7.97,8.71-15.01,13.97-21.93.38-.5.87-.93,1.3-1.38,2.97-.13,5.33-1.72,7.34-3.62,3.83-3.6,5.66-7.99,4.45-13.39-.91-4.08-2.25-7.99-4.09-11.72-3.47-7.04-6.13-14.39-8.24-21.92-1.6-5.72-2.21-11.57-1.36-17.51.13-.94.19-1.91-.12-2.85,2.07-3.9,5.67-4.61,9.59-4.45,2.23.09,4.42.58,6.59,1.16,2.39.63,4.78,1.23,7.3,1.18,3.35-.07,5.36-1.36,6.55-4.56.75-2.02,1.35-4.09,2.02-6.14,3.16-9.6,7.71-18.57,12.68-27.32,3.86-6.8,8.01-13.44,12.05-20.14.4-.67.68-1.45,1.39-1.91,2.4-1.6,4.27-3.8,6.41-5.69,3.58-3.16,7.24-6.21,10.98-9.18,6.99-5.55,14.44-10.44,22.09-15.02,3.2-1.92,6.23-4.12,9.64-5.69.71,1.98.68,4.08.87,6.13.27,2.94-.02,5.93.82,8.81.23.79-.25,1.18-.76,1.58-1.63,1.29-3.27,2.57-4.89,3.87-3.68,2.96-7.18,6.12-10.41,9.57-.87.93-1.74,1.89-2.31,3.05-.69,1.41-.72,2.79.36,4.02,1.1,1.24,2.52,1.3,3.97.84,1.23-.4,2.27-1.17,3.29-1.95,7.01-5.32,14.42-10.06,21.81-14.81,28.56-18.35,59.29-31.65,92.35-39.44,15.11-3.56,30.38-6.15,45.88-7.28,7.12-.52,14.22-.4,21.22,1.24,1.47.35,2.96.68,4.3,1.45-.02.6-.37,1.02-.72,1.46-2.52,3.17-4.87,6.46-7.13,9.83-1.14,1.71-1.87,3.5-1.68,5.58.1,1.03-.24,1.82-.96,2.57-1.32,1.38-2.59,2.8-3.8,4.26-1.06,1.28-2.03,2.64-3.02,3.98-.3.4-.46.84-.16,1.32-1.05,1.07-2.17,2.09-3.15,3.22-.93,1.07-1.37,2.33-.61,3.72.66,1.19,1.99,1.68,3.74,1.37.7-.12,1.39-.32,2.08-.48.4.13.75.07,1.04-.26.31-.02.62-.04.94-.05,3.29,1.22,6.67,1.32,9.99.31,3.03-.92,6.01-2.06,8.95-3.24,1.68-.68,3.54-.89,5.04-2.01.45-.1.89-.2,1.34-.3.39.28.72.21,1.02-.14.46-.06.92-.13,1.39-.19.86.26,1.7.34,2.46-.27.62-.07,1.24-.14,1.85-.21,1.02.25,2.03.38,2.96-.29.61-.06,1.22-.13,1.83-.19,1.01.26,2.01.39,2.94-.27,1.13-.04,2.26-.08,3.39-.12.35.5.75.57,1.2.12.37.03.74.05,1.12.08.12.55.51.77,1.03.84,5.21.65,10.41,1.41,15.63,1.92,4.2.41,8.39.91,12.5,1.84,11.88,2.69,23.23,6.78,34.04,12.47,10.03,5.28,19.16,11.66,27.06,19.87,5.37,5.59,8.83,11.98,10.52,19.5,1.14,5.11.61,9.78-2.5,14.1-.93,1.29-1.62,2.75-2.42,4.12-.75.18-1.58-.13-2.27.38Zm-139.01,270.22c-.57-.49-.49-.91-.56-1.29-.63-3.54-2.02-6.66-4.56-9.3-4.54-4.72-10.22-6.64-16.54-7.04-5.65-.35-11.08.89-16.51,2.3-12.87,3.34-24.81,8.75-36,15.89-2.09,1.33-4.15,2.7-6.28,3.96-1.38.81-1.67.64-2.26-.85-.15-.37-.24-.76-.4-1.13-1.36-3.2-3.16-6.06-5.88-8.32-5.09-4.23-11.13-5.72-17.54-6.09-7.01-.4-13.83.82-20.56,2.61-3.31.88-6.57,1.97-9.87,2.92-1.99.58-2.31.25-1.98-1.72.52-3.15.82-6.26.31-9.5-1.09-6.93-6.06-11.43-13.05-11.64-5.04-.15-9.7,1.27-14.01,3.55-9.04,4.79-16.94,11.14-23.55,18.95-8.97,10.59-14.67,22.7-16.27,36.63-.58,5.08-.29,10.02,1,14.93,2.58,9.8,11.44,18.48,23.04,19.47,5.82.49,11.63.02,17.38-1.16,6.34-1.3,12.54-3.11,18.68-5.12,2.08-.68,2.19-.58,2.34,1.46.63,8.51,4.94,14.76,12.24,18.82,8.34,4.63,17.38,4.85,26.51,3.09,8.43-1.62,16.44-4.56,24.12-8.4,5-2.5,9.9-5.23,15.12-7.26,5.05-1.96,4.09-2.24,6.83,2.16,2.84,4.56,5.98,8.82,10.29,12.17,8.48,6.6,18.01,8.73,28.41,6.62,10.76-2.18,20.26-7.1,28.74-14.07,3.45-2.84,6.95-5.62,10.74-8.01,1.26-.79,2.48-1.1,4.05-.89,7.05.95,13.65-.25,19.61-4.42,5.94-4.16,11.18-9.05,15.6-14.76,7.77-10.04,14-20.99,18.59-32.82,2.84-7.32,4.88-14.86,4.66-22.83-.17-6.03-1.66-11.63-5.2-16.64-3.88-5.49-8.99-8.39-15.82-8.22-2.93.07-5.69.77-8.42,1.64-8.53,2.7-16.2,7.11-23.65,11.96-7.03,4.57-13.7,9.64-20.2,14.93-3.02,2.46-6.05,4.91-9.14,7.41Zm-171.33,112.33c.01,5.52.65,9.93,1.83,14.25,2.21,8.13,7.11,14.41,13.85,19.25,5.52,3.97,11.71,5.55,18.55,4.57,3.01-.43,5.96-1.05,8.9-1.79,2.92-.74,5.46-.35,7.69,1.86,2.28,2.25,4.89,4.1,7.67,5.69,6.14,3.54,12.67,5.02,19.78,3.85,3.39-.56,6.73-1.32,10.03-2.23,2.29-.63,3.95-.22,5.52,1.57,2.55,2.91,5.71,5.13,9.17,6.82,8.7,4.25,17.55,4.15,26.39.46,10.34-4.33,18.5-11.54,25.79-19.83,4.89-5.56,8.56-11.91,11.56-18.66,1.7-3.82,2.78-7.74,2.72-12.03-.11-7.23-4.58-13.43-12.08-15.28-7.15-1.76-14.26-1.07-21.33.37-5.71,1.16-11.3,2.77-16.75,4.87-2.74,1.05-2.86.93-3.53-1.8-.06-.23-.07-.48-.13-.71-2.01-7.76-6.43-13.22-14.41-15.47-6.63-1.87-13.29-1.53-19.92-.42-6.23,1.05-12.18,3.18-18.04,5.53-4.07,1.63-8.06,3.47-12.24,4.84-2.02.66-3.57.31-4.93-1.28-1.09-1.27-2.09-2.68-3.39-3.7-2.95-2.29-5.2-5.2-7.34-8.16-4.43-6.11-10.39-10.31-16.78-13.99-1.62-.93-3.54-1.5-5.53-1.02-3.35.8-5.1,3.12-5.77,6.33-.21,1.02-.41,2.03-.79,3-4.29,10.97-5.88,22.46-6.46,33.11Zm23.48,74.03c.04,2.39.03,4.76.43,7.15,1.42,8.49,5.64,15.22,12.65,20.07,5.97,4.13,12.64,5.71,19.97,4.93,7.34-.77,14.2-2.9,20.68-6.33,5.17-2.74,9.5-6.48,12.59-11.48,3.32-5.37,4.13-10.99,1.15-16.83-1.43-2.8-3.62-4.85-6.42-6.22-3.15-1.55-6.48-2.79-9.47-4.6-5.69-3.44-11.48-6.59-17.77-8.8-5.23-1.84-10.53-3.18-16.13-2.94-3.51.15-6.8.9-9.38,3.54-.22.23-.47.48-.75.58-2.52.91-3.56,3.11-4.5,5.32-2.12,4.97-3.31,10.15-3.05,15.6Zm50.67-207.39c1.96.17,4.4-.38,6.87-.55,2.64-.17,5.16-1.02,7.45-2.41,1.62-.99,2.49-2.37,2.28-4.39-.2-1.87-1.34-2.83-2.94-3.4-2.04-.72-4.14-1.26-6.31-1.16-5.5.25-11,.47-16.51.47-4.33,0-8.57-.68-12.82-1.29-2.44-.35-4.87-.9-7.36-.67-1.57.15-2.69.96-3.27,2.43-.57,1.43-.09,2.66.86,3.75.8.92,1.8,1.53,2.94,1.98,9.09,3.62,18.6,4.88,28.82,5.23Zm-169.15,104.35c-.23,1.55.41,2.73,1.77,3.57,1.36.85,2.58.4,3.81-.33.77-.45,1.39-1.07,2.01-1.68,2.11-2.06,4.35-3.97,6.63-5.84,3.51-2.88,7.11-5.65,10.15-9.06.96-1.08,1.91-2.15,2.21-3.62.26-1.26-.45-2.78-1.58-3.49-1.03-.65-2.1-.59-3.26.47-1.05.97-2.31,1.42-3.6,1.79-2.56.75-4.86,1.97-7.02,3.52-4.26,3.07-7.87,6.71-10.33,11.41-.52,1-.93,2.03-.82,3.25Zm5.81-232.87c.04-3.08-1.88-4.54-4.28-3.58-1.99.8-3.89,1.79-5.49,3.34-3.19,3.09-5.56,6.77-7.9,10.49-1.28,2.04-2.39,4.15-2.77,6.57-.29,1.85.65,3.73,2.29,4.59,1.82.96,3.19.78,4.81-.68.59-.53,1.19-1.09,1.65-1.73,3.01-4.12,6.07-8.22,8.95-12.43,1.44-2.1,2.53-4.44,2.73-6.59Zm269.12,315.3c.23,3.04,1.28,5.6,2.63,8.07,2.25,4.12,5.72,6.78,10.03,8.42,1.4.53,2.93.48,4.03-.67,1.06-1.11,1.27-2.53.61-4-.29-.65-.58-1.31-.83-1.98-1.22-3.25-3.79-5.7-5.21-8.83-.65-1.45-1.32-2.9-2.09-4.29-1.5-2.7-4.07-3.31-6.69-1.69-1.94,1.2-2.23,3.16-2.48,4.97Zm146.84-240.87c-1.8,0-3.64,1.08-4.15,2.42-.68,1.77.07,3.07,1.39,4.2,3.69,3.16,6.38,7.34,10.28,10.29.57.43,1.03.99,1.71,1.29,1.28.58,2.49.41,3.49-.64.88-.91,1.31-1.91.71-3.24-.62-1.37-1.09-2.82-1.52-4.27-.76-2.62-2.26-4.74-4.3-6.47-2.22-1.88-4.73-3.22-7.62-3.59Zm-85.4-213.05c1.13.09,2.05-.21,2.71-1.19.69-1.03.38-1.97-.21-2.89-.3-.46-.6-.98-1.03-1.3-2.32-1.73-4.14-3.98-6.31-5.85-1.62-1.4-3.22-2.87-5.15-3.87-1.89-.99-2.98-.9-4.39.33-1.37,1.19-1.85,2.85-1.25,4.54.32.9.76,1.76,1.41,2.49,1.88,2.1,3.93,3.99,6.58,5.06,2.5,1.02,4.97,2.16,7.64,2.68Zm-223.09-20.46c0,1.04-.02,2.08,0,3.12.05,1.77.37,3.5.97,5.15.43,1.18,1.26,2.01,2.64,2.11,1.51.11,2.37-.74,3.03-1.92.44-.8.66-1.67.35-2.54-.38-1.04-.23-2-.02-3.05.56-2.81,1.03-5.64,1.49-8.47.2-1.2.08-2.39-.37-3.53-1.1-2.75-3.93-3.32-5.96-1.17-.96,1.01-1.44,2.26-1.69,3.63-.41,2.21-.56,4.43-.45,6.67Zm-81.11,394.69c.04-1.98-1.55-3.31-3.5-2.76-2.39.67-4.6,1.82-6.67,3.17-1,.65-1.74,1.61-2.21,2.76-.72,1.77-.69,3.47.67,4.88,1.4,1.44,3.12,1.77,5.04,1.05,2.53-.94,6.61-6.47,6.66-9.11Zm268.76,74.3c-1.89-.05-3.22,1.05-3.47,2.88-.42,2.99,3.39,6.7,6.37,6.21,1.18-.2,2.38-1.36,2.19-2.44-.39-2.12-1.15-4.14-2.7-5.73-.62-.63-1.46-.95-2.38-.93Z"/>
  <path class="cls-11" d="m239.95,551.82c.07,1.26-.88,2.03-1.5,2.91-6.24,9-12.33,18.08-16.99,28.03-3.87,8.27-7.25,16.69-8.75,25.75-.54,3.24-1.07,6.46-.02,9.7.69,2.13,1.05,2.34,3.31,1.85,3.52-.76,6.85-2.16,10.31-3.12,3.68-1.02,7.28-1,10.44,1.58,2.06,1.68,3.22,3.95,4.08,6.38,1.59,4.45,2.33,9.11,3.37,13.69,2,8.79,4.08,17.56,7.17,26.06,2.86,7.89,6.03,15.64,9.58,23.24,3.41,7.32,6.96,14.56,11.01,21.54,3.21,5.53,6.49,11,10.27,16.16.19.26.39.51.6.75,1.18,1.31,1.49,1.33,2.51-.13,2.01-2.88,3.93-5.82,5.96-8.69,3.95-5.56,8.38-10.67,14.01-14.63,6.35-4.47,13.26-7.38,21.15-7.2,4.18.09,8.17,1.28,12.08,2.73,8.77,3.25,16.49,8.36,24.28,13.39,9.8,6.33,19,13.49,28.44,20.33,12.02,8.72,24.23,17.16,36.83,25.03,9.43,5.89,19.08,11.36,29.12,16.14,4.18,1.99,8.4,3.91,12.6,5.86.28.13.57.3,1,.12.5-.44.29-1.12.29-1.72,0-4.39.05-8.79.54-13.15.5-4.45,1.31-8.87,3.09-12.99,3.32-7.68,7.68-14.71,13.71-20.62,4.69-4.59,10.32-7,16.78-7.93,3.81-.55,7.68-.72,11.45-.65,5.32.09,10.68.12,16.01.59,15.07,1.32,29.71,4.79,44.39,8.16,5.75,1.32,11.54,2.4,17.35,3.41,1.75.3,2.88-.26,3.8-1.73,2.15-3.47,4.66-6.68,7.47-9.63,4.91-5.17,11.1-8.21,17.65-10.73,9.2-3.55,18.78-5.6,28.4-7.56,2.58-.52,5.14-1.12,7.68-1.8,1.83-.49,2-.8,1.43-2.53-1.32-4.02-2.65-8.04-4.08-12.02-2.41-6.7-4.44-13.52-5.13-20.61-.75-7.65,1.75-14.48,6.34-20.56,5.01-6.63,11.36-11.62,18.88-15.13,5.5-2.57,10.99-5.17,16.48-7.75,2.97-1.4,5.79-3.05,8.59-4.76,2.09-1.27,2.22-1.5,1.25-3.84-1.78-4.29-4.08-8.3-6.55-12.23-1.61-2.57-3.16-5.17-3.96-8.15-.89-3.3-.13-6.31,1.44-9.21,1.73-3.17,4.45-5.39,7.25-7.54,5.06-3.89,10.36-7.45,15.31-11.5,7.06-5.77,13.68-11.99,19.73-18.84,2.54-2.87,5.07-5.74,7.3-8.86,4.7-6.58,7-14.09,8.59-21.89.79-3.86,1.08-7.73,1.02-11.66-.07-4.72-.02-9.44-.12-14.15-.11-5.18,2.29-9.01,6.31-11.98,3.02-2.23,6.35-4,9.38-6.22,3.95-2.89,7.03-6.49,9.18-10.87,1.2-2.44,2.28-4.93,3.39-7.4.2-.44.29-.92.88-1,.41.3.55.76.7,1.22,3.87,11.51,7.66,23.05,9.74,35.05,1.4,8.1,2.77,16.2,3.75,24.37.82,6.84.97,13.7,1.01,20.57.01,2.07.21,4.15.23,6.22.11,9.89-1.36,19.58-3.97,29.09-1.15,4.18-3.06,8.06-5.19,11.83-.39.69-.85,1.35-1.34,1.99-2.31,3.04-3.65,3.41-7.19,2.01-.67-.26-1.34-.52-2.02-.77-2.63-.94-5.09-.61-7.13,1.33-2.07,1.96-2.31,4.47-1.62,7.1.26,1,.72,1.95,1.16,2.89,3.62,7.79,6.33,15.87,7.55,24.4.33,2.3.38,4.63.46,6.93.28,7.74,1.37,15.43,1.29,23.2-.05,5.16-.72,10.19-2.16,15.12-.97,3.34-2.4,6.43-5.25,8.67-1.31,1.04-2.75,1.61-4.41,1.56-2.79-.08-5.59-.03-8.38-.34-2.19-.25-4.31.16-6.31,1.04-3.4,1.51-4.62,4.37-3.4,7.87.93,2.66,2.49,5,3.93,7.39,4.34,7.21,8.12,14.68,10.71,22.71,1.75,5.43,2.88,11.01,2.99,16.69.27,13.52-4.72,24.74-15.29,33.37-9.02,7.36-19.43,11.93-30.45,15.23-10.28,3.08-20.82,4.81-31.49,5.92-8.91.92-17.84,1.33-26.79,1.45-3.67.05-7.33.22-11.01.09-4.38-.16-8.79.03-13.17.28-3.32.19-5.33,2.33-6.51,5.26-.69,1.7-1.22,3.47-1.76,5.22-2.7,8.81-8.91,14.46-16.94,18.19-5.69,2.64-11.85,3.64-18.13,4.09-11.88.84-22.99-1.85-33.66-6.79-6.83-3.16-13.4-6.8-19.25-11.59-3.53-2.89-6.65-6.22-9.65-9.65-1.68-1.93-3.38-3.85-5.28-5.56-1.78-1.61-3.86-2.55-6.34-2.2-3.52.49-5.6,2.65-6.39,5.97-.67,2.79-1.04,5.65-1.51,8.48-.69,4.22-2.51,7.84-5.36,11.04-3.56,4-7.85,6.72-12.98,8.22-4.77,1.4-9.6,2.22-14.59,2.55-8.21.55-16.23-.47-24.27-1.95-10.13-1.87-20.22-3.91-30.13-6.77-4.08-1.18-8.04-2.64-11.91-4.37-9.36-4.17-18.55-8.65-26.84-14.75-6.76-4.97-13.36-10.14-19.59-15.77-4.16-3.76-8.16-7.65-11.56-12.12-1.16-1.53-2.22-3.12-3.17-4.79-1.27-2.22-3.14-3.76-5.76-3.71-2.76.05-4.8,1.54-6.07,4.03-1.39,2.72-2.21,5.65-3.37,8.46-1.14,2.76-2.64,5.28-4.62,7.52-3.26,3.69-7.45,5.3-12.26,5.73-8.69.78-16.74-1.54-24.71-4.67-10.92-4.28-20.51-10.69-29.68-17.84-5.05-3.93-9.86-8.14-14.26-12.8-13.28-14.1-23.99-29.86-31.34-47.85-3.15-7.71-5.87-15.54-7.23-23.79-.55-3.32-.83-6.65-.84-10.02-.03-5.28.1-10.55.53-15.81.07-.92.41-1.66.87-2.43,1.35-2.25,1.47-4.56-.12-6.75-1.6-2.2-3.85-3.1-6.51-2.65-3.15.53-6.26,1.25-9.39,1.86-.62.12-1.27.18-1.9.19-4.46.06-6.29-1.33-7.35-5.61-1.29-5.23-.95-10.46.24-15.65,1.6-7,4.63-13.44,8.04-19.69,6.4-11.73,14.44-22.24,24.15-31.43,5.57-5.27,10.91-10.8,16.68-15.86.41-.36.7-.9,1.35-.9Z"/>
  <path class="cls-1" d="m687.79,245.52c.8-1.38,1.49-2.84,2.42-4.12,3.1-4.32,3.64-8.99,2.5-14.1-1.68-7.52-5.14-13.91-10.52-19.5-7.9-8.21-17.03-14.59-27.06-19.87-10.8-5.69-22.15-9.78-34.04-12.47-4.12-.93-8.3-1.43-12.5-1.84-5.22-.51-10.42-1.27-15.63-1.92-.51-.06-.91-.28-1.03-.84.29-.86,1.05-.54,1.62-.61,5.97-.69,11.97-.56,17.96-.5,15.4.14,30.55,2.35,45.5,5.95,7.23,1.74,14.42,3.61,21.24,6.64,10.24,4.55,19.67,10.24,27.32,18.65,7.69,8.45,12.32,18.32,13.4,29.6.59,6.2-.56,12.3-5.29,17.1-1.06,1.08-1.97,2.3-2.93,3.49-1.14,1.41-1.13,1.44-2.66.58-2.58-1.45-5.27-2.69-8.01-3.8-3.74-1.5-7.58-2.5-11.66-2.32-.21-.04-.42-.07-.63-.11Z"/>
  <path class="cls-11" d="m272.03,444.25c1.54.34,2.63,1.47,3.85,2.32,7.24,5.05,15,9.08,23.29,12.11,5.02,1.84,10.08,3.54,15.25,4.92.7.19,1.39.33,2.12.35,4.7.16,9.42.17,14.11.54,6.5.51,13.07.43,19.48,1.86,2.65.59,5.27,1.3,7.24,3.43,2.52,2.71,2.54,6.04.1,8.82-2.07,2.37-4.83,3.3-7.73,4-2.35.57-4.75.57-7.14.56-9.75-.02-19.5-.04-29.25-.07-6.07-.02-12.08.6-18.1,1.34-5.62.69-11.22,1.4-16.69,2.92-8.06,2.23-15.69,5.4-22.4,10.51-2.42,1.84-5.03,3.4-7.61,4.98-3.63,2.22-6.98,4.79-10.17,7.55-2.19,1.89-3.64,4.43-5.05,6.93-.98,1.73-1.92,3.48-2.33,5.49-.71,3.54.47,6.37,3.62,8.07,1.9,1.02,3.9,1.86,5.78,2.91,1.86,1.04,3.85,2.05,4.3,4.48-1.52.84-3.04,1.68-4.56,2.53-.45.25-.86.29-1.34,0-3.22-1.85-6.9-2.48-10.31-3.81-1.87-.73-3.64-1.58-5.22-2.86-2.22-1.8-3.01-4.03-2.4-6.8.58-2.62,1.82-4.94,3.24-7.17,4.23-6.64,10.02-11.72,16.22-16.46,8.09-6.19,16.87-11.25,25.72-16.21,8.29-4.65,16.53-9.4,24.78-14.11,1.9-1.09,3.63-2.2,3.82-4.8.19-2.68-.9-4.44-3.09-5.72-1.12-.65-2.38-.92-3.58-1.36-4.42-1.61-8.45-3.9-11.38-7.65-2.22-2.83-3.84-6.04-4.55-9.63Z"/>
  <path class="cls-1" d="m276.09,261.76c.32.94.26,1.91.12,2.85-.85,5.94-.24,11.79,1.36,17.51,2.11,7.54,4.77,14.88,8.24,21.92,1.84,3.73,3.18,7.64,4.09,11.72,1.2,5.39-.63,9.78-4.45,13.39-2.01,1.9-4.37,3.49-7.34,3.62,1.71-2.53,1.55-5.18.7-7.99-2.19-7.26-3.19-14.79-4.86-22.17-1.07-4.74-2.03-9.5-2.71-14.32-1.07-7.63-.87-15.11,2.23-22.3.66-1.53,1.38-3.04,2.62-4.22Z"/>
  <path class="cls-10" d="m383.37,163.99c-3.4,1.57-6.44,3.77-9.64,5.69-7.64,4.59-15.1,9.47-22.09,15.02-3.74,2.97-7.4,6.02-10.98,9.18-2.14,1.89-4.01,4.09-6.41,5.69.96-1.94,2.26-3.67,3.56-5.37,9.69-12.65,20.51-24.22,33.05-34.11,2.07-1.63,4.16-3.24,6.51-4.45,2.65-1.36,3.7-.97,4.72,1.81.77,2.1,1.32,4.26,1.27,6.53Z"/>
  <path class="cls-2" d="m757.9,403.24c.98-1.2,2.37-1.85,3.62-2.67,4.92-3.21,9.26-6.99,12.43-12.03,2.76-4.39,4.25-9.21,5.24-14.25.41-2.1.01-4.28.81-6.3,1.49,2.25,1.77,4.9,2.26,7.43,1.19,6.16,1.21,12.33-.59,18.43-1.45,4.91-3.91,9.21-7.43,12.91-.71.75-1.46,1.47-2.14,2.25-1.32,1.52-1.3,1.54-2.93.18-3.34-2.78-6.93-5.08-11.28-5.95Z"/>
  <path class="cls-2" d="m542.41,170.06c-.3-.48-.14-.92.16-1.32,1-1.33,1.96-2.7,3.02-3.98,1.22-1.46,2.49-2.89,3.8-4.26.71-.75,1.05-1.54.96-2.57-.19-2.08.54-3.87,1.68-5.58,2.25-3.37,4.61-6.66,7.13-9.83.35-.44.7-.86.72-1.46,3.65,1.88,4.33,3.38,3.48,7.31-.66,3.07-1.86,5.94-3.01,8.83-.59,1.48-1.26,2.94-1.65,4.49-.16.62-.32,1.23-1.08,1.43-5.46,1.45-10.33,4.2-15.21,6.92Z"/>
  <path class="cls-9" d="m570.43,172.64c-1.5,1.12-3.36,1.34-5.04,2.01-2.94,1.19-5.92,2.32-8.95,3.24-3.32,1.01-6.69.91-9.99-.31.42-.73,1.23-.67,1.88-.86,7.02-2.05,14.26-3.03,21.44-4.28.2-.03.44.13.66.19Z"/>
  <path class="cls-2" d="m248.39,402.15c3.22-.04,6.46-.33,9.64.42,1.62.38,3.18.95,4.04,2.56-3.36.66-6.73.99-10.13.23-1.78-.4-3.37-1.04-3.56-3.22Z"/>
  <path class="cls-9" d="m581.46,171.24c-.93.67-1.94.55-2.96.29.96-.38,1.94-.57,2.96-.29Z"/>
  <path class="cls-9" d="m586.24,170.78c-.93.66-1.93.53-2.94.27.95-.44,1.94-.39,2.94-.27Z"/>
  <path class="cls-9" d="m687.79,245.52c.21.04.42.07.63.11-.92.57-1.9.54-2.9.27.69-.51,1.52-.2,2.27-.38Z"/>
  <path class="cls-9" d="m576.64,171.74c-.76.62-1.6.53-2.46.27.78-.43,1.62-.39,2.46-.27Z"/>
  <path class="cls-9" d="m590.82,170.78c-.45.46-.84.38-1.2-.12.44-.42.84-.34,1.2.12Z"/>
  <path class="cls-9" d="m572.79,172.2c-.3.35-.64.42-1.02.14.32-.22.66-.27,1.02-.14Z"/>
  <path class="cls-9" d="m545.52,177.64c-.29.33-.64.39-1.04.26.28-.35.64-.41,1.04-.26Z"/>
  <path class="cls-7" d="m546.51,516.12c3.08-2.5,6.11-4.95,9.14-7.41,6.5-5.29,13.17-10.36,20.2-14.93,7.45-4.85,15.12-9.26,23.65-11.96,2.73-.87,5.49-1.56,8.42-1.64,6.83-.17,11.93,2.73,15.82,8.22,3.54,5.01,5.03,10.61,5.2,16.64.23,7.97-1.81,15.5-4.66,22.83-4.59,11.83-10.82,22.78-18.59,32.82-4.42,5.71-9.66,10.61-15.6,14.76-5.95,4.17-12.56,5.37-19.61,4.42-1.57-.21-2.79.1-4.05.89-3.79,2.39-7.29,5.18-10.74,8.01-8.48,6.97-17.98,11.89-28.74,14.07-10.4,2.11-19.93-.03-28.41-6.62-4.31-3.35-7.46-7.61-10.29-12.17-2.74-4.41-1.78-4.12-6.83-2.16-5.22,2.03-10.12,4.76-15.12,7.26-7.68,3.83-15.69,6.77-24.12,8.4-9.13,1.76-18.17,1.54-26.51-3.09-7.3-4.05-11.61-10.31-12.24-18.82-.15-2.04-.25-2.15-2.34-1.46-6.14,2.01-12.34,3.82-18.68,5.12-5.75,1.18-11.56,1.66-17.38,1.16-11.59-.99-20.45-9.67-23.04-19.47-1.29-4.91-1.58-9.85-1-14.93,1.6-13.94,7.29-26.04,16.27-36.63,6.61-7.81,14.51-14.16,23.55-18.95,4.31-2.28,8.97-3.7,14.01-3.55,6.99.21,11.96,4.7,13.05,11.64.51,3.24.21,6.35-.31,9.5-.33,1.97,0,2.29,1.98,1.72,3.29-.95,6.55-2.04,9.87-2.92,6.73-1.79,13.55-3.01,20.56-2.61,6.42.37,12.45,1.86,17.54,6.09,2.72,2.25,4.52,5.12,5.88,8.32.16.37.25.76.4,1.13.59,1.49.89,1.66,2.26.85,2.13-1.26,4.19-2.63,6.28-3.96,11.19-7.13,23.13-12.55,36-15.89,5.43-1.41,10.86-2.65,16.51-2.3,6.32.4,12.01,2.32,16.54,7.04,2.54,2.65,3.93,5.77,4.56,9.3.07.38-.01.8.56,1.29Z"/>
  <path class="cls-7" d="m375.18,628.45c.58-10.65,2.17-22.13,6.46-33.11.38-.97.58-1.98.79-3,.67-3.21,2.42-5.53,5.77-6.33,1.99-.47,3.91.09,5.53,1.02,6.39,3.67,12.36,7.87,16.78,13.99,2.14,2.96,4.39,5.86,7.34,8.16,1.3,1.01,2.3,2.42,3.39,3.7,1.36,1.59,2.91,1.94,4.93,1.28,4.18-1.37,8.17-3.21,12.24-4.84,5.86-2.35,11.81-4.49,18.04-5.53,6.63-1.11,13.3-1.45,19.92.42,7.98,2.26,12.4,7.72,14.41,15.47.06.23.07.47.13.71.68,2.74.79,2.85,3.53,1.8,5.45-2.09,11.05-3.71,16.75-4.87,7.07-1.44,14.18-2.13,21.33-.37,7.49,1.84,11.97,8.05,12.08,15.28.06,4.28-1.02,8.21-2.72,12.03-3,6.74-6.67,13.09-11.56,18.66-7.3,8.29-15.45,15.51-25.79,19.83-8.84,3.7-17.69,3.79-26.39-.46-3.46-1.69-6.62-3.91-9.17-6.82-1.57-1.79-3.22-2.2-5.52-1.57-3.3.9-6.64,1.67-10.03,2.23-7.11,1.17-13.63-.31-19.78-3.85-2.77-1.6-5.39-3.44-7.67-5.69-2.23-2.21-4.77-2.6-7.69-1.86-2.93.74-5.88,1.36-8.9,1.79-6.84.98-13.03-.6-18.55-4.57-6.74-4.84-11.64-11.11-13.85-19.25-1.17-4.32-1.82-8.73-1.83-14.25Z"/>
  <path class="cls-12" d="m398.65,702.48c-.27-5.45.92-10.63,3.05-15.6.94-2.21,1.98-4.4,4.5-5.32.28-.1.53-.36.75-.58,2.58-2.64,5.87-3.4,9.38-3.54,5.59-.23,10.9,1.1,16.13,2.94,6.29,2.21,12.08,5.36,17.77,8.8,2.99,1.81,6.32,3.05,9.47,4.6,2.8,1.38,4.99,3.43,6.42,6.22,2.98,5.83,2.17,11.46-1.15,16.83-3.09,5-7.43,8.74-12.59,11.48-6.48,3.44-13.33,5.56-20.68,6.33-7.33.77-14-.8-19.97-4.93-7.01-4.85-11.23-11.59-12.65-20.07-.4-2.39-.39-4.76-.43-7.15Z"/>
  <path class="cls-5" d="m449.32,495.08c-10.21-.35-19.73-1.62-28.82-5.23-1.14-.46-2.14-1.06-2.94-1.98-.95-1.09-1.43-2.31-.86-3.75.59-1.47,1.71-2.28,3.27-2.43,2.49-.23,4.92.32,7.36.67,4.26.61,8.49,1.3,12.82,1.29,5.51,0,11.01-.23,16.51-.47,2.18-.1,4.28.44,6.31,1.16,1.59.57,2.74,1.52,2.94,3.4.21,2.02-.66,3.4-2.28,4.39-2.29,1.4-4.81,2.24-7.45,2.41-2.46.16-4.9.71-6.87.55Z"/>
  <path class="cls-3" d="m280.16,599.43c-.11-1.22.29-2.24.82-3.25,2.45-4.7,6.07-8.34,10.33-11.41,2.15-1.55,4.45-2.77,7.02-3.52,1.29-.37,2.55-.82,3.6-1.79,1.15-1.06,2.22-1.12,3.26-.47,1.12.71,1.83,2.23,1.58,3.49-.3,1.47-1.25,2.54-2.21,3.62-3.04,3.41-6.64,6.19-10.15,9.06-2.28,1.87-4.53,3.77-6.63,5.84-.63.61-1.24,1.23-2.01,1.68-1.23.72-2.45,1.17-3.81.33-1.36-.84-2-2.02-1.77-3.57Z"/>
  <path class="cls-3" d="m285.98,366.56c-.19,2.15-1.29,4.48-2.73,6.59-2.88,4.21-5.94,8.31-8.95,12.43-.47.64-1.06,1.2-1.65,1.73-1.61,1.46-2.99,1.63-4.81.68-1.64-.86-2.58-2.74-2.29-4.59.38-2.42,1.48-4.53,2.77-6.57,2.34-3.72,4.71-7.4,7.9-10.49,1.6-1.55,3.49-2.54,5.49-3.34,2.4-.96,4.31.5,4.28,3.58Z"/>
  <path class="cls-3" d="m555.1,681.86c.25-1.81.54-3.77,2.48-4.97,2.62-1.62,5.18-1.01,6.69,1.69.77,1.39,1.44,2.84,2.09,4.29,1.42,3.13,3.99,5.58,5.21,8.83.25.67.54,1.33.83,1.98.66,1.47.45,2.88-.61,4-1.1,1.15-2.63,1.2-4.03.67-4.3-1.63-7.78-4.3-10.03-8.42-1.35-2.47-2.4-5.03-2.63-8.07Z"/>
  <path class="cls-3" d="m701.94,440.99c2.89.37,5.4,1.7,7.62,3.59,2.04,1.73,3.53,3.86,4.3,6.47.42,1.45.89,2.9,1.52,4.27.6,1.33.18,2.32-.71,3.24-1.01,1.04-2.21,1.22-3.49.64-.67-.3-1.14-.86-1.71-1.29-3.91-2.96-6.59-7.13-10.28-10.29-1.32-1.13-2.06-2.43-1.39-4.2.51-1.34,2.35-2.42,4.15-2.42Z"/>
  <path class="cls-6" d="m616.54,227.94c-2.67-.53-5.13-1.67-7.64-2.68-2.65-1.08-4.7-2.96-6.58-5.06-.65-.73-1.08-1.59-1.41-2.49-.61-1.69-.12-3.35,1.25-4.54,1.41-1.23,2.5-1.32,4.39-.33,1.93,1.01,3.53,2.47,5.15,3.87,2.17,1.87,3.99,4.13,6.31,5.85.43.32.73.84,1.03,1.3.59.91.91,1.85.21,2.89-.66.98-1.58,1.28-2.71,1.19Z"/>
  <path class="cls-6" d="m393.45,207.47c-.12-2.24.03-4.46.44-6.67.26-1.37.74-2.62,1.69-3.63,2.03-2.15,4.86-1.58,5.96,1.17.46,1.14.57,2.33.37,3.53-.47,2.83-.93,5.66-1.49,8.47-.21,1.04-.36,2.01.02,3.05.32.87.09,1.75-.35,2.54-.65,1.19-1.52,2.04-3.03,1.92-1.38-.1-2.2-.93-2.64-2.11-.6-1.65-.92-3.38-.97-5.15-.03-1.04,0-2.08,0-3.12Z"/>
  <path class="cls-8" d="m312.33,602.16c-.05,2.63-4.13,8.17-6.66,9.11-1.93.72-3.65.39-5.04-1.05-1.37-1.41-1.4-3.11-.67-4.88.47-1.15,1.21-2.12,2.21-2.76,2.08-1.34,4.28-2.49,6.67-3.17,1.95-.55,3.54.78,3.5,2.76Z"/>
  <path class="cls-8" d="m581.09,676.46c.92-.02,1.76.29,2.38.93,1.55,1.59,2.31,3.61,2.7,5.73.2,1.07-1,2.24-2.19,2.44-2.97.49-6.78-3.22-6.37-6.21.25-1.83,1.58-2.94,3.47-2.88Z"/>
</svg>