<?xml version="1.0" encoding="UTF-8"?>
<svg id="_图层_1" data-name="图层 1" xmlns="http://www.w3.org/2000/svg" viewBox="0 0 960 960">
  <defs>
    <style>
      .cls-1 {
        fill: #444794;
      }

      .cls-1, .cls-2, .cls-3, .cls-4, .cls-5, .cls-6, .cls-7, .cls-8, .cls-9, .cls-10 {
        stroke-width: 0px;
      }

      .cls-2 {
        fill: #444694;
      }

      .cls-3 {
        fill: #b5ccff;
      }

      .cls-4 {
        fill: #030303;
      }

      .cls-5 {
        fill: #b4ccff;
      }

      .cls-6 {
        fill: #b7ceff;
      }

      .cls-7 {
        fill: #454795;
      }

      .cls-8 {
        fill: #434693;
      }

      .cls-9 {
        fill: #b6cdff;
      }

      .cls-10 {
        fill: #5a7dff;
      }
    </style>
  </defs>
  <path class="cls-4" d="m200.55,324.46c-5.85-6.18-9.79-12.99-12.6-20.47-3.82-10.18-7.55-20.41-9.71-31.09-3.09-15.26-3.71-30.61-.78-45.99.93-4.9,2.42-9.61,4.8-14,2.2-4.06,5.02-7.6,8.76-10.36,6.09-4.49,12.85-5.86,20.21-4.2,3.38.76,6.55,2.08,9.56,3.76,4.96,2.77,9.74,5.83,14.36,9.14.64.46,1.2,1.07,1.98,1.28.47-.13.58-.53.74-.88,7.03-14.64,15.91-28.1,26.35-40.5,8.39-9.97,17.15-19.63,26.9-28.33,2.15-1.91,4.16-3.98,6.17-6.04,9.43-9.7,20.22-17.64,31.8-24.55,8.81-5.25,18.3-8.71,28.33-10.77,2.13-.44,4.28-.52,6.45-.35,7.19.58,12.14,5.22,13.25,12.32.66,4.24.26,8.46-.25,12.67-.81,6.7-2.53,13.18-4.74,19.54-.23.65-.45,1.31-.75,2.18,1.21-.04,1.82-.72,2.53-1.14,23.31-13.87,47.22-26.58,72.37-36.81,22.33-9.08,45.54-14.95,69.42-18.09,13.5-1.77,27.09-2.31,40.67-.66,5.88.72,11.7,1.76,17.3,3.78,2.64.95,5.17,2.13,7.51,3.7,8.05,5.4,11.27,13.4,9.23,22.88-1.11,5.18-3.52,9.75-6.56,14.02-2.46,3.46-5.28,6.63-8.25,9.66-.54.55-1.32.94-1.43,1.94,4.06,1.66,8.24,2.96,12.51,3.94,8.86,2.03,17.27,5.21,25.3,9.45,17.88,9.44,36.09,18.27,53.81,27.99,22.75,12.47,44.38,26.72,63.37,44.62,4.95,4.67,9.66,9.56,13.73,15.04,3.27,4.39,5.88,9.13,7.69,14.31.77,2.2,1.29,4.45,1.48,6.77.56,6.74-2.66,12.48-8.71,15.49-.78.39-1.58.73-2.29,1.05-.27.54.13.68.35.83,12.93,9.5,24.64,20.39,35.82,31.84,11.12,11.39,21.61,23.35,31.07,36.19,16.17,21.97,28.12,46.06,36.32,72.04,1.9,6.03,3.29,12.19,3.81,18.52.66,8.1-.58,15.94-3.16,23.6-.28.83-.63,1.65-1,2.44-3.42,7.33-9.17,11.28-17.25,11.81-.71.05-1.43,0-2.23,0-.11,1.16.76,1.61,1.29,2.2,9.41,10.47,18.52,21.19,26.73,32.65,4.29,5.98,8.3,12.14,12.07,18.46,8.69,14.58,14.4,30.26,17.44,46.94.93,5.11,2.07,10.18,2.6,15.36.57,5.59.65,11.18-.24,16.74-1.51,9.48-5.81,17.56-12.75,24.16-4.43,4.21-9.71,6.7-15.97,6.65-1.77-.01-3.5-.34-5.22-.7-.69-.14-1.38-.25-2-.37-.59.63-.18,1.16-.09,1.66,2.07,11.7,2.97,23.47,2.07,35.34-.36,4.81-1.55,9.46-3.11,14.01-2.43,7.05-5.63,13.74-9.37,20.19-8.11,14-20.08,22.9-35.58,27.28-7.43,2.1-14.89,2.93-22.5,1.32-1.23-.26-1.9.07-2.56,1.07-2.02,3.07-4.08,6.12-6.22,9.11-10.66,14.86-24.3,26.24-40.79,34.08-15.29,7.27-31.37,9.64-48.14,6.78-1.81-.31-3.61-.72-5.35-1.32-6.83-2.36-13.25-5.59-19.32-9.49-1.34-.86-2.54-1.94-3.73-3.01-.73-.67-1.3-.68-2.08-.11-2.46,1.78-5,3.45-7.45,5.25-6,4.4-11.93,8.88-17.94,13.26-11.17,8.14-23.11,14.89-36.12,19.64-13.71,5-27.83,7.86-42.46,7.87-7.22,0-14.33-1.22-21.47-2.08-15.04-1.79-29.01-6.95-42.54-13.46-1.88-.91-3.47-.94-5.41-.22-9.63,3.57-19.56,3.68-29.57,2.15-2.84-.43-5.65-1.1-8.44-1.8-9.54-2.39-17.4-7.47-23.73-14.97-1.28-1.51-1.26-1.51-3.12-.72-13.24,5.61-26.99,8.56-41.39,7.13-11.88-1.18-22.72-5.11-31.57-13.55-3.87-3.69-8.09-7.04-11.56-11.15-.73-.86-1.5-1.08-2.53-.73-1.66.57-3.34,1.1-5,1.69-7.39,2.59-14.81,5.17-22.51,6.66-10.89,2.1-21.76,2.36-32.48-1.12-5.52-1.8-10.61-4.42-15.21-7.98-9.35-7.22-16.52-16.07-21.28-27-6.94-15.93-10.95-32.52-12.43-49.78-1.41-16.53-1.22-33.07-.66-49.62.44-12.95,1.27-25.88,3.11-38.71,1.41-9.81,3.02-19.59,4.54-29.39.3-1.96.56-3.93.86-6.03-1.23,0-2.11.34-3.01.58-5.13,1.39-10.33,2.16-15.66,1.65-7.03-.67-12.36-3.98-15.82-10.2-3.03-5.45-4.05-11.4-4.39-17.52-.36-6.5.33-12.94,1.08-19.37,3.04-26,10.65-50.8,20.14-75.06,4.66-11.91,9.74-23.65,14.63-35.46.21-.52.43-1.03.65-1.55.3-.7.04-1.01-.68-1.13-1.97-.31-3.95-.62-5.91-.98-6.06-1.13-12.05-2.47-17.82-4.7-8.19-3.16-14.89-8.36-20.45-15.04-5.67-6.82-7.56-14.82-6.85-23.55.63-7.78,3.24-14.96,6.71-21.87,4.71-9.38,11.09-17.55,18.4-25.01,1.22-1.25,2.54-2.41,3.95-3.73Zm362.32-219.26c-.13-.21-.3-.28-.53-.18l-.91-.2c-.63-.35-1.26-.68-2-.34-.29-.06-.58-.12-.87-.17-.67-.34-1.36-.59-2.12-.3-.44-.07-.88-.14-1.32-.21-.78-.26-1.56-.58-2.4-.23-.8-.08-1.6-.16-2.4-.25-1.75-.26-3.49-.69-5.28-.24-2.89,0-5.78,0-8.67,0-2.42-.55-4.8,0-7.19.24-.96.08-1.92.16-2.88.24-1.15-.29-2.25-.04-3.36.24-.64.07-1.28.15-1.92.22-1.02-.28-2-.07-2.95.31-.47.06-.94.13-1.4.19-.84-.1-1.67-.14-2.43.32-.31.05-.63.1-.94.15-.68-.11-1.34-.11-1.95.27-.46.08-.92.16-1.38.24-.69-.1-1.36-.13-1.95.33-.31.05-.62.1-.92.16-.53-.12-1.04-.1-1.5.25-.46.08-.91.17-1.37.25-.38-.13-.72-.08-1.04.18-22.45,3.95-44.1,10.59-65.06,19.47-25.78,10.92-50.35,24.25-74.87,37.65-2.29,1.25-4.56,1.53-6.78.03-2.13-1.44-2.8-3.59-2.52-6.08.13-1.22.63-2.3,1.13-3.4,1.32-2.91,2.54-5.86,3.23-9,.31-.15.45-.41.56-.72,1.43-3.97,2.85-7.94,3.8-12.05,1.2-5.2,2.12-10.45,1.93-15.82-.09-2.4-.98-3.22-3.28-2.92-2.99.4-5.91,1.09-8.75,2.11-4.87,1.36-9.55,3.22-13.96,5.67-9.61,5.33-18.65,11.49-26.73,18.96-5.16,4.78-10.08,9.81-15.21,14.63-4.25,4-8.27,8.23-12.28,12.47-10.92,11.54-20.49,24.09-28.71,37.69-4.03,6.66-7.41,13.61-10.05,20.92-.6,1.65-1.2,3.3-1.83,4.94-.46,1.2-1.01,2.35-1.77,3.39-1.63,2.22-3.84,3.13-6,2.48-2.21-.66-3.64-2.6-3.83-5.26-.1-1.36-.13-2.75.31-4.04.6-1.76-.09-2.77-1.48-3.79-5.03-3.69-10.18-7.19-15.6-10.29-1.6-.91-3.23-1.74-4.98-2.34-6.86-2.35-12.72.11-15.93,6.69-1.49,1.34-2.03,3.2-2.68,4.98-2.14,5.92-2.91,12.11-3.23,18.33-.45,8.63-.02,17.24,1.3,25.8,2.02,13.14,5.48,25.92,9.49,38.56,1.33,4.19,3.4,8.1,5.63,11.9.79,1.33.99,1.32,2.17.32,1.83-1.55,3.64-3.12,5.45-4.69,3.26-2.84,6.99-5.03,10.48-7.55,1.88-1.02,3.76-2.05,5.64-3.07,3.24-1.74,6.57-3.29,10.09-4.4.68-.22,1.38-.43,2.08-.54,1.27-.2,2.4.16,3.2,1.2.87,1.13.81,2.37.22,3.62-.42.88-1.04,1.62-1.76,2.25-1.15.99-2.3,1.99-3.52,2.89-11.53,8.41-22.14,17.86-32.1,28.06-1,1.03-2.04,2.04-2.71,3.34-.62.08-.96.54-1.33.96-3.64,4.15-7.1,8.44-9.99,13.16-4.25,6.94-7.59,14.23-8.52,22.44-.68,6.03.73,11.41,4.86,15.97,5.46,6.04,12.11,10.05,20.04,12.01,5.9,1.46,11.85,2.57,17.87,3.38,2.28.31,4.61.43,6.82,1.22,3.47,1.24,5.37,4.53,4.65,8.16-.28,1.42-.72,2.78-1.31,4.1-.95,2.11-1.91,4.22-2.8,6.36-3.36,8.03-6.61,16.12-10.07,24.1-7.46,17.19-13.43,34.88-18.2,52.99-2.44,9.27-4.28,18.67-5.39,28.2-.75,6.43-1.57,12.85-1.27,19.34.18,3.77.75,7.47,2.37,10.93,1.21,2.57,3.09,4.1,6.06,4.41,2.59.26,5.1-.01,7.61-.44,3.78-.64,7.42-1.9,11.17-2.71,5.55-1.2,11.04,2.92,11.61,8.91.23,2.39.21,4.81-.12,7.18-.75,5.37-1.53,10.75-2.46,16.09-1.88,10.86-3.45,21.76-4.52,32.72-.85,8.67-1.24,17.37-1.43,26.07-.3,13.18-.57,26.37.28,39.56.28,4.31.61,8.61,1.16,12.88,1.53,11.93,4.5,23.49,9,34.68,3.61,8.97,8.44,16.98,15.82,23.39,4.53,3.94,9.47,7.04,15.22,8.82,8,2.47,16.11,2.12,24.19.69,7.57-1.35,14.83-3.86,22.05-6.45,2.33-.84,4.67-1.64,7.07-2.27,5.19-1.35,9.6-.24,13.17,3.94,3.75,4.39,8.18,8.09,12.43,11.97,2.3,2.11,4.83,3.91,7.71,5.21,8.04,3.61,16.38,4.99,25.2,4.35,7.99-.58,15.58-2.46,23.02-5.27,2.56-.97,4.88-2.38,7.34-3.53,3.74-1.75,7.26-.92,9.84,2.29.7.87,1.34,1.79,1.98,2.71,3.93,5.62,9.14,9.58,15.63,11.74,6.8,2.26,13.8,3.25,20.99,3.06,5.02-.14,9.87-1,14.44-3.03,5.73-2.54,11.67-4.29,17.8-5.53,1.87-.38,3.37.11,4.51,1.47,1.14,1.36,1.45,2.98.75,4.72-.59,1.46-1.62,2.55-2.84,3.49-.41.32-1.05.49-.88,1.32.25.11.53.25.82.35,9.7,3.23,19.38,6.48,29.6,7.8,5.94.77,11.86,1.72,17.83,2.13,7.45.51,14.87-.18,22.19-1.53,17.95-3.33,34.35-10.44,49.23-20.98,8.28-5.86,16.39-11.96,24.6-17.92,2.72-1.97,5.47-3.89,8.28-5.73,4.08-2.67,7.78-2.32,11.36.93.65.59,1.25,1.24,1.91,1.82,1.14,1,2.2,2.16,3.49,2.91,7.12,4.13,14.21,8.41,22.7,9.13,6.54.55,13.07.75,19.58-.47,9.3-1.74,17.89-5.25,25.97-10.14,8.84-5.35,16.54-11.99,23.21-19.85,4.52-5.32,8.24-11.19,12.06-16.99,2.24-3.39,5.21-5.06,9.29-4.66.95.09,1.9.21,2.85.38,3.37.61,6.74,1.4,10.21.98,4.86-.6,9.57-1.83,14.09-3.73,6.57-2.76,12.38-6.56,16.96-12.16,4.45-5.44,7.66-11.58,10.57-17.91,4.05-8.77,6.16-17.93,5.64-27.66-.15-2.79-.38-5.58-.53-8.37-.29-5.35-.86-10.66-2.23-15.86-1.54-5.87-3.06-11.75-4.64-17.61-.4-1.5-.5-3.01-.3-4.52.31-2.4,1.57-4.22,3.9-5.01,2.18-.74,4.25-.38,6.02,1.24,1.27,1.16,2.22,2.5,2.65,4.19.41,1.63.9,3.23,1.26,4.87.2.91.65,1.36,1.56,1.54,2.04.4,4.04.95,6.08,1.32,5.07.92,9.29-.57,12.63-4.55,4.55-5.43,7.37-11.54,7.67-18.71.25-6.09-.18-12.12-1.41-18.11-1.65-8.06-3.07-16.16-5.61-24.01-4.75-14.68-12.5-27.81-21.32-40.33-10.55-15-22.65-28.72-35.18-42.08-3.83-4.08-7.59-8.22-11.39-12.32-.72-.77-1.26-1.66-1.66-2.62-1.42-3.44.11-7.05,3.56-8.49,2.19-.92,4.26-.38,6.25.54,2.97,1.38,5.87,2.91,8.83,4.32,2.82,1.34,5.69,2.53,8.81,3.04,5.84.94,8.17-.97,9.87-5.26.09-.22.2-.44.27-.67,2.29-7.27,3.13-14.64,1.77-22.22-1.68-9.41-4.86-18.36-8.38-27.2-.41-1.02-.55-2.18-1.42-2.99-.93-1.58-1.1-3.43-1.83-5.1-6.49-14.83-14.44-28.83-23.86-42-9.55-13.35-20.44-25.57-31.78-37.4-8.08-8.42-16.82-16.15-25.64-23.78-7.17-6.2-15.25-11.04-23.49-15.65-2.92-1.64-5.16-3.73-4.91-7.45,1.53-4.31,3.63-5.79,8.22-5.79,3.04,0,6.08-.03,9.11,0,1.62.02,3.19-.25,4.74-.6,2.98-.69,3.83-2.09,3.15-5.05-1.07-4.68-3.34-8.8-6.16-12.62-4-5.41-8.63-10.24-13.63-14.76-10.62-9.62-21.76-18.54-33.93-26.15-7.52-4.7-14.87-9.68-22.61-14.01-8.93-4.99-18.23-9.27-27.28-14.05-9.68-5.11-19.44-10.07-29.12-15.18-6.46-3.41-13.15-6.2-20.25-7.92-6.14-1.48-12.16-3.36-18.08-5.56-1.85-.69-3.67-1.56-5.72-1.59-2.16-1.2-4.68-1.01-6.95-1.78-.32-.81-1.18-1.04-1.73-1.61-2.64-2.72-2.47-6.37.4-8.83,1.08-.93,2.36-1.3,3.7-1.56.86-.17,1.67-.34,2.36-1.01,3.67-3.55,7.63-6.81,10.83-10.84,3.05-3.83,5.95-7.73,7.01-12.66.89-4.12-.16-7-3.62-9.34-3.37-2.29-7.17-3.43-11.17-4.01-.05-.06-.12-.11-.2-.14Z"/>
  <path class="cls-10" d="m555.27,155.19c2.27.78,4.79.58,6.95,1.78.05,2.47,1.87,3.59,3.69,4.58,4.15,2.26,8.64,3.75,13.06,5.36,11.64,4.24,22.91,9.31,34.08,14.63,6.27,2.99,12.41,6.26,18.45,9.68,4.79,2.72,9.64,5.35,14.12,8.56,12.45,8.92,25.22,17.39,37.48,26.57,6.39,4.78,12.74,9.62,18.57,15.05,3.96,3.69,8.04,7.27,11.65,11.36,3.16,3.59,6.56,6.97,9.6,10.68.55.67,1.43,1.28.99,2.25-.46,1.01-1.55.6-2.37.6-3.36,0-6.71-.11-10.07-.08-2.32.02-4.15,1.07-5.34,3.09-2.11,3.58-.7,7.67,3.33,9.52,1.37.63,2.81,1.13,4.31,1.4-.24,3.72,1.99,5.82,4.91,7.45,8.23,4.61,16.31,9.44,23.49,15.65,8.82,7.63,17.56,15.36,25.64,23.78,11.34,11.83,22.23,24.05,31.78,37.4,9.42,13.17,17.37,27.17,23.86,42,.73,1.67.9,3.52,1.83,5.1-.77.66-.91,1.66-1.25,2.52-1.1,2.71-2.76,5.01-4.76,7.12-5.34,5.65-12.11,8.76-19.38,10.95-4.13,1.25-8.41,1.75-12.71,2.13-4.39.38-8.75.32-13.14.04-3.66-.23-7.3-.86-10.98-.69-4.05.19-7.09,3.93-6.41,7.9.29,1.7,1.17,3.13,2.35,4.36,1.99,2.08,3.95,4.18,5.93,6.26,4.46,4.69,9.13,9.17,13.4,14.05,3.05,3.48,6.25,6.85,8.93,10.62,4.82,6.78,9.18,13.87,12.64,21.44,3.93,8.58,6.23,17.6,6.04,27.1-.07,3.26-.38,6.54-.94,9.75-1.24,7.11-4.5,13.15-10.52,17.34-8.64,6.02-18.5,8.41-28.82,9.26-2.39.2-4.75.57-7.06,1.21-4.7,1.29-7.01,5.34-6.87,9.23.14,3.59.72,7.14.95,10.71.27,4.06.96,8.07,1.14,12.14.27,5.96,1.01,11.88.52,17.9-.44,5.44-1.33,10.76-2.65,16.01-1.79,7.16-4.26,14.06-8.54,20.18-4.61,6.59-10.18,12.27-16.31,17.44-5.53,4.67-11.93,6.57-19.05,6.46-2.8-.04-5.55-.47-8.31-.84-8.42-1.14-16.27-3.9-23.57-8.23-1.58-.94-3.13-1.91-4.69-2.88-3.74-2.31-7.21-1.81-10.66.75-8.65,6.42-17.43,12.67-26.32,18.77-6.32,4.34-12.65,8.66-18.88,13.13-12.43,8.92-25.59,16.6-39.44,23.1-3.76,1.76-7.64,3.24-11.75,4.03-3.53.68-7.07,1.32-10.68,1.07-2.54-.18-5.07-.51-7.59-.88-6.09-.88-12.06-2.21-17.86-4.33-5.62-2.06-11.16-4.35-16.86-6.2-8.4-2.73-16.77-2.69-25.16.03-5.86,1.9-11.54,4.23-17.19,6.65-5.87,2.51-11.68,5.19-17.56,7.67-10.83,4.57-21.98,8.22-33.33,11.23-5.3,1.41-10.68,2.66-16.26,1.78-5.33-.84-10.4-2.32-14.96-5.37-4.32-2.89-7.63-6.81-10.87-10.74-2.96-3.59-5.96-7.13-9.47-10.15-6.89-5.91-14.7-8.11-23.59-5.11-4.25,1.44-8.28,3.36-12.2,5.54-3.14,1.75-6.35,3.36-9.83,4.37-2.12.62-3.86.32-5.51-1.22-1.87-1.74-3.68-3.53-5.41-5.41-2.82-3.06-5.4-6.3-7.83-9.66-3.64-5.03-6.04-10.69-8.38-16.39-3.52-8.57-6.7-17.25-9.22-26.18-3.62-12.81-5.13-25.94-6.07-39.14-.38-5.32-.75-10.67-.58-16.03.22-6.86-.26-13.74.34-20.6.15-1.77.29-3.47,1.07-5.09,3.92-8.14,8.29-16.03,13.21-23.62,4-6.16,8.17-12.22,12.16-18.39,2.3-3.56,4.37-7.25,5.18-11.51.89-4.72-1.69-9.73-6.6-10.95-3.17-.79-6.21-.25-9.17.72-9.67,3.14-19,7.1-27.71,12.38-5.67,3.44-11.39,6.82-16.47,11.1-1.64,1.38-3.14,1.57-5.04,1.16-5.41-1.19-8.85-4.5-10.65-9.65-1.4-4.02-1.98-8.19-2.51-12.39-.61-4.79-.53-9.59-.21-14.35.37-5.48.99-10.94,1.7-16.39.71-5.46,1.62-10.87,2.78-16.25,1.74-8.06,4.62-15.77,7.18-23.58.25-.78.64-1.46,1.1-2.11,5.06-7.14,10.99-13.5,17.39-19.42,6.74-6.25,13.52-12.46,18.81-20.05,2.56-3.67,4.92-7.44,6.11-11.86,1.63-6.03-2.1-11.36-7.19-13.11-3.44-1.18-6.99-1.64-10.57-1.76-5.98-.2-11.95.28-17.92.81-5.82.52-11.49,1.75-17.13,3.2-.8.2-1.57.32-2.36.14-3.36-.79-6.55-1.97-9.51-3.82-5.32-3.32-9.41-7.85-13.07-12.84-5.15-7.04-7.18-14.68-4.54-23.24.19-.62.28-1.25.06-1.88.68-1.3,1.71-2.31,2.71-3.34,9.96-10.2,20.58-19.65,32.1-28.06,1.22-.89,2.37-1.89,3.52-2.89.73-.63,1.35-1.37,1.76-2.25.59-1.25.65-2.49-.22-3.62-.8-1.04-1.93-1.4-3.2-1.2-.71.11-1.4.33-2.08.54-3.52,1.11-6.85,2.66-10.09,4.4-1.89,1.01-3.76,2.04-5.64,3.07-1.53-3.1-3.66-5.79-5.77-8.49-2.8-3.58-5.54-7.2-7.71-11.23-3.26-6.07-5.69-12.49-7.94-18.97-2.64-7.61-5.22-15.24-6.67-23.2-.8-4.4-1.31-8.83-1.58-13.27-.23-3.79-.61-7.68,1.1-11.33.18-.37.19-.77-.03-1.15,3.2-6.58,9.07-9.04,15.93-6.69,1.75.6,3.39,1.43,4.98,2.34,5.42,3.1,10.57,6.6,15.6,10.29,1.39,1.02,2.08,2.03,1.48,3.79-.44,1.29-.4,2.68-.31,4.04.19,2.66,1.63,4.61,3.83,5.26,2.16.64,4.37-.27,6-2.48.77-1.04,1.32-2.19,1.77-3.39.63-1.64,1.24-3.29,1.83-4.94,2.64-7.32,6.02-14.26,10.05-20.92,8.22-13.6,17.79-26.15,28.71-37.69,4.01-4.24,8.02-8.47,12.28-12.47,5.12-4.82,10.05-9.85,15.21-14.63,8.08-7.48,17.12-13.63,26.73-18.96,4.42-2.45,9.09-4.31,13.96-5.67,1.2.14,1.39.97,1.59,2,1.47,7.47,2.77,14.95,3.43,22.54.14,1.6-.08,3.33.71,4.86-.69,3.14-1.91,6.09-3.23,9-.49,1.09-1,2.18-1.13,3.4-.27,2.49.39,4.64,2.52,6.08,2.22,1.51,4.49,1.22,6.78-.03,24.53-13.41,49.1-26.73,74.87-37.65,20.97-8.88,42.62-15.52,65.06-19.47.4.26.74.17,1.04-.18.46-.08.91-.17,1.37-.25.56.27,1.07.23,1.5-.25.31-.05.62-.1.92-.16.7.2,1.38.25,1.95-.33.46-.08.92-.16,1.38-.24.7.27,1.37.33,1.95-.27.31-.05.63-.1.94-.15.85.22,1.69.32,2.43-.32.47-.06.94-.13,1.4-.19,1.02.25,2.03.39,2.95-.31.64-.07,1.28-.15,1.92-.22,1.15.34,2.28.41,3.36-.24.96-.08,1.92-.16,2.88-.24,2.41.34,4.82.46,7.19-.24,2.89,0,5.78,0,8.67,0,1.73.68,3.5.59,5.28.24.8.08,1.6.16,2.4.25.75.6,1.56.61,2.4.23.44.07.88.14,1.32.21.64.59,1.36.61,2.12.3.29.06.58.12.87.17.58.62,1.27.59,2,.34.3.07.61.13.91.2.12.24.27.36.53.18.08.03.14.07.2.14-.34.76-.29,1.57-.27,2.36.05,2.01-.33,3.97-.72,5.91-1.66,8.12-4.95,15.6-9.1,22.72-1.62,2.78-2.86,5.7-3.45,8.86-.65,3.46-.32,6.7,2.74,9.07.87.67,1.75,1.45,3.01.94Zm-151.38,365.64c-1.22-2.42-2.25-4.47-3.28-6.52-2.07-4.15-4.88-7.68-8.69-10.35-7.18-5.04-14.6-5.67-22.36-.79-5,3.14-9.04,7.24-12.73,11.83-7.6,9.45-13.36,19.83-16.77,31.49-1.91,6.53-3.19,13.11-2.43,20.02.52,4.71,1.36,9.31,2.99,13.75,2.48,6.73,6.2,12.62,12.09,16.88,5.05,3.65,10.55,5.22,16.7,2.99.76-.28,1.53-.46,2.34-.4,5.79.41,11.03-1.49,16.08-3.98,6.03-2.97,11.73-6.51,17.12-10.52,1.81-1.35,3.38-1.39,5.26-.39,2.9,1.53,5.84,2.98,8.8,4.39,4.18,1.99,8.45,3.86,12.91,5.1,7.71,2.15,15.53,3.3,23.62,2.62,7.39-.62,14.25-2.7,20.72-6.14,4.58-2.44,9.06-5.07,13.51-7.74,1.26-.76,2.14-.59,3.24.19,2.79,2,5.65,3.9,8.48,5.83,6.16,4.2,13,6.42,20.42,6.7,5.68.21,11.32-.35,16.86-1.61,5.5-1.25,10.55-3.61,15.4-6.46,5.32-3.12,10.38-6.58,14.85-10.85,6.72-6.41,11.76-14.08,16.18-22.16,4.9-8.96,8.02-18.6,10.09-28.58,1.08-5.18,1.67-10.42.52-15.67-1.1-5.03-3.57-9.2-7.97-12.07-3.37-2.2-7.11-3.36-11.1-3.12-4.87.3-9.27,2.2-13.42,4.72-2.39,1.45-4.75,2.95-6.99,4.62-1.2.89-1.48.81-2.23-.43-.2-.34-.36-.71-.55-1.07-1.4-2.67-3.38-4.81-5.85-6.54-5.31-3.71-11.41-4.84-17.66-5.22-5.44-.33-10.82.49-16.12,1.72-6.59,1.53-12.64,4.34-18.55,7.6-7.74,4.27-14.85,9.35-21.18,15.53-2.74,2.68-5.53,5.31-8.33,7.93-1.18,1.11-1.47,1.08-2.42-.26-1.75-2.48-3.45-4.99-5.19-7.47-2.96-4.21-6.37-7.98-10.83-10.67-9.02-5.43-18.34-5.93-27.92-1.63-4.57,2.05-8.1,5.34-10.89,9.46-1.52,2.24-2.97,4.53-4.74,7.26Zm139.78,109.84c-.07-1.4.04-3.02-.25-4.58-1.59-8.59-6.58-14.36-14.76-17.32-5.71-2.07-11.57-2.52-17.65-2.01-6.06.51-11.78,1.94-17.3,4.39-4.01,1.78-8.03,3.56-12.01,5.41-1.05.49-1.95.52-2.94-.07-1.09-.66-2.2-1.31-3.33-1.89-7.33-3.76-15.17-5.74-23.3-6.83-8.85-1.19-17.17.11-24.94,4.6-2.1,1.21-2.15,1.22-3.55-.89-3.86-5.8-9.24-8.64-16.2-8.38-6.64.25-13.17,1.19-19.5,3.31-5.89,1.97-10.38,5.72-13.2,11.17-1.89,3.66-3.74,7.37-5.42,11.13-3.35,7.54-3.3,15.49-2.02,23.49,1.23,7.72,4.78,14.14,10.7,19.25,5.62,4.86,12.24,6.8,19.52,6.32,5.37-.36,10.45-2.17,15.43-4.15,6.97-2.78,13.92-5.61,20.85-8.49,1.42-.59,2.51-.39,3.75.47,4.7,3.25,9.83,5.66,15.32,7.23,4.3,1.23,8.68,1.95,13.15,2.35,5.84.52,11.65.54,17.43-.26,6.56-.91,12.61-3.36,18.32-6.71,2.34-1.37,4.77-2.59,7.15-3.91,1.17-.65,2.31-.77,3.67-.52,2.76.51,5.62.61,8.35.08,6.47-1.25,11.67-4.74,15.48-10.08,4.88-6.83,7.17-14.53,7.24-23.12Zm-108.05,54.9c-2.95.02-5.88.03-8.82.48-3.45.52-6.73,1.33-9.54,3.48-1.92,1.47-3.15,3.39-3.21,5.88-.05,2.31-.14,4.64.02,6.95.36,4.96,2.4,9.08,6.69,11.82,4.28,2.74,8.94,3.46,13.97,2.67,7.82-1.22,14.95-4.02,21.03-9.08,4.32-3.59,6.2-8.93,1.92-14.85-1.91-2.64-4.47-4.3-7.44-5.38-4.71-1.71-9.64-2.04-14.61-1.96Zm-135.32-504.71c-.03-4.66-4.13-7.83-8.62-6.82-2.41.54-4.21,1.95-5.68,3.76-1.26,1.56-2.69,2.95-4.01,4.44-3.12,3.52-6.33,6.99-8.89,10.96-4.09,6.33-7.16,13.19-10.18,20.07-.74,1.68-1.39,3.4-1.75,5.21-.52,2.66.81,5.78,3.11,7.27,2.82,1.82,5.62,1.48,8.34-.18,4.4-2.68,7.58-6.59,10.45-10.73,6.4-9.23,11.09-19.41,16.08-29.41.7-1.4,1.27-2.94,1.15-4.55Zm151.08-2.37c1.75.06,3.3-.59,4.73-1.47,2.17-1.33,4.31-2.73,6.39-4.21,6.91-4.93,14.26-9.05,22.13-12.23,3.82-1.54,7.2-3.79,10-6.82,1.42-1.54,1.82-3.34.94-5.3-.85-1.88-2.37-2.65-4.41-2.66-2.43-.02-4.77.45-7.03,1.24-7.11,2.47-13.81,5.85-20.23,9.74-5.39,3.26-10.54,6.88-14.96,11.45-1.08,1.12-1.86,2.37-2.33,3.84-1.12,3.5,1.07,6.46,4.76,6.43Zm220.83,459.6c8.78.02,15.33-2.79,21.1-7.56,1.96-1.62,3.72-3.49,4.96-5.79.91-1.68,1.93-3.31,2.91-4.95.66-1.1,1.21-2.26,1.5-3.51.29-1.28-.33-2.78-1.31-3.35-.97-.55-1.99-.31-3.16.87-1.07,1.08-2.21,2.08-3.49,2.9-2.96,1.89-6.04,3.56-9.01,5.44-5.39,3.41-11.23,4.62-17.62,3.25-2.68-.58-5.45-1.1-8.29-.41-2.28.55-4.16,1.52-4.58,3.94-.4,2.31.96,3.91,2.86,5.06,4.7,2.85,9.89,3.88,14.12,4.1Zm1.84-185.06c-.04,2.03,1,3.63,3.03,4.43,1.1.44,2.35.56,3.4,1.08,5.57,2.75,11.21,5.38,16.29,9,1.3.92,2.57,1.87,3.76,2.94.47.42,1.03.75,1.6,1.03,1.39.68,2.54.48,3.46-.53.82-.89.83-1.9.08-3.32-2.49-4.71-6.04-8.57-9.71-12.35-3.5-3.61-7.78-5.79-12.58-6.98-2.11-.52-4.29-.43-6.33.49-1.8.82-2.94,2.15-3.01,4.21Zm-46.77-227.1c-.73.04-1.3,0-1.84.11-1.67.35-3.03,1.3-3.54,2.89-.5,1.55-.31,3.17,1.12,4.36.74.61,1.36,1.37,2.13,1.92,1.45,1.03,2.65,2.27,3.68,3.71,1.25,1.75,2.62,3.42,4.26,4.83,1.69,1.45,3.25,3.07,5.17,4.22,2.78,1.66,5.61.04,5.64-3.19,0-.63,0-1.29-.15-1.9-1.33-5.23-3.76-9.8-8.03-13.23-2.52-2.02-5.23-3.66-8.44-3.71Zm69.69,213.04c-.32,0-.64-.02-.96,0-2.23.19-3.99,1.62-4.52,3.66-.42,1.64.43,3.39,2.26,4.64.33.22.68.43,1.05.56,2.2.76,4.16,2.02,6.27,2.98,2.25,1.02,4.53,2,6.85,2.85,1.38.51,2.7,0,3.42-1.02.78-1.11.74-2.26,0-3.35-1.71-2.51-3.46-5.03-5.89-6.89-2.49-1.9-5.17-3.5-8.48-3.44Zm-410.81,40.29s-.42-.03-.81,0c-1.85.14-3.76,1.59-4.14,3.13-.46,1.84.25,3.46,2.05,4.7.79.54,1.64.96,2.53,1.34,4.13,1.76,8.56,2.48,12.85,3.66,1.08.3,1.85-.14,2.53-.91.74-.85.69-1.76.16-2.66-.56-.96-1.12-1.92-2.08-2.58-2.16-1.51-4.22-3.16-6.44-4.55-1.89-1.19-3.92-2.17-6.65-2.12Zm-25.24-121.49c-.04,2.66,1.9,3.98,4.58,2.87.9-.38,1.62-1,2.31-1.68,3.95-3.84,6.68-8.75,10.9-12.38,1.16-1,.41-2.73-1.17-3.05-1.39-.28-2.77-.02-3.92.73-3.74,2.44-7.49,4.92-10.4,8.37-1.16,1.38-2.34,2.86-2.29,5.14Zm235.3-189.9v.07c-.8,0-1.6-.08-2.39.02-1.98.23-3.95.5-5.64,1.71-1.91,1.37-2.71,3.54-2.04,5.65.63,1.98,2.45,3.27,4.83,3.14,4-.22,6.83-2.83,9.7-5.17,1.08-.88,1.01-2.52.4-3.82-.6-1.29-1.76-1.76-3.19-1.61-.55.06-1.12,0-1.67,0Zm-181.93,32.06c0-2.42-.82-3.74-2.67-4.52-2.44-1.02-5.01-.11-6.27,2.28-1.3,2.49-1.82,5.26-2.53,7.95-.41,1.55.63,2.79,2.13,3.21,1.04.29,1.87-.14,2.71-.59,2.08-1.12,3.49-3,5.15-4.6,1.09-1.06,1.61-2.35,1.48-3.72Zm340.12,35.13c.06-1.11-.46-2.05-1.04-2.88-1.18-1.7-2.47-3.33-3.75-4.95-.44-.56-.97-1.03-1.7-1.28-1.27-.43-2.37-.17-3.2.85-.88,1.07-.97,2.11-.18,3.29.58.87,1.44,1.47,2.23,2.14,1.5,1.28,3.35,2.19,4.38,4,.4.72.96,1.39,1.9,1.1,1.05-.33,1.43-1.19,1.36-2.26Zm62.76,366.02c-.04-2.2-1.66-3.81-3.81-3.77-2.34.04-4.75,2.66-4.73,5.14.02,2.14,1.75,3.92,3.75,3.84,2.24-.09,4.83-2.92,4.79-5.21Z"/>
  <path class="cls-7" d="m204.22,339.05c.22.63.13,1.26-.06,1.88-2.64,8.56-.61,16.21,4.54,23.24,3.66,4.99,7.75,9.53,13.07,12.84,2.96,1.84,6.15,3.02,9.51,3.82.79.19,1.56.07,2.36-.14,5.64-1.45,11.31-2.68,17.13-3.2,5.96-.53,11.93-1,17.92-.81,3.58.12,7.13.58,10.57,1.76,5.1,1.75,8.83,7.08,7.19,13.11-1.2,4.42-3.55,8.19-6.11,11.86-5.29,7.59-12.07,13.8-18.81,20.05-6.4,5.93-12.33,12.29-17.39,19.42-.46.65-.85,1.34-1.1,2.11-2.56,7.81-5.45,15.52-7.18,23.58-1.16,5.37-2.07,10.79-2.78,16.25-.71,5.45-1.33,10.92-1.7,16.39-.32,4.76-.4,9.56.21,14.35.53,4.21,1.11,8.37,2.51,12.39,1.8,5.15,5.24,8.47,10.65,9.65,1.9.42,3.4.22,5.04-1.16,5.08-4.28,10.8-7.66,16.47-11.1,8.72-5.29,18.04-9.24,27.71-12.38,2.97-.96,6-1.51,9.17-.72,4.91,1.22,7.5,6.23,6.6,10.95-.81,4.26-2.88,7.95-5.18,11.51-3.99,6.17-8.16,12.22-12.16,18.39-4.92,7.58-9.29,15.47-13.21,23.62-.78,1.62-.91,3.32-1.07,5.09-.6,6.86-.12,13.74-.34,20.6-.17,5.36.2,10.71.58,16.03.94,13.2,2.44,26.33,6.07,39.14,2.53,8.93,5.7,17.61,9.22,26.18,2.34,5.69,4.74,11.35,8.38,16.39,2.44,3.37,5.02,6.61,7.83,9.66,1.73,1.88,3.54,3.67,5.41,5.41,1.65,1.54,3.39,1.83,5.51,1.22,3.48-1.01,6.69-2.63,9.83-4.37,3.92-2.18,7.94-4.1,12.2-5.54,8.89-3.01,16.7-.81,23.59,5.11,3.51,3.01,6.51,6.56,9.47,10.15,3.24,3.93,6.54,7.84,10.87,10.74,4.56,3.05,9.63,4.54,14.96,5.37,5.58.88,10.96-.38,16.26-1.78,11.35-3.01,22.5-6.66,33.33-11.23,5.88-2.48,11.69-5.16,17.56-7.67,5.65-2.42,11.33-4.76,17.19-6.65,8.4-2.72,16.76-2.76,25.16-.03,5.7,1.85,11.23,4.14,16.86,6.2,5.8,2.12,11.78,3.45,17.86,4.33,2.52.37,5.05.7,7.59.88,3.61.25,7.15-.39,10.68-1.07,4.11-.79,7.99-2.27,11.75-4.03,13.85-6.49,27-14.17,39.44-23.1,6.23-4.47,12.56-8.79,18.88-13.13,8.88-6.1,17.66-12.35,26.32-18.77,3.45-2.56,6.92-3.06,10.66-.75,1.56.97,3.12,1.94,4.69,2.88,7.3,4.33,15.15,7.08,23.57,8.23,2.77.38,5.52.8,8.31.84,7.11.11,13.52-1.8,19.05-6.46,6.13-5.18,11.7-10.85,16.31-17.44,4.29-6.12,6.75-13.02,8.54-20.18,1.32-5.26,2.21-10.57,2.65-16.01.49-6.02-.26-11.93-.52-17.9-.18-4.07-.88-8.08-1.14-12.14-.24-3.57-.82-7.12-.95-10.71-.15-3.89,2.16-7.94,6.87-9.23,2.31-.64,4.66-1.01,7.06-1.21,10.32-.85,20.18-3.24,28.82-9.26,6.02-4.2,9.28-10.23,10.52-17.34.56-3.21.87-6.49.94-9.75.19-9.5-2.11-18.52-6.04-27.1-3.47-7.57-7.82-14.65-12.64-21.44-2.68-3.77-5.88-7.14-8.93-10.62-4.26-4.87-8.94-9.36-13.4-14.05-1.98-2.08-3.95-4.18-5.93-6.26-1.18-1.24-2.06-2.66-2.35-4.36-.68-3.97,2.36-7.71,6.41-7.9,3.68-.17,7.32.46,10.98.69,4.39.28,8.75.35,13.14-.04,4.3-.38,8.58-.88,12.71-2.13,7.27-2.19,14.04-5.3,19.38-10.95,2-2.11,3.65-4.41,4.76-7.12.35-.86.48-1.86,1.25-2.52.87.81,1.01,1.97,1.42,2.99,3.53,8.84,6.7,17.79,8.38,27.2,1.36,7.58.51,14.95-1.77,22.22-.07.23-.18.44-.27.67-1.7,4.29-4.03,6.2-9.87,5.26-3.11-.5-5.99-1.69-8.81-3.04-2.96-1.41-5.86-2.94-8.83-4.32-1.99-.92-4.06-1.46-6.25-.54-3.45,1.45-4.97,5.05-3.56,8.49.4.97.94,1.85,1.66,2.62,3.8,4.1,7.57,8.24,11.39,12.32,12.52,13.36,24.62,27.08,35.18,42.08,8.82,12.53,16.56,25.65,21.32,40.33,2.54,7.85,3.96,15.95,5.61,24.01,1.23,5.98,1.67,12.01,1.41,18.11-.3,7.17-3.12,13.28-7.67,18.71-3.34,3.98-7.56,5.47-12.63,4.55-2.04-.37-4.05-.92-6.08-1.32-.91-.18-1.36-.63-1.56-1.54-.36-1.64-.85-3.24-1.26-4.87-.43-1.69-1.38-3.03-2.65-4.19-1.77-1.62-3.83-1.98-6.02-1.24-2.33.79-3.59,2.62-3.9,5.01-.19,1.5-.1,3.01.3,4.52,1.58,5.86,3.1,11.74,4.64,17.61,1.37,5.2,1.94,10.52,2.23,15.86.15,2.79.38,5.58.53,8.37.52,9.73-1.59,18.89-5.64,27.66-2.92,6.32-6.13,12.46-10.57,17.91-4.58,5.6-10.39,9.4-16.96,12.16-4.51,1.9-9.22,3.13-14.09,3.73-3.47.43-6.84-.36-10.21-.98-.95-.17-1.89-.29-2.85-.38-4.08-.4-7.05,1.27-9.29,4.66-3.83,5.8-7.55,11.68-12.06,16.99-6.68,7.86-14.38,14.5-23.21,19.85-8.08,4.89-16.67,8.39-25.97,10.14-6.51,1.22-13.04,1.02-19.58.47-8.49-.72-15.58-5-22.7-9.13-1.29-.75-2.35-1.91-3.49-2.91-.66-.58-1.26-1.23-1.91-1.82-3.59-3.25-7.28-3.59-11.36-.93-2.81,1.83-5.56,3.76-8.28,5.73-8.21,5.96-16.32,12.06-24.6,17.92-14.88,10.54-31.28,17.65-49.23,20.98-7.31,1.36-14.74,2.05-22.19,1.53-5.97-.41-11.89-1.36-17.83-2.13-10.22-1.32-19.9-4.58-29.6-7.8-.29-.1-.57-.24-.82-.35-.17-.83.47-1,.88-1.32,1.22-.94,2.25-2.02,2.84-3.49.71-1.74.39-3.36-.75-4.72-1.14-1.37-2.65-1.85-4.51-1.47-6.13,1.23-12.07,2.98-17.8,5.53-4.58,2.03-9.42,2.89-14.44,3.03-7.19.2-14.19-.79-20.99-3.06-6.49-2.16-11.7-6.13-15.63-11.74-.64-.92-1.28-1.84-1.98-2.71-2.59-3.21-6.1-4.04-9.84-2.29-2.46,1.15-4.79,2.57-7.34,3.53-7.44,2.81-15.03,4.69-23.02,5.27-8.82.64-17.17-.74-25.2-4.35-2.88-1.3-5.41-3.1-7.71-5.21-4.25-3.88-8.68-7.58-12.43-11.97-3.57-4.18-7.98-5.29-13.17-3.94-2.4.62-4.74,1.43-7.07,2.27-7.22,2.6-14.48,5.11-22.05,6.45-8.08,1.44-16.18,1.78-24.19-.69-5.76-1.78-10.69-4.88-15.22-8.82-7.38-6.41-12.2-14.41-15.82-23.39-4.51-11.19-7.48-22.75-9-34.68-.55-4.27-.88-8.57-1.16-12.88-.86-13.18-.58-26.37-.28-39.56.2-8.7.59-17.41,1.43-26.07,1.07-10.96,2.64-21.87,4.52-32.72.93-5.35,1.71-10.72,2.46-16.09.33-2.37.35-4.79.12-7.18-.57-5.98-6.05-10.11-11.61-8.91-3.75.81-7.38,2.07-11.17,2.71-2.51.42-5.02.7-7.61.44-2.97-.3-4.85-1.83-6.06-4.41-1.63-3.46-2.2-7.17-2.37-10.93-.3-6.49.52-12.91,1.27-19.34,1.11-9.54,2.95-18.93,5.39-28.2,4.77-18.11,10.74-35.8,18.2-52.99,3.47-7.99,6.71-16.07,10.07-24.1.89-2.14,1.85-4.25,2.8-6.36.59-1.32,1.03-2.68,1.31-4.1.72-3.63-1.18-6.92-4.65-8.16-2.21-.79-4.54-.91-6.82-1.22-6.02-.81-11.97-1.92-17.87-3.38-7.93-1.96-14.58-5.97-20.04-12.01-4.13-4.56-5.54-9.94-4.86-15.97.93-8.21,4.27-15.5,8.52-22.44,2.89-4.72,6.35-9.01,9.99-13.16.36-.42.71-.88,1.33-.96Z"/>
  <path class="cls-1" d="m713.77,280.24c-1.5-.27-2.94-.77-4.31-1.4-4.02-1.85-5.44-5.94-3.33-9.52,1.19-2.02,3.02-3.07,5.34-3.09,3.36-.03,6.71.09,10.07.08.82,0,1.9.41,2.37-.6.45-.97-.44-1.59-.99-2.25-3.04-3.71-6.44-7.09-9.6-10.68-3.61-4.09-7.68-7.67-11.65-11.36-5.84-5.43-12.19-10.27-18.57-15.05-12.27-9.18-25.03-17.66-37.48-26.57-4.48-3.21-9.33-5.85-14.12-8.56-6.04-3.43-12.18-6.69-18.45-9.68-11.17-5.32-22.44-10.39-34.08-14.63-4.42-1.61-8.91-3.1-13.06-5.36-1.82-.99-3.64-2.11-3.69-4.58,2.04.02,3.87.9,5.72,1.59,5.92,2.2,11.94,4.07,18.08,5.56,7.11,1.71,13.79,4.51,20.25,7.92,9.68,5.11,19.44,10.07,29.12,15.18,9.04,4.78,18.34,9.06,27.28,14.05,7.75,4.33,15.1,9.3,22.61,14.01,12.17,7.61,23.3,16.53,33.93,26.15,5,4.52,9.63,9.35,13.63,14.76,2.82,3.82,5.09,7.94,6.16,12.62.68,2.96-.17,4.37-3.15,5.05-1.55.36-3.13.62-4.74.6-3.04-.04-6.07,0-9.11,0-4.59,0-6.68,1.48-8.22,5.79Z"/>
  <path class="cls-1" d="m194.48,218.07c.22.38.21.77.03,1.15-1.71,3.64-1.33,7.53-1.1,11.33.27,4.44.79,8.88,1.58,13.27,1.44,7.96,4.03,15.6,6.67,23.2,2.25,6.48,4.67,12.9,7.94,18.97,2.17,4.03,4.9,7.65,7.71,11.23,2.12,2.7,4.24,5.39,5.77,8.49-3.49,2.52-7.22,4.71-10.48,7.55-1.8,1.58-3.62,3.14-5.45,4.69-1.18,1-1.38,1.02-2.17-.32-2.24-3.79-4.3-7.7-5.63-11.9-4.01-12.64-7.46-25.42-9.49-38.56-1.32-8.56-1.75-17.17-1.3-25.8.32-6.23,1.09-12.41,3.23-18.33.64-1.78,1.19-3.64,2.68-4.98Z"/>
  <path class="cls-2" d="m555.27,155.19c-1.26.5-2.14-.27-3.01-.94-3.06-2.36-3.39-5.61-2.74-9.07.59-3.15,1.83-6.08,3.45-8.86,4.15-7.13,7.45-14.6,9.1-22.72.4-1.94.77-3.9.72-5.91-.02-.79-.07-1.6.27-2.36,4,.57,7.8,1.72,11.17,4.01,3.46,2.35,4.51,5.22,3.62,9.34-1.07,4.93-3.96,8.83-7.01,12.66-3.2,4.03-7.16,7.28-10.83,10.84-.69.67-1.5.84-2.36,1.01-1.34.26-2.62.63-3.7,1.56-2.87,2.46-3.03,6.1-.4,8.83.55.57,1.41.8,1.73,1.61Z"/>
  <path class="cls-8" d="m358.29,145.34c-.79-1.53-.57-3.26-.71-4.86-.66-7.59-1.96-15.08-3.43-22.54-.2-1.03-.39-1.86-1.59-2,2.84-1.01,5.77-1.71,8.75-2.11,2.3-.3,3.19.51,3.28,2.92.19,5.37-.73,10.62-1.93,15.82-.95,4.11-2.37,8.09-3.8,12.05-.11.31-.26.57-.56.72Z"/>
  <path class="cls-8" d="m536.36,103.08c-2.38.7-4.78.58-7.19.24,2.39-.24,4.77-.79,7.19-.24Z"/>
  <path class="cls-8" d="m550.3,103.32c-1.78.34-3.55.44-5.28-.24,1.78-.44,3.53-.02,5.28.24Z"/>
  <path class="cls-8" d="m526.28,103.56c-1.08.65-2.21.58-3.36.24,1.1-.28,2.21-.53,3.36-.24Z"/>
  <path class="cls-8" d="m521.01,104.02c-.92.69-1.93.56-2.95.31.96-.37,1.93-.59,2.95-.31Z"/>
  <path class="cls-8" d="m555.1,103.8c-.84.38-1.65.37-2.4-.23.84-.35,1.62-.03,2.4.23Z"/>
  <path class="cls-8" d="m561.42,104.82c-.73.25-1.42.28-2-.34.75-.34,1.38,0,2,.34Z"/>
  <path class="cls-8" d="m558.54,104.3c-.76.31-1.48.3-2.12-.3.76-.3,1.45-.05,2.12.3Z"/>
  <path class="cls-8" d="m516.65,104.52c-.74.64-1.58.54-2.43.32.76-.46,1.59-.42,2.43-.32Z"/>
  <path class="cls-8" d="m509.95,105.51c-.57.58-1.25.53-1.95.33.59-.46,1.27-.43,1.95-.33Z"/>
  <path class="cls-8" d="m513.28,104.99c-.58.6-1.25.55-1.95.27.61-.38,1.27-.38,1.95-.27Z"/>
  <path class="cls-8" d="m507.07,105.99c-.43.49-.94.52-1.5.25.45-.35.96-.38,1.5-.25Z"/>
  <path class="cls-8" d="m504.21,106.5c-.3.35-.64.44-1.04.18.31-.26.66-.3,1.04-.18Z"/>
  <path class="cls-8" d="m562.86,105.2c-.26.18-.42.06-.53-.18.23-.1.41-.03.53.18Z"/>
  <path class="cls-6" d="m403.89,520.83c1.78-2.73,3.23-5.02,4.74-7.26,2.78-4.12,6.32-7.41,10.89-9.46,9.58-4.3,18.91-3.8,27.92,1.63,4.46,2.69,7.87,6.46,10.83,10.67,1.74,2.48,3.44,5,5.19,7.47.95,1.34,1.24,1.37,2.42.26,2.79-2.62,5.58-5.25,8.33-7.93,6.33-6.18,13.43-11.26,21.18-15.53,5.9-3.25,11.96-6.06,18.55-7.6,5.3-1.23,10.67-2.05,16.12-1.72,6.26.38,12.35,1.5,17.66,5.22,2.47,1.73,4.45,3.87,5.85,6.54.19.35.34.73.55,1.07.74,1.25,1.03,1.33,2.23.43,2.24-1.67,4.6-3.17,6.99-4.62,4.15-2.52,8.55-4.42,13.42-4.72,3.99-.24,7.73.92,11.1,3.12,4.4,2.87,6.87,7.05,7.97,12.07,1.15,5.25.56,10.49-.52,15.67-2.08,9.98-5.19,19.61-10.09,28.58-4.42,8.08-9.46,15.75-16.18,22.16-4.47,4.26-9.53,7.73-14.85,10.85-4.85,2.85-9.9,5.21-15.4,6.46-5.54,1.26-11.18,1.82-16.86,1.61-7.43-.27-14.26-2.5-20.42-6.7-2.84-1.93-5.69-3.84-8.48-5.83-1.1-.79-1.98-.95-3.24-.19-4.45,2.67-8.93,5.3-13.51,7.74-6.47,3.44-13.33,5.52-20.72,6.14-8.09.68-15.91-.48-23.62-2.62-4.46-1.24-8.72-3.11-12.91-5.1-2.96-1.41-5.9-2.86-8.8-4.39-1.89-1-3.45-.96-5.26.39-5.39,4.01-11.09,7.55-17.12,10.52-5.05,2.49-10.29,4.39-16.08,3.98-.81-.06-1.58.12-2.34.4-6.14,2.23-11.64.66-16.7-2.99-5.9-4.26-9.62-10.15-12.09-16.88-1.63-4.44-2.47-9.03-2.99-13.75-.76-6.91.52-13.49,2.43-20.02,3.41-11.65,9.16-22.04,16.77-31.49,3.69-4.59,7.73-8.69,12.73-11.83,7.76-4.88,15.19-4.25,22.36.79,3.81,2.67,6.62,6.2,8.69,10.35,1.02,2.05,2.06,4.09,3.28,6.52Z"/>
  <path class="cls-6" d="m543.67,630.66c-.06,8.59-2.36,16.29-7.24,23.12-3.82,5.34-9.01,8.83-15.48,10.08-2.73.53-5.59.43-8.35-.08-1.36-.25-2.5-.12-3.67.52-2.38,1.31-4.81,2.53-7.15,3.91-5.71,3.35-11.76,5.79-18.32,6.71-5.78.8-11.59.78-17.43.26-4.47-.4-8.86-1.12-13.15-2.35-5.49-1.57-10.62-3.98-15.32-7.23-1.24-.86-2.33-1.06-3.75-.47-6.93,2.88-13.88,5.71-20.85,8.49-4.98,1.98-10.05,3.8-15.43,4.15-7.28.48-13.9-1.47-19.52-6.32-5.92-5.11-9.47-11.53-10.7-19.25-1.27-8-1.32-15.95,2.02-23.49,1.67-3.76,3.52-7.47,5.42-11.13,2.82-5.45,7.31-9.2,13.2-11.17,6.33-2.12,12.86-3.06,19.5-3.31,6.96-.26,12.35,2.58,16.2,8.38,1.4,2.11,1.45,2.1,3.55.89,7.77-4.49,16.09-5.79,24.94-4.6,8.13,1.09,15.97,3.07,23.3,6.83,1.14.58,2.24,1.23,3.33,1.89.98.59,1.89.56,2.94.07,3.98-1.85,8-3.63,12.01-5.41,5.51-2.45,11.24-3.88,17.3-4.39,6.08-.51,11.94-.06,17.65,2.01,8.19,2.97,13.18,8.74,14.76,17.32.29,1.56.18,3.19.25,4.58Z"/>
  <path class="cls-9" d="m435.62,685.57c4.97-.07,9.89.25,14.61,1.96,2.97,1.08,5.53,2.74,7.44,5.38,4.28,5.92,2.4,11.26-1.92,14.85-6.08,5.06-13.21,7.86-21.03,9.08-5.03.79-9.69.07-13.97-2.67-4.28-2.74-6.33-6.86-6.69-11.82-.16-2.3-.08-4.63-.02-6.95.06-2.49,1.29-4.4,3.21-5.88,2.81-2.15,6.09-2.96,9.54-3.48,2.94-.45,5.88-.45,8.82-.48Z"/>
  <path class="cls-9" d="m300.3,180.85c.12,1.61-.45,3.15-1.15,4.55-4.99,10-9.68,20.18-16.08,29.41-2.87,4.14-6.05,8.06-10.45,10.73-2.72,1.66-5.52,2-8.34.18-2.29-1.48-3.63-4.61-3.11-7.27.36-1.81,1.01-3.53,1.75-5.21,3.02-6.88,6.09-13.74,10.18-20.07,2.57-3.97,5.77-7.43,8.89-10.96,1.32-1.49,2.75-2.88,4.01-4.44,1.47-1.81,3.27-3.22,5.68-3.76,4.49-1.01,8.59,2.16,8.62,6.82Z"/>
  <path class="cls-3" d="m451.38,178.48c-3.68.03-5.88-2.93-4.76-6.43.47-1.47,1.25-2.73,2.33-3.84,4.41-4.57,9.57-8.19,14.96-11.45,6.42-3.89,13.12-7.27,20.23-9.74,2.26-.79,4.6-1.25,7.03-1.24,2.04.01,3.56.78,4.41,2.66.89,1.96.48,3.77-.94,5.3-2.8,3.04-6.18,5.28-10,6.82-7.88,3.18-15.22,7.3-22.13,12.23-2.08,1.48-4.21,2.88-6.39,4.21-1.43.88-2.99,1.53-4.74,1.47Z"/>
  <path class="cls-3" d="m672.2,638.08c-4.23-.23-9.42-1.25-14.12-4.1-1.9-1.16-3.26-2.76-2.86-5.06.42-2.42,2.3-3.39,4.58-3.94,2.84-.69,5.61-.17,8.29.41,6.38,1.37,12.22.16,17.62-3.25,2.97-1.88,6.06-3.55,9.01-5.44,1.28-.82,2.42-1.81,3.49-2.9,1.16-1.18,2.19-1.42,3.16-.87.98.56,1.61,2.07,1.31,3.35-.29,1.25-.84,2.41-1.5,3.51-.98,1.64-2,3.27-2.91,4.95-1.24,2.29-3,4.16-4.96,5.79-5.77,4.77-12.32,7.58-21.1,7.56Z"/>
  <path class="cls-3" d="m674.05,453.02c.07-2.07,1.21-3.4,3.01-4.21,2.04-.92,4.22-1.02,6.33-.49,4.8,1.19,9.08,3.37,12.58,6.98,3.67,3.78,7.22,7.65,9.71,12.35.75,1.42.74,2.42-.08,3.32-.92,1.01-2.07,1.21-3.46.53-.57-.28-1.13-.61-1.6-1.03-1.19-1.07-2.46-2.02-3.76-2.94-5.09-3.62-10.73-6.25-16.29-9-1.06-.52-2.3-.64-3.4-1.08-2.03-.8-3.06-2.4-3.03-4.43Z"/>
  <path class="cls-3" d="m627.28,225.92c3.21.05,5.92,1.69,8.44,3.71,4.27,3.43,6.7,8.01,8.03,13.23.15.61.16,1.27.15,1.9-.03,3.22-2.86,4.85-5.64,3.19-1.92-1.15-3.48-2.77-5.17-4.22-1.64-1.41-3.01-3.08-4.26-4.83-1.03-1.44-2.23-2.68-3.68-3.71-.77-.55-1.4-1.31-2.13-1.92-1.44-1.19-1.62-2.8-1.12-4.36.51-1.59,1.87-2.54,3.54-2.89.54-.11,1.11-.07,1.84-.11Z"/>
  <path class="cls-5" d="m696.97,438.96c3.31-.06,5.99,1.54,8.48,3.44,2.43,1.86,4.18,4.38,5.89,6.89.74,1.1.79,2.24,0,3.35-.72,1.02-2.05,1.52-3.42,1.02-2.32-.85-4.6-1.82-6.85-2.85-2.1-.96-4.07-2.22-6.27-2.98-.37-.13-.73-.34-1.05-.56-1.83-1.25-2.68-3-2.26-4.64.52-2.04,2.29-3.47,4.52-3.66.32-.03.64,0,.96,0Z"/>
  <path class="cls-5" d="m286.16,479.25c2.73-.06,4.76.93,6.65,2.12,2.22,1.4,4.29,3.05,6.44,4.55.96.67,1.52,1.62,2.08,2.58.53.9.58,1.81-.16,2.66-.68.78-1.45,1.21-2.53.91-4.29-1.18-8.72-1.9-12.85-3.66-.89-.38-1.74-.8-2.53-1.34-1.8-1.24-2.51-2.86-2.05-4.7.38-1.53,2.3-2.99,4.14-3.13.4-.03.8,0,.81,0Z"/>
  <path class="cls-5" d="m260.92,357.77c-.04-2.27,1.13-3.76,2.29-5.14,2.91-3.46,6.66-5.93,10.4-8.37,1.15-.75,2.53-1.01,3.92-.73,1.58.32,2.34,2.05,1.17,3.05-4.22,3.62-6.95,8.54-10.9,12.38-.69.67-1.4,1.3-2.31,1.68-2.68,1.11-4.62-.22-4.58-2.87Z"/>
  <path class="cls-5" d="m496.21,167.86c.56,0,1.12.05,1.67,0,1.42-.15,2.59.32,3.19,1.61.6,1.3.67,2.94-.4,3.82-2.87,2.34-5.71,4.95-9.7,5.17-2.38.13-4.2-1.16-4.83-3.14-.67-2.1.13-4.28,2.04-5.65,1.69-1.21,3.67-1.48,5.64-1.71.79-.09,1.59-.02,2.39-.02v-.07Z"/>
  <path class="cls-5" d="m314.29,199.93c.13,1.37-.39,2.67-1.48,3.72-1.66,1.6-3.07,3.48-5.15,4.6-.84.45-1.67.88-2.71.59-1.51-.42-2.54-1.67-2.13-3.21.71-2.69,1.23-5.45,2.53-7.95,1.25-2.4,3.83-3.3,6.27-2.28,1.85.78,2.66,2.09,2.67,4.52Z"/>
  <path class="cls-5" d="m654.4,235.06c.08,1.07-.31,1.93-1.36,2.26-.94.3-1.5-.38-1.9-1.1-1.02-1.82-2.88-2.72-4.38-4-.79-.67-1.65-1.27-2.23-2.14-.79-1.18-.7-2.22.18-3.29.83-1.01,1.94-1.27,3.2-.85.72.25,1.26.72,1.7,1.28,1.28,1.63,2.57,3.25,3.75,4.95.58.84,1.09,1.78,1.04,2.88Z"/>
  <path class="cls-5" d="m717.16,601.08c.04,2.3-2.56,5.13-4.79,5.21-2,.08-3.73-1.7-3.75-3.84-.02-2.48,2.4-5.1,4.73-5.14,2.15-.04,3.77,1.57,3.81,3.77Z"/>
</svg>