<?xml version="1.0" encoding="UTF-8"?>
<svg id="_图层_1" data-name="图层 1" xmlns="http://www.w3.org/2000/svg" viewBox="0 0 960 960">
  <defs>
    <style>
      .cls-1 {
        fill: #444794;
      }

      .cls-1, .cls-2, .cls-3, .cls-4, .cls-5, .cls-6, .cls-7, .cls-8, .cls-9, .cls-10, .cls-11, .cls-12, .cls-13 {
        stroke-width: 0px;
      }

      .cls-2 {
        fill: #aec7fc;
      }

      .cls-3 {
        fill: #444694;
      }

      .cls-4 {
        fill: #b5ccff;
      }

      .cls-5 {
        fill: #030303;
      }

      .cls-6 {
        fill: #b4ccff;
      }

      .cls-7 {
        fill: #434592;
      }

      .cls-8 {
        fill: #b7ceff;
      }

      .cls-9 {
        fill: #b3caff;
      }

      .cls-10 {
        fill: #454795;
      }

      .cls-11 {
        fill: #acc5f8;
      }

      .cls-12 {
        fill: #b6cdff;
      }

      .cls-13 {
        fill: #5a7dff;
      }
    </style>
  </defs>
  <path class="cls-5" d="m150.56,654.17c-1.07.17-2.01.34-2.96.45-6.66.77-12.13-1.39-16.22-6.75-3.18-4.17-4.78-9.01-5.67-14.1-1.44-8.18-.49-16.25,1.14-24.29,2.65-13.11,7.56-25.38,13.45-37.34,10.84-22.03,25-41.81,40.79-60.5,6.97-8.25,14.25-16.22,21.92-23.82.44-.44.83-.92,1.33-1.47-.75-.51-1.49-.33-2.16-.39-10.63-.84-18.11-8.93-18.09-19.59,0-3.14.55-6.2,1.32-9.23,1.93-7.63,4.79-14.91,8.48-21.85,6.46-12.16,13.45-23.97,22-34.82,5.44-6.9,10.34-14.24,16.54-20.53.8-.81.83-1.62.59-2.62-1.86-7.71-3.07-15.52-3.96-23.39-.51-4.53-.86-9.07-.89-13.64-.06-8.71,2.31-16.72,6.82-24.14,5.08-8.36,11.94-14.96,20.11-20.24,6.53-4.23,13.59-7.43,20.75-10.43,4.86-2.04,9.69-4.15,14.57-6.15,1.22-.5,1.53-1.14,1.59-2.48.41-10.1,2.05-20.02,4.66-29.79,3.97-14.85,10.09-28.79,17.74-42.08,5.12-8.9,11.61-16.63,19.79-22.9,2.93-2.24,6-4.24,9.39-5.74,2.28-1.01,4.64-1.74,7.14-1.92,6.66-.48,11.85,2,15.41,7.71,1.79,2.87,2.85,6.05,3.64,9.21.63.25.88-.09,1.15-.36,17.25-16.75,36.7-30.56,57.18-43.02,20.11-12.24,41.02-22.91,62.89-31.66,10.56-4.22,21.3-7.84,32.46-10.08,8.33-1.67,16.68-1.82,24.98.24,12.6,3.12,18.61,12.06,16.88,24.94-.74,5.53-2.75,10.66-4.74,15.8-.48,1.24-.94,2.48-1.41,3.7.75.38,1.24.03,1.74-.16,16.92-6.25,34.36-10.55,52.03-14,15.46-3.02,30.97-5.77,46.63-7.48,16.45-1.8,32.91-3.63,49.51-3.09,8.81.29,17.54,1.2,26.05,3.69,13.78,4.02,23.74,12.87,31.07,24.87,4.44,7.27,5.24,15.3,4.1,23.63-1.39,10.12-4.82,19.5-9.92,28.25.08.68.66.72,1.05.91,8.16,3.96,15.75,8.84,22.97,14.28,7.41,5.58,14.74,11.26,22.04,16.98,8.22,6.43,15.72,13.6,22.2,21.8,5.48,6.94,10.05,14.43,13.15,22.74,3.07,8.23,3.22,16.4-.77,24.42-.64,1.29-1.39,2.52-2.27,3.66-2.6,3.39-5.98,5.47-10.2,6.19-.84.14-1.71.15-2.45.52-.08.78.4,1.17.72,1.59,12.06,15.69,19.12,33.67,24.09,52.6,3.27,12.46,6.09,25.02,7.58,37.82,1.92,16.56,2.9,33.14.3,49.74-.84,5.39-2.08,10.67-4.3,15.68-.23.51-.46,1.02-.69,1.53-3.29,7.27-8.83,11.55-16.77,12.73-3.1.46-6.19.69-9.32.66-1.79-.02-1.83.03-1.26,1.69,3.68,10.6,6.31,21.47,8.04,32.54,2.28,14.57,3.17,29.24,2.64,43.99-.17,4.66-.95,9.23-2.81,13.55-.6,1.39-1.26,2.77-2.04,4.06-3.08,5.09-6.3,7.13-12.13,7.81-.38.64,0,1.24.12,1.84,2,9.55,4.16,19.1,4.86,28.83,1.71,23.81-1.85,46.88-10.78,69.06-4.37,10.85-9.57,21.29-16.13,31-6.22,9.2-13.81,16.97-23.63,22.38-3.31,1.82-6.77,3.25-10.53,3.82-2.31.36-4.61.41-6.91-.07-2.08-.44-1.91-.57-2.39,1.72-1.83,8.85-4.02,17.61-6.38,26.33-1.67,6.18-3.62,12.26-6.13,18.16-1.41,3.32-2.99,6.55-4.96,9.57-7.62,11.66-18.38,16.42-32.09,14.34-13.96-2.13-26.2-8.03-36.79-17.36-5.77-5.08-11.09-10.61-16.15-16.39-1.56-1.79-1.3-1.56-2.94-.26-3.14,2.47-6.31,4.91-9.42,7.42-8.26,6.65-17.17,12.28-26.71,16.86-13.47,6.46-26.95,12.92-41.26,17.43-10.44,3.3-21.07,5.25-32.06,5.18-6.23-.04-12.47.33-18.71.06-7.69-.33-15.22-1.91-22.84-2.81-15.62-1.85-30.79-5.67-45.86-10.02-3.45-1-6.98-1.73-10.44-2.72-1.92-.55-3.58-.33-5.23.76-1.47.97-2.99,1.84-4.5,2.75-11.09,6.71-22.91,11.73-35.54,14.64-17.24,3.98-34.07,2.64-50.59-3.9-15.01-5.94-29.23-13.32-42.57-22.38-14.35-9.75-28.41-19.91-41.84-30.92-.98-.8-1.83-1.01-3.04-.66-4.22,1.23-8.44,2.45-12.74,3.38-8.23,1.78-16.33,1.36-24.42-.95-10.12-2.89-19.3-7.69-27.89-13.62-19.87-13.74-33.14-32.51-40.34-55.35-5.73-18.21-6.44-36.93-2.93-55.75.13-.69.38-1.38.09-2.33Zm237.09-461.4c-.44-.02-.69.23-.88.58-.21.1-.45.17-.62.32-7.16,6.34-14.49,12.5-21.36,19.16-.86.83-1.66,1.74-2.74,2.3-2.15,1.12-4.44.14-5.13-2.18-.43-1.45-.12-2.84.36-4.21.62-1.74,1.56-3.31,2.54-4.86.38-.6.82-1.15.49-1.97-.78-1.91-1.51-3.84-2.27-5.76-.1-1.46-.71-2.78-1.23-4.11-2.04-5.2-3.89-5.89-8.95-3.4-3.25,1.6-6.09,3.8-8.82,6.13-7.3,6.21-12.61,13.89-16.64,22.52-.19.24-.43.46-.57.73-3.95,7.48-7.35,15.19-10.04,23.21-.86,2.56-1.87,5.08-2.32,7.77-.79,1.32-1.02,2.83-1.41,4.27-1.84,6.77-3.24,13.66-5.56,20.3-.08.23-.04.47.2.61,6.38-1.55,6.78-1.57,9.56-.64,1.68,2.21,1.42,3.61-1.07,4.61-3.49,1.4-6.83,3.11-10.09,4.95-8,4.5-16.13,8.75-24.34,12.86-4.28,2.15-8.45,4.51-12.45,7.16-7.57,5.02-13.82,11.3-18.37,19.21-.71,1.24-1.5,2.46-1.74,3.91-1.4,1.91-1.91,4.18-2.4,6.42-.99,4.48-.99,8.99-.6,13.56.62,7.24,1.53,14.42,2.82,21.56.74,4.08,2,8.05,2.49,12.17-.26.49-.42.98,0,1.46-.32,2.15-1.43,3.85-2.98,5.33-1.1,1.05-2.14,2.15-3.17,3.27-3.95,4.3-7.31,9.07-10.88,13.67-7.85,10.11-15.14,20.57-21.16,31.89-.48.91-1.07,1.75-1.26,2.78-.23.21-.54.38-.67.64-3.14,5.84-5.93,11.82-7.77,18.22-.73,2.53-1.42,5.06-1.76,7.68-.62,4.77,2.19,8.46,6.86,8.26.87-.04,1.75.13,2.62-.13,1.72.4,3.46.07,5.19.1,1,.44,1.99.43,2.99,0,.62.1,1.26.17,1.87.32,5.55,1.33,7.25,5.82,3.93,10.37-.47.64-.99,1.24-1.44,1.88-.73,1.03-1.71,1.87-2.22,3.06-.59.65-1.21,1.27-1.76,1.95-4.28,5.17-8.53,10.36-12.83,15.51-7.27,8.7-14.59,17.36-21.53,26.35-11.9,15.43-22.32,31.76-30.68,49.38-4.05,8.54-7.49,17.31-9.59,26.54-1.58,6.93-3.1,13.88-2.15,21.08.45,3.43,1.2,6.76,3.02,9.76,1.38,2.27,3.08,2.98,5.68,2.41,2.54-.56,4.75-1.85,6.96-3.15,2.13-1.26,4.16-2.69,6.63-3.26.47.06.94.12,1.41.19,4.37.58,6.61,4.17,5.34,8.43-.31,1.05-.39,2.17-.58,3.25-1.37,1.48-1.58,3.43-2.02,5.24-2.55,10.61-3.82,21.32-3.04,32.28.59,8.25,2.01,16.31,4.19,24.26,1.76,6.45,4.94,12.26,8.2,18.06,7.4,13.15,17.33,23.86,30.09,31.92,6.51,4.12,13.29,7.65,20.74,9.79,5.84,1.68,11.7,2.26,17.74.98,4.38-.93,8.69-2.14,12.98-3.38,3.63-1.05,6.96-.41,10.18,1.24,1.49.76,2.89,1.71,4.25,2.69,6.21,4.51,12.36,9.08,18.57,13.58,10.09,7.32,20.08,14.76,30.76,21.23,12.28,7.43,25.07,13.75,38.8,18.06,5.2,1.63,10.51,2.76,15.97,2.98,6.09.24,12.14-.41,18.09-1.63,12.09-2.49,23.31-7.22,33.82-13.67,2.32-1.42,4.6-2.88,7.04-4.09,3.03-1.5,6.15-2.06,9.52-1.29,6.47,1.47,12.89,3.08,19.25,4.93,8.9,2.59,17.86,4.92,27.02,6.36,5.68.89,11.36,1.69,17.04,2.57,7.9,1.22,15.81,2.28,23.83,2.05,3.35-.1,6.71-.36,10.06-.29,9.95.21,19.51-1.77,28.96-4.68,11.28-3.46,21.77-8.77,32.53-13.46,16.22-7.07,30.23-17.48,43.69-28.75,3.5-2.93,6.64-6.24,10.06-9.24,1.64-1.44,3.34-2.75,5.37-3.54,2.18-.84,4.23-.64,6,1.04,1.77,1.67,2.15,3.64,1.39,5.9-.44,1.31-1.15,2.45-1.97,3.54-1.88,2.51-4.23,4.57-6.46,6.75-1.48,1.44-1.5,1.42-.06,2.73.29.27.6.53.91.78,4.14,3.39,8.3,6.76,12.43,10.16,10.59,8.72,22.47,14.56,36.2,16.32,5.49.7,10.25-.8,14.29-4.6,2.13-2,3.68-4.41,5.03-6.96,3.93-7.48,6.4-15.5,8.5-23.62,3.16-12.21,6.6-24.36,7.8-36.99.16-1.66.47-3.33,1.29-4.84,1.3-2.38,3.81-3.92,5.99-3.67,2.64.3,4.64,2.22,5.43,5.07.49,1.76.24,3.47.04,5.22-.23,2.05-.04,2.23,2.02,2.15,3.54-.14,6.66-1.55,9.62-3.36,5.81-3.54,10.55-8.25,14.75-13.55,3.69-4.64,6.89-9.61,9.72-14.82,6.24-11.48,11.45-23.39,14.76-36.07,2.35-8.98,3.72-18.12,4.43-27.38.44-5.76.65-11.52.19-17.24-.79-9.87-2.75-19.59-4.88-29.26-1.01-4.6-2.33-9.13-3.36-13.73-.65-2.92.35-5.43,2.78-7.16,2.32-1.64,4.83-1.48,7.24-.12,1.39.78,2.69,1.72,4.05,2.56,2.21,1.38,2.71,1.25,3.88-1.02,1.71-3.34,2.31-6.97,2.45-10.66.47-12.72-.26-25.38-1.81-38.02-1.4-11.45-3.95-22.64-7.39-33.63-.98-3.13-2.42-6.09-3.52-9.17-1.7-4.78,1.41-8.28,5.07-9.27,1.93-.52,3.92-.64,5.94-.41,3.88.45,7.76.69,11.7.31,4.29-.41,7.02-2.5,8.73-6.39,2.56-5.86,3.8-12.01,4.27-18.33.12-1.57.77-3.13.24-4.73.89-4.43.77-8.91.61-13.38-.67-18.18-3.14-36.09-7.51-53.77-2.9-11.75-6.59-23.19-11.48-34.25-1.36-3.07-2.79-6.11-4.55-8.97-7.53-12.2-15.98-23.71-26.17-33.87-2.07-2.06-3.77-4.33-4.86-7.05-1.1-2.76.17-5.15,3.07-5.84.54-.13,1.11-.15,1.66-.21,3.24.41,5.8,2,8,4.38,3.35,3.64,6.82,7.18,10.2,10.79.92.98,1.89,1.75,3.29,1.65,3.15-.24,6.04-1.31,7.96-3.83,2.38-3.14,3.35-6.83,2.95-10.82-.33-3.3-1.36-6.39-2.81-9.35-6.13-12.54-14.61-23.36-24.3-33.31-.28-.28-.54-.59-.99-.6-.98-1.05-1.89-2.18-2.96-3.13-7.82-6.95-15.72-13.81-23.98-20.24-9.12-7.11-19.26-12.52-29.56-17.67-3.16-1.58-6.44-2.77-9.85-3.66-1.16-.3-2.34-.59-3.42-1.07-2.61-1.16-3.11-3.1-1.53-5.56,1.13-.63,2.31-1.11,3.64-.91,1.18.18,2.36.38,3.53.63,3.48.75,6.99,1.42,10.31,3.1.63-3.16,2.08-5.74,3.38-8.38,3.14-6.4,4.83-13.24,5.27-20.28.58-9.35-4.27-16.22-11.1-21.96-.73-1.17-1.74-2.07-2.82-2.91-4.41-3.48-9.42-5.67-14.85-6.97-10.04-2.4-20.25-2.91-30.49-2.51-17.18.67-34.28,2.25-51.3,4.78-16.68,2.48-33.32,5.15-49.8,8.77-16.42,3.6-32.49,8.41-48.15,14.48-5.24,2.03-10.57,3.45-15.97,4.78-.54.13-1.09.3-1.64.32-1.72.06-3.16-.53-4-2.11-.8-1.52-.46-2.95.53-4.26.43-.57.93-1.09,1.4-1.63,3.52-2.03,7.09-3.99,10.91-5.42,1.11-.41,1.6-1.02,1.72-2.23.12-1.26.55-2.51,1.25-3.6,3.69-5.79,5.8-12.25,8-18.68.83-2.43,1.25-4.94,1.18-7.54-.1-3.3-1.6-5.62-4.68-6.86-.81-.33-1.65-.6-2.5-.82-5.02-1.35-10.14-1.3-15.24-.81-1.99.19-4.14.16-5.95,1.33-.97-.17-1.88.07-2.82.29-9.84,2.34-19.35,5.69-28.68,9.57-1.68.7-3.44,1.22-5,2.19-3.09.96-5.94,2.48-8.87,3.83-31.09,14.32-60.13,31.98-86.94,53.27-1.6,1.27-3.33,2.44-4.52,4.16l.1-.05Z"/>
  <path class="cls-13" d="m244.2,326.24c.25-1.45,1.03-2.67,1.74-3.91,4.54-7.91,10.8-14.19,18.37-19.21,4-2.65,8.17-5.01,12.45-7.16,8.21-4.11,16.34-8.36,24.34-12.86,3.27-1.84,6.6-3.55,10.09-4.95,2.5-1,2.76-2.4,1.07-4.61-.03-1.03,0-2.07-.11-3.1-.22-1.97-.56-3.93-.77-5.9-.39-3.55-.57-7.14-1.17-10.66-.27-1.62.1-3.35-.74-4.88.45-2.69,1.46-5.21,2.32-7.77,2.69-8.02,6.09-15.73,10.04-23.21.14-.27.38-.49.57-.73,1.76-.8,3.1-2.21,4.66-3.31,9.81-6.86,20.07-12.91,30.99-17.83.75,1.92,1.48,3.85,2.27,5.76.34.82-.11,1.37-.49,1.97-.98,1.55-1.92,3.12-2.54,4.86-.49,1.37-.8,2.76-.36,4.21.69,2.32,2.99,3.3,5.13,2.18,1.08-.56,1.88-1.47,2.74-2.3,6.88-6.66,14.2-12.82,21.36-19.16.17-.15.41-.21.62-.32.34-.13.71-.2.88-.58,0,0-.1.05-.1.05,2.19-.62,3.89-2.12,5.78-3.28,14.56-8.89,29.18-17.69,43.65-26.73,14.54-9.09,29.35-17.72,44.05-26.54,2.38-1.43,4.94-2.61,6.86-4.72,1.56-.97,3.32-1.49,5-2.19,9.33-3.88,18.83-7.23,28.68-9.57.93-.22,1.85-.46,2.82-.29-.03.71.58.89,1.01,1.21,3,2.25,5.3,5.13,6.74,8.53,2.36,5.55,2.85,11.39,2.02,17.36-.7,5.09-2.08,9.98-3.96,14.74-.35.88-.72,1.79-.49,2.79-.47.54-.97,1.06-1.4,1.63-.99,1.31-1.33,2.74-.53,4.26.84,1.59,2.27,2.18,4,2.11.55-.02,1.1-.19,1.64-.32,5.4-1.33,10.74-2.75,15.97-4.78,15.66-6.07,31.73-10.88,48.15-14.48,16.48-3.62,33.12-6.29,49.8-8.77,17.01-2.53,34.12-4.11,51.3-4.78,10.25-.4,20.46.11,30.49,2.51,5.43,1.3,10.44,3.5,14.85,6.97,1.07.85,2.08,1.75,2.81,2.91-.2.38-.13.76,0,1.15,1.33,4.35,2.16,8.78,2.81,13.29,1.13,7.82-1.62,14.22-6.43,20.03-.34.41-.84.76-1.34.96-2.18.88-3.96,2.38-5.87,3.68-3.07,2.08-4.89,4.78-4.19,8.69-1.58,2.46-1.08,4.4,1.53,5.56,1.08.48,2.26.77,3.42,1.07,3.41.89,6.69,2.08,9.85,3.66,10.3,5.15,20.43,10.56,29.56,17.67,8.26,6.43,16.16,13.3,23.98,20.24,1.07.95,1.98,2.08,2.96,3.13-.05.79.44,1.32.88,1.89,2.8,3.67,5.65,7.3,8.36,11.04,4.61,6.39,7.49,13.68,10.63,20.82.6,1.35.38,1.62-1.2,1.66-4.39.12-8.76-.19-13.09-.8-5.27-.74-9.2,1.74-9.89,6.46-.55.07-1.12.09-1.66.21-2.9.69-4.17,3.08-3.07,5.84,1.08,2.71,2.79,4.99,4.86,7.05,10.19,10.15,18.63,21.66,26.17,33.87,1.76,2.86,3.19,5.9,4.55,8.97,4.89,11.06,8.58,22.5,11.48,34.25,4.37,17.68,6.84,35.59,7.51,53.77.16,4.47.29,8.95-.61,13.38-.85.34-.96,1.22-1.35,1.89-2.63,4.6-5.54,8.93-9.77,12.28-4.28,3.39-9.95,3.89-14.2.78-2.64-1.93-5.33-3.81-8.09-5.56-3.99-2.52-8.07-4.88-12.83-5.67-6.42-1.07-10.95,4.27-9.29,9.75,1.65,5.42,3.36,10.82,5.12,16.21.77,2.35,1.58,4.69,2.21,7.08,2.03,7.74,2.49,15.72,3.33,23.64.29,2.77.26,5.59.68,8.34.39,2.64.34,5.26.24,7.89-.1,2.78-1.81,4.48-4.54,5.08-1.98.44-3.96.41-5.96.44-3.7.05-7.33.57-10.78,1.93-3.67,1.44-7.05,3.3-9.58,6.51-3.32,4.2-4.65,9.07-4.99,14.23-.33,5.01-.31,10.05-.44,15.08-.3,11.02.19,22.05-.48,33.07-.36,5.97-.25,11.97-.51,17.96-.26,5.98-.56,11.93-1.44,17.87-.83,5.55-3.15,9.9-8.13,12.81-5.3,3.11-10.49,6.41-15.45,10.06-5.28,3.88-10.55,7.74-15.17,12.43-2.8,2.85-5.72,5.58-8.69,8.25-2.14,1.93-4.46,3.64-7.1,4.83-2.2.99-3.34.62-4.64-1.36-.39-.6-.71-1.25-1.05-1.88-2.15-3.96-3.19-8.34-4.66-12.56-1.32-3.79-2.86-7.46-5.28-10.7-3.36-4.5-7.99-6.56-13.48-6.46-3.11.05-6.12.95-9.03,2.16-5.79,2.41-11,5.83-16.13,9.36-15.05,10.37-29.8,21.18-45.17,31.1-10.14,6.55-20.41,12.83-31.47,17.77-9.4,4.2-18.75,8.52-28.37,12.23-9.18,3.54-18.6,6.24-28.23,8.24-7.02,1.46-14.08,2.68-21.22,3.49-5.63.64-11.24,1.22-16.91,1.35-8.57.2-17.06-.57-25.48-2-5.74-.97-11.39-2.37-16.86-4.44-5.38-2.03-10.61-4.43-15.94-6.56-3.34-1.33-6.71-2.57-10.34-2.87-6.26-.53-12.23.81-18.03,3-7.73,2.91-14.89,6.97-21.92,11.27-3.47,2.12-6.87,4.39-10.46,6.31-7.17,3.83-14.91,6.11-22.85,7.64-5.51,1.07-11.14,1.01-16.7.26-7.68-1.03-14.45-4.44-20.92-8.5-6.26-3.93-11.35-9.3-16.89-14.1-5.38-4.66-10.32-9.79-15.32-14.85-2.31-2.34-4.78-4.47-7.45-6.38-6.12-4.36-12.74-5.64-19.97-3.27-2.89.95-5.7,2.06-8.42,3.44-6.13,3.12-12.25,6.24-18.44,9.23-5.82,2.81-11.61,2.9-17.43-.33-5.88-3.26-10.45-7.88-14.29-13.23-5.4-7.52-9.18-15.88-12.34-24.54-2.47-6.76-4.33-13.67-5.34-20.82-.45-3.22-.94-6.48-2.11-9.56-.21-.55-.16-1.35-1.07-1.36.19-1.09.26-2.2.58-3.25,1.28-4.26-.97-7.85-5.34-8.43-.47-.06-.94-.12-1.41-.19-1.92-2.85-2.44-6.21-3.35-9.42-2.01-7.07-2.75-14.22-1.49-21.52,1.17-6.78,3.09-13.34,5.61-19.74,4.36-11.09,9.47-21.81,15.61-32.03,3.78-6.29,7.58-12.57,11.41-18.83,3.62-5.92,7.21-11.86,11.31-17.47,3.1-4.25,6.23-8.49,9.17-12.85,2.41-3.57,4.47-7.36,7.27-10.66.99-1.18,1.23-2.57.73-4.05.5-1.19,1.49-2.03,2.22-3.06.46-.64.98-1.25,1.44-1.88,3.32-4.55,1.62-9.04-3.93-10.37-.61-.15-1.25-.21-1.87-.32-1-.26-1.99-.25-2.99,0-1.73-.03-3.46.3-5.19-.1.02-1.12-.19-2.21-.44-3.3-1.07-4.76-1.82-9.57-1.49-14.45.34-5.09,1.14-10.12,2.48-15.05.17-.62.45-1.2.18-1.86.19-1.03.78-1.87,1.26-2.78,6.03-11.31,13.31-21.78,21.16-31.89,3.58-4.6,6.93-9.38,10.88-13.67,1.03-1.12,2.07-2.22,3.17-3.27,1.55-1.48,2.65-3.18,2.98-5.33.55-.38.46-.91.35-1.44,1.02-1.01,2.02-2.04,3.05-3.03,2.12-2.03,3.53-4.49,4.48-7.25,2.43-7.06,1.64-13.96-1.06-20.76-1.71-4.3-3.76-8.44-5.79-12.59-1.16-2.36-2.07-4.82-2.73-7.38-.23-.9.18-1.96-.63-2.72Zm207.24,243.72c0,1.8.04,3.23,0,4.66-.13,3.81.68,7.46,1.97,11.01,2.28,6.26,6.33,10.84,12.71,13.13,6.75,2.42,13.57,2.56,20.45.52,5.54-1.64,10.73-4.13,15.83-6.8,1.36-.71,2.26-.86,3.53.36,1.83,1.76,3.99,3.12,6.43,4.08,5.59,2.21,11.22,2.12,16.89.58,9.05-2.46,16.86-7.13,23.62-13.58,4.45-4.25,8.64-8.73,12.34-13.67,8.7-11.6,15.14-24.2,17.35-38.7.98-6.47.41-12.71-2.68-18.62-3.16-6.02-8.16-8.92-14.85-9.24-5.18-.24-10.15.62-15.05,2.28-3.01,1.02-5.94,2.25-8.96,3.45-.17-.41-.32-.69-.41-.99-2.01-6.07-6.21-10.15-11.87-12.79-6.67-3.11-13.77-4.49-21.09-4.81-4.82-.21-9.53.62-14.2,1.73-9.67,2.3-18.95,5.68-27.85,10.12-1.98.99-2.03.96-3.28-.83-2-2.86-4.51-5.18-7.49-6.95-6.26-3.71-13.12-5.32-20.32-5.53-3.74-.1-7.48-.11-11.24.38-5.15.68-10.23,1.61-15.21,3.09-6.37,1.89-12.42,4.61-18.56,7.08-.93.37-1.82.95-3,.77.27-3.88.44-7.68-.28-11.47-1.31-6.88-4.17-12.89-9.65-17.44-2.37-1.96-5.05-3.42-8.08-3.98-6.17-1.14-12.05,0-17.71,2.53-5.72,2.57-10.7,6.34-15.77,9.96-4.38,3.13-7.74,7.17-9.95,12.06-1.3,2.86-2.91,5.51-4.65,8.08-4.36,6.45-8.07,13.21-10.52,20.63-1.53,4.65-2.69,9.37-2.76,14.26-.1,6.66,1.65,12.97,4.61,18.89,1.91,3.82,4.63,7.02,8.35,9.33,6.05,3.76,12.66,4.13,19.43,3.29,5.5-.68,10.67-2.64,15.78-4.71,2.59-1.05,5.12-2.23,7.7-3.32,1.67-.71,1.98-.51,2.04,1.25.05,1.44-.02,2.88.07,4.32.23,3.7.99,7.29,2.84,10.53,3.44,6.03,8.83,9.5,15.37,11.36,5.39,1.54,10.91,1.49,16.36.83,7.54-.92,14.86-2.91,22.02-5.45,7.3-2.59,14.44-5.59,21.6-8.53,2.56-1.05,5.05-2.32,8.14-3.18Zm-131.45,57.8c0,2.16.1,4.29.45,6.44,1.32,8.05,5.3,14.45,11.74,19.35,7.07,5.38,15.13,6.42,23.63,4.95,5.96-1.03,11.88-2.32,17.82-3.48,2.56-.5,2.91-.32,4.09,2.05.57,1.14,1.13,2.29,1.71,3.43,2.24,4.36,4.97,8.35,8.51,11.78,3.36,3.25,7.29,5.67,11.32,7.97,5.88,3.34,12.21,5.16,18.93,5.24,5.78.07,11.39-1.2,16.82-3.21,4.19-1.56,8.37-3.13,12.53-4.75,1.2-.47,2.14-.45,2.92.67.23.32.56.57.84.86,3.81,4,8.4,5.27,13.72,3.86,7.7-2.05,13.87-6.42,18.57-12.77,5.87-7.93,9.69-16.84,11.95-26.44,1.39-5.88,1.3-11.7-.52-17.47-1.75-5.54-5.11-9.7-10.6-11.92-3.36-1.36-6.9-1.95-10.5-2.09-6.44-.26-12.7,1-18.91,2.45-3.32.77-2.92.38-3.63-2.24-1.32-4.9-3.9-8.91-8.6-11.24-2.95-1.46-6.12-2.28-9.34-2.9-6.08-1.17-12.23-1.11-18.37-.92-1.98.06-3.96.4-5.92.71-7.14,1.12-13.88,3.59-20.58,6.19-2.6,1.01-5.2,2.04-7.85,2.93-2.58.86-2.82.72-4.31-1.51-.66-1-1.34-1.99-1.93-3.03-4.65-8.16-11.63-13.69-20.01-17.54-4.12-1.89-8.38-2.09-12.43.26-3.18,1.84-6,4.22-8.76,6.6-3.45,2.99-5.41,7.08-7.33,11.12-3.71,7.8-6.06,15.94-5.97,24.66Zm10.01,72.03c-.08,6.1,2.47,12.14,5.99,17.86,1.43,2.32,3.17,4.42,5.31,6.12,7.35,5.8,15.67,7.48,24.78,5.71,4.47-.87,8.83-2.11,13.1-3.71,11.34-4.26,17.62-12.76,20.03-24.3.91-4.35-.89-7.95-4.43-10.62-2.62-1.98-5.74-2.71-8.87-3.36-2.82-.59-5.63-1.17-8.01-2.95-1.97-1.47-3.13-3.59-4.56-5.5-2.6-3.5-5.81-6.04-10.2-7.02-3.72-.82-7.42-1.12-11.13-.31-6.68,1.45-13.01,3.54-16.34,10.33-.24.5-.62.93-.93,1.4-3.09,4.73-4.72,9.9-4.73,16.36Zm235.27-19.97c2.87-.25,5.82-.48,8.59-1.55,4.17-1.61,8.11-3.69,12-5.88.48-.27.95-.61,1.34-.99,2.24-2.18,1.5-5.45-1.44-6.51-.93-.33-1.87-.46-2.82-.33-4.57.61-9.15,1.15-13.69,1.93-3.76.64-7.43.71-11.1-.42-1.37-.42-2.77-.76-4.18-1.01-3.04-.54-5.41.85-5.87,3.49-.32,1.84.47,3.41,1.68,4.78,4.09,4.66,9.52,6.11,15.49,6.49Zm-339.52-228.8c1.44,0,2.19-.46,3.79-2.56,2.05-2.68,4.48-5.01,7-7.2,4.39-3.82,8.87-7.54,12.95-11.7,1.17-1.2,2.35-2.3,4.1-2.77,1.57-.42,2.15-1.8,1.78-3.4-.55-2.39-2.81-3.65-5.41-2.8-3.58,1.16-7.1,2.61-10.07,4.9-5.64,4.36-10.52,9.53-14.53,15.45-1.21,1.78-2.14,3.74-2.55,5.89-.45,2.41.8,4.2,2.94,4.2Zm470.35,27.31c.2-1.75-.48-3.85-.53-6.01-.04-1.42-.48-2.82-.69-4.23-.29-1.91-.74-3.77-1.81-5.4-1.13-1.72-3.02-2.47-4.75-1.98-1.72.49-3.07,2.16-3.17,4.08-.06,1.19-.08,2.41.07,3.59.8,6.33.87,12.71,1.32,19.07.17,2.39.07,4.79.06,7.19,0,1.3.25,2.54.64,3.76.38,1.17,1.3,1.84,2.51,1.92,1.11.07,2-.46,2.57-1.45.4-.69.74-1.41.91-2.21.24-1.17.51-2.33.74-3.51.93-4.76,2.1-9.49,2.14-14.81Zm-496.3,109.43c-.76-.03-1.41.28-2,.69-1.11.78-1.62,1.97-2.01,3.19-1.74,5.4-1.31,10.74.85,15.9,1.54,3.69,3.57,7.14,5.86,10.43.88,1.26,1.97,2.32,3.13,3.29.92.77,2.31.77,3.12.18.93-.68,1.06-1.54.42-2.99-.06-.15-.15-.28-.22-.43-3.71-7.58-5.59-15.58-5.53-24.03,0-.88.04-1.77-.09-2.63-.34-2.19-1.78-3.61-3.53-3.6Zm446.17-346.46c.84.04,1.6-.44,2.37-.84,4.04-2.11,8.2-3.95,12.47-5.53,3.83-1.42,7.49-3.16,10.82-5.58.72-.52,1.42-1.05,1.97-1.73.56-.69,1-1.44.56-2.41-.47-1.04-1.17-1.7-2.37-1.69-1.12,0-2.23.03-3.34.24-7.89,1.5-14.92,5.1-21.79,9.03-1.63.93-3.24,2.06-3.93,4.04-.77,2.18.85,4.54,3.22,4.47Zm-206.56-21.51c.91.1,1.84-.17,2.71-.56,4.36-1.96,8.67-4.01,12.42-7.07,1.66-1.35,3.42-2.6,5.21-3.79,1.66-1.11,2.32-2.66,1.59-4.2-.6-1.26-2.2-1.84-3.91-1.34-2.52.74-5.03,1.53-7.53,2.31-3.99,1.26-7.63,3.21-11.06,5.57-1.25.86-2.24,1.97-3.06,3.3-1.45,2.35.2,6.06,3.63,5.77Zm260.84,22.99c1.61.12,3.16-.49,4.63-1.32,2.3-1.29,4.38-2.88,6.19-4.81,1.51-1.62,1.78-3.42.82-5-.86-1.42-2.63-2.08-4.62-1.61-1.7.4-3.42.78-5.04,1.4-2,.76-3.98,1.62-5.48,3.26-1.55,1.69-1.96,3.5-1.05,5.47.86,1.86,2.39,2.68,4.55,2.59Zm42.48,233.78c.06-.59-.15-1.32-.65-2-1.8-2.45-3.9-4.66-6.29-6.49-1.88-1.44-4.16-1.48-6.26-.16-1.81,1.13-2.49,2.86-2.2,4.93.25,1.82,1.05,3.35,2.77,4.2,2.73,1.35,5.71,1.93,8.61,2.73.37.1.79.06,1.19.04,2.04-.12,2.87-1,2.85-3.25Zm-31.27,12.21c-.17-1.57-.5-3.14-.44-4.73,0-.24-.02-.48-.07-.71-.34-1.58-1-3.02-2.04-4.25-1.19-1.41-3.7-2.13-5.2-1.54-1.42.55-2.79,2.66-2.61,4.21.45,3.92,2.57,6.95,5.4,9.51.97.88,2.28.75,3.39.24,1.06-.5,1.7-1.43,1.58-2.72Zm-134.35,164.25c.86.08,1.79-.14,2.66-.55,1.8-.84,3.58-1.7,5.35-2.61.63-.32,1.25-.73,1.77-1.2.85-.77,1.53-1.65,1.04-2.92-.43-1.12-1.49-1.91-2.82-1.8-3.08.25-6.17.53-9.22.97-1.87.27-3.42,2.06-3.54,3.7-.2,2.77,1.57,4.45,4.76,4.42Zm-109.16-431.34c1.4.17,2.47-.72,3.47-1.62,1.47-1.33,2.77-2.85,4.4-4.01.66-.47.93-1.27,1.26-1.99.4-.85.13-1.58-.46-2.18-.59-.6-1.3-.83-2.17-.46-1.17.49-2.41.82-3.56,1.34-1.6.71-3.2,1.45-4.7,2.33-1.55.92-2.15,2.75-1.65,4.35.45,1.43,1.6,2.21,3.4,2.24Zm-218.98,230.74c.39.01,1.01-.04,1.57-.41,1.95-1.26,3.12-3.15,3.86-5.24.54-1.53-.84-3.12-2.46-2.9-1.56.21-3.14.57-4.61,1.13-1.69.63-2.82,2.76-2.49,4.22.46,2.07,1.83,3.2,4.13,3.2Z"/>
  <path class="cls-10" d="m166.55,647.19c.92.01.87.81,1.07,1.36,1.17,3.08,1.66,6.33,2.11,9.56,1,7.15,2.87,14.06,5.34,20.82,3.16,8.66,6.95,17.03,12.34,24.54,3.84,5.36,8.41,9.97,14.29,13.23,5.82,3.23,11.61,3.14,17.43.33,6.19-2.99,12.32-6.11,18.44-9.23,2.72-1.38,5.53-2.49,8.42-3.44,7.23-2.37,13.85-1.08,19.97,3.27,2.67,1.9,5.14,4.04,7.45,6.38,5,5.06,9.94,10.19,15.32,14.85,5.54,4.8,10.62,10.17,16.89,14.1,6.47,4.06,13.25,7.46,20.92,8.5,5.56.75,11.18.81,16.7-.26,7.93-1.54,15.68-3.81,22.85-7.64,3.59-1.92,6.98-4.18,10.46-6.31,7.03-4.29,14.18-8.35,21.92-11.27,5.81-2.19,11.77-3.52,18.03-3,3.63.31,7,1.54,10.34,2.87,5.34,2.13,10.56,4.53,15.94,6.56,5.48,2.07,11.12,3.47,16.86,4.44,8.43,1.43,16.91,2.2,25.48,2,5.67-.13,11.29-.71,16.91-1.35,7.13-.81,14.19-2.03,21.22-3.49,9.62-2,19.05-4.7,28.23-8.24,9.62-3.71,18.96-8.03,28.37-12.23,11.06-4.94,21.33-11.22,31.47-17.77,15.37-9.92,30.12-20.73,45.17-31.1,5.13-3.53,10.33-6.95,16.13-9.36,2.9-1.21,5.92-2.1,9.03-2.16,5.49-.09,10.12,1.96,13.48,6.46,2.42,3.24,3.96,6.91,5.28,10.7,1.46,4.22,2.5,8.6,4.66,12.56.34.63.66,1.28,1.05,1.88,1.29,1.98,2.44,2.35,4.64,1.36,2.64-1.19,4.97-2.91,7.1-4.83,2.97-2.67,5.89-5.4,8.69-8.25,4.61-4.7,9.89-8.56,15.17-12.43,4.96-3.64,10.15-6.95,15.45-10.06,4.98-2.91,7.3-7.26,8.13-12.81.88-5.93,1.18-11.89,1.44-17.87.26-5.99.14-11.99.51-17.96.67-11.02.18-22.05.48-33.07.14-5.03.12-10.07.44-15.08.34-5.15,1.67-10.03,4.99-14.23,2.54-3.21,5.91-5.07,9.58-6.51,3.45-1.35,7.08-1.87,10.78-1.93,1.99-.03,3.98,0,5.96-.44,2.72-.61,4.44-2.3,4.54-5.08.09-2.62.15-5.25-.24-7.89-.41-2.75-.38-5.57-.68-8.34-.84-7.92-1.3-15.89-3.33-23.64-.63-2.39-1.44-4.73-2.21-7.08-1.77-5.38-3.48-10.79-5.12-16.21-1.66-5.48,2.86-10.82,9.29-9.75,4.77.79,8.85,3.15,12.83,5.67,2.77,1.75,5.45,3.63,8.09,5.56,4.25,3.1,9.92,2.61,14.2-.78,4.23-3.35,7.14-7.68,9.77-12.28.38-.67.49-1.55,1.35-1.89.52,1.6-.13,3.17-.24,4.73-.47,6.32-1.71,12.47-4.27,18.33-1.7,3.9-4.44,5.98-8.73,6.39-3.93.38-7.81.14-11.7-.31-2.02-.24-4.02-.11-5.94.41-3.66.99-6.77,4.49-5.07,9.27,1.1,3.08,2.54,6.04,3.52,9.17,3.44,11,5.99,22.18,7.39,33.63,1.55,12.63,2.28,25.29,1.81,38.02-.14,3.69-.73,7.31-2.45,10.66-1.17,2.28-1.66,2.4-3.88,1.02-1.36-.84-2.66-1.78-4.05-2.56-2.41-1.35-4.92-1.52-7.24.12-2.44,1.73-3.44,4.24-2.78,7.16,1.03,4.6,2.34,9.13,3.36,13.73,2.13,9.67,4.1,19.39,4.88,29.26.46,5.72.25,11.49-.19,17.24-.71,9.26-2.08,18.4-4.43,27.38-3.32,12.68-8.52,24.59-14.76,36.07-2.83,5.2-6.03,10.17-9.72,14.82-4.2,5.29-8.95,10-14.75,13.55-2.96,1.81-6.08,3.22-9.62,3.36-2.06.08-2.25-.09-2.02-2.15.2-1.75.44-3.46-.04-5.22-.79-2.86-2.79-4.77-5.43-5.07-2.19-.25-4.69,1.29-5.99,3.67-.82,1.51-1.13,3.18-1.29,4.84-1.19,12.63-4.64,24.78-7.8,36.99-2.1,8.13-4.57,16.15-8.5,23.62-1.34,2.56-2.9,4.96-5.03,6.96-4.04,3.81-8.8,5.3-14.29,4.6-13.73-1.75-25.61-7.6-36.2-16.32-4.13-3.4-8.29-6.78-12.43-10.16-.31-.25-.61-.51-.91-.78-1.44-1.32-1.41-1.29.06-2.73,2.23-2.17,4.58-4.24,6.46-6.75.82-1.1,1.53-2.23,1.97-3.54.76-2.26.38-4.24-1.39-5.9-1.78-1.68-3.82-1.88-6-1.04-2.04.79-3.74,2.1-5.37,3.54-3.42,3-6.56,6.31-10.06,9.24-13.46,11.27-27.47,21.69-43.69,28.75-10.76,4.69-21.26,9.99-32.53,13.46-9.45,2.9-19.01,4.88-28.96,4.68-3.35-.07-6.7.19-10.06.29-8.02.24-15.93-.83-23.83-2.05-5.68-.87-11.37-1.68-17.04-2.57-9.17-1.44-18.12-3.78-27.02-6.36-6.36-1.85-12.79-3.46-19.25-4.93-3.38-.77-6.49-.21-9.52,1.29-2.44,1.21-4.73,2.67-7.04,4.09-10.51,6.45-21.73,11.18-33.82,13.67-5.95,1.23-12,1.87-18.09,1.63-5.45-.22-10.76-1.35-15.97-2.98-13.73-4.31-26.52-10.62-38.8-18.06-10.68-6.46-20.68-13.91-30.76-21.23-6.21-4.5-12.37-9.08-18.57-13.58-1.35-.98-2.76-1.93-4.25-2.69-3.22-1.64-6.55-2.28-10.18-1.24-4.29,1.24-8.59,2.45-12.98,3.38-6.03,1.28-11.89.7-17.74-.98-7.45-2.14-14.23-5.67-20.74-9.79-12.76-8.07-22.69-18.78-30.09-31.92-3.26-5.8-6.44-11.6-8.2-18.06-2.17-7.95-3.6-16.01-4.19-24.26-.78-10.96.49-21.67,3.04-32.28.43-1.81.65-3.77,2.02-5.24Z"/>
  <path class="cls-1" d="m216.65,488.74c.5,1.48.27,2.88-.73,4.05-2.8,3.31-4.86,7.1-7.27,10.66-2.94,4.36-6.07,8.6-9.17,12.85-4.1,5.61-7.7,11.55-11.31,17.47-3.82,6.26-7.63,12.54-11.41,18.83-6.14,10.22-11.25,20.94-15.61,32.03-2.52,6.4-4.43,12.96-5.61,19.74-1.26,7.3-.52,14.45,1.49,21.52.91,3.21,1.43,6.56,3.35,9.42-2.47.56-4.5,2-6.63,3.26-2.2,1.3-4.41,2.59-6.96,3.15-2.6.57-4.3-.14-5.68-2.41-1.82-3-2.57-6.33-3.02-9.76-.94-7.2.57-14.15,2.15-21.08,2.11-9.23,5.54-18,9.59-26.54,8.36-17.62,18.77-33.95,30.68-49.38,6.93-8.99,14.25-17.65,21.53-26.35,4.3-5.15,8.55-10.34,12.83-15.51.56-.67,1.17-1.3,1.76-1.95Z"/>
  <path class="cls-1" d="m529.7,164.13c-.23-1,.15-1.91.49-2.79,1.88-4.77,3.26-9.66,3.96-14.74.82-5.97.34-11.82-2.02-17.36-1.44-3.4-3.75-6.28-6.74-8.53-.43-.32-1.04-.5-1.01-1.21,1.82-1.18,3.96-1.14,5.95-1.33,5.1-.49,10.22-.54,15.24.81.85.23,1.69.5,2.5.82,3.08,1.24,4.58,3.56,4.68,6.86.08,2.59-.35,5.11-1.18,7.54-2.19,6.42-4.31,12.89-8,18.68-.7,1.09-1.13,2.34-1.25,3.6-.11,1.21-.61,1.82-1.72,2.23-3.82,1.43-7.39,3.38-10.91,5.42Z"/>
  <path class="cls-3" d="m798.74,291.61c.68-4.73,4.62-7.2,9.89-6.46,4.33.61,8.71.92,13.09.8,1.58-.04,1.79-.31,1.2-1.66-3.15-7.14-6.02-14.43-10.63-20.82-2.7-3.74-5.56-7.37-8.36-11.04-.44-.58-.93-1.1-.88-1.89.45,0,.71.32.99.6,9.68,9.95,18.17,20.77,24.3,33.31,1.45,2.96,2.48,6.04,2.81,9.35.4,3.99-.57,7.68-2.95,10.82-1.91,2.52-4.81,3.59-7.96,3.83-1.4.11-2.37-.67-3.29-1.65-3.38-3.61-6.85-7.15-10.2-10.79-2.19-2.39-4.76-3.97-8-4.38Z"/>
  <path class="cls-1" d="m731.75,199.2c-.7-3.91,1.12-6.62,4.19-8.69,1.91-1.29,3.69-2.79,5.87-3.68.5-.2,1-.55,1.34-.96,4.81-5.81,7.57-12.21,6.43-20.03-.65-4.51-1.48-8.94-2.81-13.29-.12-.39-.19-.77,0-1.15,6.83,5.74,11.68,12.62,11.1,21.96-.44,7.04-2.13,13.88-5.27,20.28-1.3,2.64-2.75,5.22-3.38,8.38-3.32-1.69-6.83-2.35-10.31-3.1-1.17-.25-2.35-.45-3.53-.63-1.33-.2-2.51.28-3.64.91Z"/>
  <path class="cls-1" d="m244.2,326.24c.81.76.4,1.81.63,2.72.66,2.56,1.57,5.02,2.73,7.38,2.03,4.15,4.09,8.29,5.79,12.59,2.7,6.8,3.48,13.69,1.06,20.76-.95,2.76-2.36,5.21-4.48,7.25-1.03.99-2.04,2.02-3.05,3.03-.12,0-.24-.01-.36-.02-.49-4.13-1.75-8.09-2.49-12.17-1.29-7.14-2.21-14.33-2.82-21.56-.39-4.57-.39-9.08.6-13.56.49-2.24,1-4.5,2.4-6.42Z"/>
  <path class="cls-11" d="m487.88,131.55c-1.92,2.11-4.48,3.29-6.86,4.72-14.7,8.82-29.5,17.45-44.05,26.54-14.47,9.04-29.09,17.84-43.65,26.73-1.89,1.15-3.58,2.66-5.78,3.28,1.2-1.72,2.92-2.89,4.52-4.16,26.81-21.29,55.86-38.96,86.94-53.27,2.92-1.35,5.78-2.87,8.87-3.83Z"/>
  <path class="cls-2" d="m358.03,196.15c-10.92,4.93-21.18,10.98-30.99,17.83-1.56,1.09-2.89,2.5-4.66,3.31,4.04-8.62,9.35-16.31,16.64-22.52,2.74-2.33,5.57-4.54,8.82-6.13,5.06-2.48,6.91-1.79,8.95,3.4.52,1.33,1.13,2.65,1.23,4.11Z"/>
  <path class="cls-7" d="m207.07,438.35c.27.65-.01,1.24-.18,1.86-1.35,4.93-2.15,9.96-2.48,15.05-.32,4.89.43,9.7,1.49,14.45.25,1.1.46,2.18.44,3.3-.86.26-1.74.09-2.62.13-4.67.2-7.48-3.49-6.86-8.26.34-2.61,1.03-5.15,1.76-7.68,1.84-6.39,4.64-12.38,7.77-18.22.14-.26.45-.43.67-.64Z"/>
  <path class="cls-3" d="m309.46,249c.84,1.53.47,3.26.74,4.88.59,3.52.78,7.1,1.17,10.66.22,1.97.56,3.93.77,5.9.11,1.02.08,2.07.11,3.1-2.78-.93-3.18-.91-9.56.64-.24-.15-.28-.39-.2-.61,2.32-6.64,3.72-13.53,5.56-20.3.39-1.44.62-2.96,1.41-4.27Z"/>
  <path class="cls-7" d="m246.51,379.95c.12,0,.24.02.36.02.1.53.19,1.06-.35,1.44-.43-.48-.27-.97,0-1.46Z"/>
  <path class="cls-7" d="m211.52,473.11c1-.25,1.99-.26,2.99,0-1,.43-1.99.44-2.99,0Z"/>
  <path class="cls-11" d="m387.64,192.77c-.17.39-.54.45-.88.58.19-.35.44-.61.88-.58Z"/>
  <path class="cls-8" d="m451.44,569.95c-3.09.86-5.58,2.13-8.14,3.18-7.16,2.94-14.3,5.94-21.6,8.53-7.16,2.54-14.48,4.53-22.02,5.45-5.45.66-10.97.71-16.36-.83-6.55-1.87-11.93-5.33-15.37-11.36-1.85-3.24-2.61-6.83-2.84-10.53-.09-1.43-.02-2.88-.07-4.32-.06-1.76-.37-1.96-2.04-1.25-2.57,1.09-5.11,2.27-7.7,3.32-5.11,2.07-10.28,4.03-15.78,4.71-6.77.84-13.38.47-19.43-3.29-3.72-2.31-6.44-5.51-8.35-9.33-2.97-5.92-4.71-12.22-4.61-18.89.07-4.89,1.23-9.62,2.76-14.26,2.45-7.42,6.16-14.18,10.52-20.63,1.74-2.57,3.35-5.22,4.65-8.08,2.22-4.89,5.57-8.93,9.95-12.06,5.06-3.62,10.05-7.38,15.77-9.96,5.65-2.54,11.54-3.67,17.71-2.53,3.04.56,5.72,2.01,8.08,3.98,5.48,4.55,8.34,10.56,9.65,17.44.72,3.78.55,7.59.28,11.47,1.18.18,2.07-.4,3-.77,6.14-2.48,12.2-5.19,18.56-7.08,4.98-1.48,10.05-2.42,15.21-3.09,3.75-.49,7.49-.49,11.24-.38,7.2.2,14.07,1.81,20.32,5.53,2.98,1.77,5.5,4.09,7.49,6.95,1.25,1.79,1.29,1.82,3.28.83,8.9-4.44,18.18-7.81,27.85-10.12,4.67-1.11,9.38-1.94,14.2-1.73,7.32.32,14.42,1.7,21.09,4.81,5.65,2.64,9.86,6.72,11.87,12.79.1.29.24.57.41.99,3.02-1.2,5.95-2.43,8.96-3.45,4.9-1.66,9.87-2.52,15.05-2.28,6.69.31,11.69,3.21,14.85,9.24,3.1,5.91,3.67,12.15,2.68,18.62-2.2,14.5-8.65,27.09-17.35,38.7-3.71,4.94-7.89,9.43-12.34,13.67-6.76,6.45-14.57,11.11-23.62,13.58-5.67,1.54-11.3,1.63-16.89-.58-2.43-.96-4.6-2.32-6.43-4.08-1.27-1.22-2.18-1.08-3.53-.36-5.1,2.67-10.28,5.15-15.83,6.8-6.88,2.04-13.69,1.9-20.45-.52-6.38-2.29-10.44-6.87-12.71-13.13-1.29-3.55-2.09-7.2-1.97-11.01.05-1.43,0-2.86,0-4.66Z"/>
  <path class="cls-8" d="m319.99,627.76c-.08-8.72,2.27-16.86,5.97-24.66,1.92-4.04,3.87-8.14,7.33-11.12,2.76-2.39,5.59-4.76,8.76-6.6,4.06-2.35,8.31-2.15,12.43-.26,8.39,3.85,15.37,9.37,20.01,17.54.59,1.04,1.26,2.03,1.93,3.03,1.48,2.23,1.72,2.37,4.31,1.51,2.65-.89,5.25-1.92,7.85-2.93,6.7-2.6,13.44-5.07,20.58-6.19,1.96-.31,3.94-.65,5.92-.71,6.14-.19,12.29-.25,18.37.92,3.22.62,6.39,1.43,9.34,2.9,4.7,2.33,7.28,6.34,8.6,11.24.71,2.62.31,3.01,3.63,2.24,6.21-1.45,12.47-2.71,18.91-2.45,3.6.14,7.14.74,10.5,2.09,5.5,2.22,8.86,6.38,10.6,11.92,1.82,5.76,1.9,11.58.52,17.47-2.26,9.6-6.08,18.51-11.95,26.44-4.7,6.34-10.86,10.72-18.57,12.77-5.32,1.41-9.91.14-13.72-3.86-.28-.29-.61-.53-.84-.86-.78-1.12-1.72-1.14-2.92-.67-4.16,1.63-8.35,3.19-12.53,4.75-5.42,2.02-11.04,3.29-16.82,3.21-6.72-.09-13.05-1.9-18.93-5.24-4.03-2.29-7.96-4.71-11.32-7.97-3.54-3.43-6.27-7.42-8.51-11.78-.58-1.14-1.14-2.29-1.71-3.43-1.19-2.37-1.54-2.55-4.09-2.05-5.94,1.17-11.86,2.45-17.82,3.48-8.5,1.47-16.55.43-23.63-4.95-6.44-4.9-10.43-11.3-11.74-19.35-.35-2.15-.45-4.28-.45-6.44Z"/>
  <path class="cls-12" d="m330,699.78c0-6.46,1.64-11.63,4.73-16.36.31-.47.68-.9.93-1.4,3.34-6.78,9.66-8.88,16.34-10.33,3.71-.81,7.42-.51,11.13.31,4.39.97,7.6,3.52,10.2,7.02,1.42,1.91,2.59,4.04,4.56,5.5,2.38,1.77,5.2,2.36,8.01,2.95,3.14.65,6.25,1.38,8.87,3.36,3.53,2.67,5.33,6.27,4.43,10.62-2.41,11.55-8.69,20.04-20.03,24.3-4.26,1.6-8.63,2.84-13.1,3.71-9.11,1.77-17.43.09-24.78-5.71-2.15-1.69-3.88-3.79-5.31-6.12-3.52-5.72-6.07-11.77-5.99-17.86Z"/>
  <path class="cls-4" d="m565.27,679.81c-5.97-.38-11.4-1.82-15.49-6.49-1.2-1.37-1.99-2.94-1.68-4.78.45-2.64,2.83-4.02,5.87-3.49,1.41.25,2.81.59,4.18,1.01,3.67,1.12,7.34,1.06,11.1.42,4.54-.77,9.12-1.32,13.69-1.93.95-.13,1.9,0,2.82.33,2.93,1.05,3.68,4.32,1.44,6.51-.39.38-.86.72-1.34.99-3.89,2.19-7.83,4.27-12,5.88-2.77,1.07-5.73,1.3-8.59,1.55Z"/>
  <path class="cls-4" d="m225.75,451.01c-2.14,0-3.39-1.79-2.94-4.2.4-2.16,1.34-4.12,2.55-5.89,4.01-5.92,8.89-11.08,14.53-15.45,2.97-2.3,6.49-3.74,10.07-4.9,2.6-.84,4.86.41,5.41,2.8.37,1.6-.21,2.98-1.78,3.4-1.74.46-2.92,1.57-4.1,2.77-4.08,4.16-8.56,7.88-12.95,11.7-2.52,2.19-4.95,4.52-7,7.2-1.61,2.1-2.35,2.56-3.79,2.56Z"/>
  <path class="cls-6" d="m696.1,478.33c-.04,5.32-1.21,10.04-2.14,14.81-.23,1.17-.5,2.34-.74,3.51-.16.79-.51,1.51-.91,2.21-.57.99-1.46,1.51-2.57,1.45-1.21-.07-2.13-.74-2.51-1.92-.39-1.21-.65-2.46-.64-3.76.01-2.4.11-4.8-.06-7.19-.45-6.35-.52-12.73-1.32-19.07-.15-1.18-.13-2.4-.07-3.59.1-1.92,1.45-3.59,3.17-4.08,1.73-.49,3.62.26,4.75,1.98,1.07,1.63,1.53,3.49,1.81,5.4.21,1.42.65,2.82.69,4.23.06,2.16.73,4.26.53,6.01Z"/>
  <path class="cls-6" d="m199.8,587.76c1.75-.01,3.2,1.41,3.53,3.6.13.86.1,1.75.09,2.63-.06,8.45,1.81,16.45,5.53,24.03.07.14.15.28.22.43.64,1.45.51,2.31-.42,2.99-.82.6-2.21.59-3.12-.18-1.16-.97-2.26-2.03-3.13-3.29-2.29-3.28-4.32-6.74-5.86-10.43-2.15-5.16-2.59-10.5-.85-15.9.39-1.22.9-2.42,2.01-3.19.59-.41,1.25-.73,2-.69Z"/>
  <path class="cls-4" d="m645.97,241.29c-2.37.07-3.99-2.3-3.22-4.47.69-1.97,2.3-3.1,3.93-4.04,6.87-3.93,13.9-7.53,21.79-9.03,1.11-.21,2.22-.23,3.34-.24,1.19,0,1.9.66,2.37,1.69.44.97,0,1.72-.56,2.41-.55.68-1.26,1.21-1.97,1.73-3.32,2.42-6.99,4.16-10.82,5.58-4.28,1.58-8.43,3.42-12.47,5.53-.78.41-1.53.88-2.37.84Z"/>
  <path class="cls-6" d="m439.41,219.78c-3.43.29-5.08-3.42-3.63-5.77.82-1.33,1.81-2.44,3.06-3.3,3.43-2.35,7.07-4.31,11.06-5.57,2.5-.79,5.01-1.57,7.53-2.31,1.71-.51,3.31.07,3.91,1.34.73,1.53.07,3.09-1.59,4.2-1.78,1.19-3.54,2.44-5.21,3.79-3.75,3.05-8.06,5.11-12.42,7.07-.87.39-1.8.65-2.71.56Z"/>
  <path class="cls-6" d="m700.25,242.77c-2.16.09-3.69-.73-4.55-2.59-.91-1.96-.5-3.77,1.05-5.47,1.5-1.65,3.49-2.5,5.48-3.26,1.62-.62,3.34-1,5.04-1.4,1.99-.47,3.76.19,4.62,1.61.96,1.58.69,3.38-.82,5-1.8,1.93-3.89,3.52-6.19,4.81-1.47.82-3.02,1.44-4.63,1.32Z"/>
  <path class="cls-6" d="m742.72,476.55c.02,2.25-.81,3.13-2.85,3.25-.4.02-.82.07-1.19-.04-2.9-.81-5.88-1.38-8.61-2.73-1.72-.85-2.52-2.39-2.77-4.2-.28-2.07.39-3.8,2.2-4.93,2.1-1.31,4.38-1.27,6.26.16,2.39,1.83,4.49,4.03,6.29,6.49.5.68.71,1.41.65,2Z"/>
  <path class="cls-4" d="m711.46,488.76c.12,1.29-.52,2.22-1.58,2.72-1.1.52-2.42.64-3.39-.24-2.83-2.56-4.96-5.58-5.4-9.51-.18-1.55,1.19-3.66,2.61-4.21,1.51-.59,4.01.13,5.2,1.54,1.05,1.24,1.7,2.67,2.04,4.25.05.23.08.47.07.71-.05,1.6.27,3.16.44,4.73Z"/>
  <path class="cls-6" d="m577.11,653.01c-3.19.03-4.96-1.65-4.76-4.42.12-1.63,1.66-3.43,3.54-3.7,3.06-.44,6.14-.72,9.22-.97,1.33-.11,2.39.68,2.82,1.8.48,1.27-.19,2.16-1.04,2.92-.53.47-1.14.88-1.77,1.2-1.77.9-3.55,1.77-5.35,2.61-.87.41-1.8.63-2.66.55Z"/>
  <path class="cls-9" d="m467.95,221.67c-1.8-.03-2.94-.81-3.4-2.24-.51-1.6.09-3.43,1.65-4.35,1.5-.89,3.1-1.62,4.7-2.33,1.16-.52,2.39-.85,3.56-1.34.87-.37,1.58-.14,2.17.46.59.6.85,1.33.46,2.18-.34.72-.61,1.53-1.26,1.99-1.63,1.16-2.93,2.68-4.4,4.01-1,.9-2.06,1.79-3.47,1.62Z"/>
  <path class="cls-9" d="m248.97,452.41c-2.3,0-3.68-1.14-4.13-3.2-.32-1.46.8-3.58,2.49-4.22,1.47-.55,3.05-.92,4.61-1.13,1.62-.22,3.01,1.37,2.46,2.9-.75,2.09-1.91,3.99-3.86,5.24-.57.36-1.19.42-1.57.41Z"/>
</svg>