<?xml version="1.0" encoding="UTF-8"?>
<svg id="_图层_1" data-name="图层 1" xmlns="http://www.w3.org/2000/svg" viewBox="0 0 960 960">
  <defs>
    <style>
      .cls-1 {
        fill: #fafbf9;
      }

      .cls-1, .cls-2, .cls-3, .cls-4, .cls-5, .cls-6, .cls-7, .cls-8, .cls-9, .cls-10 {
        stroke-width: 0px;
      }

      .cls-2 {
        fill: #454794;
      }

      .cls-3 {
        fill: #070605;
      }

      .cls-4 {
        fill: #f6b89f;
      }

      .cls-5 {
        fill: #b06a1f;
      }

      .cls-6 {
        fill: #fbd440;
      }

      .cls-7 {
        fill: #a86760;
      }

      .cls-8 {
        fill: #a76760;
      }

      .cls-9 {
        fill: #5a7dfe;
      }

      .cls-10 {
        fill: #f5b89f;
      }
    </style>
  </defs>
  <path class="cls-3" d="m692.47,493.04c1.17-1.08,2.6-1.56,4.13-1.74,5.65-.67,11.02.25,15.89,3.27,5.26,3.26,8.26,7.9,8.21,14.3,1.57.36,3.03-.25,4.5-.44,13.16-1.75,26.35-3.1,39.57-4.25.56-.05,1.11-.13,1.67-.15.81-.03,1.28-.37,1.57-1.18,1.55-4.47,4.41-8.09,7.46-11.62,5.33-6.18,12.18-7.82,19.92-6.9,4.5.53,8.72,1.9,12.65,4.57,2.17-3.47,4.73-6.5,7.08-9.69,2.23-3.03,4.64-5.91,7.17-8.69,1.4-1.55,2.91-2.97,4.71-4.06,3.87-2.33,7.15-1.71,9.85,1.91,2.17,2.92,3.53,6.26,4.65,9.68,1.72,5.25,2.69,10.69,3.78,16.09.54,2.66,1.04,5.34,1.43,8.02.18,1.24.76,1.8,1.92,2.06,1.95.42,3.89.9,5.82,1.41,8.67,2.32,16.93,5.76,25.14,9.33,2.13.93,4.16,2.04,5.96,3.54,3.73,3.1,4.94,7.2,3.48,11.84-.94,2.97-2.76,5.39-4.88,7.6-2.44,2.55-5.23,4.7-7.99,6.88-2.32,1.83-4.64,3.66-6.84,5.65-1.41,1.27-1.7,2.59-.82,4.24.6,1.13,1.15,2.28,1.71,3.43,1.52,3.08,3.09,6.14,4.55,9.25.61,1.29,1.11,2.66,1.49,4.04,1.27,4.65-.4,8.39-4.68,10.62-2.72,1.42-5.72,2-8.66,2.75-14.57,3.72-28.87,2.03-43.03-2.21-2.29-.68-4.52-1.61-6.68-2.64-1.3-.62-1.9-.34-2.74.74-4.28,5.49-9.79,9.17-16.7,10.42-8.05,1.45-15.21-.44-21.25-6.13-3.79-3.57-6.76-7.66-8.41-12.64-.6-1.82-1.75-3.42-2.18-5.31-.23-1-1.08-.79-1.74-.89-6.4-.94-12.82-1.83-19.22-2.81-12.87-1.98-25.74-4.02-38.61-6.03-.39-.06-.79-.14-1.18-.19-4.18-.49-4.16-.48-6.09,3.29-2.97,5.84-6.81,11.01-11.92,15.15-5.27,4.26-11.25,6.28-18.07,5.51-3.31-.37-6.37-1.49-9.26-3.1-3.24-1.82-6.05-4.18-8.49-6.96-3.77-4.29-6.79-9.08-9.17-14.27-.46-1.01-.85-2.08-1.12-3.16-.7-2.77-.21-3.79,2.37-5.25,1.97.07,3.15,1.24,4.1,2.83,1.26,2.11,2.09,4.45,3.55,6.45,2.39,4.6,5.64,8.5,9.78,11.63,6.86,5.2,14.04,5.38,20.51.43,3.08-2.35,5.53-5.29,7.41-8.7,2.64-4.78,4.63-9.81,6.1-15.07,2.17-7.72,3.06-15.65,3.88-23.58.35-3.33,1.92-5.1,5.22-5.5.47-.06.96-.03,1.44-.07,3.62-.31,6.71-1.7,9.41-4.21,4.04-3.76,3.46-9.71-2.09-12.63-.4-.76-1.18-1.02-1.88-1.36-2.07-1.01-4.26-1.69-6.54-1.99-1.88-.25-3.78-.34-5.64-.64-1.95-.32-2.3-.86-2.21-2.84Zm96.62,3.91c.77-.59,1.63-.55,2.51-.34,1.74,1.65,2.59,3.8,3.29,6.01,1.37,4.3,1.81,8.76,1.95,13.23.45,14.44-1.87,28.47-6.61,42.1-1.68,4.84-3.85,9.46-6.88,13.63-.56.77-1.13,1.56-1.97,2.07-1.09.66-2.28.63-3.12-.12-.85-.76-1.1-1.7-.79-2.82.19-.69.76-1.23.71-2.19-3.49-.44-7.01-.88-10.88-1.37,1.3,3.89,2.6,7.4,4.81,10.45,1.34,1.85,2.91,3.6,5.02,4.71.21.23.39.5.63.68,7.04,5.3,17.34,4.36,24.23-.54,3.97-2.83,6.41-6.79,8.55-11,1.59-3.14,2.84-6.43,3.94-9.77,3.52-10.71,5.5-21.63,4.48-32.96-.09-1.03-.12-2.07-.27-3.09-.67-4.59-1.77-9.08-2.92-13.57-1.08-4.23-2.97-8.08-5.25-11.76-1.01-1.63-2.2-3.13-3.83-4.21-.25-.3-.47-.65-.76-.9-5.44-4.62-11.76-5.68-18.6-4.55-1.99.33-3.86,1.01-5.46,2.28-2.95,2.34-5.62,4.95-7.64,8.16-.41.65-1.04,1.22-.95,2.22,1.27.09,2.52-.01,3.77-.2,3.57-.23,7.12-.7,10.66-1.24,1.7-.26,1.75-.31,1.26-1.9-.32-1.05-.35-2.02.14-3.01Zm-67.55,18.21l-.09.04c-1.16-.06-2.38-.47-3.23.84-3.27,5.05-8.29,7.58-13.73,9.49-1.99.7-2.05.65-2.02,2.8.09,6.12-.82,12.11-2.27,18.02-1.07,4.37-1.08,4.31,3.35,4.92,7.36,1.02,14.7,2.17,22.05,3.17,2.67.36,5.3,1.15,8.04.97,1.03.75,2.27.57,3.43.75,14.27,2.25,28.57,4.35,42.74,7.16,1.24.24,1.98.09,2.42-1.13.21-.6.55-1.15.82-1.73,5.21-11.21,8.11-23.01,8.94-35.31.34-5.02.37-10.06-.4-15.06-.27-1.73-.28-1.77-1.92-1.65-3.58.26-7.17.48-10.74.88-15.47,1.73-30.91,3.76-46.43,4.99-2.06-.15-4.1.03-6.13.33-1.62.24-3.31-.21-4.86.53Zm103.28,22.61l.04.58c0,.28,0,.55,0,.83-.48.69-.5,1.49-.59,2.28-.55,4.76-1.41,9.45-2.69,14.07-1.56,5.62-3.54,11.08-6,16.37-.74,1.59-.7,1.65.86,2.24,7.18,2.73,14.58,4.54,22.23,5.34,5.81.68,11.61.75,17.37-.44,3.67-.75,7.38-1.33,10.87-2.75,2.23-.9,2.42-1.39,1.57-3.63-1.33-3.5-2.84-6.93-4.52-10.28-.99-1.96-1.96-3.94-2.65-6.03-1.57-4.55.04-8.03,3.6-10.89.55-.44,1.24-.73,1.56-1.43,4.06-3.11,8.05-6.29,11.69-9.89,1.6-1.58,2.97-3.35,3.74-5.5.79-2.21.54-2.97-1.43-4.18-2.52-1.56-5.25-2.7-7.98-3.83-8.27-3.41-16.6-6.65-25.2-9.15-4.42-1.29-7.3-3.81-7.68-8.63-.01-.16-.05-.32-.07-.47-.78-4.56-1.54-9.13-2.34-13.69-.85-4.81-1.91-9.57-3.99-14.01-1.68-3.57-1.74-4.38-5.16-.85-5.4,5.57-9.79,11.99-14.5,18.14-.66.86-.59,1.49.09,2.3,1.87,2.21,3.28,4.72,4.48,7.34,3.77,8.22,5.51,16.97,6.57,25.88.41,3.42.05,6.86.14,10.29Z"/>
  <path class="cls-9" d="m647.09,557.58c-1.45-2-2.29-4.34-3.55-6.45-.95-1.59-2.13-2.76-4.1-2.83-.06-10.64,3.48-19.98,10.07-28.26,8.13-10.22,17.96-18.29,29.89-23.71,3.72-1.69,7.55-3.02,11.66-3.36.47-.04.94.04,1.41.06-.09,1.99.26,2.53,2.21,2.84,1.87.3,3.77.39,5.64.64,2.29.3,4.47.99,6.54,1.99.7.34,1.48.6,1.88,1.36-1.3,1.92-1.81,4.2-2.95,6.21-1.94,3.42-4.42,6.23-8.05,7.91-1.16.54-2.32,1.08-3.43,1.71-1.57.87-2.57,2.17-2.53,4.04.04,1.79-.46,3.47-.97,5.14-1.32,4.28-3.16,8.35-5,12.42-1.72,3.8-4.04,7.25-6.91,10.28-5.56,5.87-12.44,9.33-20.35,10.81-3.22.6-6.46,1.05-9.61-.42-.56-.26-1.24-.26-1.86-.38Z"/>
  <path class="cls-10" d="m824.85,539.17c0-.28,0-.55,0-.83.34-.21.29-.41-.04-.58-.09-3.43.27-6.87-.14-10.29-1.06-8.91-2.79-17.66-6.57-25.88-1.2-2.62-2.61-5.13-4.48-7.34-.69-.81-.75-1.44-.09-2.3,4.71-6.15,9.09-12.57,14.5-18.14,3.42-3.52,3.48-2.72,5.16.85,2.09,4.44,3.14,9.2,3.99,14.01.81,4.56,1.57,9.13,2.34,13.69.03.16.06.31.07.47.38,4.82,3.25,7.34,7.68,8.63,8.59,2.51,16.93,5.74,25.2,9.15,2.73,1.13,5.46,2.28,7.98,3.83,1.97,1.22,2.22,1.97,1.43,4.18-.77,2.16-2.15,3.92-3.74,5.5-3.63,3.6-7.63,6.79-11.69,9.89-.91-.11-1.72.33-2.55.56-2.78.75-5.68.72-8.47,1.37-1.26.3-2.43.77-3.28,1.8-1.36,1.65-1.48,3.54-.74,5.4.85,2.12,2.68,3.11,4.87,3.34,1.66.18,3.35.05,5.01-.15.69,2.1,1.66,4.07,2.65,6.03,1.68,3.35,3.19,6.78,4.52,10.28.85,2.24.65,2.73-1.57,3.63-3.49,1.42-7.21,2-10.87,2.75-5.77,1.18-11.56,1.11-17.37.44-1.67-1.56-2.38-3.74-3.51-5.64-3.88-6.55-5.92-13.75-7.07-21.22-.64-4.18-1.4-8.33-2.41-12.43-.12-.49-.23-.94-.82-1.02Z"/>
  <path class="cls-4" d="m732.53,514.29c15.52-1.24,30.96-3.27,46.43-4.99,3.57-.4,7.16-.61,10.74-.88,1.63-.12,1.65-.08,1.92,1.65.77,5,.74,10.04.4,15.06-.84,12.3-3.74,24.11-8.94,35.31-.27.58-.61,1.13-.82,1.73-.44,1.22-1.18,1.38-2.42,1.13-14.18-2.8-28.47-4.9-42.74-7.16-1.16-.18-2.4,0-3.43-.75-.1-.75-.7-1.01-1.26-1.32-1.82-1-3.46-2.27-5.1-3.54-5.03-3.91-9.74-8.21-14.64-12.28-1.24-1.03-1.39-2.21-1-3.63.79-2.88,2.03-5.52,3.9-7.87,2.74-3.46,5.16-7.09,5.89-11.57,0,0,.09-.04.08-.04,3.56.33,7.07-.42,10.61-.6.13,0,.26-.17.38-.26Z"/>
  <path class="cls-6" d="m777.13,582.29c-2.1-1.11-3.67-2.85-5.02-4.71-2.21-3.05-3.51-6.56-4.81-10.45,3.86.49,7.38.93,10.88,1.37.05.96-.52,1.5-.71,2.19-.3,1.12-.06,2.06.79,2.82.84.75,2.03.78,3.12.12.84-.51,1.4-1.29,1.97-2.07,3.04-4.17,5.2-8.79,6.88-13.63,4.74-13.63,7.06-27.66,6.61-42.1-.14-4.47-.58-8.93-1.95-13.23-.7-2.21-1.55-4.36-3.3-6.01,2.72-.13,5.32.68,7.96,1.13,2.61.44,5.05.21,7.12-1.65,1.63,1.08,2.82,2.58,3.83,4.21,2.28,3.68,4.17,7.53,5.25,11.76,1.15,4.49,2.25,8.98,2.92,13.57.15,1.02.18,2.06.27,3.09-3.68-.05-5.81,2.24-7.53,5.08-2.56,4.23-5.13,8.45-7.6,12.73-4.47,7.73-8.89,15.48-13.49,23.14-2.94,4.89-6.46,9.08-11.85,11.4-.58.25-1.18.53-1.35,1.25Z"/>
  <path class="cls-5" d="m777.13,582.29c.17-.72.78-1,1.35-1.25,5.38-2.32,8.91-6.51,11.85-11.4,4.6-7.66,9.02-15.41,13.49-23.14,2.47-4.28,5.04-8.5,7.6-12.73,1.72-2.84,3.85-5.12,7.53-5.08,1.02,11.33-.95,22.25-4.48,32.96-1.1,3.34-2.35,6.63-3.94,9.77-2.13,4.21-4.57,8.17-8.55,11-6.88,4.9-17.19,5.85-24.23.54-.24-.18-.42-.45-.63-.68Z"/>
  <path class="cls-2" d="m647.09,557.58c.62.12,1.3.12,1.86.38,3.16,1.47,6.4,1.02,9.61.42,7.9-1.47,14.78-4.94,20.35-10.81,2.87-3.03,5.19-6.47,6.91-10.28,1.84-4.07,3.68-8.14,5-12.42.52-1.68,1.01-3.35.97-5.14-.04-1.87.97-3.17,2.53-4.04,1.11-.62,2.27-1.17,3.43-1.71,3.63-1.68,6.11-4.49,8.05-7.91,1.14-2.01,1.65-4.29,2.95-6.21,5.55,2.92,6.13,8.87,2.09,12.63-2.7,2.51-5.79,3.9-9.41,4.21-.48.04-.96.01-1.44.07-3.29.4-4.87,2.18-5.22,5.5-.83,7.94-1.72,15.86-3.88,23.58-1.48,5.25-3.46,10.29-6.1,15.07-1.88,3.4-4.34,6.35-7.41,8.7-6.47,4.95-13.65,4.77-20.51-.43-4.13-3.13-7.38-7.02-9.78-11.63Z"/>
  <path class="cls-8" d="m721.45,515.19c-.73,4.49-3.15,8.11-5.89,11.57-1.86,2.35-3.1,4.99-3.9,7.87-.39,1.43-.24,2.61,1,3.63,4.9,4.07,9.61,8.37,14.64,12.28,1.63,1.27,3.27,2.54,5.1,3.54.56.31,1.16.57,1.26,1.32-2.74.19-5.37-.6-8.04-.97-7.36-1-14.7-2.15-22.05-3.17-4.44-.61-4.42-.55-3.35-4.92,1.45-5.92,2.36-11.91,2.27-18.02-.03-2.15.03-2.11,2.02-2.8,5.44-1.9,10.47-4.44,13.73-9.49.85-1.31,2.06-.9,3.23-.84Z"/>
  <path class="cls-8" d="m824.85,539.17c.59.09.7.54.82,1.02,1.01,4.1,1.77,8.25,2.41,12.43,1.15,7.47,3.19,14.67,7.07,21.22,1.13,1.9,1.84,4.07,3.51,5.64-7.64-.81-15.05-2.62-22.23-5.34-1.56-.59-1.6-.65-.86-2.24,2.45-5.29,4.44-10.75,6-16.37,1.28-4.62,2.14-9.31,2.69-14.07.09-.79.11-1.6.59-2.28Z"/>
  <path class="cls-1" d="m806.68,496.08c-2.07,1.86-4.51,2.1-7.12,1.65-2.64-.45-5.24-1.25-7.96-1.13-.88-.21-1.74-.25-2.51.34-3.23.42-5.96,1.97-8.58,3.77-1.16.8-2.17,1.8-3.48,2.38-1.25.19-2.49.28-3.77.2-.09-1,.54-1.57.95-2.22,2.02-3.21,4.69-5.82,7.64-8.16,1.6-1.27,3.47-1.95,5.46-2.28,6.84-1.13,13.16-.07,18.6,4.55.3.25.51.6.76.9Z"/>
  <path class="cls-7" d="m861.31,556.36c-1.67.2-3.35.32-5.01.15-2.19-.23-4.02-1.22-4.87-3.34-.75-1.86-.62-3.75.74-5.4.86-1.04,2.02-1.51,3.28-1.8,2.79-.65,5.69-.62,8.47-1.37.83-.22,1.64-.67,2.55-.56-.31.7-1.01.99-1.56,1.43-3.56,2.86-5.17,6.34-3.6,10.89Z"/>
  <path class="cls-6" d="m777.03,503.08c1.31-.57,2.32-1.58,3.48-2.38,2.62-1.8,5.35-3.35,8.58-3.77-.49.98-.46,1.95-.14,3.01.49,1.59.44,1.64-1.26,1.9-3.54.54-7.09,1-10.66,1.24Z"/>
  <path class="cls-8" d="m732.53,514.29c-.13.09-.25.25-.38.26-3.54.19-7.04.93-10.61.6,1.56-.74,3.25-.3,4.86-.53,2.03-.3,4.07-.47,6.13-.33Z"/>
  <path class="cls-8" d="m824.82,537.77c.33.17.38.36.04.58-.01-.19-.02-.39-.04-.58Z"/>
</svg>