<?xml version="1.0" encoding="UTF-8"?>
<svg id="_图层_1" data-name="图层 1" xmlns="http://www.w3.org/2000/svg" viewBox="0 0 960 960">
  <defs>
    <style>
      .cls-1 {
        fill: #fafbf9;
      }

      .cls-1, .cls-2, .cls-3, .cls-4, .cls-5, .cls-6, .cls-7, .cls-8, .cls-9 {
        stroke-width: 0px;
      }

      .cls-2 {
        fill: #454794;
      }

      .cls-3 {
        fill: #060504;
      }

      .cls-4 {
        fill: #fbd440;
      }

      .cls-5 {
        fill: #a86760;
      }

      .cls-6 {
        fill: #af6a1f;
      }

      .cls-7 {
        fill: #fdd541;
      }

      .cls-8 {
        fill: #5a7dfe;
      }

      .cls-9 {
        fill: #f5b89f;
      }
    </style>
  </defs>
  <path class="cls-3" d="m321.39,540.02c.64,1.63.61,3.27.15,4.94-2.15,7.81-5.63,14.93-11.02,21.04-2.29,2.6-5,4.74-8.11,6.28-7.68,3.81-15.3,3.46-22.7-.75-6.47-3.68-11.36-9.01-15.35-15.21-1.57-2.44-1.57-2.5-4.32-1.89-6.31,1.42-12.45,3.47-18.69,5.19-13.23,3.65-26.44,7.43-39.74,10.85-1.42.37-2.21.87-2.54,2.53-.59,2.96-1.42,5.93-2.59,8.71-4.31,10.23-11.36,17.14-23.05,17.81-4.96.29-9.67-.93-14.02-3.38-2.52-1.42-4.85-3.12-6.82-5.24-.81-.88-1.42-.93-2.43-.3-7.97,4.96-16.78,7.72-25.85,9.82-9.76,2.26-19.54,1.9-29.28.05-7.41-1.41-10.06-5.83-8.2-13.11,1.01-3.95,2.48-7.76,3.96-11.55.58-1.49,1.12-2.99,1.52-4.54.28-1.08.03-1.9-.82-2.54-1.15-.87-2.29-1.75-3.5-2.52-3.3-2.11-6.65-4.14-9.95-6.24-2.23-1.42-4.3-3.06-6.11-4.99-1.43-1.53-2.65-3.2-3.4-5.18-1.6-4.21-.94-8,2.13-11.33,1.7-1.84,3.73-3.27,5.87-4.52,9.18-5.36,18.44-10.57,28.58-13.95,1.66-.55,2.33-1.38,2.42-3.21.4-7.98.81-15.97,2.25-23.85.46-2.52,1.21-4.97,2.11-7.36.53-1.42,1.2-2.79,2.11-4.02,1.9-2.54,4.37-3.34,7.4-2.41,2.26.69,4.17,1.99,5.96,3.49,5.59,4.69,10.52,10.04,15.48,15.37,1.47,1.58,1.37,1.6,3.08.41,6.35-4.43,13.32-6.39,21.07-5.29,2.84.4,5.37,1.52,7.63,3.24,4.5,3.42,8.52,7.27,11.06,12.42.52,1.05,1.23,1.02,2.14.99,12.79-.35,25.58-.73,38.37-.53,2,.03,4,.1,5.99.2.93.04,1.25-.25,1.16-1.23-.56-6.36,2.3-11.13,7.25-14.75,4.54-3.32,9.69-4.82,15.32-4.54,2.7.14,3.34.66,3.96,2.86-1.06,1.4-2.67,1.6-4.23,1.9-3.63.68-7.11,1.75-10.16,3.88-1.09.76-2.32,1.44-2.75,2.86-2.94,2.49-3.3,6.55-.83,9.55,1.91,2.31,4.44,3.58,7.28,4.35,2.12.58,4.28.38,6.43.43,2.48.06,4.37,1.38,4.78,3.56.51,2.75,1.38,5.41,2.01,8.13,1.99,8.59,4.72,16.93,9.2,24.59,2.72,4.64,5.7,9.09,10.22,12.21,7.26,5.01,14.25,4.92,20.67-.48,3.78-3.18,6.72-7.06,8.78-11.55.82-1.8,1.93-3.52,2.09-5.57.97-1.12,1.12-2.61,1.76-3.88,1.59-3.19,3.27-3.68,6.22-1.72Zm-149.09-38.3c-1.7-1.75-3.9-2.47-6.22-2.7-10.08-.99-19.02,3.54-23.49,13.62-3.37,7.6-3.99,15.69-4.33,23.84-.41,4.89.14,9.71,1.13,14.48.66,3.18,1.19,6.41,2.54,9.41.08.47.09.96.25,1.4,2.93,8.03,6.19,15.85,11.49,22.75,2.15,2.79,4.42,5.21,7.34,7.04,6.4,4,18.27,4.88,25.79-3.14,3.85-4.1,5.69-8.96,6.93-14.21.32-1.33.05-1.54-1.37-1.22-1.01.23-2.02.48-3.01.78-1.95.59-4.04.74-6.01,1.65.38.65.73,1.19,1.01,1.75.56,1.12.45,2.2-.45,3.08-.9.88-1.97.94-3.1.42-.74-.34-1.3-.91-1.87-1.48-2.54-2.58-4.46-5.61-6.38-8.66-2.13-3.39-3.56-7.13-5.39-10.67-.2-.61-.37-1.22-.6-1.82-3.62-9.43-6.37-19.1-7.54-29.15-.85-7.33-1.31-14.66,1.25-21.81.86-1.26,1.78-2.4,3.57-1.89,1.43,1.37.57,3.11.57,4.86,5.53.17,10.87.2,16.64-.11-2.64-3.55-5.29-6.32-8.76-8.22Zm-6.47,15.33q-2.66-.12-2.7,2.47c0,.16,0,.32,0,.48.15,9.09,1.91,17.9,4.7,26.52,2.57,7.94,6.05,15.44,10.57,22.46,1.14,1.77,1.17,1.76,2.83,1.22,13.89-4.48,27.97-8.32,42.02-12.26,4.44-1.25,8.95-2.28,13.31-3.79,7.72-1.95,15.46-3.84,22.99-6.24-.03-1.12-.48-1.8-.77-2.54-2.37-6.13-4.2-12.41-4.99-18.96-.27-2.25-.24-2.25-2.38-2.7-.31-.07-.62-.14-.93-.22-5.32-1.23-10.2-3.28-13.79-7.63-.63-.76-1.32-.7-2.14-.64-9.65.76-19.32.95-28.99,1.11-11.91.19-23.83-.13-35.74.32-1.34.05-2.72-.14-4.01.4Zm-66.07,53.35c-.41,3.41-1.39,6.66-2.55,9.89-1.15,3.2-2.29,6.42-2.79,9.81-.68,2.27-.47,2.79,1.83,3.35,5.39,1.3,10.89,1.74,16.4,1.5,12.01-.52,23.13-4.29,33.75-9.75.94-.48,1.06-.96.53-1.86-1.5-2.53-2.92-5.1-4.37-7.66-.91-1.95-1.87-3.88-2.71-5.87-4.21-10-7.3-20.28-7.47-31.24-.11-6.65.7-13.24,1.99-19.75.89-4.48,2.42-8.77,4.76-12.73,1-1.69,1.06-1.76-.33-3.2-4.94-5.11-9.79-10.31-15.1-15.05-.96-.85-1.97-1.63-3.11-2.22-1.31-.67-1.48-.61-2.14.79-.65,1.38-1.05,2.84-1.42,4.31-1.38,5.62-1.62,11.37-1.94,17.11-.23,4.14-.2,8.3-.8,12.43-.27,1.86-1.19,3.26-2.66,4.37-1.48,1.11-3.13,1.92-4.81,2.65-8.43,3.67-16.5,8.05-24.49,12.56-2.08,1.18-4.15,2.4-5.94,4.01-1.4.8-1.41,2.02-.96,3.33.44,1.3,1.26,2.39,2.19,3.39,2.01,2.19,4.41,3.9,6.89,5.52,3.6,2.36,7.22,4.69,10.81,7.06,2.6,1.71,4.31,3.99,4.44,7.23Z"/>
  <path class="cls-8" d="m321.39,540.02c-2.95-1.96-4.63-1.47-6.22,1.72-.64,1.27-.79,2.76-1.76,3.88-1.35-.02-2.71-.21-4.06.03-5.45.97-10.91,1.28-16.4.35-7.26-1.23-13.69-4.18-19.03-9.32-3.87-3.73-6.72-8.28-9.86-12.6-.73-1.01-1.19-1.96-1.21-3.25-.07-3.04-1.61-5.26-4.24-6.76-1.54-.87-3.21-1.41-4.89-1.93-5.2-1.59-8.75-4.78-10.02-10.22-.15-.63-.22-1.27-.95-1.54.42-1.42,1.66-2.1,2.75-2.86,3.06-2.14,6.54-3.2,10.16-3.88,1.56-.29,3.16-.5,4.23-1.9,5.02.03,10.03.02,15.03.82,9.51,1.52,17.64,5.7,24.9,11.92,6.99,5.99,12.44,13.23,17.41,20.87,2.6,4,4.13,8.44,4.35,13.27.02.48.09.95-.2,1.39Z"/>
  <path class="cls-9" d="m94.43,590.1c.49-3.39,1.63-6.61,2.79-9.81,1.16-3.22,2.13-6.48,2.55-9.89,1.84.02,3.68.12,5.51.05,1.99-.08,3.79-.82,5.02-2.41,1.87-2.42,1.25-5.78-1.42-7.82-1.52-1.16-3.17-2.15-4.9-3-8.32-4.07-16.94-7.51-25.12-11.88-.84-.45-1.77-.75-2.46-1.46,1.8-1.61,3.86-2.84,5.94-4.01,7.99-4.52,16.07-8.89,24.49-12.56,1.69-.73,3.33-1.54,4.81-2.65,1.47-1.11,2.38-2.51,2.66-4.37.61-4.12.57-8.28.8-12.43.32-5.74.56-11.49,1.94-17.11.36-1.47.77-2.94,1.42-4.31.66-1.4.83-1.46,2.14-.79,1.14.59,2.16,1.36,3.11,2.22,5.31,4.74,10.16,9.94,15.1,15.05,1.39,1.44,1.33,1.5.33,3.2-2.34,3.96-3.87,8.25-4.76,12.73-1.29,6.51-2.1,13.1-1.99,19.75.17,10.96,3.27,21.24,7.47,31.24.83,1.98,1.8,3.91,2.71,5.87-1.02,1.04-2.47,1.44-3.54,2.4-3.69,3.28-8,5.52-12.45,7.53-6.25,2.82-12.79,4.45-19.67,4.54-4.15.05-8.31-.03-12.47-.05Z"/>
  <path class="cls-9" d="m165.83,517.05c1.3-.54,2.67-.35,4.01-.4,11.91-.46,23.82-.13,35.74-.32,9.67-.16,19.34-.34,28.99-1.11.82-.06,1.51-.13,2.14.64,3.58,4.35,8.46,6.4,13.79,7.63.31.07.62.15.93.22,2.14.45,2.1.45,2.38,2.7.79,6.55,2.61,12.83,4.99,18.96.29.74.74,1.42.77,2.54-7.53,2.41-15.27,4.29-22.99,6.24-.32-.02-.63-.07-.95-.07-7.33.12-14.61,1.18-21.95,1.19-2.37,0-4.79.47-7.15.2-3.51-.41-7.01-.24-10.51-.31-1.84-.04-3.67-.01-5.51-.07-4.64-.14-10.72-3.83-13.05-7.78-3.87-6.57-6.57-13.61-8.71-20.91-.91-3.12-1.65-6.31-2.91-9.33Z"/>
  <path class="cls-6" d="m167.17,559.86c1.82,3.54,3.26,7.28,5.39,10.67,1.91,3.05,3.84,6.08,6.38,8.66.56.57,1.12,1.14,1.87,1.48,1.13.52,2.21.46,3.1-.42.89-.88,1.01-1.96.45-3.08-.28-.56-.63-1.09-1.01-1.75,1.98-.91,4.06-1.06,6.01-1.65.99-.3,2-.55,3.01-.78,1.42-.32,1.69-.11,1.37,1.22-1.25,5.25-3.09,10.11-6.93,14.21-7.52,8.01-19.39,7.14-25.79,3.14-2.92-1.83-5.2-4.24-7.34-7.04-5.3-6.9-8.56-14.71-11.49-22.75-.16-.44-.17-.93-.25-1.4.72-.09,1.41,0,2.09.3,2.41,1.06,4.97,1.61,7.49,2.3.95.26,1.89.34,2.83.16,2.56-.5,5.13-.92,7.67-1.59,1.76-.47,3.26-1.73,5.16-1.67Z"/>
  <path class="cls-7" d="m167.17,559.86c-1.91-.05-3.4,1.21-5.16,1.67-2.54.67-5.11,1.09-7.67,1.59-.93.18-1.88.1-2.83-.16-2.52-.69-5.08-1.24-7.49-2.3-.68-.3-1.37-.39-2.09-.3-1.35-3-1.88-6.23-2.54-9.41-1-4.77-1.54-9.59-1.13-14.48,1.48-1.07,1.71-2.83,2.29-4.36,1.46-3.89,3.28-7.58,5.67-10.99,3.87-5.5,8.27-10.48,14.07-14.05-2.55,7.15-2.1,14.48-1.25,21.81,1.17,10.06,3.92,19.72,7.54,29.15.23.59.4,1.21.6,1.82Z"/>
  <path class="cls-2" d="m242.77,500.39c.72.26.8.91.95,1.54,1.26,5.44,4.82,8.63,10.02,10.22,1.68.51,3.35,1.05,4.89,1.93,2.63,1.49,4.17,3.71,4.24,6.76.03,1.29.48,2.24,1.21,3.25,3.14,4.32,5.98,8.87,9.86,12.6,5.33,5.14,11.77,8.09,19.03,9.32,5.49.93,10.95.62,16.4-.35,1.35-.24,2.71-.04,4.06-.03-.16,2.05-1.27,3.77-2.09,5.57-2.06,4.49-5,8.38-8.78,11.55-6.42,5.4-13.41,5.49-20.67.48-4.53-3.12-7.51-7.57-10.22-12.21-4.48-7.66-7.21-15.99-9.2-24.59-.63-2.72-1.5-5.37-2.01-8.13-.41-2.18-2.3-3.5-4.78-3.56-2.15-.05-4.31.15-6.43-.43-2.84-.77-5.38-2.03-7.28-4.35-2.47-3-2.12-7.06.83-9.55Z"/>
  <path class="cls-5" d="m165.83,517.05c1.25,3.02,1.99,6.21,2.91,9.33,2.14,7.3,4.84,14.34,8.71,20.91,2.33,3.96,8.41,7.65,13.05,7.78,1.83.05,3.67.03,5.51.07,3.5.07,7-.1,10.51.31,2.36.28,4.78-.19,7.15-.2,7.35,0,14.62-1.07,21.95-1.19.32,0,.63.04.95.07-4.37,1.51-8.87,2.55-13.31,3.79-14.05,3.94-28.13,7.78-42.02,12.26-1.66.53-1.69.55-2.83-1.22-4.52-7.01-8.01-14.52-10.57-22.46-2.79-8.62-4.55-17.43-4.7-26.52,0-.16,0-.32,0-.48q.03-2.59,2.7-2.47Z"/>
  <path class="cls-5" d="m94.43,590.1c4.16.02,8.31.1,12.47.05,6.88-.09,13.42-1.71,19.67-4.54,4.45-2.01,8.77-4.25,12.45-7.53,1.07-.95,2.52-1.36,3.54-2.4,1.45,2.56,2.87,5.13,4.37,7.66.53.9.41,1.38-.53,1.86-10.62,5.46-21.74,9.23-33.75,9.75-5.51.24-11.01-.2-16.4-1.5-2.29-.55-2.51-1.07-1.83-3.35Z"/>
  <path class="cls-5" d="m76.39,543.87c.69.71,1.62,1.01,2.46,1.46,8.18,4.37,16.8,7.81,25.12,11.88,1.73.85,3.38,1.84,4.9,3,2.67,2.04,3.3,5.4,1.42,7.82-1.23,1.59-3.03,2.33-5.02,2.41-1.83.07-3.67-.03-5.51-.05-.13-3.24-1.85-5.52-4.44-7.23-3.59-2.37-7.21-4.7-10.81-7.06-2.47-1.62-4.87-3.33-6.89-5.52-.93-1.01-1.74-2.09-2.19-3.39-.44-1.3-.44-2.53.96-3.33Z"/>
  <path class="cls-1" d="m160.29,507.09c-5.81,3.57-10.2,8.55-14.07,14.05-2.4,3.41-4.21,7.1-5.67,10.99-.58,1.53-.81,3.29-2.29,4.36.34-8.15.96-16.24,4.33-23.84,4.47-10.08,13.41-14.61,23.49-13.62,2.32.23,4.52.94,6.22,2.7-2.89.98-5.74,2.03-8.44,3.47-1.79-.51-2.71.63-3.57,1.89Z"/>
  <path class="cls-4" d="m163.86,505.2c2.7-1.44,5.56-2.49,8.44-3.47,3.48,1.91,6.13,4.68,8.76,8.22-5.77.32-11.11.28-16.64.11,0-1.75.86-3.49-.57-4.86Z"/>
</svg>