<?xml version="1.0" encoding="UTF-8"?>
<svg id="_图层_1" data-name="图层 1" xmlns="http://www.w3.org/2000/svg" viewBox="0 0 960 960">
  <defs>
    <style>
      .cls-1 {
        fill: #f7b9a0;
      }

      .cls-1, .cls-2, .cls-3, .cls-4, .cls-5, .cls-6, .cls-7, .cls-8 {
        stroke-width: 0px;
      }

      .cls-3 {
        fill: #b16b1f;
      }

      .cls-4 {
        fill: #fff;
      }

      .cls-5 {
        fill: #454795;
      }

      .cls-6 {
        fill: #ffd741;
      }

      .cls-7 {
        fill: #a96861;
      }

      .cls-8 {
        fill: #5a7dff;
      }
    </style>
  </defs>
  <path class="cls-2" d="m723.72,474.76c1.08-1.74,1.48-1.93,3.24-1.49,1.09.27,2.12.72,3.09,1.28,10.92,6.32,17.04,15.91,18.83,28.25,1.6,11.01-2.4,20.23-9.79,28.18-1.91,2.05-4.06,3.86-6.44,5.35-.98.62-1.21,1.28-1,2.37,2.4,12.28,2.23,24.64,1.08,37.01-.12,1.24.36,1.77,1.32,2.42,6.8,4.65,12.33,10.42,15.08,18.39,2.97,8.6,1.79,16.7-3.25,24.23-3.58,5.36-8.41,9.39-14.05,12.42-1.42.76-1.78,1.59-1.76,3.17.09,9.38-1.02,18.65-2.95,27.83-.84,3.99-1.73,7.96-3.14,11.79-1,2.72-2.32,5.26-4.31,7.4-3.69,3.98-7.86,4.34-12.11,1.02-2.94-2.3-5.17-5.2-7.06-8.39-.4-.67-.63-1.45-1.25-1.99-.78.38-1.1,1.16-1.58,1.78-5.36,6.92-11.43,13.14-18.27,18.61-2.31,1.85-4.74,3.54-7.4,4.86-1.65.82-3.35,1.48-5.18,1.81-5.07.9-9.4-1.11-11.91-5.6-1.43-2.56-2.11-5.35-2.39-8.23-.3-3.18-.43-6.38-.31-9.58.25-6.55.45-13.1.64-19.65.04-1.33.13-2.67-.24-4.18-3.37,1.26-6.59,2.37-9.74,3.66-6.03,2.46-12.23,4.17-18.71,4.87-1.99.22-3.99.35-5.98.17-5.8-.5-9-4.9-7.69-10.57.71-3.07,2.17-5.83,3.77-8.51,3.04-5.09,6.67-9.76,10.51-14.27q1.52-1.79-.36-3.32c-4.05-3.31-7.63-7.04-10.38-11.52-6.76-11.02-6.18-22.42,1.77-32.58,6.22-7.93,14.55-12.82,23.92-16.09,3.01-1.05,6.06-2.07,9.31-2.08,1.12,0,1.25-.79,1.53-1.51,1.59-4.02,2.59-8.22,3.62-12.41,1.32-5.38,1.73-10.88,2.14-16.38.08-1.12-.18-1.62-1.38-1.6-1.44.03-2.86-.24-4.26-.62-7.75-2.12-11.66-8.4-10.08-16.27.36-1.8.91-3.56,1.73-5.22,2.92-5.93,7.19-10.72,12.46-14.65,1.46-1.08,3.02-1.86,4.87-.83,1.37,1.6,1.37,2.87-.32,4.72-1.88,2.06-3.75,4.13-5.39,6.39-2.02,2.79-3.78,5.71-4.45,9.17-.89,4.61,1.03,6.66,5.71,6.14,2.64-.29,5.22-.79,7.59-1.97,5.07-2.52,9.38-1.59,13.07,2.63.73.84,1.58,1.58,2.38,2.35,7.4,6.33,15.85,9.96,25.68,10.27,6.3.2,12.45-.35,18.22-3.1,11.05-5.26,18.07-13.61,18.81-26.16.43-7.27-2.54-13.53-7.42-18.87-.97-1.06-2.02-2.04-3.04-3.05-1.58-1.82-3.57-3.15-5.4-4.66-1.01-.83-1.93-1.72-1.39-3.23Z"/>
  <path class="cls-8" d="m677.86,523.93c-1.35-.88-2.34-2.15-3.46-3.28-2.81-2.85-6.01-3.7-9.79-2.08-3.08,1.32-6.22,2.42-9.62,2.67-5.18.39-7.33-2.04-6.13-7.06,1.01-4.21,3.22-7.78,5.92-11.06,1.37-1.66,2.86-3.21,4.27-4.83,1.09-1.24,1.52-2.6.59-4.14,13.19-9.57,27.44-16.9,43.5-20.32,6.18-1.32,12.36-1.32,18.47.54.67.2,1.39.27,2.09.4.19,1.46,1.22,2.32,2.25,3.17,1.64,1.34,3.39,2.57,4.83,4.14.32.84.38,1.68.11,2.57-2.72,8.92-6.26,17.43-11.95,24.92-6.87,9.04-15.73,14.9-27.04,16.59-4.84.72-9.75.9-14.06-2.23Z"/>
  <path class="cls-1" d="m725.81,557.03c.28,5.68-.26,11.33-.69,16.98-.39,5.18-1.14,10.32-2.04,15.43-.18,1.02-.29,2.08-.19,3.1.11,1.06-.32,1.37-1.24,1.58-3.19.75-6.43,1.24-9.68,1.64-19.17,2.37-37.92.09-56.39-5.19-2.23-.64-4.38-1.5-6.45-2.54-.85-.43-1.75-.79-2.38-1.46,8.95-14.23,14.85-29.46,15.86-46.37.2-1.01.78-1.5,1.85-1.36.71.1,1.46.24,2.14-.02,3.32-1.24,5.86-.15,8.42,2.14,6.43,5.75,13.84,10.04,21.91,12.96,7.93,2.87,16.21,4.06,24.7,3.05,1.37-.16,2.81-.73,4.19.05Z"/>
  <path class="cls-1" d="m724.02,645.33c-.95,9.48-2.66,18.81-5.73,27.85-.7,2.05-1.62,4-3.07,5.65-1.65,1.88-2.32,1.93-4.12.28-2.07-1.9-3.8-4.11-5.37-6.43-.98-1.44-2.89-2.61-2.88-4.23,0-1.48,1.46-2.93,2.19-4.44,1.54-3.16,3.03-6.34,4.52-9.52.44-.94.8-1.92.61-3-.1-.58-.36-1.07-.98-1.23-.66-.16-1.06.23-1.34.75-3.14,5.95-7.05,11.41-10.82,16.95-5.98,8.79-13.51,16.16-21.87,22.69-1.76,1.38-3.68,2.54-5.71,3.5-.72.34-1.46.66-2.23.88-3.48.98-5.59-.19-6.55-3.66-.69-2.48-.82-5.05-.83-7.6-.01-3.52.01-7.03.16-10.55.22-5.52.02-11.03-.34-16.53-.15-2.33-.62-4.59-1.84-6.63-1.02-1.72-2.44-2.62-4.53-2.52-2.03.09-3.92.56-5.8,1.3-5.49,2.18-10.97,4.41-16.75,5.74-3.2.74-6.43,1.22-9.72,1.25-.64,0-1.28-.03-1.91-.13-.95-.15-1.42-.71-1.14-1.69.29-.99.59-1.99.99-2.95,1.71-4.15,3.88-8.06,6.24-11.86,1.31-2.1,2.59-4.22,3.89-6.33.82-.17,1.4.3,1.89.81,1.94,2.02,4.46,3.01,6.95,4.1,9.33,4.08,18.94,7.16,29.09,8.43,11.36,1.42,22.71,1.9,34.06-.06,6.91-1.19,13.9-1.96,20.7-3.8,2.4-.65,2.59-.34,2.22,2.99Z"/>
  <path class="cls-6" d="m669.64,637.19c-3.84-.53-7.66-1.16-11.36-2.4,2.04-3.33,1.03-6.26-.86-9.34-4.13-6.75-8.48-13.34-13.26-19.64-1.41-1.86-3.06-3.47-4.82-4.98-2.67-2.29-5.61-2.42-8.74-1.19-.6.23-1.16.54-1.74.8-3.93,1.78-5.87.66-6.92-3.45-1.32-5.16.46-9.09,4.3-12.27,1.79-1.48,3.18-3.12,3.82-5.35.25-.87.77-1.57,1.38-2.21,4.62-3.05,9.8-4.85,14.84-6.81.65.59.15.99-.02,1.35-1.19,2.44-2.43,4.85-3.63,7.28-.32.64-.57.87-1.43.71-1.8-.33-2.62.52-2.67,2.39-.05,1.78.75,3.24,1.83,4.56,1.59,1.95,3.64,3.33,5.8,4.56,5.23,3,10.86,4.98,16.65,6.53,8.04,2.15,16.26,3.22,24.54,3.89,6.45.53,12.92.43,19.38.5.45.62.19,1.24-.08,1.82-6.65,14.44-16.02,26.28-31.17,32.58-1.86.77-3.83,1.1-5.85.67Z"/>
  <path class="cls-3" d="m669.64,637.19c4.85-.08,8.83-2.48,12.77-4.87,7.51-4.54,13.34-10.78,17.99-18.19,2.42-3.84,4.98-7.6,6.33-12,6.56-.26,13.06-.89,19.37-2.86,2.45-.77,4.81-1.73,6.95-3.18.4-.27.8-.53,1.17-.84,1.35-1.14,1.81-2.59,1.24-3.79-.63-1.31-1.6-1.63-3.7-1.2-.22.05-.43.2-.72-.05-.18-.56.05-1.2.22-1.76.46-1.53.24-3.19.86-4.67.85-.06,1.19.57,1.61.98,2.98,2.92,5.7,6.05,7.73,9.73,5.2,9.41,3.54,18.06-3.14,25.65-5.12,5.82-11.58,9.75-18.72,12.62-7.92,3.18-16.16,4.86-24.68,5.48-8.1.59-16.12.07-24.17-.64-.4-.04-.79-.12-1.11-.39Z"/>
  <path class="cls-5" d="m677.86,523.93c.16.01.34-.02.47.04,5.73,2.75,11.58,2.21,17.5.75,7.08-1.74,13.11-5.29,18.19-10.44,3.47-3.52,6.45-7.47,8.88-11.79,3.3-5.86,5.63-12.12,7.58-18.54.18-.6.22-1.25.33-1.88,4.4,3.97,7.96,8.5,9.66,14.29,2.68,9.14.75,17.5-5,24.8-7.05,8.96-16.63,13.06-27.97,13.4-10.59.31-19.97-2.82-28.29-9.3-.5-.39-1.07-.72-1.34-1.33Z"/>
  <path class="cls-4" d="m631.44,577.16c-.28.83-.63,1.65-.81,2.5-.45,2.06-1.64,3.62-3.24,4.89-1.01.8-1.77,1.84-2.7,2.7-2.59,2.4-3,5.28-2.3,8.52.13.62.24,1.25.35,1.88.42,2.45,2,3.52,4.4,2.84.91-.26,1.76-.75,2.62-1.17,1.61-.79,3.28-1.18,5.09-1.09,1.58.07,2.89.58,4.17,1.53,4.02,2.95,6.74,7.02,9.58,10.97,3.78,5.25,7.29,10.69,10.48,16.34,1.84,3.25,1.6,5.57-.79,7.71-11.7-2.85-22.54-7.48-31.8-15.37-3.12-2.66-5.8-5.73-7.76-9.36-4.49-8.3-3.85-16.29,1.79-23.78,2.91-3.86,6.59-6.92,10.93-9.12Z"/>
  <path class="cls-7" d="m725.81,557.03c-4.96.92-9.92,1.22-14.97.59-3.72-.46-7.4-1.06-11.03-1.98-1.56-.39-3.06-.92-4.51-1.57-6.48-2.91-12.87-6-18.34-10.68-1.63-1.4-3.52-2.49-5-4.07-.64-.68-1.4-.65-2.21-.47-1.93.43-3.81,1.22-5.85.51-.7-.24-.89.51-1.29.85.14-2.7.3-5.41.42-8.11.04-.84.37-1.36,1.22-1.51.08-.01.15-.04.23-.06,1.47-.35,2.88-1.49,4.31-1.19,1.34.28,2.11,1.85,3.16,2.82,7.2,6.69,15.78,10.42,25.41,11.89,8.96,1.37,17.66.33,26.12-2.9.36-.14.72-.36,1.36-.17.56,5.28,1.34,10.62.98,16.05Z"/>
  <path class="cls-7" d="m724.02,645.33c-.07-.86-.13-1.73-.21-2.75-2.81.51-5.43,1.42-8.16,1.88-5.97,1.01-11.94,1.98-17.94,2.82-5.48.77-10.97,1.05-16.48.8-6.61-.3-13.18-.98-19.72-2.05-9.08-1.48-17.43-5.07-25.88-8.42-2.61-1.03-4.59-2.85-6.54-4.75.41-.76.81-1.53,1.23-2.31,30.31,16.47,61.59,17.62,93.99,6.68-.08,2.78.48,5.44-.31,8.09Z"/>
</svg>