<?xml version="1.0" encoding="UTF-8"?>
<svg id="_图层_1" data-name="图层 1" xmlns="http://www.w3.org/2000/svg" viewBox="0 0 960 960">
  <defs>
    <style>
      .cls-1 {
        fill: #f7b9a0;
      }

      .cls-1, .cls-2, .cls-3, .cls-4, .cls-5, .cls-6, .cls-7, .cls-8, .cls-9 {
        stroke-width: 0px;
      }

      .cls-3 {
        fill: #f6b89f;
      }

      .cls-4 {
        fill: #b16b1f;
      }

      .cls-5 {
        fill: #fff;
      }

      .cls-6 {
        fill: #454795;
      }

      .cls-7 {
        fill: #ffd741;
      }

      .cls-8 {
        fill: #a96861;
      }

      .cls-9 {
        fill: #5a7dff;
      }
    </style>
  </defs>
  <path class="cls-2" d="m317.65,529.6c1.79,1.3,2.1,3.06,1.67,5.11-.5,2.38-1.49,4.56-2.63,6.66-5.54,10.16-13.39,17.69-24.73,20.94-11.05,3.16-21.06.89-29.74-6.62-1.56-1.35-2.68-1.34-4.35-.57-14.47,6.58-29.55,11.68-44.1,18.06-1.53.67-3.34,1.06-4.52,2.13-1.22,1.11-.84,3.12-1.19,4.72-.98,4.47-2.28,8.81-4.55,12.82-5,8.83-12.41,14.01-22.64,14.82-5.3.42-10.3-.93-15.15-2.94-3.12-1.29-6.04-2.95-8.74-4.95-1.05-.78-1.64-.63-2.57.26-4.78,4.6-10.35,8-16.59,10.27-7.08,2.57-14.13,2.3-21.07-.44-1.27-.5-2.16-.38-3.32.18-6.06,2.91-12.45,4.53-19.19,4.58-8.45.06-13.8-4.84-14.64-13.27-.03-.32-.07-.64-.07-.96-.1-8.49.49-16.93,2-25.29.27-1.48.97-2.87,1-4.58-2.37,0-4.67-.01-6.97,0-5.6.04-11.19.04-16.77-.56-4.33-.47-8.5-1.41-12.25-3.78-6-3.81-7.18-9.84-2.99-15.61,2.29-3.15,5.28-5.54,8.57-7.58,2.45-1.52,5.06-2.71,7.69-3.88,16.49-7.32,33.53-12.85,51.31-16.04,3.22-.58,6.47-1.11,9.75-1.22,1.35-.04,1.89-.44,2.08-1.9.64-5.1,1.97-10.03,4.21-14.68,2.25-4.68,5.22-8.8,9.39-11.96,7.44-5.65,15.72-6.67,24.55-4.22,7.81,2.17,14.36,6.49,20.18,12.01,1.37,2.95,3.44,2.21,5.85,1.38,14.9-5.13,30.19-8.81,45.69-11.56,1.45-.26,1.79-.74,1.76-2.13-.07-4.07,1.37-7.66,3.88-10.84,8-10.14,21.85-11,31.01-5.9,1.77.99,3.29,2.27,4.21,4.14.06.08.12.16.17.24v.02c.27,2.02-.55,2.95-2.52,2.82-1.22-.08-2.3-.64-3.42-1.04-5.65-2.02-11.15-1.72-16.4,1.25-2.26,1.28-4.15,3.04-5.25,5.42-1.98,4.27-.09,9.42,4.35,12.14.95.58,1.98,1.04,2.97,1.55,4.68,2.39,5.39,3.93,4.23,9-.71,3.11-1.42,6.23-1.47,9.45-1.11,13.34,2.17,25.14,13.03,33.7,9.36,7.38,21.26,6.64,30.39-1.01,4.39-3.67,7.54-8.17,10.08-13.21,1.03-1.96,1.86-4.03,3.28-5.77,1.21-1.48,2.62-2.31,4.53-1.18Z"/>
  <path class="cls-2" d="m723.72,474.76c1.08-1.74,1.48-1.93,3.24-1.49,1.09.27,2.12.72,3.09,1.28,10.92,6.32,17.04,15.91,18.83,28.25,1.6,11.01-2.4,20.23-9.79,28.18-1.91,2.05-4.06,3.86-6.44,5.35-.98.62-1.21,1.28-1,2.37,2.4,12.28,2.23,24.64,1.08,37.01-.12,1.24.36,1.77,1.32,2.42,6.8,4.65,12.33,10.42,15.08,18.39,2.97,8.6,1.79,16.7-3.25,24.23-3.58,5.36-8.41,9.39-14.05,12.42-1.42.76-1.78,1.59-1.76,3.17.09,9.38-1.02,18.65-2.95,27.83-.84,3.99-1.73,7.96-3.14,11.79-1,2.72-2.32,5.26-4.31,7.4-3.69,3.98-7.86,4.34-12.11,1.02-2.94-2.3-5.17-5.2-7.06-8.39-.4-.67-.63-1.45-1.25-1.99-.78.38-1.1,1.16-1.58,1.78-5.36,6.92-11.43,13.14-18.27,18.61-2.31,1.85-4.74,3.54-7.4,4.86-1.65.82-3.35,1.48-5.18,1.81-5.07.9-9.4-1.11-11.91-5.6-1.43-2.56-2.11-5.35-2.39-8.23-.3-3.18-.43-6.38-.31-9.58.25-6.55.45-13.1.64-19.65.04-1.33.13-2.67-.24-4.18-3.37,1.26-6.59,2.37-9.74,3.66-6.03,2.46-12.23,4.17-18.71,4.87-1.99.22-3.99.35-5.98.17-5.8-.5-9-4.9-7.69-10.57.71-3.07,2.17-5.83,3.77-8.51,3.04-5.09,6.67-9.76,10.51-14.27q1.52-1.79-.36-3.32c-4.05-3.31-7.63-7.04-10.38-11.52-6.76-11.02-6.18-22.42,1.77-32.58,6.22-7.93,14.55-12.82,23.92-16.09,3.01-1.05,6.06-2.07,9.31-2.08,1.12,0,1.25-.79,1.53-1.51,1.59-4.02,2.59-8.22,3.62-12.41,1.32-5.38,1.73-10.88,2.14-16.38.08-1.12-.18-1.62-1.38-1.6-1.44.03-2.86-.24-4.26-.62-7.75-2.12-11.66-8.4-10.08-16.27.36-1.8.91-3.56,1.73-5.22,2.92-5.93,7.19-10.72,12.46-14.65,1.46-1.08,3.02-1.86,4.87-.83,1.37,1.6,1.37,2.87-.32,4.72-1.88,2.06-3.75,4.13-5.39,6.39-2.02,2.79-3.78,5.71-4.45,9.17-.89,4.61,1.03,6.66,5.71,6.14,2.64-.29,5.22-.79,7.59-1.97,5.07-2.52,9.38-1.59,13.07,2.63.73.84,1.58,1.58,2.38,2.35,7.4,6.33,15.85,9.96,25.68,10.27,6.3.2,12.45-.35,18.22-3.1,11.05-5.26,18.07-13.61,18.81-26.16.43-7.27-2.54-13.53-7.42-18.87-.97-1.06-2.02-2.04-3.04-3.05-1.58-1.82-3.57-3.15-5.4-4.66-1.01-.83-1.93-1.72-1.39-3.23Z"/>
  <path class="cls-9" d="m317.65,529.6c-2.31-.44-3.73.71-4.84,2.59-.89,1.5-1.36,3.22-2.44,4.62-.63.51-1.35.83-2.15.99-7.85,1.51-15.64,1.63-23.36-.85-8.81-2.83-16.79-7.22-24.26-12.63-2.52-1.82-4.01-4.24-4.82-7.16-.25-2.84.62-5.53,1.1-8.26.17-.94.48-1.85.67-2.79.67-3.19.09-4.51-2.73-6.13-1.03-.59-2.13-1.08-3.21-1.59-1.99-.94-3.65-2.27-4.91-4.08-2.93-4.19-2.67-9.09,1.02-12.64,5.39-5.19,11.83-6.59,19.01-4.53,1.22.35,2.39.88,3.6,1.29,2.25.76,2.87.41,3.56-1.96,4.18,1.46,8.05,3.57,11.61,6.12,7.95,5.72,15.15,12.28,20.86,20.29,3.9,5.46,7.62,11.06,9.6,17.59.9,2.98,1.79,5.97,1.7,9.13Z"/>
  <path class="cls-9" d="m677.86,523.93c-1.35-.88-2.34-2.15-3.46-3.28-2.81-2.85-6.01-3.7-9.79-2.08-3.08,1.32-6.22,2.42-9.62,2.67-5.18.39-7.33-2.04-6.13-7.06,1.01-4.21,3.22-7.78,5.92-11.06,1.37-1.66,2.86-3.21,4.27-4.83,1.09-1.24,1.52-2.6.59-4.14,13.19-9.57,27.44-16.9,43.5-20.32,6.18-1.32,12.36-1.32,18.47.54.67.2,1.39.27,2.09.4.19,1.46,1.22,2.32,2.25,3.17,1.64,1.34,3.39,2.57,4.83,4.14.32.84.38,1.68.11,2.57-2.72,8.92-6.26,17.43-11.95,24.92-6.87,9.04-15.73,14.9-27.04,16.59-4.84.72-9.75.9-14.06-2.23Z"/>
  <polygon class="cls-9" points="273.86 476.46 273.65 476.41 273.68 476.21 273.87 476.24 273.86 476.46"/>
  <path class="cls-1" d="m181.24,553.23c-5.62-9.05-9.59-18.74-11.38-29.28-.35-2.05-.55-4.12-.87-6.17-.16-1.04.03-1.63,1.23-1.78,1.59-.2,3.07-.86,4.54-1.49,13.35-5.64,27.22-9.68,41.28-13.08,6.05-1.46,12.11-2.92,18.02-4.93,1.86-.63,1.89-.62,2.83.91,2.47,4,6.14,6.41,10.48,7.95,1.77.63,1.76.65,1.39,2.28-2.05,8.9-1.86,17.75.44,26.58.14.54.22,1.09.32,1.64-.09,4.58-2.63,8.1-6.79,9.63-7.93,2.91-15.58,6.52-23.63,9.17-11.6,3.82-23.18,3.75-34.83.39-1.19-.34-2.17-.98-3.02-1.83Z"/>
  <path class="cls-1" d="m108.92,578.59c0,.24-.06.49,0,.72.34,1.68,1.19,2.09,2.45,1.03,1.36-1.14,2.82-2.11,4.43-2.82,3.25-1.43,5.75-.12,5.92,3.38.3,6.32-1.33,12.19-4.82,17.49-.89,1.36-2.24,2.28-3.59,3.13-5.76,3.61-12.1,5.36-18.84,5.67-4.53.21-6.38-1.37-7.34-5.82-.15-.7-.27-1.42-.28-2.13-.14-6.96-.02-13.91.94-20.82.47-3.41,1.48-6.7,2.32-10.03.62-2.46.07-3.47-2.41-4.29-1.94-.64-3.94-.63-5.94-.56-6.4.21-12.79.29-19.17-.32-3.02-.29-6.06-.46-8.99-1.38-1.54-.48-3.01-1.09-4.33-2.02-1.41-.98-1.74-2.18-1.09-3.76.5-1.2,1.34-2.17,2.26-3.07,2.81-2.8,6.1-4.9,9.66-6.58,11.52-5.45,23.49-9.64,35.81-12.82,8.27-2.13,16.53-4.36,25-5.61.39-.06.77-.2,1.37.12-.27,7.27.75,14.52,2.51,21.68.61,1.4-.34,1.75-1.37,2.22-8.83,4.08-13.98,11.03-16.01,20.48-.51,2.39.69,4.15,1.51,6.11Z"/>
  <path class="cls-7" d="m165.64,497.7c4.38,1.95,8.26,4.63,12,8.03-2.69,1.26-5.15,2.28-7.78,2.9-.91.22-1.35.05-1.45-.93-.05-.46-.21-.94-.43-1.35-.87-1.61-2.77-1.81-3.96-.42-.85,1-1.17,2.25-1.39,3.52-.84,4.85-.51,9.71.25,14.52,1.27,8.06,3.51,15.86,6.59,23.41-.28,1.32-1.41,1.09-2.28,1.17-6.98.59-13.81-.42-20.57-2.06-4.18-1.02-8.32-2.18-12.38-3.6-1.29-.45-2.53-.98-3.34-2.17-.99-3.95-1.1-7.99-1.21-12.03-.04-1.49-.27-3.01.19-4.48,1.6-2.06,2.55-4.49,3.85-6.72,3.05-5.27,6.41-10.29,11.36-14.03,3.93-2.98,8.27-4.86,13.28-4.61,2.54.13,4.86-.73,7.28-1.15Z"/>
  <path class="cls-4" d="m160.27,592.97c-5.94-4.14-10.99-9.17-15.1-15.13-5.72-8.28-9.79-17.31-12.27-27.07.89-.29,1.53.28,2.19.68,8.98,5.39,18.69,8.06,29.18,7.75,3.52-.1,6.97-.66,10.36-1.63,3.18,5.26,6.86,10.13,11.35,14.36,2.69,2.53,5.68,4.6,8.86,6.46,1.33.78,2.85.88,4.18,1.57-8.36,7.05-18.09,11.06-28.79,12.89-3.31.57-6.64.32-9.97.11Z"/>
  <path class="cls-6" d="m255.77,517.16c.12.11.28.19.34.32,1.97,4.69,5.91,7.38,10.03,9.88,5.88,3.56,11.92,6.8,18.52,8.85,5.69,1.77,11.47,2.44,17.45,1.75,2.77-.32,5.5-.86,8.27-1.14-3.08,6.79-7.68,12.27-14.07,16.16-9.43,5.75-21.26,4.34-29.58-3.5-5.79-5.45-9.11-12.24-10.49-19.98-.72-4.07-1.41-8.18-.46-12.34Z"/>
  <path class="cls-8" d="m108.92,578.59c-2.07-1.58-2.56-3.62-2.1-6.14,1.55-8.52,6.25-14.86,13.33-19.58,1.06-.7,2.2-1.37,3.47-1.58.98-.16,1.08-.77,1.17-1.5,1.09,3.65,2.24,7.28,3.66,10.83,4.71,11.76,11.37,22.28,19.92,31.62.42.46.98.83,1.14,1.62-1.96,1.64-3.92,3.37-6.15,4.78-5.96.55-11.46-.94-16.66-3.75.91-3.47,1.53-6.98,1.64-10.57.08-2.48-.13-4.92-.94-7.29-1.6-4.71-7.24-7.51-12.02-4.32-2.47,1.65-4.86,3.32-6.47,5.88Z"/>
  <path class="cls-8" d="m181.24,553.23c4.28,1.9,8.89,2.48,13.43,3.26,7.87,1.34,15.58.13,23.12-2.14,7.34-2.21,14.39-5.21,21.42-8.27,1.24-.54,2.52-1.04,3.82-1.38,1.74-.46,2.88-1.52,3.89-2.96,1.26-1.81,1.86-3.86,2.6-5.86,1.81,4.5,3.56,9.04,6.46,13.01-.68.65-1.41.68-2.06.9-9.41,3.3-19.11,5.75-28.3,9.66-7.56,3.22-15.16,6.36-22.61,9.85-1.37.64-2.83,1.19-3.93,2.25-1.08,1.04-1.88.72-2.87-.11-2.33-1.96-4.53-4.04-6.54-6.32-3.21-3.67-6.13-7.55-8.42-11.87Z"/>
  <path class="cls-7" d="m160.27,592.97c.5-.8,1.28-.49,1.95-.46,11.3.47,21.41-3.17,30.89-8.97,1.22-.75,2.5-1.45,3.39-2.61.68-.89,1.56-.99,2.53-.97,2.93,1.7,2.92,1.7,1.67,4.72-.79,1.92-1.73,3.77-2.87,5.5-6.01,9.11-14.61,12.3-25.1,9.25-4.57-1.33-8.68-3.59-12.46-6.46Z"/>
  <path class="cls-7" d="m174.64,557.58c-.11,1.07-.99,1.14-1.75,1.28-6.49,1.16-12.94,1.35-19.5.21-6.98-1.21-13.28-3.93-19.31-7.45-.41-.24-.78-.56-1.16-.84-.34-1.44-.68-2.87-1.02-4.31.76-1.48,1.78-.42,2.58-.16,4.46,1.49,8.87,3.14,13.39,4.48,7.12,2.1,14.34,2.96,21.74,2.12.85-.1,1.75-.39,2.53.27.84,1.47,1.67,2.94,2.51,4.4Z"/>
  <path class="cls-5" d="m165.64,497.7c-1.51,1.41-3.43,1.56-5.34,1.66-1.75.1-3.5-.05-5.24.26-5.67,1-10.1,4.09-13.88,8.27-3.99,4.41-6.87,9.54-9.55,14.8-.42.81-.85,1.62-1.37,2.63-.19-.54-.28-.82-.38-1.1.37-6.8,1.97-13.26,5.58-19.09,3.6-5.81,8.69-9.53,15.61-10.3,5.13-.57,10,.5,14.57,2.88Z"/>
  <path class="cls-4" d="m172.13,553.17c-8.47,1.53-16.76.59-24.93-1.89-4.57-1.39-9.1-2.89-13.54-4.64-.54-.21-1.12-.71-1.77-.19-.52-1.88-.98-3.77-.99-5.74,5.94,2.81,12.3,4.22,18.64,5.71,3.95.93,7.95,1.45,12.02,1.57,2.06.06,4.11-.02,6.16-.07.63-.02,1.29.05,1.75-.54.89,1.93,1.77,3.86,2.66,5.78Z"/>
  <path class="cls-3" d="m126.7,594.89c.45-.24.85-.26,1.34,0,4.46,2.31,9.26,3.24,14.25,3.35.41,0,.79.09,1.08.41-6.28,4.44-13.11,6.66-21.2,5.37,2.16-2.91,3.52-5.94,4.54-9.12Z"/>
  <path class="cls-1" d="m725.81,557.03c.28,5.68-.26,11.33-.69,16.98-.39,5.18-1.14,10.32-2.04,15.43-.18,1.02-.29,2.08-.19,3.1.11,1.06-.32,1.37-1.24,1.58-3.19.75-6.43,1.24-9.68,1.64-19.17,2.37-37.92.09-56.39-5.19-2.23-.64-4.38-1.5-6.45-2.54-.85-.43-1.75-.79-2.38-1.46,8.95-14.23,14.85-29.46,15.86-46.37.2-1.01.78-1.5,1.85-1.36.71.1,1.46.24,2.14-.02,3.32-1.24,5.86-.15,8.42,2.14,6.43,5.75,13.84,10.04,21.91,12.96,7.93,2.87,16.21,4.06,24.7,3.05,1.37-.16,2.81-.73,4.19.05Z"/>
  <path class="cls-1" d="m724.02,645.33c-.95,9.48-2.66,18.81-5.73,27.85-.7,2.05-1.62,4-3.07,5.65-1.65,1.88-2.32,1.93-4.12.28-2.07-1.9-3.8-4.11-5.37-6.43-.98-1.44-2.89-2.61-2.88-4.23,0-1.48,1.46-2.93,2.19-4.44,1.54-3.16,3.03-6.34,4.52-9.52.44-.94.8-1.92.61-3-.1-.58-.36-1.07-.98-1.23-.66-.16-1.06.23-1.34.75-3.14,5.95-7.05,11.41-10.82,16.95-5.98,8.79-13.51,16.16-21.87,22.69-1.76,1.38-3.68,2.54-5.71,3.5-.72.34-1.46.66-2.23.88-3.48.98-5.59-.19-6.55-3.66-.69-2.48-.82-5.05-.83-7.6-.01-3.52.01-7.03.16-10.55.22-5.52.02-11.03-.34-16.53-.15-2.33-.62-4.59-1.84-6.63-1.02-1.72-2.44-2.62-4.53-2.52-2.03.09-3.92.56-5.8,1.3-5.49,2.18-10.97,4.41-16.75,5.74-3.2.74-6.43,1.22-9.72,1.25-.64,0-1.28-.03-1.91-.13-.95-.15-1.42-.71-1.14-1.69.29-.99.59-1.99.99-2.95,1.71-4.15,3.88-8.06,6.24-11.86,1.31-2.1,2.59-4.22,3.89-6.33.82-.17,1.4.3,1.89.81,1.94,2.02,4.46,3.01,6.95,4.1,9.33,4.08,18.94,7.16,29.09,8.43,11.36,1.42,22.71,1.9,34.06-.06,6.91-1.19,13.9-1.96,20.7-3.8,2.4-.65,2.59-.34,2.22,2.99Z"/>
  <path class="cls-7" d="m669.64,637.19c-3.84-.53-7.66-1.16-11.36-2.4,2.04-3.33,1.03-6.26-.86-9.34-4.13-6.75-8.48-13.34-13.26-19.64-1.41-1.86-3.06-3.47-4.82-4.98-2.67-2.29-5.61-2.42-8.74-1.19-.6.23-1.16.54-1.74.8-3.93,1.78-5.87.66-6.92-3.45-1.32-5.16.46-9.09,4.3-12.27,1.79-1.48,3.18-3.12,3.82-5.35.25-.87.77-1.57,1.38-2.21,4.62-3.05,9.8-4.85,14.84-6.81.65.59.15.99-.02,1.35-1.19,2.44-2.43,4.85-3.63,7.28-.32.64-.57.87-1.43.71-1.8-.33-2.62.52-2.67,2.39-.05,1.78.75,3.24,1.83,4.56,1.59,1.95,3.64,3.33,5.8,4.56,5.23,3,10.86,4.98,16.65,6.53,8.04,2.15,16.26,3.22,24.54,3.89,6.45.53,12.92.43,19.38.5.45.62.19,1.24-.08,1.82-6.65,14.44-16.02,26.28-31.17,32.58-1.86.77-3.83,1.1-5.85.67Z"/>
  <path class="cls-4" d="m669.64,637.19c4.85-.08,8.83-2.48,12.77-4.87,7.51-4.54,13.34-10.78,17.99-18.19,2.42-3.84,4.98-7.6,6.33-12,6.56-.26,13.06-.89,19.37-2.86,2.45-.77,4.81-1.73,6.95-3.18.4-.27.8-.53,1.17-.84,1.35-1.14,1.81-2.59,1.24-3.79-.63-1.31-1.6-1.63-3.7-1.2-.22.05-.43.2-.72-.05-.18-.56.05-1.2.22-1.76.46-1.53.24-3.19.86-4.67.85-.06,1.19.57,1.61.98,2.98,2.92,5.7,6.05,7.73,9.73,5.2,9.41,3.54,18.06-3.14,25.65-5.12,5.82-11.58,9.75-18.72,12.62-7.92,3.18-16.16,4.86-24.68,5.48-8.1.59-16.12.07-24.17-.64-.4-.04-.79-.12-1.11-.39Z"/>
  <path class="cls-6" d="m677.86,523.93c.16.01.34-.02.47.04,5.73,2.75,11.58,2.21,17.5.75,7.08-1.74,13.11-5.29,18.19-10.44,3.47-3.52,6.45-7.47,8.88-11.79,3.3-5.86,5.63-12.12,7.58-18.54.18-.6.22-1.25.33-1.88,4.4,3.97,7.96,8.5,9.66,14.29,2.68,9.14.75,17.5-5,24.8-7.05,8.96-16.63,13.06-27.97,13.4-10.59.31-19.97-2.82-28.29-9.3-.5-.39-1.07-.72-1.34-1.33Z"/>
  <path class="cls-5" d="m631.44,577.16c-.28.83-.63,1.65-.81,2.5-.45,2.06-1.64,3.62-3.24,4.89-1.01.8-1.77,1.84-2.7,2.7-2.59,2.4-3,5.28-2.3,8.52.13.62.24,1.25.35,1.88.42,2.45,2,3.52,4.4,2.84.91-.26,1.76-.75,2.62-1.17,1.61-.79,3.28-1.18,5.09-1.09,1.58.07,2.89.58,4.17,1.53,4.02,2.95,6.74,7.02,9.58,10.97,3.78,5.25,7.29,10.69,10.48,16.34,1.84,3.25,1.6,5.57-.79,7.71-11.7-2.85-22.54-7.48-31.8-15.37-3.12-2.66-5.8-5.73-7.76-9.36-4.49-8.3-3.85-16.29,1.79-23.78,2.91-3.86,6.59-6.92,10.93-9.12Z"/>
  <path class="cls-8" d="m725.81,557.03c-4.96.92-9.92,1.22-14.97.59-3.72-.46-7.4-1.06-11.03-1.98-1.56-.39-3.06-.92-4.51-1.57-6.48-2.91-12.87-6-18.34-10.68-1.63-1.4-3.52-2.49-5-4.07-.64-.68-1.4-.65-2.21-.47-1.93.43-3.81,1.22-5.85.51-.7-.24-.89.51-1.29.85.14-2.7.3-5.41.42-8.11.04-.84.37-1.36,1.22-1.51.08-.01.15-.04.23-.06,1.47-.35,2.88-1.49,4.31-1.19,1.34.28,2.11,1.85,3.16,2.82,7.2,6.69,15.78,10.42,25.41,11.89,8.96,1.37,17.66.33,26.12-2.9.36-.14.72-.36,1.36-.17.56,5.28,1.34,10.62.98,16.05Z"/>
  <path class="cls-8" d="m724.02,645.33c-.07-.86-.13-1.73-.21-2.75-2.81.51-5.43,1.42-8.16,1.88-5.97,1.01-11.94,1.98-17.94,2.82-5.48.77-10.97,1.05-16.48.8-6.61-.3-13.18-.98-19.72-2.05-9.08-1.48-17.43-5.07-25.88-8.42-2.61-1.03-4.59-2.85-6.54-4.75.41-.76.81-1.53,1.23-2.31,30.31,16.47,61.59,17.62,93.99,6.68-.08,2.78.48,5.44-.31,8.09Z"/>
</svg>