<?xml version="1.0" encoding="UTF-8"?>
<svg id="_图层_1" data-name="图层 1" xmlns="http://www.w3.org/2000/svg" viewBox="0 0 960 960">
  <defs>
    <style>
      .cls-1 {
        fill: #454794;
      }

      .cls-1, .cls-2, .cls-3, .cls-4, .cls-5, .cls-6, .cls-7, .cls-8, .cls-9, .cls-10, .cls-11, .cls-12 {
        stroke-width: 0px;
      }

      .cls-2 {
        fill: #fcd541;
      }

      .cls-3 {
        fill: #fdfcfb;
      }

      .cls-4 {
        fill: #a76861;
      }

      .cls-5 {
        fill: #f6b89f;
      }

      .cls-6 {
        fill: #060505;
      }

      .cls-7 {
        fill: #40a297;
      }

      .cls-8 {
        fill: #b16b1f;
      }

      .cls-9 {
        fill: #5a7dfe;
      }

      .cls-10 {
        fill: #f6f7f7;
      }

      .cls-11 {
        fill: #f5b89f;
      }

      .cls-12 {
        fill: #6ae4d5;
      }
    </style>
  </defs>
  <path class="cls-6" d="m274.92,501.52c1.67-1.51,2.2-1.57,4.22-.51,12.88,6.76,19.45,19.31,17.7,33.81-.04.32-.12.63-.17.94-.11.74.29,1,.96,1,.24,0,.48,0,.72-.02,3.8-.17,3.74-.23,2.91-3.88-2.69-11.82.2-21.98,9.32-30.17,2.46-2.21,5.4-3.33,8.65-3.76,6.78-.9,12.63.98,17.61,5.66,2.1,1.98,4.05,4.08,5.84,6.34.43.54.66,1.29,1.44,1.5.12-.11.28-.19.32-.3,1.94-6.37,6.06-11.37,10.24-16.33,1.09-1.29,2.36-2.39,4.12-2.9,0-1.19-.71-2.1-1.17-3.08-1.29-2.76-2.32-5.59-2.85-8.61-.84-4.8.5-8.84,4.06-12.15,3.01-2.8,6.52-4.89,9.97-7.05,6.99-4.37,14.33-8.05,21.98-11.13,6.14-2.47,12.08-5.46,18.47-7.29,1.46-.42,2.9-.88,4.36-1.3,5.57-1.59,10.7.06,14.23,4.66,2.25,2.93,4,6.16,5.45,9.55,2.76,6.47,4.84,13.19,7.13,19.83,4.73,13.74,8.68,27.74,12.96,41.62,3.25,10.52,6.79,20.97,9.31,31.71.6,2.57,1.14,5.14,1.37,7.78.3,3.53-.88,6.42-3.55,8.74-1.21,1.05-2.51,1.98-3.86,2.83-9.96,6.24-20.37,11.65-31.06,16.52-3.86,1.76-7.85,3.13-11.92,4.31-2.25.65-4.53.92-6.87.76-3.51-.25-6.27-1.73-8.01-4.89-.08-.14-.15-.28-.23-.42q-.93-1.54-2.5-.82c-3.77,1.74-7.58,3.38-11.51,4.72-2.83.97-5.68,1.68-8.69,1.27-1.13-.15-1.35.3-1.39,1.28-.08,2.16-.3,4.3-.68,6.43-.69,3.86-2.23,7.31-4.68,10.37-2.23,2.77-4.91,5-7.86,6.97-9.37,6.27-18.48,2.91-24.47-2.25-1.82-1.57-3.33-3.42-4.54-5.58-3.29,1.29-6.54,2.4-9.91,3.06-8.69,1.71-17.35,1.33-25.94-.59-10.02-2.23-19.24-6.32-27.57-12.36-3.18-2.31-6.25-4.74-8.75-7.79-.72-.88-1.25-.95-2.16-.31-2.18,1.52-4.61,2.57-7.18,3.21-9.71,2.43-18.75-3.02-21.37-12.86-.67-2.5-.83-5.05-.48-7.61.24-1.78.93-3.25,3.01-3.46,1.73.72,1.99,2.27,2.19,3.87.23,1.86.23,3.78,1.33,5.43.42,2.72,1.97,4.65,4.28,6.02,3.07,1.82,6.4,1.92,9.75,1.25,4.56-.92,8.32-3.33,11.21-6.9,3.58-4.4,6.29-9.22,5.82-15.23-.08-1.06.34-2.02,1.11-2.82.79-.81,1.7-1.44,2.7-1.97,2.27-1.2,4.36-2.67,6.37-4.25.66-.52,1.54-.91,1.68-1.91.82-.19,1.4-.74,1.98-1.29,2.26-2.16,4.4-4.44,6.01-7.13,5.5-9.17,6.12-18.48.71-27.94-2.58-4.51-5.99-8.28-10.23-11.27-1.18-.84-2.08-1.74-1.89-3.32Zm143.96,79.49l-.02.06c.7.32,1.21-.17,1.76-.42,9.63-4.32,19.08-8.98,28.15-14.39,2.47-1.47,4.93-2.96,7.2-4.74,1.59-1.25,2.2-2.85,1.97-4.85-.32-2.7-.83-5.35-1.58-7.98-2.51-8.75-5.63-17.31-8.12-26.07-5.82-20.44-12.65-40.56-19.52-60.67-1.32-3.86-2.91-7.62-5.18-11.04-2.31-3.49-4.57-4.17-8.59-2.96-8.51,2.56-16.63,6.11-24.83,9.46-8.23,3.36-16.07,7.48-23.38,12.59-1.38.96-2.69,2-3.9,3.18-1.45,1.41-2.23,3.09-2.28,5.11-.11,3.86.19,7.64,1.48,11.34,1.61,4.61,3.74,8.99,5.67,13.46,1.07,2.46,2.23,4.88,3.47,7.58,1.41-1.52,2.64-2.85,3.97-4.28-1.64-1.11-2.49-2.75-3.3-4.38-1.21-2.43-2.39-4.88-3.5-7.35-1.48-3.28-2.65-6.67-3.56-10.16-1.16-4.5.03-8.21,3.57-11.16,1.29-1.07,2.62-2.1,4.03-3.01,4.39-2.82,9.07-5.02,14.07-6.54,5.99-1.82,8.22-.87,10.78,4.87,2.12,4.75,3.66,9.71,4.84,14.77.38,1.64.34,1.62,2.14,1.26,1.49-.3,2.98-.58,4.51-.55,3.21.07,5.67,1.43,7.38,4.16.85,1.37,1.5,2.82,1.79,4.41.23,1.26.45,2.52.67,3.77-.05,4.23-.69,8.36-2.24,12.32-.8,2.05-1.59,4.1-2.52,6.51,2.78-1.69,5.27-3.14,7.93-4.27.7-.16,1.39-.36,2.1-.46,3.2-.46,5.82.53,7.74,3.19.85,1.17,1.47,2.47,1.91,3.84.7,2.22,1.04,4.49,1.17,6.82.19,3.53-.39,7-.53,10.51-.42.35-.36.86-.45,1.32-.47,2.35-.92,4.7-1.73,6.97-4.62,12.97-12.66,23.56-22.88,32.6-1.98,1.75-4.19,3.21-6.37,4.69-.76.52-.88.96-.23,1.71,1.58,1.8,3.47,2.86,5.9,2.49,3.48-.53,6.83-1.51,9.96-3.15.26-.1.69-.03.52-.54Zm-61.35-30.73c-2.49-6.42-5.44-12.62-8.84-18.6-1.41-2.49-2.75-5.04-4.61-7.25-2.98-4.73-6.14-9.32-10.1-13.3-1.95-1.96-4.23-3.41-6.89-4.17-3.25-.93-6.57-.99-9.54.71-3.13,1.8-5.75,4.29-7.42,7.6-2.8,4.14-2.96,8.83-2.78,13.57.05,1.38.18,2.8.86,4.11,1.51-.96,1.52-.96,1.24-2.54-.19-1.1-.04-2.1.94-2.77,1.04-.71,2.11-.59,3.14.07.96.6,1.73,1.42,2.47,2.25,3.16,3.52,5.89,7.36,7.95,11.63,7.1,14.68,13.28,29.72,17.99,45.35,1.08,3.6,1.69,7.3,2.56,10.95.46,1.93-.05,3.38-1.44,3.56-2.21.28-3.31,2.13-5.05,3.02-.93.47-.76,1.06-.18,1.69,1.56,1.71,3.03,3.52,5.15,4.59,1.35.88,2.85,1.4,4.38,1.83,2.79.78,5.54.56,8.2-.61,3.72-1.65,6.84-4.09,9.43-7.22,1.57-1.89,2.5-4.06,3.01-6.45,1.21-5.66.85-11.29-.3-16.89-2.2-10.76-5.99-21-10.19-31.11Zm-64.24-3.59c-.21.23-.49.42-.63.68-4.12,7.92-10.32,13.73-18.14,17.88-1.02.54-1.51,1.22-1.71,2.36-.72,4.22-2.23,8.16-4.64,11.71-1.03,1.52-2.11,3.02-3.29,4.41-.8.95-.83,1.52.23,2.28,2.27,1.63,4.4,3.45,6.69,5.06,2.01,1.41,3.88,3.06,6.26,3.88.3.5.81.75,1.3,1.02,7.77,4.45,16,7.67,24.92,8.83,12.19,1.6,23.56-.47,33.64-7.96.91-.67,1.18-1.15.87-2.3-4.72-17.68-11.2-34.65-20.21-50.6-1.06-1.88-2.27-3.67-3.48-5.45-1.31-1.92-1.33-1.86-3.12-.47-3.83,2.96-8.1,4.76-13.01,4.86-1.35.03-2.9-.84-3.96-.06-1.11.81-1.14,2.56-1.7,3.87Zm100.62,31.92c.99-.48,2.02-.9,2.97-1.44,12.9-7.26,21.58-18.27,27.66-31.49,3.13-6.8,3.97-14.1,3.82-21.52-.05-2.17-.42-4.29-1.47-6.24-.61-1.13-1.49-1.63-2.76-1.32-.62.15-1.24.3-1.83.53-5.34,2.11-9.79,5.69-14.47,8.85-1.75,1.18-2.44,3.5-3.77,5.2-.79,1-1.52,2.06-2.27,3.09-1.1,1.51-2.55,2.64-4,3.76-.58.45-1.26.82-1.97.28-.8-.61-.62-1.4-.22-2.15.87-1.62,1.8-3.2,3.03-4.59,2.85-3.25,5.33-6.78,7.78-10.33,3.3-4.8,5.53-10.06,6.9-15.7,1.03-4.24.74-8.41-1.09-12.41-1.28-2.79-2.56-3.43-5.55-2.71-1,.24-1.96.68-2.9,1.12-2.32,1.08-4.5,2.42-6.6,3.88-4.41,3.06-8.56,6.43-12.51,10.05-4.07,3.72-8.09,7.49-12.14,11.23-1.35,1.25-2.76,2.44-4.36,3.36-.73.42-1.52.6-2.2-.09-.66-.68-.56-1.51-.12-2.21.68-1.08,1.43-2.12,2.25-3.09.7-.83.89-1.52.32-2.55-2.28-4.12-4.3-8.38-6.22-12.68-.18-.41-.32-.89-1.03-1.24-3.03,3.29-6.26,6.5-8.01,10.8-1.32,3.25-2.45,6.58-3.7,9.86-.28.73-.32,1.34.16,2.02,2.97,4.17,5.17,8.79,7.69,13.22.07.23.1.47.2.68,7.19,15.49,13.87,31.16,16.36,48.25.18,1.24.86,1.49,1.99,1.37,6.42-.66,12.39-2.73,18.05-5.76Zm-5.68-84.56c3.15-2.43,6.15-4.83,9.57-6.58,1.11-.57,1.38-1.27,1.28-2.45-.2-2.25-.8-4.39-1.42-6.53-.95-3.29-2-6.56-3.62-9.6-1.68-3.15-2.58-3.57-5.94-2.57-3.44,1.03-6.78,2.34-9.93,4.08-2.94,1.62-5.75,3.45-8.31,5.62-1.97,1.67-2.94,3.72-2.36,6.36,1.54,6.92,4.46,13.28,7.93,19.41.79,1.4,2.44,1.65,3.59.62.51-.45,1.16-.86,1.31-1.63-3.66-1.55-5.33-3.78-5.02-6.67.27-2.48,2.62-4.88,5.17-5.28,3.57-.56,5.74.86,7.75,5.23Z"/>
  <path class="cls-9" d="m274.92,501.52c-.19,1.57.71,2.48,1.89,3.32,4.24,3,7.65,6.76,10.23,11.27,5.41,9.46,4.79,18.77-.71,27.94-1.61,2.69-3.75,4.97-6.01,7.13-.58.55-1.17,1.1-1.98,1.29-.14-.3-.32-.58-.7-.51-2.11.35-4.3.46-6.22,1.54-4.01,2.25-8.39,2.89-12.88,3.04-.96.03-1.89.12-2.83.4-1.44.44-2.39,1.38-2.69,2.78-.3,1.42.68,2.4,1.71,3.19,1.03.78,2.26,1.15,3.48,1.55,1.63.54,1.64.57.89,2.16-1.06,2.25-2.54,4.23-3.97,6.25-3.8,5.36-8.88,7.15-15.25,5.87-1.45-.29-2.91-.98-4.46-.47-1.1-1.65-1.09-3.57-1.33-5.43-.2-1.6-.46-3.15-2.19-3.87.17-5.07,1.38-9.94,2.88-14.74,3.14-10,7.1-19.66,12.71-28.56,5.07-8.03,11.24-15.09,18.92-20.74,2.52-1.86,5.25-3.34,8.52-3.41Z"/>
  <path class="cls-11" d="m357.31,534.06c-2.52-4.43-4.72-9.05-7.69-13.22-.48-.67-.44-1.29-.16-2.02,1.25-3.28,2.38-6.61,3.7-9.86,1.75-4.3,4.98-7.51,8.01-10.8.71.35.84.83,1.03,1.24,1.92,4.3,3.93,8.56,6.22,12.68.57,1.03.38,1.73-.32,2.55-.82.97-1.58,2.01-2.25,3.09-.44.7-.55,1.53.12,2.21.68.7,1.47.51,2.2.09,1.6-.92,3.01-2.11,4.36-3.36,4.05-3.74,8.07-7.51,12.14-11.23,3.96-3.61,8.11-6.99,12.51-10.05,2.1-1.46,4.28-2.8,6.6-3.88.94-.44,1.9-.88,2.9-1.12,2.99-.72,4.28-.08,5.55,2.71,1.83,4,2.11,8.17,1.09,12.41-1.36,5.64-3.6,10.9-6.9,15.7-2.45,3.56-4.92,7.09-7.78,10.33-1.22,1.39-2.16,2.97-3.03,4.59-.4.74-.59,1.54.22,2.15.71.54,1.38.17,1.97-.28,1.45-1.12,2.91-2.25,4-3.76.75-1.03,1.48-2.09,2.27-3.09,1.33-1.69,2.02-4.01,3.77-5.2,4.68-3.16,9.14-6.75,14.47-8.85.59-.23,1.22-.38,1.83-.53,1.27-.31,2.15.19,2.76,1.32,1.05,1.95,1.42,4.07,1.47,6.24.16,7.42-.69,14.73-3.82,21.52-6.08,13.22-14.76,24.23-27.66,31.49-.96.54-1.98.96-2.97,1.44-1.92-1.66-3.84-3.33-5.75-4.99-8.4-7.31-14.4-16.51-20.43-25.71-2.62-3.99-4.96-8.16-7.91-11.93-.66-.85-1.15-1.97-2.51-1.92Z"/>
  <path class="cls-12" d="m434.15,534.92c.14-3.5.72-6.98.53-10.51-.13-2.32-.46-4.6-1.17-6.82-.44-1.37-1.05-2.67-1.91-3.84-1.93-2.65-4.54-3.65-7.74-3.19-.71.1-1.4.3-2.1.46-.77-.58-.55-1.44-.53-2.19.06-2.29.03-4.6-.53-6.82-.48-1.92-.28-4.13-2.12-5.54-.22-1.26-.44-2.52-.67-3.77-.3-1.59-.94-3.05-1.79-4.41-1.7-2.73-4.16-4.09-7.38-4.16-1.54-.03-3.03.25-4.51.55-1.8.37-1.76.38-2.14-1.26-1.18-5.07-2.72-10.02-4.84-14.77-2.56-5.74-4.79-6.69-10.78-4.87-5,1.52-9.69,3.72-14.07,6.54-1.41.91-2.74,1.93-4.03,3.01-3.54,2.95-4.73,6.66-3.57,11.16.9,3.49,2.08,6.88,3.56,10.16,1.11,2.48,2.29,4.93,3.5,7.35.82,1.63,1.66,3.27,3.3,4.38-1.33,1.43-2.56,2.76-3.97,4.28-1.24-2.69-2.4-5.12-3.47-7.58-1.94-4.47-4.07-8.85-5.67-13.46-1.29-3.7-1.59-7.48-1.48-11.34.06-2.02.84-3.7,2.28-5.11,1.21-1.18,2.52-2.21,3.9-3.18,7.3-5.11,15.15-9.23,23.38-12.59,8.2-3.35,16.33-6.9,24.83-9.46,4.02-1.21,6.28-.53,8.59,2.96,2.26,3.42,3.86,7.18,5.18,11.04,6.87,20.1,13.7,40.23,19.52,60.67,2.5,8.76,5.61,17.32,8.12,26.07.75,2.63,1.27,5.27,1.58,7.98.23,2-.38,3.6-1.97,4.85-2.27,1.78-4.74,3.27-7.2,4.74-9.07,5.41-18.52,10.07-28.15,14.39-.55.25-1.07.74-1.76.42,1.39-2.64,3.8-4.43,5.55-6.79,3.38-4.57,6.31-9.33,7.65-14.95.54-2.25.55-4.56,1-6.81,1.02-5.07,1.86-10.15,1.58-15.35-.04-.76.26-1.62-.49-2.23Z"/>
  <path class="cls-5" d="m293.29,546.69c.56-1.31.59-3.06,1.7-3.87,1.06-.77,2.61.09,3.96.06,4.91-.1,9.18-1.89,13.01-4.86,1.8-1.39,1.82-1.45,3.12.47,1.22,1.78,2.42,3.58,3.48,5.45,9.01,15.96,15.49,32.93,20.21,50.6.31,1.16.04,1.63-.87,2.3-10.08,7.49-21.45,9.55-33.64,7.96-8.91-1.17-17.14-4.39-24.92-8.83-.48-.28-.99-.52-1.3-1.02.34-.19.72-.34,1.02-.58,2.48-1.97,3.33-4.81,3.95-7.71,1.3-6.08,2.27-12.21,1.92-18.47-.05-.8.04-1.57.5-2.29.72-1.15,1.36-2.35,2.02-3.52,2.37-4.17,4.3-8.55,5.57-13.18.22-.79.79-1.63.26-2.52Z"/>
  <path class="cls-2" d="m343,610.73c-2.13-1.07-3.6-2.87-5.15-4.59-.58-.64-.76-1.22.18-1.69,1.74-.89,2.84-2.73,5.05-3.02,1.39-.18,1.9-1.63,1.44-3.56-.87-3.65-1.48-7.35-2.56-10.95-4.71-15.63-10.89-30.67-17.99-45.35-2.06-4.27-4.79-8.1-7.95-11.63-.75-.83-1.52-1.65-2.47-2.25-1.03-.65-2.1-.78-3.14-.07-.98.67-1.13,1.66-.94,2.77.28,1.57.26,1.57-1.24,2.54-.68-1.3-.81-2.73-.86-4.11-.18-4.74-.02-9.43,2.78-13.57.88,0,1.76.01,2.64-.03,7.11-.33,13.16,1.93,18.11,7.14,1.49,1.56,3.26,2.83,5.25,3.73,2.74,1.24,6.04,1.09,7.96-1.67,1.85,2.21,3.2,4.76,4.61,7.25,3.39,5.99,6.34,12.19,8.84,18.6-.71.83-1.65.43-2.47.39-2.07-.08-3.94.47-5.7,1.5-2.59,1.51-4.68,3.61-6.53,5.91-1.21,1.51-1.7,3.33-1.82,5.33-.34,5.88,1.12,11.4,3.12,16.81,2.53,6.84,3.74,13.81,2.69,21.09-.38,2.6-.91,5.18-1.85,7.65-.36.93-.76,1.78-1.96,1.77Zm1.97-72.87c1.47-.01,2.72-1.25,2.75-2.72.03-1.58-1.36-3.03-2.82-2.94-1.27.08-2.69,1.66-2.66,2.94.04,1.53,1.25,2.74,2.73,2.73Z"/>
  <path class="cls-8" d="m343,610.73c1.2,0,1.6-.84,1.96-1.77.95-2.47,1.48-5.05,1.85-7.65,1.05-7.27-.16-14.25-2.69-21.09-2-5.41-3.46-10.93-3.12-16.81.12-2.01.61-3.82,1.82-5.33,1.85-2.31,3.94-4.4,6.53-5.91,1.76-1.03,3.63-1.58,5.7-1.5.83.03,1.77.44,2.47-.39,4.2,10.11,7.98,20.36,10.19,31.11,1.15,5.6,1.51,11.23.3,16.89-.51,2.39-1.44,4.56-3.01,6.45-2.6,3.13-5.71,5.57-9.43,7.22-2.65,1.17-5.4,1.4-8.2.61-1.53-.43-3.03-.95-4.38-1.83Z"/>
  <path class="cls-4" d="m293.29,546.69c.53.9-.04,1.73-.26,2.52-1.28,4.63-3.2,9-5.57,13.18-.67,1.18-1.3,2.38-2.02,3.52-.46.73-.54,1.49-.5,2.29.35,6.26-.62,12.38-1.92,18.47-.62,2.9-1.47,5.74-3.95,7.71-.3.24-.68.39-1.02.58-2.38-.82-4.25-2.47-6.26-3.88-2.29-1.6-4.42-3.42-6.69-5.06-1.06-.76-1.02-1.33-.23-2.28,1.18-1.4,2.26-2.9,3.29-4.41,2.41-3.56,3.92-7.49,4.64-11.71.19-1.13.69-1.82,1.71-2.36,7.82-4.15,14.02-9.96,18.14-17.88.14-.27.42-.46.63-.68Z"/>
  <path class="cls-10" d="m388.23,494.05c-2.01-4.37-4.19-5.79-7.75-5.23-2.55.4-4.9,2.8-5.17,5.28-.32,2.89,1.36,5.13,5.02,6.67-.15.77-.8,1.17-1.31,1.63-1.15,1.03-2.79.78-3.59-.62-3.47-6.13-6.39-12.48-7.93-19.41-.59-2.64.39-4.69,2.36-6.36,2.56-2.18,5.37-4,8.31-5.62,3.15-1.74,6.49-3.05,9.93-4.08,3.36-1,4.26-.58,5.94,2.57,1.62,3.04,2.67,6.31,3.62,9.6.62,2.14,1.23,4.29,1.42,6.53.1,1.18-.17,1.88-1.28,2.45-3.42,1.75-6.42,4.15-9.57,6.58Zm-13.04-5.43c3.62.03,7-3.36,7.05-7.08.05-3.56-2.97-6.61-6.51-6.58-3.3.03-6.73,3.49-6.78,6.83-.05,3.72,2.76,6.8,6.24,6.82Zm12.68-17.88c-1.82.05-3.39,1.74-3.38,3.65,0,1.97,1.55,3.54,3.45,3.49,1.88-.04,3.46-1.72,3.39-3.59-.07-1.97-1.66-3.6-3.46-3.55Z"/>
  <path class="cls-4" d="m357.31,534.06c1.36-.05,1.85,1.07,2.51,1.92,2.95,3.77,5.29,7.94,7.91,11.93,6.02,9.19,12.03,18.4,20.43,25.71,1.92,1.67,3.84,3.33,5.75,4.99-5.66,3.03-11.63,5.1-18.05,5.76-1.13.12-1.81-.13-1.99-1.37-2.49-17.09-9.17-32.76-16.36-48.25-.1-.21-.14-.46-.2-.68Z"/>
  <path class="cls-1" d="m235.4,578.27c1.55-.51,3.01.18,4.46.47,6.37,1.28,11.45-.51,15.25-5.87,1.43-2.02,2.91-4,3.97-6.25.75-1.59.74-1.62-.89-2.16-1.22-.4-2.45-.77-3.48-1.55-1.04-.79-2.01-1.77-1.71-3.19.29-1.4,1.25-2.35,2.69-2.78.93-.28,1.86-.37,2.83-.4,4.5-.15,8.88-.79,12.88-3.04,1.92-1.08,4.11-1.19,6.22-1.54.38-.06.56.21.7.51-.14,1-1.02,1.39-1.68,1.91-2.01,1.58-4.1,3.05-6.37,4.25-1,.53-1.91,1.16-2.7,1.97-.77.79-1.19,1.76-1.11,2.82.46,6.01-2.25,10.83-5.82,15.23-2.89,3.56-6.66,5.98-11.21,6.9-3.36.67-6.69.57-9.75-1.25-2.31-1.37-3.85-3.3-4.28-6.02Z"/>
  <path class="cls-7" d="m434.15,534.92c.75.61.45,1.47.49,2.23.29,5.2-.56,10.28-1.58,15.35-.45,2.25-.46,4.56-1,6.81-1.34,5.62-4.27,10.37-7.65,14.95-1.75,2.36-4.16,4.16-5.55,6.79,0,0,.02-.06.02-.06-.29.07-.44.28-.52.54-3.14,1.64-6.49,2.61-9.96,3.15-2.43.37-4.32-.69-5.9-2.49-.65-.74-.54-1.19.23-1.71,2.18-1.48,4.39-2.94,6.37-4.69,10.22-9.04,18.26-19.63,22.88-32.6.81-2.27,1.26-4.62,1.73-6.97.09-.46.04-.97.45-1.32Z"/>
  <path class="cls-3" d="m344.09,524.43c-1.92,2.76-5.22,2.92-7.96,1.67-1.99-.9-3.76-2.17-5.25-3.73-4.95-5.21-11-7.47-18.11-7.14-.88.04-1.76.02-2.64.03,1.67-3.31,4.29-5.8,7.42-7.6,2.97-1.7,6.29-1.63,9.54-.71,2.66.76,4.94,2.21,6.89,4.17,3.96,3.98,7.12,8.58,10.1,13.3Z"/>
  <path class="cls-7" d="m418.59,496.47c1.84,1.41,1.64,3.62,2.12,5.54.56,2.22.58,4.53.53,6.82-.02.76-.24,1.61.53,2.19-2.66,1.13-5.15,2.59-7.93,4.27.94-2.41,1.72-4.47,2.52-6.51,1.55-3.96,2.18-8.09,2.24-12.32Z"/>
  <path class="cls-12" d="m418.36,581.55c.08-.27.23-.47.52-.54.17.51-.27.44-.52.54Z"/>
  <path class="cls-3" d="m344.97,537.86c-1.48.01-2.69-1.19-2.73-2.73-.03-1.28,1.39-2.85,2.66-2.94,1.45-.1,2.85,1.36,2.82,2.94-.03,1.47-1.28,2.71-2.75,2.72Z"/>
  <path class="cls-6" d="m375.19,488.62c-3.48-.03-6.3-3.1-6.24-6.82.05-3.34,3.48-6.8,6.78-6.83,3.54-.04,6.57,3.02,6.51,6.58-.05,3.72-3.43,7.11-7.05,7.08Z"/>
  <path class="cls-6" d="m387.88,470.74c1.8-.05,3.39,1.58,3.46,3.55.07,1.87-1.52,3.54-3.39,3.59-1.89.04-3.44-1.52-3.45-3.49,0-1.9,1.56-3.6,3.38-3.65Z"/>
</svg>