<?xml version="1.0" encoding="UTF-8"?>
<svg id="_图层_1" data-name="图层 1" xmlns="http://www.w3.org/2000/svg" viewBox="0 0 960 960">
  <defs>
    <style>
      .cls-1 {
        fill: #7da5a5;
      }

      .cls-1, .cls-2, .cls-3, .cls-4, .cls-5, .cls-6, .cls-7, .cls-8, .cls-9, .cls-10, .cls-11, .cls-12, .cls-13, .cls-14, .cls-15, .cls-16 {
        stroke-width: 0px;
      }

      .cls-2 {
        fill: #f7b9a0;
      }

      .cls-4 {
        fill: #a4665f;
      }

      .cls-5 {
        fill: #466af6;
      }

      .cls-6 {
        fill: #b9b1b0;
      }

      .cls-7 {
        fill: #b16b1f;
      }

      .cls-8 {
        fill: #fff;
      }

      .cls-9 {
        fill: #b7ceff;
      }

      .cls-10 {
        fill: #8b6d5e;
      }

      .cls-11 {
        fill: #a76760;
      }

      .cls-12 {
        fill: #454795;
      }

      .cls-13 {
        fill: #ffd741;
      }

      .cls-14 {
        fill: #a96861;
      }

      .cls-15 {
        fill: #c3cfcf;
      }

      .cls-16 {
        fill: #5a7dff;
      }
    </style>
  </defs>
  <path class="cls-3" d="m695.38,346.92c-4.37-15.96-11.3-30.53-23.49-42.14-.64-.61-.61-1.14-.32-1.9.39-1.04.7-2.13.89-3.23,1.18-6.69-2.17-11.88-8.75-13.54-1.47-.37-2.96-.64-4.49-.71-3.52-.15-7.03.04-10.54.29-4.87.34-9.75.49-14.61.05-9.06-.82-17.71-3.26-26.09-6.77-7.02-2.94-13.56-6.77-20.19-10.45-1.95-1.08-3.42-2.44-4.65-4.28-5.26-7.84-11.02-15.3-17.65-22.06-3.34-3.41-6.81-6.67-11.08-9.27.86-.53,1.47-.9,2.08-1.27,2.87-1.74,5.71-3.54,8.34-5.62,2.65-2.1,2.58-3.93-.13-5.89-1.63-1.02-3.08-.11-4.53.47-5.55,2.23-10.99,4.73-16.48,7.1-17.73,7.65-36.04,13.4-55.15,16.42-.24.05-.49.11-.72.19-.59.21-1.21.21-1.82.22-3.88.37-7.77.75-11.66,1.08-7.92.67-15.79.5-23.56-1.17-3.98-.86-7.85-2.15-11.06-4.88-1.84-1.56-2.68-3.51-2.58-5.9.1-2.38.87-4.53,2.1-6.54,1.38-2.25,2.95-4.36,4.64-6.39,1.98-2.9,4.77-5.04,7.1-7.61.86-.96,2.1-1.79,1.55-3.41-.56-.86-1.28-1.16-2.25-.69-.72.35-1.47.63-2.15,1.03-6.4,3.75-12.15,8.26-16.54,14.33-.66.91-1.37,1.44-2.51,1.57-2.55.27-5,.99-7.44,1.78-8.14,2.66-15.42,6.91-22.29,11.92-13.14,9.57-23.78,21.54-33.07,34.75-8.49,12.06-19.29,21.44-32.22,28.42-5.06,2.73-10.32,5.07-15.53,7.49-3.71,1.72-7.27,3.7-10.41,6.34-4.09,3.43-7.03,7.61-8.05,12.96-1.65,8.6,2.58,15.25,11.05,17.34,4.06,1,8.09.51,12.11-.3.64-.13,1.27-.43,2.18-.1-.9.86-1.64,1.57-2.38,2.28-5.95,5.69-10.87,12.14-14.33,19.63-5.59,12.11-5.86,24.37-.81,36.73,3.1,7.58,7.75,14.11,13.43,19.96,2.62,2.7,5.51,5.1,8.27,7.64.34.34.62.73.96,1.07,5.3,5.24,11.73,8.84,18.23,12.27,15.72,8.3,32.4,13.96,49.69,17.98,21.48,4.99,43.29,7.35,65.28,8.12,5.42.19,10.85-.12,16.28-.3,10.71-.36,21.36-1.14,31.98-2.48,26.15-3.3,51.58-9.33,75.77-20,7.01-3.09,14.07-6.14,20.15-10.98,1.38-.95,2.76-1.91,4.16-2.84,5.74-3.82,11.07-8.15,15.86-13.12,4.52-4.7,8.33-9.9,11.18-15.78,1.99-1.44,2.18-3.98,3.51-6.04,1.45,1.34,2.33,2.97,3.57,4.28,6.71,7.05,15.13,10.6,24.62,11.49,5.89.55,11.16-1.39,15.3-5.84,4.34-4.18,7.47-9.12,9.43-14.81,2.15-6.24,3.3-12.67,3.52-19.26.34-10.06-.97-19.94-3.62-29.63Zm-65.59,4.12c-4.59-5.3-10.42-9.09-16.02-13.15-.77-.56-1.54-1.13-2.3-1.7,0-1.03.07-2.08-.02-3.1-.15-1.7.61-2.27,2.11-1.67,4.71,1.87,9.7,2.49,14.65,3.26.64.1,1.26.23,1.69.77.13,5.23-.17,10.46.58,15.73-.4-.07-.61-.04-.69-.13Zm47.58,26.3c-.49,1.82-1.32,3.42-3.24,4.17-1.65.65-3.13.44-4.43-.76-1.07-.98-1.87-2.18-2.59-3.42-4.88-8.37-8.04-17.32-9.39-26.93-1.22-8.71-2.09-17.44-1.8-26.25.01-.4.05-.8,0-1.2-.08-.71.38-.95.9-1.21.55-.28.9-.06,1.24.33.31.36.65.71.94,1.09,8.51,11.16,15.04,23.3,18.14,37.11.28,1.24.57,2.49.72,3.76.21,1.74.28,3.5.41,5.25-.04,2.73-.21,5.44-.91,8.08Z"/>
  <path class="cls-16" d="m564.67,220.14c-1.74-.1-3.25.64-4.8,1.26-8.38,3.3-16.43,7.38-24.85,10.59-13.58,5.17-27.43,9.43-41.76,11.99-1.71.31-3.41.83-5.19.71-8.1-.58-16.23-.83-24.05-3.49-2.91-.99-5.05-2.98-7.53-4.54-4.48-2.82-8.03-6.52-10.79-11.01-1.05-1.71-1.98-3.47-2.02-5.55,1.88-2.66,4.35-4.77,6.58-7.12.92-.97,2-1.83,2.24-3.26,5.63-3.05,11.82-3.82,18.04-4.27,12.52-.9,25.08-.7,37.62-.42,7.26.16,14.53.44,21.75,1.3,8.81,1.05,17.52,2.63,26.01,5.25,2.23.69,4.36,1.59,6.12,3.17,1.6,1.44,2.76,3.1,2.64,5.39Z"/>
  <path class="cls-12" d="m329.53,432.78c3.04,2.18,5.92,4.57,9.06,6.62,9.88,6.45,20.5,11.4,31.52,15.55,14.92,5.62,30.33,9.31,46.03,11.95,8.82,1.48,17.66,2.65,26.57,3.37,5.33.43,10.67.72,16.01.98,4.87.24,9.74.36,14.61.23,9.81-.27,19.61-.72,29.39-1.69,16.71-1.65,33.18-4.51,49.42-8.75,14.64-3.83,28.83-8.88,42.45-15.51,4.09-1.99,8.07-4.22,11.98-6.54.4-.24.75-.61,1.28-.55-3.11,3.67-6.82,6.71-10.58,9.67-12.29,9.68-25.97,16.88-40.5,22.55-16.31,6.36-33.19,10.5-50.5,12.99-15.55,2.23-31.17,3.2-46.87,2.69-23.94-.78-47.4-4.47-70.12-12.26-12.37-4.25-24.18-9.67-35.18-16.8-9.59-6.21-17.6-14.03-24.04-23.46-.22-.32-.36-.69-.54-1.04Z"/>
  <path class="cls-12" d="m639.05,406.72c1.15-2.4,2.26-4.81,3.23-7.64,1.13,1.47,2.03,2.74,3.03,3.93,5.37,6.4,12.21,10.33,20.38,11.97,1.71.34,3.39.85,5.16.94,4.89.25,9.25-1.24,13.23-3.99.65-.45,1.19-1.06,1.96-1.32-3.04,9.56-11.93,14.64-21.35,13.29-6.87-.99-12.71-3.95-17.63-8.81-2.44-2.41-4.73-4.96-6.56-7.87-.38-.61-.72-1.06-1.46-.49Z"/>
  <path class="cls-2" d="m552.12,240.39c3.39,3.19,6.34,6.75,9.14,10.46,8.79,11.65,16.16,24.17,22.6,37.26,6.18,12.56,11.76,25.37,16.09,38.71.89,2.74,1.59,5.53,2.13,8.35.4,2.09,1.4,3.72,3.27,4.77,7.46,4.23,13.06,10.49,18.3,17.07,5.1,6.41,8.59,13.63,9.73,21.86,1.03,7.4-.63,14.3-3.81,20.91-2.88,5.98-7.01,11.06-11.64,15.75-8.21,8.32-17.64,15-27.97,20.43-15.23,8.01-31.38,13.53-48.1,17.41-27.19,6.3-54.76,8.45-82.62,7.4-17.05-.64-33.96-2.39-50.65-5.97-17.56-3.77-34.61-9.1-50.69-17.25-6.57-3.33-12.84-7.16-18.78-11.53-6.57-4.83-12.21-10.56-16.58-17.47-7.91-12.49-8.38-25.38-1.74-38.51,3.51-6.93,8.51-12.74,14.18-17.99,1.82-1.68,3.67-3.33,5.53-4.97,2.1-1.86,3.49-4.18,4.16-6.87,2.94-11.78,7.7-22.86,12.98-33.71,9.62-19.78,21.81-37.76,37.84-52.99,7.4-7.04,15.48-13.12,24.69-17.61,1.94-.94,3.95-1.73,5.93-2.57.79-.33,1.03.03.85.79-.43,1.41-.23,2.85-.18,4.27.08,2.01-.13,3.94-.58,5.91-1.13,4.92.19,9.4,3.13,13.33,2.68,3.58,6.19,6.18,10.49,7.68,5.94,2.07,12.05,3.05,18.34,3.21,19.64.49,38.39-3.82,56.75-10.36,12.25-4.36,24.01-9.7,34.8-17.03.72-.49,1.46-1.03,2.43-.73Z"/>
  <path class="cls-13" d="m691.77,360.27c1.37,8.82,1.55,17.64.03,26.46-.82,4.75-2.35,9.27-4.85,13.43-3.9,6.47-9.5,9.97-17.2,9.69-1.1-.04-2.16.44-3.29-.06-3.85-1.7-8.05-2.59-11.52-5.19-4.5-3.38-7.88-7.64-10.28-12.72-.43-.9-.56-1.81-.47-2.78.5-5.39-.2-10.69-1.41-15.92-.76-3.28-2.25-6.36-3.99-9.19-2.85-4.61-3.1-9.61-3.05-14.74,4.03-.09,5.11-.86,5.67-5.07,1.04-7.91,2.5-15.72,4.44-23.45.28-1.1.08-2.22.08-3.33,2.47-.55,2.97-.34,3.63,2,1.04,3.71,1.31,7.53,1.52,11.36.4,7.57.65,15.16,1.85,22.66,1.49,9.31,4.54,18.08,9.15,26.3.7,1.25,1.5,2.46,2.41,3.56,4.61,5.57,12.93,4.7,16.4-1.69,1.08-1.99,1.63-4.15,1.86-6.39.55-5.57-.48-10.97-1.67-16.36-.14-.62-.24-1.25-.36-1.88.43-1.2,1.23-.52,1.82-.29,2.48.96,4.89,2.16,7.66,2.11.95-.02,1.32.69,1.57,1.48Z"/>
  <path class="cls-14" d="m552.12,240.39c-3.65,2.14-7.12,4.56-10.79,6.66-6.61,3.77-13.54,6.82-20.59,9.63-11.67,4.64-23.68,8.12-36.03,10.38-4.3.78-8.65,1.31-13.02,1.73-5.27.51-10.54.55-15.79.31-6.8-.32-13.5-1.46-19.62-4.69-6.25-3.29-10.16-8.36-11.11-15.49-.28-2.1.04-4.17.66-6.14.56-1.79.78-3.55.68-5.41-.06-1.08-.33-2.25.45-3.23,0,.56.06,1.12.02,1.67-.48,6.45,2.59,11.01,7.72,14.44,3.8,2.54,8.13,3.72,12.54,4.52,8.3,1.51,16.63,1.73,25.06,1.08,20.3-1.57,39.87-6.32,59-13.08,4.9-1.73,9.73-3.64,14.44-5.83,1.44-.67,2.49-.68,3.56.6.86,1.03,2.09,1.72,2.84,2.89Z"/>
  <path class="cls-2" d="m600.12,293.17c-2.31-4.36-4.62-8.73-7.01-13.25.96.03,1.59.63,2.28,1.02,7.44,4.21,15.07,8.01,23.31,10.44,9.47,2.8,19.07,3.56,28.87,1.98,4.23-.68,8.49-1.6,12.84-.78.23.04.48.05.71.09,4.03.73,5.83,2.31,5.21,6.69-2.42,2.48-5.68,3.42-8.75,4.67-12.54,5.11-24.99,3.55-37.39-.64-5.3-1.79-10.37-4.1-15.31-6.7-1.76-.93-3.56-1.82-4.77-3.5Z"/>
  <path class="cls-14" d="m600.12,293.17c10.12,6.28,21,10.64,32.71,12.79,9.19,1.69,18.06.28,26.61-3.37,2.33-1,4.6-2.16,6.9-3.24-.8,3.96-2.31,7.62-4.92,10.74-1.89,2.25-3.78,4.51-6.08,6.31-.61-.25-.63-.78-.85-1.17-1.95-3.63-5.2-5.04-9.24-4.07-3.76.9-6.62,3.1-8.88,6.11-.88,1.17-1.78,1.61-3.25,1.88-7.01,1.32-13.8.44-20.54-1.5-.31-.09-.63-.22-.93-.19-2.18.21-2.74-1.17-3.23-2.94-1.88-6.77-4.56-13.26-7.56-19.6-.27-.57-.49-1.16-.74-1.74Z"/>
  <path class="cls-7" d="m691.77,360.27c-.42-.33-.67-.92-1.35-.85-3.1.29-5.7-1.2-8.4-2.35-.42-.18-.84-.53-1.31-.1-1.39-4.89-2.64-9.83-4.69-14.51-3.2-7.34-7.12-14.27-11.9-20.7-.85-1.15-1.85-2.19-2.89-3.41,2.39-3.21,5.61-5.76,7.7-9.2.8.21,1.09.82,1.47,1.31,10.81,13.96,17.49,29.76,20.87,47.02.18.92.69,1.81.49,2.8Z"/>
  <path class="cls-9" d="m443.68,220.09c1.27,2.36,2.1,4.95,3.79,7.11,2.22,2.83,4.41,5.61,7.52,7.58,1.73,1.1,3.43,2.31,5,3.68,2.24,1.96,5.17,2.39,7.88,3.23,3.27,1.01,6.72,1.16,10.11,1.57,3.37.4,6.83.24,10.09,1.41,0,0-.14.09-.14.09l-.17-.02c-.28.27-.69,0-.98.22-9.97,1.48-19.97,2.11-30.03,1.14-4.14-.4-8.19-1.23-12.05-2.84-1.48-.61-2.9-1.33-4.21-2.24-3.9-2.7-5.03-5.86-3.56-10.37,1.34-4.09,3.87-7.46,6.76-10.57Z"/>
  <path class="cls-2" d="m349.76,302.26c-.19.47-.38.93-.57,1.4-.09.2-.31.34-.31.59h0c-7.45,9.51-15.71,18.21-25.13,25.82-3.8,3.07-7.73,5.93-11.98,8.31-1.13.63-2.26,1.64-3.74.78-2.5-2.24-2.39-5.07-1.66-7.94.89-3.47,3.17-6.02,5.96-8.13,2.42-1.83,5.08-3.27,7.82-4.58,4.95-2.38,9.79-4.97,14.64-7.56,5.15-2.75,9.97-5.97,14.46-9.68.83-.01.81.41.51.98Z"/>
  <path class="cls-14" d="m308.03,339.16c2.66-.28,4.65-2,6.83-3.27,4.57-2.67,8.44-6.27,12.5-9.62,3.77-3.1,7.25-6.51,10.56-10.09,3.08-3.34,6.02-6.81,9.03-10.22.57-.65,1.04-1.43,1.94-1.71.04.51-.22.92-.43,1.34-3.75,7.33-6.61,15.02-9.09,22.85-.99,3.12-2.93,5.37-5.5,7.28-3.57,2.64-7.38,4.72-11.77,5.6-3.06.61-6.13,1.06-9.24.25-1.78-.47-3.52-1-4.82-2.42Z"/>
  <path class="cls-8" d="m645.92,317.4c1.45.93.84,2.26.59,3.44-.69,3.19-1.48,6.35-2.22,9.52-1.11,4.81-1.57,9.73-2.31,14.6-.11.7-.26,1.42-.53,2.07-1.11,2.71-3,3.42-5.71,2.21-.48-6.28-.43-12.54.89-18.73.77-3.64,2.5-6.84,4.8-9.74,1.2-1.5,2.57-2.82,4.49-3.38Z"/>
  <path class="cls-12" d="m629.9,335.44c-6.11-.51-12.13-1.42-18.01-4.06-.15,1.74-.29,3.27-.42,4.81-.66-.7-.21-1.52-.21-2.28.02-3.09.17-6.17-.54-9.47,2.26.48,4.17.93,6.1,1.3,3.39.65,6.82.63,10.25.58,1.04-.02,2.08-.04,3.11-.11.96-.07,1.43.33,1.11,1.25-.91,2.59-.72,5.37-1.39,7.99Z"/>
  <path class="cls-10" d="m349.76,302.26c-.1-.37-.03-.82-.51-.98.28-.61.76-.98,1.57-1.3-.1.98-.38,1.71-1.06,2.28Z"/>
  <path class="cls-16" d="m486.76,244.97c.24-.46.61-.36.99-.22-.27.33-.61.37-.99.22Z"/>
  <path class="cls-14" d="m348.89,304.24c-.07-.29.05-.47.31-.59.08.29,0,.49-.31.59Z"/>
  <path class="cls-8" d="m426.59,326.27c-1.72-.39-1.85-.59-.9-1.83,2.78-3.6,5.76-7,9.26-9.94,2.5-2.1,4.67-4.56,7.23-6.61,4.82-3.86,9.95-7.15,15.84-9.16,2.27-.78,4.59-1.21,7-1.33,2.3-.12,4.58-.48,6.9-.48,6.83-.02,12.28,3.84,14.55,10.33,1.48,4.25,2.08,8.65,2,13.15,0,.56.01,1.12.02,1.67.43,1.09-.33,1.84-.83,2.6-4.56,6.85-6.54,14.41-5.75,22.56.82,8.44,4.88,15.34,11.23,20.8,9.36,8.04,20.37,11.63,32.66,11.84,8.68.15,17.04-1.11,25.09-4.37,2.77-1.12,5.29-2.64,7.65-4.44.57-.44,1.16-.87,1.54-1.5.39-.65.56-1.34.09-2.03-.41-.61-1.05-.7-1.71-.59-1.11.19-2.16.58-3.19,1.01-7.77,3.26-15.66,5.99-24.15,6.71-11.18.95-21.79-.94-31.18-7.16-14.51-9.61-17.36-28.06-7.03-42.61,5.84-8.22,13.65-13.8,22.79-17.73,1.35-.58,2.76-.77,4.22-.75,3.75.03,7.53.4,11.24.32,5.16-.11,10.43.11,15.51-1.06,3.97-.91,7.86-1.15,11.82-.23,1.03-.53,1.62.19,2.27.78,4.88,4.43,8.01,9.95,9.58,16.28,1.24,5.03,2,10.19,1.96,15.37-.05,7.49-1.48,14.74-4.94,21.49-.18.35-.36.72-.5,1.09-.05.13,0,.31,0,.67,2.99-.4,5.99-.42,8.97-.27,5.56.3,10.93,1.32,15.61,4.64,3.07,2.18,5.5,4.92,6.7,8.52,1.65,4.95.67,9.64-1.98,13.99-2.64,4.34-6.15,7.91-9.95,11.26-3.66,3.24-7.64,6.01-11.68,8.73-5.2,3.51-10.83,6.14-16.65,8.39-12.31,4.75-25.1,7.81-37.95,10.69-6.92,1.55-13.86,2.95-20.86,4.08-4.95.8-9.95,1.31-14.9,2.11-6.23,1-12.51,1.42-18.78,1.75-4.85.25-9.74.44-14.6-.22-.87-.12-1.76-.08-2.63-.09-6.54-.08-13.04-.87-19.55-1.35-14.03-1.04-27.42-4.85-40.78-8.89-6.5-1.96-12.97-4.05-19.08-7-8.44-4.08-16.1-9.43-23.42-15.27-4.01-3.19-7.67-6.77-10.78-10.86-2.77-3.64-4.36-7.76-4.44-12.41-.05-3.01.9-5.69,2.69-8.02,3.83-4.94,8.98-7.53,15.16-8.16.57-.06,1.13-.02,1.48.55,2.35,4.18,6.4,6.41,10.31,8.67,7.48,4.32,15.55,7.17,24.21,7.72,6.31.4,12.4-.91,17.97-4.06,2.71-1.53,2.85-1.45,3.99,1.5,2.59,6.72,5.85,13.12,9.74,19.18.83,1.29,1.89,2.37,3.01,3.4.45.42.97,1.04,1.65.6.8-.53.35-1.3.08-1.94-.8-1.84-1.95-3.48-2.91-5.23-3.59-6.52-6.87-13.15-8.37-20.53-1.21-5.94-.93-11.91-.85-17.89.01-1.03.29-2.05.74-3.01.31-.44.7-.73,1.28-.63,3.68,4.42,8.63,5.21,13.85,4.36,6.88-1.12,12.41-4.41,15.48-11.03.64-1.39.95-2.87,1.34-4.33,1.35-2.52,1.43-4.93-.16-7.47-1.11-1.78-.56-2.5,1.63-2.7,8.13-.75,16.26-.72,24.37.31,1.51.19,3.03.23,4.54,0,.31-.05.63-.16.72-.52.09-.38-.2-.59-.46-.75-.95-.62-2-1-3.08-1.29-5.49-1.49-11.04-2.33-16.74-2.72-7.65-.52-15.12.4-22.6,1.65-.86.14-1.74.4-2.51-.29Z"/>
  <path class="cls-3" d="m409.26,351.67c-1.56,12.17-.33,23.9,5.41,34.94,1.62,3.12,3.22,6.24,5.09,9.22.68,1.07,1.21,2.25,1.72,3.41.33.74.06,1.41-.6,1.88-.59.43-1.22.37-1.79-.01-1.42-.94-2.52-2.22-3.44-3.63-4.37-6.62-8.05-13.59-10.69-21.09-.18-.52-.22-1.1-.75-1.53-5.82,4.1-12.45,5.56-19.45,5.47-4.25-.05-8.4-.9-12.46-2.2-6.97-2.23-13.49-5.37-19.3-9.86-.94-.73-1.82-1.56-2.68-2.39-.71-.69-1.18-1.52-.95-2.58.61-.75,1.46-.71,2.3-.7,1.51-.24,2.58.74,3.68,1.47,7.83,5.16,16.41,8.27,25.71,9.23,6.38.65,12.8.96,18.7-2.4.48-.14.84-.49,1.26-.71-.15-.08-.19.1-.29.12-.37.21-.69.49-1.11.59-12.04,3.78-23.55,3.19-33.83-4.77-6.93-5.37-7.27-14.5-1.2-20.85,1.33-1.39,2.85-2.55,4.42-3.66,1.66-1.16,3.33-1.66,5.38-.95,2.12.73,4.38.16,5.83-1.32,3.22-3.3,7.04-2.85,10.95-2.44,4.24.44,8.34,1.44,12.14,3.45,1.09.58,1.72.37,2.27-.75,2.24-4.61,5.68-8.08,10.28-10.34,1.62-.8,1.27-1.73.53-2.87-2.93-4.49-6.74-8.06-11.3-10.85-6.48-3.96-13.59-5.67-21.08-6.49-4.94-.55-9.7-.01-14.51.77-1.26.21-2.75.75-3.5-1.01-.34-1.31.26-2.12,1.39-2.7.54-.28,1.21-.35,1.69-1.04-.63-.48-1.27-.92-1.86-1.41-3.52-2.89-3.66-7.31-.28-10.38,2.68-2.44,5.97-3.62,9.43-4.42,2.03-.47,4.09-.76,6.16-.83,8.7-.3,17.4-.53,25.95,1.62,1.15.29,2.37.32,3.54.56,1.09.22,2.17.51,3.23.87,4.57,1.55,7.74,6.47,4.54,11.7-.43,1.59-1.64,2.47-2.97,3.22-2.31,1.3-4.83,1.96-7.32,2.48,1.66,1.24,3.94,1.74,4.98,3.87,3.33,2.62,6.17,5.66,8.27,9.36.7,1.24,1.44,2.48,1.76,3.87.35,1.46,1.1,1.29,2.06.68,5.74-1.01,11.48-1.98,17.33-2.15,8.84-.25,17.55.47,26,3.28.83.28,1.65.6,2.44.97.66.31,1.32.73,1.12,1.62-.18.76-.88.87-1.52.92-2.07.15-4.14.14-6.22-.1-8.29-.98-16.58-.83-24.87-.08-.13.01-.26.15-.66.39,1.29,1.31,2.4,2.72,2.57,4.61.17,1.87-.68,3.4-1.57,4.93-.52,1.18-1.26,2.23-2.27,3.02-4.85,3.8-9.92,7.2-16.03,8.69-2.59.63-5.23.52-7.83.23-1.87-.21-3.47-1.11-4.69-2.59-.14,0-.27-.52-.42-.06-.19.59-.37,1.18-.7,1.72Z"/>
  <path class="cls-8" d="m366.01,308.81c.94.9,2.06.71,3.16.48,1.88-.38,3.75-.79,5.67-.91,11.42-.7,22.28,1.06,32,7.55,4.5,3.01,8.34,6.69,10.87,11.58.18.35.33.71.62,1.36-6.33,2.38-10.77,6.7-13.18,13.17-3.46-2.15-7.05-3.41-10.84-4.07-3.32-.58-6.66-.8-10.02-.47-.96.09-1.71.34-2.41,1.23-2.07,2.63-5.44,3.46-8.61,2.26-.75-.28-1.3-.34-2,.04-3.35,1.83-6.27,4.12-8.29,7.42-2.88,4.71-2.67,9.89.57,14.37,1.77,2.44,4.04,4.31,6.71,5.67,8.81,4.49,17.98,5.13,27.44,2.49.77-.21,1.52-.46,2.29-.69.55-.21.68.08.64.55-2.85,2.31-6.25,3.17-9.78,3.37-12.12.69-23.41-2.12-33.82-8.4-1.77-1.07-3.55-2.14-5.32-3.21-1.25-.45-2.01-1.28-2.56-2.54-2.6-5.94-3.18-12.07-2.42-18.47.66-5.53,2.24-10.76,4.55-15.78,2.77-6.03,6.74-11.19,11.83-15.46.84-.7,1.72-1.46,2.91-1.54Z"/>
  <path class="cls-3" d="m558.47,305.43c-.84.7-1.78.6-2.72.29-2.04-.69-4.02-.42-6.1.06-5.56,1.3-11.24,1.49-16.92,1.51-4.16,0-8.31-.1-12.47-.26-1.64-.06-3.13.22-4.64.86-8.39,3.58-15.62,8.68-21.17,16-3.95,5.21-6.56,11-6.96,17.57-.65,10.61,3.6,18.97,12.18,25.11,5.71,4.09,12.24,6.12,19.12,7.14,8.96,1.33,17.69.18,26.23-2.61,3.49-1.14,6.94-2.4,10.31-3.86.8-.35,1.63-.67,2.46-.93,1.67-.52,2.82-.22,3.4.82.56,1.02.26,2.25-.99,3.39-.88.8-1.85,1.53-2.84,2.19-3.9,2.57-8.13,4.41-12.65,5.58-12.61,3.27-25.13,3.28-37.49-1.17-5.47-1.97-10.37-4.96-14.71-8.83-11.8-10.53-14.74-25.67-7.78-39.87,1.09-2.23,2.49-4.27,3.76-6.39,3.7-4.66,7.98-8.71,12.87-12.11,1-1.85,3.22-2.16,4.69-3.68-2.68-.9-5.55-1.29-7.11-3.94-3.23-3.31-3.06-9.16,2.63-12.21,2.72-1.46,5.65-2.26,8.66-2.64,6.5-.82,13-1.62,19.57-1.67,6.66-.05,13.25.48,19.74,2.01,1.79.42,3.55.96,5.18,1.83,5.13,2.76,6.21,7.8,2.66,12.43-.14.18-.25.39-.47.73.75.71,1.94,1.25,1.56,2.62Z"/>
  <path class="cls-11" d="m414.49,312.36c-1.97-1.28-3.94-2.56-6.24-4.06,4.43-1.16,8.66-2,11.56-5.51.06,3.29-1.55,5.75-3.92,7.82-.58.51-1.46.75-1.4,1.75Z"/>
  <path class="cls-4" d="m498.93,302.32c2.4,2.19,5.42,2.96,9.07,3.67-2.54,1.51-4.6,2.73-6.66,3.95-.04-.15-.02-.36-.11-.45-2.08-1.97-2.46-4.48-2.3-7.17Z"/>
  <path class="cls-3" d="m529.76,371.87c-9.21-.19-17.82-2.43-25.62-7.48-2.92-1.89-5.42-4.21-7.24-7.21-3.42-5.64-2.89-11.67,1.48-16.59,1.39-1.57,3.03-2.83,4.82-3.91,1.52-.91,2.79-1.51,4.78-.52,2.91,1.44,5.76.14,7.74-2.15,1.45-1.68,3.05-1.97,5.02-2.06,8.25-.41,16.01,1.45,23.46,4.85,4.54,2.07,8.22,5.19,10.96,9.38,3.96,6.07,3.33,12.49-1.72,17.69-3.7,3.81-8.4,5.74-13.45,6.88-3.35.76-6.76,1.19-10.23,1.12Z"/>
  <path class="cls-3" d="m472.17,404.23c-4.73-1.7-9.4-2.33-14.24-1.26-4.16.91-7.53,2.98-10.05,6.44-.61.84-1.14,1.75-1.97,2.4-.65.51-1.35.85-2.21.5-.93-.38-1.33-1.09-1.4-2.04-.1-1.24.29-2.37.81-3.46,1.56-3.28,3.98-5.81,7.06-7.64,8.28-4.92,16.84-4.85,25.5-1.14,1.31.56,2.22.76,3.43-.15,1.47-1.1,3.2-1.78,4.99-2.28.7-.19,1.41-.3,2.13-.25,1.76.13,3.18,1.21,3.57,2.72.38,1.47-.2,2.94-1.58,3.98-.84.64-1.82,1.02-2.8,1.34-3.13,1.03-5.66,2.91-7.82,5.35-1.11,1.26-2.27,2.48-3.42,3.7-.94,1-2.04,1.59-3.42.99-1.09-.48-1.48-1.87-1.17-3.6.21-1.13.78-2.09,1.29-3.08.39-.77,1.05-1.4,1.31-2.52Z"/>
  <path class="cls-14" d="m410.29,349.27c3.25,3.54,7.42,3.21,11.58,2.68,1.74-.22,3.44-.77,5.02-1.54,5.25-2.54,10.35-5.32,14.31-9.76-.54,4.84-3.14,8.5-6.93,11.24-6.05,4.37-12.69,5.75-19.89,3.15-1.92-.69-3.7-1.56-4.25-3.79-.44-.7-.43-1.37.17-1.98Z"/>
  <path class="cls-6" d="m410.29,349.27c-.06.66-.11,1.32-.17,1.98-.29.14-.57.28-.86.42-.21-.88.05-1.7.4-2.48.21-.46.45-.21.63.08Z"/>
  <path class="cls-5" d="m382.78,356.27c1.98-.02,4.11.25,6.1,1.22,2.51,1.23,3.84,3.46,3.45,5.74-.41,2.38-2.25,3.9-5.08,4.33-3.55.54-7.01.19-10.41-.89-2.52-.81-3.78-2.24-3.88-4.31-.09-1.96,1.38-4.08,3.52-4.99,1.94-.83,4.01-1.03,6.29-1.1Z"/>
  <path class="cls-15" d="m400.62,370.84c-.21-.18-.43-.37-.64-.55.19-.41.59-.41.95-.48.29-.14.56-.11.82.09-.24.48-.57.85-1.13.95Z"/>
  <path class="cls-1" d="m401.75,369.89c-.27-.03-.55-.06-.82-.09.23-.31.53-.5.89-.33.21.1.16.31-.08.42Z"/>
  <path class="cls-5" d="m525.86,366.96c-4.16-.27-8.25-.9-12.19-2.3-3.07-1.08-3.92-4.28-1.55-6.54,2.03-1.92,4.38-3.55,7.24-4.02,3.46-.57,6.85-.15,10.1,1.23.97.41,1.84.96,2.57,1.72,2.99,3.08,1.89,7.89-2.15,9.37-1.29.47-2.65.59-4.02.54Z"/>
</svg>