<?xml version="1.0" encoding="UTF-8"?>
<svg id="_图层_1" data-name="图层 1" xmlns="http://www.w3.org/2000/svg" viewBox="0 0 960 960">
  <defs>
    <style>
      .cls-1 {
        fill: #454794;
      }

      .cls-1, .cls-2, .cls-3, .cls-4, .cls-5, .cls-6, .cls-7, .cls-8, .cls-9 {
        stroke-width: 0px;
      }

      .cls-2 {
        fill: #fcd541;
      }

      .cls-3 {
        fill: #fdfcfb;
      }

      .cls-4 {
        fill: #a76861;
      }

      .cls-5 {
        fill: #f6b89f;
      }

      .cls-6 {
        fill: #060504;
      }

      .cls-7 {
        fill: #b16b1f;
      }

      .cls-8 {
        fill: #5a7dfe;
      }

      .cls-9 {
        fill: #f5b79f;
      }
    </style>
  </defs>
  <path class="cls-6" d="m734.56,480.38c-.02-.88-.08-1.76-.06-2.64.02-1.68.94-2.43,2.61-2.11,1.32.25,2.35,1.02,3.13,2.08,5.34,7.31,9.5,15.12,10.63,24.31.8,6.5.86,12.95-.97,19.26-2.98,10.27-8.77,18.37-18.63,23.15-.79.38-1.52.56-1.21,1.85,2.4,9.98,2.01,20.15,1.82,30.3-.03,1.84-.16,3.68-.35,5.5-.11.98.19,1.47,1.14,1.7,6.24,1.55,9.86,5.85,12.15,11.57,1.13,2.82,2.37,5.6,2.69,8.66.73,7.09-1.79,13.01-6.61,18.06-2.82,2.96-5.96,5.57-9.42,7.75-1.38.87-2.1,1.85-2.44,3.52-.76,3.79-.84,7.62-1.22,11.43-.81,8.27-1.38,16.57-2.9,24.75-1.11,5.98-2.64,11.84-5.21,17.39-.74,1.6-1.59,3.14-2.76,4.47-3.06,3.48-7.01,4.36-11.27,2.52-2.08-.9-3.87-2.23-5.58-3.67-3.25-2.75-6.09-5.87-8.44-9.38-.99.14-1.39.9-1.95,1.44-7.42,7.1-15.46,13.39-24.41,18.45-2.92,1.65-5.9,3.19-9.15,4.11-7.26,2.05-11.5-.8-12.39-8.24-.59-4.91.1-9.74.75-14.56.96-7.05,1.7-14.12,2.53-21.18.26-2.18.16-2.24-1.91-1.69-4.78,1.26-9.5,2.81-14.39,3.64-3.01.51-6.05.45-9.08.2-.55-.05-1.1-.22-1.63-.36-5.86-1.59-8.08-5.75-5.73-11.33,3.04-7.22,6.55-14.21,10.94-20.73,1.03-1.52,2.02-3.07,3.01-4.62.95-1.49.95-1.51-.28-2.71-3.16-3.07-5.95-6.46-8.47-10.07-4.25-6.08-6.4-12.79-6.45-20.21-.03-3.74,1.31-7.02,3.06-10.2,4.24-7.73,10.79-11.52,19.6-11.34,1.68.03,3.35.12,5.02.28.89.08,1.47-.04,1.94-.93,4.54-8.68,8.2-17.67,9.94-27.36.1-.55.17-1.1.24-1.66.08-.69-.22-.99-.93-1.05-1.27-.1-2.55-.2-3.8-.44-5.26-1-9.47-3.71-12.57-8.08-2.66-3.74-3.21-7.84-1.34-12.04,2.74-6.16,6.3-11.84,10.7-16.96,2.41-2.81,5.44-4.64,9.02-5.58.96-.02,1.92-.15,2.86-.04,1.23.15,1.68,1.22,1.06,2.31-.41.72-1.08,1.17-1.78,1.57-.97.56-2.02,1-2.91,1.67-6.6,5.01-10.71,11.74-13.21,19.51-.48,1.49-.3,3.02.96,4.21,1.59,2.93,4.42,4.03,7.4,4.72,4.46,1.05,8.9.36,13.27-.69,3.1-.75,6.16-1.66,9.25-2.48,2.31-.61,4.28-.15,5.72,1.88,1.25,1.76,2.98,2.86,4.92,3.69,4.04,1.75,8.22,3.09,12.49,4.16,9.77,2.47,19.55,2.75,29.35.11,9.77-2.62,15.79-9.04,18.58-18.54,1.62-5.52,1.55-11.21.55-16.86-.17-.98.08-2.11-.76-2.93-.39-3.65-1.55-7.07-3.13-10.37-1.44-3-2.79-6.04-3.95-9.16Zm-101.11,96.31c-3.01-.21-5.73.76-8.03,2.55-5.15,4-8.06,9.2-7.58,15.9.33,4.59,1.55,8.95,3.91,12.93,3.15,5.32,6.92,10.14,11.65,14.16.85.72,1.62,1.54,2.66,2,1.69,1.6,3.75,2.66,5.75,3.79,9.53,5.33,19.93,7.42,30.67,8.24.88.51,1.88.4,2.81.38,5.35-.14,10.7.13,16.05-.33,6.07-.53,12.02-1.45,17.93-2.98,10.27-2.65,19.09-7.64,26.35-15.35,3.3-3.5,5.45-7.56,5.09-12.51-.35-4.86-2.02-9.35-4.64-13.46-.96-1.52-2.54-2.41-4.12-3.21-.44-.22-1.04-.35-1.16.3-.17.98-.63,1.94.04,2.99,1.7,2.64,1.27,4.2-1.43,5.79-1.54.91-3.26,1.29-4.92,1.84-7.34,1.29-14.75,1.62-22.19,1.47-9.92-.19-19.8-.87-29.64-2.08-8.88-1.09-17.73-2.41-26.4-4.69-4.18-1.1-8.31-2.32-12.14-4.37-1.41-.75-2.79-1.58-3.74-2.93-1.18-1.67-1.21-3.53-.08-4.88.64-.77,1.44-1.31,2.5-1.08.95.21,1.5.85,1.68,1.82.14.75.14,1.62,1.35,1.68.76-2.9,2.97-5.17,3.76-8.24-2.2-.11-4.18-.28-6.13.28Zm90.3-14.33c.31-4.49-.32-8.93-.77-13.37-.1-1.03-.55-1.43-1.57-1.19-.54.12-1.1.22-1.65.31-4.11.66-8.23,1.16-12.4,1.03-10.38-.32-20.18-3-29.61-7.2-2.13-.95-4.14-2.13-5.78-3.8-.81-.83-1.54-.87-2.56-.45-2.14.89-4.39,1.48-6.64,2.02-2.85.69-2.86.67-3.21,3.47-.1.79-.43,1.55-.29,2.37-.93,1.2-.71,2.72-1.11,4.07-2.61,8.65-5.64,17.13-9.62,25.26-2.1,4.28-4.1,8.6-6.72,12.67.53.22.89.41,1.27.52,1.84.52,3.68,1.08,5.54,1.52,20.89,4.95,42.06,6.74,63.48,5.73,2.87-.14,5.72-.57,8.57-.94,1.7-.22,1.67-.29,1.78-2.12.08-1.35.21-2.7.35-4.05.88-8.59,1.46-17.19.93-25.82Zm-49.3,79.38c-3.08-.42-6.18-.75-9.24-1.27-10.99-1.87-21.35-5.39-30.61-11.76-.36-.25-.67-.7-1.33-.46-2.13,4.68-5.1,8.96-7.49,13.57-1.96,3.76-3.56,7.68-5.14,11.6-.8,1.98-.59,2.25,1.58,2.63,1.43.25,2.86.16,4.3.05,4.58-.36,8.92-1.78,13.33-2.89,2.87-.72,5.69-1.62,8.64-1.96,2.99-.35,4.91,1.09,5.56,4.01.23,1.02.31,2.06.22,3.1-.18,2.15-.35,4.3-.59,6.45-.95,8.5-1.94,16.99-2.89,25.48-.23,2.07-.31,4.15,0,6.22.33,2.13.78,2.42,2.89,1.85,2.02-.54,3.88-1.47,5.72-2.44,7.96-4.2,15.15-9.5,21.92-15.39,6.43-5.59,11.93-12.01,17.09-18.76,1.22-1.6,2.58-3.05,4.18-4.27.8-.61,1.67-1.02,2.64-.37,1.02.69,1.04,1.66.72,2.77-.67,2.33-1.75,4.45-3.04,6.49-1.92,3.05-4.1,5.91-6.45,8.64-.55.64-1,1.16-.29,2.04,3.13,3.88,6.56,7.44,10.71,10.22,2.64,1.77,4.03,1.34,5.55-1.51,1.02-1.91,1.73-3.95,2.41-6,3.49-10.56,4.62-21.52,5.58-32.51.54-3.96,1.07-7.92,1.62-11.95-.51.05-.67.03-.82.08-14.69,5.26-29.82,7.29-45.37,6.24-.48-.03-.95-.13-1.4.1Z"/>
  <path class="cls-8" d="m640.88,526.84c-1.26-1.19-1.44-2.72-.96-4.21,2.51-7.77,6.61-14.51,13.21-19.51.88-.67,1.94-1.11,2.91-1.67.7-.4,1.36-.84,1.78-1.57.62-1.09.18-2.17-1.06-2.31-.94-.11-1.91.02-2.86.04,2.61-2.65,5.88-4.35,9.01-6.24,6.92-4.18,14.57-6.5,22.24-8.77,6.67-1.97,13.34-3.92,20.23-5,4.42-.69,8.85-1.33,13.35-1.25,5.2.09,10.16,1,14.74,3.61.34.19.74.28,1.11.42,1.16,3.12,2.51,6.16,3.95,9.16,1.58,3.3,2.73,6.72,3.13,10.37-.5.18-.7.62-.93,1.04-2.41,4.41-5,8.68-8.29,12.54-4.31,5.06-9.42,9.07-15.15,12.31-7.2,4.08-15.02,5.63-23.25,5.35-3.88-.13-7.58-.94-11.04-2.75-2.62-1.37-5.08-3.01-7.51-4.68-2.43-1.66-4.92-1.77-7.38-.1-2.75,1.86-5.82,2.98-8.97,3.9-4.5,1.32-9.06,1.68-13.71.74-1.58-.32-2.94-1.23-4.54-1.41Z"/>
  <path class="cls-9" d="m720.42,647.28c-.96,10.99-2.09,21.95-5.58,32.51-.68,2.05-1.38,4.09-2.41,6-1.52,2.84-2.91,3.28-5.55,1.51-4.15-2.78-7.58-6.34-10.71-10.22-.71-.88-.26-1.4.29-2.04,2.35-2.73,4.53-5.59,6.45-8.64,1.28-2.04,2.36-4.16,3.04-6.49.32-1.11.3-2.07-.72-2.77-.96-.65-1.83-.24-2.64.37-1.6,1.22-2.96,2.67-4.18,4.27-5.15,6.75-10.66,13.17-17.09,18.76-6.77,5.89-13.96,11.2-21.92,15.39-1.84.97-3.7,1.9-5.72,2.44-2.11.57-2.56.28-2.89-1.85-.32-2.07-.24-4.15,0-6.22.95-8.5,1.94-16.99,2.89-25.48.24-2.14.41-4.3.59-6.45.09-1.04,0-2.07-.22-3.1-.65-2.92-2.57-4.36-5.56-4.01-2.95.34-5.77,1.24-8.64,1.96-4.41,1.1-8.75,2.53-13.33,2.89-1.44.11-2.87.2-4.3-.05-2.17-.38-2.37-.65-1.58-2.63,1.58-3.93,3.19-7.84,5.14-11.6,2.4-4.6,5.37-8.89,7.49-13.57.65-.24.97.22,1.33.46,9.27,6.37,19.63,9.89,30.61,11.76,3.06.52,6.16.85,9.24,1.27.56,1.36,1.92,1.61,3.06,2.06,5.35,2.15,10.87,3.55,16.66,3.99,7.1.54,14.17.59,21.26,0,1.67-.14,3.29-.7,4.98-.52Z"/>
  <path class="cls-5" d="m723.75,562.36c.53,8.64-.04,17.24-.93,25.82-.14,1.35-.27,2.7-.35,4.05-.11,1.84-.08,1.9-1.78,2.12-2.85.37-5.7.81-8.57.94-21.42,1.01-42.6-.79-63.48-5.73-1.86-.44-3.7-1-5.54-1.52-.38-.11-.74-.3-1.27-.52,2.62-4.07,4.62-8.39,6.72-12.67,3.98-8.12,7.01-16.61,9.62-25.26.41-1.35.18-2.87,1.11-4.07,2.94,1.31,6,.75,8.93.24,2.38-.41,4.16-.06,6.2,1.28,8.09,5.31,16.59,9.86,25.8,12.95,5.48,1.83,11.05,2.98,16.88,2.83,2.24-.06,4.42-.65,6.66-.47Z"/>
  <path class="cls-7" d="m724.5,599.72c1.66-.55,3.38-.93,4.92-1.84,2.7-1.59,3.14-3.14,1.43-5.79-.67-1.05-.21-2.01-.04-2.99.12-.65.72-.52,1.16-.3,1.58.8,3.15,1.69,4.12,3.21,2.61,4.11,4.29,8.6,4.64,13.46.35,4.95-1.79,9.01-5.09,12.51-7.27,7.71-16.09,12.7-26.35,15.35-5.91,1.52-11.86,2.45-17.93,2.98-5.35.47-10.7.19-16.05.33-.94.02-1.93.14-2.81-.38.99-.07,1.97-.15,2.99-.22-.17-.54-.6-.62-.91-.82-4.13-2.71-7.19-6.28-8.75-11.01-1.43-4.32-.43-8.1,2.55-11.49,3.68-4.18,8.59-5.53,13.8-6.32,5.14-.78,10.34-.44,15.5-.81,4.29-.3,8.59-.33,12.84-1.08,4-.7,7.99-1.47,11.81-2.89.96-.36,2.05-.59,2.18-1.9Z"/>
  <path class="cls-2" d="m724.5,599.72c-.14,1.31-1.22,1.54-2.18,1.9-3.82,1.42-7.81,2.19-11.81,2.89-4.25.75-8.55.78-12.84,1.08-5.17.36-10.36.03-15.5.81-5.22.79-10.13,2.14-13.8,6.32-2.98,3.39-3.98,7.18-2.55,11.49,1.56,4.73,4.63,8.3,8.75,11.01.31.21.74.28.91.82-1.02.08-2,.15-2.99.22-10.74-.83-21.14-2.91-30.67-8.24-2.01-1.12-4.06-2.18-5.75-3.79,4.68.31,7.57-4.22,5.73-8.81-.63-1.56-1.44-3.02-2.33-4.45-1.65-2.64-3.32-5.27-4.92-7.94-2.72-4.54-5.1-9.22-5.87-14.55-.55-3.83.04-9.46,4.78-11.81,1.95-.55,3.93-.39,6.13-.28-.79,3.07-3,5.34-3.76,8.24-1.21-.07-1.21-.93-1.35-1.68-.18-.96-.72-1.61-1.68-1.82-1.06-.23-1.86.31-2.5,1.08-1.13,1.36-1.09,3.21.08,4.88.95,1.35,2.33,2.17,3.74,2.93,3.83,2.05,7.97,3.28,12.14,4.37,8.67,2.28,17.52,3.6,26.4,4.69,9.84,1.21,19.73,1.89,29.64,2.08,7.44.14,14.85-.18,22.19-1.47Z"/>
  <path class="cls-1" d="m640.88,526.84c1.6.18,2.96,1.09,4.54,1.41,4.65.94,9.21.58,13.71-.74,3.15-.92,6.22-2.04,8.97-3.9,2.46-1.67,4.95-1.55,7.38.1,2.44,1.67,4.89,3.31,7.51,4.68,3.46,1.81,7.16,2.62,11.04,2.75,8.23.28,16.05-1.28,23.25-5.35,5.73-3.24,10.84-7.25,15.15-12.31,3.29-3.86,5.88-8.13,8.29-12.54.23-.42.43-.86.93-1.04.85.82.59,1.95.76,2.93.99,5.65,1.07,11.34-.55,16.86-2.79,9.5-8.81,15.92-18.58,18.54-9.8,2.63-19.58,2.35-29.35-.11-4.26-1.08-8.44-2.42-12.49-4.16-1.93-.84-3.67-1.93-4.92-3.69-1.44-2.02-3.41-2.49-5.72-1.88-3.08.82-6.15,1.74-9.25,2.48-4.37,1.05-8.81,1.74-13.27.69-2.97-.7-5.8-1.79-7.4-4.72Z"/>
  <path class="cls-4" d="m723.75,562.36c-2.24-.18-4.42.41-6.66.47-5.83.16-11.4-.99-16.88-2.83-9.22-3.08-17.72-7.64-25.8-12.95-2.04-1.34-3.82-1.69-6.2-1.28-2.93.51-5.99,1.07-8.93-.24-.14-.82.19-1.58.29-2.37.35-2.8.36-2.79,3.21-3.47,2.25-.54,4.5-1.13,6.64-2.02,1.02-.42,1.75-.38,2.56.45,1.64,1.67,3.65,2.86,5.78,3.8,9.43,4.2,19.24,6.88,29.61,7.2,4.17.13,8.29-.37,12.4-1.03.55-.09,1.1-.18,1.65-.31,1.01-.23,1.46.16,1.57,1.19.45,4.45,1.07,8.88.77,13.37Z"/>
  <path class="cls-3" d="m633.45,576.69c-4.74,2.35-5.33,7.98-4.78,11.81.77,5.33,3.15,10.01,5.87,14.55,1.6,2.67,3.27,5.3,4.92,7.94.89,1.42,1.71,2.89,2.33,4.45,1.84,4.59-1.05,9.12-5.73,8.81-1.04-.46-1.82-1.28-2.66-2-4.73-4.02-8.49-8.84-11.65-14.16-2.36-3.99-3.58-8.35-3.91-12.93-.48-6.7,2.42-11.91,7.58-15.9,2.3-1.79,5.02-2.75,8.03-2.55Z"/>
  <path class="cls-4" d="m720.42,647.28c-1.69-.18-3.31.38-4.98.52-7.09.6-14.17.55-21.26,0-5.79-.44-11.31-1.84-16.66-3.99-1.14-.46-2.5-.7-3.06-2.06.45-.24.93-.14,1.4-.1,15.55,1.05,30.68-.97,45.37-6.24.14-.05.31-.03.82-.08-.55,4.03-1.08,7.99-1.62,11.95Z"/>
</svg>