<?xml version="1.0" encoding="UTF-8"?>
<svg id="_图层_1" data-name="图层 1" xmlns="http://www.w3.org/2000/svg" viewBox="0 0 960 960">
  <defs>
    <style>
      .cls-1 {
        fill: #fbfdfb;
      }

      .cls-1, .cls-2, .cls-3, .cls-4, .cls-5, .cls-6, .cls-7, .cls-8, .cls-9, .cls-10, .cls-11, .cls-12, .cls-13, .cls-14 {
        stroke-width: 0px;
      }

      .cls-2 {
        fill: #454794;
      }

      .cls-3 {
        fill: #a76861;
      }

      .cls-4 {
        fill: #f6b9a0;
      }

      .cls-5 {
        fill: #f6b89f;
      }

      .cls-6 {
        fill: #050404;
      }

      .cls-7 {
        fill: #a86760;
      }

      .cls-8 {
        fill: #050403;
      }

      .cls-9 {
        fill: #fdd541;
      }

      .cls-10 {
        fill: #5a7dfe;
      }

      .cls-11 {
        fill: #f5b79f;
      }

      .cls-12 {
        fill: #b06b1f;
      }

      .cls-13 {
        fill: #a66760;
      }

      .cls-14 {
        fill: #f9d23f;
      }
    </style>
  </defs>
  <path class="cls-8" d="m229.29,508.16c-.82,2.53-1.66,3.27-4.23,3.34-5.02.15-9.69-1.19-13.84-3.95-5.92-3.93-9.81-9.31-10.88-16.49-.67-4.55.5-8.72,2.79-12.62,1.85-3.13,4.28-5.77,6.95-8.21,1.18-1.08,2.4-2.11,3.59-3.15,0-.78-.65-1.09-1.05-1.55-3.31-3.69-6.71-7.3-9.93-11.07-8.38-9.81-13.82-21.24-18.04-33.31-1.45-4.15-2.42-8.44-2.92-12.83-1.29-11.21,1.76-21.27,8.4-30.19,4.49-6.03,9.59-11.57,15.29-16.52,1.49-1.29,1.4-1.25.71-3.09-2.79-7.44-4.19-15.07-2.85-23.03.98-5.84,3.85-10.6,8.23-14.51,4.91-4.38,10.67-6.96,17.09-8.15,7.96-1.49,15.98-2.43,24.08-1.47,1.78.21,3.01-.34,4.26-1.5,5.58-5.15,11.17-10.29,17.47-14.58,1.65-1.12,3.26-2.3,5.07-3.19,4.89-2.4,9.75-1.61,13.64,2.23,1.43,1.41,1.45,1.43,2.87,0,4.02-4.02,8.22-7.83,12.68-11.35,2.73-2.16,5.71-3.83,9.21-4.36,6.08-.93,11.04,1.01,14.74,5.93,3.51,4.68,5.03,10.11,5.64,15.84.82,7.73-.88,15.11-3.14,22.4-3.32,10.73-9,20.08-16.83,28.12-2.3,2.36-4.72,4.58-7.88,5.74-1.16.43-1.09,1.07-.76,2.04,1.2,3.49,2.06,7.07,2.42,10.73.97,9.89-1.41,18.88-8.52,25.98-5.4,5.39-12.08,8.58-19.96,8.58-2.92,0-5.7-.62-8.38-1.76-.58-.25-1.1-.67-1.77-.67-.6.47-.24,1.03-.15,1.53,1.07,6.06,4.23,11.14,7.61,16.12.51.75,1.15.7,1.89.62,8.21-.92,15.7,1.34,22.71,5.35,7.98,4.57,12.33,11.6,13.3,20.73.15,1.43.18,2.87.26,4.31.07,1.26-.25,2.38-1.22,3.25-.27-.06-.38.1-.43.33-.16.06-.31.11-.47.17-2.98-.11-3.62-.53-4.33-3.38-.85-3.4-2.72-6.26-4.56-9.16-2.29-3.6-5.41-6.24-9.31-7.97-1.89-.85-3.82-1.59-5.8-2.21-3.91-1.22-7.85-1.28-11.79-.22-4.83,1.29-9.22,3.52-13.25,6.46-.52.38-1.04.74-1.34,1.33-.87.27-1.52.86-2.16,1.45-8.72,7.89-15.51,17.1-19.13,28.42-.6,1.87-1.55,3.31-3.47,3.95-1.05-.09-1.97-.5-2.83-1.08-.72-.89-1.06-1.94-1.27-3.05-.11-.58-.25-1.06-1.07-.9-2.89.55-5.85.77-8.63,1.79-6.4,2.33-11.51,6.51-15.84,11.61-4.61,5.43-4.9,12.52.02,18.07,2.77,3.12,6.23,4.87,10.08,6.08,2.05.64,4.18,1,6.12,1.97.31.35.62.7.93,1.05Zm-13.43-180.97v-.03c-3.46,2.47-4.98,6.07-5.71,10.09-.68,3.75-.33,7.5.28,11.22.42,2.56.77,5.16,1.85,7.85,3.85-2.82,7.4-5.69,11.41-8.22-.51-.29-.71-.42-.93-.52-1.04-.46-1.76-1.17-1.6-2.38.18-1.33,1.23-1.77,2.36-2.05.38-.1.79-.12,1.19-.14,2.4-.08,4.79-.08,7.18.25,9.34,1.29,17.83,4.86,25.94,9.5.73.42,1.13,1.41,2.17,1.28,4.08,2.77,8.04,5.7,11.63,9.08,6.03,5.68,10.91,12.18,14.34,19.75.23,1.01.58,2.01.65,3.03.11,1.46-.48,2.69-1.82,3.38-1.32.67-2.61.53-3.82-.39-.42-.32-.61-.92-1.31-1.05-1.44,1.94-3.1,3.74-4.31,5.88,3.26,2.06,7,2.71,10.89,1.84,8.07-1.81,13.67-6.63,16.91-14.17,1.24-2.88,1.89-5.93,1.48-9.11.02-.4.07-.79.05-1.19-.37-5.64-2.01-10.91-4.38-16.03-3.54-7.62-8.18-14.38-14.74-19.71-4.34-4.25-9.37-7.47-14.88-9.98-4.78-2.65-9.88-4.42-15.26-5.36-9.01-1.59-17.99-.74-26.92.62-4.63.71-8.87,2.55-12.22,6.03-.3.05-.5.18-.43.53Zm82.04,9.61c3.08,4.15,5.86,8.49,8.2,13.12,7.24-5.59,12.29-12.61,16.12-20.53,1.52-3.15,2.97-6.36,3.57-9.86.94-1.89,1.2-3.96,1.61-5.99.95-4.71,1.5-9.46.77-14.27-.51-3.34-1.48-6.53-3.19-9.47-1.36-2.32-3.38-3.26-6.03-3.02-1.81.17-3.35.96-4.85,1.89-4.63,2.89-8.78,6.36-12.48,10.37-2.6,2.82-5.37,5.48-8.51,7.7-5.34,3.78-10.74,7.47-16.5,10.6-.44.24-1.11.28-1.14,1.12,5.82,2.99,11.13,6.79,15.83,11.41,2.27,2.24,4.42,4.6,6.62,6.9Zm-53.52,112.42c4.24-7.1,9.47-13.38,15.75-18.76,4.37-3.47,9.02-6.49,14.44-8.59-1.6-2.06-3.03-3.87-4.23-5.84-2.57-4.21-4.38-8.74-5.02-13.62-1.05-8.05,2.54-14.4,7.85-20.01.55-.59,1.28-.95,2-1.29,1.51-.72,1.54-.75.61-2.2-1.04-1.61-2.16-3.17-3.43-4.61-8.11-9.23-17.99-15.99-29.16-20.95-2.63-1.17-5.36-2.08-8.1-2.95-.82-.26-1.5-.36-1.94.68-1.02,2.45-3.01,4.07-5.06,5.64-1.25.96-2.73,1.65-3.64,3.03-10.4,6.77-19.59,14.94-27.38,24.56-8.55,10.55-9.78,22.4-5.19,35-.09.28-.02.51.23.67.15.38.29.77.44,1.15-.25.6.11,1.09.31,1.59,2.56,6.47,5.64,12.69,9.35,18.59,4.65,7.4,10.76,13.67,15.87,20.71.84,1.16,1.6.85,2.62.28,5.98-3.31,12.21-5.91,19.14-6.4.87-.06,1.24-.54,1.59-1.21.96-1.84,1.96-3.65,2.94-5.48Zm43.79-148.13c-2.65-3.25-4.07-3.62-7.36-1.71-6.52,3.78-12.23,8.63-17.82,13.64.55.7,1.36.62,1.98.95,1.74.95,3.24.54,4.89-.43,6.35-3.72,12.14-8.23,18.31-12.45Z"/>
  <path class="cls-6" d="m733.22,473.29c.05-.56.06-1.12.16-1.67.46-2.65,2.49-3.68,4.97-2.56,1.28.58,2.24,1.53,3.01,2.67,1.97,2.91,4.02,5.78,5.88,8.76,5.95,9.54,7.69,19.89,5.45,30.85-2.24,10.93-8.64,18.49-19.07,22.59-.74.29-1.49.57-2.24.84-.74.27-1.49.52-2.2.76-.07.6.15,1.02.35,1.47,2.81,6.33,4.53,12.95,5.42,19.81.44,3.41,1.03,6.8,1.39,10.21.14,1.28.64,1.72,1.83,2.02,5.52,1.39,10.4,4.08,14.7,7.77,6.06,5.21,9.37,11.69,8.52,19.86-.56,5.34-2.97,9.9-6.34,13.99-3.23,3.91-7.01,7.25-11.24,10.02-1.34.88-1.71,1.81-1.63,3.33.26,4.71.63,9.42.49,14.14-.38,12.47-2.98,24.39-8.79,35.52-2.73,5.23-6.3,9.58-11.86,12.07-3.46,1.55-6.99,2.39-10.69,1.2-1.34-.43-1.71.4-2.28,1.12-4.19,5.26-9.23,9.5-15.18,12.66-2.62,1.39-5.31,2.58-8.22,3.25-1.34.31-2.68.43-4.04.39-3.72-.09-6.38-1.85-7.98-5.17-1.2-2.49-1.62-5.17-1.6-7.92.04-5.31,1.09-10.48,2.25-15.63.25-1.09.58-2.16.85-3.25.11-.43.54-.92.09-1.32-.56-.5-1.03.08-1.49.3-1.45.68-2.84,1.47-4.31,2.09-2.96,1.25-6.03,2.12-9.28,2.12-4.85,0-8.52-3.24-9.1-8.09-.22-1.84-.08-3.67.23-5.49.97-5.86,2.88-11.45,4.86-17.03,1.47-4.13,2.95-8.26,4.42-12.38-.85-.65-1.81-.83-2.69-1.18-5.19-2-10.02-4.61-14.16-8.36-4.31-3.9-7.45-8.52-8.55-14.35-.96-5.09.05-9.85,2.3-14.41,2.23-4.52,5.53-8.2,9.32-11.45,3.47-2.98,7.21-5.58,11.5-7.26,1.07-.42,1.39-1.01,1.47-2.1.76-10.89.07-21.73-1.24-32.54-.41-3.33-.86-6.66-1.6-9.93-.47-2.08-.44-2.1-2.52-2.19-3.77-.15-6.97-1.58-9.65-4.21-2.09-2.06-3.16-4.57-3.29-7.49-.18-4.17.81-8.08,2.51-11.85,2.38-5.26,5.99-9.61,10.12-13.56,1.78-1.7,2.55-1.75,4.69-.7.18.8.12,1.46-.46,2.2-1.82,2.32-3.54,4.72-5.26,7.11-2.01,2.8-3.55,5.86-4.59,9.15-.78,2.46-1.16,4.97-.82,7.55.35,2.63,2.58,4.44,5.28,4.38,1.62.47,3.16.05,4.67-.49,3.87-1.39,7.27-3.61,10.61-5.96,3.48-2.45,6.14-2.29,9.24.61,1.52,1.42,3.07,2.8,4.78,3.98,10.65,7.38,22.52,9.83,35.27,8.55,4.14-.42,8.19-1.22,12.1-2.71,6.6-2.52,11.21-6.87,13.08-13.86,1.52-5.67,1.58-11.37.24-17.04-1.15-4.85-3.24-9.3-6.3-13.27-1.01-2.68-2.71-5.06-3.35-7.9Zm-17.94,190.15c.27-.05.39-.21.34-.49.98-1.99,1.6-4.18,3.2-5.84,1.07-1.1,2.1-2.41,3.85-1.69,1.77.73,1.52,2.41,1.51,3.93-.03,2.56-1.3,4.73-2.15,7.04-.22.1-.34.25-.23.51-.07.31-.15.61-.22.92-.19.25-.43.47-.56.74-1.82,4.09-3.9,8.04-6.38,11.78-.12.18-.12.44-.24.96,6.37-1.54,10.54-5.26,12.92-11.11.39-.69.81-1.37,1.16-2.08,3.53-7.16,5.38-14.82,6.53-22.66.47-3.23,1.16-6.44.9-9.74.05-1.67.14-3.35.14-5.02,0-1.62.24-3.26,0-4.8-.35-.06-.44-.1-.51-.08-.3.11-.6.22-.89.36-16.16,7.82-33.28,10.93-51.14,10.41-1.26-.04-2.51-.52-3.78-.08-4.21-.9-8.53-1.19-12.72-2.24-1.58-.4-1.58-.31-1.97,1.37-.44,1.86-.88,3.73-1.43,5.56-1.18,3.89-2.44,7.76-3.66,11.64-1.15,3.66-2.03,7.39-2.52,11.19-.52,4.06.59,5.01,4.48,3.98,1.39-.37,2.73-.87,4.04-1.47,2.62-1.19,5.12-2.61,7.6-4.06,2.55-1.49,5.12-2.93,7.68-4.4,1.82-1.05,3.84-1.55,5.83-2.12,1.1-.31,2.24-.37,3.05.72.67.9.49,1.93-.54,3.25-1.64,2.08-3.46,3.97-5.73,5.39-.69.43-1.29.9-1.51,1.75-1.59,6.01-3.37,11.99-3.84,18.24-.21,2.86-.46,5.75.35,8.57.8,2.78,1.8,3.4,4.31,2.67.49.11.94-.08,1.4-.22,4.33-1.32,8.14-3.63,11.72-6.35,5.95-4.52,10.25-10.45,14.18-16.67,1.95-3.09,3.66-6.34,4.84-9.83v-.02Zm-11.45-35.45c.95-.05,1.88-.17,2.75-.58.24.02.48.1.71.06,10.79-1.82,21.13-5,30.62-10.57,2.95-1.73,5.86-3.57,8.16-6.17,3.45-2.76,5.83-6.31,7.39-10.39,1.82-4.76,1.39-9.39-1.28-13.77-.88-1.44-1.89-2.76-3.05-3.98-3.01-3.18-6.7-5.39-10.51-7.42-.46-.25-.9-.7-1.52-.36,0,1.59.04,3.19-.01,4.78-.03.96.12,1.52,1.22,1.93,2.08.78,2.5,2.61,1.29,4.45-.39.6-1.04,1-1.28,1.71-.44-.03-.74.24-1.06.47-4.41,3.12-9.26,5.25-14.49,6.57-5.33,1.34-10.77,2.13-16.13,3.29-2.24.02-4.41.5-6.6.88-1.86.11-3.73.18-5.59.33-1.31.1-2.65,0-3.92.48-5.91.22-11.82.34-17.73-.04-5.79-.37-11.36-1.68-16.6-4.26-1.08-.53-2.15-1.09-2.89-2.08-.57-.76-.72-1.63-.26-2.48.47-.88,1.33-1.12,2.26-.96.94.16,1.86.4,3.09.67-.39-2.82.38-5.45.37-8.51-3.16,2.09-5.9,4.11-8.38,6.47-1.55,1.48-3.15,2.94-4.17,4.88-1.47,1.42-2.3,3.24-3.04,5.07-2.38,5.83-1.69,11.32,2.42,16.11,5.05,5.89,11.79,9.03,19.15,10.99,4.72,1.73,9.66,2.37,14.62,2.91.57.35,1.22.35,1.85.39,7.1.47,14.19.19,21.27-.48.46-.04.91-.26,1.36-.39Zm20.63-41.21c1.61-.21,3.01-1.03,4.48-1.62.64-.26,1.02-.7.95-1.48-.27-2.86-.11-5.74-.36-8.62-.48-5.5-1.42-10.92-2.13-16.38-.9-6.91-2.38-13.68-4.34-20.36-.29-1-.59-1.52-1.78-1.27-1.32.28-2.69.31-4.04.44-6.08.58-12.15.41-18.11-.95-9.66-2.2-18.46-6.19-25.88-12.88-1.01-.91-1.83-1.01-2.96-.31-1.36.84-2.81,1.52-4.19,2.32-1.3.75-3.34.83-3.83,2.14-.52,1.39.64,3.02,1.04,4.55.02.07.11.12.16.17.36,2.04.75,4.08,1.07,6.12,2.11,13.55,2.83,27.18,2.26,40.87-.18,4.19.06,8.46-1.5,12.35.26.5.59.52.9.57,4.43.75,8.89,1.12,13.37.94,11.43-.46,22.8-1.63,34.03-3.85,3.67-.73,7.38-1.33,10.88-2.75Z"/>
  <path class="cls-10" d="m229.29,508.16c-.31-.35-.62-.7-.93-1.05.2-.24.35-.58.61-.71,2.59-1.25,4.39-3.41,6.23-5.48,2.75-3.09,3.89-6.6,2.68-10.79-1.04-3.59-1.52-7.31-1.35-11.06.12-2.71.52-5.38,2.42-7.54.86.58,1.79.99,2.83,1.08.94,2.57,2.53,4.46,5.41,4.74,3.53.34,5.97-1.28,7.09-4.72.57-1.74,1.03-3.52,1.36-5.32,1.69-9.19,4.68-17.86,9.91-25.68.55-.82,1.29-1.68.99-2.84.3-.59.82-.96,1.34-1.33,4.04-2.94,8.42-5.17,13.25-6.46,3.94-1.06,7.88-.99,11.79.22,1.98.62,3.91,1.36,5.8,2.21,3.89,1.74,7.01,4.37,9.31,7.97,1.84,2.89,3.71,5.75,4.56,9.16.71,2.85,1.35,3.28,4.33,3.38-.06.06-.12.17-.16.17-2.37-.31-3.13,1.21-3.89,3.08-.88,2.15-2.42,3.92-4,5.63-6.48,7.01-13.94,12.85-21.66,18.42-9.21,6.65-18.94,12.42-28.96,17.72-7.07,3.74-14.36,6.96-22.33,8.32-2.2.37-4.42.59-6.63.87Z"/>
  <path class="cls-10" d="m733.22,473.29c.63,2.84,2.34,5.22,3.35,7.9-1.09.73-1.29,1.96-1.65,3.08-1.45,4.41-3.2,8.69-5.4,12.78-2.73,5.07-6.33,9.39-11.11,12.64-8.02,5.46-16.86,7.96-26.51,6.44-4.46-.7-8.96-1.63-12.99-3.94-1.25-.72-2.49-1.44-3.75-2.12-3.79-2.04-7.28-1.55-10.67,1.07-2.34,1.81-4.4,3.93-6.62,5.87-1.66,1.45-3.68,2.53-4.99,4.38-2.71.05-4.94-1.75-5.28-4.38-.34-2.57.04-5.09.82-7.55,1.04-3.29,2.58-6.35,4.59-9.15,1.72-2.39,3.44-4.79,5.26-7.11.58-.73.64-1.4.46-2.2,6.15-5.21,13.05-9.15,20.44-12.32,10.22-4.38,20.62-8.16,31.5-10.59,7.64-1.7,14.56-.22,20.91,4.24.52.36,1.09.65,1.64.97Z"/>
  <path class="cls-10" d="m317.4,453.8c.05-.24.16-.39.43-.33-.02.27-.16.39-.43.33Z"/>
  <path class="cls-4" d="m191.89,419.3c-4.6-12.61-3.37-24.45,5.19-35,7.8-9.62,16.98-17.79,27.38-24.56,2.48-.07,4.82-.94,7.27-1.18,5.72-.56,11.17.07,16.08,3.3,4.82,3.17,9.32,6.73,12.89,11.33,2.18,2.8,4.02,5.76,4.89,9.25.26,1.02.52,2.07.05,3.05-.77,1.6-1.13,3.33-1.62,5-2.72,9.3-4.38,18.77-4.48,28.5-.04,3.84.32,7.65.59,11.47-6.29,5.38-11.51,11.66-15.75,18.76-3.65-.35-7.32-.09-10.98-.51-4.28-.49-8.56-.94-12.69-2.14-3.6-1.04-7.18-2.25-10.18-4.62-6.71-5.3-12.13-11.74-16.44-19.11-.39-.67-.57-1.53-1.52-1.71-.15-.38-.29-.77-.44-1.15.16-.31.04-.52-.23-.67Z"/>
  <path class="cls-11" d="m297.9,336.8c-2.2-2.31-4.35-4.67-6.62-6.9-4.69-4.62-10-8.42-15.83-11.41.03-.84.7-.89,1.14-1.12,5.76-3.13,11.16-6.83,16.5-10.6,3.14-2.22,5.9-4.88,8.51-7.7,3.7-4.01,7.85-7.48,12.48-10.37,1.5-.94,3.04-1.73,4.85-1.89,2.65-.24,4.68.7,6.03,3.02,1.72,2.93,2.68,6.13,3.19,9.47.74,4.81.19,9.56-.77,14.27-.41,2.02-.67,4.1-1.61,5.99-.71.26-1.13.88-1.6,1.4-4.22,4.63-9.22,8.29-14.51,11.57-3.62,2.25-7.48,3.87-11.77,4.31Z"/>
  <path class="cls-12" d="m285.98,382.88c-3.43-7.57-8.31-14.07-14.34-19.75-3.6-3.39-7.55-6.32-11.63-9.08.23-.32.52-.61.7-.95,3.31-6.4,8.41-10.93,14.75-14.19,3.21-1.65,6.64-2.67,10.12-3.56,6.56,5.34,11.2,12.09,14.74,19.71,2.38,5.12,4.02,10.39,4.38,16.03.03.39-.03.79-.05,1.19-2.32,2.21-4.78,4.23-7.52,5.88-3.49,2.11-7,4.17-11.15,4.72Z"/>
  <path class="cls-9" d="m285.57,335.35c-3.48.89-6.91,1.91-10.12,3.56-6.34,3.26-11.44,7.78-14.75,14.19-.18.35-.46.64-.7.95-1.04.13-1.44-.86-2.17-1.28-8.11-4.65-16.6-8.21-25.94-9.5-2.39-.33-4.78-.33-7.18-.25-.4.01-.8.04-1.19.14-1.13.28-2.18.72-2.36,2.05-.16,1.22.56,1.93,1.6,2.38.22.09.42.23.93.52-4,2.53-7.56,5.39-11.41,8.22-1.09-2.69-1.44-5.28-1.85-7.85-.6-3.72-.96-7.47-.28-11.22.73-4.02,2.25-7.62,5.72-10.09.04.31.1.62.11.94.06,3.31,1.53,4.96,4.77,5.48,1.63.26,3.17-.09,4.73-.41,5.07-1.04,10.04-2.53,15.18-3.32,5.63-.86,11.25-1.27,16.91-.35,2.44.4,4.87.89,7.33,1.08,3.85.3,5.57-1.35,5.8-5.2,5.51,2.51,10.54,5.73,14.88,9.98Z"/>
  <path class="cls-2" d="m238.94,471.55c-1.89,2.16-2.29,4.83-2.42,7.54-.17,3.75.31,7.47,1.35,11.06,1.21,4.19.07,7.7-2.68,10.79-1.84,2.07-3.64,4.23-6.23,5.48-.26.12-.41.47-.61.71-1.94-.97-4.08-1.33-6.12-1.97-3.86-1.2-7.31-2.95-10.08-6.08-4.92-5.55-4.64-12.65-.02-18.07,4.33-5.09,9.44-9.28,15.84-11.61,2.79-1.01,5.74-1.24,8.63-1.79.82-.16.96.33,1.07.9.21,1.11.55,2.15,1.27,3.05Z"/>
  <path class="cls-13" d="m260.14,430.47c-.27-3.82-.63-7.63-.59-11.47.1-9.73,1.76-19.2,4.48-28.5.49-1.68.85-3.4,1.62-5,.47-.98.21-2.04-.05-3.05-.88-3.48-2.72-6.45-4.89-9.25-3.58-4.6-8.07-8.16-12.89-11.33-4.9-3.23-10.36-3.86-16.08-3.3-2.46.24-4.8,1.12-7.27,1.18.91-1.37,2.39-2.07,3.64-3.03,2.05-1.57,4.03-3.18,5.06-5.64.44-1.05,1.12-.94,1.94-.68,2.74.87,5.47,1.79,8.1,2.95,11.17,4.96,21.05,11.72,29.16,20.95,1.27,1.45,2.39,3,3.43,4.61.93,1.45.9,1.48-.61,2.2-.73.35-1.45.7-2,1.29-5.3,5.62-8.9,11.96-7.85,20.01.64,4.88,2.45,9.41,5.02,13.62,1.2,1.97,2.63,3.78,4.23,5.84-5.42,2.1-10.07,5.12-14.44,8.59Z"/>
  <path class="cls-1" d="m270.69,325.37c-.23,3.86-1.95,5.5-5.8,5.2-2.46-.19-4.89-.68-7.33-1.08-5.66-.92-11.28-.51-16.91.35-5.13.78-10.11,2.27-15.18,3.32-1.55.32-3.1.67-4.73.41-3.24-.52-4.71-2.17-4.77-5.48,0-.31-.07-.62-.11-.94,0,0-.01.03-.01.03.38.01.45-.22.43-.53,3.35-3.48,7.58-5.32,12.22-6.03,8.93-1.36,17.91-2.21,26.92-.62,5.38.95,10.47,2.72,15.26,5.36Z"/>
  <path class="cls-7" d="m192.57,421.13c.94.18,1.13,1.05,1.52,1.71,4.31,7.38,9.72,13.81,16.44,19.11,3,2.37,6.58,3.58,10.18,4.62,4.14,1.19,8.42,1.64,12.69,2.14,3.66.42,7.33.16,10.98.51-.98,1.82-1.98,3.64-2.94,5.48-.35.67-.71,1.15-1.59,1.21-6.92.48-13.16,3.09-19.14,6.4-1.02.56-1.78.88-2.62-.28-5.11-7.04-11.22-13.32-15.87-20.71-3.71-5.9-6.79-12.11-9.35-18.59-.2-.5-.56-1-.31-1.59Z"/>
  <path class="cls-2" d="m266.54,438.81c.3,1.16-.44,2.02-.99,2.84-5.23,7.82-8.23,16.49-9.91,25.68-.33,1.8-.79,3.58-1.36,5.32-1.12,3.44-3.56,5.06-7.09,4.72-2.89-.28-4.47-2.17-5.41-4.74,1.92-.64,2.88-2.08,3.47-3.95,3.62-11.32,10.41-20.52,19.13-28.42.65-.59,1.3-1.18,2.16-1.45Z"/>
  <path class="cls-14" d="m285.98,382.88c4.15-.55,7.66-2.61,11.15-4.72,2.74-1.66,5.21-3.68,7.52-5.88.41,3.18-.24,6.23-1.48,9.11-3.24,7.54-8.84,12.36-16.91,14.17-3.89.87-7.63.22-10.89-1.84,1.21-2.14,2.87-3.94,4.31-5.88.7.13.89.73,1.31,1.05,1.2.92,2.5,1.07,3.82.39,1.35-.69,1.93-1.92,1.82-3.38-.08-1.02-.43-2.02-.65-3.03Z"/>
  <path class="cls-7" d="m297.9,336.8c4.29-.44,8.15-2.06,11.77-4.31,5.29-3.28,10.29-6.94,14.51-11.57.47-.52.89-1.14,1.6-1.4-.6,3.5-2.05,6.71-3.57,9.86-3.83,7.92-8.88,14.94-16.12,20.53-2.34-4.62-5.12-8.97-8.2-13.12Z"/>
  <path class="cls-11" d="m288.17,301.09c-6.17,4.22-11.96,8.74-18.31,12.45-1.65.97-3.15,1.38-4.89.43-.61-.34-1.43-.26-1.98-.95,5.59-5.01,11.3-9.86,17.82-13.64,3.29-1.91,4.71-1.54,7.36,1.71Z"/>
  <path class="cls-9" d="m216.29,326.65c.02.31-.05.55-.43.53-.07-.35.14-.48.43-.53Z"/>
  <path class="cls-7" d="m191.89,419.3c.28.15.4.36.23.67-.25-.16-.32-.39-.23-.67Z"/>
  <path class="cls-5" d="m724.45,586.78c-3.5,1.43-7.21,2.03-10.88,2.75-11.23,2.23-22.59,3.39-34.03,3.85-4.49.18-8.95-.18-13.37-.94-.3-.05-.64-.07-.9-.57,1.56-3.89,1.32-8.16,1.5-12.35.57-13.69-.15-27.32-2.26-40.87-.32-2.05-.71-4.08-1.07-6.12,1.71.1,3.37-.25,4.87-.99,1.77-.87,3.22-.95,4.72.59.87.9,2.05,1.5,3.13,2.18,3.86,2.42,8.01,4.31,12.09,6.31,7.41,3.63,15.14,6.32,23.38,7.34,1.25.16,2.17.63,2.76,1.92,2.86,6.33,5.64,12.67,7.24,19.47,1.35,5.75,1.79,11.63,2.81,17.43Z"/>
  <path class="cls-11" d="m683.12,696.53c-2.51.73-3.51.11-4.31-2.67-.81-2.82-.56-5.71-.35-8.57.47-6.24,2.25-12.22,3.84-18.24.23-.86.82-1.32,1.51-1.75,2.27-1.41,4.08-3.31,5.73-5.39,1.04-1.31,1.21-2.35.54-3.25-.81-1.08-1.94-1.03-3.05-.72-1.99.57-4.01,1.07-5.83,2.12-2.56,1.47-5.13,2.91-7.68,4.4-2.48,1.45-4.98,2.86-7.6,4.06-1.31.6-2.65,1.1-4.04,1.47-3.89,1.03-5.01.07-4.48-3.98.49-3.81,1.37-7.53,2.52-11.19,1.22-3.88,2.48-7.75,3.66-11.64.55-1.83.99-3.7,1.43-5.56.4-1.68.39-1.77,1.97-1.37,4.19,1.05,8.51,1.34,12.72,2.24.18.56.69.6,1.14.73,1.98.61,3.96,1.23,5.94,1.84,8.3,2.58,16.73,3.71,25.45,2.96,6.74-.58,13.2-2.07,19.47-4.53,1.41-.55,2.67-1.45,4.17-1.79.26,3.3-.42,6.51-.9,9.74-1.15,7.85-3,15.5-6.53,22.66-.35.71-.77,1.39-1.16,2.08-.23.01-.47.03-.7.04-1.18.07-2.26,1.14-3.36.75-1.3-.47-.69-2.31-1.68-3.16.07-.31.15-.61.22-.92.26-.09.31-.27.23-.51.86-2.3,2.13-4.48,2.15-7.04.02-1.52.26-3.2-1.51-3.93-1.75-.72-2.79.58-3.85,1.69-1.6,1.66-2.22,3.84-3.2,5.84-.27.05-.38.21-.34.48v.02c-1.67.08-2.45,1.35-3.3,2.48-5.08,6.73-10.63,13.06-16.25,19.33-3.78,4.21-8.09,7.85-12.59,11.25Z"/>
  <path class="cls-2" d="m652.88,521.38c1.31-1.85,3.33-2.93,4.99-4.38,2.22-1.94,4.28-4.06,6.62-5.87,3.39-2.62,6.87-3.11,10.67-1.07,1.26.68,2.5,1.41,3.75,2.12,4.02,2.31,8.53,3.24,12.99,3.94,9.65,1.52,18.49-.98,26.51-6.44,4.78-3.25,8.38-7.57,11.11-12.64,2.2-4.09,3.96-8.37,5.4-12.78.37-1.11.56-2.34,1.65-3.08,3.06,3.97,5.15,8.42,6.3,13.27,1.34,5.68,1.28,11.37-.24,17.04-1.88,6.99-6.48,11.34-13.08,13.86-3.91,1.49-7.96,2.29-12.1,2.71-12.75,1.29-24.62-1.16-35.27-8.55-1.7-1.18-3.26-2.56-4.78-3.98-3.1-2.9-5.76-3.06-9.24-.61-3.34,2.35-6.74,4.57-10.61,5.96-1.51.54-3.05.96-4.67.49Z"/>
  <path class="cls-9" d="m679.33,628.47c-4.96-.54-9.9-1.18-14.62-2.91.48-1.58.05-3.01-.83-4.31-3.64-5.39-6.2-11.32-8.64-17.31-.9-2.22-1.88-4.4-3.18-6.42-1.4-2.18-3.23-3.73-5.87-4.13,1.02-1.94,2.62-3.4,4.17-4.88,2.48-2.36,5.22-4.38,8.38-6.47.01,3.07-.76,5.69-.37,8.51-1.23-.27-2.16-.51-3.09-.67-.93-.16-1.78.08-2.26.96-.46.85-.3,1.71.26,2.48.74.99,1.81,1.55,2.89,2.08,5.23,2.58,10.81,3.88,16.6,4.26,5.91.38,11.82.26,17.73.04,1.35.24,2.7,0,4.05-.07.98-.05,1.5.27,1.54,1.31.03.95.11,1.91.24,2.86.52,3.82.37,7.64.1,11.46-.24,3.33-.78,6.63-.81,9.99-.03,3.47.57,3.31-3.38,3.34-4.3.03-8.61-.07-12.91-.11Zm-15.43-15.8c-.03,1.87,1.78,4.86,3.42,5.64,1.96.93,4.42-.01,5.07-2.12.69-2.24.46-4.43-1.24-6.25-1.41-1.52-3.45-1.98-5.24-1.24-1.82.75-1.96,2.33-2.01,3.97Z"/>
  <path class="cls-12" d="m706.61,598.01c5.36-1.16,10.8-1.95,16.13-3.29,5.23-1.32,10.08-3.45,14.49-6.57.32-.23.63-.5,1.06-.47,2.4,1.46,3.36,3.95,4.33,6.35,2.16,5.34,2.99,10.99,3.43,16.7-2.31,2.6-5.21,4.44-8.16,6.17-9.49,5.57-19.82,8.75-30.62,10.57-.23.04-.47-.04-.71-.06.25-3.72.41-7.44.77-11.15.26-2.7.27-5.37.02-8.07-.32-3.39-.5-6.79-.74-10.18Z"/>
  <path class="cls-3" d="m724.45,586.78c-1.02-5.8-1.46-11.69-2.81-17.43-1.59-6.8-4.38-13.14-7.24-19.47-.58-1.29-1.51-1.76-2.76-1.92-8.24-1.02-15.97-3.71-23.38-7.34-4.08-2-8.23-3.89-12.09-6.31-1.08-.68-2.26-1.28-3.13-2.18-1.49-1.54-2.95-1.46-4.72-.59-1.5.74-3.16,1.09-4.87.99-.06-.06-.14-.11-.16-.17-.39-1.53-1.56-3.16-1.04-4.55.5-1.31,2.54-1.39,3.83-2.14,1.38-.8,2.84-1.48,4.19-2.32,1.13-.7,1.95-.6,2.96.31,7.42,6.69,16.23,10.68,25.88,12.88,5.97,1.36,12.03,1.53,18.11.95,1.35-.13,2.72-.16,4.04-.44,1.2-.25,1.49.26,1.78,1.27,1.96,6.68,3.43,13.45,4.34,20.36.71,5.46,1.65,10.89,2.13,16.38.25,2.87.08,5.75.36,8.62.07.78-.31,1.22-.95,1.48-1.48.59-2.87,1.41-4.48,1.62Z"/>
  <path class="cls-3" d="m735.88,635.72c-1.5.35-2.76,1.24-4.17,1.79-6.27,2.46-12.74,3.95-19.47,4.53-8.72.75-17.15-.38-25.45-2.96-1.98-.62-3.96-1.23-5.94-1.84-.45-.14-.96-.17-1.14-.73,1.27-.44,2.52.04,3.78.08,17.86.52,34.98-2.6,51.14-10.41.29-.14.59-.25.89-.36.06-.02.15.02.51.08.25,1.54,0,3.18,0,4.8,0,1.67-.09,3.35-.14,5.02Z"/>
  <path class="cls-1" d="m646.2,593.38c2.64.41,4.46,1.96,5.87,4.13,1.3,2.02,2.28,4.2,3.18,6.42,2.43,5.99,5,11.92,8.64,17.31.88,1.3,1.32,2.73.83,4.31-7.36-1.96-14.09-5.1-19.15-10.99-4.11-4.79-4.79-10.28-2.42-16.11.75-1.83,1.57-3.66,3.04-5.07Z"/>
  <path class="cls-14" d="m746.06,610.74c-.44-5.71-1.27-11.36-3.43-16.7-.97-2.4-1.92-4.89-4.33-6.35.23-.72.88-1.12,1.28-1.71,1.22-1.84.79-3.67-1.29-4.45-1.1-.41-1.25-.97-1.22-1.93.05-1.59.01-3.18.01-4.78.62-.35,1.06.11,1.52.36,3.81,2.04,7.5,4.25,10.51,7.42,1.16,1.22,2.18,2.54,3.05,3.98,2.67,4.39,3.09,9.01,1.28,13.77-1.56,4.08-3.94,7.63-7.39,10.39Z"/>
  <path class="cls-9" d="m706.61,598.01c.24,3.4.43,6.8.74,10.18.25,2.7.24,5.37-.02,8.07-.36,3.71-.52,7.43-.77,11.15-.87.41-1.8.53-2.75.58-.87.01-1.75.02-2.62.04q-1.73.04-1.38-1.72c1.27-6.51,1.88-13.08,1.55-19.7-.13-2.61-.35-5.24-1.35-7.71,2.19-.38,4.36-.86,6.6-.88Z"/>
  <path class="cls-12" d="m700.02,598.89c1,2.47,1.22,5.11,1.35,7.71.33,6.62-.28,13.19-1.55,19.7q-.35,1.77,1.38,1.72c.87-.02,1.75-.03,2.62-.04-.45.13-.9.35-1.36.39-7.08.67-14.17.95-21.27.48-.63-.04-1.28-.04-1.86-.39,4.3.04,8.61.14,12.91.11,3.95-.03,3.35.12,3.38-3.34.03-3.35.57-6.66.81-9.99.27-3.82.42-7.64-.1-11.46-.13-.95-.2-1.9-.24-2.86-.04-1.04-.55-1.36-1.54-1.31-1.35.07-2.7.31-4.05.07,1.27-.47,2.61-.38,3.92-.48,1.86-.14,3.72-.22,5.59-.33Z"/>
  <path class="cls-7" d="m683.12,696.53c4.51-3.4,8.82-7.04,12.59-11.25,5.62-6.27,11.18-12.6,16.25-19.33.86-1.14,1.63-2.4,3.29-2.48-1.18,3.49-2.88,6.74-4.84,9.83-3.93,6.22-8.24,12.16-14.18,16.67-3.58,2.72-7.38,5.02-11.72,6.35-.46.14-.9.33-1.4.22Z"/>
  <path class="cls-13" d="m721.56,667.83c.99.85.38,2.7,1.68,3.16,1.1.39,2.18-.68,3.36-.75.23-.01.47-.03.7-.04-2.37,5.85-6.54,9.57-12.92,11.11.13-.52.12-.78.24-.96,2.47-3.74,4.56-7.69,6.38-11.78.12-.28.37-.5.56-.74Z"/>
  <path class="cls-7" d="m715.27,663.44c-.04-.27.07-.43.34-.48.05.27-.07.43-.34.48Z"/>
  <path class="cls-13" d="m722.01,666.4c.08.24.03.42-.23.51-.11-.25,0-.41.23-.51Z"/>
  <path class="cls-1" d="m663.9,612.66c.05-1.64.19-3.23,2.01-3.97,1.8-.74,3.84-.28,5.24,1.24,1.69,1.82,1.93,4.01,1.24,6.25-.65,2.11-3.11,3.05-5.07,2.12-1.64-.78-3.45-3.76-3.42-5.64Z"/>
</svg>