<?xml version="1.0" encoding="UTF-8"?>
<svg id="_图层_1" data-name="图层 1" xmlns="http://www.w3.org/2000/svg" viewBox="0 0 960 960">
  <defs>
    <style>
      .cls-1 {
        fill: #454794;
      }

      .cls-1, .cls-2, .cls-3, .cls-4, .cls-5, .cls-6, .cls-7, .cls-8, .cls-9 {
        stroke-width: 0px;
      }

      .cls-2 {
        fill: #040404;
      }

      .cls-3 {
        fill: #a76861;
      }

      .cls-4 {
        fill: #f6b89f;
      }

      .cls-5 {
        fill: #5b7dfe;
      }

      .cls-6 {
        fill: #a76860;
      }

      .cls-7 {
        fill: #a25e51;
      }

      .cls-8 {
        fill: #040303;
      }

      .cls-9 {
        fill: #5b7dff;
      }
    </style>
  </defs>
  <path class="cls-8" d="m682.73,770.2c2.15,2.15,2.15,4.09-.14,6.09-2.05,1.8-4.44,3.14-6.79,4.48-8.42,4.82-17.46,6.45-27.05,4.9-.9-.15-1.7-.23-2.52.28-5.24,3.2-11.13,4.28-17.08,5.18-6.83,1.03-13.7,1.17-20.58,1.11-16.23-.14-32.46-.61-48.68-1.17-3.75-.13-7.52-.3-11.23-.88-8.03-1.25-14.11-5.26-17.7-12.71-3.3-6.85-4.98-14.17-6.08-21.61-1.48-9.97-2.17-20.03-2.76-30.08-.38-6.41.14-12.78,1.75-19.03.56-2.17,1.28-4.29,2.46-6.21,2.88-4.66,7.57-5.48,11.81-2.04,2.51,2.03,4.51,4.53,6.3,7.19,2.14,3.18,4.11,6.47,5.98,9.83.79,1.43.84,1.46,2.37.79,8.15-3.56,16.65-6.07,25.2-8.42,4.17-1.15,8.17-2.74,12.12-4.47,1.31-.57,2.63-1.34,4.09-1.25,1.29.07,1.39-.66,1.54-1.56.34-2.05.64-4.11,1.08-6.13.85-3.93,2.31-7.64,4.42-11.07.63-1.02,1.36-1.97,2.24-2.8.76-.71,1.63-1.07,2.63-.68.9.36,1.28,1.15,1.28,2.12,0,.24.04.48.06.71-1.74,4.61-3.75,9.14-4.18,14.13-.35,4.03-1.1,8.05-.56,12.12-.41,3.03.11,5.9,1.73,8.49,2.02,3.23,4.59,5.91,8.05,7.65,5.41,2.72,11.13,4.33,17.13,4.99,3.49.39,5.59,2.74,5.61,6.25,0,2.27-.7,4.4-1.18,6.58-1.16,5.26-1.61,10.57-1.24,15.93.17,2.49.66,4.97,2.39,6.89,2.25,2.5,4.73,4.79,7.8,6.26,7.02,3.35,14.31,3.49,21.71,1.5,2.54-.69,5.03-1.53,7.55-2.31.26,0,.52,0,.78,0,.55.23,1.08.18,1.56-.19,1.1-.04,2.18-.22,3.27-.34,1.62-.18,3.19-.92,4.86-.5Zm-138.17,7.92c.23.35.53.54.97.44,0,0,.03.01.03.01.6.65,1.45.62,2.22.74,2.54.4,5.1.23,7.65.17,16.53-.38,33.06,0,49.59.3,3.5.07,7.01.33,10.5-.22,1.31-.06,2.63.07,3.92-.21,1.9.18,3.8.26,5.66-.3,1.32.09,2.64.1,3.94-.18.85.12,1.72.34,2.52-.2-.11-1.54-1.53-2.07-2.43-2.91-4.76-4.44-7-9.94-7.46-16.33-.44-6.02.25-11.94,1.28-17.83.32-1.85.55-2.33-1.71-3.03-4.72-1.46-9.41-3.14-13.56-5.9-6.8-4.51-11.47-10.54-12.61-18.87-.21-1.53-.2-3.09-.32-5.03-1.93,1.2-3.52,2.2-5.11,3.2-3.3,1.62-6.74,2.88-10.22,4.06-8.99,3.04-18.14,5.63-26.64,10.02-3.87,2-7.04.53-8.55-3.62-1.73-4.76-4.19-9.13-6.88-13.39-.72-1.14-1.57-2.22-2.48-3.22-1.45-1.6-1.77-1.53-2.45.44-.36,1.05-.64,2.14-.86,3.23-1.09,5.29-1.19,10.64-.8,15.99.69,9.4,1.46,18.79,2.73,28.13.88,6.43,2.42,12.7,5.28,18.58,1,2.04,2.21,3.89,4.24,5.05.09.28.27.42.57.38h.02c.2.37.48.58.92.51h0Z"/>
  <path class="cls-2" d="m406.16,783.77c.89,3.53-.31,4.56-2.59,5.1-6.99,1.65-13.96,3.44-21.27,2.83-4.25-.36-8.41-1.12-12.31-2.84-1.64-.72-3.2-.83-4.88-.44-3.11.73-6.22,1.46-9.32,2.2-5.93,1.41-12,1.85-18.05,2.33-12.19.98-24.29,2.69-36.36,4.66-8.36,1.36-16.73,2.62-25.16,3.42-3.18.3-6.37.31-9.56-.22-5.57-.92-9.28-3.96-11.06-9.35-1.33-4.03-2.07-8.2-3-12.33-1.96-8.73-4.12-17.41-5.29-26.29-1.79-13.5-2.51-27.04-1.61-40.65.13-1.99.44-3.97.91-5.92.32-1.32.75-2.61,1.44-3.79,2.34-4.05,6.54-5.06,10.43-2.47,2.16,1.43,3.84,3.38,5.33,5.47,3.28,4.63,6.76,9.11,9.85,13.87,1.1,1.7,1.14,1.74,3.06,1.17,5.73-1.72,11.46-3.47,17.17-5.25,6.64-2.06,13.37-3.74,20.28-4.65,2.39-.31,2.34-.38,2.57-2.66.61-6.02,2.21-11.76,5.14-17.08.7-1.26,1.45-2.49,2.64-3.37,1.55-1.14,2.49-1.08,3.96.21,0,2.16-.49,4.25-1.02,6.33-1.3,5.12-2,10.32-1.75,15.61.09,1.91.29,3.81,1.19,5.56.02,2.04.99,3.82,1.61,5.7,1.06,3.23,3.11,5.69,5.86,7.66,3.8,2.73,7.96,4.71,12.29,6.4,3.42,1.34,6.87,2.59,10.29,3.94,3.85,1.51,5.77,4.37,5.76,8.51,0,1.68.06,3.37-.16,5.03-.48,3.51-.47,7.02-.27,10.52.22,3.87,1.05,7.59,3.78,10.62,3.76,4.19,8.37,6.89,13.88,7.94,6.21,1.19,12.5,1.53,18.82,1.32,1.18.03,2.36.06,3.54.09,1.34.03,2.69-.02,3.86.81Zm-92.82-65.62c-7.47,2.03-14.79,4.54-22.1,7.06-5.13,1.78-10.29,3.5-15.59,4.72-3.24.74-5.82-.29-7.75-2.97-.56-.78-1.05-1.61-1.57-2.41-3.07-4.77-6.13-9.55-9.23-14.3-.52-.79-.9-1.84-2.22-2.05-.2,1.48-.44,2.81-.54,4.16-.84,11.11-.43,22.21.64,33.28,1.08,11.16,3.41,22.1,6.17,32.95.69,2.71,1.42,5.41,2.29,8.07,1.21,3.7,2.23,4.42,6.06,4.55,1.2.04,2.4.03,3.6-.04,7.35-.42,14.62-1.56,21.88-2.66,15.17-2.29,30.32-4.74,45.62-6.07,3.59-.14,7.12-.73,10.65-1.33,2.01-.35,4.07-.57,6.11-1.55-5.08-6.74-5.92-14.43-5.67-22.37.06-1.91.31-3.82.39-5.73.14-3.2.43-2.73-2.4-3.65-5.39-1.76-10.74-3.61-15.82-6.18-8.41-4.26-13.93-10.75-15.79-20.15-.3-1.54-.45-3.15-1.21-4.8-1.2.51-2.35,1-3.5,1.49Z"/>
  <path class="cls-9" d="m326.9,715.21c-.9-1.75-1.1-3.65-1.19-5.56-.26-5.29.44-10.49,1.75-15.61.53-2.08,1.02-4.17,1.02-6.33,7.57-4.83,14.99-3.21,22.23.73,7.94,4.32,14.74,10.12,20.7,16.89,4.75,5.4,9.47,10.82,13.62,16.71,8.3,11.79,14.76,24.46,18.43,38.47,1.24,4.71,2.7,9.37,3.11,14.25.25,3,.65,6.05-.4,9.01-1.17-.83-2.53-.78-3.86-.81-1.18-.03-2.36-.06-3.54-.09.29-2.97-.94-5.2-3.17-7.1-3.4-2.89-6.64-5.98-10.04-8.86-5.53-4.68-10.17-10.09-14.08-16.18-1.78-2.78-2.85-5.88-4.37-8.77-1.77-3.38-4.41-5.81-8.05-7.1-2.48-.88-4.96-1.76-7.43-2.68-4.56-1.7-9.12-3.42-13.08-6.36-3.41-2.54-6.27-5.66-9.27-8.64-.72-.72-1.26-1.67-2.35-1.96Z"/>
  <path class="cls-5" d="m682.73,770.2c-1.68-.42-3.24.32-4.86.5-1.09.12-2.17.3-3.27.34-.55-.17-1.08-.2-1.56.19-.26,0-.52,0-.78,0-.2-1.44-1.05-2.48-2.14-3.34-2.57-2.01-5.13-4.03-7.61-6.16-6.56-5.64-12.5-11.84-17.26-19.08-2.23-3.39-4.26-6.92-6.34-10.41-1.32-2.22-3.17-3.77-5.6-4.62-3.92-1.36-7.72-2.99-11.51-4.66-6.49-2.87-12.41-6.53-17.12-11.94-.61-.7-.98-1.67-1.96-2.02-.55-4.07.21-8.09.56-12.12.43-4.99,2.44-9.52,4.18-14.13,4.08-.42,7.74.89,11.17,2.91,6.67,3.94,12.43,9.01,17.5,14.81,11.1,12.69,21.66,25.82,31.8,39.29,5.95,7.9,10.57,16.55,14.05,25.8.56,1.49,1.13,2.99.76,4.64Z"/>
  <path class="cls-4" d="m543.05,777.24c-2.04-1.16-3.25-3.01-4.24-5.05-2.87-5.88-4.41-12.15-5.28-18.58-1.27-9.34-2.05-18.73-2.73-28.13-.39-5.35-.29-10.7.8-15.99.22-1.09.5-2.18.86-3.23.68-1.97,1-2.04,2.45-.44.91,1,1.76,2.08,2.48,3.22,2.69,4.26,5.15,8.63,6.88,13.39,1.51,4.15,4.68,5.62,8.55,3.62,8.5-4.39,17.65-6.98,26.64-10.02,3.48-1.18,6.92-2.44,10.22-4.06-.03,1.83-.14,3.67-.07,5.5.35,9.21,4.7,16.15,12.23,21.22,2.93,1.97,6.33,2.97,9.53,4.4.98.43,1.29.9,1.11,1.99-1.04,6.38-1.47,12.8-1.22,19.26.09,2.23.47,4.42.85,6.61.5,2.95,1.94,5.54,3.09,8.25-9.26.08-18.51-.09-27.76-.3-9.97-.23-19.95-.18-29.92,0-3.99.07-7.96.28-11.92-.31h-.03c-.21-.4-.55-.51-.97-.45h0c-.19-.39-.5-.55-.92-.5,0,0-.02-.01-.02-.01-.09-.28-.27-.41-.57-.38Z"/>
  <path class="cls-1" d="m602.71,709.01c.98.35,1.36,1.32,1.96,2.02,4.72,5.42,10.63,9.08,17.12,11.94,3.79,1.68,7.59,3.31,11.51,4.66,2.43.84,4.27,2.4,5.6,4.62,2.08,3.49,4.11,7.01,6.34,10.41,4.76,7.25,10.7,13.44,17.26,19.08,2.48,2.13,5.04,4.15,7.61,6.16,1.09.85,1.94,1.89,2.14,3.34-2.52.77-5.01,1.62-7.55,2.31-7.4,2-14.68,1.86-21.71-1.5-3.07-1.47-5.55-3.76-7.8-6.26-1.73-1.92-2.22-4.41-2.39-6.89-.37-5.36.09-10.67,1.24-15.93.48-2.17,1.19-4.31,1.18-6.58-.01-3.5-2.12-5.86-5.61-6.25-6-.67-11.73-2.27-17.13-4.99-3.46-1.74-6.04-4.42-8.05-7.65-1.62-2.6-2.14-5.46-1.73-8.49Z"/>
  <path class="cls-6" d="m615.17,779.19c-1.15-2.7-2.59-5.29-3.09-8.25-.37-2.19-.76-4.38-.85-6.61-.25-6.46.18-12.88,1.22-19.26.18-1.09-.14-1.55-1.11-1.99-3.2-1.42-6.6-2.43-9.53-4.4-7.53-5.07-11.88-12.01-12.23-21.22-.07-1.83.04-3.67.07-5.5,1.59-1,3.19-1.99,5.11-3.2.12,1.93.11,3.5.32,5.03,1.14,8.32,5.81,14.35,12.61,18.87,4.15,2.76,8.84,4.44,13.56,5.9,2.26.7,2.03,1.18,1.71,3.03-1.03,5.89-1.72,11.82-1.28,17.83.47,6.39,2.71,11.9,7.46,16.33.9.84,2.32,1.37,2.43,2.91-.84,0-1.71-.23-2.52.2-1.3.28-2.62.28-3.94.18-.22-.23-.51-.48-.82-.37-1.57.54-3.26.23-4.84.67-1.3.28-2.62.15-3.92.21-.12-.13-.24-.26-.36-.38Z"/>
  <path class="cls-7" d="m615.17,779.19c.12.13.24.26.36.38-3.49.55-7,.29-10.5.22-16.53-.31-33.06-.68-49.59-.3-2.55.06-5.11.22-7.65-.17-.77-.12-1.62-.09-2.22-.74,3.96.59,7.93.37,11.92.31,9.97-.17,19.95-.22,29.92,0,9.25.21,18.5.38,27.76.3Z"/>
  <path class="cls-7" d="m619.45,779.36c1.58-.44,3.27-.13,4.84-.67.31-.11.59.14.82.37-1.86.56-3.76.48-5.66.3Z"/>
  <path class="cls-7" d="m629.05,778.88c.81-.43,1.68-.2,2.52-.2-.8.54-1.67.32-2.52.2Z"/>
  <path class="cls-1" d="m673.05,771.23c.48-.39,1.01-.36,1.56-.19-.48.38-1,.42-1.56.19Z"/>
  <path class="cls-7" d="m543.64,777.63c.42-.04.73.11.92.5-.44.07-.72-.14-.92-.5Z"/>
  <path class="cls-7" d="m544.56,778.13c.42-.07.75.04.97.44-.43.1-.73-.09-.97-.44Z"/>
  <path class="cls-7" d="m543.05,777.24c.29-.03.48.1.57.38-.3.04-.48-.1-.57-.38Z"/>
  <path class="cls-4" d="m340.59,782.43c-15.3,1.33-30.45,3.78-45.62,6.07-7.27,1.1-14.53,2.24-21.88,2.66-1.2.07-2.4.08-3.6.04-3.83-.13-4.85-.85-6.06-4.55-.87-2.66-1.6-5.36-2.29-8.07-2.76-10.85-5.09-21.79-6.17-32.95-1.07-11.08-1.48-22.17-.64-33.28.1-1.34.35-2.68.54-4.16,1.31.21,1.7,1.26,2.22,2.05,3.11,4.75,6.16,9.53,9.23,14.3.52.81,1.01,1.63,1.57,2.41,1.93,2.68,4.51,3.72,7.75,2.97,5.3-1.22,10.46-2.94,15.59-4.72,7.31-2.53,14.63-5.04,22.1-7.06-.1,1.59-.71,3.13-.49,4.75.29,2.13.51,4.28.95,6.38,1.42,6.73,4.77,12.25,10.27,16.49,4.31,3.32,9.07,5.63,14.3,7.03,1.8.48,1.78.52,1.37,2.49-1.14,5.48-2,10.98-1.05,16.6.49,2.93,1.08,5.81,2.55,8.43q.74,1.33-.65,2.11Z"/>
  <path class="cls-1" d="m326.9,715.21c1.09.28,1.63,1.24,2.35,1.96,3,2.98,5.86,6.11,9.27,8.64,3.96,2.94,8.52,4.66,13.08,6.36,2.47.92,4.95,1.8,7.43,2.68,3.64,1.29,6.28,3.72,8.05,7.1,1.52,2.89,2.59,6,4.37,8.77,3.9,6.09,8.55,11.5,14.08,16.18,3.41,2.88,6.64,5.97,10.04,8.86,2.23,1.9,3.46,4.13,3.17,7.1-6.32.21-12.61-.14-18.82-1.32-5.51-1.05-10.13-3.75-13.88-7.94-2.72-3.03-3.55-6.75-3.78-10.62-.2-3.5-.2-7.02.27-10.52.22-1.65.16-3.35.16-5.03.02-4.14-1.91-7-5.76-8.51-3.42-1.34-6.87-2.6-10.29-3.94-4.33-1.69-8.49-3.67-12.29-6.4-2.75-1.98-4.8-4.43-5.86-7.66-.61-1.88-1.58-3.66-1.61-5.7Z"/>
  <path class="cls-3" d="m340.59,782.43q1.39-.79.65-2.11c-1.47-2.62-2.05-5.5-2.55-8.43-.95-5.63-.09-11.12,1.05-16.6.41-1.97.43-2.01-1.37-2.49-5.23-1.4-9.98-3.71-14.3-7.03-5.51-4.25-8.85-9.76-10.27-16.49-.44-2.1-.66-4.25-.95-6.38-.22-1.62.39-3.16.49-4.75,1.15-.49,2.31-.98,3.51-1.49.76,1.65.91,3.26,1.21,4.8,1.86,9.4,7.38,15.89,15.79,20.15,5.07,2.57,10.43,4.43,15.82,6.18,2.83.92,2.54.45,2.4,3.65-.08,1.91-.33,3.82-.39,5.73-.25,7.94.59,15.63,5.67,22.37-2.04.97-4.09,1.2-6.11,1.55-3.53.6-7.06,1.19-10.65,1.33Z"/>
</svg>