<?xml version="1.0" encoding="UTF-8"?>
<svg id="_图层_1" data-name="图层 1" xmlns="http://www.w3.org/2000/svg" viewBox="0 0 960 960">
  <defs>
    <style>
      .cls-1 {
        fill: #f7b9a0;
      }

      .cls-1, .cls-2, .cls-3, .cls-4, .cls-5, .cls-6, .cls-7, .cls-8, .cls-9, .cls-10, .cls-11, .cls-12, .cls-13, .cls-14 {
        stroke-width: 0px;
      }

      .cls-3 {
        fill: #466af6;
      }

      .cls-4 {
        fill: #4569f3;
      }

      .cls-5 {
        fill: #b16b1f;
      }

      .cls-6 {
        fill: #fff;
      }

      .cls-7 {
        fill: #939090;
      }

      .cls-8 {
        fill: #b7ceff;
      }

      .cls-9 {
        fill: #f55a64;
      }

      .cls-10 {
        fill: #454795;
      }

      .cls-11 {
        fill: #ffd741;
      }

      .cls-12 {
        fill: #a96861;
      }

      .cls-13 {
        fill: #fffffe;
      }

      .cls-14 {
        fill: #5a7dff;
      }
    </style>
  </defs>
  <path class="cls-2" d="m712.81,320.18c-1.55-10.86-4.8-21.15-10.6-30.55-2.54-4.12-5.53-7.84-9.52-10.64-1.08-.75-1.13-1.41-.68-2.55,1.53-3.88,1.76-7.95,1.17-12.03-.57-3.92-1.67-7.7-4.65-10.55-4.04-3.87-8.8-6.25-14.45-6.81-7.17-.71-14.03.62-20.67,3.09-7.93,2.95-15.75,6.18-23.61,9.3-6.53,2.59-12.97,5.44-19.84,7.03-7.07,1.63-14.07,3.68-21.48,3.17-1.44-.1-2.29-.53-3.07-1.71-2.15-3.27-4.38-6.49-6.69-9.65-.99-1.35-1.42-2.58-1.21-4.35.83-6.97-3.51-11.53-10.51-11.22-.9.04-1.49-.22-2.09-.84-3.06-3.17-6.37-6.05-10.04-8.49-.1-.06-.09-.29-.14-.46,3.37-1.97,6.67-4.07,9.81-6.42,1.12-.83,2.08-1.76,2.21-3.26-.06-2.88-1.55-4.05-4.35-3.14-5.02,1.62-9.83,3.79-14.62,5.97-20.24,9.22-41.25,15.81-63.32,18.9-.72.03-1.43.04-2.15.13-9.29,1.19-18.61,1.28-27.91.3-4.71-.5-9.24-1.82-13.24-4.53-4.05-2.74-5.08-5.99-3.31-10.55,1.05-2.7,2.62-5.09,4.36-7.4,1.98-2.62,4.49-4.76,6.44-7.4,1.04-1.21,2.25-2.26,3.3-3.46.7-.81,1.33-1.68.25-2.69-1.46-.71-2.65.08-3.81.75-6.51,3.74-12.32,8.3-16.78,14.41-.65.89-1.32,1.42-2.46,1.6-6.86,1.08-13.2,3.66-19.27,6.97-6.77,3.7-12.9,8.28-18.72,13.31-.99.86-2.05,1.4-3.33,1.75-4.7,1.27-9.42,2.49-13.94,4.34-3.22,1.32-6.12,3.12-8.53,5.65-1.68,1.77-2.94,3.77-3.31,6.25-.46,3.09.77,5.52,3.57,6.9.69.34,1.43.61,2.26.96-.8,1.14-1.6,2.14-2.25,3.23-.62,1.03-1.39,1.33-2.58,1.23-3.51-.31-6.97-.9-10.41-1.6-5.11-1.04-9.92-2.97-14.62-5.2-4.98-2.36-9.98-4.69-15.42-5.83-5.19-1.09-9.66.68-12.36,5.21-3.45,5.78-4.09,11.88-1,18.05,1.73,3.45,3.99,6.57,6.96,9.08,7.07,5.97,15.08,10.11,24.17,12.09,1.92.42,3.85.82,5.74,1.22,0,.36.05.53,0,.65-3.7,8.77-6.69,17.79-9.44,26.88-.35,1.16-1.08,1.8-2.06,2.46-11.02,7.38-20.07,16.58-25.82,28.69-5.77,12.14-6.04,24.49-.98,36.95,3.53,8.67,9.06,15.93,15.81,22.32,1.62,1.54,3.25,3.07,4.88,4.6,1.83,1.89,3.72,3.7,5.89,5.23,10.44,7.39,21.78,13.04,33.69,17.61,14.22,5.46,28.91,9.21,43.87,11.99,14.94,2.78,30.02,4.49,45.19,5.03,9.88.35,19.79.31,29.7-.26,9.73-.56,19.43-1.38,29.08-2.7,21.37-2.93,42.26-7.87,62.42-15.63,8.42-3.24,16.82-6.58,24.33-11.74,1.95-1.25,3.88-2.52,5.85-3.73,6.29-3.86,12.12-8.28,17.43-13.41,5.5-5.32,10.06-11.34,13.41-18.24,2.32-4.77,4.04-9.73,4.57-15.04-.11-1.54.9-2.84.99-4.33.09-1.43.04-2.87.02-4.31-.02-1.43-.46-2.81-.55-3.72,4.12,7.9,9.75,14.95,18.35,19.21,6.59,3.27,13.35,3.32,20.22.99,7.26-2.47,12.36-7.7,17.11-13.38,1.09-1.3,1.88-2.75,2.26-4.42,2.31-4.02,4.39-8.16,5.85-12.57,5.22-15.88,7.02-32.09,4.66-48.69Zm-75.18,41.53c-4.9-7.77-10.87-14.51-18.51-19.72-2.17-1.48-4.25-3.09-6.42-4.57-.94-.64-1.38-1.26-1.25-2.53.38-3.59-.31-7.14-.79-10.69-.4-1.02.01-1.5,1.05-1.57.96-.06,1.92-.08,2.86.03,6.35.69,12.71.59,19.07.17,1.7-.11,2.65.44,2.14,2.35-1.35,11.83-.68,23.53,2.21,35.09.08.31.11.63.16.94.14.5-.07.62-.52.5Zm56.41-19.38c-.35,3.88-.39,7.65-1.17,11.34-.25,1.18-.62,2.32-1.09,3.41-1.58,3.63-4.92,5.21-8.81,4.28-1.91-.46-3.56-1.35-5.04-2.63-3.67-3.19-5.86-7.33-7.54-11.78-5.7-15.08-5.69-30.29-.91-45.58.07-.23.19-.45.23-.68.4-2.17,1.33-3.86,3.7-4.35.3-.06.57-.29.84-.45q2.76-1.55,4.56.93c.37.52.76,1.03,1.08,1.59,5.11,9.14,10,18.39,12.62,28.62,1.29,5.06,1.77,10.23,1.54,15.3Z"/>
  <path class="cls-14" d="m448.67,214.92c.94-1.02,1.88-2.04,2.83-3.05.67-.71,1.11-1.48.7-2.49,6.67-2.38,13.58-3.5,20.6-4.1,15.62-1.33,31.27-1.71,46.94-1.34,11.69.27,23.23,1.85,34.47,5.27,2.68.81,5.33,1.72,7.74,3.18,4.06,2.46,6.04,5.87,4.8,10.86-.81-2.82-2.13-3.52-5.02-2.34-5.1,2.08-10.18,4.21-15.2,6.47-15.78,7.11-32.15,12.44-49.07,16.05-4.21.9-8.46,1.6-12.75,2.06-5.44-1.57-10.97-2.89-16.11-5.38-6.39-3.1-12.24-6.89-16.63-12.62-2.85-3.73-4.17-7.86-3.3-12.57Z"/>
  <path class="cls-10" d="m328.49,432.3c1.67.81,2.92,2.18,4.38,3.28,7.75,5.85,16.17,10.57,24.99,14.58,11.73,5.33,23.9,9.43,36.41,12.5,10.77,2.65,21.66,4.68,32.66,6.15,8.78,1.17,17.6,1.92,26.44,2.46,9.83.59,19.65.54,29.46.2,10.12-.36,20.21-1.27,30.27-2.6,15.69-2.07,31.15-5.15,46.33-9.63,14.05-4.15,27.7-9.29,40.6-16.3.82-.45,1.57-1.14,2.6-1.1-1.96,2.24-4.39,3.92-6.74,5.69-22.55,16.96-47.51,28.72-75.14,34.65-15.97,3.43-32.12,5.47-48.46,5.93-22.82.65-45.33-1.35-67.41-7.38-16.68-4.56-32.51-11.06-46.98-20.63-10.88-7.19-20.54-15.74-28.43-26.18-.38-.5-.91-.92-.99-1.6Z"/>
  <path class="cls-10" d="m643.91,391.41c-.03-.39-.17-.81-.08-1.17.98-4.44.37-8.85-.03-13.37,1.06,1.84,2.07,3.72,3.18,5.53,2.87,4.66,6.41,8.74,10.74,12.12,10.12,7.88,22.44,7.42,32.44.28,4.98-3.56,8.93-8.14,12.16-13.34.5,2.1-.1,4.12-.46,6.16-1.1,6.23-3.25,12.01-7.33,16.95-6.72,8.12-17.64,11.04-27.51,7.35-6.89-2.57-12.13-7.26-16.58-12.96-2.26-2.91-4.02-6.13-5.75-9.43-.68.54-.2,1.43-.77,1.9Z"/>
  <path class="cls-1" d="m514.39,259.14c-.54,2.85.75,4.93,2.8,6.69.32.47.54.99.63,1.54.53,3.25,2.64,5.22,5.48,6.47,5.9,2.58,12.07,4.09,18.48,4.74,5.34.54,10.63.77,15.95-.37,5.27-1.13,10.04-3.11,13.87-7.03.59-.6,1.18-1.36,2.22-1.13,3.38,5.15,6.16,10.64,8.92,16.13,6.65,13.22,12.6,26.74,17.18,40.83.89,2.74,1.6,5.53,2.13,8.35.41,2.19,1.51,3.82,3.44,4.93,7.86,4.52,13.73,11.19,19.11,18.26,4.61,6.06,7.68,12.86,8.75,20.5.98,6.96-.46,13.51-3.26,19.83-1.93,4.35-4.61,8.22-7.64,11.85-7.88,9.45-17.45,16.86-28.05,22.97-14.92,8.6-30.96,14.42-47.59,18.68-17.86,4.58-36.03,7.14-54.42,8.26-16.39,1-32.76.77-49.11-.59-26.04-2.16-51.36-7.5-75.53-17.67-10.13-4.26-19.69-9.56-28.56-16.06-6.51-4.77-12.1-10.43-16.48-17.23-8-12.42-8.62-25.28-2.12-38.49,2.89-5.86,6.9-10.95,11.51-15.54,2.66-2.65,5.48-5.14,8.27-7.65,2.08-1.88,3.54-4.14,4.21-6.84,2.63-10.6,6.86-20.6,11.4-30.47,5.76-12.53,12.78-24.32,20.96-35.42.33-.45.71-.85,1.07-1.28.36-.2.75-.31,1.15-.21,7.57,1.83,14.83-.17,22.1-1.86,3.73-.87,7.29-2.27,10.59-4.27,1.3-.79,2.52-1.69,3.5-2.85,1.92-2.26,2.93-4.74,1.65-7.69-.39-.91-.54-1.82-.21-2.78,1.69-5.24-2.22-8.19-7.43-9.03-.78-.13-1.59-.02-2.46-.02,2.17-2.98,15.23-10.24,20.21-11.2-.87,4.14-.13,7.99,1.87,11.6,1.7,3.76,2.9,7.76,6,10.79,3.88,3.79,8.46,6.23,13.59,7.75,4.61,1.37,9.36,2.17,14.14,2.4,11.55.54,22.95-.66,34.19-3.41,4.97-1.21,9.89-2.58,14.78-4.06.89-.27,2.13-1.13,2.69.58Z"/>
  <path class="cls-11" d="m641.64,329.21c.26-3.2.48-6.41,1.3-9.53,3.72-.95,5.33-3.93,6.44-7.13,2.67-7.71,5.73-15.23,9.81-22.31,1.1-1.9,1.19-3.9.54-5.97,2.94-1.85,4.87.05,5.41,2.63.58,2.75.09,5.41-.49,8.06-.96,4.36-2.25,8.66-2.82,13.11-1.82,14.15-1.14,28.05,4.02,41.53,2.03,5.31,4.78,10.1,9.41,13.6,2.83,2.14,5.99,3.33,9.52,3.47,6.16.24,10.81-2.94,12.81-8.79,1.46-4.29,1.56-8.79,1.84-13.25.32-5.21-.17-10.37-.88-15.52,3.12-.72,6.19-.89,9.05.95.71,14.04-1.53,27.51-7.63,40.26-2.01,4.2-4.42,8.13-7.33,11.76-2.83,3.53-6.11,6.55-10.16,8.6-7.68,3.9-14.93,2.85-21.79-2.06-2.44-2.58-3.63-5.71-4.39-9.14-1.55-7.02-4.19-13.75-5.68-20.8-1.55-7.36-2.68-14.77-3.58-22.23-.16-1.35-.34-2.7-.71-4.01-.7-2.49-1.51-3.03-4.12-2.85-.29.02-.64.14-.56-.38Z"/>
  <path class="cls-12" d="m681.13,282.98c-2.83,3-5.77,5.88-9.31,8.76-.06-1.23-.08-2.07-.14-2.9-.19-2.61-.93-5.03-2.57-7.1-2.94-3.72-7.4-4.4-11.26-1.63-3.79,2.71-7.14,5.88-9.77,9.79-2.97,4.4-5.37,9.08-7.13,14.07-.51,1.44-1.33,2.18-2.75,2.63-8,2.56-16.16,3.74-24.56,2.99-1.91-.17-3.82-.38-5.73-.49-.92-.06-1.45-.42-1.76-1.3-1.93-5.43-4.26-10.68-6.76-15.87-.13-.27-.13-.61-.2-.98.44-.14.8-.3,1.18-.39,8.22-1.85,16.02-4.92,23.68-8.35,6.57-2.95,12.81-6.53,18.59-10.86.64-.48,1.23-1.02,1.84-1.54.71-.61.85-1.32.36-2.13.26-.78.95-1.06,1.63-1.27,6.59-2.03,13.29-3.5,20.19-2.18,9.09,1.75,13.14,6.61,14.67,16.15.14.89-.31,1.72-.17,2.59Z"/>
  <path class="cls-12" d="m514.39,259.14c-.79-1.03-1.64-.23-2.38,0-5.25,1.64-10.53,3.14-15.9,4.33-6.06,1.34-12.15,2.4-18.36,2.92-4.39.37-8.76.42-13.14.33-6.97-.14-13.81-1.21-20.28-3.9-5.33-2.21-9.91-5.45-12.93-10.55-1.32-2.22-2.06-4.63-2.4-7.18,4.8,6.57,11.85,8.92,19.41,10.12,10.48,1.66,20.99,1.52,31.51.17,22.73-2.91,44.6-8.88,65.56-18.14,1.79-.79,2.97-.63,4.15.82.65.8,1.59,1.33,2.1,2.26-.13,1.82-1.7,2.45-2.91,3.24-5.02,3.29-10.41,5.89-15.86,8.4-1.58.73-3.32,1.14-4.71,2.27-.8.2-1.57-.05-2.35-.19-2.06-.38-4.11-.25-6.14.26-2.65.66-4.48,2.24-5.38,4.85Z"/>
  <path class="cls-1" d="m681.13,282.98c-.41-.08-.69-.2-.64-.76.67-8.53-5.5-16.22-13.93-17.39-7.5-1.04-14.71.24-21.74,2.85h-.01c-.49-.33-.98-.33-1.47,0-6.21,3.11-12.32,6.4-18.76,9.03-8.37,3.42-16.91,6.25-25.79,8.01-.62.12-1.27.15-1.9.22-.69.07-1.22-.14-1.58-.8-1.35-2.43-2.74-4.84-4.15-7.32,13.19.13,25.53-3.15,37.57-7.73,6.12-2.33,12.13-4.93,18.2-7.38,5.47-2.21,10.84-4.72,16.72-5.77,3.24-.58,6.48-.92,9.77-.69,1.36.09,2.7.3,4.01.68,8.62,2.52,12.33,10.67,8.72,19.2-1.22,2.89-2.97,5.47-5,7.85Z"/>
  <path class="cls-1" d="m315.1,287.44c-2.96-4.1-3-8.46-.99-12.92,1.59-3.54,3.77-4.58,7.53-3.61,4.81,1.24,9.32,3.3,13.82,5.35,5.31,2.43,10.73,4.57,16.49,5.65,2.73.51,5.5.81,8.5,1.24-2.01,3.44-3.93,6.73-5.85,10.01-.41.51-.9.87-1.54,1.06-12.26,3.77-23.88,2.09-35-4.03-1.22-.67-1.98-1.83-2.95-2.76Z"/>
  <path class="cls-8" d="m448.67,214.92c.71.75.41,1.67.37,2.51-.14,3.16.86,5.95,2.59,8.52,3.31,4.94,7.89,8.43,12.95,11.39,5.12,3,10.65,4.93,16.35,6.46,1.31.35,2.88.35,3.78,1.69-9.91,1.36-19.84,1.79-29.8.64-4.22-.49-8.31-1.55-12.11-3.48-6.69-3.39-8.18-8.14-4.61-14.78,1.97-3.67,4.63-6.86,7.47-9.9.98-1.05,2.01-2.04,3.02-3.05Z"/>
  <path class="cls-5" d="m707.6,330.06c-.29-.12-.58-.34-.87-.33-2.75.07-5.44-.54-8.18-.62-1.19-4.97-2.66-9.86-4.8-14.5-3.53-7.67-6.78-15.52-12.4-22.02-.6-.7-.66-1.18.1-1.75,2.77-2.09,5.06-4.62,7.01-7.48.85-1.24,1.45-.45,2.04.19,3.13,3.42,6.08,6.98,8.31,11.08,4.19,7.73,6.56,16.06,7.88,24.71.54,3.55.98,7.11.91,10.71Z"/>
  <path class="cls-6" d="m641.64,329.21c2-1.18,3.78-.66,4.86,1.49.77,1.53.92,3.22,1.1,4.88,1.45,13.28,3.88,26.35,8.12,39.04.58,1.74,1.1,3.52,1.41,5.32.5,2.9,1.58,5.5,3.41,7.8.2.25.35.54.14.87-2.97-1.84-5.21-4.44-7.26-7.21-4.43-5.98-7.36-12.66-9.24-19.85-2.78-10.64-3.39-21.43-2.54-32.34Z"/>
  <path class="cls-12" d="m573.83,270.04c-1.62,1.16-2.81,2.8-4.43,3.99-4.1,3-8.78,4.37-13.69,5.21-5.57.96-11.08.29-16.62-.37-5.18-.62-10.11-2.07-14.94-3.94-1.04-.41-2.02-.92-2.97-1.52-2.79-1.77-4.28-4.2-3.99-7.58,7.09,4.39,14.66,7.38,23.06,7.96,4.67.32,9.23-.44,13.75-1.52,5.62-1.34,11.06-3.15,15.77-6.65.75-.56,1.23-.55,1.68.32.73,1.41,1.79,2.62,2.38,4.12Z"/>
  <path class="cls-12" d="m416.81,253.74c.05.81.33,1.54.69,2.26,1.55,3.13.64,5.9-1.38,8.42-1.74,2.16-4.11,3.55-6.57,4.67-5.77,2.63-11.87,4.06-18.13,4.92-2.21.3-4.43.49-6.64.69-2.3.22-4.56-.49-6.74-1.3,1.01-2.09,2.71-3.1,4.96-3.66,4.57-1.12,9.1-2.37,13.59-3.81,4.2-1.35,8.19-3.16,12.15-5.04,3.34-1.58,6.27-3.78,8.08-7.17Z"/>
  <path class="cls-10" d="m635.79,325.17c-.16-1.94-.16-1.89-1.97-1.67-5.81.71-11.63.38-17.44.09-1.59-.08-3.18-.23-4.77-.43-.92-.12-.74.6-.94,1.04-.68-3.07-1.14-6.19-2.16-9.45,3.38.21,6.46,1.12,9.64,1.01,3.26-.11,6.54.06,9.78-.53,3.13-.57,6.27-1.09,9.42-1.63.54.45.29,1.03.18,1.54-.66,3.03-1.39,6.05-1.38,9.19,0,.28-.23.56-.36.85Z"/>
  <path class="cls-12" d="m315.1,287.44c6.01,4.52,12.96,6.75,20.23,7.91,3.58.57,7.3.56,10.93-.27,2.78-.64,5.55-1.28,8.33-1.91-1.84,3.61-3.71,7.21-5.5,10.85-.48.97-1.1,1.25-2.09,1.06-3.91-.76-7.84-1.47-11.58-2.89-4.87-1.85-9.45-4.27-13.63-7.39-2.7-2.01-5.14-4.28-6.69-7.35Z"/>
  <path class="cls-13" d="m659.74,284.27c1.31,1.05,1.48,2.38.93,3.86-.36.97-.71,1.95-1.22,2.85-3.89,6.8-6.88,13.99-9.35,21.41-.82,2.46-2.08,4.63-3.96,6.44-.93.89-1.89,1.46-3.19.85.88-7.02,3.07-13.66,5.9-20.11,1.8-4.1,4.13-7.91,6.63-11.62,1.11-1.64,2.43-2.93,4.27-3.68Z"/>
  <path class="cls-1" d="m528.26,254.22c-.32-.5-.27-.83.34-1.07,1.4-.56,2.79-1.13,4.16-1.76,5.91-2.72,11.78-5.49,17.11-9.28.73-.52,1.28-1.17,1.87-1.8,0,0,.05.02.05.02.1.2.26.32.48.39,1.87,1.73,3.51,3.68,5.18,5.6,1,1.15.97,1.2-.28,2.2-1.75,1.4-3.65,2.52-5.72,3.39-6.63,2.76-13.49,3.53-20.58,2.64-.87-.11-1.74-.22-2.6-.32Z"/>
  <path class="cls-7" d="m637.63,361.71c.17-.17.35-.34.52-.5.54.45.52,1.03.41,1.65-.8,0-.86-.58-.93-1.15Z"/>
  <path class="cls-12" d="m643.33,267.69c.49-.55.98-.67,1.47-.01-.49,0-.98,0-1.47.01Z"/>
  <path class="cls-12" d="m552.26,240.72c-.27.01-.44-.11-.48-.39.3-.04.44.1.48.39Z"/>
  <path class="cls-6" d="m559.11,300.46c1.35.23,1.84,1.21,2.19,2.39,1.65,5.52,2.8,11.13,2.9,16.91.03,1.84.43,3.65.4,5.48-.17,10.94-1,21.81-3.82,32.44-.46,1.75-1.07,3.46-1.71,5.52,4.6-2.1,9.22-2.84,13.82-3.61,5.51-.93,11.02-1.05,16.11,1.62,6.79,3.56,10.19,9.44,10.69,17,.37,5.67-1.91,10.61-4.7,15.34-3.85,6.54-9.12,11.84-14.77,16.84-7.77,6.87-16.36,12.48-25.62,17.08-7.91,3.93-16.29,6.46-24.84,8.56-10.6,2.61-21.33,4.6-32.12,6.24-5.58.85-11.2,1.5-16.82,2.1-8.66.92-17.33,1.61-26.03,1.24-6.84-.29-13.69-.5-20.52-1.2-9.36-.95-18.63-2.43-27.89-4.01-.7-.12-1.49-.19-2.07-.56-2.6-1.67-5.6-1.77-8.49-2.21-3.49-.53-6.97-1.18-10.2-2.5-7.96-3.27-15.97-6.39-23.49-10.68-5.43-3.09-10.68-6.42-15.39-10.52-7.79-6.79-14.54-14.42-17.73-24.54-1.51-4.77-1.58-9.61.52-14.27,2.45-5.45,6.71-8.38,12.72-8.58,3.69-.12,7.32.3,10.74,1.85.82.4.95,1.22,1.21,1.97,4.14,11.84,12.57,18.52,24.83,20.5,8.33,1.34,15.83-.62,22.5-5.82,1.96-1.53,2.57-1.35,3.4,1.01,1.15,3.24,2.07,6.56,3.62,9.64.69,1.36,1.29,3.52,3.26,2.74,1.93-.76,1.03-2.8.55-4.24-3.01-8.95-5.5-18.04-7.23-27.32-1.1-5.91-1.7-11.85-.33-17.82.09-.39.15-.79.26-1.17.39-1.28.51-3.22,1.92-3.28,1.35-.06,1.3,1.9,1.74,3.05.64,7.26,4.63,10.2,11.83,8.63,3.95-.86,7.51-2.63,10.74-5.05,2.55-1.92,3.94-4.54,4.46-7.65.94-1.64,2.38-3.02,2.55-5.07.13-1.56-.15-2.98-.8-4.41-.99-2.17-.68-2.64,1.74-2.76,4.08-.21,8.12.19,12.16.66,4.04.47,8.06,1.04,12.09,1.59.9.12,2.26.5,2.54-.56.29-1.09-1.09-1.38-1.94-1.71-6.44-2.54-13.22-3.53-20.04-4.39-4.45-.56-8.91-.47-13.37-.48-4.42-.01-5.73-2.33-3.67-6.47,3.4-5.49,6.9-10.91,11.04-15.88,5.8-6.97,12.12-13.27,20.51-17.24,10.34-4.89,20.31-1.83,27.2,6.51,2.23,2.7,4.18,5.64,5.7,8.82.38.8.77,1.58.77,2.48.34,1.14-.34,2.02-.82,2.91-5.69,10.61-8.28,21.98-7.65,33.96.71,13.33,4.64,25.49,14.7,34.89,6.97,6.51,15.24,9.94,24.92,10.17,12.89.31,23.05-4.83,31.06-14.69.66-.81,1.45-1.5,2.08-2.32.8-1.03,1.27-2.17.09-3.18-1.16-1-2.35-.5-3.13.55-2.76,3.69-6.57,6.03-10.42,8.32-5.56,3.31-11.48,5.78-17.99,6.14-8.38.46-15.79-2.36-21.88-8.07-12.03-11.29-16.12-25.49-14.64-41.58.97-10.53,4.58-20.12,11.03-28.46,5.61-7.27,12.62-12.86,21.54-15.76,11.4-3.71,21.59-1.17,30.9,5.87,2.66,2.01,5.3,4.1,7.03,7.06Z"/>
  <path class="cls-2" d="m408.27,347.9c-.39-1.04-.79-2.08-1.24-3.27-1.36,2.47-1.8,5.06-2.12,7.66-.67,5.47.14,10.84,1.23,16.18,1.78,8.69,3.96,17.27,6.98,25.62.35.98.67,1.97.61,3.03-.06,1.03-.48,1.84-1.49,2.26-1.04.43-1.87,0-2.61-.68-.66-.6-1.03-1.41-1.4-2.21-1.49-3.19-2.71-6.47-3.77-9.83-.23-.74-.47-1.47-.77-2.41-8.97,7.58-19.08,9.55-29.94,6.09-10.8-3.43-17.87-10.8-20.71-21.96-.01-.7-.05-1.4-.02-2.1.06-1.27.67-1.87,1.99-1.52,1.8.72,2.06,2.55,2.74,4.01,2.51,5.4,6.26,9.56,11.46,12.5,9.1,5.15,21.15,4.26,29.12-2.17,1.96-1.58,2.72-3.18,1.96-5.78-1.69-5.77-2.33-11.73-2.71-17.73-.08-1.35,1-3.09.05-3.87-.92-.75-2.52.42-3.83.67-9.16,1.77-18.47-2.75-22.76-10.99-6.02-11.56-2.71-25.24,5.56-34.48.8-.89,1.7-1.69,2.54-2.55,1.55-1.57,3.07-2.09,5.32-.98,3.43,1.69,7.59-.09,9.29-3.55,1.25-2.53,1.81-2.82,4.69-2.38,9.85,1.5,16.65,8.39,18.53,18.74.52,2.85.82,5.69.18,8.56-.12.52-.44,1.45.5,1.53.79.07.98-.77.98-1.4.04-10.1-1.25-19.9-8.16-27.88-5.16-5.96-13.67-7.23-21.9-3.87-5.02,2.05-9.36,5.14-13.62,8.41-1.15.88-2.2,2.49-4.11,1.53-.78-.64-1.01-1.41-.47-2.31.33-.55.62-1.13,1.04-1.6,5.76-6.59,12.59-11.55,21.3-13.41,8.57-1.83,16.16.25,22.52,6.34,5.48,5.25,8.45,11.91,10.34,19.13.75,2.87,1.03,5.81,1.49,8.72.02,1.43.14,2.88.04,4.3-.09,1.34.47,1.58,1.67,1.55,5.11-.16,10.21-.16,15.3.42,6.83.78,13.57,1.93,20.05,4.32.97.36,1.94.73,2.76,1.4.45.37.81.83.67,1.44-.17.74-.76.94-1.46.98-2.33.12-4.61-.35-6.89-.67-6.96-.96-13.92-1.88-20.96-1.86-.32,0-.63.04-.9.06-.44.51.03.74.23,1.03,2.26,3.19,2.23,6.34-.11,9.49-.43.57-.89,1.13-1.33,1.69-1.37,2.68-4,3.88-6.44,5.15-5.17,2.7-10.57,4.63-16.54,2.81-2.21-.67-4.1-1.76-4.85-4.16Z"/>
  <path class="cls-6" d="m370.82,303.11c1.53-.12,2.63-1.09,3.75-1.98,2.57-2.03,5.16-4.04,7.99-5.7,3.54-2.07,7.26-3.66,11.33-4.36,7.36-1.26,13.4,1.02,18.09,6.78,3.58,4.39,5.3,9.61,6.3,15.09.7,3.86,1.11,7.75,1.1,11.68,0,2.15.02,2.15-2.03,2.68-.3.08-.6.17-1.2.34.17-1.46.35-2.75.47-4.05.55-6.01-.62-11.64-4.02-16.66-3.72-5.51-8.95-8.53-15.63-8.89-1.87-.1-1.87-.07-2.49,1.65-1.6,4.42-7.37,6.49-11.28,3.92-.93-.61-1.43-.59-2.24.03-10.41,8.06-14.99,22.29-10.95,34.08,3.91,11.4,15.35,17.05,26.75,13.18.53-.18,1.05-.36,1.49-.51.37.15.36.4.33.61-.87,7.51.44,14.81,2.16,22.07,1,4.22,1.02,4.22-2.46,6.88-12.82,9.8-31.86,5.7-40-8.57-1.23-2.15-1.86-4.59-3.33-6.61-.56-2.16-.85-4.37-.89-6.6-.25-13.58,2.63-26.53,7.79-39.03,2.35-5.7,5.3-11.06,8.94-16.04Z"/>
  <path class="cls-2" d="m559.11,300.46c-1.19-.71-2.05-1.78-3.01-2.73-4.38-4.31-9.29-7.86-15.19-9.75-8.32-2.66-16.41-1.7-24.23,1.97-4.6,2.16-8.62,5.17-12.22,8.75-15.14,15.03-19.88,40.02-11.3,59.55,2.34,5.33,5.51,10.1,9.82,14.04,9.14,8.35,19.6,10.61,31.31,6.5,5.55-1.95,10.53-4.97,15.17-8.55,1.21-.93,2.25-2.03,3.17-3.25.43-.58.85-1.16,1.5-1.52,1.01-.55,2-.54,2.94.12.95.67,1.24,1.61,1.05,2.74-.11.66-.43,1.21-.89,1.67-2.59,2.61-4.86,5.52-7.62,7.97-7.4,6.57-16.12,9.56-25.95,9.34-11.8-.26-21.45-5.11-29.05-14.04-5.73-6.74-8.98-14.68-10.48-23.33-2.72-15.62-.1-30.35,7.62-44.19.19-.35.35-.71.52-1.07,1.72-2.38,3.27-4.89,5.15-7.16,6.77-8.19,15.04-14.13,25.63-16.05,14.74-2.67,26.89,1.9,36.07,13.9.63.82,1.19,1.72,1.6,2.66.66,1.54.24,2.11-1.61,2.45Z"/>
  <path class="cls-2" d="m514.03,297.44c4.62,4.12,10.08,3.64,13.39-1.17.79-1.15,1.42-2.39,1.21-3.8-.18-1.22.35-1.54,1.39-1.63,6.09-.53,11.79.54,16.87,4.09,6,4.2,9.29,10.09,10.06,17.26,1.96,18.18-11.7,35.49-29.84,37.92-3.66.49-7.35.48-10.94-.59-9.68-2.88-15.21-9.61-16.67-19.34-2.02-13.51,3.33-24.16,13.9-32.42.18-.14.42-.23.62-.33Z"/>
  <path class="cls-2" d="m467.49,401.99c4.55.16,10.46,1.35,16.07,3.86,1.73.77,1.77.78,3.05-.6,1.31-1.42,2.25-3.09,3.24-4.74.74-1.23,1.41-2.5,2.16-3.73,3.48-5.69,8.69-7.82,15.17-6.24,6.65,1.62,11.95,8.52,11.37,15.01-.38,4.19-2.04,7.97-5.1,10.83-4.54,4.24-9.9,6.91-16.24,7.38-1.99.15-3.52-.43-4.9-1.9-10.08-10.71-22.53-13.51-36.57-10.74-2.03.4-4.02,1.02-6.01,1.59-.7.2-1.38.41-2.11.39-1.97-.05-2.88-1.51-2.01-3.28.78-1.57,2.19-2.52,3.63-3.39,4.85-2.93,10.66-4.47,18.26-4.46Z"/>
  <path class="cls-12" d="m408.27,347.9c3.04,3.91,7.18,4.75,11.76,4.02,5.8-.92,10.88-3.45,15.3-7.3.23-.2.51-.35.77-.53-.05,3.04-1.71,5.27-3.84,7.12-4.01,3.47-8.78,5.38-14.01,6.09-1.93.26-3.81-.13-5.57-.97-3.29-1.59-4.73-4.36-4.42-8.42Z"/>
  <path class="cls-3" d="m391.09,335.43c0,4.63-4.07,8.07-8.64,7.28-3.4-.59-5.87-2.38-7.1-5.68-.39-1.04-.74-2.11-.99-3.19-1.16-5.08,2.71-8.39,6.99-8.35,5.12.05,9.74,4.81,9.75,9.95Z"/>
  <path class="cls-3" d="m516.83,324.82c5.5.15,10.61,4.78,11.31,10.24.63,4.95-2.93,9.1-7.93,8.89-5.23-.22-9.07-2.86-11.21-7.64-2.56-5.7,1.58-11.67,7.84-11.49Z"/>
  <path class="cls-4" d="m529.67,330.28c.01-3.03,1.85-4.23,4.44-3.08,2.52,1.12,3.47,3.18,2.47,5.39-.61,1.35-1.65,2.18-3.15,2.21-1.41.03-2.44-.73-3.09-1.93-.46-.85-.71-1.78-.67-2.59Z"/>
  <path class="cls-9" d="m490.57,409.93c2.9-2.66,4.55-6.01,6.19-9.38,2.19-4.51,6.78-5.65,11.03-2.83,5.51,3.65,6.25,10.47,1.51,15.21-2.46,2.46-5.56,3.97-8.89,4.95-1.36.4-2.38.17-3.22-1.17-1.66-2.66-4.15-4.58-6.62-6.78Z"/>
</svg>