<?xml version="1.0" encoding="UTF-8"?>
<svg id="_图层_1" data-name="图层 1" xmlns="http://www.w3.org/2000/svg" viewBox="0 0 960 960">
  <defs>
    <style>
      .cls-1 {
        fill: #454794;
      }

      .cls-1, .cls-2, .cls-3, .cls-4, .cls-5, .cls-6, .cls-7, .cls-8, .cls-9, .cls-10 {
        stroke-width: 0px;
      }

      .cls-2 {
        fill: #fcd541;
      }

      .cls-3 {
        fill: #f6b89f;
      }

      .cls-4 {
        fill: #a86760;
      }

      .cls-5 {
        fill: #5a7dfe;
      }

      .cls-6 {
        fill: #f9fbf9;
      }

      .cls-7 {
        fill: #b06b1f;
      }

      .cls-8 {
        fill: #f5b89f;
      }

      .cls-9 {
        fill: #050504;
      }

      .cls-10 {
        fill: #b26d20;
      }
    </style>
  </defs>
  <path class="cls-9" d="m333.83,550.69c2.28,1.42,2.89,2.83,1.57,4.91-6.85,10.71-15.59,19.02-28.55,21.67-5.89,1.2-11.6.28-17.12-2-2.14-.89-1.65-1.08-3.2.91-4.95,6.37-10.8,11.74-17.75,15.92-9.09,5.47-18.98,8.79-29.29,10.87-11.61,2.33-23.33,2.64-35.06.86-1.22-.19-1.66.21-2.22,1.14-3.13,5.24-7.27,9.51-12.6,12.56-7.89,4.51-16.22,3.71-23.14-2.18-2.71-2.3-4.87-5.06-6.71-8.09-1.58-2.6-2.71-5.42-3.96-8.39-2.67,1.06-5.45,1.63-8.19,2.34-6.49,1.68-12.95,1.6-19.44.01-4.9-1.2-9.72-2.58-14.26-4.83-2.46-1.22-4.61-2.84-6.63-4.68-4.16-3.8-5.48-8.49-4.45-13.92.31-1.65.66-3.29,1.08-4.91.52-1.99.22-3.8-.97-5.46-.7-.97-1.44-1.92-2.17-2.87-2.46-3.18-4.53-6.58-6.01-10.32-2.27-5.76-1.69-11.09,2.41-15.92,4.7-5.54,10.49-9.57,17.12-12.4,4.48-1.91,9.06-3.57,13.88-4.49,1.84-.35,1.93-.43,1.79-2.38-.45-6.63.96-12.86,3.77-18.83.68-1.45,1.37-2.9,2.34-4.17,5.62-7.44,12.76-12.68,21.88-15.04,1.42-.37,2.85-.41,4.29-.25,3.51.38,5.89,3.38,5.49,6.89-.15,1.28-.6,2.48-1.01,3.69-1.58,4.69-3.4,9.31-4.27,14.21-.51,2.84-.8,5.7-.68,8.59.14,3.3,1.3,6.2,3.27,8.84.84-.26,1.09-.98,1.51-1.51,2.44-3.09,5.16-5.9,8.42-8.13,9.12-6.25,18.89-5.44,26.85,2.2,5.06,4.86,7.99,10.9,9.8,17.57.92,3.41.92,3.43,4.47,2.41,6.03-1.73,11.76-4.11,16.8-7.93,1.4-1.06,2.76-2.19,3.87-3.57,1.05-1.31,1.08-1.36-.3-2.39-3.52-2.62-5.97-6.01-7.09-10.25-1.61-6.09-.56-11.77,3.21-16.81,4.55-6.08,10.73-9.4,18.27-10.24,1.37-.15,2.71.07,4.06.26,1.34.19,2.41.8,3.07,2.03-.18,1.77-1.46,2.35-2.93,2.68-2.49.55-4.98,1.13-7.36,2.05-4.05,1.55-7.49,3.91-9.8,7.68-3.63,5.94-2.13,11.83,3.9,15.3,4.18,2.41,8.69,3.03,13.41,2.22,4.13-.71,6.34.55,7.77,4.46.3.81.34,1.73,1.02,2.38.02.39-.04.81.07,1.17,1.89,6.52,4.02,12.96,6.89,19.11,3.82,8.17,8.6,15.67,15.67,21.47,4.55,3.73,9.61,6.25,15.66,6.3,6.29.05,11.61-2.42,16.47-6.17,3.89-3,7.06-6.66,9.93-10.61.49-.61.99-1.21,1.45-1.84.92-1.27,2.08-2.11,3.72-2.11Zm-133.2-27.24c-1.87-3.4-4.59-5.94-8.11-7.51-5.19-2.31-10.06-1.15-14.48,1.97-6.74,4.77-10.95,11.47-13.93,19.03-2.18,4.04-3.4,8.41-4.46,12.84-.85,3.17-1.36,6.41-1.72,9.67-.14,1.25-.28,2.5-.43,3.75-.61,7.6-.39,15.16,1.06,22.66,1.11,5.75,2.7,11.35,5.58,16.5,2.21,3.95,4.81,7.59,8.87,9.85,4.52,2.52,9.1,2.64,13.65.03,4.67-1.97,7.57-5.8,10.74-9.77-2.62-.73-4.9-1.36-7.17-1.99-.06.14-.12.21-.12.28-.03,2.1-.39,2.83-1.51,3.06-1.18.24-2.1-.54-2.77-2.42-.24-.67-.46-1.36-.61-2.06-.49-2.35-.82-4.72-1-7.11-1.2-15.98,1.36-31.5,5.77-46.78,1.02-3.53,2.38-6.94,4.42-10.04.57-.87,1.17-1.72,2-2.37.83-.64,1.75-.9,2.62-.16.79.67.62,1.55.25,2.42-.34.78-1.06,1.4-1.08,2.59,3.05-.03,6.03.07,9.19-.63-1.84-4.94-3.62-9.7-6.78-13.79Zm-99.65,25.78c.56,4.47,2.53,8.36,4.97,12.05.93,1.4,1.97,2.72,2.91,4.1,2.05,3.01,2.58,6.29,1.7,9.83-.42,1.7-.76,3.43-1.05,5.16-.37,2.26.19,4.24,1.84,5.93,1.99,2.03,4.23,3.63,6.84,4.74,3.69,1.58,7.56,2.5,11.46,3.4,6.48,1.5,12.82.84,19.12-.94,1.69-.33,3.42-.47,4.91-1.2-4.31-22.46-1.68-43.85,8.35-64.3-2.91-2.51-4.17-4.38-5.06-7.56-.5-1.78-.67-3.61-.71-5.45-.12-6.05.82-11.93,2.72-17.67.88-2.65,1.67-5.33,2.46-8.01.17-.57.44-1.21-.01-1.77-.85-.3-1.66-.21-2.41.02-8.85,2.66-15.74,7.66-19.37,16.46-2.23,5.41-3.04,11.06-2.82,16.89.15,3.96-.97,5.65-4.69,7.07-.67.26-1.36.48-2.04.7-4.56,1.48-9.1,3.01-13.53,4.83-5.55,2.28-10.46,5.48-14.11,10.36-1.19,1.59-1.89,3.33-1.5,5.36Zm102.88-4.03c-1.94.08-3.87.16-5.81.23-.39-.04-.79-.1-1.18-.12-2.02-.14-2.03-.14-2.63,1.79-.47,1.52-.94,3.05-1.36,4.59-2.41,8.81-3.62,17.83-4.24,26.92-.31,4.54-.34,9.1-.18,13.66.04,1.1.37,1.57,1.58,1.87,11.17,2.83,22.51,3.66,33.98,3.23.86-.03,1.77.08,2.55-.45,1.51-.19,3.01-.34,4.51-.57,16-2.37,30.04-8.96,42.22-19.57,2.24-1.95,4.15-4.2,6.06-6.46.57-.68.62-1.15-.08-1.79-1.24-1.13-2.45-2.3-3.56-3.55-5.75-6.45-9.92-13.88-13.24-21.81-2.19-5.24-3.92-10.64-5.2-16.17-.25-1.1-.64-1.44-1.77-1.27-2.13.32-4.3.46-6.45.2-1.24-.15-1.87.33-2.47,1.34-.61,1.01-1.43,1.92-2.25,2.79-3.19,3.34-7.02,5.77-11.15,7.76-8.82,4.26-18.17,6.45-27.88,7.3-.49-.18-.97-.19-1.44.09Z"/>
  <path class="cls-5" d="m263.96,523.35c-.68-.65-.73-1.57-1.02-2.38-1.43-3.91-3.64-5.17-7.77-4.46-4.72.81-9.23.19-13.41-2.22-6.03-3.48-7.53-9.37-3.9-15.3,2.31-3.77,5.75-6.13,9.8-7.68,2.39-.92,4.87-1.5,7.36-2.05,1.47-.33,2.76-.91,2.93-2.68,9.08-.79,17.84.83,26.33,3.84,12.68,4.5,23.91,11.38,33.2,21.2,7.53,7.96,13.07,17.09,15.58,27.89.86,3.69,1.01,7.42.77,11.18-1.64,0-2.79.83-3.72,2.1-.46.63-.97,1.23-1.45,1.84-1.75-.01-3.43-.69-5.21-.47-3.63.45-7.26.88-10.9,1.23-6.2.6-12.23.2-17.96-2.63-4.59-2.27-8.97-4.87-13.12-7.84-4.3-3.07-8.22-6.58-11.2-11-1.83-2.72-3.24-5.67-4.76-8.57-.39-.74-.53-1.72-1.55-2Z"/>
  <path class="cls-3" d="m205.3,545.11c9.71-.85,19.06-3.04,27.88-7.3,4.13-1.99,7.96-4.42,11.15-7.76.82-.86,1.64-1.77,2.25-2.79.6-1.01,1.23-1.49,2.47-1.34,2.15.26,4.32.13,6.45-.2,1.13-.17,1.52.17,1.77,1.27,1.28,5.53,3.01,10.93,5.2,16.17,3.31,7.93,7.49,15.36,13.24,21.81,1.11,1.25,2.33,2.42,3.56,3.55.7.64.66,1.11.08,1.79-1.91,2.26-3.82,4.51-6.06,6.46-12.18,10.61-26.23,17.2-42.22,19.57-1.5.22-3.01.38-4.51.57-.39-.04-.8-.15-1.18-.09-2.15.34-4.04-.31-5.96-1.25-3.94-1.94-7.67-4.25-11.47-6.42-3.12-1.78-6.14-3.7-9.03-5.82-1.67-1.22-2.99-2.59-2.99-4.84,0-.87-.13-1.75-.16-2.62-.16-3.91.2-7.8.43-11.69.17-2.86.52-5.7.85-8.54.39-3.4.68-6.8,1.01-10.21,1.94-.08,3.87-.16,5.81-.23.5.34.98.33,1.44-.09Z"/>
  <path class="cls-8" d="m100.98,549.23c-.4-2.04.31-3.77,1.5-5.36,3.65-4.88,8.56-8.08,14.11-10.36,4.43-1.82,8.97-3.35,13.53-4.83.68-.22,1.37-.44,2.04-.7,3.73-1.42,4.85-3.11,4.69-7.07-.23-5.82.59-11.48,2.82-16.89,3.62-8.81,10.51-13.81,19.37-16.46.75-.23,1.56-.33,2.41-.02.46.57.18,1.2.01,1.77-.79,2.68-1.58,5.36-2.46,8.01-1.9,5.74-2.84,11.62-2.72,17.67.04,1.85.21,3.67.71,5.45.89,3.18,2.15,5.04,5.06,7.56-10.04,20.45-12.66,41.83-8.35,64.3-1.49.73-3.22.88-4.91,1.2-2.14-.11-4.29.17-6.44-.27-5.47-1.12-10.47-3.34-15.24-6.15-1.52-.9-2.97-1.89-4.13-3.24-2.75-3.18-5.28-6.44-4.98-11.01.07-1.13-.45-2.18-.92-3.2-.8-1.75-1.89-3.34-3.08-4.84-2.64-3.3-5.25-6.63-8.01-9.83-1.65-1.92-2.73-4.35-5-5.73Z"/>
  <path class="cls-2" d="m157.52,563.2c.14-1.25.28-2.5.43-3.75.63.6,1.34,1.15,1.89,1.82,2.64,3.23,5.64,6.09,8.83,8.74,1.59,1.32,3.25,2.57,4.97,3.72,1.43.96,3.46.83,4.5-.07,1.22-1.05,1.57-2.89.83-4.62-.44-1.03-.97-2.01-1.64-2.92-3.13-4.27-6.84-8-10.81-11.47-1.86-1.63-3.79-3.19-6.22-3.94-.46-.14-.48-.59-.64-.94,1.06-4.43,2.28-8.8,4.46-12.84,2.81,1.94,5.2,1.13,7.58-.91.78-.67,1.48-1.45,2.18-2.21,3.12-3.34,6.64-6.15,10.52-8.59,2.74-1.72,5.53-2.31,8.65-1.71,2.53.49,5.06.49,7.59-.08,3.16,4.09,4.94,8.85,6.78,13.79-3.16.71-6.14.6-9.19.63.02-1.19.74-1.81,1.08-2.59.37-.87.54-1.74-.25-2.42-.87-.74-1.78-.48-2.62.16-.83.65-1.43,1.5-2,2.37-2.04,3.1-3.4,6.51-4.42,10.04-4.42,15.28-6.97,30.8-5.77,46.78.18,2.39.51,4.76,1,7.11.15.7.37,1.39.61,2.06.67,1.88,1.59,2.67,2.77,2.42,1.12-.23,1.48-.96,1.51-3.06,0-.07.06-.15.12-.28,2.27.63,4.55,1.26,7.17,1.99-3.17,3.97-6.08,7.81-10.75,9.77-.81-1.28-1.66-2.53-2.43-3.84-3.42-5.77-4.43-12.23-5.25-18.73-.25-1.96-.72-3.76-1.84-5.35-1.29-1.83-2.88-3.37-4.54-4.89-5.48-4.99-10.96-10-15.1-16.24Z"/>
  <path class="cls-1" d="m263.96,523.35c1.01.28,1.16,1.25,1.55,2,1.52,2.89,2.93,5.85,4.76,8.57,2.98,4.43,6.89,7.93,11.2,11,4.16,2.97,8.53,5.57,13.12,7.84,5.73,2.83,11.77,3.23,17.96,2.63,3.64-.35,7.27-.79,10.9-1.23,1.78-.22,3.46.46,5.21.47-2.87,3.94-6.04,7.61-9.93,10.61-4.86,3.75-10.18,6.22-16.47,6.17-6.05-.05-11.11-2.57-15.66-6.3-7.07-5.8-11.85-13.3-15.67-21.47-2.88-6.16-5.01-12.59-6.89-19.11-.11-.37-.05-.78-.07-1.17Z"/>
  <path class="cls-7" d="m157.52,563.2c4.15,6.24,9.63,11.25,15.1,16.24,1.66,1.51,3.26,3.06,4.54,4.89,1.12,1.59,1.59,3.4,1.84,5.35.81,6.49,1.82,12.96,5.25,18.73.77,1.3,1.62,2.56,2.43,3.84-4.56,2.6-9.14,2.48-13.65-.03-4.06-2.26-6.66-5.9-8.87-9.85-2.88-5.15-4.47-10.74-5.58-16.5-1.45-7.51-1.67-15.06-1.06-22.66Z"/>
  <path class="cls-4" d="m198.05,545.43c-.33,3.4-.62,6.81-1.01,10.21-.33,2.84-.69,5.68-.85,8.54-.23,3.9-.58,7.79-.43,11.69.04.87.16,1.75.16,2.62,0,2.24,1.32,3.62,2.99,4.84,2.9,2.12,5.92,4.05,9.03,5.82,3.81,2.17,7.53,4.48,11.47,6.42,1.92.94,3.8,1.59,5.96,1.25.38-.06.79.06,1.18.09-.78.53-1.69.41-2.55.45-11.47.43-22.81-.4-33.98-3.23-1.2-.3-1.54-.77-1.58-1.87-.16-4.56-.13-9.12.18-13.66.62-9.09,1.83-18.1,4.24-26.92.42-1.54.89-3.07,1.36-4.59.6-1.93.61-1.93,2.63-1.79.4.03.79.08,1.18.12Z"/>
  <path class="cls-4" d="m100.98,549.23c2.27,1.38,3.34,3.81,5,5.73,2.76,3.2,5.37,6.53,8.01,9.83,1.2,1.5,2.28,3.08,3.08,4.84.47,1.02.99,2.06.92,3.2-.3,4.58,2.23,7.84,4.98,11.01,1.16,1.35,2.61,2.34,4.13,3.24,4.77,2.82,9.77,5.03,15.24,6.15,2.15.44,4.29.16,6.44.27-6.3,1.78-12.64,2.44-19.12.94-3.9-.9-7.77-1.82-11.46-3.4-2.61-1.12-4.86-2.72-6.84-4.74-1.65-1.69-2.21-3.67-1.84-5.93.28-1.73.62-3.46,1.05-5.16.88-3.54.36-6.82-1.7-9.83-.94-1.39-1.99-2.7-2.91-4.1-2.45-3.68-4.41-7.58-4.97-12.05Z"/>
  <path class="cls-6" d="m200.63,523.44c-2.52.57-5.05.57-7.59.08-3.12-.6-5.91-.01-8.65,1.71-3.88,2.44-7.4,5.25-10.52,8.59-.71.76-1.4,1.54-2.18,2.21-2.38,2.05-4.77,2.85-7.58.91,2.98-7.57,7.19-14.26,13.93-19.03,4.42-3.13,9.29-4.29,14.48-1.97,3.52,1.57,6.23,4.11,8.11,7.51Z"/>
  <path class="cls-10" d="m159.66,549.79c.15.35.18.8.64.94,2.43.75,4.36,2.32,6.22,3.94,3.97,3.47,7.69,7.19,10.81,11.47.67.91,1.2,1.89,1.64,2.92.74,1.73.39,3.56-.83,4.62-1.04.9-3.07,1.03-4.5.07-1.72-1.15-3.38-2.4-4.97-3.72-3.19-2.65-6.19-5.51-8.83-8.74-.55-.67-1.26-1.22-1.89-1.82.35-3.26.86-6.5,1.72-9.67Z"/>
  <path class="cls-4" d="m205.3,545.11c-.46.42-.94.43-1.44.09.47-.27.95-.26,1.44-.09Z"/>
</svg>