<?xml version="1.0" encoding="UTF-8"?>
<svg id="_图层_1" data-name="图层 1" xmlns="http://www.w3.org/2000/svg" viewBox="0 0 960 960">
  <defs>
    <style>
      .cls-1 {
        fill: #454794;
      }

      .cls-1, .cls-2, .cls-3, .cls-4, .cls-5, .cls-6, .cls-7, .cls-8, .cls-9, .cls-10, .cls-11, .cls-12, .cls-13 {
        stroke-width: 0px;
      }

      .cls-2 {
        fill: #fcd541;
      }

      .cls-3 {
        fill: #f6b89f;
      }

      .cls-4 {
        fill: #050404;
      }

      .cls-5 {
        fill: #a86760;
      }

      .cls-6 {
        fill: #af6a1f;
      }

      .cls-7 {
        fill: #fdd541;
      }

      .cls-8 {
        fill: #5a7dfe;
      }

      .cls-9 {
        fill: #f9fbf9;
      }

      .cls-10 {
        fill: #b06b1f;
      }

      .cls-11 {
        fill: #f5b89f;
      }

      .cls-12 {
        fill: #050504;
      }

      .cls-13 {
        fill: #b26d20;
      }
    </style>
  </defs>
  <path class="cls-4" d="m730.62,546.15c2.16,1.41,2.48,3.46,1.74,5.69-3.16,9.57-7.82,18.31-15.81,24.68-10.94,8.72-23.03,9.91-35.8,4.3-3.16-1.39-6.05-3.25-8.75-5.4-1.36-1.08-1.39-1.08-2.62.25-3.44,3.73-7.37,6.87-11.74,9.42-15.15,8.82-31.46,14.03-49,15-2.57.14-3.79.85-4.92,3.19-2.66,5.54-6.5,10.24-11.57,13.83-9.31,6.59-19.77,6.08-28.41-1.39-4.11-3.55-7.17-7.92-9.65-12.72-.36-.7-.57-1.49-1.28-2.14-3.56,2.25-7.42,3.98-11.43,5.34-8.98,3.04-18.15,3.55-27.42,1.65-6.97-1.43-11.67-5.58-14.24-12.22-1.9-4.91-2.48-10.07-3.1-15.22-.18-1.45-.65-2.55-1.68-3.55-2.82-2.72-5.61-5.48-7.9-8.68-2.47-3.44-3.74-7.22-3.01-11.5.37-2.15,1.18-4.14,2.19-6.06,1.23-2.34,2.73-4.52,4.46-6.52,5.82-6.77,12.36-12.72,19.93-17.48,3.66-2.3,7.52-4.15,11.78-5.36-.93-3.53-1.79-6.92-2.07-10.44-1.35-16.87,8.18-30.53,24.73-34.4,1.48-.34,2.97-.62,4.48-.8,1.69-.2,3.37.01,4.9.81,2.01,1.06,3.02,2.78,3.13,5.04.09,1.87-.37,3.65-.91,5.41-2.42,7.96-2.13,15.93-.15,23.91.67,2.7,1.76,5.26,3.32,7.63.88-.43,1.24-1.17,1.74-1.75,2.52-2.93,5.34-5.52,8.7-7.45,7.79-4.49,15.57-4.46,23.05.58,6.6,4.45,11.21,10.61,14.09,18.03.32.82.44,1.41,1.58,1.19,7.87-1.49,15.57-3.52,22.85-6.94.36-.17.7-.37,1.13-.6-.13-.73-.72-1.05-1.13-1.47-1.62-1.67-3.03-3.51-4.16-5.55-3.16-5.67-2.62-11.13,1.78-15.9,4.55-4.94,10.1-8.26,16.72-9.71,3.54-.77,7.1-1.16,10.7-.49,1.89.35,3.8.69,5.04,2.4-.29,1.72-1.41,2.4-3.04,2.42-1.12.01-2.24.06-3.35,0-3.06-.16-6.06.24-9.01.99-5.34,1.37-9.87,4.08-13.28,8.46-2.12,2.72-1.98,5.21.24,7.81,1.42,1.66,3.13,2.95,5.11,3.89,2.9,1.38,5.94,2.31,9.1,2.86,2.99.53,5.94,1.15,8.77,2.31,2.04.83,3.07,2.21,3.19,4.32.1,1.76.3,3.5.64,5.22-.34.6-.22,1.24-.21,1.88.08,3.53.72,6.98,1.51,10.4,2.28,9.85,6.54,18.65,14.03,25.65,5.35,5.01,11.63,8.17,19.02,8.61,7.63.46,14.26-2.2,19.99-7.14,3.66-3.15,6.74-6.78,8.38-11.44.73-.79,1-1.81,1.33-2.78.56-1.66.97-3.37,1.56-5.02.89-2.47,1.99-3.14,4.7-3.08Zm-237.97,14.74h0c-.2,1.5.64,2.61,1.4,3.72,2.17,3.19,4.88,5.9,7.79,8.39,1.73,1.48,2.62,3.29,2.93,5.55.5,3.55,1.18,7.07,1.85,10.59.36,1.89,1.07,3.67,1.88,5.41.92,1.99,2.4,3.37,4.42,4.15,1.11.43,2.26.79,3.43,1.02,10.58,2.09,20.38-.26,29.73-5.22.82-.31,1.65-.6,2.46-.92,1.5-.59,1.53-.61,1.07-2.23-1.69-5.94-2.7-12.01-3.06-18.16-.95-16.22,1.31-31.88,8.55-46.61.41-.83.39-1.37-.3-2.07-3.33-3.41-5.3-7.61-6.36-12.17-1.8-7.79-2.29-15.63-.12-23.48.5-1.81,1.06-3.64,1.16-5.46-.39-.38-.72-.31-1.02-.25-17.45,3.21-22.9,17.72-20.89,29.35.44,2.53,1.3,4.94,1.94,7.41,1.02,3.92-.25,6.7-3.8,8.55-.57.3-1.15.56-1.72.85-10.24,5.33-19.35,12.11-26.87,20.93-1.82,2.14-3.35,4.45-4.4,7.09-.41,1.02-.51,1.96-.36,2.99-.08.29-.03.51.3.58Zm86.31,28.66c-.22-1.41-.23-2.87-.97-4.16.03-.47.14-.95.07-1.4-.76-4.68-.95-9.39-1-14.11.04-.96.08-1.91.1-2.87.28-9.87,2.01-19.48,5.21-28.82,1.25-3.64,2.97-7.05,5.38-10.08.79-1,1.66-1.95,2.84-2.52.78-.38,1.57-.43,2.2.26.54.6.44,1.31.17,2.03-.27.73-1.12,1.15-1.12,2.03,3.46.42,7.75.29,9.5-.35-1.62-3.02-2.96-6.16-5.36-8.68-4.2-6.25-13.53-11.56-23.37-4.98-2.68,1.79-4.92,4.06-6.81,6.65-6.08,8.35-9.45,17.78-11.06,27.91-1.03,5.02-1.34,10.1-1.4,15.2-.02,1.91-.18,3.83.32,5.71.18,8.97,2.17,17.56,5.69,25.78,2.03,4.73,4.65,9.09,8.44,12.67,6.7,6.34,14.6,6.77,21.88,1.17,3.27-2.52,5.82-5.67,8.07-9.1.3-.46.71-.89.42-1.64-3.38-.51-6.83-.96-10.36-1.82.03,1.06.68,1.62.99,2.31.49,1.09.32,2.04-.54,2.82-.79.73-2.1.65-3.07-.17-.36-.3-.64-.7-.92-1.09-1.38-1.97-2.52-4.08-3.28-6.37-.7-2.12-1.34-4.26-2-6.39Zm4.06-35.47c-1.17,6.79-1.3,13.65-.98,20.5.25,5.34.95,10.63,2.33,15.82.33,1.25.85,2.04,2.28,2.36,3.82.84,7.64,1.55,11.57,1.68,5.6.19,11.16-.07,16.68-1.01,4.62-.79,9.24-1.62,13.66-3.27,5.01-1.13,9.72-3.11,14.32-5.33,7.68-3.7,14.7-8.38,20.7-14.49,1.53-1.56,1.52-1.59.2-3.28-3.36-4.31-6.03-9.01-8.03-14.1-2.9-7.38-4.35-15.01-4.18-22.94.04-2.06-.12-1.87-1.74-2.04-3.03-.33-5.98-1.04-8.81-2.19-.9-.37-1.55-.38-2.38.27-7.51,5.9-16.23,8.8-25.58,9.87-7.72.89-15.46.96-23.09-.94-.98-.24-1.62-.17-2.07.91-2.47,5.84-4.29,11.84-4.88,18.18Z"/>
  <path class="cls-12" d="m333.83,550.69c2.28,1.42,2.89,2.83,1.57,4.91-6.85,10.71-15.59,19.02-28.55,21.67-5.89,1.2-11.6.28-17.12-2-2.14-.89-1.65-1.08-3.2.91-4.95,6.37-10.8,11.74-17.75,15.92-9.09,5.47-18.98,8.79-29.29,10.87-11.61,2.33-23.33,2.64-35.06.86-1.22-.19-1.66.21-2.22,1.14-3.13,5.24-7.27,9.51-12.6,12.56-7.89,4.51-16.22,3.71-23.14-2.18-2.71-2.3-4.87-5.06-6.71-8.09-1.58-2.6-2.71-5.42-3.96-8.39-2.67,1.06-5.45,1.63-8.19,2.34-6.49,1.68-12.95,1.6-19.44.01-4.9-1.2-9.72-2.58-14.26-4.83-2.46-1.22-4.61-2.84-6.63-4.68-4.16-3.8-5.48-8.49-4.45-13.92.31-1.65.66-3.29,1.08-4.91.52-1.99.22-3.8-.97-5.46-.7-.97-1.44-1.92-2.17-2.87-2.46-3.18-4.53-6.58-6.01-10.32-2.27-5.76-1.69-11.09,2.41-15.92,4.7-5.54,10.49-9.57,17.12-12.4,4.48-1.91,9.06-3.57,13.88-4.49,1.84-.35,1.93-.43,1.79-2.38-.45-6.63.96-12.86,3.77-18.83.68-1.45,1.37-2.9,2.34-4.17,5.62-7.44,12.76-12.68,21.88-15.04,1.42-.37,2.85-.41,4.29-.25,3.51.38,5.89,3.38,5.49,6.89-.15,1.28-.6,2.48-1.01,3.69-1.58,4.69-3.4,9.31-4.27,14.21-.51,2.84-.8,5.7-.68,8.59.14,3.3,1.3,6.2,3.27,8.84.84-.26,1.09-.98,1.51-1.51,2.44-3.09,5.16-5.9,8.42-8.13,9.12-6.25,18.89-5.44,26.85,2.2,5.06,4.86,7.99,10.9,9.8,17.57.92,3.41.92,3.43,4.47,2.41,6.03-1.73,11.76-4.11,16.8-7.93,1.4-1.06,2.76-2.19,3.87-3.57,1.05-1.31,1.08-1.36-.3-2.39-3.52-2.62-5.97-6.01-7.09-10.25-1.61-6.09-.56-11.77,3.21-16.81,4.55-6.08,10.73-9.4,18.27-10.24,1.37-.15,2.71.07,4.06.26,1.34.19,2.41.8,3.07,2.03-.18,1.77-1.46,2.35-2.93,2.68-2.49.55-4.98,1.13-7.36,2.05-4.05,1.55-7.49,3.91-9.8,7.68-3.63,5.94-2.13,11.83,3.9,15.3,4.18,2.41,8.69,3.03,13.41,2.22,4.13-.71,6.34.55,7.77,4.46.3.81.34,1.73,1.02,2.38.02.39-.04.81.07,1.17,1.89,6.52,4.02,12.96,6.89,19.11,3.82,8.17,8.6,15.67,15.67,21.47,4.55,3.73,9.61,6.25,15.66,6.3,6.29.05,11.61-2.42,16.47-6.17,3.89-3,7.06-6.66,9.93-10.61.49-.61.99-1.21,1.45-1.84.92-1.27,2.08-2.11,3.72-2.11Zm-133.2-27.24c-1.87-3.4-4.59-5.94-8.11-7.51-5.19-2.31-10.06-1.15-14.48,1.97-6.74,4.77-10.95,11.47-13.93,19.03-2.18,4.04-3.4,8.41-4.46,12.84-.85,3.17-1.36,6.41-1.72,9.67-.14,1.25-.28,2.5-.43,3.75-.61,7.6-.39,15.16,1.06,22.66,1.11,5.75,2.7,11.35,5.58,16.5,2.21,3.95,4.81,7.59,8.87,9.85,4.52,2.52,9.1,2.64,13.65.03,4.67-1.97,7.57-5.8,10.74-9.77-2.62-.73-4.9-1.36-7.17-1.99-.06.14-.12.21-.12.28-.03,2.1-.39,2.83-1.51,3.06-1.18.24-2.1-.54-2.77-2.42-.24-.67-.46-1.36-.61-2.06-.49-2.35-.82-4.72-1-7.11-1.2-15.98,1.36-31.5,5.77-46.78,1.02-3.53,2.38-6.94,4.42-10.04.57-.87,1.17-1.72,2-2.37.83-.64,1.75-.9,2.62-.16.79.67.62,1.55.25,2.42-.34.78-1.06,1.4-1.08,2.59,3.05-.03,6.03.07,9.19-.63-1.84-4.94-3.62-9.7-6.78-13.79Zm-99.65,25.78c.56,4.47,2.53,8.36,4.97,12.05.93,1.4,1.97,2.72,2.91,4.1,2.05,3.01,2.58,6.29,1.7,9.83-.42,1.7-.76,3.43-1.05,5.16-.37,2.26.19,4.24,1.84,5.93,1.99,2.03,4.23,3.63,6.84,4.74,3.69,1.58,7.56,2.5,11.46,3.4,6.48,1.5,12.82.84,19.12-.94,1.69-.33,3.42-.47,4.91-1.2-4.31-22.46-1.68-43.85,8.35-64.3-2.91-2.51-4.17-4.38-5.06-7.56-.5-1.78-.67-3.61-.71-5.45-.12-6.05.82-11.93,2.72-17.67.88-2.65,1.67-5.33,2.46-8.01.17-.57.44-1.21-.01-1.77-.85-.3-1.66-.21-2.41.02-8.85,2.66-15.74,7.66-19.37,16.46-2.23,5.41-3.04,11.06-2.82,16.89.15,3.96-.97,5.65-4.69,7.07-.67.26-1.36.48-2.04.7-4.56,1.48-9.1,3.01-13.53,4.83-5.55,2.28-10.46,5.48-14.11,10.36-1.19,1.59-1.89,3.33-1.5,5.36Zm102.88-4.03c-1.94.08-3.87.16-5.81.23-.39-.04-.79-.1-1.18-.12-2.02-.14-2.03-.14-2.63,1.79-.47,1.52-.94,3.05-1.36,4.59-2.41,8.81-3.62,17.83-4.24,26.92-.31,4.54-.34,9.1-.18,13.66.04,1.1.37,1.57,1.58,1.87,11.17,2.83,22.51,3.66,33.98,3.23.86-.03,1.77.08,2.55-.45,1.51-.19,3.01-.34,4.51-.57,16-2.37,30.04-8.96,42.22-19.57,2.24-1.95,4.15-4.2,6.06-6.46.57-.68.62-1.15-.08-1.79-1.24-1.13-2.45-2.3-3.56-3.55-5.75-6.45-9.92-13.88-13.24-21.81-2.19-5.24-3.92-10.64-5.2-16.17-.25-1.1-.64-1.44-1.77-1.27-2.13.32-4.3.46-6.45.2-1.24-.15-1.87.33-2.47,1.34-.61,1.01-1.43,1.92-2.25,2.79-3.19,3.34-7.02,5.77-11.15,7.76-8.82,4.26-18.17,6.45-27.88,7.3-.49-.18-.97-.19-1.44.09Z"/>
  <path class="cls-8" d="m263.96,523.35c-.68-.65-.73-1.57-1.02-2.38-1.43-3.91-3.64-5.17-7.77-4.46-4.72.81-9.23.19-13.41-2.22-6.03-3.48-7.53-9.37-3.9-15.3,2.31-3.77,5.75-6.13,9.8-7.68,2.39-.92,4.87-1.5,7.36-2.05,1.47-.33,2.76-.91,2.93-2.68,9.08-.79,17.84.83,26.33,3.84,12.68,4.5,23.91,11.38,33.2,21.2,7.53,7.96,13.07,17.09,15.58,27.89.86,3.69,1.01,7.42.77,11.18-1.64,0-2.79.83-3.72,2.1-.46.63-.97,1.23-1.45,1.84-1.75-.01-3.43-.69-5.21-.47-3.63.45-7.26.88-10.9,1.23-6.2.6-12.23.2-17.96-2.63-4.59-2.27-8.97-4.87-13.12-7.84-4.3-3.07-8.22-6.58-11.2-11-1.83-2.72-3.24-5.67-4.76-8.57-.39-.74-.53-1.72-1.55-2Z"/>
  <path class="cls-8" d="m660.31,529.08c-.34-1.73-.53-3.47-.64-5.22-.12-2.11-1.15-3.49-3.19-4.32-2.84-1.16-5.79-1.78-8.77-2.31-3.16-.56-6.2-1.48-9.1-2.86-1.98-.94-3.69-2.23-5.11-3.89-2.22-2.6-2.36-5.09-.24-7.81,3.41-4.37,7.94-7.09,13.28-8.46,2.95-.75,5.95-1.16,9.01-.99,1.11.06,2.23,0,3.35,0,1.63-.02,2.75-.7,3.04-2.42,3.47.14,6.76,1.13,10.02,2.15,12.77,3.98,23.97,10.78,34.22,19.23,8.25,6.81,15.37,14.63,20.65,24.01,1.18,2.09,2.25,4.23,3.06,6.49.4,1.12.93,2.22.74,3.47-2.71-.06-3.81.61-4.7,3.08-.59,1.65-1,3.36-1.56,5.02-.33.97-.59,2-1.33,2.78-4.62,1.07-9.25,1.32-13.95.46-4.62-.84-9.25-1.61-13.72-3.06-9.25-3.01-17.72-7.53-25.65-13.11-2.58-1.82-4.82-3.91-6.21-6.8-.62-1.29-1.25-2.57-1.92-3.84-.32-.6-.38-1.44-1.27-1.6Z"/>
  <path class="cls-3" d="m583.03,554.08c.58-6.34,2.41-12.35,4.88-18.18.45-1.07,1.09-1.15,2.07-.91,7.63,1.9,15.37,1.83,23.09.94,9.35-1.08,18.07-3.97,25.58-9.87.83-.65,1.48-.64,2.38-.27,2.83,1.15,5.77,1.86,8.81,2.19,1.62.18,1.78-.01,1.74,2.04-.17,7.93,1.28,15.57,4.18,22.94,2,5.09,4.67,9.79,8.03,14.1,1.32,1.69,1.33,1.72-.2,3.28-6,6.11-13.02,10.79-20.7,14.49-4.6,2.21-9.31,4.2-14.32,5.33-2.8-.66-5.7-.6-8.51-1.1-8.09-1.43-16.05-3.35-23.63-6.62-1.38-.59-2.43-1.47-3.31-2.64-4.6-6.1-7.21-13.05-8.86-20.44-.39-1.75.03-3.72-1.23-5.27Z"/>
  <path class="cls-11" d="m492.35,560.31c-.15-1.03-.05-1.97.36-2.99,1.05-2.64,2.58-4.95,4.4-7.09,7.52-8.82,16.63-15.6,26.87-20.93.57-.29,1.15-.56,1.72-.85,3.55-1.86,4.82-4.63,3.8-8.55-.64-2.47-1.51-4.88-1.94-7.41-2.01-11.62,3.44-26.13,20.89-29.35.3-.06.63-.12,1.02.25-.1,1.82-.66,3.65-1.16,5.46-2.17,7.85-1.69,15.69.12,23.48,1.06,4.56,3.03,8.76,6.36,12.17.69.71.71,1.24.3,2.07-7.24,14.73-9.5,30.38-8.55,46.61.36,6.15,1.37,12.22,3.06,18.16.46,1.63.43,1.64-1.07,2.23-.82.32-1.64.61-2.46.92-2.28-.32-4.57-.6-6.84-.96-7.86-1.26-14.9-4.42-21.34-9.06-1.76-1.27-2.96-2.81-3.68-4.84-.95-2.67-2.48-5.03-4.67-6.83-4.92-4.05-9.97-7.93-15.39-11.3-.47-.29-.87-.72-1.5-.59,0,0,0-.01,0-.01.1-.29-.03-.47-.3-.58Z"/>
  <path class="cls-7" d="m553.65,571.37c-.49-1.88-.34-3.81-.32-5.71.06-5.1.37-10.19,1.4-15.21.78-.23,1.13-.8,1.27-1.57.24-1.27.87-2.39,1.44-3.54,2.35-4.78,5.64-8.87,9.29-12.71,4.64-4.88,10.29-7.97,16.75-9.74,4.1-1.12,8.27-1.71,12.49-2.02,2.4,2.52,3.74,5.66,5.36,8.68-1.75.64-6.04.78-9.5.35,0-.88.85-1.3,1.12-2.03.27-.71.37-1.43-.17-2.03-.63-.69-1.42-.63-2.2-.26-1.18.57-2.04,1.52-2.84,2.52-2.4,3.03-4.13,6.44-5.38,10.08-3.2,9.34-4.92,18.95-5.21,28.82-.03.96-.07,1.91-.11,2.87-1.6-.61-2.61-2.06-4.08-2.87-2.01-1.11-3.9-2.46-6.37-2.41-3.57.07-5.35,2.8-3.76,6.04,2.99,6.09,7.52,10.77,13.35,14.21.55.32,1.11.63,1.79.55.74,1.29.75,2.75.97,4.16-3.43-.28-6.44-1.46-9.19-3.61-5.73-4.47-11.32-9.08-16.12-14.57Z"/>
  <path class="cls-1" d="m660.31,529.08c.88.16.95,1,1.27,1.6.67,1.27,1.3,2.55,1.92,3.84,1.39,2.89,3.63,4.99,6.21,6.8,7.93,5.59,16.41,10.11,25.65,13.11,4.47,1.45,9.11,2.22,13.72,3.06,4.7.86,9.33.6,13.95-.46-1.63,4.66-4.71,8.29-8.38,11.44-5.73,4.93-12.37,7.59-19.99,7.14-7.39-.44-13.66-3.6-19.02-8.61-7.49-7-11.75-15.8-14.03-25.65-.79-3.41-1.44-6.87-1.51-10.4-.01-.63-.13-1.28.21-1.88Z"/>
  <path class="cls-6" d="m553.65,571.37c4.8,5.49,10.39,10.1,16.12,14.57,2.75,2.15,5.77,3.33,9.19,3.61.67,2.13,1.3,4.27,2,6.39.76,2.29,1.89,4.4,3.28,6.37.27.39.56.79.92,1.09.97.82,2.28.89,3.07.17.86-.79,1.03-1.73.54-2.82-.31-.69-.96-1.25-.99-2.31,3.53.86,6.99,1.31,10.36,1.82.29.75-.12,1.18-.42,1.64-2.25,3.42-4.79,6.58-8.07,9.1-7.28,5.6-15.18,5.16-21.88-1.17-3.79-3.58-6.41-7.94-8.44-12.67-3.53-8.22-5.51-16.81-5.69-25.78Z"/>
  <path class="cls-5" d="m492.65,560.9c.63-.14,1.03.3,1.5.59,5.42,3.37,10.47,7.25,15.39,11.3,2.19,1.8,3.72,4.16,4.67,6.83.72,2.03,1.92,3.57,3.68,4.84,6.44,4.64,13.48,7.8,21.34,9.06,2.27.36,4.56.64,6.84.96-9.34,4.96-19.15,7.32-29.73,5.22-1.17-.23-2.32-.6-3.43-1.02-2.02-.77-3.5-2.16-4.42-4.15-.81-1.74-1.52-3.52-1.88-5.41-.67-3.52-1.35-7.04-1.85-10.59-.32-2.26-1.2-4.06-2.93-5.55-2.91-2.49-5.62-5.21-7.79-8.39-.76-1.11-1.6-2.22-1.4-3.7Z"/>
  <path class="cls-5" d="m583.03,554.08c1.26,1.55.84,3.51,1.23,5.27,1.65,7.39,4.25,14.34,8.86,20.44.88,1.17,1.93,2.05,3.31,2.64,7.58,3.27,15.55,5.19,23.63,6.62,2.81.5,5.71.44,8.51,1.1-4.42,1.65-9.04,2.48-13.66,3.27-5.52.94-11.09,1.2-16.68,1.01-3.92-.13-7.75-.84-11.57-1.68-1.42-.31-1.94-1.1-2.28-2.36-1.38-5.19-2.08-10.48-2.33-15.82-.32-6.86-.19-13.71.98-20.5Z"/>
  <path class="cls-9" d="m595.98,520.88c-4.22.32-8.39.9-12.49,2.02-6.46,1.77-12.11,4.86-16.75,9.74-3.65,3.84-6.94,7.93-9.29,12.71-.56,1.14-1.2,2.26-1.44,3.54-.14.77-.49,1.34-1.27,1.57,1.6-10.13,4.98-19.56,11.06-27.91,1.89-2.59,4.13-4.86,6.81-6.65,9.84-6.57,19.17-1.26,23.37,4.98Z"/>
  <path class="cls-13" d="m578,585.4c-.68.08-1.24-.22-1.79-.55-5.83-3.44-10.36-8.12-13.35-14.21-1.59-3.24.19-5.97,3.76-6.04,2.47-.05,4.36,1.3,6.37,2.41,1.46.81,2.48,2.26,4.08,2.87.05,4.72.23,9.44,1,14.11.07.45-.04.93-.07,1.4Z"/>
  <path class="cls-5" d="m492.35,560.31c.27.11.39.29.3.58-.33-.08-.38-.29-.3-.58Z"/>
  <path class="cls-3" d="m205.3,545.11c9.71-.85,19.06-3.04,27.88-7.3,4.13-1.99,7.96-4.42,11.15-7.76.82-.86,1.64-1.77,2.25-2.79.6-1.01,1.23-1.49,2.47-1.34,2.15.26,4.32.13,6.45-.2,1.13-.17,1.52.17,1.77,1.27,1.28,5.53,3.01,10.93,5.2,16.17,3.31,7.93,7.49,15.36,13.24,21.81,1.11,1.25,2.33,2.42,3.56,3.55.7.64.66,1.11.08,1.79-1.91,2.26-3.82,4.51-6.06,6.46-12.18,10.61-26.23,17.2-42.22,19.57-1.5.22-3.01.38-4.51.57-.39-.04-.8-.15-1.18-.09-2.15.34-4.04-.31-5.96-1.25-3.94-1.94-7.67-4.25-11.47-6.42-3.12-1.78-6.14-3.7-9.03-5.82-1.67-1.22-2.99-2.59-2.99-4.84,0-.87-.13-1.75-.16-2.62-.16-3.91.2-7.8.43-11.69.17-2.86.52-5.7.85-8.54.39-3.4.68-6.8,1.01-10.21,1.94-.08,3.87-.16,5.81-.23.5.34.98.33,1.44-.09Z"/>
  <path class="cls-11" d="m100.98,549.23c-.4-2.04.31-3.77,1.5-5.36,3.65-4.88,8.56-8.08,14.11-10.36,4.43-1.82,8.97-3.35,13.53-4.83.68-.22,1.37-.44,2.04-.7,3.73-1.42,4.85-3.11,4.69-7.07-.23-5.82.59-11.48,2.82-16.89,3.62-8.81,10.51-13.81,19.37-16.46.75-.23,1.56-.33,2.41-.02.46.57.18,1.2.01,1.77-.79,2.68-1.58,5.36-2.46,8.01-1.9,5.74-2.84,11.62-2.72,17.67.04,1.85.21,3.67.71,5.45.89,3.18,2.15,5.04,5.06,7.56-10.04,20.45-12.66,41.83-8.35,64.3-1.49.73-3.22.88-4.91,1.2-2.14-.11-4.29.17-6.44-.27-5.47-1.12-10.47-3.34-15.24-6.15-1.52-.9-2.97-1.89-4.13-3.24-2.75-3.18-5.28-6.44-4.98-11.01.07-1.13-.45-2.18-.92-3.2-.8-1.75-1.89-3.34-3.08-4.84-2.64-3.3-5.25-6.63-8.01-9.83-1.65-1.92-2.73-4.35-5-5.73Z"/>
  <path class="cls-2" d="m157.52,563.2c.14-1.25.28-2.5.43-3.75.63.6,1.34,1.15,1.89,1.82,2.64,3.23,5.64,6.09,8.83,8.74,1.59,1.32,3.25,2.57,4.97,3.72,1.43.96,3.46.83,4.5-.07,1.22-1.05,1.57-2.89.83-4.62-.44-1.03-.97-2.01-1.64-2.92-3.13-4.27-6.84-8-10.81-11.47-1.86-1.63-3.79-3.19-6.22-3.94-.46-.14-.48-.59-.64-.94,1.06-4.43,2.28-8.8,4.46-12.84,2.81,1.94,5.2,1.13,7.58-.91.78-.67,1.48-1.45,2.18-2.21,3.12-3.34,6.64-6.15,10.52-8.59,2.74-1.72,5.53-2.31,8.65-1.71,2.53.49,5.06.49,7.59-.08,3.16,4.09,4.94,8.85,6.78,13.79-3.16.71-6.14.6-9.19.63.02-1.19.74-1.81,1.08-2.59.37-.87.54-1.74-.25-2.42-.87-.74-1.78-.48-2.62.16-.83.65-1.43,1.5-2,2.37-2.04,3.1-3.4,6.51-4.42,10.04-4.42,15.28-6.97,30.8-5.77,46.78.18,2.39.51,4.76,1,7.11.15.7.37,1.39.61,2.06.67,1.88,1.59,2.67,2.77,2.42,1.12-.23,1.48-.96,1.51-3.06,0-.07.06-.15.12-.28,2.27.63,4.55,1.26,7.17,1.99-3.17,3.97-6.08,7.81-10.75,9.77-.81-1.28-1.66-2.53-2.43-3.84-3.42-5.77-4.43-12.23-5.25-18.73-.25-1.96-.72-3.76-1.84-5.35-1.29-1.83-2.88-3.37-4.54-4.89-5.48-4.99-10.96-10-15.1-16.24Z"/>
  <path class="cls-1" d="m263.96,523.35c1.01.28,1.16,1.25,1.55,2,1.52,2.89,2.93,5.85,4.76,8.57,2.98,4.43,6.89,7.93,11.2,11,4.16,2.97,8.53,5.57,13.12,7.84,5.73,2.83,11.77,3.23,17.96,2.63,3.64-.35,7.27-.79,10.9-1.23,1.78-.22,3.46.46,5.21.47-2.87,3.94-6.04,7.61-9.93,10.61-4.86,3.75-10.18,6.22-16.47,6.17-6.05-.05-11.11-2.57-15.66-6.3-7.07-5.8-11.85-13.3-15.67-21.47-2.88-6.16-5.01-12.59-6.89-19.11-.11-.37-.05-.78-.07-1.17Z"/>
  <path class="cls-10" d="m157.52,563.2c4.15,6.24,9.63,11.25,15.1,16.24,1.66,1.51,3.26,3.06,4.54,4.89,1.12,1.59,1.59,3.4,1.84,5.35.81,6.49,1.82,12.96,5.25,18.73.77,1.3,1.62,2.56,2.43,3.84-4.56,2.6-9.14,2.48-13.65-.03-4.06-2.26-6.66-5.9-8.87-9.85-2.88-5.15-4.47-10.74-5.58-16.5-1.45-7.51-1.67-15.06-1.06-22.66Z"/>
  <path class="cls-5" d="m198.05,545.43c-.33,3.4-.62,6.81-1.01,10.21-.33,2.84-.69,5.68-.85,8.54-.23,3.9-.58,7.79-.43,11.69.04.87.16,1.75.16,2.62,0,2.24,1.32,3.62,2.99,4.84,2.9,2.12,5.92,4.05,9.03,5.82,3.81,2.17,7.53,4.48,11.47,6.42,1.92.94,3.8,1.59,5.96,1.25.38-.06.79.06,1.18.09-.78.53-1.69.41-2.55.45-11.47.43-22.81-.4-33.98-3.23-1.2-.3-1.54-.77-1.58-1.87-.16-4.56-.13-9.12.18-13.66.62-9.09,1.83-18.1,4.24-26.92.42-1.54.89-3.07,1.36-4.59.6-1.93.61-1.93,2.63-1.79.4.03.79.08,1.18.12Z"/>
  <path class="cls-5" d="m100.98,549.23c2.27,1.38,3.34,3.81,5,5.73,2.76,3.2,5.37,6.53,8.01,9.83,1.2,1.5,2.28,3.08,3.08,4.84.47,1.02.99,2.06.92,3.2-.3,4.58,2.23,7.84,4.98,11.01,1.16,1.35,2.61,2.34,4.13,3.24,4.77,2.82,9.77,5.03,15.24,6.15,2.15.44,4.29.16,6.44.27-6.3,1.78-12.64,2.44-19.12.94-3.9-.9-7.77-1.82-11.46-3.4-2.61-1.12-4.86-2.72-6.84-4.74-1.65-1.69-2.21-3.67-1.84-5.93.28-1.73.62-3.46,1.05-5.16.88-3.54.36-6.82-1.7-9.83-.94-1.39-1.99-2.7-2.91-4.1-2.45-3.68-4.41-7.58-4.97-12.05Z"/>
  <path class="cls-9" d="m200.63,523.44c-2.52.57-5.05.57-7.59.08-3.12-.6-5.91-.01-8.65,1.71-3.88,2.44-7.4,5.25-10.52,8.59-.71.76-1.4,1.54-2.18,2.21-2.38,2.05-4.77,2.85-7.58.91,2.98-7.57,7.19-14.26,13.93-19.03,4.42-3.13,9.29-4.29,14.48-1.97,3.52,1.57,6.23,4.11,8.11,7.51Z"/>
  <path class="cls-13" d="m159.66,549.79c.15.35.18.8.64.94,2.43.75,4.36,2.32,6.22,3.94,3.97,3.47,7.69,7.19,10.81,11.47.67.91,1.2,1.89,1.64,2.92.74,1.73.39,3.56-.83,4.62-1.04.9-3.07,1.03-4.5.07-1.72-1.15-3.38-2.4-4.97-3.72-3.19-2.65-6.19-5.51-8.83-8.74-.55-.67-1.26-1.22-1.89-1.82.35-3.26.86-6.5,1.72-9.67Z"/>
  <path class="cls-5" d="m205.3,545.11c-.46.42-.94.43-1.44.09.47-.27.95-.26,1.44-.09Z"/>
</svg>