<?xml version="1.0" encoding="UTF-8"?>
<svg id="_图层_1" data-name="图层 1" xmlns="http://www.w3.org/2000/svg" viewBox="0 0 960 960">
  <defs>
    <style>
      .cls-1 {
        fill: #f3b69e;
      }

      .cls-1, .cls-2, .cls-3, .cls-4, .cls-5, .cls-6, .cls-7, .cls-8, .cls-9, .cls-10, .cls-11, .cls-12, .cls-13 {
        stroke-width: 0px;
      }

      .cls-2 {
        fill: #f4b79e;
      }

      .cls-3 {
        fill: #fcd541;
      }

      .cls-4 {
        fill: #fafaf6;
      }

      .cls-5 {
        fill: #f6b89f;
      }

      .cls-6 {
        fill: #060505;
      }

      .cls-7 {
        fill: #454796;
      }

      .cls-8 {
        fill: #a96962;
      }

      .cls-9 {
        fill: #a86760;
      }

      .cls-10 {
        fill: #af6a1f;
      }

      .cls-11 {
        fill: #5a7dfe;
      }

      .cls-12 {
        fill: #f5b79e;
      }

      .cls-13 {
        fill: #f5b89f;
      }
    </style>
  </defs>
  <path class="cls-6" d="m628.94,576.44c-2-.31-2.81-1.6-2.96-3.49-.25-3.19.3-6.21,1.75-9.06,2.08-4.1,5.17-7.26,9.06-9.67,1.78-1.11,1.79-1.41.24-2.7-.37-.31-.77-.58-1.17-.84q-3.6-2.39-5.47,1.53c-1.34,2.81-2.81,5.54-4.65,8.09-5.18,7.16-16.28,9.83-24.15,6.09-7.08-3.36-12.18-8.63-16.11-15.24-1.68-2.82-1.63-2.76-4.45-1.2-4.97,2.74-9.33,6.17-12.55,10.9-3.84,5.65-5.5,11.82-4.48,18.64.28,1.9.61,3.79.92,5.68.28,1.67.34,3.33.16,5.02-.38,3.54-2.27,5.88-5.6,7.08-3.42,1.23-6.89,1.3-10.38.38-17.47-4.62-27.64-22.18-22.91-39.46.02-.08.04-.16.06-.23.6-2.16.59-2.13-1.45-3.1-4.4-2.11-8.6-4.58-12.67-7.27-1.34-.89-2.55-1.93-3.65-3.09-4.75-5.02-5.78-10.96-2.82-17.23.67-1.42.75-2.47-.05-3.92-2.83-5.13-4.11-10.71-4.12-16.57,0-4.28,1.41-8.17,3.47-11.83,2.14-3.79,4.84-7.15,8.2-9.93,5.07-4.21,10.63-7.66,16.63-10.36,4.05-1.82,8.33-2.73,12.8-2.68,3.45.03,6.66.83,9.54,2.72.89.58,1.67.76,2.68.44.91-.29,1.87-.44,2.81-.59,5.79-.92,11.46-.94,16.56,2.46.78-.38.67-1.12.87-1.69.46-1.28.77-2.61,1.28-3.86,6.95-16.9,26.29-19.08,38.08-10.67,6.31,4.5,10.17,10.71,12.59,17.93.73,2.17.71,2.19,2.86,2.2,20.54.1,39.78,5.56,58.16,14.31,9.2,4.38,16.22,11.27,21.02,20.32,2.64,4.98,3.95,10.26,3.41,15.94-.19,1.99-.16,2,1.69,2.64,13.11,4.58,20.83,17.68,18.42,31.29-.3,1.72-.6,3.48-1.92,4.81-2.49.96-3.17.71-4.41-1.63-.11-1.34-.27-2.68-.31-4.02-.05-1.99-.17-3.96-.53-5.92-1.37-7.28-4.83-13.03-11.85-16.18-3.64-1.99-7.58-2.45-11.61-2-7.66.86-14.18,4.21-19.73,9.49-3.49,3.32-6.46,7.08-8.88,11.26-.64,1.1-1.29,2.22-2.1,3.2-1.13,1.38-2.9,1.74-4.32,1.07-1.34-.63-2.1-2.06-1.99-3.78.02-.32.02-.67.15-.94.64-1.37.06-2.01-1.23-2.49-9.38-3.49-18.21-2.69-26.26,3.5-3.59,2.76-5.73,6.4-5.86,11.05-.05,1.91-.87,3.19-2.82,3.6Zm-17.32-109.62c-2.97-2.54-6.55-3.64-10.33-3.83-8.98-.46-16.35,4.89-18.74,13.65-1.99,7.31-2.39,14.79-1.82,22.33-.25,2.15.1,4.28.29,6.4.52,5.68,1.2,11.35,2.75,16.87-.01.16-.07.32-.03.47,2.07,9.05,4.8,17.88,9.24,26.09,2.31,4.28,5.38,7.9,9.5,10.57,6.18,4.01,12.95,3.19,17.97-2.2,2.49-2.67,4-5.94,5.57-9.17.41-.84.13-1.35-.79-1.56-1.48-.34-2.95-.7-4.41-1.08-.74-.19-1.1-.04-1.41.76-.97,2.51-2.75,2.85-4.73,1.01-1.14-1.06-1.8-2.44-2.37-3.85-2.45-6.09-4.24-12.36-5.43-18.82-.82-4.48-.85-9.04-1.45-13.55.02-.8.06-1.59.04-2.39-.12-5.19-.1-10.37.46-15.55.5-4.66,1.55-9.12,4.07-13.15.47-.75.9-1.52,1.59-2.08.72-.59,1.51-.96,2.41-.4.88.55.95,1.37.72,2.31-.22.91-.91,1.68-.84,2.68,2.42-.02,6.09-.76,7.6-1.54-1.35-3.5-2.95-6.88-5.29-9.86-1.28-1.63-2.67-3.17-4.56-4.13Zm-55.77,40.97c.46.64.94,1.27,1.61,1.72,2.13,3.26,2.41,6.63.69,10.16-1.94,3.98-4.9,6.99-8.59,9.34-1.41.9-2.79,1.86-4.58,1.71-1.4-1.17-1.65-2.03-.79-3.64,1.09-2.05,2.44-3.93,4.05-5.62,1.16-1.21,2.33-2.42,3.21-3.86,1.39-2.28.98-3.96-1.43-5.09-4.71-2.2-9.55-3.01-14.61-1.08-9,3.43-16.24,9.08-21.78,16.95-.55.78-1.05,1.61-1.46,2.47-1.26,2.69-1,5.27.7,7.7,1.02,1.46,2.35,2.61,3.78,3.64,3.38,2.43,6.94,4.55,10.6,6.52,2.73,1.46,2.26,1.25,3.63-.93.95-1.53,2.12-2.8,3.89-3.38,1.77-.58,2.99.18,3.24,2.04.18,1.38-.09,2.71-.73,3.94-.66,1.27-1.38,2.52-2.03,3.8-1.88,3.68-2.95,7.53-2.83,11.73.21,7.55,3.29,13.76,8.63,18.87,3.61,3.45,7.94,5.58,13.05,5.8.47,0,.96.06,1.42,0,2.3-.36,2.76-.87,2.52-3.15-.16-1.58-.48-3.15-.8-4.72-.76-3.7-1.23-7.47-.55-11.19,1.97-10.76,7.76-18.91,17.26-24.38,2.08-1.2,4.28-2.17,6.55-2.94.83-.28,1.22-.55.83-1.51-1.06-2.57-2.05-5.18-3.06-7.77-.44-1.59-.88-3.18-1.31-4.77-2.36-8.73-3.85-17.59-4.19-26.64-.24-6.3-.26-12.6.59-18.86.18-1.31-.18-2.02-1.32-2.68-4.46-2.56-9.15-2.3-13.93-1.31-.81.17-.99.6-.77,1.38.45,1.54.76,3.11.6,4.72-.15,1.5-.4,3-.6,4.49-.38.22-.47.63-.6.99-1.3,3.72-3.34,6.99-5.9,9.96-.64.74-1.63,1.24-1.95,2.43,2.51.75,4.71,1.99,6.96,3.14Zm55.37-3.09c-.02,2.25.16,4.49.42,6.73-.29.34-.23.65.07.95.16,1.75.26,3.5.49,5.24.54,4.08,1.22,8.13,2.28,12.11.63,2.06,1.29,4.11,1.88,6.18.27.94.7,1.39,1.76,1.59,4.08.77,8.05,1.99,11.95,3.42,3.59,1.32,7.2,2.65,10.28,5.02,1.28.98,2.59,1.98,3.14,3.53.47,1.31,1.13,1.4,2.35,1.09,3.81-.96,7.67-1.25,11.62-.8,2.89.34,5.55,1.41,8.31,2.14,2.38,1.68,2.35,1.66,3.53,0,8.41-11.85,19.61-18.76,34.35-19.31,1.27-.05,1.61-.5,1.66-1.68.2-4.64-1.13-8.85-3.56-12.72-4.62-7.36-10.93-12.92-18.64-16.8-14.39-7.25-29.54-12.11-45.63-13.67-6.43-.62-12.92-.83-19.36.23-1.57.26-3.14.8-4.71.8-1.51,0-1.69.7-1.77,1.87-.16,2.31-.48,4.61-.45,6.93-.33.46-.4.94-.05,1.43,0,1.12,0,2.24,0,3.36-.38.81-.31,1.6.07,2.39Zm-101.05,14.9c.92-.05,1.18-.72,1.59-1.16,1.53-1.63,3.1-3.23,4.83-4.65,6.79-5.56,14.26-9.64,23.19-10.48.58-.05,1.07-.13,1.42-.69,1.57-2.52,3.78-4.53,5.52-6.92,1.81-2.48,3.18-5.17,3.81-8.18.72-3.47-1.09-6.59-4.41-7.77-1.38-.49-2.8-.64-4.24-.58-3.31.13-6.5.87-9.46,2.35-5.6,2.79-10.86,6.12-15.46,10.37-5.99,5.52-9.63,12.08-8.34,20.6.37,2.41.68,4.84,1.56,7.11Z"/>
  <path class="cls-6" d="m206.3,572.36c-1.7-1.7-2.07-3.94-2.34-6.16-1.38-11.64,4.23-25.28,18.54-30.16,1.97-.67,1.96-.69,1.76-2.59-.62-5.77.79-11.1,3.49-16.15,5.04-9.43,12.56-16.21,22.14-20.82,9.04-4.35,18.54-7.35,28.2-9.96,9.41-2.53,18.98-3.57,28.69-3.71,2.23-.03,2.2-.03,2.91-2.14,2.1-6.24,5.21-11.84,10.3-16.17,7.16-6.09,15.35-8,24.41-5.61,8.22,2.17,13.39,7.73,16.38,15.51.29.74.47,1.53.74,2.28.26.74.24,1.59.83,2.33,5.94-3.93,12.38-3.57,18.91-2.1,1.42.32,2.52.22,3.8-.59,4.21-2.68,8.91-2.82,13.67-2.15,3.34.47,6.53,1.51,9.57,2.99,4.83,2.35,9.38,5.17,13.64,8.42,4.52,3.44,8.04,7.74,10.65,12.79,3.33,6.42,3.18,13.08,1.35,19.84-.73,2.7-1.72,5.33-3.18,7.74-.53.87-.54,1.55-.06,2.42.89,1.61,1.48,3.35,1.79,5.19.6,3.63-.06,6.99-2.07,10.08-1.5,2.31-3.42,4.22-5.7,5.75-4.12,2.76-8.38,5.28-12.87,7.39-2.19,1.03-2.08.66-1.41,2.92,1.66,5.58,1.86,11.29.25,16.81-3.64,12.57-11.91,20.49-24.79,23.37-2.14.48-4.29.37-6.42-.09-5.96-1.28-8.24-4.42-7.89-10.65.11-1.99.5-3.96.85-5.93,2.2-12.16-2.61-21.36-12.16-28.46-2.29-1.7-4.87-3.01-7.38-4.54-.65,1.11-1.16,2-1.69,2.89-3.68,6.15-8.4,11.14-14.83,14.6-8.86,4.76-20.71,1.78-26.15-6.52-1.85-2.82-3.29-5.84-4.73-8.87-.83-1.76-.85-1.77-2.62-.88-1.43.72-2.81,1.53-3.94,2.7-.54.56-.59,1.04.18,1.52,1.22.76,2.45,1.52,3.56,2.43,4.09,3.33,6.99,7.43,7.95,12.73.24,1.35.27,2.71.15,4.06-.16,1.74-.88,3.06-2.74,3.47-2.36-.68-2.86-1.14-2.97-3.37-.26-5.3-2.86-9.25-7.08-12.16-7.2-4.97-15.05-5.78-23.33-3.29-1.06.32-2.27.57-3,1.42-.7.8.11,1.82.15,2.74.07,1.67-.72,3.15-2.06,3.75-1.36.61-3.02.28-4.16-.95-.54-.58-.95-1.28-1.37-1.95-1.47-2.38-2.87-4.79-4.61-7-5.2-6.63-11.45-11.77-19.71-14.14-5.55-1.6-11.03-1.63-16.41.7-.93.4-1.98.7-2.53,1.7-.77.03-1.3.53-1.85.98-5.02,4.11-7.44,9.51-8.1,15.87-.3,2.9-.06,5.86-.91,8.71-.98,1.42-2.29,1.61-3.81,1Zm182.73,18.65h.03c.43.08.74-.1.97-.45h.01c.43.07.73-.12.94-.48h.01c.43.05.71-.15.9-.52l.03-.02c.3.04.48-.1.57-.37,4.3-2.65,7.28-6.5,9.37-10.97,2.92-6.26,3.46-12.74.89-19.31-.85-2.17-1.99-4.18-3.09-6.22-1-1.84-1.37-3.74-.52-5.75l1.55-.87.16.02.16-.02c.31.3.68.39,1.1.29,1.9.72,3.11,2.18,4.08,3.88,1.09,1.89,1.12,1.57,2.75.71,3.82-2.01,7.53-4.21,11.04-6.73.9-.65,1.78-1.37,2.57-2.15,3.26-3.25,3.67-6.71,1.3-10.63-1.08-1.78-2.38-3.4-3.74-4.98-5.23-6.05-11.61-10.43-19.12-13.18-5.19-1.9-10.08-.9-14.8,1.49-1.98,1-2.23,2.14-1.24,4.16.68,1.38,1.71,2.51,2.75,3.61,1.54,1.63,2.94,3.36,4.16,5.25.86,1.34,1.36,2.7,1.08,4.29-1.53.82-2.9.63-4.42-.26-2.7-1.58-5.03-3.55-7.13-5.84-.69-.75-1.05-1.79-1.99-2.31-.5-1.33-1.08-2.64-1.48-4-1.09-3.71-.14-6.89,2.77-9.42.95-.82,2.07-1.44,3.12-2.15,1.32-.47,2.68-.86,4-1.72-1.23-1.49-2.39-2.89-3.55-4.28-.25-.3-.47-.65-.91-.72-.14-.37-.23-.77-.42-1.11-2.92-5.15-5.36-10.41-3.46-16.57.17-.56-.09-.91-.66-1.03-4.86-1.05-9.62-1.33-14.16,1.3-1.15.67-1.44,1.36-1.28,2.68,1.25,10.04.94,20.06-.41,30.07-.85,6.34-2.37,12.53-4.04,18.69-1.15,3.06-2.28,6.13-3.48,9.17-.35.89-.19,1.27.72,1.56,2.29.73,4.41,1.84,6.55,2.92,9.95,5.04,20.66,19.59,16.86,35.01-.44,1.78-.73,3.6-.96,5.42-.12.97-.42,2.17,1.07,2.52,1.29.88,2.66,1.11,4.13.5.15.01.3,0,.44-.05.71.16,1.36.04,1.92-.44h.02c.57.13,1.05-.03,1.45-.46.15-.01.29-.05.43-.13.42.11.72-.05.96-.38Zm-35.95-68.06c.78-1.16.77-2.52,1.01-3.82,2.16-11.6,2.92-23.26,1.29-34.99-.47-3.37-1.03-6.79-2.9-9.78-3.92-9.21-16.7-11.69-23.69-7.64-.31.07-.64.1-.91.23-6.8,3.3-10.11,9.3-12.71,16.14,2.7.49,5.14,1.08,7.68,1.29.06-1.2-.64-1.97-.84-2.9-.18-.84-.11-1.62.64-2.15.85-.6,1.67-.36,2.41.24.76.61,1.24,1.44,1.75,2.25,2.99,4.75,3.79,10.09,4.25,15.53.5,5.82.3,11.64.02,17.46-.41,1.77-.47,3.55-.27,5.35-.35.89-.36,1.83-.36,2.77-.64,4.33-1.56,8.61-2.76,12.82-1.02,3.61-2.22,7.17-3.78,10.59-.64,1.41-1.51,2.65-2.89,3.42-1.44.81-2.66.44-3.44-.95-.98-1.73-.98-1.75-2.73-1.35-1.17.27-2.31.61-3.47.92-.94.25-1.06.77-.63,1.61,1.53,2.98,2.99,5.97,5.13,8.62,3.45,4.29,10.99,7.45,17.88,3.02,4.14-2.66,7.37-6.12,9.71-10.38,4.64-8.46,7.62-17.53,9.53-26.97.22-.43.22-.88.09-1.34Zm-31.48,10.68c.26-.84.56-1.66.77-2.51,2.91-12.3,3.86-24.75,2.84-37.34-.08-.95.06-2.04-.53-2.77-.57-.71-1.66-.16-2.49-.45-.52-.19-1.1-.2-1.64-.33-3.21-.75-6.46-.96-9.74-1.02-11.52-.21-22.75,1.38-33.74,4.88-8.08,2.57-16.11,5.18-23.6,9.23-7.8,4.22-14.35,9.8-18.92,17.51-2.16,3.65-3.32,7.6-3.13,11.87.08,1.69.11,1.73,1.81,1.75,3.13.04,6.21.44,9.23,1.29,9.21,2.59,16.73,7.75,22.87,15.02.68.97,1.37,1.94,2.05,2.91,1.09,1.58,1.09,1.58,2.78.77,5-2.4,10.24-3.45,15.8-2.81,1.83.21,3.64.46,5.42.93.68.18,1.23.19,1.58-.58,1.37-3.02,3.94-4.74,6.75-6.17,5-2.55,10.36-4.13,15.72-5.72,1.55-.46,3.61,0,4.57-1.49.88-1.36,1.12-3.13,1.63-4.73.02-.07,0-.16.01-.24Zm104.83-12.07c.14-.2.34-.38.39-.59.31-1.24.61-2.48.88-3.73,1.71-7.79.21-14.75-5.29-20.7-5.8-6.27-12.78-10.84-20.62-14.08-2.9-1.2-6.03-1.64-9.18-1.24-5.02.64-7.5,4.45-6.13,9.31.81,2.89,2.27,5.44,4.08,7.81,1.6,2.09,3.58,3.89,4.95,6.17.39.65.97.72,1.64.74,3.08.11,5.97,1.01,8.83,2.09,7.24,2.73,13.42,7.02,18.69,12.67.53.56.89,1.35,1.77,1.56Z"/>
  <path class="cls-11" d="m220.97,545.79c.55-1,1.6-1.3,2.53-1.7,5.37-2.33,10.85-2.29,16.41-.7,8.26,2.37,14.51,7.51,19.71,14.14,1.73,2.21,3.14,4.62,4.61,7,.42.68.83,1.38,1.37,1.95,1.13,1.22,2.79,1.56,4.16.95,1.34-.6,2.14-2.08,2.06-3.75-.04-.93-.85-1.94-.15-2.74.73-.84,1.94-1.1,3-1.42,8.27-2.49,16.13-1.68,23.33,3.29,4.23,2.92,6.82,6.86,7.08,12.16.11,2.24.61,2.7,2.97,3.37-1.62,4.56-5.34,7.06-9.27,9.28-7.41,4.18-15.42,6.42-23.88,7.3-12.31,1.29-24.21-.52-35.91-4.21-5.26-1.65-10.5-3.35-15.65-5.32-4.98-1.9-9.45-4.66-13.54-8.04-1.62-1.34-3-2.87-3.49-5.01,1.52.61,2.83.42,3.81-1,.92,0,1.38.72,1.95,1.26.75.72,1.53,1.38,2.42,1.94,3.7,2.37,7.86,3.45,12.07,4.41,1.09.25,2.21.1,3.3-.3,2.73-1.01,3.96-3.76,2.71-6.38-.44-.92-1.09-1.77-1.74-2.56-2.83-3.47-5.48-7.06-7.4-11.14-.89-1.88-1.42-3.86-1.87-5.9-.51-2.3.09-4.64-.56-6.89Z"/>
  <path class="cls-11" d="m628.94,576.44c1.95-.41,2.77-1.69,2.82-3.6.12-4.65,2.27-8.3,5.86-11.05,8.05-6.19,16.88-6.99,26.26-3.5,1.29.48,1.87,1.12,1.23,2.49-.13.28-.13.62-.15.94-.11,1.73.65,3.16,1.99,3.78,1.42.67,3.19.31,4.32-1.07.81-.98,1.46-2.1,2.1-3.2,2.42-4.18,5.38-7.93,8.88-11.26,5.55-5.28,12.06-8.63,19.73-9.49,4.04-.45,7.97.01,11.61,2-.05,1.68-.16,3.35-.15,5.03,0,1.92-.13,3.82-.52,5.71-1.57,7.52-5.33,13.82-10.84,19.06-2.18,2.08-4.62,3.93-7.32,5.36-.72.38-1.32.91-1.84,1.51-1.13,1.3-1.25,2.53-.44,3.96.68,1.2,2.27,1.94,3.71,1.61.85-.19,1.67-.5,2.41-1.01,1.13-.77,2.39-1.31,3.71-1.65,5.13-1.3,10.05-3.15,14.69-5.72,3.03-1.68,5.87-3.56,7.89-6.46.36-.52.81-1,1.39-1.29,1.24,2.34,1.92,2.59,4.41,1.63-.03,1.84-1.41,2.81-2.62,3.78-1.99,1.59-4.04,3.15-6.21,4.49-9.21,5.73-18.93,10.32-29.57,12.77-3.75.86-7.56,1.36-11.39,1.51-7.02.28-14.06.71-21.07-.26-6.92-.96-13.59-2.87-20.05-5.49-5.05-2.04-8.81-5.42-10.82-10.57Z"/>
  <path class="cls-5" d="m611.21,497.52c-.04-2.32.29-4.62.45-6.93.08-1.17.27-1.87,1.77-1.87,1.57,0,3.14-.54,4.71-.8,6.44-1.06,12.93-.85,19.36-.23,16.09,1.56,31.24,6.42,45.63,13.67,7.7,3.88,14.02,9.45,18.64,16.8,2.43,3.88,3.77,8.08,3.56,12.72-.05,1.18-.39,1.64-1.66,1.68-14.74.55-25.94,7.46-34.35,19.31-1.18,1.66-1.15,1.68-3.53,0,.17-1.08-.46-1.83-1.11-2.52-.93-.99-1.88-1.96-2.9-2.85-8.22-7.08-17.7-11.89-27.99-15.08-6.27-1.94-12.69-3.09-19.29-1.72-1.07-3.98-1.75-8.03-2.28-12.11-.23-1.74-.33-3.49-.49-5.23.4-.35.34-.66-.07-.95-.26-2.23-.44-4.47-.42-6.73.51-.81.52-1.61-.07-2.39,0-1.12,0-2.24,0-3.36.5-.46.52-.93.05-1.43Z"/>
  <path class="cls-2" d="m557.46,509.51c-.67-.45-1.15-1.08-1.61-1.72.25-.49.45-1.01.76-1.47,1.33-2.02,2.25-4.22,2.57-6.6.4-3,.44-6-1.83-8.46.2-1.5.45-2.99.6-4.49.16-1.61-.15-3.18-.6-4.72-.23-.78-.05-1.21.77-1.38,4.78-.98,9.46-1.25,13.93,1.31,1.15.66,1.5,1.37,1.32,2.68-.85,6.26-.83,12.56-.59,18.86.34,9.05,1.84,17.91,4.19,26.64.43,1.59.87,3.18,1.31,4.77-4.84,1.34-9.12,3.63-12.9,7.01-2.47,2.2-4.55,4.7-6.51,7.29-4.32,5.71-7.79,11.82-8.7,19.14-.86,6.99.02,13.65,3.06,20.01.34.71.85,1.36.89,2.2-5.11-.21-9.45-2.35-13.05-5.8-5.34-5.11-8.42-11.32-8.63-18.87-.12-4.21.95-8.05,2.83-11.73.65-1.28,1.37-2.53,2.03-3.8.64-1.24.91-2.56.73-3.94-.25-1.86-1.46-2.62-3.24-2.04-1.77.58-2.94,1.85-3.89,3.38-1.36,2.19-.9,2.39-3.63.93-3.66-1.96-7.23-4.09-10.6-6.52-1.43-1.03-2.76-2.18-3.78-3.64-1.7-2.43-1.96-5.01-.7-7.7.4-.86.91-1.69,1.46-2.47,5.53-7.86,12.78-13.52,21.78-16.95,5.07-1.93,9.9-1.12,14.61,1.08,2.41,1.12,2.82,2.81,1.43,5.09-.88,1.44-2.05,2.65-3.21,3.86-1.61,1.68-2.96,3.57-4.05,5.62-.86,1.61-.61,2.47.79,3.64-.51,1.42-.74,2.83.58,3.94,1.25,1.06,2.64.83,4.06.3,2.19-.82,4.11-2.08,6-3.41,3.22-2.26,6.14-4.83,8.07-8.32,3.45-6.26.16-12.5-6.21-13.72Z"/>
  <path class="cls-10" d="m605.42,510.9c.59,4.5.62,9.07,1.45,13.55,1.18,6.45,2.98,12.73,5.43,18.82.56,1.4,1.22,2.78,2.37,3.85,1.98,1.84,3.77,1.5,4.73-1.01.31-.8.68-.95,1.41-.76,1.47.38,2.94.74,4.41,1.08.92.21,1.2.72.79,1.56-1.57,3.23-3.08,6.5-5.57,9.17-5.02,5.39-11.79,6.21-17.97,2.2-4.12-2.67-7.19-6.29-9.5-10.57-4.44-8.21-7.17-17.03-9.24-26.09-.03-.15.02-.31.03-.47.48-.52.98-1.04,1.45-1.58,5.33-6.18,11.69-10.21,20.21-9.76Z"/>
  <path class="cls-3" d="m605.42,510.9c-8.52-.45-14.89,3.58-20.21,9.76-.46.54-.96,1.05-1.45,1.58-1.55-5.52-2.24-11.18-2.75-16.87-.19-2.12-.54-4.25-.29-6.4.46-.83.96-1.65,1.37-2.5,2.4-5.03,4.8-10.07,7.53-14.93,2.82-5.02,6.71-8.85,12.21-10.89,3.28-1.22,6.53-2.54,9.79-3.81,1.89.96,3.29,2.5,4.56,4.13,2.33,2.98,3.93,6.36,5.29,9.86-1.51.78-5.18,1.51-7.6,1.54-.07-1,.62-1.77.84-2.68.23-.94.16-1.76-.72-2.31-.89-.56-1.69-.19-2.41.4-.69.57-1.13,1.34-1.59,2.08-2.52,4.02-3.56,8.49-4.07,13.15-.56,5.17-.58,10.36-.46,15.55.02.79-.03,1.59-.04,2.39Z"/>
  <path class="cls-1" d="m510.17,519.6c-.89-2.27-1.2-4.69-1.56-7.11-1.29-8.52,2.35-15.09,8.34-20.6,4.6-4.24,9.87-7.58,15.46-10.37,2.96-1.47,6.15-2.21,9.46-2.35,1.45-.06,2.86.09,4.24.58,3.32,1.18,5.13,4.3,4.41,7.77-.63,3.02-2,5.7-3.81,8.18-1.74,2.39-3.95,4.4-5.52,6.92-.35.56-.84.64-1.42.69-8.93.84-16.4,4.92-23.19,10.48-1.73,1.42-3.3,3.01-4.83,4.65-.41.44-.67,1.12-1.59,1.16Z"/>
  <path class="cls-7" d="m726.26,568.58c-.59.3-1.03.77-1.39,1.29-2.02,2.9-4.86,4.79-7.89,6.46-4.64,2.57-9.55,4.42-14.69,5.72-1.32.33-2.58.88-3.71,1.65-.75.51-1.57.82-2.41,1.01-1.44.33-3.03-.41-3.71-1.61-.81-1.44-.69-2.66.44-3.96.52-.6,1.13-1.13,1.84-1.51,2.7-1.43,5.14-3.28,7.32-5.36,5.5-5.24,9.26-11.55,10.84-19.06.39-1.89.53-3.78.52-5.71,0-1.68.1-3.35.15-5.03,7.01,3.15,10.48,8.9,11.85,16.18.37,1.95.49,3.93.53,5.92.03,1.34.2,2.68.31,4.02Z"/>
  <path class="cls-9" d="m554.1,590.58c-.04-.84-.55-1.49-.89-2.2-3.04-6.36-3.92-13.02-3.06-20.01.9-7.32,4.38-13.43,8.7-19.14,1.96-2.6,4.05-5.09,6.51-7.29,3.78-3.38,8.06-5.67,12.9-7.01,1.01,2.59,2,5.2,3.06,7.77.4.96,0,1.22-.83,1.51-2.27.77-4.47,1.74-6.55,2.94-9.5,5.47-15.29,13.62-17.26,24.38-.68,3.72-.21,7.48.55,11.19.32,1.56.64,3.13.8,4.72.23,2.27-.23,2.79-2.52,3.15-.46.07-.95,0-1.42,0Z"/>
  <path class="cls-9" d="m614.49,529.72c6.6-1.37,13.03-.23,19.29,1.72,10.29,3.19,19.77,8,27.99,15.08,1.03.88,1.97,1.86,2.9,2.85.65.69,1.28,1.44,1.11,2.52-2.77-.73-5.42-1.8-8.31-2.14-3.95-.46-7.81-.17-11.62.8-1.22.31-1.88.22-2.35-1.09-.55-1.55-1.86-2.55-3.14-3.53-3.09-2.37-6.69-3.71-10.28-5.02-3.9-1.43-7.87-2.65-11.95-3.42-1.06-.2-1.49-.65-1.76-1.59-.59-2.07-1.25-4.12-1.88-6.18Z"/>
  <path class="cls-4" d="m611.61,466.82c-3.26,1.28-6.51,2.6-9.79,3.81-5.5,2.04-9.39,5.87-12.21,10.89-2.73,4.87-5.13,9.9-7.53,14.93-.41.86-.91,1.67-1.37,2.5-.57-7.54-.17-15.02,1.82-22.33,2.39-8.76,9.76-14.11,18.74-13.65,3.78.2,7.36,1.29,10.33,3.83Z"/>
  <path class="cls-9" d="m557.46,509.51c6.37,1.22,9.66,7.47,6.21,13.72-1.92,3.49-4.85,6.07-8.07,8.32-1.89,1.32-3.81,2.59-6,3.41-1.42.53-2.81.76-4.06-.3-1.31-1.11-1.09-2.52-.58-3.94,1.8.15,3.18-.82,4.58-1.71,3.69-2.35,6.66-5.36,8.59-9.34,1.72-3.53,1.44-6.9-.69-10.16Z"/>
  <path class="cls-9" d="m557.34,491.26c2.27,2.46,2.23,5.45,1.83,8.46-.32,2.38-1.24,4.58-2.57,6.6-.3.46-.51.98-.76,1.47-2.25-1.14-4.45-2.39-6.96-3.14.32-1.19,1.31-1.69,1.95-2.43,2.57-2.98,4.61-6.24,5.9-9.96.13-.36.22-.77.6-.99Z"/>
  <path class="cls-9" d="m611.15,502.31c.58.78.58,1.58.07,2.39-.37-.79-.45-1.58-.07-2.39Z"/>
  <path class="cls-9" d="m611.21,497.52c.46.49.45.97-.05,1.43-.35-.49-.28-.96.05-1.43Z"/>
  <path class="cls-9" d="m611.64,511.43c.42.29.47.6.07.95-.3-.29-.36-.61-.07-.95Z"/>
  <path class="cls-13" d="m265.3,550.76c-6.14-7.27-13.66-12.43-22.87-15.02-3.01-.85-6.09-1.24-9.23-1.29-1.7-.02-1.73-.07-1.81-1.75-.19-4.28.97-8.23,3.13-11.87,4.57-7.71,11.12-13.29,18.92-17.51,7.49-4.05,15.52-6.67,23.6-9.23,11-3.49,22.22-5.09,33.74-4.88,3.29.06,6.54.27,9.74,1.02.54.13,1.12.14,1.64.33.83.29,1.93-.26,2.49.45.59.73.45,1.82.53,2.77,1.02,12.6.07,25.05-2.84,37.34-.2.85-.51,1.67-.77,2.51-2.91-1.27-5.97-1.58-9.12-1.64-7.1-.15-13.95,1.27-20.76,3.03-4.99,1.29-9.71,3.21-13.92,6.21-2.99,2.13-5.83,4.46-8.85,6.56-1.3.91-2.12,2.38-3.65,2.98Z"/>
  <path class="cls-12" d="m358.92,535.38c1.66-6.16,3.19-12.35,4.04-18.69,1.34-10.01,1.66-20.04.41-30.07-.16-1.32.12-2.01,1.28-2.68,4.54-2.63,9.31-2.35,14.16-1.3.57.12.83.47.66,1.03-1.9,6.16.54,11.41,3.46,16.57.19.34.28.74.42,1.11-1.05,1.19-.5,2.51-.27,3.77.18.99.79,1.89.72,2.95-1.04.71-2.17,1.33-3.12,2.15-2.91,2.53-3.85,5.71-2.77,9.42.4,1.36.98,2.67,1.48,4-.43.58-.24,1.19-.12,1.82.56,2.93,1.77,5.57,3.33,8.1,2.6,4.21,5.45,8.13,9.5,11.15,2.17,1.62,4.34,2.56,7.02,2.21-.85,2.01-.48,3.91.52,5.75,1.1,2.04,2.25,4.05,3.09,6.22,2.57,6.57,2.03,13.05-.89,19.31-2.08,4.47-5.07,8.32-9.37,10.97-.29-.03-.48.09-.57.37,0,0-.03.02-.03.02-.42-.04-.73.11-.9.51h-.01c-.43-.06-.75.09-.94.48h-.01c-.42-.07-.76.05-.97.44,0,0-.03.01-.03.01-.4-.08-.74,0-.96.38-.13.08-.27.12-.43.13-.56-.1-1.08-.05-1.45.45,0,0-.02,0-.02,0-.69-.08-1.37-.11-1.92.44-.14.05-.29.07-.44.05-1.01-.14-2.01-.28-3.02-.43.61-3.68,1.33-7.35,1.79-11.05.51-4.11.55-8.25-.07-12.37-.66-4.43-1.96-8.7-3.55-12.85-2.02-5.25-4.78-10.07-9.07-13.86-3.24-2.87-6.66-5.44-10.95-6.53Z"/>
  <path class="cls-3" d="m352.47,474.36c1.87,2.99,2.43,6.4,2.9,9.78,1.63,11.73.88,23.39-1.29,34.99-2.12-.03-3.69-1.38-5.38-2.34-4.91-2.79-10.05-3.19-15.42-1.87-.79.2-1.51.54-2.22-.11.28-5.82.48-11.63-.02-17.46-.47-5.44-1.26-10.78-4.25-15.53-.51-.81-.99-1.65-1.75-2.25-.75-.59-1.57-.84-2.41-.24-.75.53-.81,1.31-.64,2.15.2.93.9,1.7.84,2.9-2.54-.22-4.98-.81-7.68-1.29,2.6-6.84,5.92-12.84,12.71-16.14.28-.13.61-.16.91-.23,5.61.74,10.46,2.77,13.62,7.8.77,1.22,1.89,2.17,3.11,2.95,2.99,1.93,6.53,1.67,6.86-2.9,0-.07.07-.14.11-.21Zm1.02,15.1c.06-2.07-1.46-3.87-3.33-3.96-1.92-.09-3.23,1.19-3.33,3.25-.1,2.26,1.36,4.2,3.26,4.31,1.75.1,3.35-1.59,3.41-3.6Z"/>
  <path class="cls-10" d="m352.98,524.29c-1.92,9.43-4.89,18.5-9.53,26.97-2.34,4.27-5.57,7.72-9.71,10.38-6.89,4.43-14.43,1.27-17.88-3.02-2.13-2.65-3.6-5.64-5.13-8.62-.43-.83-.31-1.36.63-1.61,1.16-.31,2.3-.65,3.47-.92,1.74-.4,1.75-.38,2.73,1.35.79,1.39,2,1.76,3.44.95,1.38-.77,2.25-2.01,2.89-3.42,1.56-3.42,2.75-6.98,3.78-10.59,1.19-4.21,2.11-8.49,2.76-12.82,1.14.06,2.15-.49,3.23-.7,5.5-1.11,10.97-1.59,16.33.66,1.01.43,2,.93,2.99,1.4Z"/>
  <path class="cls-2" d="m392.93,532.05c.28-1.59-.22-2.95-1.08-4.29-1.22-1.89-2.63-3.61-4.16-5.25-1.04-1.11-2.07-2.23-2.75-3.61-.99-2.01-.74-3.16,1.24-4.16,4.72-2.39,9.61-3.39,14.8-1.49,7.52,2.75,13.9,7.12,19.12,13.18,1.36,1.57,2.66,3.19,3.74,4.98,2.37,3.92,1.96,7.37-1.3,10.63-.79.79-1.66,1.5-2.57,2.15-3.51,2.52-7.22,4.72-11.04,6.73-1.63.86-1.67,1.19-2.75-.71-.97-1.7-2.18-3.16-4.08-3.88-.28-.42-.66-.47-1.1-.29l-.16.02s-.16-.02-.16-.02c-.16-.18-.32-.41-.18-.62,1.97-3.02.95-5.54-1.31-7.85-1.55-1.58-3.11-3.15-4.68-4.71-.43-.43-.81-1.02-1.58-.82Z"/>
  <path class="cls-1" d="m426.42,521.56c-.89-.21-1.25-.99-1.77-1.56-5.27-5.65-11.45-9.94-18.69-12.67-2.85-1.08-5.75-1.97-8.83-2.09-.67-.02-1.25-.09-1.64-.74-1.37-2.28-3.34-4.07-4.95-6.17-1.82-2.37-3.27-4.92-4.08-7.81-1.37-4.86,1.11-8.67,6.13-9.31,3.16-.4,6.28.04,9.18,1.24,7.84,3.24,14.82,7.82,20.62,14.08,5.51,5.95,7,12.92,5.29,20.7-.27,1.25-.57,2.49-.88,3.73-.05.21-.25.39-.39.59Z"/>
  <path class="cls-9" d="m265.3,550.76c1.53-.6,2.34-2.07,3.65-2.98,3.01-2.09,5.86-4.43,8.85-6.56,4.21-3,8.94-4.92,13.92-6.21,6.81-1.76,13.66-3.18,20.76-3.03,3.14.07,6.21.37,9.12,1.64,0,.08.01.17-.01.24-.52,1.59-.76,3.36-1.63,4.73-.96,1.49-3.02,1.03-4.57,1.49-5.36,1.58-10.72,3.16-15.72,5.72-2.81,1.43-5.38,3.16-6.75,6.17-.35.77-.9.76-1.58.58-1.78-.47-3.59-.72-5.42-.93-5.56-.64-10.79.41-15.8,2.81-1.69.81-1.69.81-2.78-.77-.68-.98-1.36-1.94-2.05-2.91Z"/>
  <path class="cls-7" d="m220.97,545.79c.65,2.25.06,4.59.56,6.89.45,2.04.98,4.02,1.87,5.9,1.92,4.08,4.57,7.67,7.4,11.14.65.8,1.3,1.64,1.74,2.56,1.25,2.62.02,5.37-2.71,6.38-1.09.4-2.2.55-3.3.3-4.21-.95-8.37-2.04-12.07-4.41-.89-.57-1.67-1.22-2.42-1.94-.56-.54-1.02-1.27-1.95-1.26.84-2.85.61-5.81.91-8.71.66-6.36,3.08-11.77,8.1-15.87.55-.45,1.08-.95,1.85-.98Z"/>
  <path class="cls-9" d="m358.92,535.38c4.3,1.09,7.71,3.67,10.95,6.53,4.28,3.79,7.05,8.61,9.07,13.86,1.6,4.16,2.89,8.42,3.55,12.85.62,4.12.58,8.26.07,12.37-.46,3.7-1.18,7.37-1.79,11.05-.37-.02-.74-.05-1.11-.07-1.49-.35-1.19-1.55-1.07-2.52.23-1.82.52-3.64.96-5.42,3.8-15.42-6.9-29.98-16.86-35.01-2.14-1.08-4.26-2.2-6.55-2.92-.91-.29-1.07-.67-.72-1.56,1.21-3.04,2.33-6.11,3.48-9.17Z"/>
  <path class="cls-8" d="m392.93,532.05c.77-.2,1.15.39,1.58.82,1.57,1.56,3.13,3.13,4.68,4.71,2.26,2.31,3.28,4.82,1.31,7.85-.14.22.02.44.18.62-.52.29-1.03.58-1.55.87-2.68.34-4.85-.59-7.02-2.21-4.05-3.02-6.9-6.94-9.5-11.15-1.56-2.53-2.77-5.17-3.33-8.1-.12-.64-.31-1.24.12-1.82.94.53,1.3,1.56,1.99,2.31,2.1,2.29,4.43,4.26,7.13,5.84,1.52.89,2.89,1.07,4.42.26Z"/>
  <path class="cls-4" d="m352.47,474.36c-.04.07-.1.14-.11.21-.33,4.57-3.86,4.83-6.86,2.9-1.21-.78-2.33-1.73-3.11-2.95-3.17-5.03-8.02-7.06-13.62-7.8,7-4.04,19.77-1.57,23.69,7.64Z"/>
  <path class="cls-10" d="m331.06,514.81c.71.65,1.43.31,2.22.11,5.37-1.32,10.51-.93,15.42,1.87,1.69.96,3.26,2.31,5.38,2.34-.24,1.3-.23,2.66-1.01,3.82-1.79-.13-3.33-1-4.89-1.73-4.95-2.31-10.01-2.86-15.29-1.38-.68.19-1.41.22-2.11.32-.2-1.8-.14-3.58.27-5.35Z"/>
  <path class="cls-3" d="m330.79,520.16c.7-.1,1.43-.13,2.11-.32,5.28-1.48,10.34-.94,15.29,1.38,1.56.73,3.1,1.6,4.89,1.73.12.46.12.91-.09,1.34-1-.47-1.98-.97-2.99-1.4-5.36-2.26-10.83-1.77-16.33-.66-1.08.22-2.09.77-3.23.7,0-.94.01-1.88.36-2.77Z"/>
  <path class="cls-9" d="m383.79,508.07c.07-1.06-.54-1.96-.72-2.95-.23-1.27-.78-2.59.27-3.77.44.07.66.42.91.72,1.16,1.39,2.31,2.79,3.55,4.28-1.32.86-2.68,1.25-4,1.72Z"/>
  <path class="cls-9" d="m379.67,591.98c.37.02.74.05,1.11.07,1.01.14,2.01.28,3.02.43-1.47.61-2.84.38-4.13-.5Z"/>
  <path class="cls-9" d="m384.24,592.42c.55-.55,1.23-.53,1.92-.44-.56.48-1.21.61-1.92.44Z"/>
  <path class="cls-9" d="m386.19,591.97c.37-.51.89-.56,1.45-.45-.4.43-.88.59-1.45.45Z"/>
  <path class="cls-8" d="m400.99,546.04c.44-.19.82-.13,1.1.29-.42.1-.79.02-1.1-.29Z"/>
  <path class="cls-9" d="m390.99,590.07c.17-.4.48-.55.9-.51-.19.36-.47.57-.9.51Z"/>
  <path class="cls-9" d="m389.06,591c.21-.39.54-.51.97-.44-.23.35-.54.53-.97.44Z"/>
  <path class="cls-9" d="m388.06,591.39c.22-.38.56-.46.96-.38-.24.33-.55.5-.96.38Z"/>
  <path class="cls-9" d="m390.03,590.56c.2-.4.52-.54.94-.48-.21.36-.51.55-.94.48Z"/>
  <path class="cls-9" d="m391.92,589.54c.09-.28.27-.41.57-.37-.09.28-.27.42-.57.37Z"/>
  <path class="cls-4" d="m353.49,489.46c-.06,2.01-1.65,3.7-3.41,3.6-1.89-.11-3.36-2.05-3.26-4.31.1-2.06,1.41-3.34,3.33-3.25,1.87.09,3.39,1.89,3.33,3.96Z"/>
</svg>