<?xml version="1.0" encoding="UTF-8"?>
<svg id="_图层_1" data-name="图层 1" xmlns="http://www.w3.org/2000/svg" viewBox="0 0 960 960">
  <defs>
    <style>
      .cls-1 {
        fill: #f3b69e;
      }

      .cls-1, .cls-2, .cls-3, .cls-4, .cls-5, .cls-6, .cls-7, .cls-8, .cls-9, .cls-10 {
        stroke-width: 0px;
      }

      .cls-2 {
        fill: #f4b79e;
      }

      .cls-3 {
        fill: #fcd541;
      }

      .cls-4 {
        fill: #fafaf6;
      }

      .cls-5 {
        fill: #f6b89f;
      }

      .cls-6 {
        fill: #060505;
      }

      .cls-7 {
        fill: #454796;
      }

      .cls-8 {
        fill: #a86760;
      }

      .cls-9 {
        fill: #af6a1f;
      }

      .cls-10 {
        fill: #5a7dfe;
      }
    </style>
  </defs>
  <path class="cls-6" d="m628.94,576.44c-2-.31-2.81-1.6-2.96-3.49-.25-3.19.3-6.21,1.75-9.06,2.08-4.1,5.17-7.26,9.06-9.67,1.78-1.11,1.79-1.41.24-2.7-.37-.31-.77-.58-1.17-.84q-3.6-2.39-5.47,1.53c-1.34,2.81-2.81,5.54-4.65,8.09-5.18,7.16-16.28,9.83-24.15,6.09-7.08-3.36-12.18-8.63-16.11-15.24-1.68-2.82-1.63-2.76-4.45-1.2-4.97,2.74-9.33,6.17-12.55,10.9-3.84,5.65-5.5,11.82-4.48,18.64.28,1.9.61,3.79.92,5.68.28,1.67.34,3.33.16,5.02-.38,3.54-2.27,5.88-5.6,7.08-3.42,1.23-6.89,1.3-10.38.38-17.47-4.62-27.64-22.18-22.91-39.46.02-.08.04-.16.06-.23.6-2.16.59-2.13-1.45-3.1-4.4-2.11-8.6-4.58-12.67-7.27-1.34-.89-2.55-1.93-3.65-3.09-4.75-5.02-5.78-10.96-2.82-17.23.67-1.42.75-2.47-.05-3.92-2.83-5.13-4.11-10.71-4.12-16.57,0-4.28,1.41-8.17,3.47-11.83,2.14-3.79,4.84-7.15,8.2-9.93,5.07-4.21,10.63-7.66,16.63-10.36,4.05-1.82,8.33-2.73,12.8-2.68,3.45.03,6.66.83,9.54,2.72.89.58,1.67.76,2.68.44.91-.29,1.87-.44,2.81-.59,5.79-.92,11.46-.94,16.56,2.46.78-.38.67-1.12.87-1.69.46-1.28.77-2.61,1.28-3.86,6.95-16.9,26.29-19.08,38.08-10.67,6.31,4.5,10.17,10.71,12.59,17.93.73,2.17.71,2.19,2.86,2.2,20.54.1,39.78,5.56,58.16,14.31,9.2,4.38,16.22,11.27,21.02,20.32,2.64,4.98,3.95,10.26,3.41,15.94-.19,1.99-.16,2,1.69,2.64,13.11,4.58,20.83,17.68,18.42,31.29-.3,1.72-.6,3.48-1.92,4.81-2.49.96-3.17.71-4.41-1.63-.11-1.34-.27-2.68-.31-4.02-.05-1.99-.17-3.96-.53-5.92-1.37-7.28-4.83-13.03-11.85-16.18-3.64-1.99-7.58-2.45-11.61-2-7.66.86-14.18,4.21-19.73,9.49-3.49,3.32-6.46,7.08-8.88,11.26-.64,1.1-1.29,2.22-2.1,3.2-1.13,1.38-2.9,1.74-4.32,1.07-1.34-.63-2.1-2.06-1.99-3.78.02-.32.02-.67.15-.94.64-1.37.06-2.01-1.23-2.49-9.38-3.49-18.21-2.69-26.26,3.5-3.59,2.76-5.73,6.4-5.86,11.05-.05,1.91-.87,3.19-2.82,3.6Zm-17.32-109.62c-2.97-2.54-6.55-3.64-10.33-3.83-8.98-.46-16.35,4.89-18.74,13.65-1.99,7.31-2.39,14.79-1.82,22.33-.25,2.15.1,4.28.29,6.4.52,5.68,1.2,11.35,2.75,16.87-.01.16-.07.32-.03.47,2.07,9.05,4.8,17.88,9.24,26.09,2.31,4.28,5.38,7.9,9.5,10.57,6.18,4.01,12.95,3.19,17.97-2.2,2.49-2.67,4-5.94,5.57-9.17.41-.84.13-1.35-.79-1.56-1.48-.34-2.95-.7-4.41-1.08-.74-.19-1.1-.04-1.41.76-.97,2.51-2.75,2.85-4.73,1.01-1.14-1.06-1.8-2.44-2.37-3.85-2.45-6.09-4.24-12.36-5.43-18.82-.82-4.48-.85-9.04-1.45-13.55.02-.8.06-1.59.04-2.39-.12-5.19-.1-10.37.46-15.55.5-4.66,1.55-9.12,4.07-13.15.47-.75.9-1.52,1.59-2.08.72-.59,1.51-.96,2.41-.4.88.55.95,1.37.72,2.31-.22.91-.91,1.68-.84,2.68,2.42-.02,6.09-.76,7.6-1.54-1.35-3.5-2.95-6.88-5.29-9.86-1.28-1.63-2.67-3.17-4.56-4.13Zm-55.77,40.97c.46.64.94,1.27,1.61,1.72,2.13,3.26,2.41,6.63.69,10.16-1.94,3.98-4.9,6.99-8.59,9.34-1.41.9-2.79,1.86-4.58,1.71-1.4-1.17-1.65-2.03-.79-3.64,1.09-2.05,2.44-3.93,4.05-5.62,1.16-1.21,2.33-2.42,3.21-3.86,1.39-2.28.98-3.96-1.43-5.09-4.71-2.2-9.55-3.01-14.61-1.08-9,3.43-16.24,9.08-21.78,16.95-.55.78-1.05,1.61-1.46,2.47-1.26,2.69-1,5.27.7,7.7,1.02,1.46,2.35,2.61,3.78,3.64,3.38,2.43,6.94,4.55,10.6,6.52,2.73,1.46,2.26,1.25,3.63-.93.95-1.53,2.12-2.8,3.89-3.38,1.77-.58,2.99.18,3.24,2.04.18,1.38-.09,2.71-.73,3.94-.66,1.27-1.38,2.52-2.03,3.8-1.88,3.68-2.95,7.53-2.83,11.73.21,7.55,3.29,13.76,8.63,18.87,3.61,3.45,7.94,5.58,13.05,5.8.47,0,.96.06,1.42,0,2.3-.36,2.76-.87,2.52-3.15-.16-1.58-.48-3.15-.8-4.72-.76-3.7-1.23-7.47-.55-11.19,1.97-10.76,7.76-18.91,17.26-24.38,2.08-1.2,4.28-2.17,6.55-2.94.83-.28,1.22-.55.83-1.51-1.06-2.57-2.05-5.18-3.06-7.77-.44-1.59-.88-3.18-1.31-4.77-2.36-8.73-3.85-17.59-4.19-26.64-.24-6.3-.26-12.6.59-18.86.18-1.31-.18-2.02-1.32-2.68-4.46-2.56-9.15-2.3-13.93-1.31-.81.17-.99.6-.77,1.38.45,1.54.76,3.11.6,4.72-.15,1.5-.4,3-.6,4.49-.38.22-.47.63-.6.99-1.3,3.72-3.34,6.99-5.9,9.96-.64.74-1.63,1.24-1.95,2.43,2.51.75,4.71,1.99,6.96,3.14Zm55.37-3.09c-.02,2.25.16,4.49.42,6.73-.29.34-.23.65.07.95.16,1.75.26,3.5.49,5.24.54,4.08,1.22,8.13,2.28,12.11.63,2.06,1.29,4.11,1.88,6.18.27.94.7,1.39,1.76,1.59,4.08.77,8.05,1.99,11.95,3.42,3.59,1.32,7.2,2.65,10.28,5.02,1.28.98,2.59,1.98,3.14,3.53.47,1.31,1.13,1.4,2.35,1.09,3.81-.96,7.67-1.25,11.62-.8,2.89.34,5.55,1.41,8.31,2.14,2.38,1.68,2.35,1.66,3.53,0,8.41-11.85,19.61-18.76,34.35-19.31,1.27-.05,1.61-.5,1.66-1.68.2-4.64-1.13-8.85-3.56-12.72-4.62-7.36-10.93-12.92-18.64-16.8-14.39-7.25-29.54-12.11-45.63-13.67-6.43-.62-12.92-.83-19.36.23-1.57.26-3.14.8-4.71.8-1.51,0-1.69.7-1.77,1.87-.16,2.31-.48,4.61-.45,6.93-.33.46-.4.94-.05,1.43,0,1.12,0,2.24,0,3.36-.38.81-.31,1.6.07,2.39Zm-101.05,14.9c.92-.05,1.18-.72,1.59-1.16,1.53-1.63,3.1-3.23,4.83-4.65,6.79-5.56,14.26-9.64,23.19-10.48.58-.05,1.07-.13,1.42-.69,1.57-2.52,3.78-4.53,5.52-6.92,1.81-2.48,3.18-5.17,3.81-8.18.72-3.47-1.09-6.59-4.41-7.77-1.38-.49-2.8-.64-4.24-.58-3.31.13-6.5.87-9.46,2.35-5.6,2.79-10.86,6.12-15.46,10.37-5.99,5.52-9.63,12.08-8.34,20.6.37,2.41.68,4.84,1.56,7.11Z"/>
  <path class="cls-10" d="m628.94,576.44c1.95-.41,2.77-1.69,2.82-3.6.12-4.65,2.27-8.3,5.86-11.05,8.05-6.19,16.88-6.99,26.26-3.5,1.29.48,1.87,1.12,1.23,2.49-.13.28-.13.62-.15.94-.11,1.73.65,3.16,1.99,3.78,1.42.67,3.19.31,4.32-1.07.81-.98,1.46-2.1,2.1-3.2,2.42-4.18,5.38-7.93,8.88-11.26,5.55-5.28,12.06-8.63,19.73-9.49,4.04-.45,7.97.01,11.61,2-.05,1.68-.16,3.35-.15,5.03,0,1.92-.13,3.82-.52,5.71-1.57,7.52-5.33,13.82-10.84,19.06-2.18,2.08-4.62,3.93-7.32,5.36-.72.38-1.32.91-1.84,1.51-1.13,1.3-1.25,2.53-.44,3.96.68,1.2,2.27,1.94,3.71,1.61.85-.19,1.67-.5,2.41-1.01,1.13-.77,2.39-1.31,3.71-1.65,5.13-1.3,10.05-3.15,14.69-5.72,3.03-1.68,5.87-3.56,7.89-6.46.36-.52.81-1,1.39-1.29,1.24,2.34,1.92,2.59,4.41,1.63-.03,1.84-1.41,2.81-2.62,3.78-1.99,1.59-4.04,3.15-6.21,4.49-9.21,5.73-18.93,10.32-29.57,12.77-3.75.86-7.56,1.36-11.39,1.51-7.02.28-14.06.71-21.07-.26-6.92-.96-13.59-2.87-20.05-5.49-5.05-2.04-8.81-5.42-10.82-10.57Z"/>
  <path class="cls-5" d="m611.21,497.52c-.04-2.32.29-4.62.45-6.93.08-1.17.27-1.87,1.77-1.87,1.57,0,3.14-.54,4.71-.8,6.44-1.06,12.93-.85,19.36-.23,16.09,1.56,31.24,6.42,45.63,13.67,7.7,3.88,14.02,9.45,18.64,16.8,2.43,3.88,3.77,8.08,3.56,12.72-.05,1.18-.39,1.64-1.66,1.68-14.74.55-25.94,7.46-34.35,19.31-1.18,1.66-1.15,1.68-3.53,0,.17-1.08-.46-1.83-1.11-2.52-.93-.99-1.88-1.96-2.9-2.85-8.22-7.08-17.7-11.89-27.99-15.08-6.27-1.94-12.69-3.09-19.29-1.72-1.07-3.98-1.75-8.03-2.28-12.11-.23-1.74-.33-3.49-.49-5.23.4-.35.34-.66-.07-.95-.26-2.23-.44-4.47-.42-6.73.51-.81.52-1.61-.07-2.39,0-1.12,0-2.24,0-3.36.5-.46.52-.93.05-1.43Z"/>
  <path class="cls-2" d="m557.46,509.51c-.67-.45-1.15-1.08-1.61-1.72.25-.49.45-1.01.76-1.47,1.33-2.02,2.25-4.22,2.57-6.6.4-3,.44-6-1.83-8.46.2-1.5.45-2.99.6-4.49.16-1.61-.15-3.18-.6-4.72-.23-.78-.05-1.21.77-1.38,4.78-.98,9.46-1.25,13.93,1.31,1.15.66,1.5,1.37,1.32,2.68-.85,6.26-.83,12.56-.59,18.86.34,9.05,1.84,17.91,4.19,26.64.43,1.59.87,3.18,1.31,4.77-4.84,1.34-9.12,3.63-12.9,7.01-2.47,2.2-4.55,4.7-6.51,7.29-4.32,5.71-7.79,11.82-8.7,19.14-.86,6.99.02,13.65,3.06,20.01.34.71.85,1.36.89,2.2-5.11-.21-9.45-2.35-13.05-5.8-5.34-5.11-8.42-11.32-8.63-18.87-.12-4.21.95-8.05,2.83-11.73.65-1.28,1.37-2.53,2.03-3.8.64-1.24.91-2.56.73-3.94-.25-1.86-1.46-2.62-3.24-2.04-1.77.58-2.94,1.85-3.89,3.38-1.36,2.19-.9,2.39-3.63.93-3.66-1.96-7.23-4.09-10.6-6.52-1.43-1.03-2.76-2.18-3.78-3.64-1.7-2.43-1.96-5.01-.7-7.7.4-.86.91-1.69,1.46-2.47,5.53-7.86,12.78-13.52,21.78-16.95,5.07-1.93,9.9-1.12,14.61,1.08,2.41,1.12,2.82,2.81,1.43,5.09-.88,1.44-2.05,2.65-3.21,3.86-1.61,1.68-2.96,3.57-4.05,5.62-.86,1.61-.61,2.47.79,3.64-.51,1.42-.74,2.83.58,3.94,1.25,1.06,2.64.83,4.06.3,2.19-.82,4.11-2.08,6-3.41,3.22-2.26,6.14-4.83,8.07-8.32,3.45-6.26.16-12.5-6.21-13.72Z"/>
  <path class="cls-9" d="m605.42,510.9c.59,4.5.62,9.07,1.45,13.55,1.18,6.45,2.98,12.73,5.43,18.82.56,1.4,1.22,2.78,2.37,3.85,1.98,1.84,3.77,1.5,4.73-1.01.31-.8.68-.95,1.41-.76,1.47.38,2.94.74,4.41,1.08.92.21,1.2.72.79,1.56-1.57,3.23-3.08,6.5-5.57,9.17-5.02,5.39-11.79,6.21-17.97,2.2-4.12-2.67-7.19-6.29-9.5-10.57-4.44-8.21-7.17-17.03-9.24-26.09-.03-.15.02-.31.03-.47.48-.52.98-1.04,1.45-1.58,5.33-6.18,11.69-10.21,20.21-9.76Z"/>
  <path class="cls-3" d="m605.42,510.9c-8.52-.45-14.89,3.58-20.21,9.76-.46.54-.96,1.05-1.45,1.58-1.55-5.52-2.24-11.18-2.75-16.87-.19-2.12-.54-4.25-.29-6.4.46-.83.96-1.65,1.37-2.5,2.4-5.03,4.8-10.07,7.53-14.93,2.82-5.02,6.71-8.85,12.21-10.89,3.28-1.22,6.53-2.54,9.79-3.81,1.89.96,3.29,2.5,4.56,4.13,2.33,2.98,3.93,6.36,5.29,9.86-1.51.78-5.18,1.51-7.6,1.54-.07-1,.62-1.77.84-2.68.23-.94.16-1.76-.72-2.31-.89-.56-1.69-.19-2.41.4-.69.57-1.13,1.34-1.59,2.08-2.52,4.02-3.56,8.49-4.07,13.15-.56,5.17-.58,10.36-.46,15.55.02.79-.03,1.59-.04,2.39Z"/>
  <path class="cls-1" d="m510.17,519.6c-.89-2.27-1.2-4.69-1.56-7.11-1.29-8.52,2.35-15.09,8.34-20.6,4.6-4.24,9.87-7.58,15.46-10.37,2.96-1.47,6.15-2.21,9.46-2.35,1.45-.06,2.86.09,4.24.58,3.32,1.18,5.13,4.3,4.41,7.77-.63,3.02-2,5.7-3.81,8.18-1.74,2.39-3.95,4.4-5.52,6.92-.35.56-.84.64-1.42.69-8.93.84-16.4,4.92-23.19,10.48-1.73,1.42-3.3,3.01-4.83,4.65-.41.44-.67,1.12-1.59,1.16Z"/>
  <path class="cls-7" d="m726.26,568.58c-.59.3-1.03.77-1.39,1.29-2.02,2.9-4.86,4.79-7.89,6.46-4.64,2.57-9.55,4.42-14.69,5.72-1.32.33-2.58.88-3.71,1.65-.75.51-1.57.82-2.41,1.01-1.44.33-3.03-.41-3.71-1.61-.81-1.44-.69-2.66.44-3.96.52-.6,1.13-1.13,1.84-1.51,2.7-1.43,5.14-3.28,7.32-5.36,5.5-5.24,9.26-11.55,10.84-19.06.39-1.89.53-3.78.52-5.71,0-1.68.1-3.35.15-5.03,7.01,3.15,10.48,8.9,11.85,16.18.37,1.95.49,3.93.53,5.92.03,1.34.2,2.68.31,4.02Z"/>
  <path class="cls-8" d="m554.1,590.58c-.04-.84-.55-1.49-.89-2.2-3.04-6.36-3.92-13.02-3.06-20.01.9-7.32,4.38-13.43,8.7-19.14,1.96-2.6,4.05-5.09,6.51-7.29,3.78-3.38,8.06-5.67,12.9-7.01,1.01,2.59,2,5.2,3.06,7.77.4.96,0,1.22-.83,1.51-2.27.77-4.47,1.74-6.55,2.94-9.5,5.47-15.29,13.62-17.26,24.38-.68,3.72-.21,7.48.55,11.19.32,1.56.64,3.13.8,4.72.23,2.27-.23,2.79-2.52,3.15-.46.07-.95,0-1.42,0Z"/>
  <path class="cls-8" d="m614.49,529.72c6.6-1.37,13.03-.23,19.29,1.72,10.29,3.19,19.77,8,27.99,15.08,1.03.88,1.97,1.86,2.9,2.85.65.69,1.28,1.44,1.11,2.52-2.77-.73-5.42-1.8-8.31-2.14-3.95-.46-7.81-.17-11.62.8-1.22.31-1.88.22-2.35-1.09-.55-1.55-1.86-2.55-3.14-3.53-3.09-2.37-6.69-3.71-10.28-5.02-3.9-1.43-7.87-2.65-11.95-3.42-1.06-.2-1.49-.65-1.76-1.59-.59-2.07-1.25-4.12-1.88-6.18Z"/>
  <path class="cls-4" d="m611.61,466.82c-3.26,1.28-6.51,2.6-9.79,3.81-5.5,2.04-9.39,5.87-12.21,10.89-2.73,4.87-5.13,9.9-7.53,14.93-.41.86-.91,1.67-1.37,2.5-.57-7.54-.17-15.02,1.82-22.33,2.39-8.76,9.76-14.11,18.74-13.65,3.78.2,7.36,1.29,10.33,3.83Z"/>
  <path class="cls-8" d="m557.46,509.51c6.37,1.22,9.66,7.47,6.21,13.72-1.92,3.49-4.85,6.07-8.07,8.32-1.89,1.32-3.81,2.59-6,3.41-1.42.53-2.81.76-4.06-.3-1.31-1.11-1.09-2.52-.58-3.94,1.8.15,3.18-.82,4.58-1.71,3.69-2.35,6.66-5.36,8.59-9.34,1.72-3.53,1.44-6.9-.69-10.16Z"/>
  <path class="cls-8" d="m557.34,491.26c2.27,2.46,2.23,5.45,1.83,8.46-.32,2.38-1.24,4.58-2.57,6.6-.3.46-.51.98-.76,1.47-2.25-1.14-4.45-2.39-6.96-3.14.32-1.19,1.31-1.69,1.95-2.43,2.57-2.98,4.61-6.24,5.9-9.96.13-.36.22-.77.6-.99Z"/>
  <path class="cls-8" d="m611.15,502.31c.58.78.58,1.58.07,2.39-.37-.79-.45-1.58-.07-2.39Z"/>
  <path class="cls-8" d="m611.21,497.52c.46.49.45.97-.05,1.43-.35-.49-.28-.96.05-1.43Z"/>
  <path class="cls-8" d="m611.64,511.43c.42.29.47.6.07.95-.3-.29-.36-.61-.07-.95Z"/>
</svg>