<?xml version="1.0" encoding="UTF-8"?>
<svg id="_图层_1" data-name="图层 1" xmlns="http://www.w3.org/2000/svg" viewBox="0 0 960 960">
  <defs>
    <style>
      .cls-1 {
        fill: #454794;
      }

      .cls-1, .cls-2, .cls-3, .cls-4, .cls-5, .cls-6, .cls-7, .cls-8, .cls-9, .cls-10 {
        stroke-width: 0px;
      }

      .cls-2 {
        fill: #f6b89f;
      }

      .cls-3 {
        fill: #050404;
      }

      .cls-4 {
        fill: #a86760;
      }

      .cls-5 {
        fill: #af6a1f;
      }

      .cls-6 {
        fill: #fdd541;
      }

      .cls-7 {
        fill: #5a7dfe;
      }

      .cls-8 {
        fill: #f9fbf9;
      }

      .cls-9 {
        fill: #f5b89f;
      }

      .cls-10 {
        fill: #b26d20;
      }
    </style>
  </defs>
  <path class="cls-3" d="m730.62,546.15c2.16,1.41,2.48,3.46,1.74,5.69-3.16,9.57-7.82,18.31-15.81,24.68-10.94,8.72-23.03,9.91-35.8,4.3-3.16-1.39-6.05-3.25-8.75-5.4-1.36-1.08-1.39-1.08-2.62.25-3.44,3.73-7.37,6.87-11.74,9.42-15.15,8.82-31.46,14.03-49,15-2.57.14-3.79.85-4.92,3.19-2.66,5.54-6.5,10.24-11.57,13.83-9.31,6.59-19.77,6.08-28.41-1.39-4.11-3.55-7.17-7.92-9.65-12.72-.36-.7-.57-1.49-1.28-2.14-3.56,2.25-7.42,3.98-11.43,5.34-8.98,3.04-18.15,3.55-27.42,1.65-6.97-1.43-11.67-5.58-14.24-12.22-1.9-4.91-2.48-10.07-3.1-15.22-.18-1.45-.65-2.55-1.68-3.55-2.82-2.72-5.61-5.48-7.9-8.68-2.47-3.44-3.74-7.22-3.01-11.5.37-2.15,1.18-4.14,2.19-6.06,1.23-2.34,2.73-4.52,4.46-6.52,5.82-6.77,12.36-12.72,19.93-17.48,3.66-2.3,7.52-4.15,11.78-5.36-.93-3.53-1.79-6.92-2.07-10.44-1.35-16.87,8.18-30.53,24.73-34.4,1.48-.34,2.97-.62,4.48-.8,1.69-.2,3.37.01,4.9.81,2.01,1.06,3.02,2.78,3.13,5.04.09,1.87-.37,3.65-.91,5.41-2.42,7.96-2.13,15.93-.15,23.91.67,2.7,1.76,5.26,3.32,7.63.88-.43,1.24-1.17,1.74-1.75,2.52-2.93,5.34-5.52,8.7-7.45,7.79-4.49,15.57-4.46,23.05.58,6.6,4.45,11.21,10.61,14.09,18.03.32.82.44,1.41,1.58,1.19,7.87-1.49,15.57-3.52,22.85-6.94.36-.17.7-.37,1.13-.6-.13-.73-.72-1.05-1.13-1.47-1.62-1.67-3.03-3.51-4.16-5.55-3.16-5.67-2.62-11.13,1.78-15.9,4.55-4.94,10.1-8.26,16.72-9.71,3.54-.77,7.1-1.16,10.7-.49,1.89.35,3.8.69,5.04,2.4-.29,1.72-1.41,2.4-3.04,2.42-1.12.01-2.24.06-3.35,0-3.06-.16-6.06.24-9.01.99-5.34,1.37-9.87,4.08-13.28,8.46-2.12,2.72-1.98,5.21.24,7.81,1.42,1.66,3.13,2.95,5.11,3.89,2.9,1.38,5.94,2.31,9.1,2.86,2.99.53,5.94,1.15,8.77,2.31,2.04.83,3.07,2.21,3.19,4.32.1,1.76.3,3.5.64,5.22-.34.6-.22,1.24-.21,1.88.08,3.53.72,6.98,1.51,10.4,2.28,9.85,6.54,18.65,14.03,25.65,5.35,5.01,11.63,8.17,19.02,8.61,7.63.46,14.26-2.2,19.99-7.14,3.66-3.15,6.74-6.78,8.38-11.44.73-.79,1-1.81,1.33-2.78.56-1.66.97-3.37,1.56-5.02.89-2.47,1.99-3.14,4.7-3.08Zm-237.97,14.74h0c-.2,1.5.64,2.61,1.4,3.72,2.17,3.19,4.88,5.9,7.79,8.39,1.73,1.48,2.62,3.29,2.93,5.55.5,3.55,1.18,7.07,1.85,10.59.36,1.89,1.07,3.67,1.88,5.41.92,1.99,2.4,3.37,4.42,4.15,1.11.43,2.26.79,3.43,1.02,10.58,2.09,20.38-.26,29.73-5.22.82-.31,1.65-.6,2.46-.92,1.5-.59,1.53-.61,1.07-2.23-1.69-5.94-2.7-12.01-3.06-18.16-.95-16.22,1.31-31.88,8.55-46.61.41-.83.39-1.37-.3-2.07-3.33-3.41-5.3-7.61-6.36-12.17-1.8-7.79-2.29-15.63-.12-23.48.5-1.81,1.06-3.64,1.16-5.46-.39-.38-.72-.31-1.02-.25-17.45,3.21-22.9,17.72-20.89,29.35.44,2.53,1.3,4.94,1.94,7.41,1.02,3.92-.25,6.7-3.8,8.55-.57.3-1.15.56-1.72.85-10.24,5.33-19.35,12.11-26.87,20.93-1.82,2.14-3.35,4.45-4.4,7.09-.41,1.02-.51,1.96-.36,2.99-.08.29-.03.51.3.58Zm86.31,28.66c-.22-1.41-.23-2.87-.97-4.16.03-.47.14-.95.07-1.4-.76-4.68-.95-9.39-1-14.11.04-.96.08-1.91.1-2.87.28-9.87,2.01-19.48,5.21-28.82,1.25-3.64,2.97-7.05,5.38-10.08.79-1,1.66-1.95,2.84-2.52.78-.38,1.57-.43,2.2.26.54.6.44,1.31.17,2.03-.27.73-1.12,1.15-1.12,2.03,3.46.42,7.75.29,9.5-.35-1.62-3.02-2.96-6.16-5.36-8.68-4.2-6.25-13.53-11.56-23.37-4.98-2.68,1.79-4.92,4.06-6.81,6.65-6.08,8.35-9.45,17.78-11.06,27.91-1.03,5.02-1.34,10.1-1.4,15.2-.02,1.91-.18,3.83.32,5.71.18,8.97,2.17,17.56,5.69,25.78,2.03,4.73,4.65,9.09,8.44,12.67,6.7,6.34,14.6,6.77,21.88,1.17,3.27-2.52,5.82-5.67,8.07-9.1.3-.46.71-.89.42-1.64-3.38-.51-6.83-.96-10.36-1.82.03,1.06.68,1.62.99,2.31.49,1.09.32,2.04-.54,2.82-.79.73-2.1.65-3.07-.17-.36-.3-.64-.7-.92-1.09-1.38-1.97-2.52-4.08-3.28-6.37-.7-2.12-1.34-4.26-2-6.39Zm4.06-35.47c-1.17,6.79-1.3,13.65-.98,20.5.25,5.34.95,10.63,2.33,15.82.33,1.25.85,2.04,2.28,2.36,3.82.84,7.64,1.55,11.57,1.68,5.6.19,11.16-.07,16.68-1.01,4.62-.79,9.24-1.62,13.66-3.27,5.01-1.13,9.72-3.11,14.32-5.33,7.68-3.7,14.7-8.38,20.7-14.49,1.53-1.56,1.52-1.59.2-3.28-3.36-4.31-6.03-9.01-8.03-14.1-2.9-7.38-4.35-15.01-4.18-22.94.04-2.06-.12-1.87-1.74-2.04-3.03-.33-5.98-1.04-8.81-2.19-.9-.37-1.55-.38-2.38.27-7.51,5.9-16.23,8.8-25.58,9.87-7.72.89-15.46.96-23.09-.94-.98-.24-1.62-.17-2.07.91-2.47,5.84-4.29,11.84-4.88,18.18Z"/>
  <path class="cls-7" d="m660.31,529.08c-.34-1.73-.53-3.47-.64-5.22-.12-2.11-1.15-3.49-3.19-4.32-2.84-1.16-5.79-1.78-8.77-2.31-3.16-.56-6.2-1.48-9.1-2.86-1.98-.94-3.69-2.23-5.11-3.89-2.22-2.6-2.36-5.09-.24-7.81,3.41-4.37,7.94-7.09,13.28-8.46,2.95-.75,5.95-1.16,9.01-.99,1.11.06,2.23,0,3.35,0,1.63-.02,2.75-.7,3.04-2.42,3.47.14,6.76,1.13,10.02,2.15,12.77,3.98,23.97,10.78,34.22,19.23,8.25,6.81,15.37,14.63,20.65,24.01,1.18,2.09,2.25,4.23,3.06,6.49.4,1.12.93,2.22.74,3.47-2.71-.06-3.81.61-4.7,3.08-.59,1.65-1,3.36-1.56,5.02-.33.97-.59,2-1.33,2.78-4.62,1.07-9.25,1.32-13.95.46-4.62-.84-9.25-1.61-13.72-3.06-9.25-3.01-17.72-7.53-25.65-13.11-2.58-1.82-4.82-3.91-6.21-6.8-.62-1.29-1.25-2.57-1.92-3.84-.32-.6-.38-1.44-1.27-1.6Z"/>
  <path class="cls-2" d="m583.03,554.08c.58-6.34,2.41-12.35,4.88-18.18.45-1.07,1.09-1.15,2.07-.91,7.63,1.9,15.37,1.83,23.09.94,9.35-1.08,18.07-3.97,25.58-9.87.83-.65,1.48-.64,2.38-.27,2.83,1.15,5.77,1.86,8.81,2.19,1.62.18,1.78-.01,1.74,2.04-.17,7.93,1.28,15.57,4.18,22.94,2,5.09,4.67,9.79,8.03,14.1,1.32,1.69,1.33,1.72-.2,3.28-6,6.11-13.02,10.79-20.7,14.49-4.6,2.21-9.31,4.2-14.32,5.33-2.8-.66-5.7-.6-8.51-1.1-8.09-1.43-16.05-3.35-23.63-6.62-1.38-.59-2.43-1.47-3.31-2.64-4.6-6.1-7.21-13.05-8.86-20.44-.39-1.75.03-3.72-1.23-5.27Z"/>
  <path class="cls-9" d="m492.35,560.31c-.15-1.03-.05-1.97.36-2.99,1.05-2.64,2.58-4.95,4.4-7.09,7.52-8.82,16.63-15.6,26.87-20.93.57-.29,1.15-.56,1.72-.85,3.55-1.86,4.82-4.63,3.8-8.55-.64-2.47-1.51-4.88-1.94-7.41-2.01-11.62,3.44-26.13,20.89-29.35.3-.06.63-.12,1.02.25-.1,1.82-.66,3.65-1.16,5.46-2.17,7.85-1.69,15.69.12,23.48,1.06,4.56,3.03,8.76,6.36,12.17.69.71.71,1.24.3,2.07-7.24,14.73-9.5,30.38-8.55,46.61.36,6.15,1.37,12.22,3.06,18.16.46,1.63.43,1.64-1.07,2.23-.82.32-1.64.61-2.46.92-2.28-.32-4.57-.6-6.84-.96-7.86-1.26-14.9-4.42-21.34-9.06-1.76-1.27-2.96-2.81-3.68-4.84-.95-2.67-2.48-5.03-4.67-6.83-4.92-4.05-9.97-7.93-15.39-11.3-.47-.29-.87-.72-1.5-.59,0,0,0-.01,0-.01.1-.29-.03-.47-.3-.58Z"/>
  <path class="cls-6" d="m553.65,571.37c-.49-1.88-.34-3.81-.32-5.71.06-5.1.37-10.19,1.4-15.21.78-.23,1.13-.8,1.27-1.57.24-1.27.87-2.39,1.44-3.54,2.35-4.78,5.64-8.87,9.29-12.71,4.64-4.88,10.29-7.97,16.75-9.74,4.1-1.12,8.27-1.71,12.49-2.02,2.4,2.52,3.74,5.66,5.36,8.68-1.75.64-6.04.78-9.5.35,0-.88.85-1.3,1.12-2.03.27-.71.37-1.43-.17-2.03-.63-.69-1.42-.63-2.2-.26-1.18.57-2.04,1.52-2.84,2.52-2.4,3.03-4.13,6.44-5.38,10.08-3.2,9.34-4.92,18.95-5.21,28.82-.03.96-.07,1.91-.11,2.87-1.6-.61-2.61-2.06-4.08-2.87-2.01-1.11-3.9-2.46-6.37-2.41-3.57.07-5.35,2.8-3.76,6.04,2.99,6.09,7.52,10.77,13.35,14.21.55.32,1.11.63,1.79.55.74,1.29.75,2.75.97,4.16-3.43-.28-6.44-1.46-9.19-3.61-5.73-4.47-11.32-9.08-16.12-14.57Z"/>
  <path class="cls-1" d="m660.31,529.08c.88.16.95,1,1.27,1.6.67,1.27,1.3,2.55,1.92,3.84,1.39,2.89,3.63,4.99,6.21,6.8,7.93,5.59,16.41,10.11,25.65,13.11,4.47,1.45,9.11,2.22,13.72,3.06,4.7.86,9.33.6,13.95-.46-1.63,4.66-4.71,8.29-8.38,11.44-5.73,4.93-12.37,7.59-19.99,7.14-7.39-.44-13.66-3.6-19.02-8.61-7.49-7-11.75-15.8-14.03-25.65-.79-3.41-1.44-6.87-1.51-10.4-.01-.63-.13-1.28.21-1.88Z"/>
  <path class="cls-5" d="m553.65,571.37c4.8,5.49,10.39,10.1,16.12,14.57,2.75,2.15,5.77,3.33,9.19,3.61.67,2.13,1.3,4.27,2,6.39.76,2.29,1.89,4.4,3.28,6.37.27.39.56.79.92,1.09.97.82,2.28.89,3.07.17.86-.79,1.03-1.73.54-2.82-.31-.69-.96-1.25-.99-2.31,3.53.86,6.99,1.31,10.36,1.82.29.75-.12,1.18-.42,1.64-2.25,3.42-4.79,6.58-8.07,9.1-7.28,5.6-15.18,5.16-21.88-1.17-3.79-3.58-6.41-7.94-8.44-12.67-3.53-8.22-5.51-16.81-5.69-25.78Z"/>
  <path class="cls-4" d="m492.65,560.9c.63-.14,1.03.3,1.5.59,5.42,3.37,10.47,7.25,15.39,11.3,2.19,1.8,3.72,4.16,4.67,6.83.72,2.03,1.92,3.57,3.68,4.84,6.44,4.64,13.48,7.8,21.34,9.06,2.27.36,4.56.64,6.84.96-9.34,4.96-19.15,7.32-29.73,5.22-1.17-.23-2.32-.6-3.43-1.02-2.02-.77-3.5-2.16-4.42-4.15-.81-1.74-1.52-3.52-1.88-5.41-.67-3.52-1.35-7.04-1.85-10.59-.32-2.26-1.2-4.06-2.93-5.55-2.91-2.49-5.62-5.21-7.79-8.39-.76-1.11-1.6-2.22-1.4-3.7Z"/>
  <path class="cls-4" d="m583.03,554.08c1.26,1.55.84,3.51,1.23,5.27,1.65,7.39,4.25,14.34,8.86,20.44.88,1.17,1.93,2.05,3.31,2.64,7.58,3.27,15.55,5.19,23.63,6.62,2.81.5,5.71.44,8.51,1.1-4.42,1.65-9.04,2.48-13.66,3.27-5.52.94-11.09,1.2-16.68,1.01-3.92-.13-7.75-.84-11.57-1.68-1.42-.31-1.94-1.1-2.28-2.36-1.38-5.19-2.08-10.48-2.33-15.82-.32-6.86-.19-13.71.98-20.5Z"/>
  <path class="cls-8" d="m595.98,520.88c-4.22.32-8.39.9-12.49,2.02-6.46,1.77-12.11,4.86-16.75,9.74-3.65,3.84-6.94,7.93-9.29,12.71-.56,1.14-1.2,2.26-1.44,3.54-.14.77-.49,1.34-1.27,1.57,1.6-10.13,4.98-19.56,11.06-27.91,1.89-2.59,4.13-4.86,6.81-6.65,9.84-6.57,19.17-1.26,23.37,4.98Z"/>
  <path class="cls-10" d="m578,585.4c-.68.08-1.24-.22-1.79-.55-5.83-3.44-10.36-8.12-13.35-14.21-1.59-3.24.19-5.97,3.76-6.04,2.47-.05,4.36,1.3,6.37,2.41,1.46.81,2.48,2.26,4.08,2.87.05,4.72.23,9.44,1,14.11.07.45-.04.93-.07,1.4Z"/>
  <path class="cls-4" d="m492.35,560.31c.27.11.39.29.3.58-.33-.08-.38-.29-.3-.58Z"/>
</svg>