<?xml version="1.0" encoding="UTF-8"?>
<svg id="_图层_1" data-name="图层 1" xmlns="http://www.w3.org/2000/svg" viewBox="0 0 960 960">
  <defs>
    <style>
      .cls-1 {
        fill: #444694;
      }

      .cls-1, .cls-2, .cls-3, .cls-4, .cls-5, .cls-6, .cls-7, .cls-8 {
        stroke-width: 0px;
      }

      .cls-2 {
        fill: #454794;
      }

      .cls-3 {
        fill: #f6b89f;
      }

      .cls-4 {
        fill: #5b7dfe;
      }

      .cls-5 {
        fill: #a76860;
      }

      .cls-6 {
        fill: #040303;
      }

      .cls-7 {
        fill: #f5b89f;
      }

      .cls-8 {
        fill: #5b7dff;
      }
    </style>
  </defs>
  <path class="cls-6" d="m407.74,766.08c3.13,2.25,3.39,4.55.74,7.33-2.39,2.49-5.02,4.66-8.12,6.27-11.65,6.08-23.79,10.67-37.01,11.63-3.16.23-5.12,1.22-6.9,3.87-2.26,3.37-5.29,6.21-8.44,8.81-11.21,9.28-21.89,19.16-33.02,28.53-4.95,4.16-10.16,8.02-15.29,11.97-1.9,1.47-3.99,2.65-6.16,3.69-4.41,2.13-8.91,2.31-13.51.72-2.96-1.03-5.7-2.51-8.35-4.17-7.5-4.7-14.12-10.52-20.15-16.92-8.54-9.08-16.86-18.37-24.31-28.4-3.05-4.11-5.89-8.36-8.16-12.96-2.63-5.34-3.95-10.96-3.24-16.94.1-.87.26-1.74.51-2.58,1.18-4.01,4.32-6.07,8.42-5.29,5.56,1.05,10.74,3.09,15.16,6.75,1.66,1.38,3.28,2.8,4.95,4.17,1.47,1.2,1.49,1.18,2.89-.2.45-.45.91-.9,1.33-1.39,5.62-6.56,11.9-12.51,17.86-18.75,1.93-2.02,3.95-3.97,6.03-5.83.96-.86,1.2-1.68.98-2.92-1.23-7.05-.02-13.84,2.38-20.47.74-2.05,1.8-3.92,3.26-5.54,1.65-1.82,2.54-1.98,4.82-.93.73,1.32.44,2.58-.16,3.85-2.51,5.32-3.03,10.97-2.63,16.72.17,2.43.51,4.89,1.85,7.05,1.98,5.47,7.13,8.93,13.12,7.9,5.68-.98,11.21-2.47,16.69-4.18,4.13-1.29,7.22-.08,9.22,3.72.37.7.63,1.46.94,2.2,1.16,2.71,1.81,5.64,3.34,8.2,6.29,10.57,15.68,16.01,27.88,16.75,5.7.34,11.32-.4,16.87-1.61,6.65-1.45,12.99-3.8,18.99-7.03.23-.04.49-.03.69-.13,5.03-2.62,10.36-4.02,16.03-4.15,0,0-.03-.03-.03-.03,0,.37.24.37.5.31Zm-122.29-5.14c-1.4-1.16-2.83-2.3-4.2-3.49-1.41-1.23-2.49-2.78-3.76-4.38-4.8,6-9.97,11.22-15.31,16.27-1.56,1.48-2.96,3.14-4.38,4.76-2.32,2.64-4.55,5.36-6.9,7.98-2.57,2.87-5.65,3.17-8.76.93-.84-.61-1.61-1.31-2.38-2.01-2.14-1.92-4.23-3.9-6.4-5.79-2.49-2.18-5.43-3.45-8.81-4.23-.25,4.18.93,7.7,2.75,11.04,1.92,3.52,4.3,6.73,6.8,9.85,7.27,9.05,15.38,17.34,23.44,25.66,5.4,5.58,11.34,10.57,17.64,15.11,2.4,1.73,4.97,3.19,7.72,4.32,1.83.75,3.55.66,5.29-.29,1.76-.97,3.42-2.06,5.02-3.26,12.55-9.4,24.21-19.87,35.93-30.26.29-.26.49-.62.73-.93.35.04.59-.18.84-.37,3.9-3.05,7.63-6.29,11.31-9.6,2.13-1.92,2.08-2.06-.72-2.98-4.88-1.6-9.52-3.66-13.54-6.96-6.91-5.69-12.39-12.39-15.11-21.08-.53-1.69-.62-1.69-2.4-1.28-3.03.69-6.04,1.49-9.09,2.11-4.26.86-8.54,1.05-12.79-.2-.98-.29-1.82-1.03-2.92-.9Z"/>
  <path class="cls-6" d="m726.47,696.7c3.01,1.47,4.41,3.89,4.72,7.22.58,6.15.59,12.29-.01,18.43-.22,2.2.47,4.07,1.86,5.73.51.61,1.08,1.2,1.49,1.87,4.54,7.33,9.59,14.35,13.53,22.05,3.21,6.27,6.78,12.31,10.87,18.05.83,1.17,1.59,2.4,2.27,3.66,1.54,2.84,1.68,5.78.48,8.79-.8,2.01-1.8,3.92-2.86,5.8-2.6,4.59-5.25,9.16-8.23,13.51-8.59,12.57-19.19,23.11-32.34,30.86-7.4,4.37-15.35,7.51-23.97,8.62-2.39.31-4.78.39-7.14-.23-5.32-1.39-8.25-6.21-7.06-11.58.51-2.31,1.65-4.33,3-6.21,2.38-3.31,4.82-6.57,7.23-9.84-.21-.7-.84-.96-1.34-1.33-9.09-6.8-17.65-14.26-26.38-21.51-4.11-3.41-8.41-6.65-12.1-10.55-.7-.74-1.2-.44-1.85,0-2.74,1.86-5.74,3.12-8.93,3.96-4.72,1.24-9.34.98-13.87-.8-4.91-1.92-9.12-4.92-12.85-8.61-.91-.9-1.68-1.94-2.19-3.12-.77-1.79-.59-2.44,1.02-3.93,1.15-.05,2.03.61,2.99,1.11,1.08.56,1.78,1.73,3.12,1.84,3.38,2.17,7.02,3.76,10.91,4.74,1.15.29,2.32.56,3.54.54,4.78-.08,8.82-1.98,12.39-5,3.64-3.07,5.86-7.12,7.66-11.43,1.02-2.43,1.87-4.93,3-7.3,1.51-3.16,4.3-4.4,7.72-3.72,1.66.33,3.21.96,4.77,1.57,2.4.94,4.88,1.42,7.47,1.47,9.28.19,18.28-1.46,27.04-4.38,6.98-2.33,12.56-6.53,16.18-13.08,1.63-2.96,2.6-6.17,3.41-9.43.93-3.73,1.41-7.53,1.36-11.37-.04-3.1.29-6.21-.28-9.29.02-1.16.03-2.33.13-3.49.17-2.09,1.13-3.33,3.24-3.61Zm8.06,49.68c-1.75-3.63-4.13-6.88-6.1-10.5-.87.83-.98,1.65-1.3,2.35-1.42,3.16-3.22,6.06-5.6,8.6-4.16,4.44-9.1,7.77-14.66,10.19-7.07,3.09-14.48,5.03-22.11,6.08-4.59.63-9.21,1.02-13.85.21-2.22-.39-4.34-1.02-6.43-1.86-1.54-.62-1.58-.58-2.39.91-.61,1.12-1.15,2.29-1.71,3.43-1.17,2.37-2.4,4.69-4,6.81-1,1.32-1.01,1.55.45,2.4,4.63,2.7,8.92,5.89,13.21,9.08.61.52,1.17,1.08,1.82,1.54,6.46,4.58,12.68,9.47,18.79,14.5,2.96,2.44,6.06,4.7,9.32,6.74.34.21.67.43.99.68,2.96,2.33,3.52,5.83,1.37,8.93-.54.78-1.23,1.47-1.87,2.18-2.74,3.02-5.46,6.06-7.86,9.36-.48.66-1.15,1.28-1.16,2.35,3.23-.39,6.2-1.27,9.1-2.41,9.81-3.87,18.29-9.78,25.88-17.02,9.4-8.97,16.58-19.62,23.22-30.7,1.1-1.84,1.08-3.31.1-5.08-4.1-7.42-7.72-15.08-11.51-22.65-1.06-2.13-2.1-4.3-3.7-6.12Z"/>
  <path class="cls-8" d="m726.47,696.7c-2.11.28-3.06,1.53-3.24,3.61-.1,1.17-.1,2.33-.13,3.49-1.94.69-3.55,1.9-4.74,3.53-2.77,3.81-5.59,7.59-8.1,11.56-4.3,6.78-9.59,12.49-16.52,16.67-3.93,2.36-8.13,4.09-12.38,5.71-4.83,1.84-9.77,2.83-15,2.03-2.29-.35-4.63-.07-6.89.51-2.77.72-4.91,2.23-5.99,5.02-.58,1.49-1.28,2.93-1.86,4.41-2.35,6.02-6.12,10.83-11.95,13.79-5.13,2.62-10.45,4.25-16.37,3.13-1.72-.32-3.64-.61-5.39.31-1.33-.11-2.04-1.28-3.12-1.84-.96-.5-1.84-1.16-2.99-1.11-1.32-5.11-.29-10.01,1.51-14.78,3.55-9.4,9.41-17.17,16.9-23.81,8.8-7.79,18.6-14.15,28.93-19.57,12.57-6.6,25.91-11.34,39.99-13.65,5.75-.95,11.47-2.13,17.36-1.98,1.93.05,3.84.18,5.71.6,1.62.37,3.31.73,4.25,2.36Z"/>
  <path class="cls-4" d="m283.49,744.14c-1.35-2.16-1.69-4.61-1.85-7.05-.4-5.76.12-11.41,2.63-16.72.6-1.27.89-2.54.16-3.85,3.67-3.56,8.32-4.64,13.16-4.99,8.84-.64,17.5.74,26.06,2.87,17.15,4.26,32.92,11.69,47.72,21.19,7.4,4.75,14.08,10.49,20.73,16.23,2.05,1.77,4.18,3.47,6.34,5.1,2.95,2.22,5.53,4.83,8.08,7.48.38.39.86.75.75,1.41-5.67.13-11.01,1.53-16.03,4.15-.2.1-.46.09-.69.13-1.4-.91-2.99-1.02-4.58-.98-3.92.08-7.84,0-11.7-.63-9.22-1.53-18.24-3.87-27.09-6.88-6.45-2.19-12.11-5.71-17.03-10.39-2.37-2.26-4.57-4.7-6.97-6.93-3.95-3.66-6.4-3.67-10.53-1.3-.48.28-1,.51-1.46.83-5.85,4.13-12.29,4.56-19,2.95-2.94-.71-5.8-1.73-8.69-2.6Z"/>
  <path class="cls-4" d="m407.74,766.08c-.27.05-.5.06-.5-.31.31-.12.46.02.5.31Z"/>
  <path class="cls-3" d="m329.87,802.22c-.24.31-.44.68-.73.93-11.73,10.38-23.38,20.85-35.93,30.26-1.6,1.2-3.26,2.3-5.02,3.26-1.74.96-3.46,1.04-5.29.29-2.76-1.12-5.32-2.59-7.72-4.32-6.3-4.55-12.24-9.53-17.64-15.11-8.06-8.32-16.17-16.61-23.44-25.66-2.51-3.12-4.88-6.33-6.8-9.85-1.82-3.34-2.99-6.86-2.75-11.04,3.38.78,6.32,2.04,8.81,4.23,2.16,1.89,4.26,3.87,6.4,5.79.77.69,1.54,1.4,2.38,2.01,3.11,2.25,6.19,1.94,8.76-.93,2.34-2.62,4.58-5.34,6.9-7.98,1.42-1.62,2.82-3.28,4.38-4.76,5.34-5.06,10.51-10.27,15.31-16.27,1.27,1.6,2.35,3.15,3.76,4.38,1.37,1.19,2.8,2.33,4.2,3.49.79,2.77,2.5,5.01,4.47,6.97,5.61,5.59,12.54,6.86,20.1,5.67,1.9-.3,1.87-.35,2.48,1.47,2.68,7.92,6.33,15.33,11.69,21.79,1.66,2,3.36,4.04,5.68,5.38Z"/>
  <path class="cls-2" d="m283.49,744.14c2.9.88,5.76,1.9,8.69,2.6,6.71,1.61,13.15,1.19,19-2.95.45-.32.97-.55,1.46-.83,4.13-2.38,6.58-2.36,10.53,1.3,2.4,2.23,4.6,4.67,6.97,6.93,4.92,4.68,10.59,8.21,17.03,10.39,8.85,3,17.87,5.35,27.09,6.88,3.85.64,7.78.71,11.7.63,1.6-.03,3.18.08,4.58.98-6,3.23-12.34,5.58-18.99,7.03-5.54,1.21-11.16,1.95-16.87,1.61-12.2-.73-21.59-6.17-27.88-16.75-1.52-2.56-2.18-5.48-3.34-8.2-.31-.73-.57-1.49-.94-2.2-2-3.8-5.1-5.01-9.22-3.72-5.48,1.72-11.01,3.21-16.69,4.18-5.99,1.03-11.15-2.43-13.12-7.9Z"/>
  <path class="cls-5" d="m329.87,802.22c-2.33-1.33-4.03-3.38-5.68-5.38-5.36-6.46-9.01-13.88-11.69-21.79-.62-1.83-.58-1.77-2.48-1.47-7.56,1.19-14.49-.08-20.1-5.67-1.97-1.96-3.68-4.2-4.47-6.97,1.1-.13,1.94.61,2.92.9,4.25,1.25,8.53,1.06,12.79.2,3.05-.61,6.05-1.41,9.09-2.11,1.78-.41,1.87-.41,2.4,1.28,2.73,8.69,8.2,15.39,15.11,21.08,4.01,3.31,8.65,5.37,13.54,6.96,2.81.92,2.85,1.06.72,2.98-3.67,3.31-7.4,6.56-11.31,9.6-.25.2-.49.41-.84.37Z"/>
  <path class="cls-7" d="m734.53,746.38c1.6,1.81,2.64,3.99,3.7,6.12,3.79,7.57,7.41,15.23,11.51,22.65.98,1.77,1,3.24-.1,5.08-6.63,11.08-13.82,21.72-23.22,30.7-7.59,7.25-16.07,13.15-25.88,17.02-2.9,1.14-5.86,2.02-9.1,2.41,0-1.07.68-1.69,1.16-2.35,2.4-3.3,5.13-6.34,7.86-9.36.64-.71,1.33-1.4,1.87-2.18,2.15-3.1,1.59-6.6-1.37-8.93-.31-.25-.65-.47-.99-.68-3.26-2.04-6.36-4.3-9.32-6.74-6.11-5.03-12.33-9.92-18.79-14.5-.65-.46-1.22-1.02-1.82-1.54,2.76-2.66,4.57-5.92,5.76-9.52.5-1.51.85-3.07,1.25-4.61.25-.98.8-1.43,1.87-1.41,6.94.11,13.83-.55,20.72-1.36,5.5-.65,10.82-1.94,15.87-4.2,8.01-3.6,14.13-9.39,19.01-16.6Z"/>
  <path class="cls-1" d="m617.92,770.49c1.74-.93,3.67-.64,5.39-.31,5.92,1.12,11.24-.52,16.37-3.13,5.82-2.97,9.6-7.78,11.95-13.79.58-1.49,1.28-2.93,1.86-4.41,1.08-2.79,3.22-4.3,5.99-5.02,2.26-.59,4.6-.86,6.89-.51,5.22.8,10.17-.19,15-2.03,4.25-1.62,8.45-3.34,12.38-5.71,6.93-4.17,12.21-9.88,16.52-16.67,2.52-3.97,5.34-7.75,8.1-11.56,1.19-1.64,2.8-2.84,4.74-3.53.57,3.08.24,6.19.28,9.29.05,3.84-.43,7.64-1.36,11.37-.82,3.26-1.78,6.47-3.41,9.43-3.62,6.55-9.2,10.75-16.18,13.08-8.76,2.93-17.75,4.57-27.04,4.38-2.59-.05-5.07-.53-7.47-1.47-1.56-.61-3.11-1.24-4.77-1.57-3.42-.68-6.21.55-7.72,3.72-1.13,2.37-1.98,4.88-3,7.3-1.81,4.31-4.03,8.36-7.66,11.43-3.58,3.02-7.61,4.92-12.39,5-1.22.02-2.39-.25-3.54-.54-3.89-.97-7.53-2.56-10.91-4.74Z"/>
  <path class="cls-5" d="m734.53,746.38c-4.88,7.2-11,13-19.01,16.6-5.05,2.27-10.38,3.56-15.87,4.2-6.88.81-13.78,1.47-20.72,1.36-1.08-.02-1.62.43-1.87,1.41-.4,1.54-.75,3.1-1.25,4.61-1.19,3.61-3,6.86-5.76,9.52-4.29-3.19-8.58-6.38-13.21-9.08-1.45-.85-1.45-1.08-.45-2.4,1.6-2.12,2.83-4.44,4-6.81.57-1.15,1.11-2.31,1.71-3.43.8-1.49.84-1.53,2.39-.91,2.08.84,4.21,1.47,6.43,1.86,4.63.81,9.26.42,13.85-.21,7.62-1.05,15.04-2.99,22.11-6.08,5.55-2.43,10.49-5.75,14.66-10.19,2.38-2.54,4.17-5.44,5.6-8.6.32-.71.44-1.52,1.3-2.35,1.98,3.62,4.35,6.87,6.1,10.5Z"/>
</svg>