<?xml version="1.0" encoding="UTF-8"?>
<svg id="_图层_1" data-name="图层 1" xmlns="http://www.w3.org/2000/svg" viewBox="0 0 960 960">
  <defs>
    <style>
      .cls-1 {
        fill: #ca8e7b;
      }

      .cls-1, .cls-2, .cls-3, .cls-4, .cls-5, .cls-6, .cls-7, .cls-8, .cls-9, .cls-10, .cls-11, .cls-12, .cls-13, .cls-14, .cls-15 {
        stroke-width: 0px;
      }

      .cls-2 {
        fill: #f7b9a0;
      }

      .cls-4 {
        fill: #466af6;
      }

      .cls-5 {
        fill: #ccc7c7;
      }

      .cls-6 {
        fill: #b16b1f;
      }

      .cls-7 {
        fill: #fff;
      }

      .cls-8 {
        fill: #b7ceff;
      }

      .cls-9 {
        fill: #1d1a1a;
      }

      .cls-10 {
        fill: #767e7e;
      }

      .cls-11 {
        fill: #454795;
      }

      .cls-12 {
        fill: #938f8f;
      }

      .cls-13 {
        fill: #ffd741;
      }

      .cls-14 {
        fill: #a96861;
      }

      .cls-15 {
        fill: #5a7dff;
      }
    </style>
  </defs>
  <path class="cls-3" d="m712.81,319.9c-1.55-10.86-4.8-21.15-10.61-30.54-2.55-4.12-5.53-7.84-9.53-10.63-.97-.68-1.17-1.25-.73-2.34,1.54-3.79,1.76-7.76,1.31-11.78-.71-6.36-3.62-11.26-9.27-14.54-3.85-2.23-7.94-3.27-12.32-3.44-6.41-.24-12.56,1.12-18.5,3.37-7.99,3.02-15.9,6.24-23.83,9.4-7.41,2.95-14.79,6-22.66,7.63-6.02,1.25-11.97,2.81-18.23,2.32-1.45-.11-2.3-.53-3.06-1.73-2.75-4.31-5.73-8.47-8.83-12.54-4.31-5.67-9.01-11-14.16-15.93-2.41-2.3-5.01-4.37-7.84-6.16.6-.74,1.31-.97,1.92-1.34,2.8-1.71,5.51-3.53,8.16-5.46,1.56-1.14,2.4-2.53,1.97-4.51-1.23-2.13-2.52-2.62-5.21-1.57-3.35,1.3-6.71,2.58-9.96,4.1-12.75,5.97-25.9,10.84-39.44,14.73-13.96,4.01-28.18,6.24-42.65,7.01-4.31.09-8.6.02-12.89-.48-4.63-.54-9.11-1.6-13.34-3.59-6.06-2.86-7.64-7.59-4.62-13.59.4-.79.86-1.53,1.35-2.26,2.88-4.34,6.33-8.19,10.07-11.8,1.08-1.05,2.25-2.05,2.81-3.52.15-.81.2-1.57-.81-1.88-1.74-.22-3.07.75-4.42,1.56-6.21,3.74-11.82,8.19-16.07,14.16-.61.86-1.33,1.28-2.36,1.38-2.23.23-4.39.82-6.53,1.49-8.72,2.72-16.51,7.21-23.77,12.67-1.08.81-1.96,1.01-3.25.48-2.96-1.23-6.05-2.04-9.26-2.34-2.81-.26-5.36.45-7.71,2.04-3.24,2.18-4.4,7.96-2.2,10.92,1.36,1.82,2.96,3.28,4.77,4.65-.42.5-.72.87-1.04,1.23-5.11,5.63-9.84,11.56-14.17,17.81-.83,1.19-1.67,1.66-3.13,1.53-8.11-.71-15.92-2.51-23.27-6.06-3.67-1.77-7.4-3.41-11.2-4.85-2.09-.79-4.22-1.44-6.45-1.78-4.75-.73-8.62.81-11.23,4.77-3.71,5.63-4.51,11.72-1.67,18,1.63,3.6,3.93,6.8,6.92,9.4,6.8,5.92,14.59,9.99,23.36,12.14,2.31.57,4.66,1.01,7.03,1.52-1.43,3.72-2.85,7.27-4.16,10.87-1.96,5.41-3.73,10.88-5.39,16.38-.3,1-.69,1.83-1.7,2.46-7.2,4.47-13.29,10.21-18.63,16.76-3.3,4.04-6.01,8.47-8.12,13.25-4.86,11.03-5.37,22.24-1.32,33.63,2.72,7.64,6.99,14.34,12.47,20.28,6.55,7.09,14,13.09,22.2,18.16,2.65,1.64,5.32,3.24,7.98,4.86,2.49,1.43,4.91,2.98,7.55,4.17,13.39,6.02,27.26,10.54,41.57,13.82,23.15,5.32,46.62,7.71,70.33,8.12,4.24.07,8.46-.44,12.68-.46,8.16-.05,16.28-.77,24.37-1.66,19.03-2.08,37.8-5.61,56.1-11.31,16.6-5.17,32.78-11.33,47.21-21.31,4.99-3.45,9.9-7.03,14.4-11.12,5.12-4.65,9.58-9.83,13.13-15.78,5.92-9.93,8.6-20.55,6.87-32.12-.16-.54-.67-1.19.41-1.35,1.51,3.18,3.43,6.1,5.41,8.99,1.08,2.9,3.48,4.74,5.62,6.72,5.07,4.7,11.04,7.86,18.04,7.74,11.05-.18,19.63-5.26,25.75-14.47,3.75-5.4,6.98-11.09,9.06-17.35,5.29-15.94,7.1-32.24,4.72-48.92Zm-75.78,40.45c-1.31-1.79-2.62-3.59-3.95-5.38-5.16-6.95-11.99-12.02-19.01-16.87-.33-.23-.63-.5-.98-.67-1.38-.69-1.75-1.67-1.61-3.27.31-3.5-.36-6.97-.85-10.44-.42-1.91.83-1.83,1.95-1.47,4.86,1.58,9.86,1.33,14.86,1.36,2.16.01,4.27-.25,6.39-.56,1.67-.24,2.47.31,1.93,2.1-1.23,11.05-.73,22.01,1.77,32.87.09.39.1.79.15,1.19.15.59.31,1.19-.65,1.13Zm56.84-16.09c-.26,3.11-.39,6.22-1.03,9.28-.25,1.18-.63,2.31-1.12,3.41-1.4,3.18-4.26,4.8-7.73,4.36-2.28-.29-4.26-1.26-6-2.76-3.75-3.24-5.96-7.45-7.67-11.98-5.64-15.01-5.61-30.15-.89-45.37.19-.61.5-1.19.6-1.82.25-1.56,1.03-2.46,2.61-2.98,1.42-.46,2.67-1.41,4.16-2.23,1.66,1.71,2.98,3.53,4,5.51,3.74,7.23,7.65,14.37,10.23,22.15,2.43,7.31,3.48,14.74,2.83,22.42Z"/>
  <path class="cls-15" d="m452.41,210.51c.02-.61-.17-1.17-.5-1.68,2.12-1.23,4.48-1.68,6.85-1.95,2.85-.33,5.71-.55,8.59-.59,8.55-.11,17.08.23,25.61.62,10.36.47,20.71,1.13,31.05,1.9,9.94.74,19.87,1.59,29.71,3.26,2.91.5,5.81,1.06,8.56,2.19,2.35.96,4.04,2.54,4.56,5.14.16.78.33,1.58-.24,2.29-1.37-1.68-3.02-1.85-4.93-1.02-5.06,2.18-10.18,4.23-15.2,6.49-16.16,7.28-32.91,12.73-50.27,16.27-8.23,1.68-16.57,2.62-24.96,3.06-.63.03-1.27-.01-1.91-.02-4.38-2.7-9.2-4.62-13.08-8.23-3.78-3.51-5.42-7.78-5.83-12.68-.31-3.75-.09-7.48,1.23-11.08.47-1.27.75-2.6.77-3.97Z"/>
  <path class="cls-11" d="m349.61,446.19c.96-.1,1.65.54,2.41.92,15.59,7.77,32.01,13.15,49,16.88,8.5,1.87,17.05,3.41,25.66,4.58,7.43,1.01,14.89,1.74,22.38,2.19,7.73.46,15.47.9,23.21.74,10.21-.21,20.41-.7,30.59-1.71,13.99-1.39,27.83-3.62,41.52-6.81,17.16-4,33.8-9.49,49.68-17.18,4.46-2.16,8.78-4.58,13.04-7.11.73-.44,1.33-1.2,2.31-1.13-.33.8-1.12,1.11-1.74,1.58-22,16.82-46.56,28.43-73.18,35.82-22.41,6.22-45.25,9.09-68.49,8.59-27.67-.59-54.46-5.6-80.09-16.27-12.38-5.15-23.98-11.69-34.76-19.66-.56-.42-1.27-.7-1.55-1.43Z"/>
  <path class="cls-11" d="m649.63,386.19c2.59,2.92,5.18,5.83,8.31,8.22,9.39,7.17,20.23,7.41,30.24,1.43,3.74-2.23,6.93-5.12,9.66-8.52.34-.43.62-.94,1.19-1.14-.08,1.78-.71,3.43-1.36,5.05-2.01,5.01-5.26,9.1-9.42,12.49-9.16,7.47-24.51,5.47-32.01-3.16-3.6-4.14-5.78-8.95-6.62-14.37Z"/>
  <path class="cls-10" d="m643.81,378.55c-.57-.76-.55-1.62-.46-2.55.71.17.84.65.87,1.2-.43.36-.15.94-.41,1.35Z"/>
  <path class="cls-2" d="m429.35,262.45c-1.07-2.51-2.96-4.33-5.04-5.99-5.01-4.02-10.6-7.1-16.29-10.03-.77-.39-1.65-.61-2.44-1.52,6.53-4.91,13.44-9.01,21.33-11.87.03,2.36-.32,4.48.1,6.59.43,2.15,1.51,4.02,2.43,5.97,3.86,7.21,8.5,13.7,15.92,17.76,5.01,2.75,10.38,4.07,15.99,4.65,10.28,1.05,20.39-.18,30.46-2.17,1.63-.32,3.25-.96,4.96-.45.37.15.75.37.88.73.91,2.63,3,3.86,5.47,4.65.26.19.02-.13.2.12,3.21,4.51,7.96,4.26,12.57,3.77,9.27-.99,18.19-3.4,26.73-7.19.73-.32,1.41-.75,2.1-1.15,5.23-3.08,6.89-7.66,5.67-13.45-1.17-3.18-3.62-5.09-6.5-6.59-.52-.56-.54-1.14.05-1.63,2.18-1.8,4.45-3.48,6.86-4.96.29-.18.61-.03.87.17,4.43,4.3,8.28,9.09,11.9,14.09,10.89,15.03,19.4,31.38,26.91,48.29,3.6,8.11,6.81,16.38,9.57,24.82.87,2.67,1.52,5.38,2.04,8.13.4,2.09,1.43,3.7,3.29,4.76,7.53,4.27,13.17,10.61,18.44,17.27,5.03,6.36,8.44,13.53,9.57,21.67.96,6.97-.49,13.51-3.31,19.83-2.17,4.86-5.27,9.13-8.75,13.12-7.54,8.65-16.5,15.57-26.37,21.31-14.82,8.62-30.77,14.47-47.31,18.77-16.99,4.42-34.28,6.97-51.77,8.25-16.54,1.21-33.07,1.1-49.6-.12-25.98-1.92-51.28-6.94-75.54-16.68-11.17-4.48-21.72-10.13-31.45-17.25-6.58-4.81-12.24-10.53-16.64-17.41-8.07-12.63-8.53-25.65-1.73-38.93,3.5-6.84,8.46-12.58,14.08-17.77,1.82-1.68,3.68-3.32,5.53-4.97,2.03-1.81,3.42-4.04,4.07-6.65,2.96-11.85,7.76-23,13.05-33.94,7.55-15.62,16.85-30.11,28.35-43.15.26-.3.55-.58.82-.88.07-.18.19-.31.38-.37l.08-.07c1.44-.14,2.04,1.08,2.89,1.84,4.94,4.42,10.06,8.62,15.98,11.69,4.55,2.37,9.42,3.42,14.57,3.06,2.11-.15,4.08-.72,5.87-1.85,1.55-.97,2.91-2.32,2.96-4.14.09-3.38.41-6.78-.18-10.16Z"/>
  <path class="cls-13" d="m655.32,288.28c.9-2.34,2.85-3.6,4.98-4.56,2.24-1,3.85-.19,4.64,2.2.67,2.03.64,4.11.21,6.16-.91,4.3-2.08,8.54-2.81,12.87-2.55,15.24-1.96,30.26,3.67,44.84,1.99,5.15,4.76,9.75,9.24,13.17,2.62,2,5.58,3.12,8.8,3.48,6.14.68,11.49-2.81,13.53-8.78,1.47-4.29,1.58-8.79,1.84-13.25.35-6.1-.22-12.13-1.48-18.11-.21-.53-.24-1.12-.11-1.64,1.31-5.14,3.34-10.03,5.31-14.95.24-.6.8-1.39,1.53-.29,4.98,20.72,4.44,41.02-4.72,60.64-2.14,4.58-4.84,8.82-8.09,12.69-2.02,2.4-4.32,4.48-6.93,6.23-7.39,4.97-14.93,4.99-22.57.62-3.38-1.94-6.07-4.66-8.44-7.72-5.38-6.96-8.69-14.89-10.46-23.43-3.77-18.22-2.87-36.21,3.23-53.86.26-.74.38-1.56,1-2.14.87,1.16.2,2.32-.08,3.43-.81,3.2-1.37,6.39-.78,9.7.17.95.22,1.92.92,2.66.66.7,1.4,1.49,2.45,1.16.97-.3.77-1.28.78-2.06.02-1,.33-1.91.95-2.66,1.98-2.4,2.96-5.27,3.92-8.15,1.11-3.33,2.1-6.71,3.18-10.05,1.79-5.57,1.39-6.35-3.76-8.22Z"/>
  <path class="cls-14" d="m686.1,274.92c-1.34,3.2-3.23,6.07-5.62,8.55-2.32,2.42-4.84,4.64-7.29,6.93-.32.3-.62.76-1.43.53-.09-1.64-.03-3.38-.54-5.06-.47-1.54-1.05-3-2.05-4.29-2.96-3.81-7.51-4.45-11.45-1.68-5.55,3.9-9.67,9.01-12.83,14.95-1.54,2.89-2.96,5.84-4.01,8.95-.41,1.22-1.05,1.95-2.35,2.4-8.84,3.04-17.9,3.88-27.16,2.95-.16-.02-.32-.08-.47-.05-3.39.49-4.92-1.22-5.87-4.33-1.21-3.97-3.08-7.71-4.89-11.45-.24-.5-.44-1.03-.7-1.53-.42-.83-.29-1.36.73-1.51,4.93-.76,9.5-2.71,14.16-4.36,9.76-3.47,18.92-8.11,27.36-14.15.97-.7,1.93-1.43,2.81-2.24.85-.79.94-1.65-.2-2.34-.06-.92.67-1.23,1.29-1.52,9.55-4.39,19.37-6.61,29.76-3.35,5.52,1.74,9.6,5,10.7,11.08,0,.5,0,1,.05,1.5Z"/>
  <path class="cls-14" d="m551.66,239.87c-2.8,1.46-5.12,3.6-7.68,5.39-.29.2,0,.57.09.85-1.28,1.09-2.92.48-4.36.91-12.37,3.69-24.71,7.48-36.62,12.53-3,1.27-5.53,2.73-6.12,6.24-2.52-.2-4.88.71-7.29,1.15-4.95.89-9.89,1.61-14.93,1.81-2.71.11-5.41.5-8.12.33-5.49-.33-10.95-.84-16.2-2.72-6.91-2.48-12.47-6.69-16.75-12.61-1.35-1.87-2.71-3.76-3.66-5.89-.32-.72-.8-1.41-.58-2.27,5.43,6.41,12.86,8.51,20.75,9.66,11.74,1.72,23.41.93,35.05-.85,18.77-2.88,37-7.75,54.58-14.97,2.07-.85,4.15-1.67,6.16-2.64,1.28-.62,2.21-.48,3.14.58.78.89,1.68,1.67,2.53,2.5Z"/>
  <path class="cls-2" d="m317,289.85c-3.85-4.32-5.47-9.12-3.25-14.78.41-1.05.94-2.03,1.66-2.89,1.29-1.53,2.89-2.17,4.9-1.8,1.58.29,3.13.68,4.62,1.26,3.05,1.2,6.13,2.33,9.08,3.73,8.29,3.94,16.84,6.89,26.35,7.33-.81,2.19-2.15,3.87-3.17,5.72-1.04,1.89-2.15,3.74-3.23,5.61-2.17,1.31-4.66,1.01-6.98,1.16-9.02.57-17.85-.58-26.44-3.44-1.3-.43-2.57-.89-3.55-1.9Z"/>
  <path class="cls-2" d="m685.59,273.93c-1.12-6.03-5.06-9.34-10.66-11.04-9-2.73-17.67-1.32-26.15,2.14-1.53.63-3.19,1.07-4.49,2.19-2.03.54-3.82,1.6-5.63,2.58-11.42,6.19-23.49,10.73-36.06,13.95-1.78.46-3.58.79-5.42.92-.85.06-1.52-.06-1.99-.93-1.14-2.11-2.37-4.16-3.56-6.24-.15-.27-.25-.56-.5-1.12,1.99,0,3.77.42,5.57.22,9.15-1.01,18.13-2.76,26.83-5.86,9.7-3.46,19.13-7.59,28.67-11.45,5.44-2.21,10.99-3.87,16.86-4.29,4.12-.3,8.1.18,11.85,2.14,3.61,1.89,5.67,4.75,6.24,8.78.39,2.74.26,5.4-.69,8.01-.29.31-.58.3-.87,0Z"/>
  <path class="cls-8" d="m452.41,210.51c1.01,1.2.42,2.43,0,3.61-1.06,3.05-1.54,6.16-1.48,9.4.06,2.75.59,5.38,1.34,7.99.99,3.44,3.74,5.48,6.17,7.76,1.95,1.83,4.3,3.01,6.72,4.1,1.6.72,3.14,1.57,4.15,3.1-7.43.26-14.82,0-22-2.23-2.52-.78-4.93-1.82-7.09-3.37-3.59-2.56-4.65-5.56-3.47-9.8.58-2.09,1.62-3.97,2.82-5.77,2.66-4.01,5.89-7.52,9.28-10.9,1.24-1.24,2.51-2.44,3.54-3.87Z"/>
  <path class="cls-6" d="m704.68,309.43c-1.17-.5-1.1.58-1.3,1.12-1.5,4.02-2.94,8.07-4.4,12.11-.43,1.19-1.03,2.33-1.03,3.65-2.66-9.5-6.86-18.34-11.61-26.94-1.4-2.53-3.09-4.84-5.02-6.98-.59-.66-.7-1.12.09-1.74,2.96-2.34,5.46-5.13,7.78-8.44,8.14,7.49,12.73,16.83,15.48,27.23Z"/>
  <path class="cls-14" d="m429.35,262.45c.34.25.55.61.54,1.02-.12,2.63.37,5.22.49,7.83.12,2.64-1.25,4.58-3.37,5.97-1.9,1.24-4.04,1.82-6.32,1.97-7.91.52-14.69-2.32-20.92-6.87-4.38-3.2-8.67-6.51-12.5-10.38q1.56-1.82,3.49-.88c8.1,3.99,16.44,7.38,25.19,9.66,2.55.66,5.16,1.04,7.81.49,4.36-.89,6.09-3.21,5.66-7.63-.04-.39-.05-.79-.07-1.19Z"/>
  <path class="cls-7" d="m655.32,288.28c.39-.06.78-.16,1.17-.18,2.59-.13,4.25,1.44,4.23,4.03,0,.55-.04,1.13-.2,1.65-1.72,5.47-3.25,11-5.24,16.39-.67,1.81-1.54,3.49-2.82,4.96-.76.87-1.3,1.78-.76,3.04.36.84-.05,1.58-.78,2.05-.68.44-1.35.22-2.02-.17-1.7-1-2.58-2.36-2.79-4.41-.37-3.64.09-7.13,1.12-10.6.25-.83.67-1.64.49-2.56,1.84-5.11,4.21-9.93,7.61-14.2Z"/>
  <path class="cls-11" d="m635.76,325.17c-.22-1.72-.21-1.65-1.66-1.47-7.47.93-14.95,1.48-22.25-1.01-1.27-.43-1.04.44-1.21,1.04-.64-2.99-1.29-5.97-2-9.28,5.05.73,9.81,1.5,14.67,1.03,4.76-.46,9.45-1.3,14.14-2.2.54.75.1,1.43-.02,2.08-.56,2.89-1.41,5.73-1.28,8.72.02.4-.07.8-.39,1.09Z"/>
  <path class="cls-14" d="m317,289.85c4.09,1.25,8.13,2.64,12.35,3.47,5.96,1.18,11.96,1.6,17.99,1.18,2.21-.15,4.41-.48,6.63-.47-1.65,3.27-3.33,6.53-4.94,9.81-.42.85-.91,1.09-1.87.96-10.53-1.48-19.93-5.48-28.02-12.42-.83-.71-1.73-1.42-2.13-2.52Z"/>
  <path class="cls-12" d="m638.63,363.53c-.27-.64-.85-1.11-.95-1.84.15-.34,0-.82.48-1.01.61.88.53,1.94.76,2.92-.17.24-.27.23-.29-.08Z"/>
  <path class="cls-5" d="m638.16,360.69c-.13.35-.09.78-.48,1.01-.24-.43-.67-.78-.65-1.34.51-.21.47-.74.65-1.13.46.39.4.95.47,1.47Z"/>
  <path class="cls-9" d="m638.63,363.53c.11-.01.2.01.29.08.39.19.62.48.51.93-.02.09-.25.21-.32.18-.52-.24-.54-.7-.47-1.19Z"/>
  <path class="cls-1" d="m685.59,273.93c.29,0,.58,0,.87,0,.1.41-.09.72-.36,1.01-.46-.19-.54-.56-.51-1Z"/>
  <path class="cls-14" d="m387.18,262.06c0,.26-.12.38-.38.38-.01-.26.11-.39.38-.38Z"/>
  <path class="cls-7" d="m508.64,345.39c.92,2.87,2.86,4.89,5.31,6.53,5.21,3.49,10.7,6.31,16.91,7.59,2.59.53,5.19.86,7.83.81,3.75-.08,7.5.27,11.23-.43.79-.15,1.57-.33,2.3-.63,6.46-2.68,13.23-3.96,20.15-4.82,7.77-.96,15.28-.04,22.6,2.5,4.66,1.62,8.89,4.04,11.87,8.14,4.27,5.86,4.26,12.14,1.55,18.61-3.14,7.49-8.41,13.33-14.57,18.41-8.81,7.27-18.74,12.76-29.02,17.55-11.8,5.5-23.97,10.1-36.74,12.87-7.54,1.64-15.12,3.11-22.78,4.18-6.23.87-12.48,1.58-18.73,2.17-2.85.27-5.71.64-8.58.58-3.36-.07-6.69.41-10.04.43-7.34.03-14.67-.46-21.98-.99-7.06-.51-14.07-1.56-21.08-2.63-11.66-1.79-23.24-3.91-34.66-6.85-15.17-3.9-29.11-10.48-41.65-19.87-4.81-3.6-9.07-7.83-12.24-13.01-3.71-6.05-4.97-12.65-3.37-19.53,1.46-6.29,6.09-9.7,12.08-11.36,1.49-.41,3.1-.94,4.67-.1.86.76.87,1.85,1.08,2.84,2.79,13.16,15.4,23.32,28.78,23.51,8.69.13,16.15-2.45,22.38-8.56,1.61-1.58,2.27-1.49,3.48.6,3.34,5.78,8.07,10.05,13.87,13.23,1.14.62,2.29,1.17,3.62,1.03.85-.09,1.53-.5,1.78-1.37.23-.8-.18-1.34-.75-1.87-6.76-6.32-11.67-13.9-15.16-22.42-2.49-6.09-2.37-12.49-1.85-18.9.06-.71.21-1.43.47-2.1.59-1.55,1.15-1.66,2.36-.45.45.45.89.92,1.19,1.49,1.88,7.11,7.34,9.56,14.28,6.2,5.43-2.63,9.77-6.6,12.75-11.89,1.91-3.39,2.52-7.02,1.16-10.82-.25-.71-.75-1.52.3-2.07,2.35-.5,4.73-.66,7.13-.8,7.82-.47,15.64.1,23.46,0,1.05-.01,2.71.42,2.91-.87.22-1.44-1.54-1.58-2.6-1.93-5.06-1.66-10.29-2.35-15.58-2.43-6.95-.11-13.91-.01-20.87-.04-1.17,0-2.42.23-3.44-.65-1.49-.41-3.02.18-4.62-.17.48-2.19,1.85-3.9,2.96-5.7,3.28-5.29,6.64-10.55,10.69-15.28,5.04-5.88,10.25-11.62,16.91-15.76,3.6-2.24,7.33-4.18,11.58-4.94,4.72-.84,9.38-.74,13.95.73,5.53,1.79,10.57,4.46,14.68,8.7,3.7,3.81,5.76,8.33,6.25,13.63.18,1.91.42,3.8.41,5.72,0,.89-.1,1.75-.42,2.58-.19,1.49-1.53,1.97-2.52,2.68-3.05,2.19-6.1,4.37-9,6.77-4.27,3.53-4.02,8.97.61,12.06,1.47.98,3.09,1.65,4.77,2.21,3.18,1.06,6.4,2.03,9.53,3.24.9.35,2.1.42,2.39,1.69Z"/>
  <path class="cls-3" d="m410.78,352.81c-.94-.61-1.51-1.61-2.39-2.44-.74,1.85-.93,3.67-1.06,5.5-.6,7.85.82,15.26,4.66,22.19,2.84,5.13,6.33,9.79,9.99,14.33.69.86,1.49,1.59,2.55,2.1,1.61.78,1.68,2.6.26,3.69-1.45,1.11-3.01.95-4.51.14-5.47-2.95-10.51-6.42-13.92-11.8-.81-1.28-1.63-2.55-2.55-3.98-.93.86-1.76,1.67-2.63,2.43-17.82,15.41-45.04,6.05-50.67-15.22-.37-1.38-.53-2.82-.79-4.24.21-1.05.1-2.4,1.53-2.57,1.41-.17,1.68,1.13,2.15,2.1.23.49.2,1.09.67,1.47,1.15.76,1.47,2.06,2.04,3.18,5.88,11.5,18.39,17.21,30.84,13.99,4.61-1.19,8.45-3.69,11.7-7.16.86-.93,1.16-1.85.69-3.04-.47-1.19-.73-2.45-.99-3.99-2.95,2.91-6.27,4.88-10.1,6.09-8.62,2.72-17.23-.2-22.32-7.65-5.18-7.59-6.4-16.13-5.62-24.99.89-10.19,4.57-19.38,10.9-27.47,1.19-1.52,2.57-2.84,3.94-4.19,1.16-1.14,2.22-1.28,2.99.37,2.14,4.57,7.97,5.14,11.86,1.85,2.81-2.38,5.27-4.95,5.23-8.99-.02-1.77,1-2.15,2.52-1.91,3.67.6,6.8,2.3,9.52,4.74,5.24,4.71,7.79,10.8,8.8,17.64.13.86.03,1.77.7,2.67.66-.48.73-1.22.77-1.85.47-7.38.57-14.73-2.57-21.66-3.5-7.73-8.49-10.64-15.84-10.57-4.95.05-9.56,1.71-13.86,4.18-4.87,2.81-9.33,6.15-13.24,10.22-1.38,1.44-2.78,2.88-4.26,4.22-.8.72-1.57,1.67-2.89,1.28-2.55-.22-3.21-1.35-2.09-3.6.25-.5.55-.98.88-1.43,6.75-9.13,15.08-16.27,25.76-20.43,5.23-2.03,10.66-2.96,16.23-1.89,8.08,1.55,13.59,6.45,16.96,13.8,2.72,5.94,3.44,12.27,3.22,18.73-.1,2.96-.55,5.88-1.07,8.91,1.97.26,3.85.13,5.71-.31,7.99-.24,15.98-.35,23.97-.07,5.52.19,10.99.8,16.29,2.46.98.31,2,.59,2.83,1.26.58.48.99,1.09.8,1.87-.21.82-.87,1.04-1.65,1.1-2.08.16-4.15.17-6.23.05-9.19-.51-18.37-.28-27.53.56-.77.52-1.68.85-1.11,2.18,1.84,4.3.18,8-2.83,10.83-5.26,4.95-11.55,7.92-18.99,7.6-1.95-.09-4.04-.25-5.22-2.29Z"/>
  <path class="cls-7" d="m364.86,313.46c1.59-.71,2.66-2.02,3.83-3.22,3.86-3.97,7.96-7.63,12.55-10.73,4.13-2.79,8.5-5.07,13.44-6.1,3.01-.63,6.03-.79,9.04-.08,4.52,1.06,7.89,3.7,10.31,7.63,2.57,4.18,3.77,8.8,4.18,13.62.36,4.23.25,8.46-.21,12.69-.13,1.2-.57,1.74-1.87,1.78-.51-1.04-.45-2.24-.59-3.39-.65-5.25-2.33-10.12-5.47-14.4-3.46-4.73-8.05-7.66-14.02-8.3-.1.27-.24.48-.24.69,0,5.45-3.54,10.43-8.69,12.22-3.78,1.32-7.49-.09-9.42-3.58-.3-.54-.54-1.12-.83-1.73-1.34.79-2.28,1.9-3.22,2.96-6.8,7.69-10.9,16.65-12.4,26.79-.99,6.74-.7,13.39,1.45,19.9,1.09,3.29,2.64,6.35,4.93,8.97,5.29,6.04,11.85,8.13,19.64,6.07,4.25-1.12,7.25-2.98,11.3-6.82.59,2.07,1.11,4.17,1.78,6.21.34,1.03-.32,1.49-.85,2.03-7.36,7.6-16.22,10.27-26.46,7.57-9.43-2.48-15.59-8.66-18.99-17.71.15-.88.05-1.76-.17-2.61-1.15-4.52-1.34-9.05-.92-13.73.54-5.98,1.43-11.86,3.03-17.63,1.7-6.1,4.42-11.79,7.24-17.44.38-.75,1.08-1.11,1.64-1.65Z"/>
  <path class="cls-3" d="m508.64,345.39c-3.23-1.6-6.73-2.46-10.08-3.72-1.49-.56-3.02-1.03-4.53-1.55-2.65-.91-4.45-2.71-5.62-5.23-1.55-3.35-.97-6.19,1.86-8.58,2.93-2.47,5.99-4.78,9.13-6.98,1.17-.82,2.3-1.71,3.44-2.57,2.68-1.86,5.37-3.72,8.05-5.59,7.46-5.24,14.84-10.58,22.54-15.47,2.77-1.76,5.58-3.45,8.57-4.81,1.53-.7,3.1-1.32,4.83-1.24,2.62.11,4.07,1.99,3.52,4.55-.26,1.21-.94,2.2-1.69,3.14-1.3,1.64-2.83,3.04-4.38,4.43-4.66,4.15-9.66,7.88-14.7,11.56-7.3,5.32-14.63,10.6-21.94,15.9-.63.46-1.24.96-1.92,1.48.73.81,1.64.87,2.43,1.14,11.13,3.75,22.27,7.47,33.41,11.22,1.74.59,3.45,1.27,5.15,1.96,1.11.46,2.14,1.09,2.98,1.98,1.68,1.78,2.29,3.86,1.45,6.18-.84,2.33-2.66,3.52-5.08,3.8-1.79.2-3.51-.19-5.19-.75-4.25-1.41-8.48-2.85-12.72-4.31-5.82-2-11.63-4.03-17.45-6.03-.67-.23-1.31-.63-2.07-.51Z"/>
  <path class="cls-3" d="m496.97,265.79c-.63-2.17.26-3.69,2.03-4.87.87-.58,1.79-1.04,2.75-1.46,10.49-4.58,21.35-8.1,32.3-11.38,1.07-.32,2.14-.64,3.2-1,2.21-.74,4.47-1.18,6.82-.97,3.38.85,5.4,3.16,6.71,6.24.87,5.81-.69,8.44-6.62,10.62-7.19,2.65-14.53,4.79-22.03,6.4-5.06,1.09-10.09,2.39-15.32,2.37-1.37,0-2.7-.13-3.98-.63-3.06-.55-5.02-2.33-5.86-5.33Z"/>
  <path class="cls-14" d="m502.83,271.12c7.19.51,14.07-1.29,20.99-2.83,6.54-1.46,12.95-3.4,19.27-5.62,1.73-.61,3.41-1.33,4.89-2.46,2.05-1.57,3.14-3.56,2.86-6.2-.06-.55-.04-1.11-.06-1.67.52.38.53.96.54,1.51.01.88-.13,1.77-.02,2.63.61,4.55-2.01,7.36-5.29,9.75-3.54,2.58-7.66,3.9-11.8,5.11-4.35,1.28-8.71,2.54-13.2,3.32-3.95.69-7.92.92-11.91.7-1.93-.1-3.56-.96-4.66-2.56-.46-.68-1.05-1.16-1.62-1.7Z"/>
  <path class="cls-7" d="m643.21,345.82c-.28-2.19.47-4.31,2.91-5.81,2.58-1.58,5.4-1.16,7.11,1.35.44.65.83,1.38,1.07,2.13,1.19,3.76,1.68,7.6,1.03,11.52-.1.62-.33,1.23-.59,1.8-.83,1.83-2.25,2.92-4.26,2.97-1.89.05-3.4-.86-4.32-2.51-1.89-3.4-2.85-7.06-2.94-11.44Z"/>
  <path class="cls-3" d="m495.53,383.89c-.19,4.23-1.48,8.31-3.7,12.09-3.59,6.12-8.67,10.59-15.17,13.43-1.17.51-2.38.93-3.69.93-1.48,0-2.63-.59-3.34-1.92-.67-1.26-.45-2.48.25-3.64.59-.98,1.45-1.71,2.36-2.35,7.19-5.11,11.11-12.38,13.67-20.56.31-.99.56-2,.97-2.95.68-1.59,1.93-2.59,3.68-2.65,1.86-.06,3.17.97,4,2.58.79,1.53.96,3.2.97,5.06Z"/>
  <path class="cls-14" d="m410.78,352.81c3.73,2.39,7.72,2.05,11.72,1.04,4.07-1.03,7.67-3.05,10.94-5.66,1.19-.95,2.19-2.09,2.98-3.39,1.79-2.95,2.09-5.96.32-9.04-.15-.26-.39-.51-.21-1.02.69-.39,1.54-.35,2.4-.25,2.2,3.19,2.08,6.61.79,10.04-2.2,5.84-6.48,9.93-11.55,13.3-1.94,1.29-4.02,2.23-6.33,2.7-1.93.39-3.8.28-5.66-.27-3.62-1.08-5.31-3.42-5.39-7.45Z"/>
  <path class="cls-4" d="m386.08,354.48c-.09,2.94-.93,5.75-2.61,8.26-1.97,2.94-5.23,4.04-8.62,2.92-4.71-1.56-6.95-5.16-7.68-9.8-.56-3.57.01-7.02,1.99-10.12,3.25-5.09,9.69-5.51,13.6-.89,2.32,2.75,3.15,6.04,3.32,9.63Z"/>
</svg>